  0
SECTION
  2
HEADER
  9
$ACADVER
  1
AC1027
  9
$ACADMAINTVER
 70
105
  9
$DWGCODEPAGE
  3
ANSI_1252
  9
$LASTSAVEDBY
  1
ezdxf
  9
$REQUIREDVERSIONS
160
0
  9
$INSBASE
 10
0.0
 20
0.0
 30
0.0
  9
$EXTMIN
 10
1e+20
 20
1e+20
 30
1e+20
  9
$EXTMAX
 10
-1e+20
 20
-1e+20
 30
-1e+20
  9
$LIMMIN
 10
0.0
 20
0.0
  9
$LIMMAX
 10
420.0
 20
297.0
  9
$ORTHOMODE
 70
0
  9
$REGENMODE
 70
1
  9
$FILLMODE
 70
1
  9
$QTEXTMODE
 70
0
  9
$MIRRTEXT
 70
1
  9
$LTSCALE
 40
1.0
  9
$ATTMODE
 70
1
  9
$TEXTSIZE
 40
2.5
  9
$TRACEWID
 40
1.0
  9
$TEXTSTYLE
  7
OpenSans
  9
$CLAYER
  8
0
  9
$CELTYPE
  6
ByLayer
  9
$CECOLOR
 62
256
  9
$CELTSCALE
 40
1.0
  9
$DISPSILH
 70
0
  9
$DIMSCALE
 40
1.0
  9
$DIMASZ
 40
0.175
  9
$DIMEXO
 40
0.125
  9
$DIMDLI
 40
3.75
  9
$DIMRND
 40
0.0
  9
$DIMDLE
 40
0.0
  9
$DIMEXE
 40
0.375
  9
$DIMTP
 40
0.0
  9
$DIMTM
 40
0.0
  9
$DIMTXT
 40
0.25
  9
$DIMCEN
 40
2.5
  9
$DIMTSZ
 40
0.0
  9
$DIMTOL
 70
0
  9
$DIMLIM
 70
0
  9
$DIMTIH
 70
0
  9
$DIMTOH
 70
0
  9
$DIMSE1
 70
0
  9
$DIMSE2
 70
0
  9
$DIMTAD
 70
1
  9
$DIMZIN
 70
12
  9
$DIMBLK
  1
ARCHTICK
  9
$DIMASO
 70
1
  9
$DIMSHO
 70
1
  9
$DIMPOST
  1

  9
$DIMAPOST
  1

  9
$DIMALT
 70
0
  9
$DIMALTD
 70
3
  9
$DIMALTF
 40
0.03937007874
  9
$DIMLFAC
 40
100.0
  9
$DIMTOFL
 70
1
  9
$DIMTVP
 40
0.0
  9
$DIMTIX
 70
0
  9
$DIMSOXD
 70
0
  9
$DIMSAH
 70
0
  9
$DIMBLK1
  1

  9
$DIMBLK2
  1

  9
$DIMSTYLE
  2
EZDXF
  9
$DIMCLRD
 70
0
  9
$DIMCLRE
 70
0
  9
$DIMCLRT
 70
0
  9
$DIMTFAC
 40
0.5
  9
$DIMGAP
 40
0.1
  9
$DIMJUST
 70
0
  9
$DIMSD1
 70
0
  9
$DIMSD2
 70
0
  9
$DIMTOLJ
 70
0
  9
$DIMTZIN
 70
8
  9
$DIMALTZ
 70
0
  9
$DIMALTTZ
 70
0
  9
$DIMUPT
 70
1
  9
$DIMDEC
 70
2
  9
$DIMTDEC
 70
2
  9
$DIMALTU
 70
2
  9
$DIMALTTD
 70
3
  9
$DIMTXSTY
  7
OpenSansCondensed-Light
  9
$DIMAUNIT
 70
0
  9
$DIMADEC
 70
2
  9
$DIMALTRND
 40
0.0
  9
$DIMAZIN
 70
3
  9
$DIMDSEP
 70
46
  9
$DIMATFIT
 70
3
  9
$DIMFRAC
 70
0
  9
$DIMLDRBLK
  1

  9
$DIMLUNIT
 70
2
  9
$DIMLWD
 70
-2
  9
$DIMLWE
 70
-2
  9
$DIMTMOVE
 70
2
  9
$DIMFXL
 40
1.0
  9
$DIMFXLON
 70
0
  9
$DIMJOGANG
 40
0.785398163397
  9
$DIMTFILL
 70
0
  9
$DIMTFILLCLR
 70
0
  9
$DIMARCSYM
 70
0
  9
$DIMLTYPE
  6

  9
$DIMLTEX1
  6

  9
$DIMLTEX2
  6

  9
$DIMTXTDIRECTION
 70
0
  9
$LUNITS
 70
2
  9
$LUPREC
 70
4
  9
$SKETCHINC
 40
1.0
  9
$FILLETRAD
 40
10.0
  9
$AUNITS
 70
0
  9
$AUPREC
 70
2
  9
$MENU
  1
.
  9
$ELEVATION
 40
0.0
  9
$PELEVATION
 40
0.0
  9
$THICKNESS
 40
0.0
  9
$LIMCHECK
 70
0
  9
$CHAMFERA
 40
0.0
  9
$CHAMFERB
 40
0.0
  9
$CHAMFERC
 40
0.0
  9
$CHAMFERD
 40
0.0
  9
$SKPOLY
 70
0
  9
$TDCREATE
 40
2461081.58974537
  9
$TDUCREATE
 40
2458532.153996898
  9
$TDUPDATE
 40
2461081.58974537
  9
$TDUUPDATE
 40
2458532.1544311
  9
$TDINDWG
 40
0.0
  9
$TDUSRTIMER
 40
0.0
  9
$USRTIMER
 70
1
  9
$ANGBASE
 50
0.0
  9
$ANGDIR
 70
0
  9
$PDMODE
 70
0
  9
$PDSIZE
 40
0.0
  9
$PLINEWID
 40
0.0
  9
$SPLFRAME
 70
0
  9
$SPLINETYPE
 70
6
  9
$SPLINESEGS
 70
8
  9
$HANDSEED
  5
90
  9
$SURFTAB1
 70
6
  9
$SURFTAB2
 70
6
  9
$SURFTYPE
 70
6
  9
$SURFU
 70
6
  9
$SURFV
 70
6
  9
$UCSBASE
  2

  9
$UCSNAME
  2

  9
$UCSORG
 10
0.0
 20
0.0
 30
0.0
  9
$UCSXDIR
 10
1.0
 20
0.0
 30
0.0
  9
$UCSYDIR
 10
0.0
 20
1.0
 30
0.0
  9
$UCSORTHOREF
  2

  9
$UCSORTHOVIEW
 70
0
  9
$UCSORGTOP
 10
0.0
 20
0.0
 30
0.0
  9
$UCSORGBOTTOM
 10
0.0
 20
0.0
 30
0.0
  9
$UCSORGLEFT
 10
0.0
 20
0.0
 30
0.0
  9
$UCSORGRIGHT
 10
0.0
 20
0.0
 30
0.0
  9
$UCSORGFRONT
 10
0.0
 20
0.0
 30
0.0
  9
$UCSORGBACK
 10
0.0
 20
0.0
 30
0.0
  9
$PUCSBASE
  2

  9
$PUCSNAME
  2

  9
$PUCSORG
 10
0.0
 20
0.0
 30
0.0
  9
$PUCSXDIR
 10
1.0
 20
0.0
 30
0.0
  9
$PUCSYDIR
 10
0.0
 20
1.0
 30
0.0
  9
$PUCSORTHOREF
  2

  9
$PUCSORTHOVIEW
 70
0
  9
$PUCSORGTOP
 10
0.0
 20
0.0
 30
0.0
  9
$PUCSORGBOTTOM
 10
0.0
 20
0.0
 30
0.0
  9
$PUCSORGLEFT
 10
0.0
 20
0.0
 30
0.0
  9
$PUCSORGRIGHT
 10
0.0
 20
0.0
 30
0.0
  9
$PUCSORGFRONT
 10
0.0
 20
0.0
 30
0.0
  9
$PUCSORGBACK
 10
0.0
 20
0.0
 30
0.0
  9
$USERI1
 70
0
  9
$USERI2
 70
0
  9
$USERI3
 70
0
  9
$USERI4
 70
0
  9
$USERI5
 70
0
  9
$USERR1
 40
0.0
  9
$USERR2
 40
0.0
  9
$USERR3
 40
0.0
  9
$USERR4
 40
0.0
  9
$USERR5
 40
0.0
  9
$WORLDVIEW
 70
1
  9
$SHADEDGE
 70
3
  9
$SHADEDIF
 70
70
  9
$TILEMODE
 70
1
  9
$MAXACTVP
 70
64
  9
$PINSBASE
 10
0.0
 20
0.0
 30
0.0
  9
$PLIMCHECK
 70
0
  9
$PEXTMIN
 10
1e+20
 20
1e+20
 30
1e+20
  9
$PEXTMAX
 10
-1e+20
 20
-1e+20
 30
-1e+20
  9
$PLIMMIN
 10
0.0
 20
0.0
  9
$PLIMMAX
 10
420.0
 20
297.0
  9
$UNITMODE
 70
0
  9
$VISRETAIN
 70
1
  9
$PLINEGEN
 70
0
  9
$PSLTSCALE
 70
1
  9
$TREEDEPTH
 70
3020
  9
$CMLSTYLE
  2
Standard
  9
$CMLJUST
 70
0
  9
$CMLSCALE
 40
20.0
  9
$PROXYGRAPHICS
 70
1
  9
$MEASUREMENT
 70
1
  9
$CELWEIGHT
370
-1
  9
$ENDCAPS
280
0
  9
$JOINSTYLE
280
0
  9
$LWDISPLAY
290
0
  9
$INSUNITS
 70
6
  9
$HYPERLINKBASE
  1

  9
$STYLESHEET
  1

  9
$XEDIT
290
1
  9
$CEPSNTYPE
380
0
  9
$PSTYLEMODE
290
1
  9
$FINGERPRINTGUID
  2
{9E0397C0-8A29-4A24-9A41-CB24189CDD59}
  9
$VERSIONGUID
  2
{34ED8B81-1A85-494C-86F2-5457DDDEB3D2}
  9
$EXTNAMES
290
1
  9
$PSVPSCALE
 40
0.0
  9
$OLESTARTUP
290
0
  9
$SORTENTS
280
127
  9
$INDEXCTL
280
0
  9
$HIDETEXT
280
1
  9
$XCLIPFRAME
280
1
  9
$HALOGAP
280
0
  9
$OBSCOLOR
 70
257
  9
$OBSLTYPE
280
0
  9
$INTERSECTIONDISPLAY
280
0
  9
$INTERSECTIONCOLOR
 70
257
  9
$DIMASSOC
280
2
  9
$PROJECTNAME
  1

  9
$CAMERADISPLAY
290
0
  9
$LENSLENGTH
 40
50.0
  9
$CAMERAHEIGHT
 40
0.0
  9
$STEPSPERSEC
 40
24.0
  9
$STEPSIZE
 40
100.0
  9
$3DDWFPREC
 40
2.0
  9
$PSOLWIDTH
 40
0.005
  9
$PSOLHEIGHT
 40
0.08
  9
$LOFTANG1
 40
1.570796326795
  9
$LOFTANG2
 40
1.570796326795
  9
$LOFTMAG1
 40
0.0
  9
$LOFTMAG2
 40
0.0
  9
$LOFTPARAM
 70
7
  9
$LOFTNORMALS
280
1
  9
$LATITUDE
 40
37.795
  9
$LONGITUDE
 40
-122.394
  9
$NORTHDIRECTION
 40
0.0
  9
$TIMEZONE
 70
-8000
  9
$LIGHTGLYPHDISPLAY
280
1
  9
$TILEMODELIGHTSYNCH
280
1
  9
$CMATERIAL
347
20
  9
$SOLIDHIST
280
0
  9
$SHOWHIST
280
1
  9
$DWFFRAME
280
2
  9
$DGNFRAME
280
2
  9
$REALWORLDSCALE
290
1
  9
$INTERFERECOLOR
 62
256
  9
$CSHADOW
280
0
  9
$SHADOWPLANELOCATION
 40
0.0
  0
ENDSEC
  0
SECTION
  2
CLASSES
  0
CLASS
  1
ACDBDICTIONARYWDFLT
  2
AcDbDictionaryWithDefault
  3
ObjectDBX Classes
 90
0
 91
0
280
0
281
0
  0
CLASS
  1
SUN
  2
AcDbSun
  3
SCENEOE
 90
1153
 91
0
280
0
281
0
  0
CLASS
  1
VISUALSTYLE
  2
AcDbVisualStyle
  3
ObjectDBX Classes
 90
4095
 91
0
280
0
281
0
  0
CLASS
  1
MATERIAL
  2
AcDbMaterial
  3
ObjectDBX Classes
 90
1153
 91
0
280
0
281
0
  0
CLASS
  1
SCALE
  2
AcDbScale
  3
ObjectDBX Classes
 90
1153
 91
0
280
0
281
0
  0
CLASS
  1
TABLESTYLE
  2
AcDbTableStyle
  3
ObjectDBX Classes
 90
4095
 91
0
280
0
281
0
  0
CLASS
  1
MLEADERSTYLE
  2
AcDbMLeaderStyle
  3
ACDB_MLEADERSTYLE_CLASS
 90
4095
 91
0
280
0
281
0
  0
CLASS
  1
DICTIONARYVAR
  2
AcDbDictionaryVar
  3
ObjectDBX Classes
 90
0
 91
0
280
0
281
0
  0
CLASS
  1
CELLSTYLEMAP
  2
AcDbCellStyleMap
  3
ObjectDBX Classes
 90
1152
 91
0
280
0
281
0
  0
CLASS
  1
MENTALRAYRENDERSETTINGS
  2
AcDbMentalRayRenderSettings
  3
SCENEOE
 90
1024
 91
0
280
0
281
0
  0
CLASS
  1
ACDBDETAILVIEWSTYLE
  2
AcDbDetailViewStyle
  3
ObjectDBX Classes
 90
1025
 91
0
280
0
281
0
  0
CLASS
  1
ACDBSECTIONVIEWSTYLE
  2
AcDbSectionViewStyle
  3
ObjectDBX Classes
 90
1025
 91
0
280
0
281
0
  0
CLASS
  1
RASTERVARIABLES
  2
AcDbRasterVariables
  3
ISM
 90
0
 91
0
280
0
281
0
  0
CLASS
  1
LAYOUT
  2
AcDbLayout
  3
ObjectDBX Classes
 90
0
 91
0
280
0
281
0
  0
CLASS
  1
ACDBPLACEHOLDER
  2
AcDbPlaceHolder
  3
ObjectDBX Classes
 90
0
 91
0
280
0
281
0
  0
ENDSEC
  0
SECTION
  2
TABLES
  0
TABLE
  2
VPORT
  5
8
330
0
100
AcDbSymbolTable
 70
1
  0
VPORT
  5
23
330
8
100
AcDbSymbolTableRecord
100
AcDbViewportTableRecord
  2
*Active
 70
0
 10
0.0
 20
0.0
 11
1.0
 21
1.0
 12
0.0
 22
0.0
 13
0.0
 23
0.0
 14
0.5
 24
0.5
 15
0.5
 25
0.5
 16
0.0
 26
0.0
 36
1.0
 17
0.0
 27
0.0
 37
0.0
 40
1000.0
 41
1.34
 42
50.0
 43
0.0
 44
0.0
 50
0.0
 51
0.0
 71
0
 72
1000
 73
1
 74
3
 75
0
 76
0
 77
0
 78
0
281
0
 65
0
146
0.0
  0
ENDTAB
  0
TABLE
  2
LTYPE
  5
2
330
0
100
AcDbSymbolTable
 70
21
  0
LTYPE
  5
24
330
2
100
AcDbSymbolTableRecord
100
AcDbLinetypeTableRecord
  2
ByBlock
 70
0
  3

 72
65
 73
0
 40
0.0
  0
LTYPE
  5
25
330
2
100
AcDbSymbolTableRecord
100
AcDbLinetypeTableRecord
  2
ByLayer
 70
0
  3

 72
65
 73
0
 40
0.0
  0
LTYPE
  5
26
330
2
100
AcDbSymbolTableRecord
100
AcDbLinetypeTableRecord
  2
Continuous
 70
0
  3

 72
65
 73
0
 40
0.0
  0
LTYPE
  5
2F
330
2
100
AcDbSymbolTableRecord
100
AcDbLinetypeTableRecord
  2
CENTER
 70
0
  3
Center ____ _ ____ _ ____ _ ____ _ ____ _ ____
 72
65
 73
4
 40
5.08
 49
3.175
 74
0
 49
-0.635
 74
0
 49
0.635
 74
0
 49
-0.635
 74
0
  0
LTYPE
  5
30
330
2
100
AcDbSymbolTableRecord
100
AcDbLinetypeTableRecord
  2
CENTERX2
 70
0
  3
Center (2x) ________  __  ________  __  ________
 72
65
 73
4
 40
8.89
 49
6.35
 74
0
 49
-0.635
 74
0
 49
1.27
 74
0
 49
-0.635
 74
0
  0
LTYPE
  5
31
330
2
100
AcDbSymbolTableRecord
100
AcDbLinetypeTableRecord
  2
CENTER2
 70
0
  3
Center (.5x) ____ _ ____ _ ____ _ ____ _ ____
 72
65
 73
4
 40
2.54
 49
1.587
 74
0
 49
-0.318
 74
0
 49
0.318
 74
0
 49
-0.318
 74
0
  0
LTYPE
  5
32
330
2
100
AcDbSymbolTableRecord
100
AcDbLinetypeTableRecord
  2
DASHED
 70
0
  3
Dashed __ __ __ __ __ __ __ __ __ __ __ __ __ _
 72
65
 73
2
 40
1.524
 49
1.27
 74
0
 49
-0.254
 74
0
  0
LTYPE
  5
33
330
2
100
AcDbSymbolTableRecord
100
AcDbLinetypeTableRecord
  2
DASHEDX2
 70
0
  3
Dashed (2x) ____  ____  ____  ____  ____  ____
 72
65
 73
2
 40
3.048
 49
2.54
 74
0
 49
-0.508
 74
0
  0
LTYPE
  5
34
330
2
100
AcDbSymbolTableRecord
100
AcDbLinetypeTableRecord
  2
DASHED2
 70
0
  3
Dashed (.5x) _ _ _ _ _ _ _ _ _ _ _ _ _ _
 72
65
 73
2
 40
0.762
 49
0.635
 74
0
 49
-0.127
 74
0
  0
LTYPE
  5
35
330
2
100
AcDbSymbolTableRecord
100
AcDbLinetypeTableRecord
  2
PHANTOM
 70
0
  3
Phantom ______  __  __  ______  __  __  ______
 72
65
 73
6
 40
6.35
 49
3.175
 74
0
 49
-0.635
 74
0
 49
0.635
 74
0
 49
-0.635
 74
0
 49
0.635
 74
0
 49
-0.635
 74
0
  0
LTYPE
  5
36
330
2
100
AcDbSymbolTableRecord
100
AcDbLinetypeTableRecord
  2
PHANTOMX2
 70
0
  3
Phantom (2x)____________    ____    ____    ____________
 72
65
 73
6
 40
10.795
 49
6.35
 74
0
 49
-0.635
 74
0
 49
1.27
 74
0
 49
-0.635
 74
0
 49
1.27
 74
0
 49
-0.635
 74
0
  0
LTYPE
  5
37
330
2
100
AcDbSymbolTableRecord
100
AcDbLinetypeTableRecord
  2
PHANTOM2
 70
0
  3
Phantom (.5x) ___ _ _ ___ _ _ ___ _ _ ___ _ _ ___
 72
65
 73
6
 40
3.175
 49
1.587
 74
0
 49
-0.318
 74
0
 49
0.318
 74
0
 49
-0.318
 74
0
 49
0.318
 74
0
 49
-0.318
 74
0
  0
LTYPE
  5
38
330
2
100
AcDbSymbolTableRecord
100
AcDbLinetypeTableRecord
  2
DASHDOT
 70
0
  3
Dash dot __ . __ . __ . __ . __ . __ . __ . __
 72
65
 73
4
 40
3.556
 49
2.54
 74
0
 49
-0.508
 74
0
 49
0.0
 74
0
 49
-0.508
 74
0
  0
LTYPE
  5
39
330
2
100
AcDbSymbolTableRecord
100
AcDbLinetypeTableRecord
  2
DASHDOTX2
 70
0
  3
Dash dot (2x) ____  .  ____  .  ____  .  ____
 72
65
 73
4
 40
6.096
 49
5.08
 74
0
 49
-0.508
 74
0
 49
0.0
 74
0
 49
-0.508
 74
0
  0
LTYPE
  5
3A
330
2
100
AcDbSymbolTableRecord
100
AcDbLinetypeTableRecord
  2
DASHDOT2
 70
0
  3
Dash dot (.5x) _ . _ . _ . _ . _ . _ . _ . _
 72
65
 73
4
 40
1.778
 49
1.27
 74
0
 49
-0.254
 74
0
 49
0.0
 74
0
 49
-0.254
 74
0
  0
LTYPE
  5
3B
330
2
100
AcDbSymbolTableRecord
100
AcDbLinetypeTableRecord
  2
DOT
 70
0
  3
Dot .  .  .  .  .  .  .  .  .  .  .  .  .  .  .  .
 72
65
 73
2
 40
0.508
 49
0.0
 74
0
 49
-0.508
 74
0
  0
LTYPE
  5
3C
330
2
100
AcDbSymbolTableRecord
100
AcDbLinetypeTableRecord
  2
DOTX2
 70
0
  3
Dot (2x) .    .    .    .    .    .    .    . 
 72
65
 73
2
 40
1.016
 49
0.0
 74
0
 49
-1.016
 74
0
  0
LTYPE
  5
3D
330
2
100
AcDbSymbolTableRecord
100
AcDbLinetypeTableRecord
  2
DOT2
 70
0
  3
Dot (.5) . . . . . . . . . . . . . . . . . . . 
 72
65
 73
2
 40
0.254
 49
0.0
 74
0
 49
-0.254
 74
0
  0
LTYPE
  5
3E
330
2
100
AcDbSymbolTableRecord
100
AcDbLinetypeTableRecord
  2
DIVIDE
 70
0
  3
Divide __ . . __ . . __ . . __ . . __ . . __
 72
65
 73
6
 40
4.064
 49
2.54
 74
0
 49
-0.508
 74
0
 49
0.0
 74
0
 49
-0.508
 74
0
 49
0.0
 74
0
 49
-0.508
 74
0
  0
LTYPE
  5
3F
330
2
100
AcDbSymbolTableRecord
100
AcDbLinetypeTableRecord
  2
DIVIDEX2
 70
0
  3
Divide (2x) ____  . .  ____  . .  ____  . .  ____
 72
65
 73
6
 40
6.604
 49
5.08
 74
0
 49
-0.508
 74
0
 49
0.0
 74
0
 49
-0.508
 74
0
 49
0.0
 74
0
 49
-0.508
 74
0
  0
LTYPE
  5
40
330
2
100
AcDbSymbolTableRecord
100
AcDbLinetypeTableRecord
  2
DIVIDE2
 70
0
  3
Divide(.5x) _ . _ . _ . _ . _ . _ . _ . _
 72
65
 73
6
 40
2.032
 49
1.27
 74
0
 49
-0.254
 74
0
 49
0.0
 74
0
 49
-0.254
 74
0
 49
0.0
 74
0
 49
-0.254
 74
0
  0
ENDTAB
  0
TABLE
  2
LAYER
  5
1
330
0
100
AcDbSymbolTable
 70
2
  0
LAYER
  5
27
330
1
100
AcDbSymbolTableRecord
100
AcDbLayerTableRecord
  2
0
 70
0
 62
7
  6
Continuous
370
-3
390
13
347
21
  0
LAYER
  5
28
330
1
100
AcDbSymbolTableRecord
100
AcDbLayerTableRecord
  2
Defpoints
 70
0
 62
7
  6
Continuous
290
0
370
-3
390
13
347
21
  0
ENDTAB
  0
TABLE
  2
STYLE
  5
5
330
0
100
AcDbSymbolTable
 70
26
  0
STYLE
  5
29
330
5
100
AcDbSymbolTableRecord
100
AcDbTextStyleTableRecord
  2
Standard
 70
0
 40
0.0
 41
1.0
 50
0.0
 71
0
 42
2.5
  3
txt
  4

  0
STYLE
  5
41
330
5
100
AcDbSymbolTableRecord
100
AcDbTextStyleTableRecord
  2
OpenSans-Light
 70
0
 40
0.0
 41
1.0
 50
0.0
 71
0
 42
2.5
  3
OpenSans-Light.ttf
  4

  0
STYLE
  5
42
330
5
100
AcDbSymbolTableRecord
100
AcDbTextStyleTableRecord
  2
OpenSans-Light-Italic
 70
0
 40
0.0
 41
1.0
 50
0.0
 71
0
 42
2.5
  3
OpenSans-LightItalic.ttf
  4

  0
STYLE
  5
43
330
5
100
AcDbSymbolTableRecord
100
AcDbTextStyleTableRecord
  2
OpenSans
 70
0
 40
0.0
 41
1.0
 50
0.0
 71
0
 42
2.5
  3
OpenSans-Regular.ttf
  4

  0
STYLE
  5
44
330
5
100
AcDbSymbolTableRecord
100
AcDbTextStyleTableRecord
  2
OpenSans-Italic
 70
0
 40
0.0
 41
1.0
 50
0.0
 71
0
 42
2.5
  3
OpenSans-Italic.ttf
  4

  0
STYLE
  5
45
330
5
100
AcDbSymbolTableRecord
100
AcDbTextStyleTableRecord
  2
OpenSans-SemiBold
 70
0
 40
0.0
 41
1.0
 50
0.0
 71
0
 42
2.5
  3
OpenSans-SemiBold.ttf
  4

  0
STYLE
  5
46
330
5
100
AcDbSymbolTableRecord
100
AcDbTextStyleTableRecord
  2
OpenSans-SemiBoldItalic
 70
0
 40
0.0
 41
1.0
 50
0.0
 71
0
 42
2.5
  3
OpenSans-SemiBoldItalic.ttf
  4

  0
STYLE
  5
47
330
5
100
AcDbSymbolTableRecord
100
AcDbTextStyleTableRecord
  2
OpenSans-Bold
 70
0
 40
0.0
 41
1.0
 50
0.0
 71
0
 42
2.5
  3
OpenSans-Bold.ttf
  4

  0
STYLE
  5
48
330
5
100
AcDbSymbolTableRecord
100
AcDbTextStyleTableRecord
  2
OpenSans-BoldItalic
 70
0
 40
0.0
 41
1.0
 50
0.0
 71
0
 42
2.5
  3
OpenSans-BoldItalic.ttf
  4

  0
STYLE
  5
49
330
5
100
AcDbSymbolTableRecord
100
AcDbTextStyleTableRecord
  2
OpenSans-ExtraBold
 70
0
 40
0.0
 41
1.0
 50
0.0
 71
0
 42
2.5
  3
OpenSans-ExtraBold.ttf
  4

  0
STYLE
  5
4A
330
5
100
AcDbSymbolTableRecord
100
AcDbTextStyleTableRecord
  2
OpenSans-ExtraBoldItalic
 70
0
 40
0.0
 41
1.0
 50
0.0
 71
0
 42
2.5
  3
OpenSans-ExtraBoldItalic.ttf
  4

  0
STYLE
  5
4B
330
5
100
AcDbSymbolTableRecord
100
AcDbTextStyleTableRecord
  2
OpenSansCondensed-Bold
 70
0
 40
0.0
 41
1.0
 50
0.0
 71
0
 42
2.5
  3
OpenSansCondensed-Bold.ttf
  4

  0
STYLE
  5
4C
330
5
100
AcDbSymbolTableRecord
100
AcDbTextStyleTableRecord
  2
OpenSansCondensed-Light
 70
0
 40
0.0
 41
1.0
 50
0.0
 71
0
 42
2.5
  3
OpenSansCondensed-Light.ttf
  4

  0
STYLE
  5
4D
330
5
100
AcDbSymbolTableRecord
100
AcDbTextStyleTableRecord
  2
OpenSansCondensed-Italic
 70
0
 40
0.0
 41
1.0
 50
0.0
 71
0
 42
2.5
  3
OpenSansCondensed-LightItalic.ttf
  4

  0
STYLE
  5
4E
330
5
100
AcDbSymbolTableRecord
100
AcDbTextStyleTableRecord
  2
LiberationSans
 70
0
 40
0.0
 41
1.0
 50
0.0
 71
0
 42
2.5
  3
LiberationSans-Regular.ttf
  4

  0
STYLE
  5
4F
330
5
100
AcDbSymbolTableRecord
100
AcDbTextStyleTableRecord
  2
LiberationSans-Bold
 70
0
 40
0.0
 41
1.0
 50
0.0
 71
0
 42
2.5
  3
LiberationSans-Bold.ttf
  4

  0
STYLE
  5
50
330
5
100
AcDbSymbolTableRecord
100
AcDbTextStyleTableRecord
  2
LiberationSans-BoldItalic
 70
0
 40
0.0
 41
1.0
 50
0.0
 71
0
 42
2.5
  3
LiberationSans-BoldItalic.ttf
  4

  0
STYLE
  5
51
330
5
100
AcDbSymbolTableRecord
100
AcDbTextStyleTableRecord
  2
LiberationSans-Italic
 70
0
 40
0.0
 41
1.0
 50
0.0
 71
0
 42
2.5
  3
LiberationSans-Italic.ttf
  4

  0
STYLE
  5
52
330
5
100
AcDbSymbolTableRecord
100
AcDbTextStyleTableRecord
  2
LiberationSerif
 70
0
 40
0.0
 41
1.0
 50
0.0
 71
0
 42
2.5
  3
LiberationSerif-Regular.ttf
  4

  0
STYLE
  5
53
330
5
100
AcDbSymbolTableRecord
100
AcDbTextStyleTableRecord
  2
LiberationSerif-Bold
 70
0
 40
0.0
 41
1.0
 50
0.0
 71
0
 42
2.5
  3
LiberationSerif-Bold.ttf
  4

  0
STYLE
  5
54
330
5
100
AcDbSymbolTableRecord
100
AcDbTextStyleTableRecord
  2
LiberationSerif-BoldItalic
 70
0
 40
0.0
 41
1.0
 50
0.0
 71
0
 42
2.5
  3
LiberationSerif-BoldItalic.ttf
  4

  0
STYLE
  5
55
330
5
100
AcDbSymbolTableRecord
100
AcDbTextStyleTableRecord
  2
LiberationSerif-Italic
 70
0
 40
0.0
 41
1.0
 50
0.0
 71
0
 42
2.5
  3
LiberationSerif-Italic.ttf
  4

  0
STYLE
  5
56
330
5
100
AcDbSymbolTableRecord
100
AcDbTextStyleTableRecord
  2
LiberationMono
 70
0
 40
0.0
 41
1.0
 50
0.0
 71
0
 42
2.5
  3
LiberationMono-Regular.ttf
  4

  0
STYLE
  5
57
330
5
100
AcDbSymbolTableRecord
100
AcDbTextStyleTableRecord
  2
LiberationMono-Bold
 70
0
 40
0.0
 41
1.0
 50
0.0
 71
0
 42
2.5
  3
LiberationMono-Bold.ttf
  4

  0
STYLE
  5
58
330
5
100
AcDbSymbolTableRecord
100
AcDbTextStyleTableRecord
  2
LiberationMono-BoldItalic
 70
0
 40
0.0
 41
1.0
 50
0.0
 71
0
 42
2.5
  3
LiberationMono-BoldItalic.ttf
  4

  0
STYLE
  5
59
330
5
100
AcDbSymbolTableRecord
100
AcDbTextStyleTableRecord
  2
LiberationMono-Italic
 70
0
 40
0.0
 41
1.0
 50
0.0
 71
0
 42
2.5
  3
LiberationMono-Italic.ttf
  4

  0
ENDTAB
  0
TABLE
  2
VIEW
  5
7
330
0
100
AcDbSymbolTable
 70
0
  0
ENDTAB
  0
TABLE
  2
UCS
  5
6
330
0
100
AcDbSymbolTable
 70
0
  0
ENDTAB
  0
TABLE
  2
APPID
  5
3
330
0
100
AcDbSymbolTable
 70
3
  0
APPID
  5
2A
330
3
100
AcDbSymbolTableRecord
100
AcDbRegAppTableRecord
  2
ACAD
 70
0
  0
APPID
  5
8D
330
3
100
AcDbSymbolTableRecord
100
AcDbRegAppTableRecord
  2
HATCHBACKGROUNDCOLOR
 70
0
  0
APPID
  5
8E
330
3
100
AcDbSymbolTableRecord
100
AcDbRegAppTableRecord
  2
EZDXF
 70
0
  0
ENDTAB
  0
TABLE
  2
DIMSTYLE
  5
4
330
0
100
AcDbSymbolTable
 70
12
100
AcDbDimStyleTable
  0
DIMSTYLE
105
2B
330
4
100
AcDbSymbolTableRecord
100
AcDbDimStyleTableRecord
  2
Standard
 70
0
 40
1.0
 41
2.5
 42
0.625
 43
3.75
 44
1.25
 45
0.0
 46
0.0
 47
0.0
 48
0.0
 49
2.5
140
2.5
141
2.5
142
0.0
143
0.03937007874
144
1.0
145
0.0
146
1.0
147
0.625
148
0.0
 69
0
 70
0
 71
0
 72
0
 73
0
 74
0
 75
0
 76
0
 77
1
 78
8
 79
3
170
0
171
3
172
1
173
0
174
0
175
0
176
0
177
0
178
0
179
2
271
2
272
2
273
2
274
3
275
0
276
0
277
2
278
44
279
0
280
0
281
0
282
0
283
0
284
8
285
0
286
0
288
0
289
3
290
0
371
-2
372
-2
  0
DIMSTYLE
105
73
330
4
100
AcDbSymbolTableRecord
100
AcDbDimStyleTableRecord
  2
EZDXF
 70
0
 40
1.0
 41
0.175
 42
0.125
 43
3.75
 44
0.375
 45
0.0
 46
0.0
 47
0.0
 48
0.0
 49
2.5
140
0.25
141
2.5
142
0.0
143
0.03937007874
144
100.0
145
0.0
146
0.5
147
0.1
148
0.0
 69
0
 70
0
 71
0
 72
0
 73
0
 74
0
 75
0
 76
0
 77
1
 78
12
 79
3
170
0
171
3
172
1
173
0
174
0
175
0
176
0
177
0
178
0
179
2
271
2
272
2
273
2
274
3
275
0
276
0
277
2
278
46
279
2
280
0
281
0
282
0
283
0
284
8
285
0
286
0
288
1
289
3
290
0
340
4C
342
74
371
-2
372
-2
  0
DIMSTYLE
105
7C
330
4
100
AcDbSymbolTableRecord
100
AcDbDimStyleTableRecord
  2
EZ_M_100_H25_CM
 70
0
 40
1.0
 41
0.25
 42
0.125
 43
3.75
 44
0.375
 45
0.0
 46
0.0
 47
0.0
 48
0.0
 49
2.5
140
0.25
141
2.5
142
0.125
143
0.03937007874
144
100.0
145
0.0
146
0.5
147
0.1
148
0.0
 69
0
 70
0
 71
0
 72
0
 73
0
 74
0
 75
0
 76
0
 77
1
 78
12
 79
3
170
0
171
3
172
1
173
0
174
0
175
0
176
0
177
0
178
0
179
2
271
2
272
2
273
2
274
3
275
0
276
0
277
2
278
46
279
2
280
0
281
0
282
0
283
0
284
8
285
0
286
0
288
1
289
3
290
0
340
4C
371
-2
372
-2
  0
DIMSTYLE
105
7D
330
4
100
AcDbSymbolTableRecord
100
AcDbDimStyleTableRecord
  2
EZ_M_50_H25_CM
 70
0
 40
1.0
 41
0.125
 42
0.0625
 43
3.75
 44
0.1875
 45
0.0
 46
0.0
 47
0.0
 48
0.0
 49
2.5
140
0.125
141
2.5
142
0.0625
143
0.03937007874
144
100.0
145
0.0
146
0.5
147
0.05
148
0.0
 69
0
 70
0
 71
0
 72
0
 73
0
 74
0
 75
0
 76
0
 77
1
 78
12
 79
3
170
0
171
3
172
1
173
0
174
0
175
0
176
0
177
0
178
0
179
2
271
2
272
2
273
2
274
3
275
0
276
0
277
2
278
46
279
2
280
0
281
0
282
0
283
0
284
8
285
0
286
0
288
1
289
3
290
0
340
4C
371
-2
372
-2
  0
DIMSTYLE
105
7E
330
4
100
AcDbSymbolTableRecord
100
AcDbDimStyleTableRecord
  2
EZ_M_25_H25_CM
 70
0
 40
1.0
 41
0.0625
 42
0.03125
 43
3.75
 44
0.09375
 45
0.0
 46
0.0
 47
0.0
 48
0.0
 49
2.5
140
0.0625
141
2.5
142
0.03125
143
0.03937007874
144
100.0
145
0.0
146
0.5
147
0.025
148
0.0
 69
0
 70
0
 71
0
 72
0
 73
0
 74
0
 75
0
 76
0
 77
1
 78
12
 79
3
170
0
171
3
172
1
173
0
174
0
175
0
176
0
177
0
178
0
179
2
271
2
272
2
273
2
274
3
275
0
276
0
277
2
278
46
279
2
280
0
281
0
282
0
283
0
284
8
285
0
286
0
288
1
289
3
290
0
340
4C
371
-2
372
-2
  0
DIMSTYLE
105
7F
330
4
100
AcDbSymbolTableRecord
100
AcDbDimStyleTableRecord
  2
EZ_M_20_H25_CM
 70
0
 40
1.0
 41
0.05
 42
0.025
 43
3.75
 44
0.07500000000000001
 45
0.0
 46
0.0
 47
0.0
 48
0.0
 49
2.5
140
0.05
141
2.5
142
0.025
143
0.03937007874
144
100.0
145
0.0
146
0.5
147
0.020000000000000004
148
0.0
 69
0
 70
0
 71
0
 72
0
 73
0
 74
0
 75
0
 76
0
 77
1
 78
12
 79
3
170
0
171
3
172
1
173
0
174
0
175
0
176
0
177
0
178
0
179
2
271
2
272
2
273
2
274
3
275
0
276
0
277
2
278
46
279
2
280
0
281
0
282
0
283
0
284
8
285
0
286
0
288
1
289
3
290
0
340
4C
371
-2
372
-2
  0
DIMSTYLE
105
80
330
4
100
AcDbSymbolTableRecord
100
AcDbDimStyleTableRecord
  2
EZ_M_10_H25_CM
 70
0
 40
1.0
 41
0.025
 42
0.0125
 43
3.75
 44
0.037500000000000006
 45
0.0
 46
0.0
 47
0.0
 48
0.0
 49
2.5
140
0.025
141
2.5
142
0.0125
143
0.03937007874
144
100.0
145
0.0
146
0.5
147
0.010000000000000002
148
0.0
 69
0
 70
0
 71
0
 72
0
 73
0
 74
0
 75
0
 76
0
 77
1
 78
12
 79
3
170
0
171
3
172
1
173
0
174
0
175
0
176
0
177
0
178
0
179
2
271
2
272
2
273
2
274
3
275
0
276
0
277
2
278
46
279
2
280
0
281
0
282
0
283
0
284
8
285
0
286
0
288
1
289
3
290
0
340
4C
371
-2
372
-2
  0
DIMSTYLE
105
81
330
4
100
AcDbSymbolTableRecord
100
AcDbDimStyleTableRecord
  2
EZ_M_5_H25_CM
 70
0
 40
1.0
 41
0.0125
 42
0.00625
 43
3.75
 44
0.018750000000000003
 45
0.0
 46
0.0
 47
0.0
 48
0.0
 49
2.5
140
0.0125
141
2.5
142
0.00625
143
0.03937007874
144
100.0
145
0.0
146
0.5
147
0.005000000000000001
148
0.0
 69
0
 70
0
 71
0
 72
0
 73
0
 74
0
 75
0
 76
0
 77
1
 78
12
 79
3
170
0
171
3
172
1
173
0
174
0
175
0
176
0
177
0
178
0
179
2
271
2
272
2
273
2
274
3
275
0
276
0
277
2
278
46
279
2
280
0
281
0
282
0
283
0
284
8
285
0
286
0
288
1
289
3
290
0
340
4C
371
-2
372
-2
  0
DIMSTYLE
105
82
330
4
100
AcDbSymbolTableRecord
100
AcDbDimStyleTableRecord
  2
EZ_M_1_H25_CM
 70
0
 40
1.0
 41
0.0025
 42
0.00125
 43
3.75
 44
0.00375
 45
0.0
 46
0.0
 47
0.0
 48
0.0
 49
2.5
140
0.0025
141
2.5
142
0.00125
143
0.03937007874
144
100.0
145
0.0
146
0.5
147
0.001
148
0.0
 69
0
 70
0
 71
0
 72
0
 73
0
 74
0
 75
0
 76
0
 77
1
 78
12
 79
3
170
0
171
3
172
1
173
0
174
0
175
0
176
0
177
0
178
0
179
2
271
2
272
2
273
2
274
3
275
0
276
0
277
2
278
46
279
2
280
0
281
0
282
0
283
0
284
8
285
0
286
0
288
1
289
3
290
0
340
4C
371
-2
372
-2
  0
DIMSTYLE
105
83
330
4
100
AcDbSymbolTableRecord
100
AcDbDimStyleTableRecord
  2
EZ_RADIUS
 70
0
 40
1.0
 41
0.25
 42
0.125
 43
3.75
 44
0.375
 45
0.0
 46
0.0
 47
0.0
 48
0.0
 49
2.5
140
0.25
141
0.0
142
0.0
143
0.03937007874
144
100.0
145
0.0
146
0.5
147
0.1
148
0.0
 69
0
 70
0
 71
0
 72
0
 73
0
 74
0
 75
0
 76
0
 77
1
 78
12
 79
3
170
0
171
3
172
0
173
0
174
0
175
0
176
0
177
0
178
0
179
2
271
2
272
2
273
2
274
3
275
0
276
0
277
2
278
46
279
1
280
0
281
0
282
0
283
0
284
8
285
0
286
0
288
1
289
3
290
0
340
4C
342
84
371
-2
372
-2
  0
DIMSTYLE
105
88
330
4
100
AcDbSymbolTableRecord
100
AcDbDimStyleTableRecord
  2
EZ_RADIUS_INSIDE
 70
0
 40
1.0
 41
0.25
 42
0.125
 43
3.75
 44
0.375
 45
0.0
 46
0.0
 47
0.0
 48
0.0
 49
2.5
140
0.25
141
0.0
142
0.0
143
0.03937007874
144
100.0
145
0.0
146
0.5
147
0.1
148
0.0
 69
0
 70
0
 71
0
 72
0
 73
0
 74
0
 75
0
 76
0
 77
0
 78
12
 79
3
170
0
171
3
172
0
173
0
174
1
175
0
176
0
177
0
178
0
179
2
271
2
272
2
273
2
274
3
275
0
276
0
277
2
278
46
279
0
280
0
281
0
282
0
283
0
284
8
285
0
286
0
288
1
289
0
290
0
340
4C
342
84
371
-2
372
-2
  0
DIMSTYLE
105
89
330
4
100
AcDbSymbolTableRecord
100
AcDbDimStyleTableRecord
  2
EZ_CURVED
 70
0
 40
1.0
 41
0.25
 42
0.125
 43
3.75
 44
0.375
 45
0.0
 46
0.0
 47
0.0
 48
0.0
 49
2.5
140
0.25
141
2.5
142
0.0
143
0.03937007874
144
100.0
145
0.0
146
0.5
147
0.1
148
0.0
 69
0
 70
0
 71
0
 72
0
 73
0
 74
0
 75
0
 76
0
 77
1
 78
12
 79
2
 90
2
170
0
171
3
172
1
173
0
174
0
175
0
176
0
177
0
178
0
179
2
271
2
272
2
273
2
274
3
275
0
276
0
277
2
278
46
279
2
280
0
281
0
282
0
283
0
284
8
285
0
286
0
288
1
289
3
290
0
340
4C
371
-2
372
-2
  0
ENDTAB
  0
TABLE
  2
BLOCK_RECORD
  5
9
330
0
100
AcDbSymbolTable
 70
5
  0
BLOCK_RECORD
  5
17
330
9
100
AcDbSymbolTableRecord
100
AcDbBlockTableRecord
  2
*Model_Space
340
1A
 70
0
280
1
281
0
  0
BLOCK_RECORD
  5
1B
330
9
100
AcDbSymbolTableRecord
100
AcDbBlockTableRecord
  2
*Paper_Space
340
1E
 70
0
280
1
281
0
  0
BLOCK_RECORD
  5
74
330
9
100
AcDbSymbolTableRecord
100
AcDbBlockTableRecord
  2
_ARCHTICK
340
0
 70
0
280
1
281
0
  0
BLOCK_RECORD
  5
78
330
9
100
AcDbSymbolTableRecord
100
AcDbBlockTableRecord
  2
_CLOSEDFILLED
340
0
 70
0
280
1
281
0
  0
BLOCK_RECORD
  5
84
330
9
100
AcDbSymbolTableRecord
100
AcDbBlockTableRecord
  2
_CLOSEDBLANK
340
0
 70
0
280
1
281
0
  0
ENDTAB
  0
ENDSEC
  0
SECTION
  2
BLOCKS
  0
BLOCK
  5
18
330
17
100
AcDbEntity
  8
0
100
AcDbBlockBegin
  2
*Model_Space
 70
0
 10
0.0
 20
0.0
 30
0.0
  3
*Model_Space
  1

  0
ENDBLK
  5
19
330
17
100
AcDbEntity
  8
0
100
AcDbBlockEnd
  0
BLOCK
  5
1C
330
1B
100
AcDbEntity
  8
0
100
AcDbBlockBegin
  2
*Paper_Space
 70
0
 10
0.0
 20
0.0
 30
0.0
  3
*Paper_Space
  1

  0
ENDBLK
  5
1D
330
1B
100
AcDbEntity
  8
0
100
AcDbBlockEnd
  0
BLOCK
  5
75
330
74
100
AcDbEntity
  8
0
100
AcDbBlockBegin
  2
_ARCHTICK
 70
0
 10
0.0
 20
0.0
 30
0.0
  3
_ARCHTICK
  1

  0
LWPOLYLINE
  5
77
330
74
100
AcDbEntity
  8
0
  6
BYBLOCK
 62
0
100
AcDbPolyline
 90
2
 70
0
 43
0.15
 10
-0.5
 20
-0.5
 10
0.5
 20
0.5
  0
ENDBLK
  5
76
330
74
100
AcDbEntity
  8
0
100
AcDbBlockEnd
  0
BLOCK
  5
79
330
78
100
AcDbEntity
  8
0
100
AcDbBlockBegin
  2
_CLOSEDFILLED
 70
0
 10
0.0
 20
0.0
 30
0.0
  3
_CLOSEDFILLED
  1

  0
SOLID
  5
7B
330
78
100
AcDbEntity
  8
0
  6
BYBLOCK
 62
0
100
AcDbTrace
 10
-1.0
 20
0.16439898372402537
 30
0.0
 11
0.0
 21
0.0
 31
0.0
 12
-1.0
 22
-0.16439898372402537
 32
0.0
 13
-1.0
 23
-0.16439898372402537
 33
0.0
  0
ENDBLK
  5
7A
330
78
100
AcDbEntity
  8
0
100
AcDbBlockEnd
  0
BLOCK
  5
85
330
84
100
AcDbEntity
  8
0
100
AcDbBlockBegin
  2
_CLOSEDBLANK
 70
0
 10
0.0
 20
0.0
 30
0.0
  3
_CLOSEDBLANK
  1

  0
LWPOLYLINE
  5
87
330
84
100
AcDbEntity
  8
0
  6
BYBLOCK
 62
0
100
AcDbPolyline
 90
3
 70
1
 10
-1.0
 20
0.16439898372402537
 10
0.0
 20
0.0
 10
-1.0
 20
-0.16439898372402537
  0
ENDBLK
  5
86
330
84
100
AcDbEntity
  8
0
100
AcDbBlockEnd
  0
ENDSEC
  0
SECTION
  2
ENTITIES
  0
LWPOLYLINE
  5
8A
330
17
100
AcDbEntity
  8
0
100
AcDbPolyline
 90
1200
 70
0
 43
500.0
 10
200.0
 20
0.0
 10
208.6856424671256
 20
5.469185604977014
 10
217.21600196787617
 20
11.393320103793853
 10
225.5732091219852
 20
17.7678642160738
 10
233.7395299170074
 20
24.587654885379017
 10
241.69738611836223
 20
31.84690936386753
 10
249.4293755554563
 20
39.539229937945784
 10
256.91829226431594
 20
47.65760929115375
 10
264.14714646727543
 20
56.194436499934284
 10
271.09918437039823
 20
65.14150365735739
 10
277.75790775945575
 20
74.49001311929145
 10
284.1070933754548
 20
84.23058536694103
 10
290.1308120508867
 20
94.35326747910212
 10
295.8134475880687
 20
104.84754220692277
 10
301.1397153611664
 20
115.7023376434
 10
306.0946806237156
 20
126.90603747929386
 10
310.6637765037105
 20
138.44649183659467
 10
314.83282166859067
 20
150.31102867014437
 10
318.58803764273637
 20
162.48646572748265
 10
321.91606576038083
 20
174.95912305647056
 10
324.8039837371545
 20
187.71483604972974
 10
327.2393218438065
 20
200.73896901443518
 10
329.2100786659855
 20
214.01642925550635
 10
330.70473643431865
 20
227.53168165975634
 10
331.7122759093977
 20
241.26876376808983
 10
332.2221908066626
 20
255.21130132237624
 10
332.22450174656973
 20
269.34252427317483
 10
331.7097697158448
 20
283.64528323405125
 10
330.6691090260388
 20
298.1020663677959
 10
329.09419975604555
 20
312.69501668944264
 10
326.9772996656839
 20
327.40594977058345
 10
324.31125556790784
 20
342.2163718290862
 10
321.08951414768137
 20
357.1074981879499
 10
317.30613221603267
 20
372.06027208666796
 10
312.9557863882988
 20
387.0553838281248
 10
308.0337821760734
 20
402.07329024371796
 10
302.53606248288236
 20
417.09423445908243
 10
296.45921549413646
 20
432.09826594248557
 10
289.80048195243955
 20
447.0652608176815
 10
282.557761809871
 20
461.9749424227343
 10
274.7296202494097
 20
476.8069020960693
 10
266.3152930682228
 20
491.5406201707686
 10
257.3146914161016
 20
506.15548715790266
 10
247.72840588290256
 20
520.6308250994866
 10
237.55770992941953
 20
534.9459090714531
 10
226.80456265670173
 20
549.0799888168681
 10
215.47161090941228
 20
563.0123104894484
 10
203.5621907094183
 20
576.7221384873133
 10
191.08032801639547
 20
590.1887773567671
 10
178.0307388128307
 20
603.391593745817
 10
164.41882851141045
 20
616.3100383870311
 10
150.25069068338328
 20
628.9236680892857
 10
135.53310510709724
 20
641.2121677178859
 10
120.27353513651873
 20
653.1553721425178
 10
104.48012439015083
 20
664.733288132472
 10
88.16169276137995
 20
675.9261161785801
 10
71.32773175189091
 20
686.7142722213234
 10
53.98839913040046
 20
697.0784092646156
 10
36.15451291957019
 20
706.9994388548101
 10
17.83754471456737
 20
716.4585524045615
 10
-0.9503876626510486
 20
725.4372423412581
 10
-20.196528168651696
 20
733.9173230598558
 10
-39.88749119815521
 20
741.8809516600629
 10
-60.00927089210569
 20
749.3106484479796
 10
-80.54725108770764
 20
756.1893171824478
 10
-101.48621590336967
 20
762.5002650465539
 10
-122.8103609509103
 20
768.227222324921
 10
-144.50330516680228
 20
773.3543617676382
 10
-166.54810325365983
 20
777.8663176219115
 10
-188.92725872260618
 20
781.7482043127618
 10
-211.62273752660096
 20
784.9856347543654
 10
-234.6159822742541
 20
787.56473827391
 10
-257.8879270131102
 20
789.4721781301376
 10
-281.41901257085146
 20
790.6951686090576
 10
-305.1892024423417
 20
791.2214916796441
 10
-329.1779992099152
 20
791.0395131926748
 10
-353.36446148381026
 20
790.1381986062285
 10
-377.72722134914574
 20
788.5071282217318
 10
-402.24450230535894
 20
786.1365119148406
 10
-426.89413768353796
 20
783.0172033458359
 10
-451.65358952663456
 20
779.1407136346414
 10
-476.49996791706883
 20
774.4992244859958
 10
-501.4100507358245
 20
769.0856007507602
 10
-526.3603038366799
 20
762.8934024097991
 10
-551.3269016188328
 20
755.9168959673411
 10
-576.2857479807503
 20
748.1510652412175
 10
-601.2124976377169
 20
739.5916215378573
 10
-626.0825777851552
 20
730.2350132004423
 10
-650.8712100894599
 20
720.0784345191238
 10
-675.5534329877216
 20
709.119833992751
 10
-700.1041242774139
 20
697.3579219320809
 10
-724.4980239767756
 20
684.7921773950056
 10
-748.7097574363577
 20
671.4228544448758
 10
-772.7138586818935
 20
657.2509877235793
 10
-796.4847939684113
 20
642.278397331598
 10
-819.996985525241
 20
626.5076930078598
 10
-843.2248354713604
 20
609.9422776027855
 10
-866.1427498802847
 20
592.5863498385337
 10
-888.7251629735312
 20
574.4449063510523
 10
-910.9465614215054
 20
555.5237430091474
 10
-932.781508730482
 20
535.8294555064152
 10
-954.2046696942332
 20
515.3694392224778
 10
-975.190834888711
 20
494.1518883506217
 10
-995.7149451881003
 20
472.1857942895348
 10
-1015.7521162804525
 20
449.4809432975039
 10
-1035.277663161065
 20
426.0479134080428
 10
-1054.2671245816862
 20
401.89807060658376
 10
-1072.6962874336302
 20
377.0435642684888
 10
-1090.5412110428326
 20
351.497321859296
 10
-1107.7782513549196
 20
325.2730428987415
 10
-1124.3840849883525
 20
298.3851921907645
 10
-1140.3357331337731
 20
270.8489923223194
 10
-1155.6105852777298
 20
242.68041543449473
 10
-1170.1864227290348
 20
213.89617427004347
 10
-1184.04144192611
 20
184.5137125021087
 10
-1197.1542775037994
 20
154.55119434952908
 10
-1209.5040250982331
 20
124.02749348477741
 10
-1221.0702638685289
 20
92.96218124118593
 10
-1231.8330787142324
 20
61.37551412677056
 10
-1241.7730821676394
 20
29.28842065255787
 10
-1250.8714359403114
 20
-3.277512516030166
 10
-1259.1098721033466
 20
-36.30005507560027
 10
-1266.470713881201
 20
-69.75634825924529
 10
-1272.9368960391203
 20
-103.62292065869505
 10
-1278.4919848445218
 20
-137.87570468319194
 10
-1283.120197582959
 20
-172.4900536435728
 10
-1286.8064216096218
 20
-207.4407594494248
 10
-1289.5362329176548
 20
-242.7020709066522
 10
-1291.2959142049122
 20
-278.2477126021909
 10
-1292.0724724211548
 20
-314.0509043620989
 10
-1291.8536557780503
 20
-350.0843812686727
 10
-1290.6279702047539
 20
-386.32041422173535
 10
-1288.3846952322422
 20
-422.7308310287184
 10
-1285.1138992900162
 20
-459.2870380076371
 10
-1280.8064543992173
 20
-495.9600420865918
 10
-1275.4540502466657
 20
-532.7204733829097
 10
-1269.049207624801
 20
-569.5386082446099
 10
-1261.5852912229848
 20
-606.3843927363768
 10
-1253.056521756131
 20
-643.2274665518239
 10
-1243.457987417139
 20
-680.0371873333623
 10
-1232.7856546401244
 20
-716.7826553806066
 10
-1221.0363781619897
 20
-753.43273872782
 10
-1208.207910370418
 20
-789.9560985705465
 10
-1194.2989099269414
 20
-826.3212150211725
 10
-1179.3089496542973
 20
-862.4964131728434
 10
-1163.238523677883
 20
-898.4498894507888
 10
-1146.0890538116978
 20
-934.149738229817
 10
-1127.8628951797787
 20
-969.5639786964066
 10
-1108.5633410647351
 20
-1004.6605819335699
 10
-1088.194626975622
 20
-1039.4074982063491
 10
-1066.7619339280063
 20
-1073.772684425601
 10
-1044.2713909297372
 20
-1107.7241317674445
 10
-1020.7300766665546
 20
-1141.2298934255712
 10
-996.1460203823434
 20
-1174.258112473383
 10
-970.5282019494828
 20
-1206.7770498127718
 10
-943.8865511254062
 20
-1238.7551121861732
 10
-916.2319459921766
 20
-1270.1608802283906
 10
-887.5762105765187
 20
-1300.9631365345733
 10
-857.9321116484673
 20
-1331.1308937206077
 10
-827.3133546974382
 20
-1360.6334224521192
 10
-795.7345790852515
 20
-1389.4402794181854
 10
-763.2113523762819
 20
-1417.5213352258602
 10
-729.7601638456258
 20
-1444.8468021915378
 10
-695.3984171668812
 20
-1471.3872620052043
 10
-660.1444222817786
 20
-1497.113693243636
 10
-624.0173864546487
 20
-1521.9974987086266
 10
-587.0374045153619
 20
-1546.010532566398
 10
-549.2254482951054
 20
-1569.1251272643854
 10
-510.6033552600075
 20
-1591.3141202017334
 10
-471.19381634834986
 20
-1612.5508801299047
 10
-431.02036301776354
 20
-1632.8093332599635
 10
-390.10735350951643
 20
-1652.0639890532295
 10
-348.47995833763747
 20
-1670.2899656721947
 10
-306.16414501134193
 20
-1687.46301506876
 10
-263.18666199985495
 20
-1703.559547687078
 10
-219.57502194943433
 20
-1718.5566567585095
 10
-175.3574841630011
 20
-1732.432142166455
 10
-130.56303635349033
 20
-1745.1645338590954
 10
-85.22137568263841
 20
-1756.733114788351
 10
-39.36288909760391
 20
-1767.1179433536852
 10
6.981367021606478
 20
-1776.299875329704
 10
53.77968789025917
 20
-1784.2605852568397
 10
100.99974200834565
 20
-1790.9825872747738
 10
148.60859349650184
 20
-1796.4492553786279
 10
196.572725062997
 20
-1800.6448430783569
 10
244.85806158575468
 20
-1803.5545024421845
 10
293.42999429284356
 20
-1805.1643025053554
 10
342.253405524271
 20
-1805.4612470259276
 10
391.2926940574244
 20
-1804.433291569792
 10
440.51180097791314
 20
-1802.069359907586
 10
489.87423607708814
 20
-1798.359359706663
 10
539.3431047569627
 20
-1793.2941975017984
 10
588.8811354228226
 20
-1786.865792928823
 10
638.4507073432893
 20
-1779.0670922059414
 10
688.0138789571339
 20
-1769.89208084802
 10
737.5324166057377
 20
-1759.3357955997196
 10
786.9678236696066
 20
-1747.3943355739254
 10
836.281370086971
 20
-1734.06487258251
 10
885.4341222320601
 20
-1719.3456606470954
 10
934.386973130313
 20
-1703.2360446780842
 10
983.1006729873644
 20
-1685.7364683108622
 10
1031.5358600083368
 20
-1666.8484808887285
 10
1079.6530914835992
 20
-1646.5747435827566
 10
1127.41287511689
 20
-1624.9190346394473
 10
1174.7757005713586
 20
-1601.886253747721
 10
1221.70207120884
 20
-1577.4824255174676
 10
1268.1525359973834
 20
-1551.7147020625778
 10
1314.0877215618664
 20
-1524.591364682057
 10
1359.4683643522635
 20
-1496.1218246335554
 10
1404.2553429039679
 20
-1466.316622994338
 10
1448.4097101643645
 20
-1435.187429605466
 10
1491.8927258597237
 20
-1402.7470410956514
 10
1534.6658888763209
 20
-1369.0093779820172
 10
1576.6909696295868
 20
-1333.989480845696
 10
1617.9300423949724
 20
-1297.7035055809758
 10
1658.345517574188
 20
-1260.1687177174108
 10
1697.9001738703555
 20
-1221.40348581509
 10
1736.5571903456391
 20
-1181.4272739339856
 10
1774.2801783348548
 20
-1140.2606331790782
 10
1811.0332131886246
 20
-1097.9251923236818
 10
1846.780865819611
 20
-1054.4436475141579
 10
1881.4882340254812
 20
-1009.8397510599657
 10
1915.1209735622572
 20
-964.1382993137523
 10
1947.645328941865
 20
-917.3651196469045
 10
1979.0281639277725
 20
-869.5470565267841
 10
2009.236991702756
 20
-820.7119567025708
 10
2038.2400046829841
 20
-770.8886535074264
 10
2066.0061039528055
 20
-720.1069502853792
 10
2092.5049282948194
 20
-668.3976029521109
 10
2117.706882790007
 20
-615.7923016995579
 10
2141.5831669629897
 20
-562.3236518549195
 10
2164.105802447699
 20
-508.0251539054484
 10
2185.24766014906
 20
-452.9311827010585
 10
2204.982486876573
 20
-397.07696584754933
 10
2223.2849314260084
 20
-340.4985613038727
 10
2240.1305700857924
 20
-283.2328341976321
 10
2255.495931544995
 20
-225.3174328736267
 10
2269.3585211802333
 20
-166.79076419098521
 10
2281.6968446992214
 20
-107.69196808502439
 10
2292.4904311190876
 20
-48.06089141068862
 10
2301.719855058047
 20
12.061938914985701
 10
2309.3667583194774
 20
72.63534345325222
 10
2315.4138707479024
 20
133.61751844821057
 10
2319.8450303369136
 20
194.966064676186
 10
2322.64520256956
 20
256.6380169200483
 10
2323.8004989722563
 20
318.5898740479508
 10
2323.298194863838
 20
380.77762967548176
 10
2321.1267462819237
 20
443.1568033895961
 10
2317.2758060693523
 20
505.68247251222357
 10
2311.7362391040465
 20
568.3093043808685
 10
2304.5001366562647
 20
630.991589123096
 10
2295.560829857838
 20
693.683272901233
 10
2284.9129022686266
 20
756.3379916032101
 10
2272.5522015260794
 20
818.9091049549546
 10
2258.4758500644657
 20
881.3497310293923
 10
2242.682254891006
 20
943.6127811266246
 10
2225.17111640684
 20
1005.6509949995091
 10
2205.9434362614816
 20
1067.4169763984396
 10
2185.0015242300997
 20
1128.8632289088316
 10
2162.349004103721
 20
1189.9421920544326
 10
2137.990818583186
 20
1250.606277639246
 10
2111.9332331684122
 20
1310.807906300629
 10
2084.1838390353128
 20
1370.499544245773
 10
2054.751554893457
 20
1429.6337401435703
 10
2023.6466278183532
 20
1488.1631621435893
 10
1990.8806330529985
 20
1546.0406349937286
 10
1956.4664727741506
 20
1603.2191772278718
 10
1920.4183738195404
 20
1659.652038394727
 10
1882.7518843730984
 20
1715.292736298859
 10
1843.4838696060033
 20
1770.0950942248478
 10
1802.63250627224
 20
1824.0132781153413
 10
1760.217276258118
 20
1877.0018336737392
 10
1716.2589590860625
 20
1929.0157233621417
 10
1670.7796233737645
 20
1980.0103632652215
 10
1623.8026172506445
 20
2029.9416597906004
 10
1575.3525577343673
 20
2078.7660461763744
 10
1525.455319071018
 20
2126.4405187764164
 10
1474.1380200433173
 20
2172.9226730942014
 10
1421.4290102521268
 20
2218.170739535923
 10
1367.3578553772857
 20
2262.1436188538114
 10
1311.9553214246796
 20
2304.800917250654
 10
1255.2533579672022
 20
2346.102981116718
 10
1197.2850803881502
 20
2386.010931370397
 10
1138.084751136348
 20
2424.486697374127
 10
1077.6877600031683
 20
2461.493050397326
 10
1016.1306034323383
 20
2496.9936365983613
 10
953.4508628742935
 20
2530.953009497792
 10
889.6871821975737
 20
2563.3366619154613
 10
824.8792441705978
 20
2594.111057344248
 10
759.067746027856
 20
2623.2436607337163
 10
692.2943741353813
 20
2650.7029686571677
 10
624.6017777711314
 20
2676.4585388360215
 10
556.0335420365838
 20
2700.481018995828
 10
486.6341599166785
 20
2722.742175028654
 10
416.44900350590154
 20
2743.214918436997
 10
345.5242944190802
 20
2761.8733330348505
 10
273.9070734060906
 20
2778.69270088204
 10
201.64516919044826
 20
2793.649527428422
 10
128.78716655236923
 20
2806.7215658450837
 10
55.382373677621274
 20
2817.887840520196
 10
-18.51921120595048
 20
2827.1286696977595
 10
-92.86693388161454
 20
2834.425687238036
 10
-167.60951886349832
 20
2839.7618634790665
 10
-242.69510475905048
 20
2843.121525179291
 10
-318.0712802498818
 20
2844.49037452191
 10
-393.685120665986
 20
2843.855507162286
 10
-469.4832251278557
 20
2841.205429300347
 10
-545.4117542303792
 20
2836.530073760619
 10
-621.4164682420662
 20
2829.820815063244
 10
-697.4427657923605
 20
2821.0704834700264
 10
-773.4357230196417
 20
2810.2733779902887
 10
-849.3401331518023
 20
2797.4252783320594
 10
-925.1005464909763
 20
2782.5234557848703
 10
-1000.6613107735299
 20
2765.566683021209
 10
-1075.966611876036
 20
2746.5552428044643
 10
-1150.9605148375636
 20
2725.490935591969
 10
-1225.5870051682928
 20
2702.3770860225814
 10
-1299.7900304140283
 20
2677.218548279059
 10
-1373.5135419460357
 20
2650.021710316264
 10
-1446.7015369451715
 20
2620.794496947139
 10
-1519.2981005491026
 20
2589.5463717791886
 10
-1591.2474481311385
 20
2556.2883379950813
 10
-1662.4939676789697
 20
2521.032937971833
 10
-1732.9822622414524
 20
2483.7942517339056
 10
-1802.6571924112905
 20
2444.5878942364657
 10
-1871.4639188114934
 20
2403.431011475844
 10
-1939.3479445531893
 20
2360.3422754252247
 10
-2006.2551576323738
 20
2315.341877794409
 10
-2072.131873233057
 20
2268.4515226134404
 10
-2136.92487590424
 20
2219.6944176407387
 10
-2200.5814615780905
 20
2169.0952645973316
 10
-2263.049479396757
 20
2116.6802482296252
 10
-2324.2773733151375
 20
2062.4770242041427
 10
-2384.214223447172
 20
2006.5147058384382
 10
-2442.8097871231103
 20
1948.8238496734346
 10
-2500.0145396254056
 20
1889.436439893238
 10
-2555.779714570989
 20
1828.3858715994331
 10
-2610.057343907805
 20
1765.7069329477479
 10
-2662.8002974936844
 20
1701.4357861558778
 10
-2713.962322225836
 20
1635.6099473921302
 10
-2763.4980806893914
 20
1568.268265555516
 10
-2811.3631892938033
 20
1499.450899958663
 10
-2857.5142558660596
 20
1429.1992969259486
 10
-2901.908916670024
 20
1357.5561653200227
 10
-2944.505872821536
 20
1284.565451010806
 10
-2985.2649260692206
 20
1210.2723103018784
 10
-3024.1470139113644
 20
1134.7230823300454
 10
-3061.114244019574
 20
1057.9652604546618
 10
-3096.1299279403515
 20
980.0474626542352
 10
-3129.15861404621
 20
901.0194009484684
 10
-3160.1661197083376
 20
820.9318498648884
 10
-3189.1195626633685
 20
739.8366139698984
 10
-3215.987391547297
 20
657.7864944849098
 10
-3240.739415570109
 20
574.8352550089799
 10
-3263.346833305258
 20
491.03758637009895
 10
-3283.7822605686792
 20
406.449070628137
 10
-3302.019757362655
 20
321.12614425298125
 10
-3318.034853860425
 20
235.12606050231412
 10
-3331.8045754080954
 20
148.50685102405447
 10
-3343.3074665210606
 20
61.32728670920532
 10
-3352.523613852805
 20
-26.353162178492546
 10
-3359.4346681146626
 20
-114.47436656905015
 10
-3364.0238649258386
 20
-202.97557982122893
 10
-3366.2760445736894
 20
-291.7954795976807
 10
-3366.1776706650503
 20
-380.8722103514825
 10
-3363.7168476501392
 20
-470.1434263945434
 10
-3358.8833372013555
 20
-559.5463355179364
 10
-3351.668573430099
 20
-649.017743133644
 10
-3342.0656769255274
 20
-738.4940969066985
 10
-3330.0694676000285
 20
-827.9115318462198
 10
-3315.6764763270075
 20
-917.2059158234238
 10
-3298.884955357449
 20
-1006.312895484113
 10
-3279.6948875025914
 20
-1095.1679425229613
 10
-3258.1079940709233
 20
-1183.706400286288
 10
-3234.1277415486256
 20
-1271.8635306697931
 10
-3207.7593470134566
 20
-1359.574561277319
 10
-3179.0097822730318
 20
-1446.7747328064065
 10
-3147.8877767193485
 20
-1533.399346626101
 10
-3114.403818892343
 20
-1619.3838125122438
 10
-3078.5701567462474
 20
-1704.663696505104
 10
-3040.400796613401
 20
-1789.1747688542102
 10
-2999.9115008611902
 20
-1872.8530520148236
 10
-2957.11978423873
 20
-1955.6348686604613
 10
-2912.0449089108693
 20
-2037.4568896756998
 10
-2864.7078781780874
 20
-2118.2561820933597
 10
-2815.1314288818166
 20
-2197.970256940142
 10
-2763.3400224957527
 20
-2276.53711695459
 10
-2709.35983490462
 20
-2353.895304141436
 10
-2653.218744872938
 20
-2429.983947126157
 10
-2594.94632120726
 20
-2504.7428082737347
 10
-2534.5738086163974
 20
-2578.1123305356004
 10
-2472.13411227507
 20
-2650.033683988834
 10
-2407.6617810975004
 20
-2720.4488120317806
 10
-2341.1929897283485
 20
-2789.300477200421
 10
-2272.765519259513
 20
-2856.5323065698612
 10
-2202.4187366821393
 20
-2922.0888367057023
 10
-2130.193573084298
 20
-2985.9155581300392
 10
-2056.132500605699
 20
-3047.9589592672273
 10
-1980.2795081617928
 20
-3108.1665698347524
 10
-1902.6800759505684
 20
-3166.487003644846
 10
-1823.381148756334
 20
-3222.8700007828165
 10
-1742.4311080656616
 20
-3277.266469128411
 10
-1659.879743011738
 20
-3329.628525186833
 10
-1575.7782201641064
 20
-3379.909534196577
 10
-1490.1790521818975
 20
-3428.0641494815072
 10
-1403.1360653494346
 20
-3474.048351015158
 10
-1314.7043660140532
 20
-3517.819483165679
 10
-1224.9403059468398
 20
-3559.336291590335
 10
-1133.9014466478939
 20
-3598.558959249022
 10
-1041.6465226185182
 20
-3635.4491415067905
 10
-948.2354036237375
 20
-3669.9700002959225
 10
-853.7290559691501
 20
-3702.0862373087775
 10
-758.1895028171588
 20
-3731.7641261931503
 10
-661.6797835682974
 20
-3758.971543722588
 10
-564.2639123341963
 20
-3783.677999914776
 10
-466.00683552949755
 20
-3805.854667071757
 10
-366.9743886107795
 20
-3825.474407716491
 10
-267.2332519912445
 20
-3842.511801401003
 10
-166.85090616076994
 20
-3856.943170362059
 10
-65.89558604138284
 20
-3868.746604001168
 10
35.56376539087159
 20
-3877.901982166431
 10
137.45754418619046
 20
-3884.39099721461
 10
239.7155331712455
 20
-3888.1971748326027
 10
342.26695033662224
 20
-3889.3058935983645
 10
445.04049782816435
 20
-3887.704403262182
 10
547.9644115082117
 20
-3883.3818417300986
 10
650.966511052425
 20
-3876.3292507321694
 10
753.9742505471311
 20
-3866.5395901591614
 10
856.9147695517787
 20
-3854.0077510522333
 10
959.714944590576
 20
-3838.7305672310827
 10
1062.3014410369528
 20
-3820.7068255469912
 10
1164.6007653540628
 20
-3799.937274748198
 10
1266.539317654204
 20
-3776.424632945988
 10
1368.0434445395244
 20
-3750.173593670903
 10
1469.0394921862876
 20
-3721.1908305094676
 10
1569.4538596344228
 20
-3689.485000312859
 10
1669.2130522439445
 20
-3655.066744969974
 10
1768.2437352795257
 20
-3617.9486917383633
 10
1866.4727875842918
 20
-3578.1454521275855
 10
1963.8273553036936
 20
-3535.6736193305474
 10
2060.2349056201997
 20
-3490.5517641994616
 10
2155.623280459261
 20
-3442.8004297641723
 10
2249.920750127134
 20
-3392.4421242915614
 10
2343.0560668408143
 20
-3339.5013128859246
 10
2434.9585181104353
 20
-3284.004407631232
 10
2525.5579799344127
 20
-3225.979756277278
 10
2614.7849697676133
 20
-3165.457629472797
 10
2702.570699222873
 20
-3102.4702065497445
 10
2788.847126466284
 20
-3037.05155986393
 10
2873.5470082666443
 20
-2969.237637698448
 10
2956.6039516597853
 20
-2899.0662457371923
 10
3037.9524651884517
 20
-2826.5770271170513
 10
3117.5280096787005
 20
-2751.811441068298
 10
3195.267048513966
 20
-2674.812740153845
 10
3271.1070973681794
 20
-2595.625946119076
 10
3344.9867733596157
 20
-2514.297824364986
 10
3416.8458435873804
 20
-2430.8768570585526
 10
3486.625273012898
 20
-2345.4132148951076
 10
3554.2672716489906
 20
-2257.958727528708
 10
3619.7153410195947
 20
-2168.566852687432
 10
3682.91431985357
 20
-2077.292643991581
 10
3743.8104289764838
 20
-1984.1927174937864
 10
3802.3513153647214
 20
-1889.3252169610114
 10
3858.4860953268153
 20
-1792.7497779194016
 10
3912.165396777315
 20
-1694.5274904840485
 10
3963.341400569213
 20
-1594.7208609964587
 10
4011.967880851386
 20
-1493.393772493711
 10
4058.0002444182087
 20
-1390.6114440340805
 10
4101.395569019086
 20
-1286.4403889048772
 10
4142.112640596321
 20
-1180.9483717391363
 10
4180.111989420429
 20
-1074.2043645687058
 10
4215.355925092698
 20
-966.278501842091
 10
4247.80857038553
 20
-857.2420344364132
 10
4277.435893891897
 20
-747.1672826934375
 10
4304.205741455954
 20
-636.1275885106679
 10
4328.087866357711
 20
-524.1972665191711
 10
4349.0539582254805
 20
-411.45155438060107
 10
4367.077670650642
 20
-297.96656223664314
 10
4382.134647480159
 20
-183.8192213448335
 10
4394.202547763178
 20
-69.08723193536186
 10
4403.261069328908
 20
46.15098967569072
 10
4409.291970973968
 20
161.81636468083934
 10
4412.27909323828
 20
277.829206046662
 10
4412.208377749603
 20
394.1092734130549
 10
4409.067885117747
 20
510.57582858844637
 10
4402.8478113605315
 20
627.1476916025823
 10
4393.540502844556
 20
743.7432972780216
 10
4381.140469724904
 20
860.2807522808081
 10
4365.644397868914
 20
976.6778926105865
 10
4347.051159250253
 20
1092.8523414897054
 10
4325.361820800565
 20
1208.7215676105964
 10
4300.5796517070985
 20
1324.2029437002673
 10
4272.710129145755
 20
1439.2138053604003
 10
4241.760942440187
 20
1553.6715101411974
 10
4207.741995638609
 20
1667.493496806869
 10
4170.665408501216
 20
1780.5973447502315
 10
4130.545515892119
 20
1892.900833513893
 10
4087.398865570984
 20
2004.322002375043
 10
4041.24421438061
 20
2114.7792099508188
 10
3992.102522827892
 20
2224.191193781041
 10
3939.996948056782
 20
2332.4771298449828
 10
3884.952835213003
 20
2439.556691968742
 10
3826.997707201454
 20
2545.350111079795
 10
3766.161252838463
 20
2649.7782342651076
 10
3702.475313402124
 20
2752.7625835894773
 10
3635.9738675852436
 20
2854.2254146305204
 10
3566.693014856518
 20
2954.0897746869773
 10
3494.6709572368027
 20
3052.2795606170525
 10
3419.9479794984463
 20
3148.719576263626
 10
3342.5664277969095
 20
3243.335589423375
 10
3262.570686744971
 20
3336.054388317041
 10
3180.007154941127
 20
3426.8038375182127
 10
3094.924218964759
 20
3515.5129332984625
 10
3007.3722258519856
 20
3602.111858346743
 10
2917.4034540671637
 20
3686.532035821418
 10
2825.072082986149
 20
3768.7061826936165
 10
2730.4341609086146
 20
3848.568362340978
 10
2633.547571617753
 20
3926.054036351314
 10
2534.4719995069604
 20
4001.10011549607
 10
2433.2688932939836
 20
4073.645009834106
 10
2330.001428344313
 20
4143.628677906668
 10
2224.734467626553
 20
4210.992674985063
 10
2117.5345213236124
 20
4275.680200333076
 10
2008.4697051246008
 20
4337.636143446793
 10
1897.6096972233584
 20
4396.807129235099
 10
1785.0256940505099
 20
4453.141562104821
 10
1670.790364767104
 20
4506.58966891508
 10
1554.9778045486073
 20
4557.103540766269
 10
1437.663486689266
 20
4604.637173589683
 10
1318.9242135576244
 20
4649.14650750467
 10
1198.8380664349809
 20
4690.589464910945
 10
1077.4843542694596
 20
4728.925987284532
 10
954.9435613792585
 20
4764.118070646632
 10
831.2972941394669
 20
4796.129799675634
 10
706.6282266878268
 20
4824.927380433274
 10
581.0200456853744
 20
4850.47917167702
 10
454.55739416895574
 20
4872.75571473155
 10
327.3258145332241
 20
4891.729761893266
 10
199.41169068051863
 20
4907.376303342689
 10
70.90218937773913
 20
4919.672592540667
 10
-58.11479913996795
 20
4928.5981700852735
 10
-187.55072127829465
 20
4934.134886007406
 10
-317.3164208643876
 20
4936.266920484058
 10
-447.3222005574521
 20
4934.980802949442
 10
-577.4778838469133
 20
4930.265429585124
 10
-707.6928775953374
 20
4922.1120791715475
 10
-837.8762350827303
 20
4910.51442728438
 10
-967.9367195083399
 20
4895.468558820329
 10
-1097.7828679056906
 20
4876.972978838199
 10
-1227.323055425957
 20
4855.028621702141
 10
-1356.4655599447
 20
4829.638858515265
 10
-1485.1186269463099
 20
4800.809502832949
 10
-1613.190534640345
 20
4768.548814646428
 10
-1740.5896592636022
 20
4732.867502628442
 10
-1867.2245405214767
 20
4693.778724633974
 10
-1993.0039471219452
 20
4651.298086450343
 10
-2117.8369423553345
 20
4605.443638792151
 10
-2241.632949672715
 20
4556.235872537901
 10
-2364.301818215897
 20
4503.69771220625
 10
-2485.7538882516287
 20
4447.854507671267
 10
-2605.9000564626763
 20
4388.7340241172205
 10
-2724.6518410484014
 20
4326.36643023475
 10
-2841.921446587444
 20
4260.784284661562
 10
-2957.6218286151384
 20
4192.022520672038
 10
-3071.666757868427
 20
4120.118429121398
 10
-3183.970884150969
 20
4045.1116396514562
 10
-3294.4497997715557
 20
3967.0441001661106
 10
-3403.0201025088218
 20
3885.9600545861176
 10
-3509.5994580556503
 20
3801.906018893913
 10
-3614.106661896825
 20
3714.9307554805314
 10
-3716.4617005737628
 20
3625.085245807901
 10
-3816.5858122904942
 20
3532.4226614010886
 10
-3914.4015468154157
 20
3436.9983331862572
 10
-4009.832824633588
 20
3338.8697191914707
 10
-4102.804995305008
 20
3238.096370628486
 10
-4193.2448949844675
 20
3134.7398963751175
 10
-4281.080903059267
 20
3028.8639258788435
 10
-4366.242997861475
 20
2920.5340705035583
 10
-4448.66281141199
 20
2809.817883342544
 10
-4528.2736831543025
 20
2696.784817521904
 10
-4605.01071263627
 20
2581.5061830199525
 10
-4678.81081109915
 20
2464.0551020289804
 10
-4749.612751933517
 20
2344.5064628871946
 10
-4817.357219962599
 20
2222.936872609564
 10
-4881.986859514173
 20
2099.4246080474722
 10
-4943.446321243003
 20
1974.049565708123
 10
-5001.682307666546
 20
1846.8932102657218
 10
-5056.643617377516
 20
1718.0385217974172
 10
-5108.281187897668
 20
1587.5699417781843
 10
-5156.548137138154
 20
1455.573317869523
 10
-5201.399803432621
 20
1322.1358475381053
 10
-5242.793784110174
 20
1187.3460205412769
 10
-5280.689972576295
 20
1051.2935603172907
 10
-5315.050593870812
 20
914.069364319046
 10
-5345.840238672957
 20
775.7654433309698
 10
-5373.025895724681
 20
636.474859809475
 10
-5396.576982644321
 20
496.2916652884211
 10
-5416.465375103968
 20
355.31083689148215
 10
-5432.665434344789
 20
213.6282129943994
 10
-5445.154033005858
 20
71.34042808064221
 10
-5453.91057924306
 20
-71.4551531652403
 10
-5458.917039115891
 20
-214.6605024816276
 10
-5460.157957221105
 20
-358.17699532559857
 10
-5457.620475553362
 20
-501.905478794324
 10
-5451.294350574308
 20
-645.7463401251613
 10
-5441.171968472663
 20
-789.5995757273206
 10
-5427.248358599229
 20
-933.3648606971244
 10
-5409.52120506193
 20
-1076.941618768605
 10
-5387.990856467342
 20
-1220.2290926506646
 10
-5362.660333796396
 20
-1363.1264147016236
 10
-5333.535336403283
 20
-1505.5326778916553
 10
-5300.624246127936
 20
-1647.3470070030728
 10
-5263.9381295136955
 20
-1788.468630018466
 10
-5223.490738123229
 20
-1928.7969496460075
 10
-5179.298506946982
 20
-2068.2316149314565
 10
-5131.380550899943
 20
-2206.6725929056706
 10
-5079.75865940376
 20
-2344.020240216684
 10
-5024.457289052551
 20
-2480.175374695323
 10
-4965.503554362407
 20
-2615.039346802606
 10
-4902.927216605519
 20
-2748.5141109081464
 10
-4836.760670731716
 20
-2880.502296347588
 10
-4767.03893038114
 20
-3010.9072782082985
 10
-4693.799610993515
 20
-3139.633247791548
 10
-4617.08291102068
 20
-3266.585282700176
 10
-4536.931591250298
 20
-3391.6694165008107
 10
-4453.3909522504755
 20
-3514.792707909319
 10
-4366.508809945765
 20
-3635.863309449302
 10
-4276.335469337099
 20
-3754.790535532639
 10
-4182.923696378806
 20
-3871.484929912397
 10
-4086.3286880280484
 20
-3985.8583324577553
 10
-3986.6080404824975
 20
-4097.82394520186
 10
-3883.8217156242054
 20
-4207.29639761314
 10
-3778.0320056884343
 20
-4314.191811041479
 10
-3669.3034961775975
 20
-4418.42786229118
 10
-3557.7030270421783
 20
-4519.923846272562
 10
-3443.2996521510877
 20
-4618.600737685456
 10
-3326.164597076039
 20
-4714.381251687449
 10
-3206.3712152149274
 20
-4807.189903501282
 10
-3083.994942281231
 20
-4896.95306691563
 10
-2959.1132491872463
 20
-4983.599031634657
 10
-2831.805593350084
 20
-5067.058059432422
 10
-2702.1533684512215
 20
-5147.262439068539
 10
-2570.2398526805955
 20
-5224.146539922899
 10
-2436.150155498518
 20
-5297.646864307407
 10
-2299.971162948681
 20
-5367.702098414116
 10
-2161.791481557709
 20
-5434.253161859533
 10
-2021.7013808571296
 20
-5497.2432557860175
 10
-1879.7927345647506
 20
-5556.61790948221
 10
-1736.158960464119
 20
-5612.325025484989
 10
-1590.8949590207287
 20
-5664.3149231269945
 10
-1444.097050775834
 20
-5712.5403804941925
 10
-1295.8629125584964
 20
-5756.956674759572
 10
-1146.2915125586612
 20
-5797.521620859574
 10
-995.4830443037805
 20
-5834.195608481471
 10
-843.5388595834701
 20
-5866.941637330619
 10
-690.5614003668938
 20
-5895.7253506479055
 10
-536.6541297583673
 20
-5920.51506694882
 10
-381.92146203822443
 20
-5941.281809956726
 10
-226.46869183559164
 20
-5957.999336704177
 10
-70.4019224817787
 20
-5970.64416377737
 10
86.17200640761965
 20
-5979.19559168004
 10
243.14559207195825
 20
-5983.635727294443
 10
400.4107424162538
 20
-5983.9495044183
 10
557.8588504429123
 20
-5980.124702358007
 10
715.3808692526828
 20
-5972.151962559597
 10
872.8673875637121
 20
-5960.024803260457
 10
1030.2087056957137
 20
-5943.73963214604
 10
1187.2949119671812
 20
-5923.2957569972805
 10
1344.0159594517604
 20
-5898.695394315776
 10
1500.2617430408611
 20
-5869.943675915207
 10
1655.9221767580248
 20
-5837.048653468921
 10
1810.8872712710104
 20
-5800.0213010050375
 10
1965.0472115472517
 20
-5758.875515341752
 10
2118.292434597392
 20
-5713.628114457254
 10
2270.513707252541
 20
-5664.29883378971
 10
2421.6022039194463
 20
-5610.910320464725
 10
2571.4495842589386
 20
-5553.488125448657
 10
2719.9480707317716
 20
-5492.060693628083
 10
2866.9905259566463
 20
-5426.659351816909
 10
3012.4705298252156
 20
-5357.318294694131
 10
3156.282456318159
 20
-5284.074568676947
 10
3298.321549967653
 20
-5206.96805373505
 10
3438.484001910384
 20
-5126.041443153826
 10
3576.667025476675
 20
-5041.340221255215
 10
3712.7689312603566
 20
-4952.912639086903
 10
3846.6892016149854
 20
-4860.809688091745
 10
3978.3285645221863
 20
-4765.085071770634
 10
4107.589066777663
 20
-4665.795175354084
 10
4234.37414644169
 20
-4562.999033498372
 10
4358.588704500234
 20
-4456.758296024539
 10
4480.139175684387
 20
-4347.137191718938
 10
4598.93359839512
 20
-4234.202490216503
 10
4714.881683681981
 20
-4118.023461988299
 10
4827.89488322397
 20
-3998.671836457232
 10
4937.886456261946
 20
-3876.2217582666103
 10
5044.771535432562
 20
-3750.7497417276395
 10
5148.467191453847
 20
-3622.334623473858
 10
5248.89249661406
 20
-3491.0575133509474
 10
5345.968587015282
 20
-3357.0017435727236
 10
5439.6187235248535
 20
-3220.2528161743808
 10
5529.768351387795
 20
-3080.8983487962564
 10
5616.345158454676
 20
-2939.0280188321467
 10
5699.279131980224
 20
-2794.733505977312
 10
5778.50261394849
 20
-2648.1084332133105
 10
5853.950354881942
 20
-2499.24830626686
 10
5925.55956609216
 20
-2348.2504515823643
 10
5993.269970331448
 20
-2195.213952847636
 10
6057.023850805185
 20
-2040.2395861146065
 10
6116.766098506091
 20
-1883.429753557198
 10
6172.444257832749
 20
-1724.8884159096135
 10
6224.0085704554685
 20
-1564.7210236300587
 10
6271.412017394264
 20
-1403.034446834769
 10
6314.610359274355
 20
-1239.9369040495208
 10
6353.562174726343
 20
-1075.5378898254025
 10
6388.228896898929
 20
-909.9481012679145
 10
6418.5748480538
 20
-743.2793635280002
 10
6444.567272213182
 20
-575.6445543056839
 10
6466.176365832125
 20
-407.1575274170553
 10
6483.375306468878
 20
-237.93303547611555
 10
6496.140279427947
 20
-68.08665174455467
 10
6504.45050235197
 20
102.26530879802903
 10
6508.288247739843
 20
273.00586910882924
 10
6507.638863369956
 20
444.01747040761705
 10
6502.490790608883
 20
615.1820531178777
 10
6492.835580587282
 20
786.3811383677985
 10
6478.667908226227
 20
957.4959099950806
 10
6459.985584098728
 20
1128.4072969982365
 10
6436.789564112628
 20
1298.9960563778882
 10
6409.0839570026465
 20
1469.14285630969
 10
6376.8760296207965
 20
1638.7283595916279
 10
6340.176210016033
 20
1807.633307306613
 10
6298.99808829539
 20
1975.7386026424642
 10
6253.358415260596
 20
2142.9253948098167
 10
6203.27709881563
 20
2309.075162999103
 10
6148.777198142126
 20
2474.0698003175676
 10
6089.884915641486
 20
2637.7916976463644
 10
6026.629586643599
 20
2800.123827358953
 10
5959.043666884257
 20
2960.949826840575
 10
5887.162717754334
 20
3120.1540817499595
 10
5811.0253893259405
 20
3277.6218089632466
 10
5730.673401161971
 20
3433.2391391409383
 10
5646.151520917127
 20
3586.8931988588406
 10
5557.50754074033
 20
3738.4721922433355
 10
5464.792251489557
 20
3887.865482052778
 10
5368.059414772284
 20
4034.963670145688
 10
5267.365732825664
 20
4179.658677278051
 10
5162.770816252732
 20
4321.8438221712
 10
5054.337149632127
 20
4461.4138997928785
 10
4942.130055020255
 20
4598.265258794445
 10
4826.21765336699
 20
4732.295878047032
 10
4706.670823866571
 20
4863.405442220975
 10
4583.563161267957
 20
4991.495416352272
 10
4456.970931169285
 20
5116.469119341499
 10
4326.973023323696
 20
5238.231796330189
 10
4193.650902984151
 20
5356.690689901362
 10
4057.0885603173
 20
5471.75511005071
 10
3917.37245791729
 20
5583.3365028762255
 10
3774.591476451811
 20
5691.348517934889
 10
3628.836858474719
 20
5795.707074215238
 10
3480.2021504399127
 20
5896.330424676458
 10
3328.783142953691
 20
5993.1392193044785
 10
3174.677809302933
 20
6086.056566637522
 10
3017.9862422988417
 20
6175.008093713627
 10
2858.8105894766272
 20
6259.922004394272
 10
2697.254986692667
 20
6340.729136019135
 10
2533.4254901627464
 20
6417.363014347784
 10
2367.430006984927
 20
6489.759906745788
 10
2199.378224193151
 20
6557.858873573213
 10
2029.3815363874594
 20
6621.601817735306
 10
1857.552971989047
 20
6680.933532355798
 10
1684.0071181686792
 20
6735.801746534852
 10
1508.8600444980614
 20
6786.157169154947
 10
1332.2292253755395
 20
6831.953530698943
 10
1154.2334612772365
 20
6873.147623046433
 10
974.9927988871289
 20
6909.699337215276
 10
794.6284501589718
 20
6941.571699017069
 10
613.2627103654029
 20
6968.730902596365
 10
431.0188751888565
 20
6991.146341825092
 10
248.0211569111045
 20
7008.790639524968
 10
64.39459975814123
 20
7021.6396744921985
 10
-119.73500554214365
 20
7029.672606300314
 10
-304.24120793050173
 20
7032.871897858384
 10
-488.9969828568148
 20
7031.2233357035275
 10
-673.8748197300987
 20
7024.716048008062
 10
-858.7468099185951
 20
7013.3425202833205
 10
-1043.4847352385914
 20
6997.098608763649
 10
-1227.9601568710084
 20
6975.983551455805
 10
-1412.0445046443476
 20
6949.999976840468
 10
-1595.6091666213226
 20
6919.153910214362
 10
-1778.5255789275311
 20
6883.454777662939
 10
-1960.6653157586602
 20
6842.915407655463
 10
-2141.9001795040153
 20
6797.552030255684
 10
-2322.102290922382
 20
6747.384273943363
 10
-2501.1441793075737
 20
6692.43516004312
 10
-2678.8988725795357
 20
6632.7310947592105
 10
-2855.2399872376213
 20
6568.301858816225
 10
-3030.0418181126233
 20
6499.180594707429
 10
-3203.179427853279
 20
6425.403791554392
 10
-3374.528736084386
 20
6347.011267582847
 10
-3543.9666081722144
 20
6264.046150221897
 10
-3711.370943534573
 20
6176.554853834861
 10
-3876.6207634316934
 20
6084.587055092229
 10
-4039.596298175216
 20
5988.1956659986
 10
-4200.17907369273
 20
5887.436804587066
 10
-4358.251997384944
 20
5782.369763296696
 10
-4513.699443214101
 20
5673.056975049624
 10
-4666.407335961303
 20
5559.563977046892
 10
-4816.263234592217
 20
5441.959372302809
 10
-4963.156414669935
 20
5320.314788940183
 10
-5106.977949755044
 20
5194.704837269797
 10
-5247.620791733521
 20
5065.207064679172
 10
-5384.979850012982
 20
4931.901908357751
 10
-5518.952069529649
 20
4794.87264588641
 10
-5649.436507507792
 20
4654.20534372172
 10
-5776.334408915481
 20
4509.988803605919
 10
-5899.549280559968
 20
4362.3145069361735
 10
-6018.98696376813
 20
4211.276557127088
 10
-6134.555705597159
 20
4056.971620002948
 10
-6246.166228522336
 20
3899.4988622570363
 10
-6353.73179854954
 20
3738.9598880166936
 10
-6457.168291700738
 20
3575.45867355507
 10
-6556.394258822429
 20
3409.1015001906057
 10
-6651.330988667314
 20
3239.996885418111
 10
-6741.902569201361
 20
3068.255512315194
 10
-6828.0359470888525
 20
2893.990157270402
 10
-6909.660985309666
 20
2717.3156160799017
 10
-6986.710518864215
 20
2538.348628460798
 10
-7059.120408522326
 20
2357.2078010312066
 10
-7126.829592574272
 20
2174.013528807089
 10
-7189.780136542777
 20
1988.8879152684942
 10
-7247.917280816846
 20
1801.954691047448
 10
-7301.189486169022
 20
1613.339131292365
 10
-7349.548477119654
 20
1423.1679717633692
 10
-7392.9492831127045
 20
1231.5693237152975
 10
-7431.350277469431
 20
1038.672587625289
 10
-7464.713214087674
 20
844.6083658227614
 10
-7493.003261855853
 20
649.5083740814066
 10
-7516.189036752612
 20
453.50535223222744
 10
-7534.242631604301
 20
256.7329738591092
 10
-7547.139643474347
 20
59.325755137536625
 10
-7554.859198659993
 20
-138.58103712071312
 10
-7557.383975273594
 20
-336.85147815430736
 10
-7554.7002233873445
 20
-535.349078607284
 10
-7546.797782721884
 20
-733.9368784873778
 10
-7533.670097861016
 20
-932.4775416639011
 10
-7515.314230976423
 20
-1130.8334508391165
 10
-7491.730872047998
 20
-1328.8668029282703
 10
-7462.924346567134
 20
-1526.439704781504
 10
-7428.902620712128
 20
-1723.4142691814436
 10
-7389.677303986418
 20
-1919.652711049904
 10
-7345.263649312481
 20
-2115.0174437959404
 10
-7295.6805505755565
 20
-2309.371175738718
 10
-7240.950537613632
 20
-2502.577006536811
 10
-7181.099768651384
 20
-2694.4985235570675
 10
-7116.158020178158
 20
-2884.9998981144267
 10
-7046.158674271237
 20
-3073.945981515621
 10
-6971.138703368038
 20
-3261.202400838289
 10
-6891.138652492281
 20
-3446.635654377925
 10
-6806.202618941059
 20
-3630.1132066952073
 10
-6716.3782294417815
 20
-3811.5035831954847
 10
-6621.716614789318
 20
-3990.6764641738187
 10
-6522.272381975997
 20
-4167.502778257593
 10
-6418.103583828349
 20
-4341.854795180611
 10
-6309.271686166764
 20
-4513.6062178214925
 10
-6195.841532505756
 20
-4682.632273440457
 10
-6077.881306314124
 20
-4848.809804048968
 10
-5955.462490856675
 20
-5012.017355846412
 10
-5828.6598266400015
 20
-5172.135267659718
 10
-5697.55126648761
 20
-5329.045758321064
 10
-5562.217928270292
 20
-5482.633012920733
 10
-5422.744045320373
 20
-5632.783267871696
 10
-5279.216914559485
 20
-5779.384894723898
 10
-5131.726842371232
 20
-5922.328482667008
 10
-4980.367088252346
 20
-6061.506919660442
 10
-4825.233806276609
 20
-6196.815472131463
 10
-4666.425984408531
 20
-6328.151863181782
 10
-4504.045381704175
 20
-6455.416349245248
 10
-4338.196463439362
 20
-6578.511795138988
 10
-4168.986334205701
 20
-6697.343747452525
 10
-3996.524669017613
 20
-6811.820506219423
 10
-3820.923642474261
 20
-6921.853194817783
 10
-3642.2978560216966
 20
-7027.355828046957
 10
-3460.7642633628425
 20
-7128.245378328525
 10
-3276.442094062952
 20
-7224.441839981615
 10
-3089.4527754011065
 20
-7315.8682915230165
 10
-2899.9198525180864
 20
-7402.450955944632
 10
-2707.968906913656
 20
-7484.119258921476
 10
-2513.7274733466847
 20
-7560.805884905166
 10
-2317.324955192763
 20
-7632.446831059298
 10
-2118.8925383160663
 20
-7698.9814589940515
 10
-1918.5631035119259
 20
-7760.35254425954
 10
-1716.4711375793456
 20
-7816.506323558161
 10
-1512.7526430820783
 20
-7867.392539638427
 10
-1307.545046859645
 20
-7912.964483833679
 10
-1100.9871073489737
 20
-7953.179036211222
 10
-893.2188207798155
 20
-7987.9967032985605
 10
-684.3813263070765
 20
-8017.38165335538
 10
-474.6168101440457
 20
-8041.30174916145
 10
-264.068408762341
 20
-8059.728578292245
 10
-52.880111223587555
 20
-8072.637480855958
 10
158.8033392896178
 20
-8080.007574667119
 10
370.83654467700353
 20
-8081.821777833968
 10
583.0735517894756
 20
-8078.066828738329
 10
795.3679528952133
 20
-8068.733303388666
 10
1007.5729866741437
 20
-8053.8156301287145
 10
1219.5416396704074
 20
-8033.312101685931
 10
1431.1267481335815
 20
-8007.224884545865
 10
1642.181100177194
 20
-7975.560025640379
 10
1852.557538184514
 20
-7938.327456339489
 10
2062.1090613896745
 20
-7895.540993738532
 10
2270.688928562926
 20
-7847.218339234223
 10
2478.1507607285916
 20
-7793.381074384934
 10
2684.348643843148
 20
-7734.054654052745
 10
2889.1372313623056
 20
-7669.268396826248
 10
3092.371846624142
 20
-7599.055472725538
 10
3293.908584977104
 20
-7523.452888192183
 10
3493.604415579947
 20
-7442.501468369406
 10
3691.317282802528
 20
-7356.245836679114
 10
3886.906207154942
 20
-7264.734391704803
 10
4080.231385673644
 20
-7168.019281390938
 10
4271.154291693455
 20
-7066.156374571343
 10
4459.537773933654
 20
-6959.2052298413555
 10
4645.246154828248
 20
-6847.229061789833
 10
4828.145328029189
 20
-6730.294704609671
 10
5008.102855013426
 20
-6608.472573106614
 10
5184.988060723686
 20
-6481.836621128722
 10
5358.672128174392
 20
-6350.464297440287
 10
5529.028191954595
 20
-6214.436499065713
 10
5695.931430559677
 20
-6073.837522131363
 10
5859.2591574855805
 20
-5928.75501023421
 10
6018.890911018548
 20
-5779.2799003690125
 10
6174.7085426556605
 20
-5625.506366446395
 10
6326.596304090937
 20
-5467.531760436981
 10
6474.4409327035
 20
-5305.456551177834
 10
6618.131735485185
 20
-5139.3842608791265
 10
6757.560671345211
 20
-4969.421399371387
 10
6892.622431731702
 20
-4795.677396134151
 10
7023.21451950969
 20
-4618.26453014986
 10
7149.237326037478
 20
-4437.297857627002
 10
7270.594206383316
 20
-4252.895137639588
 10
7387.1915526265575
 20
-4065.1767557300545
 10
7498.938865187832
 20
-3874.2656455256574
 10
7605.748822134501
 20
-3680.2872084189285
 10
7707.537346409144
 20
-3483.3692313643382
 10
7804.223670929456
 20
-3283.6418028455405
 10
7895.730401510299
 20
-3081.237227067553
 10
7981.9835775591255
 20
-2876.2899364312293
 10
8062.912730498332
 20
-2668.9364023470157
 10
8138.450939868824
 20
-2459.3150444477437
 10
8208.534887071179
 20
-2247.566138260555
 10
8273.104906702174
 20
-2033.8317213991813
 10
8332.105035445862
 20
-1818.2554983399918
 10
8385.4830584804
 20
-1600.9827438447094
 10
8433.190553363096
 20
-1382.1602050956135
 10
8475.182931358193
 20
-1161.9360026081813
 10
8511.419476173332
 20
-940.4595299890143
 10
8541.863380072627
 20
-717.8813526059381
 10
8566.481777335888
 20
-494.35310523975534
 10
8585.245775035424
 20
-270.02738878691224
 10
8598.130481103679
 20
-45.05766608313973
 10
8605.115029666737
 20
180.40184308005504
 10
8606.182603620699
 20
406.1962676751721
 10
8601.320454429704
 20
632.1701918213289
 10
8590.519919126395
 20
858.1677617575696
 10
8573.776434497458
 20
1084.0327933324777
 10
8551.089548438886
 20
1309.608879936269
 10
8522.462928467436
 20
1534.739500801082
 10
8487.904367376948
 20
1759.2681295937234
 10
8447.425786029853
 20
1983.0383432264725
 10
8401.043233276581
 20
2205.893930809357
 10
8348.77688299712
 20
2427.6790026689496
 10
8290.651028261422
 20
2648.238099356882
 10
8226.69407260711
 20
2867.4163005721675
 10
8156.938518434891
 20
3085.059333921354
 10
8081.420952524466
 20
3301.0136834394348
 10
8000.182028675225
 20
3515.12669779616
 10
7913.266447478593
 20
3727.2466981105636
 10
7820.722933230367
 20
3937.223085298582
 10
7722.604207993978
 20
4144.906446876913
 10
7618.966962826988
 20
4350.14866314834
 10
7509.871826185787
 20
4552.803012692439
 10
7395.383329525027
 20
4752.724277086925
 10
7275.569870110297
 20
4949.768844785253
 10
7150.503671065078
 20
5143.79481407564
 10
7020.26073867408
 20
5334.662095048632
 10
6884.92081696812
 20
5522.232510499257
 10
6744.56733961649
 20
5706.369895692062
 10
6599.287379155772
 20
5886.9401969165065
 10
6449.171593585285
 20
6063.811568761863
 10
6294.3141703612755
 20
6236.854470041459
 10
6134.812767824482
 20
6405.941758296088
 10
5970.768454096518
 20
6570.948782808645
 10
5802.285643483588
 20
6731.753476061433
 10
5629.472030426554
 20
6888.236443570019
 10
5452.438521039396
 20
7040.281052027292
 10
5271.299162279081
 20
7187.77351569317
 10
5086.171068791572
 20
7330.60298096651
 10
4897.174347481298
 20
7468.661609076253
 10
4704.432019851658
 20
7601.844656831089
 10
4508.069942167429
 20
7730.0505553670055
 10
4308.216723489851
 20
7853.180986834544
 10
4105.003641638486
 20
7971.1409589677705
 10
3898.5645571337845
 20
8083.838877479466
 10
3689.0358251773173
 20
8191.186616227445
 10
3476.5562057271736
 20
8293.099585099046
 10
3261.2667717274526
 20
8389.49679556223
 10
3043.310815553152
 20
8480.300923832827
 10
2822.8337537315356
 20
8565.43837160974
 10
2599.983030004195
 20
8644.839324330807
 10
2374.9080167934662
 20
8718.437806904372
 10
2147.7599151397203
 20
8786.17173687263
 10
1918.6916531762504
 20
8847.982974965018
 10
1687.8577832095552
 20
8903.817373001553
 10
1455.414377475045
 20
8953.62481910753
 10
1221.518922637485
 20
8997.359280203262
 10
986.3302131084832
 20
9034.978841733942
 10
750.0082432522624
 20
9066.44574460695
 10
512.7140985538995
 20
9091.72641930545
 10
274.60984582306486
 20
9110.791517149442
 10
35.85842250889709
 20
9123.61593867698
 10
-203.37647479871634
 20
9130.178859120551
 10
-442.93050260547824
 20
9130.463750955409
 10
-682.6387834088778
 20
9124.45840349872
 10
-922.3360191776949
 20
9112.15493954042
 10
-1161.8566053356692
 20
9093.54982898868
 10
-1401.0347451717462
 20
9068.643899514973
 10
-1639.7045645970438
 20
9037.44234418579
 10
-1877.7002271694478
 20
8999.954726070147
 10
-2114.8560493063987
 20
8956.194979814043
 10
-2351.0066156050298
 20
8906.181410175337
 10
-2585.9868941904124
 20
8849.936687514308
 10
-2819.6323520104575
 20
8787.487840237669
 10
-3051.7790699979396
 20
8718.8662441955
 10
-3282.2638580182825
 20
8644.107609033115
 10
-3510.9243695228465
 20
8563.251961501752
 10
-3737.59921582751
 20
8476.343625734036
 10
-3962.128079935392
 20
8383.431200492732
 10
-4184.351829824447
 20
8284.567533402766
 10
-4404.11263111895
 20
8179.809692179361
 10
-4621.254059066162
 20
8069.218932866531
 10
-4835.621209737843
 20
7952.860665103001
 10
-5047.060810378577
 20
7830.804414434023
 10
-5255.421328821664
 20
7703.123781690278
 10
-5460.553081894893
 20
7569.896399456811
 10
-5662.308342739027
 20
7431.203885656868
 10
-5860.541446961531
 20
7287.131794278196
 10
-6055.108897550226
 20
7137.76956327047
 10
-6245.869468470641
 20
6983.210459645642
 10
-6432.684306873255
 20
6823.551521813848
 10
-6615.417033836216
 20
6658.893499190567
 10
-6793.933843570896
 20
6489.340789112067
 10
-6968.103601018628
 20
6315.001371097989
 10
-7137.797937767023
 20
6135.986738502732
 10
-7302.891346216772
 20
5952.41182759785
 10
-7463.261271929341
 20
5764.394944131072
 10
-7618.788204088705
 20
5572.05768740781
 10
-7769.355764009879
 20
5375.5248719444335
 10
-7914.85079162982
 20
5174.924446742807
 10
-8055.163429916171
 20
4970.387412238728
 10
-8190.187207131568
 20
4762.047734977741
 10
-8319.81911689248
 20
4550.042260073474
 10
-8443.959695962392
 20
4334.510621506237
 10
-8562.513099721611
 20
4115.595150319672
 10
-8675.38717525641
 20
3893.4407807766374
 10
-8782.493532012844
 20
3668.194954535159
 10
-8883.747609961247
 20
3440.0075229084746
 10
-8979.068745219636
 20
3209.0306472735674
 10
-9068.38023308594
 20
2975.4186976940127
 10
-9151.609388430139
 20
2739.3281498253764
 10
-9228.687603399992
 20
2500.917480171006
 10
-9299.550402394947
 20
2260.3470597592823
 10
-9364.137494265482
 20
2017.7790463126496
 10
-9422.392821696292
 20
1773.3772749816885
 10
-9474.26460773406
 20
1527.307147717521
 10
-9519.705399422417
 20
1279.7355213568835
 10
-9558.672108508401
 20
1030.8305944964175
 10
-9591.126049187073
 20
780.7617932318142
 10
-9617.032972852625
 20
529.699655840514
 10
-9636.363099826633
 20
277.81571648535225
 10
-9649.091148035901
 20
25.28238801954438
 10
-9655.196358614672
 20
-227.72715602797663
 10
-9654.662518407877
 20
-481.03910020524097
 10
-9647.477979354377
 20
-734.479106546845
 10
-9633.635674731182
 20
-987.8724345587899
 10
-9613.133132241868
 20
-1241.0440616951194
 10
-9585.9724839345
 20
-1493.8188042443576
 10
-9552.160472936692
 20
-1746.0214385411607
 10
-9511.70845699744
 20
-1997.4768224203763
 10
-9464.632408827798
 20
-2248.0100168284857
 10
-9410.952913234532
 20
-2497.44640750833
 10
-9350.6951610431
 20
-2745.6118266728467
 10
-9283.88893980874
 20
-2992.3326745821873
 10
-9210.568621316354
 20
-3237.4360409404308
 10
-9130.773145872572
 20
-3480.749826025952
 10
-9044.546003395057
 20
-3722.1028614716606
 10
-8951.935211306922
 20
-3961.325030609544
 10
-8852.993289246024
 20
-4198.247388295297
 10
-8747.777230601107
 20
-4432.702280129018
 10
-8636.348470889408
 20
-4664.523460987068
 10
-8518.772852991908
 20
-4893.546212782388
 10
-8395.120589265434
 20
-5119.607461368904
 10
-8265.46622055214
 20
-5342.545892508144
 10
-8129.888572110044
 20
-5562.2020668147115
 10
-7988.470706489508
 20
-5778.4185335997645
 10
-7841.299873383615
 20
-5991.039943530587
 10
-7688.467456482006
 20
-6199.913160026059
 10
-7530.068917359817
 20
-6404.887369308598
 10
-7366.203736436182
 20
-6605.814189032913
 10
-7196.975351037757
 20
-6802.547775414396
 10
-7022.491090606071
 20
-6994.944928779057
 10
-6842.862109088283
 20
-7182.865197459728
 10
-6658.203314554085
 20
-7366.170979962643
 10
-6468.633296082863
 20
-7544.727625330632
 10
-6274.274247967009
 20
-7718.403531630163
 10
-6075.251891280254
 20
-7887.070242489938
 10
-5871.69539286029
 20
-8050.602541621164
 10
-5663.737281758535
 20
-8208.87854524961
 10
-5451.513363209988
 20
-8361.779792392199
 10
-5235.162630179755
 20
-8509.191332910985
 10
-5014.827172542781
 20
-8651.001813280049
 10
-4790.652083956718
 20
-8787.103560001276
 10
-4562.785366488537
 20
-8917.392660607105
 10
-4331.377833057146
 20
-9041.769042190019
 10
-4096.583007756961
 20
-9160.136547399416
 10
-3858.557024127271
 20
-9272.403007849272
 10
-3617.458521435717
 20
-9378.48031488058
 10
-3373.4485390437094
 20
-9478.284487625295
 10
-3126.690408924866
 20
-9571.735738319532
 10
-2877.3496464078407
 20
-9658.758534816066
 10
-2625.593839216214
 20
-9739.281660247972
 10
-2371.5925348806522
 20
-9813.238269796864
 10
-2115.5171265978774
 20
-9880.565944521648
 10
-1857.54073761435
 20
-9941.206742205053
 10
-1597.8381042115698
 20
-9995.10724517789
 10
-1336.5854573729284
 20
-10042.218605082382
 10
-1073.9604032118923
 20
-10082.496584538461
 10
-810.141802242273
 20
-10115.901595678828
 10
-545.3096475735347
 20
-10142.398735520594
 10
-279.64494211297836
 20
-10161.957818143781
 10
-13.329574859721598
 20
-10174.55340364878
 10
253.4538036261321
 20
-10180.164823867352
 10
520.52190649272
 20
-10178.776204803766
 10
787.6909365192482
 20
-10170.376485785117
 10
1054.776712605005
 20
-10154.959435301867
 10
1321.5947967378722
 20
-10132.523663522243
 10
1587.9606213551697
 20
-10103.072631466053
 10
1853.6896170079858
 20
-10066.614656826188
 10
2118.5973402418117
 20
-10023.16291642798
 10
2382.4996016037317
 20
-9972.735445319311
 10
2645.212593688456
 20
-9915.355132486335
 10
2906.553019133298
 20
-9851.049713192348
 10
3166.338218473336
 20
-9779.851757939456
 10
3424.386297767962
 20
-9701.798658055091
 10
3680.5162559087853
 20
-9616.932607907967
 10
3934.5481115209027
 20
-9525.300583760036
 10
4186.303029367493
 20
-9426.95431926387
 10
4435.603446170082
 20
-9321.95027761671
 10
4682.273195755128
 20
-9210.349620385205
 10
4926.137633439162
 20
-9092.218173017054
 10
5167.023759565022
 20
-8967.626387057822
 10
5404.7603421010745
 20
-8836.649299094222
 10
5639.178038217618
 20
-8699.366486446499
 10
5870.109514753222
 20
-8555.862019635968
 10
6097.389567486435
 20
-8406.224411654854
 10
6320.855239126939
 20
-8250.546564069102
 10
6540.345935942979
 20
-8088.925709985802
 10
6755.703542940973
 20
-7921.463353920278
 10
6966.772537515146
 20
-7748.265208599375
 10
7173.400101485951
 20
-7569.441128739653
 10
7375.43623144604
 20
-7385.105041842135
 10
7572.733847335155
 20
-7195.374876046166
 10
7765.148899164673
 20
-7000.372485088486
 10
7952.540471815475
 20
-6800.223570414235
 10
8134.770887832397
 20
-6595.057600489988
 10
8311.705808140876
 20
-6385.007727370186
 10
8483.214330612585
 20
-6170.210700570141
 10
8649.169086407466
 20
-5950.8067783018605
 10
8809.446334022277
 20
-5726.939636129231
 10
8963.926050975855
 20
-5498.756273102787
 10
9112.492023064198
 20
-5266.406915434301
 10
9255.031931118727
 20
-5030.044917775125
 10
9391.437435204003
 20
-4789.826662162094
 10
9521.604256191746
 20
-4545.91145469821
 10
9645.432254650384
 20
-4298.461420036002
 10
9762.825506991192
 20
-4047.641393732981
 10
9873.692378813132
 20
-3793.6188125514354
 10
9977.94559539155
 20
-3536.5636027744495
 10
10075.502309256502
 20
-3276.6480666136677
 10
10166.284164809611
 20
-3014.046766783625
 10
10250.217359929358
 20
-2748.936409320766
 10
10327.232704517339
 20
-2481.4957247254565
 10
10397.265675939982
 20
-2211.905347506519
 10
10460.256471321929
 20
-1940.3476942103487
 10
10516.150056650009
 20
-1667.0068400158332
 10
10564.896212648273
 20
-1392.0683939796936
 10
10606.449577387324
 20
-1115.7193730156619
 10
10640.769685592857
 20
-838.1480746939538
 10
10667.821004620966
 20
-559.5439489471912
 10
10687.572967069875
 20
-280.09746876979017
 10
10700.0
 20
-1.310372075087668e-11
  0
TEXT
  5
8B
330
17
100
AcDbEntity
  8
0
100
AcDbText
 10
522.4018206926639
 20
13958.120894661099
 30
0.0
 40
1081.3952001900745
  1
Spiral | w=600µm | internal_d=400µm | outer+0.2mm | loops=5 r0=200µm s=2100µm
 11
522.4018206926639
 21
13958.120894661099
 31
0.0
100
AcDbText
  0
TEXT
  5
8C
330
17
100
AcDbEntity
  8
0
100
AcDbText
 10
544.0297246964655
 20
13958.120894661099
 30
0.0
 40
1081.3952001900745
  1
Spiral | w=600µm | internal_d=400µm | outer+0.2mm | loops=5 r0=200µm s=2100µm
 11
544.0297246964655
 21
13958.120894661099
 31
0.0
100
AcDbText
  0
ENDSEC
  0
SECTION
  2
OBJECTS
  0
DICTIONARY
  5
A
330
0
100
AcDbDictionary
281
1
  3
ACAD_COLOR
350
B
  3
ACAD_GROUP
350
C
  3
ACAD_LAYOUT
350
D
  3
ACAD_MATERIAL
350
E
  3
ACAD_MLEADERSTYLE
350
F
  3
ACAD_MLINESTYLE
350
10
  3
ACAD_PLOTSETTINGS
350
11
  3
ACAD_PLOTSTYLENAME
350
12
  3
ACAD_SCALELIST
350
14
  3
ACAD_TABLESTYLE
350
15
  3
ACAD_VISUALSTYLE
350
16
  3
EZDXF_META
350
2D
  0
DICTIONARY
  5
B
330
A
100
AcDbDictionary
281
1
  0
DICTIONARY
  5
C
330
A
100
AcDbDictionary
281
1
  0
DICTIONARY
  5
D
330
A
100
AcDbDictionary
281
1
  3
Model
350
1A
  3
Layout1
350
1E
  0
DICTIONARY
  5
E
330
A
100
AcDbDictionary
281
1
  3
ByBlock
350
1F
  3
ByLayer
350
20
  3
Global
350
21
  0
DICTIONARY
  5
F
330
A
100
AcDbDictionary
281
1
  3
Standard
350
2C
  0
DICTIONARY
  5
10
330
A
100
AcDbDictionary
281
1
  3
Standard
350
22
  0
DICTIONARY
  5
11
330
A
100
AcDbDictionary
281
1
  0
ACDBDICTIONARYWDFLT
  5
12
330
A
100
AcDbDictionary
281
1
  3
Normal
350
13
100
AcDbDictionaryWithDefault
340
13
  0
ACDBPLACEHOLDER
  5
13
330
12
  0
DICTIONARY
  5
14
330
A
100
AcDbDictionary
281
1
  0
DICTIONARY
  5
15
330
A
100
AcDbDictionary
281
1
  0
DICTIONARY
  5
16
330
A
100
AcDbDictionary
281
1
  3
2dWireframe
350
5A
  3
Basic
350
5B
  3
Brighten
350
5C
  3
ColorChange
350
5D
  3
Conceptual
350
5E
  3
Dim
350
5F
  3
EdgeColorOff
350
60
  3
Facepattern
350
61
  3
Flat
350
62
  3
FlatWithEdges
350
63
  3
Gouraud
350
64
  3
GouraudWithEdges
350
65
  3
Hidden
350
66
  3
JitterOff
350
67
  3
Linepattern
350
68
  3
Modeling
350
69
  3
OverhangOff
350
6A
  3
Realistic
350
6B
  3
Shaded
350
6C
  3
Shaded with edges
350
6D
  3
Shades of Gray
350
6E
  3
Sketchy
350
6F
  3
Thicken
350
70
  3
Wireframe
350
71
  3
X-Ray
350
72
  0
LAYOUT
  5
1A
330
D
100
AcDbPlotSettings
  1

  4
A3
  6

 40
7.5
 41
20.0
 42
7.5
 43
20.0
 44
420.0
 45
297.0
 46
0.0
 47
0.0
 48
0.0
 49
0.0
140
0.0
141
0.0
142
1.0
143
1.0
 70
1024
 72
1
 73
0
 74
5
  7

 75
16
 76
0
 77
2
 78
300
147
1.0
148
0.0
149
0.0
100
AcDbLayout
  1
Model
 70
1
 71
0
 10
0.0
 20
0.0
 11
420.0
 21
297.0
 12
0.0
 22
0.0
 32
0.0
 14
1e+20
 24
1e+20
 34
1e+20
 15
-1e+20
 25
-1e+20
 35
-1e+20
146
0.0
 13
0.0
 23
0.0
 33
0.0
 16
1.0
 26
0.0
 36
0.0
 17
0.0
 27
1.0
 37
0.0
 76
1
330
17
  0
LAYOUT
  5
1E
330
D
100
AcDbPlotSettings
  1

  4
A3
  6

 40
7.5
 41
20.0
 42
7.5
 43
20.0
 44
420.0
 45
297.0
 46
0.0
 47
0.0
 48
0.0
 49
0.0
140
0.0
141
0.0
142
1.0
143
1.0
 70
0
 72
1
 73
0
 74
5
  7

 75
16
 76
0
 77
2
 78
300
147
1.0
148
0.0
149
0.0
100
AcDbLayout
  1
Layout1
 70
1
 71
1
 10
0.0
 20
0.0
 11
420.0
 21
297.0
 12
0.0
 22
0.0
 32
0.0
 14
1e+20
 24
1e+20
 34
1e+20
 15
-1e+20
 25
-1e+20
 35
-1e+20
146
0.0
 13
0.0
 23
0.0
 33
0.0
 16
1.0
 26
0.0
 36
0.0
 17
0.0
 27
1.0
 37
0.0
 76
1
330
1B
  0
MATERIAL
  5
1F
102
{ACAD_REACTORS
330
E
102
}
330
E
100
AcDbMaterial
  1
ByBlock
  2

 70
0
 40
1.0
 71
1
 41
1.0
 91
-1023410177
 42
1.0
 72
1
  3

 73
1
 74
1
 75
1
 44
0.5
 73
0
 45
1.0
 46
1.0
 77
1
  4

 78
1
 79
1
170
1
 48
1.0
171
1
  6

172
1
173
1
174
1
140
1.0
141
1.0
175
1
  7

176
1
177
1
178
1
143
1.0
179
1
  8

270
1
271
1
272
1
145
1.0
146
1.0
273
1
  9

274
1
275
1
276
1
 42
1.0
 72
1
  3

 73
1
 74
1
 75
1
 94
63
  0
MATERIAL
  5
20
102
{ACAD_REACTORS
330
E
102
}
330
E
100
AcDbMaterial
  1
ByLayer
  2

 70
0
 40
1.0
 71
1
 41
1.0
 91
-1023410177
 42
1.0
 72
1
  3

 73
1
 74
1
 75
1
 44
0.5
 73
0
 45
1.0
 46
1.0
 77
1
  4

 78
1
 79
1
170
1
 48
1.0
171
1
  6

172
1
173
1
174
1
140
1.0
141
1.0
175
1
  7

176
1
177
1
178
1
143
1.0
179
1
  8

270
1
271
1
272
1
145
1.0
146
1.0
273
1
  9

274
1
275
1
276
1
 42
1.0
 72
1
  3

 73
1
 74
1
 75
1
 94
63
  0
MATERIAL
  5
21
102
{ACAD_REACTORS
330
E
102
}
330
E
100
AcDbMaterial
  1
Global
  2

 70
0
 40
1.0
 71
1
 41
1.0
 91
-1023410177
 42
1.0
 72
1
  3

 73
1
 74
1
 75
1
 44
0.5
 73
0
 45
1.0
 46
1.0
 77
1
  4

 78
1
 79
1
170
1
 48
1.0
171
1
  6

172
1
173
1
174
1
140
1.0
141
1.0
175
1
  7

176
1
177
1
178
1
143
1.0
179
1
  8

270
1
271
1
272
1
145
1.0
146
1.0
273
1
  9

274
1
275
1
276
1
 42
1.0
 72
1
  3

 73
1
 74
1
 75
1
 94
63
  0
MLINESTYLE
  5
22
102
{ACAD_REACTORS
330
10
102
}
330
10
100
AcDbMlineStyle
  2
Standard
 70
0
  3

 62
256
 51
90.0
 52
90.0
 71
2
 49
0.5
 62
256
  6
BYLAYER
 49
-0.5
 62
256
  6
BYLAYER
  0
MLEADERSTYLE
  5
2C
102
{ACAD_REACTORS
330
F
102
}
330
F
100
AcDbMLeaderStyle
179
2
170
2
171
1
172
0
 90
2
 40
0.0
 41
0.0
173
1
 91
-1056964608
 92
-2
290
1
 42
2.0
291
1
 43
8.0
  3
Standard
 44
4.0
300

342
29
174
1
175
1
176
0
178
1
 93
-1056964608
 45
4.0
292
0
297
0
 46
4.0
 94
-1056964608
 47
1.0
 49
1.0
140
1.0
294
1
141
0.0
177
0
142
1.0
295
0
296
0
143
3.75
271
0
272
9
273
9
  0
DICTIONARY
  5
2D
330
A
100
AcDbDictionary
280
1
281
1
  3
CREATED_BY_EZDXF
350
2E
  3
WRITTEN_BY_EZDXF
350
8F
  0
DICTIONARYVAR
  5
2E
330
2D
100
DictionaryVariables
280
0
  1
1.4.3 @ 2026-02-09T05:09:14.039340+00:00
  0
VISUALSTYLE
  5
5A
102
{ACAD_REACTORS
330
16
102
}
330
16
100
AcDbVisualStyle
  2
2dWireframe
 70
4
177
3
291
0
 70
58
 90
2
176
1
 90
2
176
1
 90
0
176
1
 90
0
176
1
 40
0.6
176
1
 40
30.0
176
1
 62
7
420
16777215
176
1
 90
1
176
1
 90
4
176
1
 62
7
176
1
 62
257
176
1
 90
1
176
1
 90
1
176
1
 40
1.0
176
1
 90
8
176
1
 62
7
176
1
 40
1.0
176
1
 90
1
176
1
 90
6
176
1
 90
2
176
1
 62
7
176
1
 90
5
176
1
 90
0
176
1
 90
0
176
1
290
0
176
1
 90
1
176
1
 40
0.0
176
1
 90
0
176
1
290
1
176
1
290
1
176
1
290
0
176
1
290
0
176
1
290
0
176
1
290
0
176
1
290
0
176
1
290
0
176
1
290
0
176
1
 90
50
176
1
 40
0.0
176
1
 40
1.0
176
1
 90
0
176
1
 62
18
420
0
176
1
 90
50
176
1
 90
3
176
1
 62
5
420
255
176
1
290
0
176
1
 90
50
176
1
 90
50
176
1
 90
50
176
1
290
0
176
1
 90
50
176
1
 62
256
176
0
 40
1.0
176
0
 90
2
176
1
  1
strokes_ogs.tif
176
1
290
0
176
1
 40
1.0
176
1
 40
1.0
176
1
  0
VISUALSTYLE
  5
5B
102
{ACAD_REACTORS
330
16
102
}
330
16
100
AcDbVisualStyle
  2
Basic
 70
7
177
3
291
1
 70
58
 90
2
176
1
 90
2
176
1
 90
0
176
1
 90
1
176
1
 40
0.6
176
1
 40
30.0
176
1
 62
7
420
16777215
176
1
 90
1
176
1
 90
4
176
1
 62
7
176
1
 62
257
176
1
 90
1
176
1
 90
1
176
1
 40
1.0
176
1
 90
8
176
1
 62
7
176
1
 40
1.0
176
1
 90
1
176
1
 90
6
176
1
 90
2
176
1
 62
7
176
1
 90
5
176
1
 90
0
176
1
 90
0
176
1
290
0
176
1
 90
1
176
1
 40
0.0
176
1
 90
0
176
1
290
0
176
1
290
1
176
1
290
1
176
1
290
0
176
1
290
0
176
1
290
0
176
1
290
0
176
1
290
0
176
1
290
0
176
1
 90
50
176
1
 40
0.0
176
1
 40
1.0
176
1
 90
0
176
1
 62
18
420
0
176
1
 90
50
176
1
 90
3
176
1
 62
5
420
255
176
1
290
0
176
1
 90
50
176
1
 90
50
176
1
 90
50
176
1
290
0
176
1
 90
50
176
1
 62
256
176
0
 40
1.0
176
0
 90
2
176
1
  1
strokes_ogs.tif
176
1
290
0
176
1
 40
1.0
176
1
 40
1.0
176
1
  0
VISUALSTYLE
  5
5C
102
{ACAD_REACTORS
330
16
102
}
330
16
100
AcDbVisualStyle
  2
Brighten
 70
12
177
3
291
1
 70
58
 90
2
176
1
 90
2
176
1
 90
0
176
1
 90
2
176
1
 40
0.6
176
1
 40
30.0
176
1
 62
7
420
16777215
176
1
 90
1
176
1
 90
4
176
1
 62
7
176
1
 62
257
176
1
 90
1
176
1
 90
1
176
1
 40
1.0
176
1
 90
8
176
1
 62
7
176
1
 40
1.0
176
1
 90
1
176
1
 90
6
176
1
 90
2
176
1
 62
7
176
1
 90
5
176
1
 90
0
176
1
 90
0
176
1
290
0
176
1
 90
1
176
1
 40
0.0
176
1
 90
0
176
1
290
0
176
1
290
1
176
1
290
1
176
1
290
0
176
1
290
0
176
1
290
0
176
1
290
0
176
1
290
0
176
1
290
0
176
1
 90
50
176
1
 40
0.0
176
1
 40
1.0
176
1
 90
0
176
1
 62
18
420
0
176
1
 90
50
176
1
 90
3
176
1
 62
5
420
255
176
1
290
0
176
1
 90
50
176
1
 90
50
176
1
 90
50
176
1
290
0
176
1
 90
50
176
1
 62
256
176
0
 40
1.0
176
0
 90
2
176
1
  1
strokes_ogs.tif
176
1
290
0
176
1
 40
1.0
176
1
 40
1.0
176
1
  0
VISUALSTYLE
  5
5D
102
{ACAD_REACTORS
330
16
102
}
330
16
100
AcDbVisualStyle
  2
ColorChange
 70
16
177
3
291
1
 70
58
 90
2
176
1
 90
2
176
1
 90
0
176
1
 90
2
176
1
 40
0.6
176
1
 40
30.0
176
1
 62
7
420
16777215
176
1
 90
1
176
1
 90
4
176
1
 62
7
176
1
 62
257
176
1
 90
1
176
1
 90
1
176
1
 40
1.0
176
1
 90
8
176
1
 62
7
176
1
 40
1.0
176
1
 90
1
176
1
 90
6
176
1
 90
2
176
1
 62
7
176
1
 90
5
176
1
 90
0
176
1
 90
0
176
1
290
0
176
1
 90
1
176
1
 40
0.0
176
1
 90
0
176
1
290
0
176
1
290
1
176
1
290
1
176
1
290
0
176
1
290
0
176
1
290
0
176
1
290
0
176
1
290
0
176
1
290
0
176
1
 90
50
176
1
 40
0.0
176
1
 40
1.0
176
1
 90
0
176
1
 62
18
420
0
176
1
 90
50
176
1
 90
3
176
1
 62
5
420
255
176
1
290
0
176
1
 90
50
176
1
 90
50
176
1
 90
50
176
1
290
0
176
1
 90
50
176
1
 62
256
176
0
 40
1.0
176
0
 90
2
176
1
  1
strokes_ogs.tif
176
1
290
0
176
1
 40
1.0
176
1
 40
1.0
176
1
  0
VISUALSTYLE
  5
5E
102
{ACAD_REACTORS
330
16
102
}
330
16
100
AcDbVisualStyle
  2
Conceptual
 70
9
177
3
291
0
 70
58
 90
2
176
1
 90
2
176
1
 90
0
176
1
 90
3
176
1
 40
0.6
176
1
 40
30.0
176
1
 62
7
420
16777215
176
1
 90
1
176
1
 90
4
176
1
 62
7
176
1
 62
257
176
1
 90
1
176
1
 90
1
176
1
 40
1.0
176
1
 90
8
176
1
 62
7
176
1
 40
1.0
176
1
 90
1
176
1
 90
6
176
1
 90
2
176
1
 62
7
176
1
 90
5
176
1
 90
0
176
1
 90
0
176
1
290
0
176
1
 90
1
176
1
 40
0.0
176
1
 90
0
176
1
290
0
176
1
290
1
176
1
290
1
176
1
290
0
176
1
290
0
176
1
290
0
176
1
290
0
176
1
290
0
176
1
290
0
176
1
 90
50
176
1
 40
0.0
176
1
 40
1.0
176
1
 90
0
176
1
 62
18
420
0
176
1
 90
50
176
1
 90
3
176
1
 62
5
420
255
176
1
290
0
176
1
 90
50
176
1
 90
50
176
1
 90
50
176
1
290
0
176
1
 90
50
176
1
 62
256
176
0
 40
1.0
176
0
 90
2
176
1
  1
strokes_ogs.tif
176
1
290
0
176
1
 40
1.0
176
1
 40
1.0
176
1
  0
VISUALSTYLE
  5
5F
102
{ACAD_REACTORS
330
16
102
}
330
16
100
AcDbVisualStyle
  2
Dim
 70
11
177
3
291
1
 70
58
 90
2
176
1
 90
2
176
1
 90
0
176
1
 90
2
176
1
 40
0.6
176
1
 40
30.0
176
1
 62
7
420
16777215
176
1
 90
1
176
1
 90
4
176
1
 62
7
176
1
 62
257
176
1
 90
1
176
1
 90
1
176
1
 40
1.0
176
1
 90
8
176
1
 62
7
176
1
 40
1.0
176
1
 90
1
176
1
 90
6
176
1
 90
2
176
1
 62
7
176
1
 90
5
176
1
 90
0
176
1
 90
0
176
1
290
0
176
1
 90
1
176
1
 40
0.0
176
1
 90
0
176
1
290
0
176
1
290
1
176
1
290
1
176
1
290
0
176
1
290
0
176
1
290
0
176
1
290
0
176
1
290
0
176
1
290
0
176
1
 90
50
176
1
 40
0.0
176
1
 40
1.0
176
1
 90
0
176
1
 62
18
420
0
176
1
 90
50
176
1
 90
3
176
1
 62
5
420
255
176
1
290
0
176
1
 90
50
176
1
 90
50
176
1
 90
50
176
1
290
0
176
1
 90
50
176
1
 62
256
176
0
 40
1.0
176
0
 90
2
176
1
  1
strokes_ogs.tif
176
1
290
0
176
1
 40
1.0
176
1
 40
1.0
176
1
  0
VISUALSTYLE
  5
60
102
{ACAD_REACTORS
330
16
102
}
330
16
100
AcDbVisualStyle
  2
EdgeColorOff
 70
22
177
3
291
1
 70
58
 90
2
176
1
 90
2
176
1
 90
0
176
1
 90
2
176
1
 40
0.6
176
1
 40
30.0
176
1
 62
7
420
16777215
176
1
 90
1
176
1
 90
4
176
1
 62
7
176
1
 62
257
176
1
 90
1
176
1
 90
1
176
1
 40
1.0
176
1
 90
8
176
1
 62
7
176
1
 40
1.0
176
1
 90
1
176
1
 90
6
176
1
 90
2
176
1
 62
7
176
1
 90
5
176
1
 90
0
176
1
 90
0
176
1
290
0
176
1
 90
1
176
1
 40
0.0
176
1
 90
0
176
1
290
0
176
1
290
1
176
1
290
1
176
1
290
0
176
1
290
0
176
1
290
0
176
1
290
0
176
1
290
0
176
1
290
0
176
1
 90
50
176
1
 40
0.0
176
1
 40
1.0
176
1
 90
0
176
1
 62
18
420
0
176
1
 90
50
176
1
 90
3
176
1
 62
5
420
255
176
1
290
0
176
1
 90
50
176
1
 90
50
176
1
 90
50
176
1
290
0
176
1
 90
50
176
1
 62
256
176
0
 40
1.0
176
0
 90
2
176
1
  1
strokes_ogs.tif
176
1
290
0
176
1
 40
1.0
176
1
 40
1.0
176
1
  0
VISUALSTYLE
  5
61
102
{ACAD_REACTORS
330
16
102
}
330
16
100
AcDbVisualStyle
  2
Facepattern
 70
15
177
3
291
1
 70
58
 90
2
176
1
 90
2
176
1
 90
0
176
1
 90
2
176
1
 40
0.6
176
1
 40
30.0
176
1
 62
7
420
16777215
176
1
 90
1
176
1
 90
4
176
1
 62
7
176
1
 62
257
176
1
 90
1
176
1
 90
1
176
1
 40
1.0
176
1
 90
8
176
1
 62
7
176
1
 40
1.0
176
1
 90
1
176
1
 90
6
176
1
 90
2
176
1
 62
7
176
1
 90
5
176
1
 90
0
176
1
 90
0
176
1
290
0
176
1
 90
1
176
1
 40
0.0
176
1
 90
0
176
1
290
0
176
1
290
1
176
1
290
1
176
1
290
0
176
1
290
0
176
1
290
0
176
1
290
0
176
1
290
0
176
1
290
0
176
1
 90
50
176
1
 40
0.0
176
1
 40
1.0
176
1
 90
0
176
1
 62
18
420
0
176
1
 90
50
176
1
 90
3
176
1
 62
5
420
255
176
1
290
0
176
1
 90
50
176
1
 90
50
176
1
 90
50
176
1
290
0
176
1
 90
50
176
1
 62
256
176
0
 40
1.0
176
0
 90
2
176
1
  1
strokes_ogs.tif
176
1
290
0
176
1
 40
1.0
176
1
 40
1.0
176
1
  0
VISUALSTYLE
  5
62
102
{ACAD_REACTORS
330
16
102
}
330
16
100
AcDbVisualStyle
  2
Flat
 70
0
177
3
291
1
 70
58
 90
2
176
1
 90
2
176
1
 90
0
176
1
 90
2
176
1
 40
0.6
176
1
 40
30.0
176
1
 62
7
420
16777215
176
1
 90
1
176
1
 90
4
176
1
 62
7
176
1
 62
257
176
1
 90
1
176
1
 90
1
176
1
 40
1.0
176
1
 90
8
176
1
 62
7
176
1
 40
1.0
176
1
 90
1
176
1
 90
6
176
1
 90
2
176
1
 62
7
176
1
 90
5
176
1
 90
0
176
1
 90
0
176
1
290
0
176
1
 90
1
176
1
 40
0.0
176
1
 90
0
176
1
290
0
176
1
290
1
176
1
290
1
176
1
290
0
176
1
290
0
176
1
290
0
176
1
290
0
176
1
290
0
176
1
290
0
176
1
 90
50
176
1
 40
0.0
176
1
 40
1.0
176
1
 90
0
176
1
 62
18
420
0
176
1
 90
50
176
1
 90
3
176
1
 62
5
420
255
176
1
290
0
176
1
 90
50
176
1
 90
50
176
1
 90
50
176
1
290
0
176
1
 90
50
176
1
 62
256
176
0
 40
1.0
176
0
 90
2
176
1
  1
strokes_ogs.tif
176
1
290
0
176
1
 40
1.0
176
1
 40
1.0
176
1
  0
VISUALSTYLE
  5
63
102
{ACAD_REACTORS
330
16
102
}
330
16
100
AcDbVisualStyle
  2
FlatWithEdges
 70
1
177
3
291
1
 70
58
 90
2
176
1
 90
2
176
1
 90
0
176
1
 90
2
176
1
 40
0.6
176
1
 40
30.0
176
1
 62
7
420
16777215
176
1
 90
1
176
1
 90
4
176
1
 62
7
176
1
 62
257
176
1
 90
1
176
1
 90
1
176
1
 40
1.0
176
1
 90
8
176
1
 62
7
176
1
 40
1.0
176
1
 90
1
176
1
 90
6
176
1
 90
2
176
1
 62
7
176
1
 90
5
176
1
 90
0
176
1
 90
0
176
1
290
0
176
1
 90
1
176
1
 40
0.0
176
1
 90
0
176
1
290
0
176
1
290
1
176
1
290
1
176
1
290
0
176
1
290
0
176
1
290
0
176
1
290
0
176
1
290
0
176
1
290
0
176
1
 90
50
176
1
 40
0.0
176
1
 40
1.0
176
1
 90
0
176
1
 62
18
420
0
176
1
 90
50
176
1
 90
3
176
1
 62
5
420
255
176
1
290
0
176
1
 90
50
176
1
 90
50
176
1
 90
50
176
1
290
0
176
1
 90
50
176
1
 62
256
176
0
 40
1.0
176
0
 90
2
176
1
  1
strokes_ogs.tif
176
1
290
0
176
1
 40
1.0
176
1
 40
1.0
176
1
  0
VISUALSTYLE
  5
64
102
{ACAD_REACTORS
330
16
102
}
330
16
100
AcDbVisualStyle
  2
Gouraud
 70
2
177
3
291
1
 70
58
 90
2
176
1
 90
2
176
1
 90
0
176
1
 90
2
176
1
 40
0.6
176
1
 40
30.0
176
1
 62
7
420
16777215
176
1
 90
1
176
1
 90
4
176
1
 62
7
176
1
 62
257
176
1
 90
1
176
1
 90
1
176
1
 40
1.0
176
1
 90
8
176
1
 62
7
176
1
 40
1.0
176
1
 90
1
176
1
 90
6
176
1
 90
2
176
1
 62
7
176
1
 90
5
176
1
 90
0
176
1
 90
0
176
1
290
0
176
1
 90
1
176
1
 40
0.0
176
1
 90
0
176
1
290
0
176
1
290
1
176
1
290
1
176
1
290
0
176
1
290
0
176
1
290
0
176
1
290
0
176
1
290
0
176
1
290
0
176
1
 90
50
176
1
 40
0.0
176
1
 40
1.0
176
1
 90
0
176
1
 62
18
420
0
176
1
 90
50
176
1
 90
3
176
1
 62
5
420
255
176
1
290
0
176
1
 90
50
176
1
 90
50
176
1
 90
50
176
1
290
0
176
1
 90
50
176
1
 62
256
176
0
 40
1.0
176
0
 90
2
176
1
  1
strokes_ogs.tif
176
1
290
0
176
1
 40
1.0
176
1
 40
1.0
176
1
  0
VISUALSTYLE
  5
65
102
{ACAD_REACTORS
330
16
102
}
330
16
100
AcDbVisualStyle
  2
GouraudWithEdges
 70
3
177
3
291
1
 70
58
 90
2
176
1
 90
2
176
1
 90
0
176
1
 90
2
176
1
 40
0.6
176
1
 40
30.0
176
1
 62
7
420
16777215
176
1
 90
1
176
1
 90
4
176
1
 62
7
176
1
 62
257
176
1
 90
1
176
1
 90
1
176
1
 40
1.0
176
1
 90
8
176
1
 62
7
176
1
 40
1.0
176
1
 90
1
176
1
 90
6
176
1
 90
2
176
1
 62
7
176
1
 90
5
176
1
 90
0
176
1
 90
0
176
1
290
0
176
1
 90
1
176
1
 40
0.0
176
1
 90
0
176
1
290
0
176
1
290
1
176
1
290
1
176
1
290
0
176
1
290
0
176
1
290
0
176
1
290
0
176
1
290
0
176
1
290
0
176
1
 90
50
176
1
 40
0.0
176
1
 40
1.0
176
1
 90
0
176
1
 62
18
420
0
176
1
 90
50
176
1
 90
3
176
1
 62
5
420
255
176
1
290
0
176
1
 90
50
176
1
 90
50
176
1
 90
50
176
1
290
0
176
1
 90
50
176
1
 62
256
176
0
 40
1.0
176
0
 90
2
176
1
  1
strokes_ogs.tif
176
1
290
0
176
1
 40
1.0
176
1
 40
1.0
176
1
  0
VISUALSTYLE
  5
66
102
{ACAD_REACTORS
330
16
102
}
330
16
100
AcDbVisualStyle
  2
Hidden
 70
6
177
3
291
0
 70
58
 90
2
176
1
 90
2
176
1
 90
0
176
1
 90
1
176
1
 40
0.6
176
1
 40
30.0
176
1
 62
7
420
16777215
176
1
 90
1
176
1
 90
4
176
1
 62
7
176
1
 62
257
176
1
 90
1
176
1
 90
1
176
1
 40
1.0
176
1
 90
8
176
1
 62
7
176
1
 40
1.0
176
1
 90
1
176
1
 90
6
176
1
 90
2
176
1
 62
7
176
1
 90
5
176
1
 90
0
176
1
 90
0
176
1
290
0
176
1
 90
1
176
1
 40
0.0
176
1
 90
0
176
1
290
0
176
1
290
1
176
1
290
1
176
1
290
0
176
1
290
0
176
1
290
0
176
1
290
0
176
1
290
0
176
1
290
0
176
1
 90
50
176
1
 40
0.0
176
1
 40
1.0
176
1
 90
0
176
1
 62
18
420
0
176
1
 90
50
176
1
 90
3
176
1
 62
5
420
255
176
1
290
0
176
1
 90
50
176
1
 90
50
176
1
 90
50
176
1
290
0
176
1
 90
50
176
1
 62
256
176
0
 40
1.0
176
0
 90
2
176
1
  1
strokes_ogs.tif
176
1
290
0
176
1
 40
1.0
176
1
 40
1.0
176
1
  0
VISUALSTYLE
  5
67
102
{ACAD_REACTORS
330
16
102
}
330
16
100
AcDbVisualStyle
  2
JitterOff
 70
20
177
3
291
1
 70
58
 90
2
176
1
 90
2
176
1
 90
0
176
1
 90
2
176
1
 40
0.6
176
1
 40
30.0
176
1
 62
7
420
16777215
176
1
 90
1
176
1
 90
4
176
1
 62
7
176
1
 62
257
176
1
 90
1
176
1
 90
1
176
1
 40
1.0
176
1
 90
8
176
1
 62
7
176
1
 40
1.0
176
1
 90
1
176
1
 90
6
176
1
 90
2
176
1
 62
7
176
1
 90
5
176
1
 90
0
176
1
 90
0
176
1
290
0
176
1
 90
1
176
1
 40
0.0
176
1
 90
0
176
1
290
0
176
1
290
1
176
1
290
1
176
1
290
0
176
1
290
0
176
1
290
0
176
1
290
0
176
1
290
0
176
1
290
0
176
1
 90
50
176
1
 40
0.0
176
1
 40
1.0
176
1
 90
0
176
1
 62
18
420
0
176
1
 90
50
176
1
 90
3
176
1
 62
5
420
255
176
1
290
0
176
1
 90
50
176
1
 90
50
176
1
 90
50
176
1
290
0
176
1
 90
50
176
1
 62
256
176
0
 40
1.0
176
0
 90
2
176
1
  1
strokes_ogs.tif
176
1
290
0
176
1
 40
1.0
176
1
 40
1.0
176
1
  0
VISUALSTYLE
  5
68
102
{ACAD_REACTORS
330
16
102
}
330
16
100
AcDbVisualStyle
  2
Linepattern
 70
14
177
3
291
1
 70
58
 90
2
176
1
 90
2
176
1
 90
0
176
1
 90
2
176
1
 40
0.6
176
1
 40
30.0
176
1
 62
7
420
16777215
176
1
 90
1
176
1
 90
4
176
1
 62
7
176
1
 62
257
176
1
 90
1
176
1
 90
1
176
1
 40
1.0
176
1
 90
8
176
1
 62
7
176
1
 40
1.0
176
1
 90
1
176
1
 90
6
176
1
 90
2
176
1
 62
7
176
1
 90
5
176
1
 90
0
176
1
 90
0
176
1
290
0
176
1
 90
1
176
1
 40
0.0
176
1
 90
0
176
1
290
0
176
1
290
1
176
1
290
1
176
1
290
0
176
1
290
0
176
1
290
0
176
1
290
0
176
1
290
0
176
1
290
0
176
1
 90
50
176
1
 40
0.0
176
1
 40
1.0
176
1
 90
0
176
1
 62
18
420
0
176
1
 90
50
176
1
 90
3
176
1
 62
5
420
255
176
1
290
0
176
1
 90
50
176
1
 90
50
176
1
 90
50
176
1
290
0
176
1
 90
50
176
1
 62
256
176
0
 40
1.0
176
0
 90
2
176
1
  1
strokes_ogs.tif
176
1
290
0
176
1
 40
1.0
176
1
 40
1.0
176
1
  0
VISUALSTYLE
  5
69
102
{ACAD_REACTORS
330
16
102
}
330
16
100
AcDbVisualStyle
  2
Modeling
 70
10
177
3
291
0
 70
58
 90
2
176
1
 90
2
176
1
 90
0
176
1
 90
2
176
1
 40
0.6
176
1
 40
30.0
176
1
 62
7
420
16777215
176
1
 90
1
176
1
 90
4
176
1
 62
7
176
1
 62
257
176
1
 90
1
176
1
 90
1
176
1
 40
1.0
176
1
 90
8
176
1
 62
7
176
1
 40
1.0
176
1
 90
1
176
1
 90
6
176
1
 90
2
176
1
 62
7
176
1
 90
5
176
1
 90
0
176
1
 90
0
176
1
290
0
176
1
 90
1
176
1
 40
0.0
176
1
 90
0
176
1
290
0
176
1
290
1
176
1
290
1
176
1
290
0
176
1
290
0
176
1
290
0
176
1
290
0
176
1
290
0
176
1
290
0
176
1
 90
50
176
1
 40
0.0
176
1
 40
1.0
176
1
 90
0
176
1
 62
18
420
0
176
1
 90
50
176
1
 90
3
176
1
 62
5
420
255
176
1
290
0
176
1
 90
50
176
1
 90
50
176
1
 90
50
176
1
290
0
176
1
 90
50
176
1
 62
256
176
0
 40
1.0
176
0
 90
2
176
1
  1
strokes_ogs.tif
176
1
290
0
176
1
 40
1.0
176
1
 40
1.0
176
1
  0
VISUALSTYLE
  5
6A
102
{ACAD_REACTORS
330
16
102
}
330
16
100
AcDbVisualStyle
  2
OverhangOff
 70
21
177
3
291
1
 70
58
 90
2
176
1
 90
2
176
1
 90
0
176
1
 90
2
176
1
 40
0.6
176
1
 40
30.0
176
1
 62
7
420
16777215
176
1
 90
1
176
1
 90
4
176
1
 62
7
176
1
 62
257
176
1
 90
1
176
1
 90
1
176
1
 40
1.0
176
1
 90
8
176
1
 62
7
176
1
 40
1.0
176
1
 90
1
176
1
 90
6
176
1
 90
2
176
1
 62
7
176
1
 90
5
176
1
 90
0
176
1
 90
0
176
1
290
0
176
1
 90
1
176
1
 40
0.0
176
1
 90
0
176
1
290
0
176
1
290
1
176
1
290
1
176
1
290
0
176
1
290
0
176
1
290
0
176
1
290
0
176
1
290
0
176
1
290
0
176
1
 90
50
176
1
 40
0.0
176
1
 40
1.0
176
1
 90
0
176
1
 62
18
420
0
176
1
 90
50
176
1
 90
3
176
1
 62
5
420
255
176
1
290
0
176
1
 90
50
176
1
 90
50
176
1
 90
50
176
1
290
0
176
1
 90
50
176
1
 62
256
176
0
 40
1.0
176
0
 90
2
176
1
  1
strokes_ogs.tif
176
1
290
0
176
1
 40
1.0
176
1
 40
1.0
176
1
  0
VISUALSTYLE
  5
6B
102
{ACAD_REACTORS
330
16
102
}
330
16
100
AcDbVisualStyle
  2
Realistic
 70
8
177
3
291
0
 70
58
 90
2
176
1
 90
2
176
1
 90
0
176
1
 90
2
176
1
 40
0.6
176
1
 40
30.0
176
1
 62
7
420
16777215
176
1
 90
1
176
1
 90
4
176
1
 62
7
176
1
 62
257
176
1
 90
1
176
1
 90
1
176
1
 40
1.0
176
1
 90
8
176
1
 62
7
176
1
 40
1.0
176
1
 90
1
176
1
 90
6
176
1
 90
2
176
1
 62
7
176
1
 90
5
176
1
 90
0
176
1
 90
0
176
1
290
0
176
1
 90
1
176
1
 40
0.0
176
1
 90
0
176
1
290
0
176
1
290
1
176
1
290
1
176
1
290
0
176
1
290
0
176
1
290
0
176
1
290
0
176
1
290
0
176
1
290
0
176
1
 90
50
176
1
 40
0.0
176
1
 40
1.0
176
1
 90
0
176
1
 62
18
420
0
176
1
 90
50
176
1
 90
3
176
1
 62
5
420
255
176
1
290
0
176
1
 90
50
176
1
 90
50
176
1
 90
50
176
1
290
0
176
1
 90
50
176
1
 62
256
176
0
 40
1.0
176
0
 90
2
176
1
  1
strokes_ogs.tif
176
1
290
0
176
1
 40
1.0
176
1
 40
1.0
176
1
  0
VISUALSTYLE
  5
6C
102
{ACAD_REACTORS
330
16
102
}
330
16
100
AcDbVisualStyle
  2
Shaded
 70
27
177
3
291
0
 70
58
 90
2
176
1
 90
2
176
1
 90
0
176
1
 90
2
176
1
 40
0.6
176
1
 40
30.0
176
1
 62
7
420
16777215
176
1
 90
1
176
1
 90
4
176
1
 62
7
176
1
 62
257
176
1
 90
1
176
1
 90
1
176
1
 40
1.0
176
1
 90
8
176
1
 62
7
176
1
 40
1.0
176
1
 90
1
176
1
 90
6
176
1
 90
2
176
1
 62
7
176
1
 90
5
176
1
 90
0
176
1
 90
0
176
1
290
0
176
1
 90
1
176
1
 40
0.0
176
1
 90
0
176
1
290
0
176
1
290
1
176
1
290
1
176
1
290
0
176
1
290
0
176
1
290
0
176
1
290
0
176
1
290
0
176
1
290
0
176
1
 90
50
176
1
 40
0.0
176
1
 40
1.0
176
1
 90
0
176
1
 62
18
420
0
176
1
 90
50
176
1
 90
3
176
1
 62
5
420
255
176
1
290
0
176
1
 90
50
176
1
 90
50
176
1
 90
50
176
1
290
0
176
1
 90
50
176
1
 62
256
176
0
 40
1.0
176
0
 90
2
176
1
  1
strokes_ogs.tif
176
1
290
0
176
1
 40
1.0
176
1
 40
1.0
176
1
  0
VISUALSTYLE
  5
6D
102
{ACAD_REACTORS
330
16
102
}
330
16
100
AcDbVisualStyle
  2
Shaded with edges
 70
26
177
3
291
0
 70
58
 90
2
176
1
 90
2
176
1
 90
0
176
1
 90
2
176
1
 40
0.6
176
1
 40
30.0
176
1
 62
7
420
16777215
176
1
 90
1
176
1
 90
4
176
1
 62
7
176
1
 62
257
176
1
 90
1
176
1
 90
1
176
1
 40
1.0
176
1
 90
8
176
1
 62
7
176
1
 40
1.0
176
1
 90
1
176
1
 90
6
176
1
 90
2
176
1
 62
7
176
1
 90
5
176
1
 90
0
176
1
 90
0
176
1
290
0
176
1
 90
1
176
1
 40
0.0
176
1
 90
0
176
1
290
0
176
1
290
1
176
1
290
1
176
1
290
0
176
1
290
0
176
1
290
0
176
1
290
0
176
1
290
0
176
1
290
0
176
1
 90
50
176
1
 40
0.0
176
1
 40
1.0
176
1
 90
0
176
1
 62
18
420
0
176
1
 90
50
176
1
 90
3
176
1
 62
5
420
255
176
1
290
0
176
1
 90
50
176
1
 90
50
176
1
 90
50
176
1
290
0
176
1
 90
50
176
1
 62
256
176
0
 40
1.0
176
0
 90
2
176
1
  1
strokes_ogs.tif
176
1
290
0
176
1
 40
1.0
176
1
 40
1.0
176
1
  0
VISUALSTYLE
  5
6E
102
{ACAD_REACTORS
330
16
102
}
330
16
100
AcDbVisualStyle
  2
Shades of Gray
 70
23
177
3
291
0
 70
58
 90
2
176
1
 90
2
176
1
 90
0
176
1
 90
2
176
1
 40
0.6
176
1
 40
30.0
176
1
 62
7
420
16777215
176
1
 90
1
176
1
 90
4
176
1
 62
7
176
1
 62
257
176
1
 90
1
176
1
 90
1
176
1
 40
1.0
176
1
 90
8
176
1
 62
7
176
1
 40
1.0
176
1
 90
1
176
1
 90
6
176
1
 90
2
176
1
 62
7
176
1
 90
5
176
1
 90
0
176
1
 90
0
176
1
290
0
176
1
 90
1
176
1
 40
0.0
176
1
 90
0
176
1
290
0
176
1
290
1
176
1
290
1
176
1
290
0
176
1
290
0
176
1
290
0
176
1
290
0
176
1
290
0
176
1
290
0
176
1
 90
50
176
1
 40
0.0
176
1
 40
1.0
176
1
 90
0
176
1
 62
18
420
0
176
1
 90
50
176
1
 90
3
176
1
 62
5
420
255
176
1
290
0
176
1
 90
50
176
1
 90
50
176
1
 90
50
176
1
290
0
176
1
 90
50
176
1
 62
256
176
0
 40
1.0
176
0
 90
2
176
1
  1
strokes_ogs.tif
176
1
290
0
176
1
 40
1.0
176
1
 40
1.0
176
1
  0
VISUALSTYLE
  5
6F
102
{ACAD_REACTORS
330
16
102
}
330
16
100
AcDbVisualStyle
  2
Sketchy
 70
24
177
3
291
0
 70
58
 90
2
176
1
 90
2
176
1
 90
0
176
1
 90
1
176
1
 40
0.6
176
1
 40
30.0
176
1
 62
7
420
16777215
176
1
 90
1
176
1
 90
4
176
1
 62
7
176
1
 62
257
176
1
 90
1
176
1
 90
1
176
1
 40
1.0
176
1
 90
8
176
1
 62
7
176
1
 40
1.0
176
1
 90
1
176
1
 90
6
176
1
 90
2
176
1
 62
7
176
1
 90
5
176
1
 90
0
176
1
 90
0
176
1
290
0
176
1
 90
1
176
1
 40
0.0
176
1
 90
0
176
1
290
0
176
1
290
1
176
1
290
1
176
1
290
0
176
1
290
0
176
1
290
0
176
1
290
0
176
1
290
0
176
1
290
0
176
1
 90
50
176
1
 40
0.0
176
1
 40
1.0
176
1
 90
0
176
1
 62
18
420
0
176
1
 90
50
176
1
 90
3
176
1
 62
5
420
255
176
1
290
0
176
1
 90
50
176
1
 90
50
176
1
 90
50
176
1
290
0
176
1
 90
50
176
1
 62
256
176
0
 40
1.0
176
0
 90
2
176
1
  1
strokes_ogs.tif
176
1
290
0
176
1
 40
1.0
176
1
 40
1.0
176
1
  0
VISUALSTYLE
  5
70
102
{ACAD_REACTORS
330
16
102
}
330
16
100
AcDbVisualStyle
  2
Thicken
 70
13
177
3
291
1
 70
58
 90
2
176
1
 90
2
176
1
 90
0
176
1
 90
2
176
1
 40
0.6
176
1
 40
30.0
176
1
 62
7
420
16777215
176
1
 90
1
176
1
 90
4
176
1
 62
7
176
1
 62
257
176
1
 90
1
176
1
 90
1
176
1
 40
1.0
176
1
 90
8
176
1
 62
7
176
1
 40
1.0
176
1
 90
1
176
1
 90
6
176
1
 90
2
176
1
 62
7
176
1
 90
5
176
1
 90
0
176
1
 90
0
176
1
290
0
176
1
 90
1
176
1
 40
0.0
176
1
 90
0
176
1
290
0
176
1
290
1
176
1
290
1
176
1
290
0
176
1
290
0
176
1
290
0
176
1
290
0
176
1
290
0
176
1
290
0
176
1
 90
50
176
1
 40
0.0
176
1
 40
1.0
176
1
 90
0
176
1
 62
18
420
0
176
1
 90
50
176
1
 90
3
176
1
 62
5
420
255
176
1
290
0
176
1
 90
50
176
1
 90
50
176
1
 90
50
176
1
290
0
176
1
 90
50
176
1
 62
256
176
0
 40
1.0
176
0
 90
2
176
1
  1
strokes_ogs.tif
176
1
290
0
176
1
 40
1.0
176
1
 40
1.0
176
1
  0
VISUALSTYLE
  5
71
102
{ACAD_REACTORS
330
16
102
}
330
16
100
AcDbVisualStyle
  2
Wireframe
 70
5
177
3
291
0
 70
58
 90
2
176
1
 90
2
176
1
 90
0
176
1
 90
0
176
1
 40
0.6
176
1
 40
30.0
176
1
 62
7
420
16777215
176
1
 90
1
176
1
 90
4
176
1
 62
7
176
1
 62
257
176
1
 90
1
176
1
 90
1
176
1
 40
1.0
176
1
 90
8
176
1
 62
7
176
1
 40
1.0
176
1
 90
1
176
1
 90
6
176
1
 90
2
176
1
 62
7
176
1
 90
5
176
1
 90
0
176
1
 90
0
176
1
290
0
176
1
 90
1
176
1
 40
0.0
176
1
 90
0
176
1
290
0
176
1
290
1
176
1
290
1
176
1
290
0
176
1
290
0
176
1
290
0
176
1
290
0
176
1
290
0
176
1
290
0
176
1
 90
50
176
1
 40
0.0
176
1
 40
1.0
176
1
 90
0
176
1
 62
18
420
0
176
1
 90
50
176
1
 90
3
176
1
 62
5
420
255
176
1
290
0
176
1
 90
50
176
1
 90
50
176
1
 90
50
176
1
290
0
176
1
 90
50
176
1
 62
256
176
0
 40
1.0
176
0
 90
2
176
1
  1
strokes_ogs.tif
176
1
290
0
176
1
 40
1.0
176
1
 40
1.0
176
1
  0
VISUALSTYLE
  5
72
102
{ACAD_REACTORS
330
16
102
}
330
16
100
AcDbVisualStyle
  2
X-Ray
 70
25
177
3
291
0
 70
58
 90
2
176
1
 90
2
176
1
 90
0
176
1
 90
2
176
1
 40
0.5
176
1
 40
30.0
176
1
 62
7
420
16777215
176
1
 90
1
176
1
 90
4
176
1
 62
7
176
1
 62
257
176
1
 90
1
176
1
 90
1
176
1
 40
1.0
176
1
 90
8
176
1
 62
7
176
1
 40
1.0
176
1
 90
1
176
1
 90
6
176
1
 90
2
176
1
 62
7
176
1
 90
5
176
1
 90
0
176
1
 90
0
176
1
290
0
176
1
 90
1
176
1
 40
0.0
176
1
 90
0
176
1
290
0
176
1
290
1
176
1
290
1
176
1
290
0
176
1
290
0
176
1
290
0
176
1
290
0
176
1
290
0
176
1
290
0
176
1
 90
50
176
1
 40
0.0
176
1
 40
1.0
176
1
 90
0
176
1
 62
18
420
0
176
1
 90
50
176
1
 90
3
176
1
 62
5
420
255
176
1
290
0
176
1
 90
50
176
1
 90
50
176
1
 90
50
176
1
290
0
176
1
 90
50
176
1
 62
256
176
0
 40
1.0
176
0
 90
2
176
1
  1
strokes_ogs.tif
176
1
290
0
176
1
 40
1.0
176
1
 40
1.0
176
1
  0
DICTIONARYVAR
  5
8F
330
2D
100
DictionaryVariables
280
0
  1
1.4.3 @ 2026-02-09T05:09:14.048645+00:00
  0
ENDSEC
  0
EOF
