  0
SECTION
  2
HEADER
  9
$ACADVER
  1
AC1027
  9
$ACADMAINTVER
 70
105
  9
$DWGCODEPAGE
  3
ANSI_1252
  9
$LASTSAVEDBY
  1
ezdxf
  9
$REQUIREDVERSIONS
160
0
  9
$INSBASE
 10
0.0
 20
0.0
 30
0.0
  9
$EXTMIN
 10
1e+20
 20
1e+20
 30
1e+20
  9
$EXTMAX
 10
-1e+20
 20
-1e+20
 30
-1e+20
  9
$LIMMIN
 10
0.0
 20
0.0
  9
$LIMMAX
 10
420.0
 20
297.0
  9
$ORTHOMODE
 70
0
  9
$REGENMODE
 70
1
  9
$FILLMODE
 70
1
  9
$QTEXTMODE
 70
0
  9
$MIRRTEXT
 70
1
  9
$LTSCALE
 40
1.0
  9
$ATTMODE
 70
1
  9
$TEXTSIZE
 40
2.5
  9
$TRACEWID
 40
1.0
  9
$TEXTSTYLE
  7
OpenSans
  9
$CLAYER
  8
0
  9
$CELTYPE
  6
ByLayer
  9
$CECOLOR
 62
256
  9
$CELTSCALE
 40
1.0
  9
$DISPSILH
 70
0
  9
$DIMSCALE
 40
1.0
  9
$DIMASZ
 40
0.175
  9
$DIMEXO
 40
0.125
  9
$DIMDLI
 40
3.75
  9
$DIMRND
 40
0.0
  9
$DIMDLE
 40
0.0
  9
$DIMEXE
 40
0.375
  9
$DIMTP
 40
0.0
  9
$DIMTM
 40
0.0
  9
$DIMTXT
 40
0.25
  9
$DIMCEN
 40
2.5
  9
$DIMTSZ
 40
0.0
  9
$DIMTOL
 70
0
  9
$DIMLIM
 70
0
  9
$DIMTIH
 70
0
  9
$DIMTOH
 70
0
  9
$DIMSE1
 70
0
  9
$DIMSE2
 70
0
  9
$DIMTAD
 70
1
  9
$DIMZIN
 70
12
  9
$DIMBLK
  1
ARCHTICK
  9
$DIMASO
 70
1
  9
$DIMSHO
 70
1
  9
$DIMPOST
  1

  9
$DIMAPOST
  1

  9
$DIMALT
 70
0
  9
$DIMALTD
 70
3
  9
$DIMALTF
 40
0.03937007874
  9
$DIMLFAC
 40
100.0
  9
$DIMTOFL
 70
1
  9
$DIMTVP
 40
0.0
  9
$DIMTIX
 70
0
  9
$DIMSOXD
 70
0
  9
$DIMSAH
 70
0
  9
$DIMBLK1
  1

  9
$DIMBLK2
  1

  9
$DIMSTYLE
  2
EZDXF
  9
$DIMCLRD
 70
0
  9
$DIMCLRE
 70
0
  9
$DIMCLRT
 70
0
  9
$DIMTFAC
 40
0.5
  9
$DIMGAP
 40
0.1
  9
$DIMJUST
 70
0
  9
$DIMSD1
 70
0
  9
$DIMSD2
 70
0
  9
$DIMTOLJ
 70
0
  9
$DIMTZIN
 70
8
  9
$DIMALTZ
 70
0
  9
$DIMALTTZ
 70
0
  9
$DIMUPT
 70
1
  9
$DIMDEC
 70
2
  9
$DIMTDEC
 70
2
  9
$DIMALTU
 70
2
  9
$DIMALTTD
 70
3
  9
$DIMTXSTY
  7
OpenSansCondensed-Light
  9
$DIMAUNIT
 70
0
  9
$DIMADEC
 70
2
  9
$DIMALTRND
 40
0.0
  9
$DIMAZIN
 70
3
  9
$DIMDSEP
 70
46
  9
$DIMATFIT
 70
3
  9
$DIMFRAC
 70
0
  9
$DIMLDRBLK
  1

  9
$DIMLUNIT
 70
2
  9
$DIMLWD
 70
-2
  9
$DIMLWE
 70
-2
  9
$DIMTMOVE
 70
2
  9
$DIMFXL
 40
1.0
  9
$DIMFXLON
 70
0
  9
$DIMJOGANG
 40
0.785398163397
  9
$DIMTFILL
 70
0
  9
$DIMTFILLCLR
 70
0
  9
$DIMARCSYM
 70
0
  9
$DIMLTYPE
  6

  9
$DIMLTEX1
  6

  9
$DIMLTEX2
  6

  9
$DIMTXTDIRECTION
 70
0
  9
$LUNITS
 70
2
  9
$LUPREC
 70
4
  9
$SKETCHINC
 40
1.0
  9
$FILLETRAD
 40
10.0
  9
$AUNITS
 70
0
  9
$AUPREC
 70
2
  9
$MENU
  1
.
  9
$ELEVATION
 40
0.0
  9
$PELEVATION
 40
0.0
  9
$THICKNESS
 40
0.0
  9
$LIMCHECK
 70
0
  9
$CHAMFERA
 40
0.0
  9
$CHAMFERB
 40
0.0
  9
$CHAMFERC
 40
0.0
  9
$CHAMFERD
 40
0.0
  9
$SKPOLY
 70
0
  9
$TDCREATE
 40
2461000.654386574
  9
$TDUCREATE
 40
2458532.153996898
  9
$TDUPDATE
 40
2461000.654386574
  9
$TDUUPDATE
 40
2458532.1544311
  9
$TDINDWG
 40
0.0
  9
$TDUSRTIMER
 40
0.0
  9
$USRTIMER
 70
1
  9
$ANGBASE
 50
0.0
  9
$ANGDIR
 70
0
  9
$PDMODE
 70
0
  9
$PDSIZE
 40
0.0
  9
$PLINEWID
 40
0.0
  9
$SPLFRAME
 70
0
  9
$SPLINETYPE
 70
6
  9
$SPLINESEGS
 70
8
  9
$HANDSEED
  5
90
  9
$SURFTAB1
 70
6
  9
$SURFTAB2
 70
6
  9
$SURFTYPE
 70
6
  9
$SURFU
 70
6
  9
$SURFV
 70
6
  9
$UCSBASE
  2

  9
$UCSNAME
  2

  9
$UCSORG
 10
0.0
 20
0.0
 30
0.0
  9
$UCSXDIR
 10
1.0
 20
0.0
 30
0.0
  9
$UCSYDIR
 10
0.0
 20
1.0
 30
0.0
  9
$UCSORTHOREF
  2

  9
$UCSORTHOVIEW
 70
0
  9
$UCSORGTOP
 10
0.0
 20
0.0
 30
0.0
  9
$UCSORGBOTTOM
 10
0.0
 20
0.0
 30
0.0
  9
$UCSORGLEFT
 10
0.0
 20
0.0
 30
0.0
  9
$UCSORGRIGHT
 10
0.0
 20
0.0
 30
0.0
  9
$UCSORGFRONT
 10
0.0
 20
0.0
 30
0.0
  9
$UCSORGBACK
 10
0.0
 20
0.0
 30
0.0
  9
$PUCSBASE
  2

  9
$PUCSNAME
  2

  9
$PUCSORG
 10
0.0
 20
0.0
 30
0.0
  9
$PUCSXDIR
 10
1.0
 20
0.0
 30
0.0
  9
$PUCSYDIR
 10
0.0
 20
1.0
 30
0.0
  9
$PUCSORTHOREF
  2

  9
$PUCSORTHOVIEW
 70
0
  9
$PUCSORGTOP
 10
0.0
 20
0.0
 30
0.0
  9
$PUCSORGBOTTOM
 10
0.0
 20
0.0
 30
0.0
  9
$PUCSORGLEFT
 10
0.0
 20
0.0
 30
0.0
  9
$PUCSORGRIGHT
 10
0.0
 20
0.0
 30
0.0
  9
$PUCSORGFRONT
 10
0.0
 20
0.0
 30
0.0
  9
$PUCSORGBACK
 10
0.0
 20
0.0
 30
0.0
  9
$USERI1
 70
0
  9
$USERI2
 70
0
  9
$USERI3
 70
0
  9
$USERI4
 70
0
  9
$USERI5
 70
0
  9
$USERR1
 40
0.0
  9
$USERR2
 40
0.0
  9
$USERR3
 40
0.0
  9
$USERR4
 40
0.0
  9
$USERR5
 40
0.0
  9
$WORLDVIEW
 70
1
  9
$SHADEDGE
 70
3
  9
$SHADEDIF
 70
70
  9
$TILEMODE
 70
1
  9
$MAXACTVP
 70
64
  9
$PINSBASE
 10
0.0
 20
0.0
 30
0.0
  9
$PLIMCHECK
 70
0
  9
$PEXTMIN
 10
1e+20
 20
1e+20
 30
1e+20
  9
$PEXTMAX
 10
-1e+20
 20
-1e+20
 30
-1e+20
  9
$PLIMMIN
 10
0.0
 20
0.0
  9
$PLIMMAX
 10
420.0
 20
297.0
  9
$UNITMODE
 70
0
  9
$VISRETAIN
 70
1
  9
$PLINEGEN
 70
0
  9
$PSLTSCALE
 70
1
  9
$TREEDEPTH
 70
3020
  9
$CMLSTYLE
  2
Standard
  9
$CMLJUST
 70
0
  9
$CMLSCALE
 40
20.0
  9
$PROXYGRAPHICS
 70
1
  9
$MEASUREMENT
 70
1
  9
$CELWEIGHT
370
-1
  9
$ENDCAPS
280
0
  9
$JOINSTYLE
280
0
  9
$LWDISPLAY
290
0
  9
$INSUNITS
 70
6
  9
$HYPERLINKBASE
  1

  9
$STYLESHEET
  1

  9
$XEDIT
290
1
  9
$CEPSNTYPE
380
0
  9
$PSTYLEMODE
290
1
  9
$FINGERPRINTGUID
  2
{19E999D6-92BC-4046-B4D0-7CA91666D852}
  9
$VERSIONGUID
  2
{FC8C2F35-29E0-4C8E-9422-A83D89E05074}
  9
$EXTNAMES
290
1
  9
$PSVPSCALE
 40
0.0
  9
$OLESTARTUP
290
0
  9
$SORTENTS
280
127
  9
$INDEXCTL
280
0
  9
$HIDETEXT
280
1
  9
$XCLIPFRAME
280
1
  9
$HALOGAP
280
0
  9
$OBSCOLOR
 70
257
  9
$OBSLTYPE
280
0
  9
$INTERSECTIONDISPLAY
280
0
  9
$INTERSECTIONCOLOR
 70
257
  9
$DIMASSOC
280
2
  9
$PROJECTNAME
  1

  9
$CAMERADISPLAY
290
0
  9
$LENSLENGTH
 40
50.0
  9
$CAMERAHEIGHT
 40
0.0
  9
$STEPSPERSEC
 40
24.0
  9
$STEPSIZE
 40
100.0
  9
$3DDWFPREC
 40
2.0
  9
$PSOLWIDTH
 40
0.005
  9
$PSOLHEIGHT
 40
0.08
  9
$LOFTANG1
 40
1.570796326795
  9
$LOFTANG2
 40
1.570796326795
  9
$LOFTMAG1
 40
0.0
  9
$LOFTMAG2
 40
0.0
  9
$LOFTPARAM
 70
7
  9
$LOFTNORMALS
280
1
  9
$LATITUDE
 40
37.795
  9
$LONGITUDE
 40
-122.394
  9
$NORTHDIRECTION
 40
0.0
  9
$TIMEZONE
 70
-8000
  9
$LIGHTGLYPHDISPLAY
280
1
  9
$TILEMODELIGHTSYNCH
280
1
  9
$CMATERIAL
347
20
  9
$SOLIDHIST
280
0
  9
$SHOWHIST
280
1
  9
$DWFFRAME
280
2
  9
$DGNFRAME
280
2
  9
$REALWORLDSCALE
290
1
  9
$INTERFERECOLOR
 62
256
  9
$CSHADOW
280
0
  9
$SHADOWPLANELOCATION
 40
0.0
  0
ENDSEC
  0
SECTION
  2
CLASSES
  0
CLASS
  1
ACDBDICTIONARYWDFLT
  2
AcDbDictionaryWithDefault
  3
ObjectDBX Classes
 90
0
 91
0
280
0
281
0
  0
CLASS
  1
SUN
  2
AcDbSun
  3
SCENEOE
 90
1153
 91
0
280
0
281
0
  0
CLASS
  1
VISUALSTYLE
  2
AcDbVisualStyle
  3
ObjectDBX Classes
 90
4095
 91
0
280
0
281
0
  0
CLASS
  1
MATERIAL
  2
AcDbMaterial
  3
ObjectDBX Classes
 90
1153
 91
0
280
0
281
0
  0
CLASS
  1
SCALE
  2
AcDbScale
  3
ObjectDBX Classes
 90
1153
 91
0
280
0
281
0
  0
CLASS
  1
TABLESTYLE
  2
AcDbTableStyle
  3
ObjectDBX Classes
 90
4095
 91
0
280
0
281
0
  0
CLASS
  1
MLEADERSTYLE
  2
AcDbMLeaderStyle
  3
ACDB_MLEADERSTYLE_CLASS
 90
4095
 91
0
280
0
281
0
  0
CLASS
  1
DICTIONARYVAR
  2
AcDbDictionaryVar
  3
ObjectDBX Classes
 90
0
 91
0
280
0
281
0
  0
CLASS
  1
CELLSTYLEMAP
  2
AcDbCellStyleMap
  3
ObjectDBX Classes
 90
1152
 91
0
280
0
281
0
  0
CLASS
  1
MENTALRAYRENDERSETTINGS
  2
AcDbMentalRayRenderSettings
  3
SCENEOE
 90
1024
 91
0
280
0
281
0
  0
CLASS
  1
ACDBDETAILVIEWSTYLE
  2
AcDbDetailViewStyle
  3
ObjectDBX Classes
 90
1025
 91
0
280
0
281
0
  0
CLASS
  1
ACDBSECTIONVIEWSTYLE
  2
AcDbSectionViewStyle
  3
ObjectDBX Classes
 90
1025
 91
0
280
0
281
0
  0
CLASS
  1
RASTERVARIABLES
  2
AcDbRasterVariables
  3
ISM
 90
0
 91
0
280
0
281
0
  0
CLASS
  1
LAYOUT
  2
AcDbLayout
  3
ObjectDBX Classes
 90
0
 91
0
280
0
281
0
  0
CLASS
  1
ACDBPLACEHOLDER
  2
AcDbPlaceHolder
  3
ObjectDBX Classes
 90
0
 91
0
280
0
281
0
  0
ENDSEC
  0
SECTION
  2
TABLES
  0
TABLE
  2
VPORT
  5
8
330
0
100
AcDbSymbolTable
 70
1
  0
VPORT
  5
23
330
8
100
AcDbSymbolTableRecord
100
AcDbViewportTableRecord
  2
*Active
 70
0
 10
0.0
 20
0.0
 11
1.0
 21
1.0
 12
0.0
 22
0.0
 13
0.0
 23
0.0
 14
0.5
 24
0.5
 15
0.5
 25
0.5
 16
0.0
 26
0.0
 36
1.0
 17
0.0
 27
0.0
 37
0.0
 40
1000.0
 41
1.34
 42
50.0
 43
0.0
 44
0.0
 50
0.0
 51
0.0
 71
0
 72
1000
 73
1
 74
3
 75
0
 76
0
 77
0
 78
0
281
0
 65
0
146
0.0
  0
ENDTAB
  0
TABLE
  2
LTYPE
  5
2
330
0
100
AcDbSymbolTable
 70
21
  0
LTYPE
  5
24
330
2
100
AcDbSymbolTableRecord
100
AcDbLinetypeTableRecord
  2
ByBlock
 70
0
  3

 72
65
 73
0
 40
0.0
  0
LTYPE
  5
25
330
2
100
AcDbSymbolTableRecord
100
AcDbLinetypeTableRecord
  2
ByLayer
 70
0
  3

 72
65
 73
0
 40
0.0
  0
LTYPE
  5
26
330
2
100
AcDbSymbolTableRecord
100
AcDbLinetypeTableRecord
  2
Continuous
 70
0
  3

 72
65
 73
0
 40
0.0
  0
LTYPE
  5
2F
330
2
100
AcDbSymbolTableRecord
100
AcDbLinetypeTableRecord
  2
CENTER
 70
0
  3
Center ____ _ ____ _ ____ _ ____ _ ____ _ ____
 72
65
 73
4
 40
5.08
 49
3.175
 74
0
 49
-0.635
 74
0
 49
0.635
 74
0
 49
-0.635
 74
0
  0
LTYPE
  5
30
330
2
100
AcDbSymbolTableRecord
100
AcDbLinetypeTableRecord
  2
CENTERX2
 70
0
  3
Center (2x) ________  __  ________  __  ________
 72
65
 73
4
 40
8.89
 49
6.35
 74
0
 49
-0.635
 74
0
 49
1.27
 74
0
 49
-0.635
 74
0
  0
LTYPE
  5
31
330
2
100
AcDbSymbolTableRecord
100
AcDbLinetypeTableRecord
  2
CENTER2
 70
0
  3
Center (.5x) ____ _ ____ _ ____ _ ____ _ ____
 72
65
 73
4
 40
2.54
 49
1.587
 74
0
 49
-0.318
 74
0
 49
0.318
 74
0
 49
-0.318
 74
0
  0
LTYPE
  5
32
330
2
100
AcDbSymbolTableRecord
100
AcDbLinetypeTableRecord
  2
DASHED
 70
0
  3
Dashed __ __ __ __ __ __ __ __ __ __ __ __ __ _
 72
65
 73
2
 40
1.524
 49
1.27
 74
0
 49
-0.254
 74
0
  0
LTYPE
  5
33
330
2
100
AcDbSymbolTableRecord
100
AcDbLinetypeTableRecord
  2
DASHEDX2
 70
0
  3
Dashed (2x) ____  ____  ____  ____  ____  ____
 72
65
 73
2
 40
3.048
 49
2.54
 74
0
 49
-0.508
 74
0
  0
LTYPE
  5
34
330
2
100
AcDbSymbolTableRecord
100
AcDbLinetypeTableRecord
  2
DASHED2
 70
0
  3
Dashed (.5x) _ _ _ _ _ _ _ _ _ _ _ _ _ _
 72
65
 73
2
 40
0.762
 49
0.635
 74
0
 49
-0.127
 74
0
  0
LTYPE
  5
35
330
2
100
AcDbSymbolTableRecord
100
AcDbLinetypeTableRecord
  2
PHANTOM
 70
0
  3
Phantom ______  __  __  ______  __  __  ______
 72
65
 73
6
 40
6.35
 49
3.175
 74
0
 49
-0.635
 74
0
 49
0.635
 74
0
 49
-0.635
 74
0
 49
0.635
 74
0
 49
-0.635
 74
0
  0
LTYPE
  5
36
330
2
100
AcDbSymbolTableRecord
100
AcDbLinetypeTableRecord
  2
PHANTOMX2
 70
0
  3
Phantom (2x)____________    ____    ____    ____________
 72
65
 73
6
 40
10.795
 49
6.35
 74
0
 49
-0.635
 74
0
 49
1.27
 74
0
 49
-0.635
 74
0
 49
1.27
 74
0
 49
-0.635
 74
0
  0
LTYPE
  5
37
330
2
100
AcDbSymbolTableRecord
100
AcDbLinetypeTableRecord
  2
PHANTOM2
 70
0
  3
Phantom (.5x) ___ _ _ ___ _ _ ___ _ _ ___ _ _ ___
 72
65
 73
6
 40
3.175
 49
1.587
 74
0
 49
-0.318
 74
0
 49
0.318
 74
0
 49
-0.318
 74
0
 49
0.318
 74
0
 49
-0.318
 74
0
  0
LTYPE
  5
38
330
2
100
AcDbSymbolTableRecord
100
AcDbLinetypeTableRecord
  2
DASHDOT
 70
0
  3
Dash dot __ . __ . __ . __ . __ . __ . __ . __
 72
65
 73
4
 40
3.556
 49
2.54
 74
0
 49
-0.508
 74
0
 49
0.0
 74
0
 49
-0.508
 74
0
  0
LTYPE
  5
39
330
2
100
AcDbSymbolTableRecord
100
AcDbLinetypeTableRecord
  2
DASHDOTX2
 70
0
  3
Dash dot (2x) ____  .  ____  .  ____  .  ____
 72
65
 73
4
 40
6.096
 49
5.08
 74
0
 49
-0.508
 74
0
 49
0.0
 74
0
 49
-0.508
 74
0
  0
LTYPE
  5
3A
330
2
100
AcDbSymbolTableRecord
100
AcDbLinetypeTableRecord
  2
DASHDOT2
 70
0
  3
Dash dot (.5x) _ . _ . _ . _ . _ . _ . _ . _
 72
65
 73
4
 40
1.778
 49
1.27
 74
0
 49
-0.254
 74
0
 49
0.0
 74
0
 49
-0.254
 74
0
  0
LTYPE
  5
3B
330
2
100
AcDbSymbolTableRecord
100
AcDbLinetypeTableRecord
  2
DOT
 70
0
  3
Dot .  .  .  .  .  .  .  .  .  .  .  .  .  .  .  .
 72
65
 73
2
 40
0.508
 49
0.0
 74
0
 49
-0.508
 74
0
  0
LTYPE
  5
3C
330
2
100
AcDbSymbolTableRecord
100
AcDbLinetypeTableRecord
  2
DOTX2
 70
0
  3
Dot (2x) .    .    .    .    .    .    .    . 
 72
65
 73
2
 40
1.016
 49
0.0
 74
0
 49
-1.016
 74
0
  0
LTYPE
  5
3D
330
2
100
AcDbSymbolTableRecord
100
AcDbLinetypeTableRecord
  2
DOT2
 70
0
  3
Dot (.5) . . . . . . . . . . . . . . . . . . . 
 72
65
 73
2
 40
0.254
 49
0.0
 74
0
 49
-0.254
 74
0
  0
LTYPE
  5
3E
330
2
100
AcDbSymbolTableRecord
100
AcDbLinetypeTableRecord
  2
DIVIDE
 70
0
  3
Divide __ . . __ . . __ . . __ . . __ . . __
 72
65
 73
6
 40
4.064
 49
2.54
 74
0
 49
-0.508
 74
0
 49
0.0
 74
0
 49
-0.508
 74
0
 49
0.0
 74
0
 49
-0.508
 74
0
  0
LTYPE
  5
3F
330
2
100
AcDbSymbolTableRecord
100
AcDbLinetypeTableRecord
  2
DIVIDEX2
 70
0
  3
Divide (2x) ____  . .  ____  . .  ____  . .  ____
 72
65
 73
6
 40
6.604
 49
5.08
 74
0
 49
-0.508
 74
0
 49
0.0
 74
0
 49
-0.508
 74
0
 49
0.0
 74
0
 49
-0.508
 74
0
  0
LTYPE
  5
40
330
2
100
AcDbSymbolTableRecord
100
AcDbLinetypeTableRecord
  2
DIVIDE2
 70
0
  3
Divide(.5x) _ . _ . _ . _ . _ . _ . _ . _
 72
65
 73
6
 40
2.032
 49
1.27
 74
0
 49
-0.254
 74
0
 49
0.0
 74
0
 49
-0.254
 74
0
 49
0.0
 74
0
 49
-0.254
 74
0
  0
ENDTAB
  0
TABLE
  2
LAYER
  5
1
330
0
100
AcDbSymbolTable
 70
2
  0
LAYER
  5
27
330
1
100
AcDbSymbolTableRecord
100
AcDbLayerTableRecord
  2
0
 70
0
 62
7
  6
Continuous
370
-3
390
13
347
21
  0
LAYER
  5
28
330
1
100
AcDbSymbolTableRecord
100
AcDbLayerTableRecord
  2
Defpoints
 70
0
 62
7
  6
Continuous
290
0
370
-3
390
13
347
21
  0
ENDTAB
  0
TABLE
  2
STYLE
  5
5
330
0
100
AcDbSymbolTable
 70
26
  0
STYLE
  5
29
330
5
100
AcDbSymbolTableRecord
100
AcDbTextStyleTableRecord
  2
Standard
 70
0
 40
0.0
 41
1.0
 50
0.0
 71
0
 42
2.5
  3
txt
  4

  0
STYLE
  5
41
330
5
100
AcDbSymbolTableRecord
100
AcDbTextStyleTableRecord
  2
OpenSans-Light
 70
0
 40
0.0
 41
1.0
 50
0.0
 71
0
 42
2.5
  3
OpenSans-Light.ttf
  4

  0
STYLE
  5
42
330
5
100
AcDbSymbolTableRecord
100
AcDbTextStyleTableRecord
  2
OpenSans-Light-Italic
 70
0
 40
0.0
 41
1.0
 50
0.0
 71
0
 42
2.5
  3
OpenSans-LightItalic.ttf
  4

  0
STYLE
  5
43
330
5
100
AcDbSymbolTableRecord
100
AcDbTextStyleTableRecord
  2
OpenSans
 70
0
 40
0.0
 41
1.0
 50
0.0
 71
0
 42
2.5
  3
OpenSans-Regular.ttf
  4

  0
STYLE
  5
44
330
5
100
AcDbSymbolTableRecord
100
AcDbTextStyleTableRecord
  2
OpenSans-Italic
 70
0
 40
0.0
 41
1.0
 50
0.0
 71
0
 42
2.5
  3
OpenSans-Italic.ttf
  4

  0
STYLE
  5
45
330
5
100
AcDbSymbolTableRecord
100
AcDbTextStyleTableRecord
  2
OpenSans-SemiBold
 70
0
 40
0.0
 41
1.0
 50
0.0
 71
0
 42
2.5
  3
OpenSans-SemiBold.ttf
  4

  0
STYLE
  5
46
330
5
100
AcDbSymbolTableRecord
100
AcDbTextStyleTableRecord
  2
OpenSans-SemiBoldItalic
 70
0
 40
0.0
 41
1.0
 50
0.0
 71
0
 42
2.5
  3
OpenSans-SemiBoldItalic.ttf
  4

  0
STYLE
  5
47
330
5
100
AcDbSymbolTableRecord
100
AcDbTextStyleTableRecord
  2
OpenSans-Bold
 70
0
 40
0.0
 41
1.0
 50
0.0
 71
0
 42
2.5
  3
OpenSans-Bold.ttf
  4

  0
STYLE
  5
48
330
5
100
AcDbSymbolTableRecord
100
AcDbTextStyleTableRecord
  2
OpenSans-BoldItalic
 70
0
 40
0.0
 41
1.0
 50
0.0
 71
0
 42
2.5
  3
OpenSans-BoldItalic.ttf
  4

  0
STYLE
  5
49
330
5
100
AcDbSymbolTableRecord
100
AcDbTextStyleTableRecord
  2
OpenSans-ExtraBold
 70
0
 40
0.0
 41
1.0
 50
0.0
 71
0
 42
2.5
  3
OpenSans-ExtraBold.ttf
  4

  0
STYLE
  5
4A
330
5
100
AcDbSymbolTableRecord
100
AcDbTextStyleTableRecord
  2
OpenSans-ExtraBoldItalic
 70
0
 40
0.0
 41
1.0
 50
0.0
 71
0
 42
2.5
  3
OpenSans-ExtraBoldItalic.ttf
  4

  0
STYLE
  5
4B
330
5
100
AcDbSymbolTableRecord
100
AcDbTextStyleTableRecord
  2
OpenSansCondensed-Bold
 70
0
 40
0.0
 41
1.0
 50
0.0
 71
0
 42
2.5
  3
OpenSansCondensed-Bold.ttf
  4

  0
STYLE
  5
4C
330
5
100
AcDbSymbolTableRecord
100
AcDbTextStyleTableRecord
  2
OpenSansCondensed-Light
 70
0
 40
0.0
 41
1.0
 50
0.0
 71
0
 42
2.5
  3
OpenSansCondensed-Light.ttf
  4

  0
STYLE
  5
4D
330
5
100
AcDbSymbolTableRecord
100
AcDbTextStyleTableRecord
  2
OpenSansCondensed-Italic
 70
0
 40
0.0
 41
1.0
 50
0.0
 71
0
 42
2.5
  3
OpenSansCondensed-LightItalic.ttf
  4

  0
STYLE
  5
4E
330
5
100
AcDbSymbolTableRecord
100
AcDbTextStyleTableRecord
  2
LiberationSans
 70
0
 40
0.0
 41
1.0
 50
0.0
 71
0
 42
2.5
  3
LiberationSans-Regular.ttf
  4

  0
STYLE
  5
4F
330
5
100
AcDbSymbolTableRecord
100
AcDbTextStyleTableRecord
  2
LiberationSans-Bold
 70
0
 40
0.0
 41
1.0
 50
0.0
 71
0
 42
2.5
  3
LiberationSans-Bold.ttf
  4

  0
STYLE
  5
50
330
5
100
AcDbSymbolTableRecord
100
AcDbTextStyleTableRecord
  2
LiberationSans-BoldItalic
 70
0
 40
0.0
 41
1.0
 50
0.0
 71
0
 42
2.5
  3
LiberationSans-BoldItalic.ttf
  4

  0
STYLE
  5
51
330
5
100
AcDbSymbolTableRecord
100
AcDbTextStyleTableRecord
  2
LiberationSans-Italic
 70
0
 40
0.0
 41
1.0
 50
0.0
 71
0
 42
2.5
  3
LiberationSans-Italic.ttf
  4

  0
STYLE
  5
52
330
5
100
AcDbSymbolTableRecord
100
AcDbTextStyleTableRecord
  2
LiberationSerif
 70
0
 40
0.0
 41
1.0
 50
0.0
 71
0
 42
2.5
  3
LiberationSerif-Regular.ttf
  4

  0
STYLE
  5
53
330
5
100
AcDbSymbolTableRecord
100
AcDbTextStyleTableRecord
  2
LiberationSerif-Bold
 70
0
 40
0.0
 41
1.0
 50
0.0
 71
0
 42
2.5
  3
LiberationSerif-Bold.ttf
  4

  0
STYLE
  5
54
330
5
100
AcDbSymbolTableRecord
100
AcDbTextStyleTableRecord
  2
LiberationSerif-BoldItalic
 70
0
 40
0.0
 41
1.0
 50
0.0
 71
0
 42
2.5
  3
LiberationSerif-BoldItalic.ttf
  4

  0
STYLE
  5
55
330
5
100
AcDbSymbolTableRecord
100
AcDbTextStyleTableRecord
  2
LiberationSerif-Italic
 70
0
 40
0.0
 41
1.0
 50
0.0
 71
0
 42
2.5
  3
LiberationSerif-Italic.ttf
  4

  0
STYLE
  5
56
330
5
100
AcDbSymbolTableRecord
100
AcDbTextStyleTableRecord
  2
LiberationMono
 70
0
 40
0.0
 41
1.0
 50
0.0
 71
0
 42
2.5
  3
LiberationMono-Regular.ttf
  4

  0
STYLE
  5
57
330
5
100
AcDbSymbolTableRecord
100
AcDbTextStyleTableRecord
  2
LiberationMono-Bold
 70
0
 40
0.0
 41
1.0
 50
0.0
 71
0
 42
2.5
  3
LiberationMono-Bold.ttf
  4

  0
STYLE
  5
58
330
5
100
AcDbSymbolTableRecord
100
AcDbTextStyleTableRecord
  2
LiberationMono-BoldItalic
 70
0
 40
0.0
 41
1.0
 50
0.0
 71
0
 42
2.5
  3
LiberationMono-BoldItalic.ttf
  4

  0
STYLE
  5
59
330
5
100
AcDbSymbolTableRecord
100
AcDbTextStyleTableRecord
  2
LiberationMono-Italic
 70
0
 40
0.0
 41
1.0
 50
0.0
 71
0
 42
2.5
  3
LiberationMono-Italic.ttf
  4

  0
ENDTAB
  0
TABLE
  2
VIEW
  5
7
330
0
100
AcDbSymbolTable
 70
0
  0
ENDTAB
  0
TABLE
  2
UCS
  5
6
330
0
100
AcDbSymbolTable
 70
0
  0
ENDTAB
  0
TABLE
  2
APPID
  5
3
330
0
100
AcDbSymbolTable
 70
3
  0
APPID
  5
2A
330
3
100
AcDbSymbolTableRecord
100
AcDbRegAppTableRecord
  2
ACAD
 70
0
  0
APPID
  5
8D
330
3
100
AcDbSymbolTableRecord
100
AcDbRegAppTableRecord
  2
HATCHBACKGROUNDCOLOR
 70
0
  0
APPID
  5
8E
330
3
100
AcDbSymbolTableRecord
100
AcDbRegAppTableRecord
  2
EZDXF
 70
0
  0
ENDTAB
  0
TABLE
  2
DIMSTYLE
  5
4
330
0
100
AcDbSymbolTable
 70
12
100
AcDbDimStyleTable
  0
DIMSTYLE
105
2B
330
4
100
AcDbSymbolTableRecord
100
AcDbDimStyleTableRecord
  2
Standard
 70
0
 40
1.0
 41
2.5
 42
0.625
 43
3.75
 44
1.25
 45
0.0
 46
0.0
 47
0.0
 48
0.0
 49
2.5
140
2.5
141
2.5
142
0.0
143
0.03937007874
144
1.0
145
0.0
146
1.0
147
0.625
148
0.0
 69
0
 70
0
 71
0
 72
0
 73
0
 74
0
 75
0
 76
0
 77
1
 78
8
 79
3
170
0
171
3
172
1
173
0
174
0
175
0
176
0
177
0
178
0
179
2
271
2
272
2
273
2
274
3
275
0
276
0
277
2
278
44
279
0
280
0
281
0
282
0
283
0
284
8
285
0
286
0
288
0
289
3
290
0
371
-2
372
-2
  0
DIMSTYLE
105
73
330
4
100
AcDbSymbolTableRecord
100
AcDbDimStyleTableRecord
  2
EZDXF
 70
0
 40
1.0
 41
0.175
 42
0.125
 43
3.75
 44
0.375
 45
0.0
 46
0.0
 47
0.0
 48
0.0
 49
2.5
140
0.25
141
2.5
142
0.0
143
0.03937007874
144
100.0
145
0.0
146
0.5
147
0.1
148
0.0
 69
0
 70
0
 71
0
 72
0
 73
0
 74
0
 75
0
 76
0
 77
1
 78
12
 79
3
170
0
171
3
172
1
173
0
174
0
175
0
176
0
177
0
178
0
179
2
271
2
272
2
273
2
274
3
275
0
276
0
277
2
278
46
279
2
280
0
281
0
282
0
283
0
284
8
285
0
286
0
288
1
289
3
290
0
340
4C
342
74
371
-2
372
-2
  0
DIMSTYLE
105
7C
330
4
100
AcDbSymbolTableRecord
100
AcDbDimStyleTableRecord
  2
EZ_M_100_H25_CM
 70
0
 40
1.0
 41
0.25
 42
0.125
 43
3.75
 44
0.375
 45
0.0
 46
0.0
 47
0.0
 48
0.0
 49
2.5
140
0.25
141
2.5
142
0.125
143
0.03937007874
144
100.0
145
0.0
146
0.5
147
0.1
148
0.0
 69
0
 70
0
 71
0
 72
0
 73
0
 74
0
 75
0
 76
0
 77
1
 78
12
 79
3
170
0
171
3
172
1
173
0
174
0
175
0
176
0
177
0
178
0
179
2
271
2
272
2
273
2
274
3
275
0
276
0
277
2
278
46
279
2
280
0
281
0
282
0
283
0
284
8
285
0
286
0
288
1
289
3
290
0
340
4C
371
-2
372
-2
  0
DIMSTYLE
105
7D
330
4
100
AcDbSymbolTableRecord
100
AcDbDimStyleTableRecord
  2
EZ_M_50_H25_CM
 70
0
 40
1.0
 41
0.125
 42
0.0625
 43
3.75
 44
0.1875
 45
0.0
 46
0.0
 47
0.0
 48
0.0
 49
2.5
140
0.125
141
2.5
142
0.0625
143
0.03937007874
144
100.0
145
0.0
146
0.5
147
0.05
148
0.0
 69
0
 70
0
 71
0
 72
0
 73
0
 74
0
 75
0
 76
0
 77
1
 78
12
 79
3
170
0
171
3
172
1
173
0
174
0
175
0
176
0
177
0
178
0
179
2
271
2
272
2
273
2
274
3
275
0
276
0
277
2
278
46
279
2
280
0
281
0
282
0
283
0
284
8
285
0
286
0
288
1
289
3
290
0
340
4C
371
-2
372
-2
  0
DIMSTYLE
105
7E
330
4
100
AcDbSymbolTableRecord
100
AcDbDimStyleTableRecord
  2
EZ_M_25_H25_CM
 70
0
 40
1.0
 41
0.0625
 42
0.03125
 43
3.75
 44
0.09375
 45
0.0
 46
0.0
 47
0.0
 48
0.0
 49
2.5
140
0.0625
141
2.5
142
0.03125
143
0.03937007874
144
100.0
145
0.0
146
0.5
147
0.025
148
0.0
 69
0
 70
0
 71
0
 72
0
 73
0
 74
0
 75
0
 76
0
 77
1
 78
12
 79
3
170
0
171
3
172
1
173
0
174
0
175
0
176
0
177
0
178
0
179
2
271
2
272
2
273
2
274
3
275
0
276
0
277
2
278
46
279
2
280
0
281
0
282
0
283
0
284
8
285
0
286
0
288
1
289
3
290
0
340
4C
371
-2
372
-2
  0
DIMSTYLE
105
7F
330
4
100
AcDbSymbolTableRecord
100
AcDbDimStyleTableRecord
  2
EZ_M_20_H25_CM
 70
0
 40
1.0
 41
0.05
 42
0.025
 43
3.75
 44
0.07500000000000001
 45
0.0
 46
0.0
 47
0.0
 48
0.0
 49
2.5
140
0.05
141
2.5
142
0.025
143
0.03937007874
144
100.0
145
0.0
146
0.5
147
0.020000000000000004
148
0.0
 69
0
 70
0
 71
0
 72
0
 73
0
 74
0
 75
0
 76
0
 77
1
 78
12
 79
3
170
0
171
3
172
1
173
0
174
0
175
0
176
0
177
0
178
0
179
2
271
2
272
2
273
2
274
3
275
0
276
0
277
2
278
46
279
2
280
0
281
0
282
0
283
0
284
8
285
0
286
0
288
1
289
3
290
0
340
4C
371
-2
372
-2
  0
DIMSTYLE
105
80
330
4
100
AcDbSymbolTableRecord
100
AcDbDimStyleTableRecord
  2
EZ_M_10_H25_CM
 70
0
 40
1.0
 41
0.025
 42
0.0125
 43
3.75
 44
0.037500000000000006
 45
0.0
 46
0.0
 47
0.0
 48
0.0
 49
2.5
140
0.025
141
2.5
142
0.0125
143
0.03937007874
144
100.0
145
0.0
146
0.5
147
0.010000000000000002
148
0.0
 69
0
 70
0
 71
0
 72
0
 73
0
 74
0
 75
0
 76
0
 77
1
 78
12
 79
3
170
0
171
3
172
1
173
0
174
0
175
0
176
0
177
0
178
0
179
2
271
2
272
2
273
2
274
3
275
0
276
0
277
2
278
46
279
2
280
0
281
0
282
0
283
0
284
8
285
0
286
0
288
1
289
3
290
0
340
4C
371
-2
372
-2
  0
DIMSTYLE
105
81
330
4
100
AcDbSymbolTableRecord
100
AcDbDimStyleTableRecord
  2
EZ_M_5_H25_CM
 70
0
 40
1.0
 41
0.0125
 42
0.00625
 43
3.75
 44
0.018750000000000003
 45
0.0
 46
0.0
 47
0.0
 48
0.0
 49
2.5
140
0.0125
141
2.5
142
0.00625
143
0.03937007874
144
100.0
145
0.0
146
0.5
147
0.005000000000000001
148
0.0
 69
0
 70
0
 71
0
 72
0
 73
0
 74
0
 75
0
 76
0
 77
1
 78
12
 79
3
170
0
171
3
172
1
173
0
174
0
175
0
176
0
177
0
178
0
179
2
271
2
272
2
273
2
274
3
275
0
276
0
277
2
278
46
279
2
280
0
281
0
282
0
283
0
284
8
285
0
286
0
288
1
289
3
290
0
340
4C
371
-2
372
-2
  0
DIMSTYLE
105
82
330
4
100
AcDbSymbolTableRecord
100
AcDbDimStyleTableRecord
  2
EZ_M_1_H25_CM
 70
0
 40
1.0
 41
0.0025
 42
0.00125
 43
3.75
 44
0.00375
 45
0.0
 46
0.0
 47
0.0
 48
0.0
 49
2.5
140
0.0025
141
2.5
142
0.00125
143
0.03937007874
144
100.0
145
0.0
146
0.5
147
0.001
148
0.0
 69
0
 70
0
 71
0
 72
0
 73
0
 74
0
 75
0
 76
0
 77
1
 78
12
 79
3
170
0
171
3
172
1
173
0
174
0
175
0
176
0
177
0
178
0
179
2
271
2
272
2
273
2
274
3
275
0
276
0
277
2
278
46
279
2
280
0
281
0
282
0
283
0
284
8
285
0
286
0
288
1
289
3
290
0
340
4C
371
-2
372
-2
  0
DIMSTYLE
105
83
330
4
100
AcDbSymbolTableRecord
100
AcDbDimStyleTableRecord
  2
EZ_RADIUS
 70
0
 40
1.0
 41
0.25
 42
0.125
 43
3.75
 44
0.375
 45
0.0
 46
0.0
 47
0.0
 48
0.0
 49
2.5
140
0.25
141
0.0
142
0.0
143
0.03937007874
144
100.0
145
0.0
146
0.5
147
0.1
148
0.0
 69
0
 70
0
 71
0
 72
0
 73
0
 74
0
 75
0
 76
0
 77
1
 78
12
 79
3
170
0
171
3
172
0
173
0
174
0
175
0
176
0
177
0
178
0
179
2
271
2
272
2
273
2
274
3
275
0
276
0
277
2
278
46
279
1
280
0
281
0
282
0
283
0
284
8
285
0
286
0
288
1
289
3
290
0
340
4C
342
84
371
-2
372
-2
  0
DIMSTYLE
105
88
330
4
100
AcDbSymbolTableRecord
100
AcDbDimStyleTableRecord
  2
EZ_RADIUS_INSIDE
 70
0
 40
1.0
 41
0.25
 42
0.125
 43
3.75
 44
0.375
 45
0.0
 46
0.0
 47
0.0
 48
0.0
 49
2.5
140
0.25
141
0.0
142
0.0
143
0.03937007874
144
100.0
145
0.0
146
0.5
147
0.1
148
0.0
 69
0
 70
0
 71
0
 72
0
 73
0
 74
0
 75
0
 76
0
 77
0
 78
12
 79
3
170
0
171
3
172
0
173
0
174
1
175
0
176
0
177
0
178
0
179
2
271
2
272
2
273
2
274
3
275
0
276
0
277
2
278
46
279
0
280
0
281
0
282
0
283
0
284
8
285
0
286
0
288
1
289
0
290
0
340
4C
342
84
371
-2
372
-2
  0
DIMSTYLE
105
89
330
4
100
AcDbSymbolTableRecord
100
AcDbDimStyleTableRecord
  2
EZ_CURVED
 70
0
 40
1.0
 41
0.25
 42
0.125
 43
3.75
 44
0.375
 45
0.0
 46
0.0
 47
0.0
 48
0.0
 49
2.5
140
0.25
141
2.5
142
0.0
143
0.03937007874
144
100.0
145
0.0
146
0.5
147
0.1
148
0.0
 69
0
 70
0
 71
0
 72
0
 73
0
 74
0
 75
0
 76
0
 77
1
 78
12
 79
2
 90
2
170
0
171
3
172
1
173
0
174
0
175
0
176
0
177
0
178
0
179
2
271
2
272
2
273
2
274
3
275
0
276
0
277
2
278
46
279
2
280
0
281
0
282
0
283
0
284
8
285
0
286
0
288
1
289
3
290
0
340
4C
371
-2
372
-2
  0
ENDTAB
  0
TABLE
  2
BLOCK_RECORD
  5
9
330
0
100
AcDbSymbolTable
 70
5
  0
BLOCK_RECORD
  5
17
330
9
100
AcDbSymbolTableRecord
100
AcDbBlockTableRecord
  2
*Model_Space
340
1A
 70
0
280
1
281
0
  0
BLOCK_RECORD
  5
1B
330
9
100
AcDbSymbolTableRecord
100
AcDbBlockTableRecord
  2
*Paper_Space
340
1E
 70
0
280
1
281
0
  0
BLOCK_RECORD
  5
74
330
9
100
AcDbSymbolTableRecord
100
AcDbBlockTableRecord
  2
_ARCHTICK
340
0
 70
0
280
1
281
0
  0
BLOCK_RECORD
  5
78
330
9
100
AcDbSymbolTableRecord
100
AcDbBlockTableRecord
  2
_CLOSEDFILLED
340
0
 70
0
280
1
281
0
  0
BLOCK_RECORD
  5
84
330
9
100
AcDbSymbolTableRecord
100
AcDbBlockTableRecord
  2
_CLOSEDBLANK
340
0
 70
0
280
1
281
0
  0
ENDTAB
  0
ENDSEC
  0
SECTION
  2
BLOCKS
  0
BLOCK
  5
18
330
17
100
AcDbEntity
  8
0
100
AcDbBlockBegin
  2
*Model_Space
 70
0
 10
0.0
 20
0.0
 30
0.0
  3
*Model_Space
  1

  0
ENDBLK
  5
19
330
17
100
AcDbEntity
  8
0
100
AcDbBlockEnd
  0
BLOCK
  5
1C
330
1B
100
AcDbEntity
  8
0
100
AcDbBlockBegin
  2
*Paper_Space
 70
0
 10
0.0
 20
0.0
 30
0.0
  3
*Paper_Space
  1

  0
ENDBLK
  5
1D
330
1B
100
AcDbEntity
  8
0
100
AcDbBlockEnd
  0
BLOCK
  5
75
330
74
100
AcDbEntity
  8
0
100
AcDbBlockBegin
  2
_ARCHTICK
 70
0
 10
0.0
 20
0.0
 30
0.0
  3
_ARCHTICK
  1

  0
LWPOLYLINE
  5
77
330
74
100
AcDbEntity
  8
0
  6
BYBLOCK
 62
0
100
AcDbPolyline
 90
2
 70
0
 43
0.15
 10
-0.5
 20
-0.5
 10
0.5
 20
0.5
  0
ENDBLK
  5
76
330
74
100
AcDbEntity
  8
0
100
AcDbBlockEnd
  0
BLOCK
  5
79
330
78
100
AcDbEntity
  8
0
100
AcDbBlockBegin
  2
_CLOSEDFILLED
 70
0
 10
0.0
 20
0.0
 30
0.0
  3
_CLOSEDFILLED
  1

  0
SOLID
  5
7B
330
78
100
AcDbEntity
  8
0
  6
BYBLOCK
 62
0
100
AcDbTrace
 10
-1.0
 20
0.16439898372402537
 30
0.0
 11
0.0
 21
0.0
 31
0.0
 12
-1.0
 22
-0.16439898372402537
 32
0.0
 13
-1.0
 23
-0.16439898372402537
 33
0.0
  0
ENDBLK
  5
7A
330
78
100
AcDbEntity
  8
0
100
AcDbBlockEnd
  0
BLOCK
  5
85
330
84
100
AcDbEntity
  8
0
100
AcDbBlockBegin
  2
_CLOSEDBLANK
 70
0
 10
0.0
 20
0.0
 30
0.0
  3
_CLOSEDBLANK
  1

  0
LWPOLYLINE
  5
87
330
84
100
AcDbEntity
  8
0
  6
BYBLOCK
 62
0
100
AcDbPolyline
 90
3
 70
1
 10
-1.0
 20
0.16439898372402537
 10
0.0
 20
0.0
 10
-1.0
 20
-0.16439898372402537
  0
ENDBLK
  5
86
330
84
100
AcDbEntity
  8
0
100
AcDbBlockEnd
  0
ENDSEC
  0
SECTION
  2
ENTITIES
  0
LWPOLYLINE
  5
8A
330
17
100
AcDbEntity
  8
0
100
AcDbPolyline
 90
1200
 70
0
 43
400.0
 10
200.0
 20
0.0
 10
204.97883708276035
 20
3.2227509554800955
 10
209.90454093233384
 20
6.602021254567696
 10
214.77342141209994
 20
10.136917398977442
 10
219.58180365157304
 20
13.826468562313115
 10
224.32602956546856
 20
17.669626854024003
 10
229.00245936816748
 20
21.66526761200701
 10
233.60747308305443
 20
25.8121897237739
 10
238.13747204620512
 20
30.109115976093605
 10
242.58888040390153
 20
34.554693433010144
 10
246.95814660345374
 20
39.1474938421273
 10
251.24174487681123
 20
43.88601406904191
 10
255.43617671644506
 20
48.76867655979824
 10
259.5379723429895
 20
53.79382983122663
 10
263.5436921641288
 20
58.959748989020525
 10
267.44992822422176
 20
64.26463627339655
 10
271.2533056441564
 20
69.70662163217325
 10
274.95048405093246
 20
75.28376332109535
 10
278.5381589964696
 20
80.99404853122041
 10
282.01306336514585
 20
86.83539404317719
 10
285.3719687695709
 20
92.80564690809443
 10
288.6116869341047
 20
98.90258515499133
 10
291.72907106563423
 20
105.12391852441115
 10
294.7210172111265
 20
111.46728922807169
 10
297.5844656014775
 20
117.930272734296
 10
300.31640198118384
 20
124.51037857897998
 10
302.9138589233659
 20
131.2050512018439
 10
305.37391712967695
 20
138.0116708077064
 10
307.6937067146369
 20
144.92755425251144
 10
309.8704084739338
 20
151.94995595383045
 10
311.9012551362423
 20
159.07606882555316
 10
313.78353259811155
 20
166.30302523647322
 10
315.51458114148164
 20
173.62789799246588
 10
317.0917966333931
 20
181.04770134194757
 10
318.51263170745756
 20
188.55939200429933
 10
319.77459692666565
 20
196.1598702209275
 10
320.8752619271134
 20
203.84598082862956
 10
321.812256542232
 20
211.61451435492123
 10
322.5832719071159
 20
219.46220813497922
 10
323.1860615425467
 20
227.38574744984126
 10
323.61844241831847
 20
235.38176668550122
 10
323.8782959954761
 20
243.4468505125284
 10
323.96356924708493
 20
251.57753508583386
 10
323.87227565715665
 20
259.7703092641988
 10
323.6024961973625
 20
268.02161584917496
 10
323.15238028117267
 20
276.3278528429568
 10
322.5201466950686
 20
284.68537472482404
 10
321.70408450647807
 20
293.0904937457412
 10
320.7025539480967
 20
301.53948124069757
 10
319.5139872782603
 20
310.02856895836527
 10
318.1368896170443
 20
318.5539504076441
 10
316.5698397577731
 20
327.1117822206592
 10
314.81149095362827
 20
335.6981855317698
 10
312.8605716790548
 20
344.3092473721416
 10
310.7158863656702
 20
352.9410220794318
 10
308.376316112392
 20
361.58953272212756
 10
305.8408193695032
 20
370.25077253807535
 10
303.1084325963888
 20
378.9207063867337
 10
300.17827089267917
 20
387.5952722146751
 10
297.0495286025493
 20
396.2703825338601
 10
293.7214798919276
 20
404.9419259122007
 10
290.1934792983798
 20
413.6057684759252
 10
286.464962253439
 20
422.25775542325437
 10
282.53544557716356
 20
430.8937125488931
 10
278.4045279447138
 20
439.50944777883524
 10
274.07189032474474
 20
448.1007527149822
 10
269.5372963894243
 20
456.6634041890647
 10
264.80059289589263
 20
465.19316582535674
 10
259.86171003898875
 20
473.68578961167003
 10
254.72066177508023
 20
482.1370174781068
 10
249.37754611683886
 20
490.5425828830554
 10
243.83254539881676
 20
498.898212405899
 10
238.0859265136856
 20
507.19962734591553
 10
232.1380411190095
 20
515.442545326837
 10
225.9893258144362
 20
523.6226819065383
 10
219.640302289194
 20
531.7357521913175
 10
213.0915774397974
 20
539.7774724542376
 10
206.34384345786933
 20
547.743561756985
 10
199.39787788800282
 20
555.62974357471
 10
192.25454365558608
 20
563.4317474233044
 10
184.91478906453546
 20
571.1453104885736
 10
177.37964776487982
 20
578.7661792567604
 10
169.6502386901579
 20
586.2901111458734
 10
161.72776596459462
 20
593.7128761372724
 10
153.61351878003381
 20
601.0302584069668
 10
145.30887124261676
 20
608.2380579560769
 10
136.81528218919988
 20
615.3320922399082
 10
128.13429497352226
 20
622.3081977950939
 10
119.26753722213739
 20
629.1622318642522
 10
110.21672056013531
 20
635.890074017615
 10
100.98364030669264
 20
642.487627771073
 10
91.5701751404961
 20
648.9508222000959
 10
81.97828673509368
 20
655.2756135489751
 10
72.21001936424105
 20
661.4579868348435
 10
62.26749947731812
 20
667.4939574459286
 10
52.15293524489835
 20
673.3795727334912
 10
41.868616074569836
 20
679.1109135969077
 10
31.41691209710786
 20
684.6840960613541
 10
20.800273623116965
 20
690.0952728475504
 10
10.021230570264663
 20
695.3406349330271
 10
-0.9176081387610378
 20
700.4164131043786
 10
-12.013555207423687
 20
705.3188794999649
 10
-23.263845625491822
 20
710.0443491425342
 10
-34.66563735800781
 20
714.5891814612328
 10
-46.21601206290199
 20
718.9497818024767
 10
-57.91197583707243
 20
723.1226029291608
 10
-69.7504599907369
 20
727.1041465076833
 10
-81.72832184985859
 20
730.8909645822657
 10
-93.84234558643787
 20
734.4796610360586
 10
-106.08924307644881
 20
737.8668930385135
 10
-118.46565478519395
 20
741.0493724785205
 10
-130.9681506798427
 20
744.0238673828026
 10
-143.59323116890295
 20
746.7872033190692
 10
-156.33732806837597
 20
749.3362647834294
 10
-169.1968055943275
 20
751.6679965715787
 10
-182.16796138160228
 20
753.7794051332635
 10
-195.2470275284043
 20
755.6675599095504
 10
-208.43017166644688
 20
757.3295946524133
 10
-221.71349805637936
 20
758.76270872617
 10
-235.09304870817888
 20
759.9641683902985
 10
-248.56480452619294
 20
760.9313080631714
 10
-262.12468647850994
 20
761.6615315662474
 10
-275.7685567903226
 20
762.1523133482721
 10
-289.49222016094416
 20
762.4011996890379
 10
-303.29142500413167
 20
762.4058098822652
 10
-317.1618647113539
 20
762.163837397167
 10
-331.09917893764384
 20
761.6730510182705
 10
-345.0989549096625
 20
760.9312959630732
 10
-359.1567287555898
 20
759.9364949771153
 10
-373.2679868564624
 20
758.6866494060611
 10
-387.4281672185536
 20
757.1798402443846
 10
-401.63266086640283
 20
755.4142291602644
 10
-415.8768132560742
 20
753.3880594962967
 10
-430.15592570823713
 20
751.0996572456469
 10
-444.46525686063916
 20
748.5474320032608
 10
-458.8000241395385
 20
745.7298778917714
 10
-473.1554052496655
 20
742.6455744617385
 10
-487.5265396822613
 20
739.2931875658668
 10
-501.90853024074937
 20
735.6714702068617
 10
-516.2964445835743
 20
731.7792633585798
 10
-530.685316783754
 20
727.615496760149
 10
-545.0701489046713
 20
723.1791896827326
 10
-559.4459125916242
 20
718.4694516686269
 10
-573.807550678663
 20
713.4854832423856
 10
-588.1499788102225
 20
708.2265765936717
 10
-602.468087077053
 20
702.6921162315537
 10
-616.7567416659596
 20
696.8815796099602
 10
-631.010786522841
 20
690.7945377240237
 10
-645.22504502852
 20
684.4306556770526
 10
-659.3943216868539
 20
677.7896932178733
 10
-673.5134038246083
 20
670.8715052483002
 10
-687.5770633025643
 20
663.6760423004982
 10
-701.580058237339
 20
656.2033509840072
 10
-715.5171347333873
 20
648.4535744022118
 10
-729.3830286246409
 20
640.4269525380516
 10
-743.1724672252561
 20
632.1238226087669
 10
-756.8801710889171
 20
623.5446193894917
 10
-770.5008557761533
 20
614.6898755055155
 10
-784.0292336291149
 20
605.5602216930417
 10
-797.4600155532562
 20
596.1563870282791
 10
-810.787912805368
 20
586.4791991247171
 10
-824.0076387873952
 20
576.5295842984435
 10
-837.1139108454794
 20
566.3085677013693
 10
-850.101452073662
 20
555.8172734222393
 10
-862.9649931216708
 20
545.0569245553196
 10
-875.6992740062277
 20
534.028843236653
 10
-888.2990459253015
 20
522.7344506477932
 10
-900.7590730747249
 20
511.17526698693865
 10
-913.0741344666075
 20
499.35291140738536
 10
-925.2390257489571
 20
487.2691019232426
 10
-937.248561025937
 20
474.92565528235673
 10
-949.0975746781676
 20
462.3244868064034
 10
-960.7809231824994
 20
449.46761019811186
 10
-972.2934869306692
 20
436.3571373156031
 10
-983.6301720462498
 20
422.9952779138308
 10
-994.7859121993154
 20
409.3843393531209
 10
-1005.7556704182368
 20
395.5267262748196
 10
-1016.5344408980105
 20
381.4249402440741
 10
-1027.1172508045486
 20
367.08157935976834
 10
-1037.499162074334
 20
352.49933783165613
 10
-1047.675273208859
 20
337.681005524748
 10
-1057.6407210632613
 20
322.6294674710036
 10
-1067.3906826285743
 20
307.34770334840334
 10
-1076.9203768070013
 20
291.8387869274868
 10
-1086.2250661796413
 20
276.1058854854399
 10
-1095.3000587660758
 20
260.152259187837
 10
-1104.1407097752399
 20
243.98126043815486
 10
-1112.7424233469965
 20
227.59633319517076
 10
-1121.1006542838415
 20
211.00101225838634
 10
-1129.2109097721602
 20
194.19892252161384
 10
-1137.0687510924602
 20
177.19377819488415
 10
-1144.6697953180173
 20
159.9893819948335
 10
-1152.009717001358
 20
142.5896243037431
 10
-1159.084249848017
 20
124.99848229742257
 10
-1165.889188377004
 20
107.22001904211967
 10
-1172.4203895674261
 20
89.25838256066518
 10
-1178.6737744906957
 20
71.11780486807078
 10
-1184.6453299277855
 20
52.802600976793954
 10
-1190.3311099709713
 20
34.3171678719079
 10
-1195.7272376095138
 20
15.665983456423799
 10
-1200.829906298747
 20
-3.146394532991221
 10
-1205.635381512022
 20
-22.115329639630065
 10
-1210.1400022749838
 20
-41.23610782942966
 10
-1214.340182681639
 20
-60.50393866243282
 10
-1218.2324133916982
 20
-79.91395649274708
 10
-1221.813263108665
 20
-99.46122169669505
 10
-1225.0793800381634
 20
-119.14072192884191
 10
-1228.0274933259814
 20
-138.94737340559007
 10
-1230.654414475335
 20
-158.87602221600838
 10
-1232.9570387428462
 20
-178.9214456595531
 10
-1234.9323465127407
 20
-199.07835361034455
 10
-1236.577404648778
 20
-219.34138990763884
 10
-1237.8893678234247
 20
-239.7051337721251
 10
-1238.8654798238015
 20
-260.16410124768674
 10
-1239.5030748339227
 20
-280.7127466682381
 10
-1239.7995786927695
 20
-301.34546414924347
 10
-1239.752510127737
 20
-322.05658910352844
 10
-1239.3594819629993
 20
-342.84039978097263
 10
-1238.6182023023512
 20
-363.69111883166335
 10
-1237.5264756860827
 20
-384.6029148920978
 10
-1236.082204221461
 20
-405.56990419399307
 10
-1234.283388686388
 20
-426.5861521952733
 10
-1232.1281296058219
 20
-447.6456752327759
 10
-1229.6146283005507
 20
-468.742442196235
 10
-1226.741187907912
 20
-489.8703762230741
 10
-1223.5062143740718
 20
-511.023356413534
 10
-1219.9082174174684
 20
-532.1952195656689
 10
-1215.945811463046
 20
-553.3797619297235
 10
-1211.6177165469064
 20
-574.5707409813922
 10
-1206.9227591910171
 20
-595.7618772134767
 10
-1201.8598732476203
 20
-616.9468559454308
 10
-1196.4281007129982
 20
-638.1193291502742
 10
-1190.6265925102566
 20
-659.2729172983742
 10
-1184.4546092407998
 20
-680.4012112175575
 10
-1177.911521904174
 20
-701.497773969031
 10
-1170.9968125859737
 20
-722.5561427385674
 10
-1163.7100751135047
 20
-743.5698307424242
 10
-1156.051015678913
 20
-764.532329147443
 10
-1148.0194534294992
 20
-785.4371090047731
 10
-1139.6153210249377
 20
-806.2776231966676
 10
-1130.8386651611422
 20
-827.047308395788
 10
-1121.6896470605247
 20
-847.7395870364412
 10
-1112.1685429283928
 20
-868.3478692971844
 10
-1102.2757443752598
 20
-888.8655550942178
 10
-1092.0117588048386
 20
-909.2860360849741
 10
-1081.3772097675019
 20
-929.6026976813295
 10
-1070.3728372790047
 20
-949.8089210718407
 10
-1058.9994981042755
 20
-969.8980852524029
 10
-1047.258166006085
 20
-989.863569064745
 10
-1035.1499319584225
 20
-1009.6987532421506
 10
-1022.6760043244138
 20
-1029.3970224617917
 10
-1009.8377089986246
 20
-1048.951767403081
 10
-996.6364895136057
 20
-1068.3563868114131
 10
-983.0739071105453
 20
-1087.6042895666915
 10
-969.1516407739106
 20
-1106.6888967560092
 10
-954.8714872299588
 20
-1125.6036437498738
 10
-940.2353609090193
 20
-1144.3419822813453
 10
-925.2452938714583
 20
-1162.8973825274584
 10
-909.9034356972408
 20
-1181.2633351923062
 10
-894.2120533390225
 20
-1199.433353591152
 10
-878.173530938716
 20
-1217.400975734932
 10
-861.7903696074742
 20
-1235.15976641453
 10
-845.0651871690694
 20
-1252.7033192841593
 10
-828.0007178666261
 20
-1270.025258943252
 10
-810.599812032702
 20
-1287.1192430161877
 10
-792.8654357227113
 20
-1303.97896422924
 10
-774.8006703116964
 20
-1320.5981524840915
 10
-756.408712054465
 20
-1336.970576927292
 10
-737.6928716091298
 20
-1353.0900480149962
 10
-718.6565735240762
 20
-1368.9504195723653
 10
-699.3033556884249
 20
-1384.5455908469817
 10
-679.6368687460406
 20
-1399.8695085556335
 10
-659.6608754731673
 20
-1414.9161689238374
 10
-639.3792501197723
 20
-1429.6796197174551
 10
-618.7959777146892
 20
-1444.1539622657772
 10
-597.9151533346829
 20
-1458.333353475416
 10
-576.7409813375331
 20
-1472.2120078343994
 10
-555.2777745592808
 20
-1485.7841994058108
 10
-533.529953475773
 20
-1499.044263810355
 10
-511.5020453286555
 20
-1511.9866001972114
 10
-489.19868321597204
 20
-1524.6056732025581
 10
-466.6246051475603
 20
-1536.8960148951242
 10
-443.78465306540187
 20
-1548.8522267081617
 10
-420.6837718291421
 20
-1560.4689813572109
 10
-397.32700816697724
 20
-1571.7410247430375
 10
-373.7195095921279
 20
-1582.6631778391322
 10
-349.86652328511735
 20
-1593.2303385631558
 10
-325.7733949421145
 20
-1603.4374836317227
 10
-301.4455675895625
 20
-1613.2796703979207
 10
-276.8885803653716
 20
-1622.7520386709596
 10
-252.10806726694062
 20
-1631.849812517359
 10
-227.10975586628646
 20
-1640.5683020430724
 10
-201.8994659925749
 20
-1648.9029051559658
 10
-176.4831083823463
 20
-1656.8491093080652
 10
-150.8666832977681
 20
-1664.4024932169875
 10
-125.05627911320826
 20
-1671.558728565987
 10
-99.05807087048282
 20
-1678.3135816820402
 10
-72.87831880311154
 20
-1684.6629151914126
 10
-46.52336682993667
 20
-1690.602689652136
 10
-19.999641018457996
 20
-1696.1289651628529
 10
6.686351981721136
 20
-1701.237902947474
 10
33.52802653498499
 20
-1705.9257669151054
 10
60.51871964491995
 20
-1710.1889251947161
 10
87.65169260826012
 20
-1714.0238516440015
 10
114.9201326971506
 20
-1717.4271273319364
 10
142.31715486931765
 20
-1720.3954419944866
 10
169.8358035056933
 20
-1722.9255954629723
 10
197.46905417508728
 20
-1725.0144990645829
 10
225.20981542543547
 20
-1726.6591769945423
 10
253.05093060117744
 20
-1727.8567676594362
 10
280.9851796862974
 20
-1728.6045249912193
 10
309.00528117255175
 20
-1728.8998197314293
 10
337.1038939524117
 20
-1728.7401406851388
 10
365.2736192362046
 20
-1728.1230959441828
 10
393.50700249298905
 20
-1727.0464140792199
 10
421.7965354146291
 20
-1725.507945300174
 10
450.1346579025648
 20
-1723.5056625846262
 10
478.5137600767504
 20
-1721.037662773733
 10
506.92618430623963
 20
-1718.1021676352457
 10
535.364227260855
 20
-1714.6975248932295
 10
563.820141983426
 20
-1710.8222092240767
 10
592.2861399820188
 20
-1706.4748232184263
 10
620.7543933416085
 20
-1701.654098308603
 10
649.2170368546182
 20
-1696.3588956612075
 10
677.6661701697559
 20
-1690.5882070344928
 10
706.0938599585714
 20
-1684.341155600169
 10
734.4921420991228
 20
-1677.616996729297
 10
762.8530238761907
 20
-1670.415118741934
 10
791.1684861974135
 20
-1662.7350436202034
 10
819.4304858247473
 20
-1654.5764276844784
 10
847.6309576206327
 20
-1645.9390622323717
 10
875.7618168082611
 20
-1636.822874140235
 10
903.8149612452902
 20
-1627.2279264268893
 10
931.78227371041
 20
-1617.154418779303
 10
959.6556242021045
 20
-1606.6026880399645
 10
987.4268722489709
 20
-1595.573208655687
 10
1015.0878692309566
 20
-1584.0665930876082
 10
1042.6304607108561
 20
-1572.0835921821538
 10
1070.046488775429
 20
-1559.6250955027363
 10
1097.3277943854491
 20
-1546.6921316219955
 10
1124.4662197340595
 20
-1533.2858683743614
 10
1151.4536106127373
 20
-1519.407613068768
 10
1178.2818187842115
 20
-1505.0588126613334
 10
1204.9427043616488
 20
-1490.2410538878444
 10
1231.4281381934481
 20
-1474.9560633558874
 10
1257.73000425293
 20
-1459.2057075964933
 10
1283.8402020322696
 20
-1442.9919930751496
 10
1309.750648939969
 20
-1426.317066162076
 10
1335.4532827011776
 20
-1409.1832130616433
 10
1360.94006376017
 20
-1391.592859700851
 10
1386.2029776842996
 20
-1373.5485715767636
 10
1411.2340375686974
 20
-1355.0530535628527
 10
1436.025286441058
 20
-1336.1091496741676
 10
1460.568799665781
 20
-1316.7198427912879
 10
1484.856687346782
 20
-1296.8882543430313
 10
1508.8810967282616
 20
-1276.617643947878
 10
1532.6342145927267
 20
-1255.9114090141074
 10
1556.108269655574
 20
-1234.7730842986361
 10
1579.2955349555018
 20
-1213.206341424588
 10
1602.1883302400665
 20
-1191.2149883575867
 10
1624.779024345673
 20
-1168.8029688408378
 10
1647.0600375712781
 20
-1145.974361789026
 10
1669.023844045115
 20
-1122.7333806410945
 10
1690.6629740837284
 20
-1099.0843726719709
 10
1711.9700165426004
 20
-1075.0318182633405
 10
1732.9376211576878
 20
-1050.580330133535
 10
1753.5585008771375
 20
-1025.734652526661
 10
1773.8254341825007
 20
-1000.4996603610887
 10
1793.7312673987242
 20
-974.8803583374219
 10
1813.268916992235
 20
-948.8818800060936
 10
1832.4313718564013
 20
-922.5094867947611
 10
1851.211695583691
 20
-895.7685669956351
 10
1869.60302872382
 20
-868.6646347129505
 10
1887.5985910272038
 20
-841.2033287707567
 10
1905.1916836730209
 20
-813.3904115812319
 10
1922.3756914811977
 20
-785.2317679737407
 10
1939.1440851076416
 20
-756.7334039848492
 10
1955.490423222021
 20
-727.901445609564
 10
1971.4083546674422
 20
-698.7421375140084
 10
1986.8916206013164
 20
-669.261841709825
 10
2001.934056616784
 20
-639.4670361905721
 10
2016.5295948439905
 20
-609.3643135303942
 10
2030.6722660305877
 20
-578.9603794452609
 10
2044.3562016007731
 20
-548.2620513171066
 10
2057.5756356922366
 20
-517.276256681153
 10
2070.3249071703535
 20
-486.0100316767766
 10
2082.598461618978
 20
-454.47051946224906
 10
2094.390853307219
 20
-422.6649685937104
 10
2105.696747131536
 20
-390.60073136873666
 10
2116.510920532551
 20
-358.2852621348713
 10
2126.8282653859446
 20
-325.72611556353297
 10
2136.643789866821
 20
-292.93094488966125
 10
2145.952620286939
 20
-259.9075001175358
 10
2154.750002904194
 20
-226.6636261931788
 10
2163.031305703766
 20
-193.20726114377283
 10
2170.79202015034
 20
-159.54643418452454
 10
2178.027762910803
 20
-125.68926379345227
 10
2184.73427754687
 20
-91.64395575452224
 10
2190.9074361770377
 20
-57.41880116963186
 10
2196.54324110733
 20
-23.022174439911122
 10
2201.6378264302607
 20
11.537468783165178
 10
2206.1874595914896
 20
46.25159367635092
 10
2210.188542923609
 20
81.11158835238874
 10
2213.6376151465543
 20
116.10876599640686
 10
2216.5313528340944
 20
151.23436703046158
 10
2218.866571845911
 20
186.47956130565737
 10
2220.6402287247397
 20
221.83545032130667
 10
2221.849422058096
 20
257.2930694705696
 10
2222.491393804085
 20
292.843390312017
 10
2222.563530580825
 20
328.4773228665137
 10
2222.063364919013
 20
364.1857179388763
 10
2220.9885764771734
 20
399.9593694636846
 10
2219.336993219135
 20
435.78901687465645
 10
2217.1065925533085
 20
471.66534749697524
 10
2214.29550243332
 20
507.5789989619633
 10
2210.902002419587
 20
543.5205616434465
 10
2206.924524701427
 20
579.4805811152199
 10
2202.3616550792954
 20
615.4495606289416
 10
2197.2121339067685
 20
651.4179636118217
 10
2191.474856991881
 20
687.3762161834476
 10
2185.1488764574665
 20
723.3147096910851
 10
2178.2334015601236
 20
759.2238032627963
 10
2170.7277994674796
 20
795.09382637767
 10
2162.6315959934027
 20
830.9150814525233
 10
2153.9444762908415
 20
866.6778464443577
 10
2144.6662855019804
 20
902.3723774678838
 10
2134.79702936541
 20
937.9889114274152
 10
2124.33687478001
 20
973.5176686624359
 10
2113.2861503252907
 20
1008.9488556060975
 10
2101.645346737892
 20
1044.2726674559747
 10
2089.4151173440164
 20
1079.4792908563225
 10
2076.596278447528
 20
1114.5589065911215
 10
2063.1898096735044
 20
1149.5016922871778
 10
2049.196854267002
 20
1184.2978251265497
 10
2034.618719346851
 20
1218.9374845675309
 10
2019.456876114265
 20
1253.4108550734918
 10
2003.7129600160868
 20
1287.7081288487857
 10
1987.3887708625098
 20
1321.8195085809973
 10
1970.486272899105
 20
1355.7352101887575
 10
1953.0075948330132
 20
1389.4454655743766
 10
1934.955029813167
 20
1422.940525380537
 10
1916.3310353644308
 20
1456.2106617502507
 10
1897.1382332755375
 20
1489.2461710893547
 10
1877.3794094407376
 20
1522.037376830744
 10
1857.0575136550751
 20
1554.5746321995744
 10
1836.1756593632251
 20
1586.848322978665
 10
1814.7371233618226
 20
1618.848870273323
 10
1792.7453454552676
 20
1650.5667332747937
 10
1770.2039280649476
 20
1681.992412021587
 10
1747.1166357918714
 20
1713.116450157865
 10
1723.4873949327211
 20
1743.929437688136
 10
1699.320292949312
 20
1774.4220137274447
 10
1674.6195778914998
 20
1804.5848692462944
 10
1649.3896577735545
 20
1834.4087498095123
 10
1623.635099904073
 20
1863.8844583082557
 10
1597.3606301694654
 20
1893.002857684399
 10
1570.571132271107
 20
1921.7548736465026
 10
1543.2716469162426
 20
1950.1314973765784
 10
1515.467370962742
 20
1978.123788226872
 10
1487.163656517815
 20
2005.7228764058868
 10
1458.366009990836
 20
2032.9199656528424
 10
1429.080091100388
 20
2059.706335899822
 10
1399.3117118357084
 20
2086.0733459208036
 10
1369.0668353726876
 20
2112.0124359668107
 10
1338.3515749446074
 20
2137.515130386403
 10
1307.172192667815
 20
2162.5730402307368
 10
1275.5350983225264
 20
2187.177865842427
 10
1243.4468480890098
 20
2211.3213994274356
 10
1210.914143239341
 20
2234.9955276092314
 10
1177.9438287850103
 20
2258.192233964458
 10
1144.5428920806241
 20
2280.9036015393467
 10
1110.7184613839806
 20
2303.1218153461227
 10
1076.4778043727895
 20
2324.839164838666
 10
1041.8283266183655
 20
2346.048046366654
 10
1006.7775700165665
 20
2366.7409656074697
 10
971.3332111763282
 20
2386.91053997513
 10
935.503059766118
 20
2406.549501005489
 10
899.2950568186665
 20
2425.6506967170108
 10
862.7172729943164
 20
2444.207093946368
 10
825.7779068034004
 20
2462.2117806581537
 10
788.4852827879888
 20
2479.6579682280108
 10
750.8478496634376
 20
2496.5389936984457
 10
712.874178420133
 20
2512.8483220066487
 10
674.5729603858579
 20
2528.579548183611
 10
635.9530052492172
 20
2543.726399523865
 10
597.0232390445535
 20
2558.2827377251533
 10
557.7927020988448
 20
2572.2425609973566
 10
518.2705469410099
 20
2585.600006140019
 10
478.4660361741367
 20
2598.349350587803
 10
438.38854031110907
 20
2610.485014423221
 10
398.0475355741473
 20
2622.0015623560057
 10
357.4526016587569
 20
2632.893705668474
 10
316.61341946265134
 20
2643.156304126254
 10
275.539768780138
 20
2652.784367853766
 10
234.24152596255112
 20
2661.7730591738273
 10
192.72866154527614
 20
2670.1176944107883
 10
151.01123784194058
 20
2677.8137456566005
 10
109.0994065063373
 20
2684.856842499232
 10
67.00340606270528
 20
2691.2427737128396
 10
24.733559404922733
 20
2696.967488909158
 10
-17.69972873474253
 20
2702.0271001495075
 10
-60.28597434671824
 20
2706.4178835169123
 10
-103.01461673441588
 20
2710.136280647751
 10
-145.87502113307957
 20
2713.1789002224436
 10
-188.85648135656052
 20
2715.5425194146314
 10
-231.94822247132225
 20
2717.2240852983505
 10
-275.13940349705723
 20
2718.220716212699
 10
-318.4191201332016
 20
2718.5297030835145
 10
-361.77640751067725
 20
2718.1485107015724
 10
-405.2002429681622
 20
2717.074778956852
 10
-448.6795488522015
 20
2715.306324028408
 10
-492.2031953404108
 20
2712.8411395294015
 10
-535.7600032871031
 20
2709.6773976068666
 10
-579.3387470905755
 20
2705.8134499957837
 10
-622.9281575813341
 20
2701.2478290270487
 10
-666.5169249305176
 20
2695.9792485889548
 10
-710.0937015777623
 20
2690.0066050417754
 10
-753.6471051777619
 20
2683.3289780851087
 10
-797.1657215647497
 20
2675.9456315775865
 10
-840.638107734134
 20
2667.8560143086297
 10
-884.0527948405382
 20
2659.0597607218865
 10
-927.3982912113875
 20
2649.556691590062
 10
-970.6630853753514
 20
2639.3468146407863
 10
-1013.8356491047784
 20
2628.4303251332644
 10
-1056.9044404713416
 20
2616.8076063853914
 10
-1099.857906914096
 20
2604.47923025108
 10
-1142.6844883191259
 20
2591.4459575475275
 10
-1185.3726201099707
 20
2577.708738432186
 10
-1227.910736348009
 20
2563.268712729198
 10
-1270.2872728419704
 20
2548.1272102050784
 10
-1312.4906702657465
 20
2532.2857507934395
 10
-1354.5093772836678
 20
2515.7460447685608
 10
-1396.3318536824047
 20
2498.509992867639
 10
-1437.9465735086678
 20
2480.5796863615224
 10
-1479.3420282118068
 20
2461.9574070738313
 10
-1520.5067297905393
 20
2442.6456273482645
 10
-1561.429213942894
 20
2422.6470099640196
 10
-1602.0980432185368
 20
2401.964407999187
 10
-1642.501810172624
 20
2380.6008646420432
 10
-1682.6291405203112
 20
2358.559612950142
 10
-1722.468696291067
 20
2335.8440755571564
 10
-1762.0091789819196
 20
2312.4578643274053
 10
-1801.2393327087725
 20
2288.4047799580308
 10
-1840.1479473549227
 20
2263.6888115288048
 10
-1878.7238617159105
 20
2238.314135999551
 10
-1916.9559666398309
 20
2212.2851176551953
 10
-1954.833208162254
 20
2185.606307498435
 10
-1992.344590634831
 20
2158.2824425901217
 10
-2029.4791798467868
 20
2130.3184453373324
 10
-2066.226106138372
 20
2101.71942272924
 10
-2102.5745675054322
 20
2072.4906655208474
 10
-2138.513832694207
 20
2042.6376473646712
 10
-2174.0332442855006
 20
2012.1660238904915
 10
-2209.1222217673508
 20
1981.0816317332728
 10
-2243.7702645953286
 20
1949.3904875094129
 10
-2277.9669552395994
 20
1917.0987867414437
 10
-2311.701962217886
 20
1884.2129027313738
 10
-2344.9650431134637
 20
1850.739385382832
 10
-2377.7460475773505
 20
1816.6849599722007
 10
-2410.034920313777
 20
1782.056525868988
 10
-2441.8217040481536
 20
1746.8611552055986
 10
-2473.0965424766327
 20
1711.1060914967834
 10
-2503.8496831964267
 20
1674.7987482090043
 10
-2534.0714806160463
 20
1637.9467072799803
 10
-2563.752398844604
 20
1600.5577175886908
 10
-2592.8830145593506
 20
1562.6396933761364
 10
-2621.4540198506043
 20
1524.200712617155
 10
-2649.456225043251
 20
1485.249015343622
 10
-2676.88056149398
 20
1445.7930019193689
 10
-2703.7180843634383
 20
1405.8412312671653
 10
-2729.9599753624816
 20
1365.4024190481373
 10
-2755.597545471735
 20
1324.485435793969
 10
-2780.622237633606
 20
1283.0993049923482
 10
-2805.0256294160126
 20
1241.253201125968
 10
-2828.799435646989
 20
1198.9564476655723
 10
-2851.935511019393
 20
1156.2185150174482
 10
-2874.4258526649414
 20
1113.049018425814
 10
-2896.262602696787
 20
1069.4577158305663
 10
-2917.4380507198803
 20
1025.454505680852
 10
-2937.944636308341
 20
981.0494247049502
 10
-2957.774951449104
 20
936.2526456369676
 10
-2976.9217429510745
 20
891.0744749008505
 10
-2995.377914819072
 20
845.5253502522424
 10
-3013.136530591813
 20
799.615838378725
 10
-3030.1908156432396
 20
753.3566324589625
 10
-3046.5341594464353
 20
706.7585496813863
 10
-3062.1601177994744
 20
659.8325287228913
 10
-3077.062415012469
 20
612.589627188205
 10
-3091.234946055146
 20
565.0410190104989
 10
-3104.671778664269
 20
517.1979918138528
 10
-3117.367155410234
 20
469.07194423819755
 10
-3129.315495722196
 20
420.674383227366
 10
-3140.5113978710474
 20
372.0169212808969
 10
-3150.9496409096378
 20
323.11127367024886
 10
-3160.6251865695954
 20
273.9692556200892
 10
-3169.5331811141205
 20
224.60277945533593
 10
-3177.668957146163
 20
175.02385171464815
 10
-3185.0280353713742
 20
125.2445702310283
 10
-3191.606126315242
 20
75.27712118033203
 10
-3197.3991319938505
 20
25.133776098291992
 10
-3202.403147537688
 20
-25.173111133129208
 10
-3206.6144627679496
 20
-75.6311073293511
 10
-3210.0295637248046
 20
-126.22770307599666
 10
-3212.645134147091
 20
-176.95031583016376
 10
-3214.4580569029185
 20
-227.7862930493774
 10
-3215.4654153706874
 20
-278.7229153474452
 10
-3215.6644947700183
 20
-329.74739967642887
 10
-3215.05278344212
 20
-380.84690253393546
 10
-3213.6279740791265
 20
-432.00852319491855
 10
-3211.3879649019455
 20
-483.2193069672107
 10
-3208.330860786188
 20
-534.4662484698798
 10
-3204.4549743357384
 20
-585.736294933695
 10
-3199.7588269035523
 20
-637.0163495227793
 10
-3194.241149559291
 20
-688.293274676637
 10
-3187.900884003395
 20
-739.5538954717034
 10
-3180.7371834272158
 20
-790.7850030015495
 10
-3172.749413318869
 20
-841.9733577748826
 10
-3163.937152214433
 20
-893.1056931304679
 10
-3154.300192394185
 20
-944.1687186680898
 10
-3143.8385405235417
 20
-995.1491236946702
 10
-3132.5524182384006
 20
-1046.03358068465
 10
-3120.4422626746073
 20
-1096.8087487537334
 10
-3107.5087269412466
 20
-1147.4612771451223
 10
-3093.752680537533
 20
-1197.9778087272507
 10
-3079.1752097130116
 20
-1248.3449835022175
 10
-3063.7776177708806
 20
-1298.5494421239139
 10
-3047.5614253141866
 20
-1348.5778294249592
 10
-3030.5283704347125
 20
-1398.416797951509
 10
-3012.680408844354
 20
-1448.0530115050033
 10
-2994.0197139488346
 20
-1497.473148689925
 10
-2974.5486768635815
 20
-1546.663906466622
 10
-2954.269906371641
 20
-1595.6120037082592
 10
-2933.1862288234897
 20
-1644.3041847609447
 10
-2911.3006879786494
 20
-1692.7272230060894
 10
-2888.616544789001
 20
-1740.8679244240436
 10
-2865.137277123708
 20
-1788.7131311580808
 10
-2840.866579435728
 20
-1836.249725077704
 10
-2815.8083623698053
 20
-1883.4646313404144
 10
-2789.9667523119597
 20
-1930.3448219509098
 10
-2763.346090880434
 20
-1976.8773193167797
 10
-2735.950934358107
 20
-2023.0491997997308
 10
-2707.78605306638
 20
-2068.8475972613837
 10
-2678.856430680577
 20
-2114.259706602671
 10
-2649.1672634869005
 20
-2159.272787295882
 10
-2618.723959581006
 20
-2203.874166908379
 10
-2587.5321380082746
 20
-2248.051244617032
 10
-2555.5976278458793
 20
-2291.7914947124063
 10
-2522.9264672267573
 20
-2335.082470091729
 10
-2489.5249023055917
 20
-2377.911805739711
 10
-2455.3993861670087
 20
-2420.267222196185
 10
-2420.556577676058
 20
-2462.1365290097024
 10
-2385.003340271226
 20
-2503.5076281760566
 10
-2348.7467407001295
 20
-2544.3685175608066
 10
-2311.794047698118
 20
-2584.707294304845
 10
-2274.1527306099924
 20
-2624.5121582120582
 10
-2235.83045795508
 20
-2663.7714151181353
 10
-2196.8350959359286
 20
-2702.473480239572
 10
-2157.1747068908735
 20
-2740.6068815019435
 10
-2116.8575476907718
 20
-2778.1602628464925
 10
-2075.892068080201
 20
-2815.1223875141095
 10
-2034.2869089634482
 20
-2851.482141305771
 10
-1992.0509006355749
 20
-2887.228535818527
 10
-1949.1930609589976
 20
-2922.3507116560627
 10
-1905.722593485839
 20
-2956.8379416130056
 10
-1861.6488855264965
 20
-2990.679633831986
 10
-1816.981506164797
 20
-3023.8653349325964
 10
-1771.7302042201532
 20
-3056.384733111328
 10
-1725.9049061571338
 20
-3088.2276612115907
 10
-1679.5157139428957
 20
-3119.3840997629422
 10
-1632.5729028529267
 20
-3149.8441799886327
 10
-1585.0869192255652
 20
-3179.5981867805936
 10
-1537.0683781657804
 20
-3208.6365616410026
 10
-1488.528061198713
 20
-3236.9499055895726
 10
-1439.476913873486
 20
-3264.528982035691
 10
-1389.9260433177865
 20
-3291.3647196145976
 10
-1339.8867157438349
 20
-3317.4482149867126
 10
-1289.370353906192
 20
-3342.7707355993443
 10
-1238.3885345120457
 20
-3367.323722409907
 10
-1186.9529855845399
 20
-3391.0987925698673
 10
-1135.075583779732
 20
-3414.087742068595
 10
-1082.7683516578036
 20
-3436.2825483363376
 10
-1030.0434549091349
 20
-3457.67537280552
 10
-976.9131995358899
 20
-3478.2585634296097
 10
-923.3900289897555
 20
-3498.024657158766
 10
-869.4865212664997
 20
-3516.966382371523
 10
-815.2153859580349
 20
-3535.0766612617635
 10
-760.5894612626311
 20
-3552.348612180248
 10
-705.6217109540781
 20
-3568.7755519299553
 10
-650.3252213103865
 20
-3584.350998014554
 10
-594.7131980028453
 20
-3599.068670839277
 10
-538.7989629461372
 20
-3612.9224958635064
 10
-482.59595111027056
 20
-3625.9066057044083
 10
-426.1177072950863
 20
-3638.0153421909245
 10
-369.37788286811707
 20
-3649.2432583674845
 10
-312.39023246658155
 20
-3659.585120446778
 10
-255.16861066431153
 20
-3669.035909710963
 10
-197.7269686044178
 20
-3677.5908243606937
 10
-140.07935059851437
 20
-3685.2452813113428
 10
-82.23989069333571
 20
-3691.9949179358496
 10
-24.222809205547104
 20
-3697.8355937535916
 10
33.9575907743045
 20
-3702.763392064716
 10
92.28692690796984
 20
-3706.7746215293832
 10
150.75074116484026
 20
-3709.8658176913773
 10
209.33450340561382
 20
-3712.0337444455495
 10
268.0236149933903
 20
-3713.275395448588
 10
326.8034124312977
 20
-3713.5879954726183
 10
385.65917102574343
 20
-3712.9690017011344
 10
444.57610857437544
 20
-3711.416104966805
 10
503.53938907782975
 20
-3708.9272309306857
 10
562.5341264743331
 20
-3705.50054120241
 10
621.5453883962192
 20
-3701.1344344009112
 10
680.5581999474068
 20
-3695.8275471552897
 10
739.5575475009234
 20
-3689.5787550453992
 10
798.5283825154103
 20
-3682.3871734818
 10
857.4556253697764
 20
-3674.2521585246855
 10
916.324169214923
 20
-3665.173307641456
 10
975.1188838415947
 20
-3655.150460402584
 10
1033.8246195633635
 20
-3644.1836991154614
 10
1092.4262111137512
 20
-3632.2733493959295
 10
1150.908481556486
 20
-3619.4199806771976
 10
1209.2562462078897
 20
-3605.6244066558725
 10
1267.4543165703817
 20
-3590.887685674861
 10
1325.4875042760852
 20
-3575.21112104289
 10
1383.340625039514
 20
-3558.5962612904364
 10
1440.9985026183006
 20
-3541.044900361839
 10
1498.4459727809876
 20
-3522.559077743426
 10
1555.6678872807386
 20
-3503.1410785274807
 10
1612.6491178340634
 20
-3482.7934334118713
 10
1669.3745601034248
 20
-3461.518918635226
 10
1725.8291376827135
 20
-3439.3205558475206
 10
1781.9978060845417
 20
-3416.201611915978
 10
1837.865556728305
 20
-3392.165598666183
 10
1893.4174209279568
 20
-3367.2162725583553
 10
1948.6384738784498
 20
-3341.357634298708
 10
2003.5138386397728
 20
-3314.593928385869
 10
2058.028690117543
 20
-3286.9296425923344
 10
2112.168259039079
 20
-3258.369507380971
 10
2165.9178359239263
 20
-3228.9184952565306
 10
2219.2627750476963
 20
-3198.5818200523004
 10
2272.188498398275
 20
-3167.3649361518337
 10
2324.680499623237
 20
-3135.273537645897
 10
2376.7243479674653
 20
-3102.3135574246917
 10
2428.3056921998827
 20
-3068.49116620546
 10
2479.4102645282583
 20
-3033.8127714955817
 10
2530.023884501016
 20
-2998.285016491309
 10
2580.132462894996
 20
-2961.9147789122867
 10
2629.722005588111
 20
-2924.7091697720302
 10
2678.7786174158387
 20
-2886.6755320845473
 10
2727.2885060105073
 20
-2847.821439507305
 10
2775.2379856223197
 20
-2808.154694920783
 10
2822.61348092109
 20
-2767.6833289448055
 10
2869.401530777583
 20
-2726.415598391989
 10
2915.5887920235205
 20
-2684.359984658494
 10
2961.1620431891283
 20
-2641.525192052417
 10
3006.1081882172357
 20
-2597.9201460601366
 10
3050.414260152891
 20
-2553.553991550914
 10
3094.0674248074615
 20
-2508.4360909201055
 10
3137.054984396208
 20
-2462.576022171344
 10
3179.364381148316
 20
-2415.9835769380643
 10
3220.9832008883777
 20
-2368.668758444765
 10
3261.8991765883106
 20
-2320.6417794084173
 10
3302.1001918887346
 20
-2271.9130598804436
 10
3341.5742845887935
 20
-2222.4932250297243
 10
3380.309650103469
 20
-2172.393102867044
 10
3418.2946448873518
 20
-2121.623721911549
 10
3455.5177898239704
 20
-2070.196308799594
 10
3491.9677735796577
 20
-2018.1222858365609
 10
3527.6334559210254
 20
-1965.4132684921544
 10
3562.503870995087
 20
-1912.0810628397107
 10
3596.568230571096
 20
-1858.1376629400788
 10
3629.815927243159
 20
-1803.5952481706456
 10
3662.236537592703
 20
-1748.4661805000947
 10
3693.819825309889
 20
-1692.7630017094982
 10
3724.5557442730487
 20
-1636.4984305603634
 10
3754.434441585264
 20
-1579.6853599102653
 10
3783.4462605671906
 20
-1522.3368537767246
 10
3811.581743705267
 20
-1464.4661443499497
 10
3838.8316355543984
 20
-1406.086628955224
 10
3865.1868855943176
 20
-1347.2118669654994
 10
3890.638651038731
 20
-1287.855576665005
 10
3915.178299596431
 20
-1228.0316320645445
 10
3938.7974121835487
 20
-1167.7540596692368
 10
3961.487785586135
 20
-1107.037035199443
 10
3983.2414350722643
 20
-1045.8948802656446
 10
4004.050596952872
 20
-984.3420589980543
 10
4023.907731090552
 20
-922.3931746317439
 10
4042.805523355539
 20
-860.062966048101
 10
4060.736888028137
 20
-797.3663042734269
 10
4077.69497014683
 20
-734.318188935516
 10
4093.6731478013867
 20
-670.9337446790172
 10
4108.6650343701795
 20
-607.2282175405348
 10
4122.664480701094
 20
-543.2169712842034
 10
4135.66557723529
 20
-478.91548369871606
 10
4147.662656073137
 20
-414.3393428566576
 10
4158.650292981709
 20
-349.5042433370538
 10
4168.623309343136
 20
-284.4259824120522
 10
4177.576774043226
 20
-219.12045619865887
 10
4185.506005299713
 20
-153.60365577647025
 10
4192.406572429544
 20
-87.8916632723468
 10
4198.274297554605
 20
-22.00064791298773
 10
4203.105257245319
 20
44.0531379536244
 10
4206.895784101567
 20
110.25336286692314
 10
4209.642468270379
 20
176.58362029165755
 10
4211.3421588998635
 20
243.02743268388082
 10
4211.991965528889
 20
309.5682555841704
 10
4211.589259411997
 20
376.18948173695065
 10
4210.131674779086
 20
442.87444523493684
 10
4207.617110029387
 20
509.6064256876593
 10
4204.043728859313
 20
576.3686524130252
 10
4199.409961323718
 20
643.1443086508671
 10
4193.714504830177
 20
709.9165357974199
 10
4186.956325065893
 20
776.6684376596612
 10
4179.134656856837
 20
843.3830847284414
 10
4170.249004958765
 20
910.0435184693134
 10
4160.299144779771
 20
976.6327556300262
 10
4149.285123034061
 20
1043.133792563469
 10
4137.2072583266045
 20
1109.529609565123
 10
4124.066141668411
 20
1175.8031752237998
 10
4109.862636922125
 20
1241.9374507845978
 10
4094.5978811777068
 20
1307.9153945229596
 10
4078.273285057952
 20
1373.719966128705
 10
4060.8905329536155
 20
1439.3341310989103
 10
4042.4515831879685
 20
1504.7408651385117
 10
4022.9586681105666
 20
1569.923158567488
 10
4002.4142941201058
 20
1634.8640207334968
 10
3980.8212416161714
 20
1699.5464844288067
 10
3958.182564879795
 20
1763.9536103103853
 10
3934.501591882667
 20
1828.068491322033
 10
3909.7819240249646
 20
1891.8742571173022
 10
3884.0274358016577
 20
1955.3540784821942
 10
3857.2422743972948
 20
2018.4911717563714
 10
3829.4308592091943
 20
2081.268803251767
 10
3800.5978812990484
 20
2143.670293667429
 10
3770.7483027729204
 20
2205.6790224994375
 10
3739.887356089675
 20
2267.278432444735
 10
3708.02054329786
 20
2328.4520337977024
 10
3675.153635201121
 20
2389.183408838337
 10
3641.292670452193
 20
2449.4562162108373
 10
3606.4439545756027
 20
2509.254195291473
 10
3570.6140589191705
 20
2568.5611705445413
 10
3533.8098195344305
 20
2627.361055865304
 10
3496.0383359861817
 20
2685.6378589086457
 10
3457.3069700912692
 20
2743.3756854024286
 10
3417.6233445868193
 20
2800.558743444279
 10
3376.995341728148
 20
2857.1713477807166
 10
3335.4311018165477
 20
2913.19792406744
 10
3292.93902165721
 20
2968.6230131096427
 10
3249.527752947544
 20
3023.4312750812023
 10
3205.2062005961798
 20
3077.607493721611
 10
3159.9835209729595
 20
3131.1365805095
 10
3113.8691200902263
 20
3184.0035788116347
 10
3066.872651715766
 20
3236.193668006241
 10
3019.0040154177555
 20
3287.692167579541
 10
2970.273354542064
 20
3338.4845411944116
 10
2920.691054122385
 20
3388.556400729956
 10
2870.2677387235
 20
3437.8935102910095
 10
2819.0142702181965
 20
3486.481790186377
 10
2766.9417454982463
 20
3534.30732087475
 10
2714.0614941199233
 20
3581.356346877197
 10
2660.385075884544
 20
3627.615280655154
 10
2605.9242783545437
 20
3673.0707064528287
 10
2550.691114305595
 20
3717.709384102956
 10
2494.6978191153175
 20
3761.518252794841
 10
2437.9568480891403
 20
3804.4844348036354
 10
2380.4808737238823
 20
3846.595239179794
 10
2322.2827829096213
 20
3887.8381653977117
 10
2263.375674070546
 20
3928.2009069624282
 10
2203.7728542452915
 20
3967.6713549734895
 10
2143.487836107497
 20
4006.237601644874
 10
2082.534334927214
 20
4043.887943780024
 10
2020.9262654738322
 20
4080.6108862009696
 10
1958.6777388612363
 20
4116.395145130583
 10
1895.8030593358862
 20
4151.229651526981
 10
1832.316721008557
 20
4185.1035543691305
 10
1768.2334045304726
 20
4218.006223892685
 10
1703.5679737145992
 20
4249.927254775142
 10
1638.335472102864
 20
4280.856469269383
 10
1572.551119480102
 20
4310.783920284678
 10
1506.230308335482
 20
4339.699894414276
 10
1439.3886002723573
 20
4367.594914908652
 10
1372.0417223672075
 20
4394.459744593574
 10
1304.2055634786493
 20
4420.2853887321135
 10
1235.8961705073264
 20
4445.063097829737
 10
1167.1297446075655
 20
4468.784370381655
 10
1097.9226373516933
 20
4491.440955561602
 10
1028.291346847917
 20
4513.024855851234
 10
958.252513812693
 20
4533.528329609353
 10
887.8229175985126
 20
4552.94389358017
 10
817.0194721780556
 20
4571.264325339847
 10
745.8592220856708
 20
4588.482665680568
 10
674.3593383171622
 20
4604.592220931377
 10
602.5371141888214
 20
4619.586565215112
 10
530.4099611568245
 20
4633.459542640663
 10
457.99540459783896
 20
4646.205269429918
 10
385.3110795519887
 20
4657.818135978694
 10
312.37472642915964
 20
4668.292808851001
 10
239.20418667969815
 20
4677.624232705988
 10
165.81739843056175
 20
4685.807632156962
 10
92.23239208798714
 20
4692.838513561849
 10
18.467285907753745
 20
4698.712666744523
 10
-55.45971846586877
 20
4703.426166646405
 10
-129.53034049139018
 20
4706.975374907796
 10
-203.7262252504792
 20
4709.356941378389
 10
-278.02894799632594
 20
4710.5678055564285
 10
-352.4200187289108
 20
4710.605197956033
 10
-426.8808867959187
 20
4709.466641402175
 10
-501.39294551831887
 20
4707.1499522528375
 10
-575.9375368393356
 20
4703.653241547931
 10
-650.4959559956939
 20
4698.974916084494
 10
-725.0494562099665
 20
4693.11367941779
 10
-799.579253402842
 20
4686.06853278789
 10
-874.0665309241338
 20
4677.838775971368
 10
-948.4924443013329
 20
4668.424008057742
 10
-1022.8381260045145
 20
4657.824128150331
 10
-1097.0846902263859
 20
4646.039335991193
 10
-1171.2132376762731
 20
4633.070132509855
 10
-1245.2048603868152
 20
4618.917320295539
 10
-1319.040646532199
 20
4603.582003992612
 10
-1392.7016852565819
 20
4587.065590619068
 10
-1466.1690715116358
 20
4569.369789807734
 10
-1539.423910901854
 20
4550.496613970063
 10
-1612.4473245364281
 20
4530.448378382297
 10
-1685.2204538864464
 20
4509.22770119385
 10
-1757.7244656461573
 20
4486.837503357737
 10
-1829.940556597061
 20
4463.281008482971
 10
-1901.849958473561
 20
4438.561742608771
 10
-1973.4339428289295
 20
4412.68353390054
 10
-2044.6738259003182
 20
4385.650512267508
 10
-2115.550973471566
 20
4357.467108902032
 10
-2186.046805732522
 20
4328.1380557405055
 10
-2256.142802133671
 20
4297.668384845863
 10
-2325.8205062346833
 20
4266.0634277117515
 10
-2395.0615305457754
 20
4233.328814488323
 10
-2463.847561360498
 20
4199.470473129775
 10
-2532.1603635787333
 20
4164.494628463678
 10
-2599.9817855186357
 20
4128.407801182203
 10
-2667.2937637162377
 20
4091.2168067553653
 10
-2734.078327711469
 20
4052.928754266417
 10
-2800.3176048193186
 20
4013.5510451695577
 10
-2865.993824884887
 20
3973.0913719701375
 10
-2931.089325021061
 20
3931.557716827549
 10
-2995.5865543275545
 20
3888.958350081043
 10
-3059.4680785901
 20
3845.301828698671
 10
-3122.716584958439
 20
3800.596994649697
 10
-3185.314886601997
 20
3754.8529732006546
 10
-3247.2459273419
 20
3708.0791711354314
 10
-3308.4927862581353
 20
3660.285274899673
 10
-3369.0386822706114
 20
3611.4812486698465
 10
-3428.866978692884
 20
3561.677332347344
 10
-3487.9611877573275
 20
3510.884039477981
 10
-3546.3049751105254
 20
3459.112155097322
 10
-3603.8821642776775
 20
3406.372733502241
 10
-3660.6767410947964
 20
3352.6770959491573
 10
-3716.6728581075
 20
3298.0368282794147
 10
-3771.854838935203
 20
3242.4637784722954
 10
-3826.2071825995486
 20
3185.9700541261263
 10
-3879.7145678157995
 20
3128.5680198680907
 10
-3932.3618572461564
 20
3070.2702946931754
 10
-3984.134101713725
 20
3011.089749232896
 10
-4035.016544376023
 20
2951.039502954333
 10
-4084.994624856859
 20
2890.132921290106
 10
-4134.053983335459
 20
2828.3836126998904
 10
-4182.180464591697
 20
2765.8054256641053
 10
-4229.360122006306
 20
2702.4124456104432
 10
-4275.57922151496
 20
2638.218991773906
 10
-4320.8242455151385
 20
2573.2396139910397
 10
-4365.0818967246405
 20
2507.489089429077
 10
-4408.339101990721
 20
2440.9824192507263
 10
-4450.583016048752
 20
2373.7348252153065
 10
-4491.801025229309
 20
2305.761746217105
 10
-4531.980751112726
 20
2237.078834761585
 10
-4571.110054130002
 20
2167.7019533803605
 10
-4609.177037109075
 20
2097.64717098571
 10
-4646.170048765438
 20
2026.9307591654585
 10
-4682.0776871361
 20
1955.5691884190903
 10
-4716.8888029559275
 20
1883.5791243359572
 10
-4750.592502975342
 20
1810.9774237164545
 10
-4783.178153218477
 20
1737.7811306370793
 10
-4814.6353821808125
 20
1664.0074724602753
 10
-4844.954083965358
 20
1589.6738557900014
 10
-4874.12442135647
 20
1514.7978623739725
 10
-4902.136828830428
 20
1439.397244953497
 10
-4928.982015501826
 20
1363.4899230619974
 10
-4954.650968004961
 20
1287.0939787730538
 10
-4979.134953309343
 20
1210.2276523990963
 10
-5002.42552146847
 20
1132.9093381417156
 10
-5024.514508301064
 20
1055.1575796946408
 10
-5045.394038003953
 20
976.9910658004319
 10
-5065.056525695795
 20
898.4286257619518
 10
-5083.49467989089
 20
819.4892249096931
 10
-5100.701504902288
 20
740.191960026051
 10
-5116.670303173496
 20
660.5560547276473
 10
-5131.394677538
 20
580.6008548068262
 10
-5144.868533405968
 20
500.3458235334025
 10
-5157.086080877354
 20
419.81053691793153
 10
-5168.041836780821
 20
339.0146789374776
 10
-5177.730626637764
 20
257.97803672517875
 10
-5186.147586550829
 20
176.72049572472864
 10
-5193.288165016303
 20
95.26203481097224
 10
-5199.148124659764
 20
13.622721377811377
 10
-5203.723543894437
 20
-68.1772936053711
 10
-5207.010818501675
 20
-150.11778056755165
 10
-5209.006663133023
 20
-232.17843633894253
 10
-5209.7081127333495
 20
-314.33888918166735
 10
-5209.112523884554
 20
-396.57870384698964
 10
-5207.217576069343
 20
-478.877386657829
 10
-5204.0212728546185
 20
-561.2143906153572
 10
-5199.52194299406
 20
-643.569120528262
 10
-5193.718241449438
 20
-725.9209381635848
 10
-5186.609150330286
 20
-808.2491674177035
 10
-5178.193979751533
 20
-890.533099506222
 10
-5168.472368608752
 20
-972.7519981714564
 10
-5157.4442852706525
 20
-1054.885104906203
 10
-5145.110028188534
 20
-1136.9116441924793
 10
-5131.47022642237
 20
-1218.8108287539137
 10
-5116.525840083269
 20
-1300.561864820454
 10
-5100.278160692032
 20
-1382.1439574040685
 10
-5082.728811453592
 20
-1463.536315584094
 10
-5063.8797474471085
 20
-1544.7181578008874
 10
-5043.733255731512
 20
-1625.668717156493
 10
-5022.291955366383
 20
-1706.3672467207714
 10
-4999.55879734791
 20
-1786.7930248420314
 10
-4975.537064459939
 20
-1866.925360460269
 10
-4950.230371039846
 20
-1946.7435984222434
 10
-4923.642662659324
 20
-2026.2271247964334
 10
-4895.7782157198435
 20
-2105.355372187081
 10
-4866.641636962889
 20
-2184.107825045488
 10
-4836.2378628949
 20
-2262.464024977395
 10
-4804.5721591268475
 20
-2340.403576045239
 10
-4771.650119628642
 20
-2417.9061500634716
 10
-4737.477665898197
 20
-2494.9514918861273
 10
-4702.061046045467
 20
-2571.5194246846945
 10
-4665.406833791285
 20
-2647.589855215484
 10
-4627.521927381383
 20
-2723.142779074565
 10
-4588.413548415459
 20
-2798.1582859394534
 10
-4548.08924059173
 20
-2872.6165647956277
 10
-4506.55686836685
 20
-2946.4979091470614
 10
-4463.82461553171
 20
-3019.7827222088604
 10
-4419.900983703041
 20
-3092.451522081153
 10
-4374.794790731286
 20
-3164.484946902471
 10
-4328.515169024963
 20
-3235.8637599814247
 10
-4281.071563791646
 20
-3306.5688549054757
 10
-4232.473731196179
 20
-3376.581260625056
 10
-4182.731736436102
 20
-3445.88214651219
 10
-4131.855951735024
 20
-3514.452827391764
 10
-4079.857054253902
 20
-3582.2747685446
 10
-4026.7460239210704
 20
-3649.329590680532
 10
-3972.5341411810045
 20
-3715.599074880618
 10
-3917.2329846626703
 20
-3781.0651675067056
 10
-3860.8544287675277
 20
-3845.709985077508
 10
-3803.4106411780704
 20
-3909.5158191094015
 10
-3744.9140802870193
 20
-3972.465140921117
 10
-3685.3774925480097
 20
-4034.540606400653
 10
-3624.813909748203
 20
-4095.72506073327
 10
-3563.2366462032487
 20
-4156.0015430894455
 10
-3500.659295875532
 20
-4215.353291271146
 10
-3437.095729415884
 20
-4273.763746315608
 10
-3372.5600911298434
 20
-4331.216557054917
 10
-3307.0667958686663
 20
-4387.695584630597
 10
-3240.6305258462025
 20
-4443.184906961532
 10
-3173.266227381891
 20
-4497.66882316442
 10
-3104.9891075710357
 20
-4551.131857925155
 10
-3035.8146308826313
 20
-4603.558765820304
 10
-2965.758515685967
 20
-4654.9345355871255
 10
-2894.836730706317
 20
-4705.244394341308
 10
-2823.0654914108763
 20
-4754.473811740959
 10
-2750.461256325628
 20
-4802.608504095831
 10
-2677.0407232837756
 20
-4849.634438420721
 10
-2602.8208256070257
 20
-4895.53783643166
 10
-2527.818728220061
 20
-4940.305178484099
 10
-2452.0518236996263
 20
-4983.923207451646
 10
-2375.5377282585973
 20
-5026.378932544605
 10
-2298.294277666498
 20
-5067.659633066906
 10
-2220.3395231068503
 20
-5107.752862110671
 10
-2141.691726972881
 20
-5146.646450187089
 10
-2062.369358601994
 20
-5184.3285087928225
 10
-1982.391089950562
 20
-5220.787433910674
 10
-1901.775791209509
 20
-5256.011909443756
 10
-1820.5425263621428
 20
-5289.990910581975
 10
-1738.7105486851117
 20
-5322.713707099932
 10
-1656.2992961933596
 20
-5354.16986658537
 10
-1573.328387030609
 20
-5384.349257597034
 10
-1489.8176148058951
 20
-5413.242052751236
 10
-1405.786943877853
 20
-5440.838731736016
 10
-1321.2565045872802
 20
-5467.130084252206
 10
-1236.2465884397093
 20
-5492.107212880319
 10
-1150.777643238546
 20
-5515.761535872623
 10
-1064.87026817054
 20
-5538.084789869357
 10
-978.5452088441598
 20
-5559.069032538455
 10
-891.8233522826808
 20
-5578.70664513781
 10
-804.7257218725941
 20
-5596.990334999453
 10
-717.2734722690451
 20
-5613.913137934766
 10
-629.4878842593391
 20
-5629.468420560025
 10
-541.3903595855642
 20
-5643.649882541595
 10
-453.0024157280845
 20
-5656.451558759971
 10
-364.3456806505611
 20
-5667.86782139211
 10
-275.441887508419
 20
-5677.893381911249
 10
-186.3128693214178
 20
-5686.5232930036855
 10
-96.9805536122706
 20
-5693.75295040182
 10
-7.466957011986868
 20
-5699.578094632892
 10
82.20582016609067
 20
-5703.9948126828
 10
172.01559938284245
 20
-5706.999539574487
 10
261.94012935867005
 20
-5708.589059860291
 10
351.95709158638044
 20
-5708.760509027795
 10
442.044105870495
 20
-5707.511374818644
 10
532.178735891099
 20
-5704.839498459867
 10
622.3384947914807
 20
-5700.743075807241
 10
712.500850787515
 20
-5695.220658400275
 10
802.6432327980463
 20
-5688.27115442838
 10
892.7430360942118
 20
-5679.893829607879
 10
982.7776279669403
 20
-5670.088307969424
 10
1072.7243534105578
 20
-5658.854572555554
 10
1162.5605408217248
 20
-5646.192966028001
 10
1252.2635077116145
 20
-5632.104191184492
 10
1341.8105664305342
 20
-5616.589311384753
 10
1431.1790299030272
 20
-5599.649750885454
 10
1520.3462173722164
 20
-5581.287295083894
 10
1609.289460152135
 20
-5561.504090670163
 10
1697.9861073860839
 20
-5540.302645687689
 10
1786.413531810172
 20
-5517.685829501868
 10
1874.5491355199454
 20
-5493.656872676824
 10
1962.370355739257
 20
-5468.219366759984
 10
2049.85467058929
 20
-5441.377263974567
 10
2136.9796048568774
 20
-5413.134876819747
 10
2223.7227357600245
 20
-5383.496877578613
 10
2310.0616987097765
 20
-5352.468297733727
 10
2395.9741930663313
 20
-5320.054527290485
 10
2481.4379878885243
 20
-5286.261314008094
 10
2566.4309276747113
 20
-5251.094762538393
 10
2650.930938093775
 20
-5214.561333472537
 10
2734.916031704961
 20
-5176.667842295529
 10
2818.3643136645833
 20
-5137.421458248959
 10
2901.2539874187196
 20
-5096.829703101816
 10
2983.5633603798074
 20
-5054.900449829827
 10
3065.270849586272
 20
-5011.641921203229
 10
3146.3549873431148
 20
-4967.062688283483
 10
3226.794426842585
 20
-4921.171668828879
 10
3306.567947762878
 20
-4873.978125609582
 10
3385.654461843988
 20
-4825.491664632131
 10
3464.0330184386657
 20
-4775.722233273974
 10
3541.6828100375847
 20
-4724.680118328108
 10
3618.583177766828
 20
-4672.375943958401
 10
3694.713616856413
 20
-4618.820669565907
 10
3770.0537820785967
 20
-4564.025587566437
 10
3844.583493154093
 20
-4508.002321080127
 10
3918.2827401252907
 20
-4450.762821533074
 10
3991.1316886945338
 20
-4392.31936617191
 10
4063.1106855265452
 20
-4332.68455549141
 10
4134.200263513098
 20
-4271.871310576072
 10
4204.381146999016
 20
-4209.892870355784
 10
4273.634256967624
 20
-4146.762788776585
 10
4341.940716184747
 20
-4082.4949318866566
 10
4409.281854299398
 20
-4017.1034748386287
 10
4475.639212900261
 20
-3950.602898808364
 10
4540.994550526209
 20
-3883.007987831263
 10
4605.3298476296995
 20
-3814.3338255566136
 10
4668.6273114918085
 20
-3744.5957919205325
 10
4730.869381087249
 20
-3673.8095597386096
 10
4792.038731898479
 20
-3601.991091218514
 10
4852.118280677147
 20
-3529.156634393841
 10
4911.0911901520185
 20
-3455.3227194794617
 10
4968.940873681684
 20
-3380.5061551497197
 10
5025.650999851164
 20
-3304.724024739762
 10
5081.205497010784
 20
-3227.9936823714065
 10
5135.58855775644
 20
-3150.332749003861
 10
5188.784643349648
 20
-3071.759108410742
 10
5240.778488076521
 20
-2992.2909030837645
 10
5291.555103544187
 20
-2911.946530064482
 10
5341.099782913549
 20
-2830.7446367048337
 10
5389.398105067349
 20
-2748.704116357315
 10
5436.435938712088
 20
-2665.844103996194
 10
5482.1994464129675
 20
-2582.183971770231
 10
5526.675088560433
 20
-2497.743324488515
 10
5569.849627267487
 20
-2412.541995039872
 10
5611.710130196368
 20
-2326.6000397475104
 10
5652.243974313836
 20
-2239.9377336593852
 10
5691.438849573676
 20
-2152.575565775993
 10
5729.282762525679
 20
-2064.5342342160993
 10
5765.764039849778
 20
-1975.8346413221689
 10
5800.871331814578
 20
-1886.4978887060265
 10
5834.593615659111
 20
-1796.545272236438
 10
5866.92019889688
 20
-1705.9982769695832
 10
5897.8407225413275
 20
-1614.8785720234332
 10
5927.345164251606
 20
-1523.2080053977568
 10
5955.4238413979365
 20
-1431.0085987403627
 10
5982.067414045438
 20
-1338.302542061483
 10
6007.266887855764
 20
-1245.1121883969108
 10
6031.013616905466
 20
-1151.4600484218317
 10
6053.299306420436
 20
-1057.368785015984
 10
6074.1160154254385
 20
-962.8612077821283
 10
6093.456159308074
 20
-867.9602675184773
 10
6111.312512296252
 20
-772.6890506471
 10
6127.678209848548
 20
-677.070773598999
 10
6142.546750956596
 20
-581.1287771577524
 10
6155.912000358841
 20
-484.88652076289185
 10
6167.768190664996
 20
-388.3675767741844
 10
6178.109924390421
 20
-291.5956246987649
 10
6186.932175899902
 20
-194.59444538185903
 10
6194.230293260078
 20
-97.38791516321841
 10
6200.0
 20
-4.5556860928281536e-12
  0
TEXT
  5
8B
330
17
100
AcDbEntity
  8
0
100
AcDbText
 10
495.14594363332526
 20
7315.44662470199
 30
0.0
 40
583.4844795910944
  1
Spiral | w=400m | outer+0.2mm | wall_ratio=0.3 | loops=3 r0=200m s=2000m
 11
495.14594363332526
 21
7315.44662470199
 31
0.0
100
AcDbText
  0
TEXT
  5
8C
330
17
100
AcDbEntity
  8
0
100
AcDbText
 10
506.81563322514717
 20
7315.44662470199
 30
0.0
 40
583.4844795910944
  1
Spiral | w=400m | outer+0.2mm | wall_ratio=0.3 | loops=3 r0=200m s=2000m
 11
506.81563322514717
 21
7315.44662470199
 31
0.0
100
AcDbText
  0
ENDSEC
  0
SECTION
  2
OBJECTS
  0
DICTIONARY
  5
A
330
0
100
AcDbDictionary
281
1
  3
ACAD_COLOR
350
B
  3
ACAD_GROUP
350
C
  3
ACAD_LAYOUT
350
D
  3
ACAD_MATERIAL
350
E
  3
ACAD_MLEADERSTYLE
350
F
  3
ACAD_MLINESTYLE
350
10
  3
ACAD_PLOTSETTINGS
350
11
  3
ACAD_PLOTSTYLENAME
350
12
  3
ACAD_SCALELIST
350
14
  3
ACAD_TABLESTYLE
350
15
  3
ACAD_VISUALSTYLE
350
16
  3
EZDXF_META
350
2D
  0
DICTIONARY
  5
B
330
A
100
AcDbDictionary
281
1
  0
DICTIONARY
  5
C
330
A
100
AcDbDictionary
281
1
  0
DICTIONARY
  5
D
330
A
100
AcDbDictionary
281
1
  3
Model
350
1A
  3
Layout1
350
1E
  0
DICTIONARY
  5
E
330
A
100
AcDbDictionary
281
1
  3
ByBlock
350
1F
  3
ByLayer
350
20
  3
Global
350
21
  0
DICTIONARY
  5
F
330
A
100
AcDbDictionary
281
1
  3
Standard
350
2C
  0
DICTIONARY
  5
10
330
A
100
AcDbDictionary
281
1
  3
Standard
350
22
  0
DICTIONARY
  5
11
330
A
100
AcDbDictionary
281
1
  0
ACDBDICTIONARYWDFLT
  5
12
330
A
100
AcDbDictionary
281
1
  3
Normal
350
13
100
AcDbDictionaryWithDefault
340
13
  0
ACDBPLACEHOLDER
  5
13
330
12
  0
DICTIONARY
  5
14
330
A
100
AcDbDictionary
281
1
  0
DICTIONARY
  5
15
330
A
100
AcDbDictionary
281
1
  0
DICTIONARY
  5
16
330
A
100
AcDbDictionary
281
1
  3
2dWireframe
350
5A
  3
Basic
350
5B
  3
Brighten
350
5C
  3
ColorChange
350
5D
  3
Conceptual
350
5E
  3
Dim
350
5F
  3
EdgeColorOff
350
60
  3
Facepattern
350
61
  3
Flat
350
62
  3
FlatWithEdges
350
63
  3
Gouraud
350
64
  3
GouraudWithEdges
350
65
  3
Hidden
350
66
  3
JitterOff
350
67
  3
Linepattern
350
68
  3
Modeling
350
69
  3
OverhangOff
350
6A
  3
Realistic
350
6B
  3
Shaded
350
6C
  3
Shaded with edges
350
6D
  3
Shades of Gray
350
6E
  3
Sketchy
350
6F
  3
Thicken
350
70
  3
Wireframe
350
71
  3
X-Ray
350
72
  0
LAYOUT
  5
1A
330
D
100
AcDbPlotSettings
  1

  4
A3
  6

 40
7.5
 41
20.0
 42
7.5
 43
20.0
 44
420.0
 45
297.0
 46
0.0
 47
0.0
 48
0.0
 49
0.0
140
0.0
141
0.0
142
1.0
143
1.0
 70
1024
 72
1
 73
0
 74
5
  7

 75
16
 76
0
 77
2
 78
300
147
1.0
148
0.0
149
0.0
100
AcDbLayout
  1
Model
 70
1
 71
0
 10
0.0
 20
0.0
 11
420.0
 21
297.0
 12
0.0
 22
0.0
 32
0.0
 14
1e+20
 24
1e+20
 34
1e+20
 15
-1e+20
 25
-1e+20
 35
-1e+20
146
0.0
 13
0.0
 23
0.0
 33
0.0
 16
1.0
 26
0.0
 36
0.0
 17
0.0
 27
1.0
 37
0.0
 76
1
330
17
  0
LAYOUT
  5
1E
330
D
100
AcDbPlotSettings
  1

  4
A3
  6

 40
7.5
 41
20.0
 42
7.5
 43
20.0
 44
420.0
 45
297.0
 46
0.0
 47
0.0
 48
0.0
 49
0.0
140
0.0
141
0.0
142
1.0
143
1.0
 70
0
 72
1
 73
0
 74
5
  7

 75
16
 76
0
 77
2
 78
300
147
1.0
148
0.0
149
0.0
100
AcDbLayout
  1
Layout1
 70
1
 71
1
 10
0.0
 20
0.0
 11
420.0
 21
297.0
 12
0.0
 22
0.0
 32
0.0
 14
1e+20
 24
1e+20
 34
1e+20
 15
-1e+20
 25
-1e+20
 35
-1e+20
146
0.0
 13
0.0
 23
0.0
 33
0.0
 16
1.0
 26
0.0
 36
0.0
 17
0.0
 27
1.0
 37
0.0
 76
1
330
1B
  0
MATERIAL
  5
1F
102
{ACAD_REACTORS
330
E
102
}
330
E
100
AcDbMaterial
  1
ByBlock
  2

 70
0
 40
1.0
 71
1
 41
1.0
 91
-1023410177
 42
1.0
 72
1
  3

 73
1
 74
1
 75
1
 44
0.5
 73
0
 45
1.0
 46
1.0
 77
1
  4

 78
1
 79
1
170
1
 48
1.0
171
1
  6

172
1
173
1
174
1
140
1.0
141
1.0
175
1
  7

176
1
177
1
178
1
143
1.0
179
1
  8

270
1
271
1
272
1
145
1.0
146
1.0
273
1
  9

274
1
275
1
276
1
 42
1.0
 72
1
  3

 73
1
 74
1
 75
1
 94
63
  0
MATERIAL
  5
20
102
{ACAD_REACTORS
330
E
102
}
330
E
100
AcDbMaterial
  1
ByLayer
  2

 70
0
 40
1.0
 71
1
 41
1.0
 91
-1023410177
 42
1.0
 72
1
  3

 73
1
 74
1
 75
1
 44
0.5
 73
0
 45
1.0
 46
1.0
 77
1
  4

 78
1
 79
1
170
1
 48
1.0
171
1
  6

172
1
173
1
174
1
140
1.0
141
1.0
175
1
  7

176
1
177
1
178
1
143
1.0
179
1
  8

270
1
271
1
272
1
145
1.0
146
1.0
273
1
  9

274
1
275
1
276
1
 42
1.0
 72
1
  3

 73
1
 74
1
 75
1
 94
63
  0
MATERIAL
  5
21
102
{ACAD_REACTORS
330
E
102
}
330
E
100
AcDbMaterial
  1
Global
  2

 70
0
 40
1.0
 71
1
 41
1.0
 91
-1023410177
 42
1.0
 72
1
  3

 73
1
 74
1
 75
1
 44
0.5
 73
0
 45
1.0
 46
1.0
 77
1
  4

 78
1
 79
1
170
1
 48
1.0
171
1
  6

172
1
173
1
174
1
140
1.0
141
1.0
175
1
  7

176
1
177
1
178
1
143
1.0
179
1
  8

270
1
271
1
272
1
145
1.0
146
1.0
273
1
  9

274
1
275
1
276
1
 42
1.0
 72
1
  3

 73
1
 74
1
 75
1
 94
63
  0
MLINESTYLE
  5
22
102
{ACAD_REACTORS
330
10
102
}
330
10
100
AcDbMlineStyle
  2
Standard
 70
0
  3

 62
256
 51
90.0
 52
90.0
 71
2
 49
0.5
 62
256
  6
BYLAYER
 49
-0.5
 62
256
  6
BYLAYER
  0
MLEADERSTYLE
  5
2C
102
{ACAD_REACTORS
330
F
102
}
330
F
100
AcDbMLeaderStyle
179
2
170
2
171
1
172
0
 90
2
 40
0.0
 41
0.0
173
1
 91
-1056964608
 92
-2
290
1
 42
2.0
291
1
 43
8.0
  3
Standard
 44
4.0
300

342
29
174
1
175
1
176
0
178
1
 93
-1056964608
 45
4.0
292
0
297
0
 46
4.0
 94
-1056964608
 47
1.0
 49
1.0
140
1.0
294
1
141
0.0
177
0
142
1.0
295
0
296
0
143
3.75
271
0
272
9
273
9
  0
DICTIONARY
  5
2D
330
A
100
AcDbDictionary
280
1
281
1
  3
CREATED_BY_EZDXF
350
2E
  3
WRITTEN_BY_EZDXF
350
8F
  0
DICTIONARYVAR
  5
2E
330
2D
100
DictionaryVariables
280
0
  1
1.4.3 @ 2025-11-20T06:42:19.288677+00:00
  0
VISUALSTYLE
  5
5A
102
{ACAD_REACTORS
330
16
102
}
330
16
100
AcDbVisualStyle
  2
2dWireframe
 70
4
177
3
291
0
 70
58
 90
2
176
1
 90
2
176
1
 90
0
176
1
 90
0
176
1
 40
0.6
176
1
 40
30.0
176
1
 62
7
420
16777215
176
1
 90
1
176
1
 90
4
176
1
 62
7
176
1
 62
257
176
1
 90
1
176
1
 90
1
176
1
 40
1.0
176
1
 90
8
176
1
 62
7
176
1
 40
1.0
176
1
 90
1
176
1
 90
6
176
1
 90
2
176
1
 62
7
176
1
 90
5
176
1
 90
0
176
1
 90
0
176
1
290
0
176
1
 90
1
176
1
 40
0.0
176
1
 90
0
176
1
290
1
176
1
290
1
176
1
290
0
176
1
290
0
176
1
290
0
176
1
290
0
176
1
290
0
176
1
290
0
176
1
290
0
176
1
 90
50
176
1
 40
0.0
176
1
 40
1.0
176
1
 90
0
176
1
 62
18
420
0
176
1
 90
50
176
1
 90
3
176
1
 62
5
420
255
176
1
290
0
176
1
 90
50
176
1
 90
50
176
1
 90
50
176
1
290
0
176
1
 90
50
176
1
 62
256
176
0
 40
1.0
176
0
 90
2
176
1
  1
strokes_ogs.tif
176
1
290
0
176
1
 40
1.0
176
1
 40
1.0
176
1
  0
VISUALSTYLE
  5
5B
102
{ACAD_REACTORS
330
16
102
}
330
16
100
AcDbVisualStyle
  2
Basic
 70
7
177
3
291
1
 70
58
 90
2
176
1
 90
2
176
1
 90
0
176
1
 90
1
176
1
 40
0.6
176
1
 40
30.0
176
1
 62
7
420
16777215
176
1
 90
1
176
1
 90
4
176
1
 62
7
176
1
 62
257
176
1
 90
1
176
1
 90
1
176
1
 40
1.0
176
1
 90
8
176
1
 62
7
176
1
 40
1.0
176
1
 90
1
176
1
 90
6
176
1
 90
2
176
1
 62
7
176
1
 90
5
176
1
 90
0
176
1
 90
0
176
1
290
0
176
1
 90
1
176
1
 40
0.0
176
1
 90
0
176
1
290
0
176
1
290
1
176
1
290
1
176
1
290
0
176
1
290
0
176
1
290
0
176
1
290
0
176
1
290
0
176
1
290
0
176
1
 90
50
176
1
 40
0.0
176
1
 40
1.0
176
1
 90
0
176
1
 62
18
420
0
176
1
 90
50
176
1
 90
3
176
1
 62
5
420
255
176
1
290
0
176
1
 90
50
176
1
 90
50
176
1
 90
50
176
1
290
0
176
1
 90
50
176
1
 62
256
176
0
 40
1.0
176
0
 90
2
176
1
  1
strokes_ogs.tif
176
1
290
0
176
1
 40
1.0
176
1
 40
1.0
176
1
  0
VISUALSTYLE
  5
5C
102
{ACAD_REACTORS
330
16
102
}
330
16
100
AcDbVisualStyle
  2
Brighten
 70
12
177
3
291
1
 70
58
 90
2
176
1
 90
2
176
1
 90
0
176
1
 90
2
176
1
 40
0.6
176
1
 40
30.0
176
1
 62
7
420
16777215
176
1
 90
1
176
1
 90
4
176
1
 62
7
176
1
 62
257
176
1
 90
1
176
1
 90
1
176
1
 40
1.0
176
1
 90
8
176
1
 62
7
176
1
 40
1.0
176
1
 90
1
176
1
 90
6
176
1
 90
2
176
1
 62
7
176
1
 90
5
176
1
 90
0
176
1
 90
0
176
1
290
0
176
1
 90
1
176
1
 40
0.0
176
1
 90
0
176
1
290
0
176
1
290
1
176
1
290
1
176
1
290
0
176
1
290
0
176
1
290
0
176
1
290
0
176
1
290
0
176
1
290
0
176
1
 90
50
176
1
 40
0.0
176
1
 40
1.0
176
1
 90
0
176
1
 62
18
420
0
176
1
 90
50
176
1
 90
3
176
1
 62
5
420
255
176
1
290
0
176
1
 90
50
176
1
 90
50
176
1
 90
50
176
1
290
0
176
1
 90
50
176
1
 62
256
176
0
 40
1.0
176
0
 90
2
176
1
  1
strokes_ogs.tif
176
1
290
0
176
1
 40
1.0
176
1
 40
1.0
176
1
  0
VISUALSTYLE
  5
5D
102
{ACAD_REACTORS
330
16
102
}
330
16
100
AcDbVisualStyle
  2
ColorChange
 70
16
177
3
291
1
 70
58
 90
2
176
1
 90
2
176
1
 90
0
176
1
 90
2
176
1
 40
0.6
176
1
 40
30.0
176
1
 62
7
420
16777215
176
1
 90
1
176
1
 90
4
176
1
 62
7
176
1
 62
257
176
1
 90
1
176
1
 90
1
176
1
 40
1.0
176
1
 90
8
176
1
 62
7
176
1
 40
1.0
176
1
 90
1
176
1
 90
6
176
1
 90
2
176
1
 62
7
176
1
 90
5
176
1
 90
0
176
1
 90
0
176
1
290
0
176
1
 90
1
176
1
 40
0.0
176
1
 90
0
176
1
290
0
176
1
290
1
176
1
290
1
176
1
290
0
176
1
290
0
176
1
290
0
176
1
290
0
176
1
290
0
176
1
290
0
176
1
 90
50
176
1
 40
0.0
176
1
 40
1.0
176
1
 90
0
176
1
 62
18
420
0
176
1
 90
50
176
1
 90
3
176
1
 62
5
420
255
176
1
290
0
176
1
 90
50
176
1
 90
50
176
1
 90
50
176
1
290
0
176
1
 90
50
176
1
 62
256
176
0
 40
1.0
176
0
 90
2
176
1
  1
strokes_ogs.tif
176
1
290
0
176
1
 40
1.0
176
1
 40
1.0
176
1
  0
VISUALSTYLE
  5
5E
102
{ACAD_REACTORS
330
16
102
}
330
16
100
AcDbVisualStyle
  2
Conceptual
 70
9
177
3
291
0
 70
58
 90
2
176
1
 90
2
176
1
 90
0
176
1
 90
3
176
1
 40
0.6
176
1
 40
30.0
176
1
 62
7
420
16777215
176
1
 90
1
176
1
 90
4
176
1
 62
7
176
1
 62
257
176
1
 90
1
176
1
 90
1
176
1
 40
1.0
176
1
 90
8
176
1
 62
7
176
1
 40
1.0
176
1
 90
1
176
1
 90
6
176
1
 90
2
176
1
 62
7
176
1
 90
5
176
1
 90
0
176
1
 90
0
176
1
290
0
176
1
 90
1
176
1
 40
0.0
176
1
 90
0
176
1
290
0
176
1
290
1
176
1
290
1
176
1
290
0
176
1
290
0
176
1
290
0
176
1
290
0
176
1
290
0
176
1
290
0
176
1
 90
50
176
1
 40
0.0
176
1
 40
1.0
176
1
 90
0
176
1
 62
18
420
0
176
1
 90
50
176
1
 90
3
176
1
 62
5
420
255
176
1
290
0
176
1
 90
50
176
1
 90
50
176
1
 90
50
176
1
290
0
176
1
 90
50
176
1
 62
256
176
0
 40
1.0
176
0
 90
2
176
1
  1
strokes_ogs.tif
176
1
290
0
176
1
 40
1.0
176
1
 40
1.0
176
1
  0
VISUALSTYLE
  5
5F
102
{ACAD_REACTORS
330
16
102
}
330
16
100
AcDbVisualStyle
  2
Dim
 70
11
177
3
291
1
 70
58
 90
2
176
1
 90
2
176
1
 90
0
176
1
 90
2
176
1
 40
0.6
176
1
 40
30.0
176
1
 62
7
420
16777215
176
1
 90
1
176
1
 90
4
176
1
 62
7
176
1
 62
257
176
1
 90
1
176
1
 90
1
176
1
 40
1.0
176
1
 90
8
176
1
 62
7
176
1
 40
1.0
176
1
 90
1
176
1
 90
6
176
1
 90
2
176
1
 62
7
176
1
 90
5
176
1
 90
0
176
1
 90
0
176
1
290
0
176
1
 90
1
176
1
 40
0.0
176
1
 90
0
176
1
290
0
176
1
290
1
176
1
290
1
176
1
290
0
176
1
290
0
176
1
290
0
176
1
290
0
176
1
290
0
176
1
290
0
176
1
 90
50
176
1
 40
0.0
176
1
 40
1.0
176
1
 90
0
176
1
 62
18
420
0
176
1
 90
50
176
1
 90
3
176
1
 62
5
420
255
176
1
290
0
176
1
 90
50
176
1
 90
50
176
1
 90
50
176
1
290
0
176
1
 90
50
176
1
 62
256
176
0
 40
1.0
176
0
 90
2
176
1
  1
strokes_ogs.tif
176
1
290
0
176
1
 40
1.0
176
1
 40
1.0
176
1
  0
VISUALSTYLE
  5
60
102
{ACAD_REACTORS
330
16
102
}
330
16
100
AcDbVisualStyle
  2
EdgeColorOff
 70
22
177
3
291
1
 70
58
 90
2
176
1
 90
2
176
1
 90
0
176
1
 90
2
176
1
 40
0.6
176
1
 40
30.0
176
1
 62
7
420
16777215
176
1
 90
1
176
1
 90
4
176
1
 62
7
176
1
 62
257
176
1
 90
1
176
1
 90
1
176
1
 40
1.0
176
1
 90
8
176
1
 62
7
176
1
 40
1.0
176
1
 90
1
176
1
 90
6
176
1
 90
2
176
1
 62
7
176
1
 90
5
176
1
 90
0
176
1
 90
0
176
1
290
0
176
1
 90
1
176
1
 40
0.0
176
1
 90
0
176
1
290
0
176
1
290
1
176
1
290
1
176
1
290
0
176
1
290
0
176
1
290
0
176
1
290
0
176
1
290
0
176
1
290
0
176
1
 90
50
176
1
 40
0.0
176
1
 40
1.0
176
1
 90
0
176
1
 62
18
420
0
176
1
 90
50
176
1
 90
3
176
1
 62
5
420
255
176
1
290
0
176
1
 90
50
176
1
 90
50
176
1
 90
50
176
1
290
0
176
1
 90
50
176
1
 62
256
176
0
 40
1.0
176
0
 90
2
176
1
  1
strokes_ogs.tif
176
1
290
0
176
1
 40
1.0
176
1
 40
1.0
176
1
  0
VISUALSTYLE
  5
61
102
{ACAD_REACTORS
330
16
102
}
330
16
100
AcDbVisualStyle
  2
Facepattern
 70
15
177
3
291
1
 70
58
 90
2
176
1
 90
2
176
1
 90
0
176
1
 90
2
176
1
 40
0.6
176
1
 40
30.0
176
1
 62
7
420
16777215
176
1
 90
1
176
1
 90
4
176
1
 62
7
176
1
 62
257
176
1
 90
1
176
1
 90
1
176
1
 40
1.0
176
1
 90
8
176
1
 62
7
176
1
 40
1.0
176
1
 90
1
176
1
 90
6
176
1
 90
2
176
1
 62
7
176
1
 90
5
176
1
 90
0
176
1
 90
0
176
1
290
0
176
1
 90
1
176
1
 40
0.0
176
1
 90
0
176
1
290
0
176
1
290
1
176
1
290
1
176
1
290
0
176
1
290
0
176
1
290
0
176
1
290
0
176
1
290
0
176
1
290
0
176
1
 90
50
176
1
 40
0.0
176
1
 40
1.0
176
1
 90
0
176
1
 62
18
420
0
176
1
 90
50
176
1
 90
3
176
1
 62
5
420
255
176
1
290
0
176
1
 90
50
176
1
 90
50
176
1
 90
50
176
1
290
0
176
1
 90
50
176
1
 62
256
176
0
 40
1.0
176
0
 90
2
176
1
  1
strokes_ogs.tif
176
1
290
0
176
1
 40
1.0
176
1
 40
1.0
176
1
  0
VISUALSTYLE
  5
62
102
{ACAD_REACTORS
330
16
102
}
330
16
100
AcDbVisualStyle
  2
Flat
 70
0
177
3
291
1
 70
58
 90
2
176
1
 90
2
176
1
 90
0
176
1
 90
2
176
1
 40
0.6
176
1
 40
30.0
176
1
 62
7
420
16777215
176
1
 90
1
176
1
 90
4
176
1
 62
7
176
1
 62
257
176
1
 90
1
176
1
 90
1
176
1
 40
1.0
176
1
 90
8
176
1
 62
7
176
1
 40
1.0
176
1
 90
1
176
1
 90
6
176
1
 90
2
176
1
 62
7
176
1
 90
5
176
1
 90
0
176
1
 90
0
176
1
290
0
176
1
 90
1
176
1
 40
0.0
176
1
 90
0
176
1
290
0
176
1
290
1
176
1
290
1
176
1
290
0
176
1
290
0
176
1
290
0
176
1
290
0
176
1
290
0
176
1
290
0
176
1
 90
50
176
1
 40
0.0
176
1
 40
1.0
176
1
 90
0
176
1
 62
18
420
0
176
1
 90
50
176
1
 90
3
176
1
 62
5
420
255
176
1
290
0
176
1
 90
50
176
1
 90
50
176
1
 90
50
176
1
290
0
176
1
 90
50
176
1
 62
256
176
0
 40
1.0
176
0
 90
2
176
1
  1
strokes_ogs.tif
176
1
290
0
176
1
 40
1.0
176
1
 40
1.0
176
1
  0
VISUALSTYLE
  5
63
102
{ACAD_REACTORS
330
16
102
}
330
16
100
AcDbVisualStyle
  2
FlatWithEdges
 70
1
177
3
291
1
 70
58
 90
2
176
1
 90
2
176
1
 90
0
176
1
 90
2
176
1
 40
0.6
176
1
 40
30.0
176
1
 62
7
420
16777215
176
1
 90
1
176
1
 90
4
176
1
 62
7
176
1
 62
257
176
1
 90
1
176
1
 90
1
176
1
 40
1.0
176
1
 90
8
176
1
 62
7
176
1
 40
1.0
176
1
 90
1
176
1
 90
6
176
1
 90
2
176
1
 62
7
176
1
 90
5
176
1
 90
0
176
1
 90
0
176
1
290
0
176
1
 90
1
176
1
 40
0.0
176
1
 90
0
176
1
290
0
176
1
290
1
176
1
290
1
176
1
290
0
176
1
290
0
176
1
290
0
176
1
290
0
176
1
290
0
176
1
290
0
176
1
 90
50
176
1
 40
0.0
176
1
 40
1.0
176
1
 90
0
176
1
 62
18
420
0
176
1
 90
50
176
1
 90
3
176
1
 62
5
420
255
176
1
290
0
176
1
 90
50
176
1
 90
50
176
1
 90
50
176
1
290
0
176
1
 90
50
176
1
 62
256
176
0
 40
1.0
176
0
 90
2
176
1
  1
strokes_ogs.tif
176
1
290
0
176
1
 40
1.0
176
1
 40
1.0
176
1
  0
VISUALSTYLE
  5
64
102
{ACAD_REACTORS
330
16
102
}
330
16
100
AcDbVisualStyle
  2
Gouraud
 70
2
177
3
291
1
 70
58
 90
2
176
1
 90
2
176
1
 90
0
176
1
 90
2
176
1
 40
0.6
176
1
 40
30.0
176
1
 62
7
420
16777215
176
1
 90
1
176
1
 90
4
176
1
 62
7
176
1
 62
257
176
1
 90
1
176
1
 90
1
176
1
 40
1.0
176
1
 90
8
176
1
 62
7
176
1
 40
1.0
176
1
 90
1
176
1
 90
6
176
1
 90
2
176
1
 62
7
176
1
 90
5
176
1
 90
0
176
1
 90
0
176
1
290
0
176
1
 90
1
176
1
 40
0.0
176
1
 90
0
176
1
290
0
176
1
290
1
176
1
290
1
176
1
290
0
176
1
290
0
176
1
290
0
176
1
290
0
176
1
290
0
176
1
290
0
176
1
 90
50
176
1
 40
0.0
176
1
 40
1.0
176
1
 90
0
176
1
 62
18
420
0
176
1
 90
50
176
1
 90
3
176
1
 62
5
420
255
176
1
290
0
176
1
 90
50
176
1
 90
50
176
1
 90
50
176
1
290
0
176
1
 90
50
176
1
 62
256
176
0
 40
1.0
176
0
 90
2
176
1
  1
strokes_ogs.tif
176
1
290
0
176
1
 40
1.0
176
1
 40
1.0
176
1
  0
VISUALSTYLE
  5
65
102
{ACAD_REACTORS
330
16
102
}
330
16
100
AcDbVisualStyle
  2
GouraudWithEdges
 70
3
177
3
291
1
 70
58
 90
2
176
1
 90
2
176
1
 90
0
176
1
 90
2
176
1
 40
0.6
176
1
 40
30.0
176
1
 62
7
420
16777215
176
1
 90
1
176
1
 90
4
176
1
 62
7
176
1
 62
257
176
1
 90
1
176
1
 90
1
176
1
 40
1.0
176
1
 90
8
176
1
 62
7
176
1
 40
1.0
176
1
 90
1
176
1
 90
6
176
1
 90
2
176
1
 62
7
176
1
 90
5
176
1
 90
0
176
1
 90
0
176
1
290
0
176
1
 90
1
176
1
 40
0.0
176
1
 90
0
176
1
290
0
176
1
290
1
176
1
290
1
176
1
290
0
176
1
290
0
176
1
290
0
176
1
290
0
176
1
290
0
176
1
290
0
176
1
 90
50
176
1
 40
0.0
176
1
 40
1.0
176
1
 90
0
176
1
 62
18
420
0
176
1
 90
50
176
1
 90
3
176
1
 62
5
420
255
176
1
290
0
176
1
 90
50
176
1
 90
50
176
1
 90
50
176
1
290
0
176
1
 90
50
176
1
 62
256
176
0
 40
1.0
176
0
 90
2
176
1
  1
strokes_ogs.tif
176
1
290
0
176
1
 40
1.0
176
1
 40
1.0
176
1
  0
VISUALSTYLE
  5
66
102
{ACAD_REACTORS
330
16
102
}
330
16
100
AcDbVisualStyle
  2
Hidden
 70
6
177
3
291
0
 70
58
 90
2
176
1
 90
2
176
1
 90
0
176
1
 90
1
176
1
 40
0.6
176
1
 40
30.0
176
1
 62
7
420
16777215
176
1
 90
1
176
1
 90
4
176
1
 62
7
176
1
 62
257
176
1
 90
1
176
1
 90
1
176
1
 40
1.0
176
1
 90
8
176
1
 62
7
176
1
 40
1.0
176
1
 90
1
176
1
 90
6
176
1
 90
2
176
1
 62
7
176
1
 90
5
176
1
 90
0
176
1
 90
0
176
1
290
0
176
1
 90
1
176
1
 40
0.0
176
1
 90
0
176
1
290
0
176
1
290
1
176
1
290
1
176
1
290
0
176
1
290
0
176
1
290
0
176
1
290
0
176
1
290
0
176
1
290
0
176
1
 90
50
176
1
 40
0.0
176
1
 40
1.0
176
1
 90
0
176
1
 62
18
420
0
176
1
 90
50
176
1
 90
3
176
1
 62
5
420
255
176
1
290
0
176
1
 90
50
176
1
 90
50
176
1
 90
50
176
1
290
0
176
1
 90
50
176
1
 62
256
176
0
 40
1.0
176
0
 90
2
176
1
  1
strokes_ogs.tif
176
1
290
0
176
1
 40
1.0
176
1
 40
1.0
176
1
  0
VISUALSTYLE
  5
67
102
{ACAD_REACTORS
330
16
102
}
330
16
100
AcDbVisualStyle
  2
JitterOff
 70
20
177
3
291
1
 70
58
 90
2
176
1
 90
2
176
1
 90
0
176
1
 90
2
176
1
 40
0.6
176
1
 40
30.0
176
1
 62
7
420
16777215
176
1
 90
1
176
1
 90
4
176
1
 62
7
176
1
 62
257
176
1
 90
1
176
1
 90
1
176
1
 40
1.0
176
1
 90
8
176
1
 62
7
176
1
 40
1.0
176
1
 90
1
176
1
 90
6
176
1
 90
2
176
1
 62
7
176
1
 90
5
176
1
 90
0
176
1
 90
0
176
1
290
0
176
1
 90
1
176
1
 40
0.0
176
1
 90
0
176
1
290
0
176
1
290
1
176
1
290
1
176
1
290
0
176
1
290
0
176
1
290
0
176
1
290
0
176
1
290
0
176
1
290
0
176
1
 90
50
176
1
 40
0.0
176
1
 40
1.0
176
1
 90
0
176
1
 62
18
420
0
176
1
 90
50
176
1
 90
3
176
1
 62
5
420
255
176
1
290
0
176
1
 90
50
176
1
 90
50
176
1
 90
50
176
1
290
0
176
1
 90
50
176
1
 62
256
176
0
 40
1.0
176
0
 90
2
176
1
  1
strokes_ogs.tif
176
1
290
0
176
1
 40
1.0
176
1
 40
1.0
176
1
  0
VISUALSTYLE
  5
68
102
{ACAD_REACTORS
330
16
102
}
330
16
100
AcDbVisualStyle
  2
Linepattern
 70
14
177
3
291
1
 70
58
 90
2
176
1
 90
2
176
1
 90
0
176
1
 90
2
176
1
 40
0.6
176
1
 40
30.0
176
1
 62
7
420
16777215
176
1
 90
1
176
1
 90
4
176
1
 62
7
176
1
 62
257
176
1
 90
1
176
1
 90
1
176
1
 40
1.0
176
1
 90
8
176
1
 62
7
176
1
 40
1.0
176
1
 90
1
176
1
 90
6
176
1
 90
2
176
1
 62
7
176
1
 90
5
176
1
 90
0
176
1
 90
0
176
1
290
0
176
1
 90
1
176
1
 40
0.0
176
1
 90
0
176
1
290
0
176
1
290
1
176
1
290
1
176
1
290
0
176
1
290
0
176
1
290
0
176
1
290
0
176
1
290
0
176
1
290
0
176
1
 90
50
176
1
 40
0.0
176
1
 40
1.0
176
1
 90
0
176
1
 62
18
420
0
176
1
 90
50
176
1
 90
3
176
1
 62
5
420
255
176
1
290
0
176
1
 90
50
176
1
 90
50
176
1
 90
50
176
1
290
0
176
1
 90
50
176
1
 62
256
176
0
 40
1.0
176
0
 90
2
176
1
  1
strokes_ogs.tif
176
1
290
0
176
1
 40
1.0
176
1
 40
1.0
176
1
  0
VISUALSTYLE
  5
69
102
{ACAD_REACTORS
330
16
102
}
330
16
100
AcDbVisualStyle
  2
Modeling
 70
10
177
3
291
0
 70
58
 90
2
176
1
 90
2
176
1
 90
0
176
1
 90
2
176
1
 40
0.6
176
1
 40
30.0
176
1
 62
7
420
16777215
176
1
 90
1
176
1
 90
4
176
1
 62
7
176
1
 62
257
176
1
 90
1
176
1
 90
1
176
1
 40
1.0
176
1
 90
8
176
1
 62
7
176
1
 40
1.0
176
1
 90
1
176
1
 90
6
176
1
 90
2
176
1
 62
7
176
1
 90
5
176
1
 90
0
176
1
 90
0
176
1
290
0
176
1
 90
1
176
1
 40
0.0
176
1
 90
0
176
1
290
0
176
1
290
1
176
1
290
1
176
1
290
0
176
1
290
0
176
1
290
0
176
1
290
0
176
1
290
0
176
1
290
0
176
1
 90
50
176
1
 40
0.0
176
1
 40
1.0
176
1
 90
0
176
1
 62
18
420
0
176
1
 90
50
176
1
 90
3
176
1
 62
5
420
255
176
1
290
0
176
1
 90
50
176
1
 90
50
176
1
 90
50
176
1
290
0
176
1
 90
50
176
1
 62
256
176
0
 40
1.0
176
0
 90
2
176
1
  1
strokes_ogs.tif
176
1
290
0
176
1
 40
1.0
176
1
 40
1.0
176
1
  0
VISUALSTYLE
  5
6A
102
{ACAD_REACTORS
330
16
102
}
330
16
100
AcDbVisualStyle
  2
OverhangOff
 70
21
177
3
291
1
 70
58
 90
2
176
1
 90
2
176
1
 90
0
176
1
 90
2
176
1
 40
0.6
176
1
 40
30.0
176
1
 62
7
420
16777215
176
1
 90
1
176
1
 90
4
176
1
 62
7
176
1
 62
257
176
1
 90
1
176
1
 90
1
176
1
 40
1.0
176
1
 90
8
176
1
 62
7
176
1
 40
1.0
176
1
 90
1
176
1
 90
6
176
1
 90
2
176
1
 62
7
176
1
 90
5
176
1
 90
0
176
1
 90
0
176
1
290
0
176
1
 90
1
176
1
 40
0.0
176
1
 90
0
176
1
290
0
176
1
290
1
176
1
290
1
176
1
290
0
176
1
290
0
176
1
290
0
176
1
290
0
176
1
290
0
176
1
290
0
176
1
 90
50
176
1
 40
0.0
176
1
 40
1.0
176
1
 90
0
176
1
 62
18
420
0
176
1
 90
50
176
1
 90
3
176
1
 62
5
420
255
176
1
290
0
176
1
 90
50
176
1
 90
50
176
1
 90
50
176
1
290
0
176
1
 90
50
176
1
 62
256
176
0
 40
1.0
176
0
 90
2
176
1
  1
strokes_ogs.tif
176
1
290
0
176
1
 40
1.0
176
1
 40
1.0
176
1
  0
VISUALSTYLE
  5
6B
102
{ACAD_REACTORS
330
16
102
}
330
16
100
AcDbVisualStyle
  2
Realistic
 70
8
177
3
291
0
 70
58
 90
2
176
1
 90
2
176
1
 90
0
176
1
 90
2
176
1
 40
0.6
176
1
 40
30.0
176
1
 62
7
420
16777215
176
1
 90
1
176
1
 90
4
176
1
 62
7
176
1
 62
257
176
1
 90
1
176
1
 90
1
176
1
 40
1.0
176
1
 90
8
176
1
 62
7
176
1
 40
1.0
176
1
 90
1
176
1
 90
6
176
1
 90
2
176
1
 62
7
176
1
 90
5
176
1
 90
0
176
1
 90
0
176
1
290
0
176
1
 90
1
176
1
 40
0.0
176
1
 90
0
176
1
290
0
176
1
290
1
176
1
290
1
176
1
290
0
176
1
290
0
176
1
290
0
176
1
290
0
176
1
290
0
176
1
290
0
176
1
 90
50
176
1
 40
0.0
176
1
 40
1.0
176
1
 90
0
176
1
 62
18
420
0
176
1
 90
50
176
1
 90
3
176
1
 62
5
420
255
176
1
290
0
176
1
 90
50
176
1
 90
50
176
1
 90
50
176
1
290
0
176
1
 90
50
176
1
 62
256
176
0
 40
1.0
176
0
 90
2
176
1
  1
strokes_ogs.tif
176
1
290
0
176
1
 40
1.0
176
1
 40
1.0
176
1
  0
VISUALSTYLE
  5
6C
102
{ACAD_REACTORS
330
16
102
}
330
16
100
AcDbVisualStyle
  2
Shaded
 70
27
177
3
291
0
 70
58
 90
2
176
1
 90
2
176
1
 90
0
176
1
 90
2
176
1
 40
0.6
176
1
 40
30.0
176
1
 62
7
420
16777215
176
1
 90
1
176
1
 90
4
176
1
 62
7
176
1
 62
257
176
1
 90
1
176
1
 90
1
176
1
 40
1.0
176
1
 90
8
176
1
 62
7
176
1
 40
1.0
176
1
 90
1
176
1
 90
6
176
1
 90
2
176
1
 62
7
176
1
 90
5
176
1
 90
0
176
1
 90
0
176
1
290
0
176
1
 90
1
176
1
 40
0.0
176
1
 90
0
176
1
290
0
176
1
290
1
176
1
290
1
176
1
290
0
176
1
290
0
176
1
290
0
176
1
290
0
176
1
290
0
176
1
290
0
176
1
 90
50
176
1
 40
0.0
176
1
 40
1.0
176
1
 90
0
176
1
 62
18
420
0
176
1
 90
50
176
1
 90
3
176
1
 62
5
420
255
176
1
290
0
176
1
 90
50
176
1
 90
50
176
1
 90
50
176
1
290
0
176
1
 90
50
176
1
 62
256
176
0
 40
1.0
176
0
 90
2
176
1
  1
strokes_ogs.tif
176
1
290
0
176
1
 40
1.0
176
1
 40
1.0
176
1
  0
VISUALSTYLE
  5
6D
102
{ACAD_REACTORS
330
16
102
}
330
16
100
AcDbVisualStyle
  2
Shaded with edges
 70
26
177
3
291
0
 70
58
 90
2
176
1
 90
2
176
1
 90
0
176
1
 90
2
176
1
 40
0.6
176
1
 40
30.0
176
1
 62
7
420
16777215
176
1
 90
1
176
1
 90
4
176
1
 62
7
176
1
 62
257
176
1
 90
1
176
1
 90
1
176
1
 40
1.0
176
1
 90
8
176
1
 62
7
176
1
 40
1.0
176
1
 90
1
176
1
 90
6
176
1
 90
2
176
1
 62
7
176
1
 90
5
176
1
 90
0
176
1
 90
0
176
1
290
0
176
1
 90
1
176
1
 40
0.0
176
1
 90
0
176
1
290
0
176
1
290
1
176
1
290
1
176
1
290
0
176
1
290
0
176
1
290
0
176
1
290
0
176
1
290
0
176
1
290
0
176
1
 90
50
176
1
 40
0.0
176
1
 40
1.0
176
1
 90
0
176
1
 62
18
420
0
176
1
 90
50
176
1
 90
3
176
1
 62
5
420
255
176
1
290
0
176
1
 90
50
176
1
 90
50
176
1
 90
50
176
1
290
0
176
1
 90
50
176
1
 62
256
176
0
 40
1.0
176
0
 90
2
176
1
  1
strokes_ogs.tif
176
1
290
0
176
1
 40
1.0
176
1
 40
1.0
176
1
  0
VISUALSTYLE
  5
6E
102
{ACAD_REACTORS
330
16
102
}
330
16
100
AcDbVisualStyle
  2
Shades of Gray
 70
23
177
3
291
0
 70
58
 90
2
176
1
 90
2
176
1
 90
0
176
1
 90
2
176
1
 40
0.6
176
1
 40
30.0
176
1
 62
7
420
16777215
176
1
 90
1
176
1
 90
4
176
1
 62
7
176
1
 62
257
176
1
 90
1
176
1
 90
1
176
1
 40
1.0
176
1
 90
8
176
1
 62
7
176
1
 40
1.0
176
1
 90
1
176
1
 90
6
176
1
 90
2
176
1
 62
7
176
1
 90
5
176
1
 90
0
176
1
 90
0
176
1
290
0
176
1
 90
1
176
1
 40
0.0
176
1
 90
0
176
1
290
0
176
1
290
1
176
1
290
1
176
1
290
0
176
1
290
0
176
1
290
0
176
1
290
0
176
1
290
0
176
1
290
0
176
1
 90
50
176
1
 40
0.0
176
1
 40
1.0
176
1
 90
0
176
1
 62
18
420
0
176
1
 90
50
176
1
 90
3
176
1
 62
5
420
255
176
1
290
0
176
1
 90
50
176
1
 90
50
176
1
 90
50
176
1
290
0
176
1
 90
50
176
1
 62
256
176
0
 40
1.0
176
0
 90
2
176
1
  1
strokes_ogs.tif
176
1
290
0
176
1
 40
1.0
176
1
 40
1.0
176
1
  0
VISUALSTYLE
  5
6F
102
{ACAD_REACTORS
330
16
102
}
330
16
100
AcDbVisualStyle
  2
Sketchy
 70
24
177
3
291
0
 70
58
 90
2
176
1
 90
2
176
1
 90
0
176
1
 90
1
176
1
 40
0.6
176
1
 40
30.0
176
1
 62
7
420
16777215
176
1
 90
1
176
1
 90
4
176
1
 62
7
176
1
 62
257
176
1
 90
1
176
1
 90
1
176
1
 40
1.0
176
1
 90
8
176
1
 62
7
176
1
 40
1.0
176
1
 90
1
176
1
 90
6
176
1
 90
2
176
1
 62
7
176
1
 90
5
176
1
 90
0
176
1
 90
0
176
1
290
0
176
1
 90
1
176
1
 40
0.0
176
1
 90
0
176
1
290
0
176
1
290
1
176
1
290
1
176
1
290
0
176
1
290
0
176
1
290
0
176
1
290
0
176
1
290
0
176
1
290
0
176
1
 90
50
176
1
 40
0.0
176
1
 40
1.0
176
1
 90
0
176
1
 62
18
420
0
176
1
 90
50
176
1
 90
3
176
1
 62
5
420
255
176
1
290
0
176
1
 90
50
176
1
 90
50
176
1
 90
50
176
1
290
0
176
1
 90
50
176
1
 62
256
176
0
 40
1.0
176
0
 90
2
176
1
  1
strokes_ogs.tif
176
1
290
0
176
1
 40
1.0
176
1
 40
1.0
176
1
  0
VISUALSTYLE
  5
70
102
{ACAD_REACTORS
330
16
102
}
330
16
100
AcDbVisualStyle
  2
Thicken
 70
13
177
3
291
1
 70
58
 90
2
176
1
 90
2
176
1
 90
0
176
1
 90
2
176
1
 40
0.6
176
1
 40
30.0
176
1
 62
7
420
16777215
176
1
 90
1
176
1
 90
4
176
1
 62
7
176
1
 62
257
176
1
 90
1
176
1
 90
1
176
1
 40
1.0
176
1
 90
8
176
1
 62
7
176
1
 40
1.0
176
1
 90
1
176
1
 90
6
176
1
 90
2
176
1
 62
7
176
1
 90
5
176
1
 90
0
176
1
 90
0
176
1
290
0
176
1
 90
1
176
1
 40
0.0
176
1
 90
0
176
1
290
0
176
1
290
1
176
1
290
1
176
1
290
0
176
1
290
0
176
1
290
0
176
1
290
0
176
1
290
0
176
1
290
0
176
1
 90
50
176
1
 40
0.0
176
1
 40
1.0
176
1
 90
0
176
1
 62
18
420
0
176
1
 90
50
176
1
 90
3
176
1
 62
5
420
255
176
1
290
0
176
1
 90
50
176
1
 90
50
176
1
 90
50
176
1
290
0
176
1
 90
50
176
1
 62
256
176
0
 40
1.0
176
0
 90
2
176
1
  1
strokes_ogs.tif
176
1
290
0
176
1
 40
1.0
176
1
 40
1.0
176
1
  0
VISUALSTYLE
  5
71
102
{ACAD_REACTORS
330
16
102
}
330
16
100
AcDbVisualStyle
  2
Wireframe
 70
5
177
3
291
0
 70
58
 90
2
176
1
 90
2
176
1
 90
0
176
1
 90
0
176
1
 40
0.6
176
1
 40
30.0
176
1
 62
7
420
16777215
176
1
 90
1
176
1
 90
4
176
1
 62
7
176
1
 62
257
176
1
 90
1
176
1
 90
1
176
1
 40
1.0
176
1
 90
8
176
1
 62
7
176
1
 40
1.0
176
1
 90
1
176
1
 90
6
176
1
 90
2
176
1
 62
7
176
1
 90
5
176
1
 90
0
176
1
 90
0
176
1
290
0
176
1
 90
1
176
1
 40
0.0
176
1
 90
0
176
1
290
0
176
1
290
1
176
1
290
1
176
1
290
0
176
1
290
0
176
1
290
0
176
1
290
0
176
1
290
0
176
1
290
0
176
1
 90
50
176
1
 40
0.0
176
1
 40
1.0
176
1
 90
0
176
1
 62
18
420
0
176
1
 90
50
176
1
 90
3
176
1
 62
5
420
255
176
1
290
0
176
1
 90
50
176
1
 90
50
176
1
 90
50
176
1
290
0
176
1
 90
50
176
1
 62
256
176
0
 40
1.0
176
0
 90
2
176
1
  1
strokes_ogs.tif
176
1
290
0
176
1
 40
1.0
176
1
 40
1.0
176
1
  0
VISUALSTYLE
  5
72
102
{ACAD_REACTORS
330
16
102
}
330
16
100
AcDbVisualStyle
  2
X-Ray
 70
25
177
3
291
0
 70
58
 90
2
176
1
 90
2
176
1
 90
0
176
1
 90
2
176
1
 40
0.5
176
1
 40
30.0
176
1
 62
7
420
16777215
176
1
 90
1
176
1
 90
4
176
1
 62
7
176
1
 62
257
176
1
 90
1
176
1
 90
1
176
1
 40
1.0
176
1
 90
8
176
1
 62
7
176
1
 40
1.0
176
1
 90
1
176
1
 90
6
176
1
 90
2
176
1
 62
7
176
1
 90
5
176
1
 90
0
176
1
 90
0
176
1
290
0
176
1
 90
1
176
1
 40
0.0
176
1
 90
0
176
1
290
0
176
1
290
1
176
1
290
1
176
1
290
0
176
1
290
0
176
1
290
0
176
1
290
0
176
1
290
0
176
1
290
0
176
1
 90
50
176
1
 40
0.0
176
1
 40
1.0
176
1
 90
0
176
1
 62
18
420
0
176
1
 90
50
176
1
 90
3
176
1
 62
5
420
255
176
1
290
0
176
1
 90
50
176
1
 90
50
176
1
 90
50
176
1
290
0
176
1
 90
50
176
1
 62
256
176
0
 40
1.0
176
0
 90
2
176
1
  1
strokes_ogs.tif
176
1
290
0
176
1
 40
1.0
176
1
 40
1.0
176
1
  0
DICTIONARYVAR
  5
8F
330
2D
100
DictionaryVariables
280
0
  1
1.4.3 @ 2025-11-20T06:42:19.296064+00:00
  0
ENDSEC
  0
EOF
