  0
SECTION
  2
HEADER
  9
$ACADVER
  1
AC1027
  9
$ACADMAINTVER
 70
105
  9
$DWGCODEPAGE
  3
ANSI_1252
  9
$LASTSAVEDBY
  1
ezdxf
  9
$REQUIREDVERSIONS
160
0
  9
$INSBASE
 10
0.0
 20
0.0
 30
0.0
  9
$EXTMIN
 10
1e+20
 20
1e+20
 30
1e+20
  9
$EXTMAX
 10
-1e+20
 20
-1e+20
 30
-1e+20
  9
$LIMMIN
 10
0.0
 20
0.0
  9
$LIMMAX
 10
420.0
 20
297.0
  9
$ORTHOMODE
 70
0
  9
$REGENMODE
 70
1
  9
$FILLMODE
 70
1
  9
$QTEXTMODE
 70
0
  9
$MIRRTEXT
 70
1
  9
$LTSCALE
 40
1.0
  9
$ATTMODE
 70
1
  9
$TEXTSIZE
 40
2.5
  9
$TRACEWID
 40
1.0
  9
$TEXTSTYLE
  7
OpenSans
  9
$CLAYER
  8
0
  9
$CELTYPE
  6
ByLayer
  9
$CECOLOR
 62
256
  9
$CELTSCALE
 40
1.0
  9
$DISPSILH
 70
0
  9
$DIMSCALE
 40
1.0
  9
$DIMASZ
 40
0.175
  9
$DIMEXO
 40
0.125
  9
$DIMDLI
 40
3.75
  9
$DIMRND
 40
0.0
  9
$DIMDLE
 40
0.0
  9
$DIMEXE
 40
0.375
  9
$DIMTP
 40
0.0
  9
$DIMTM
 40
0.0
  9
$DIMTXT
 40
0.25
  9
$DIMCEN
 40
2.5
  9
$DIMTSZ
 40
0.0
  9
$DIMTOL
 70
0
  9
$DIMLIM
 70
0
  9
$DIMTIH
 70
0
  9
$DIMTOH
 70
0
  9
$DIMSE1
 70
0
  9
$DIMSE2
 70
0
  9
$DIMTAD
 70
1
  9
$DIMZIN
 70
12
  9
$DIMBLK
  1
ARCHTICK
  9
$DIMASO
 70
1
  9
$DIMSHO
 70
1
  9
$DIMPOST
  1

  9
$DIMAPOST
  1

  9
$DIMALT
 70
0
  9
$DIMALTD
 70
3
  9
$DIMALTF
 40
0.03937007874
  9
$DIMLFAC
 40
100.0
  9
$DIMTOFL
 70
1
  9
$DIMTVP
 40
0.0
  9
$DIMTIX
 70
0
  9
$DIMSOXD
 70
0
  9
$DIMSAH
 70
0
  9
$DIMBLK1
  1

  9
$DIMBLK2
  1

  9
$DIMSTYLE
  2
EZDXF
  9
$DIMCLRD
 70
0
  9
$DIMCLRE
 70
0
  9
$DIMCLRT
 70
0
  9
$DIMTFAC
 40
0.5
  9
$DIMGAP
 40
0.1
  9
$DIMJUST
 70
0
  9
$DIMSD1
 70
0
  9
$DIMSD2
 70
0
  9
$DIMTOLJ
 70
0
  9
$DIMTZIN
 70
8
  9
$DIMALTZ
 70
0
  9
$DIMALTTZ
 70
0
  9
$DIMUPT
 70
1
  9
$DIMDEC
 70
2
  9
$DIMTDEC
 70
2
  9
$DIMALTU
 70
2
  9
$DIMALTTD
 70
3
  9
$DIMTXSTY
  7
OpenSansCondensed-Light
  9
$DIMAUNIT
 70
0
  9
$DIMADEC
 70
2
  9
$DIMALTRND
 40
0.0
  9
$DIMAZIN
 70
3
  9
$DIMDSEP
 70
46
  9
$DIMATFIT
 70
3
  9
$DIMFRAC
 70
0
  9
$DIMLDRBLK
  1

  9
$DIMLUNIT
 70
2
  9
$DIMLWD
 70
-2
  9
$DIMLWE
 70
-2
  9
$DIMTMOVE
 70
2
  9
$DIMFXL
 40
1.0
  9
$DIMFXLON
 70
0
  9
$DIMJOGANG
 40
0.785398163397
  9
$DIMTFILL
 70
0
  9
$DIMTFILLCLR
 70
0
  9
$DIMARCSYM
 70
0
  9
$DIMLTYPE
  6

  9
$DIMLTEX1
  6

  9
$DIMLTEX2
  6

  9
$DIMTXTDIRECTION
 70
0
  9
$LUNITS
 70
2
  9
$LUPREC
 70
4
  9
$SKETCHINC
 40
1.0
  9
$FILLETRAD
 40
10.0
  9
$AUNITS
 70
0
  9
$AUPREC
 70
2
  9
$MENU
  1
.
  9
$ELEVATION
 40
0.0
  9
$PELEVATION
 40
0.0
  9
$THICKNESS
 40
0.0
  9
$LIMCHECK
 70
0
  9
$CHAMFERA
 40
0.0
  9
$CHAMFERB
 40
0.0
  9
$CHAMFERC
 40
0.0
  9
$CHAMFERD
 40
0.0
  9
$SKPOLY
 70
0
  9
$TDCREATE
 40
2461064.2538888888
  9
$TDUCREATE
 40
2458532.153996898
  9
$TDUPDATE
 40
2461064.2538888888
  9
$TDUUPDATE
 40
2458532.1544311
  9
$TDINDWG
 40
0.0
  9
$TDUSRTIMER
 40
0.0
  9
$USRTIMER
 70
1
  9
$ANGBASE
 50
0.0
  9
$ANGDIR
 70
0
  9
$PDMODE
 70
0
  9
$PDSIZE
 40
0.0
  9
$PLINEWID
 40
0.0
  9
$SPLFRAME
 70
0
  9
$SPLINETYPE
 70
6
  9
$SPLINESEGS
 70
8
  9
$HANDSEED
  5
90
  9
$SURFTAB1
 70
6
  9
$SURFTAB2
 70
6
  9
$SURFTYPE
 70
6
  9
$SURFU
 70
6
  9
$SURFV
 70
6
  9
$UCSBASE
  2

  9
$UCSNAME
  2

  9
$UCSORG
 10
0.0
 20
0.0
 30
0.0
  9
$UCSXDIR
 10
1.0
 20
0.0
 30
0.0
  9
$UCSYDIR
 10
0.0
 20
1.0
 30
0.0
  9
$UCSORTHOREF
  2

  9
$UCSORTHOVIEW
 70
0
  9
$UCSORGTOP
 10
0.0
 20
0.0
 30
0.0
  9
$UCSORGBOTTOM
 10
0.0
 20
0.0
 30
0.0
  9
$UCSORGLEFT
 10
0.0
 20
0.0
 30
0.0
  9
$UCSORGRIGHT
 10
0.0
 20
0.0
 30
0.0
  9
$UCSORGFRONT
 10
0.0
 20
0.0
 30
0.0
  9
$UCSORGBACK
 10
0.0
 20
0.0
 30
0.0
  9
$PUCSBASE
  2

  9
$PUCSNAME
  2

  9
$PUCSORG
 10
0.0
 20
0.0
 30
0.0
  9
$PUCSXDIR
 10
1.0
 20
0.0
 30
0.0
  9
$PUCSYDIR
 10
0.0
 20
1.0
 30
0.0
  9
$PUCSORTHOREF
  2

  9
$PUCSORTHOVIEW
 70
0
  9
$PUCSORGTOP
 10
0.0
 20
0.0
 30
0.0
  9
$PUCSORGBOTTOM
 10
0.0
 20
0.0
 30
0.0
  9
$PUCSORGLEFT
 10
0.0
 20
0.0
 30
0.0
  9
$PUCSORGRIGHT
 10
0.0
 20
0.0
 30
0.0
  9
$PUCSORGFRONT
 10
0.0
 20
0.0
 30
0.0
  9
$PUCSORGBACK
 10
0.0
 20
0.0
 30
0.0
  9
$USERI1
 70
0
  9
$USERI2
 70
0
  9
$USERI3
 70
0
  9
$USERI4
 70
0
  9
$USERI5
 70
0
  9
$USERR1
 40
0.0
  9
$USERR2
 40
0.0
  9
$USERR3
 40
0.0
  9
$USERR4
 40
0.0
  9
$USERR5
 40
0.0
  9
$WORLDVIEW
 70
1
  9
$SHADEDGE
 70
3
  9
$SHADEDIF
 70
70
  9
$TILEMODE
 70
1
  9
$MAXACTVP
 70
64
  9
$PINSBASE
 10
0.0
 20
0.0
 30
0.0
  9
$PLIMCHECK
 70
0
  9
$PEXTMIN
 10
1e+20
 20
1e+20
 30
1e+20
  9
$PEXTMAX
 10
-1e+20
 20
-1e+20
 30
-1e+20
  9
$PLIMMIN
 10
0.0
 20
0.0
  9
$PLIMMAX
 10
420.0
 20
297.0
  9
$UNITMODE
 70
0
  9
$VISRETAIN
 70
1
  9
$PLINEGEN
 70
0
  9
$PSLTSCALE
 70
1
  9
$TREEDEPTH
 70
3020
  9
$CMLSTYLE
  2
Standard
  9
$CMLJUST
 70
0
  9
$CMLSCALE
 40
20.0
  9
$PROXYGRAPHICS
 70
1
  9
$MEASUREMENT
 70
1
  9
$CELWEIGHT
370
-1
  9
$ENDCAPS
280
0
  9
$JOINSTYLE
280
0
  9
$LWDISPLAY
290
0
  9
$INSUNITS
 70
6
  9
$HYPERLINKBASE
  1

  9
$STYLESHEET
  1

  9
$XEDIT
290
1
  9
$CEPSNTYPE
380
0
  9
$PSTYLEMODE
290
1
  9
$FINGERPRINTGUID
  2
{8A3B6B3A-8EA2-42F6-B1A1-0D2818306E6B}
  9
$VERSIONGUID
  2
{6EA8792A-AEB6-4364-99BC-439CFEBC487C}
  9
$EXTNAMES
290
1
  9
$PSVPSCALE
 40
0.0
  9
$OLESTARTUP
290
0
  9
$SORTENTS
280
127
  9
$INDEXCTL
280
0
  9
$HIDETEXT
280
1
  9
$XCLIPFRAME
280
1
  9
$HALOGAP
280
0
  9
$OBSCOLOR
 70
257
  9
$OBSLTYPE
280
0
  9
$INTERSECTIONDISPLAY
280
0
  9
$INTERSECTIONCOLOR
 70
257
  9
$DIMASSOC
280
2
  9
$PROJECTNAME
  1

  9
$CAMERADISPLAY
290
0
  9
$LENSLENGTH
 40
50.0
  9
$CAMERAHEIGHT
 40
0.0
  9
$STEPSPERSEC
 40
24.0
  9
$STEPSIZE
 40
100.0
  9
$3DDWFPREC
 40
2.0
  9
$PSOLWIDTH
 40
0.005
  9
$PSOLHEIGHT
 40
0.08
  9
$LOFTANG1
 40
1.570796326795
  9
$LOFTANG2
 40
1.570796326795
  9
$LOFTMAG1
 40
0.0
  9
$LOFTMAG2
 40
0.0
  9
$LOFTPARAM
 70
7
  9
$LOFTNORMALS
280
1
  9
$LATITUDE
 40
37.795
  9
$LONGITUDE
 40
-122.394
  9
$NORTHDIRECTION
 40
0.0
  9
$TIMEZONE
 70
-8000
  9
$LIGHTGLYPHDISPLAY
280
1
  9
$TILEMODELIGHTSYNCH
280
1
  9
$CMATERIAL
347
20
  9
$SOLIDHIST
280
0
  9
$SHOWHIST
280
1
  9
$DWFFRAME
280
2
  9
$DGNFRAME
280
2
  9
$REALWORLDSCALE
290
1
  9
$INTERFERECOLOR
 62
256
  9
$CSHADOW
280
0
  9
$SHADOWPLANELOCATION
 40
0.0
  0
ENDSEC
  0
SECTION
  2
CLASSES
  0
CLASS
  1
ACDBDICTIONARYWDFLT
  2
AcDbDictionaryWithDefault
  3
ObjectDBX Classes
 90
0
 91
0
280
0
281
0
  0
CLASS
  1
SUN
  2
AcDbSun
  3
SCENEOE
 90
1153
 91
0
280
0
281
0
  0
CLASS
  1
VISUALSTYLE
  2
AcDbVisualStyle
  3
ObjectDBX Classes
 90
4095
 91
0
280
0
281
0
  0
CLASS
  1
MATERIAL
  2
AcDbMaterial
  3
ObjectDBX Classes
 90
1153
 91
0
280
0
281
0
  0
CLASS
  1
SCALE
  2
AcDbScale
  3
ObjectDBX Classes
 90
1153
 91
0
280
0
281
0
  0
CLASS
  1
TABLESTYLE
  2
AcDbTableStyle
  3
ObjectDBX Classes
 90
4095
 91
0
280
0
281
0
  0
CLASS
  1
MLEADERSTYLE
  2
AcDbMLeaderStyle
  3
ACDB_MLEADERSTYLE_CLASS
 90
4095
 91
0
280
0
281
0
  0
CLASS
  1
DICTIONARYVAR
  2
AcDbDictionaryVar
  3
ObjectDBX Classes
 90
0
 91
0
280
0
281
0
  0
CLASS
  1
CELLSTYLEMAP
  2
AcDbCellStyleMap
  3
ObjectDBX Classes
 90
1152
 91
0
280
0
281
0
  0
CLASS
  1
MENTALRAYRENDERSETTINGS
  2
AcDbMentalRayRenderSettings
  3
SCENEOE
 90
1024
 91
0
280
0
281
0
  0
CLASS
  1
ACDBDETAILVIEWSTYLE
  2
AcDbDetailViewStyle
  3
ObjectDBX Classes
 90
1025
 91
0
280
0
281
0
  0
CLASS
  1
ACDBSECTIONVIEWSTYLE
  2
AcDbSectionViewStyle
  3
ObjectDBX Classes
 90
1025
 91
0
280
0
281
0
  0
CLASS
  1
RASTERVARIABLES
  2
AcDbRasterVariables
  3
ISM
 90
0
 91
0
280
0
281
0
  0
CLASS
  1
ACDBPLACEHOLDER
  2
AcDbPlaceHolder
  3
ObjectDBX Classes
 90
0
 91
0
280
0
281
0
  0
CLASS
  1
LAYOUT
  2
AcDbLayout
  3
ObjectDBX Classes
 90
0
 91
0
280
0
281
0
  0
ENDSEC
  0
SECTION
  2
TABLES
  0
TABLE
  2
VPORT
  5
8
330
0
100
AcDbSymbolTable
 70
1
  0
VPORT
  5
23
330
8
100
AcDbSymbolTableRecord
100
AcDbViewportTableRecord
  2
*Active
 70
0
 10
0.0
 20
0.0
 11
1.0
 21
1.0
 12
0.0
 22
0.0
 13
0.0
 23
0.0
 14
0.5
 24
0.5
 15
0.5
 25
0.5
 16
0.0
 26
0.0
 36
1.0
 17
0.0
 27
0.0
 37
0.0
 40
1000.0
 41
1.34
 42
50.0
 43
0.0
 44
0.0
 50
0.0
 51
0.0
 71
0
 72
1000
 73
1
 74
3
 75
0
 76
0
 77
0
 78
0
281
0
 65
0
146
0.0
  0
ENDTAB
  0
TABLE
  2
LTYPE
  5
2
330
0
100
AcDbSymbolTable
 70
21
  0
LTYPE
  5
24
330
2
100
AcDbSymbolTableRecord
100
AcDbLinetypeTableRecord
  2
ByBlock
 70
0
  3

 72
65
 73
0
 40
0.0
  0
LTYPE
  5
25
330
2
100
AcDbSymbolTableRecord
100
AcDbLinetypeTableRecord
  2
ByLayer
 70
0
  3

 72
65
 73
0
 40
0.0
  0
LTYPE
  5
26
330
2
100
AcDbSymbolTableRecord
100
AcDbLinetypeTableRecord
  2
Continuous
 70
0
  3

 72
65
 73
0
 40
0.0
  0
LTYPE
  5
2F
330
2
100
AcDbSymbolTableRecord
100
AcDbLinetypeTableRecord
  2
CENTER
 70
0
  3
Center ____ _ ____ _ ____ _ ____ _ ____ _ ____
 72
65
 73
4
 40
5.08
 49
3.175
 74
0
 49
-0.635
 74
0
 49
0.635
 74
0
 49
-0.635
 74
0
  0
LTYPE
  5
30
330
2
100
AcDbSymbolTableRecord
100
AcDbLinetypeTableRecord
  2
CENTERX2
 70
0
  3
Center (2x) ________  __  ________  __  ________
 72
65
 73
4
 40
8.89
 49
6.35
 74
0
 49
-0.635
 74
0
 49
1.27
 74
0
 49
-0.635
 74
0
  0
LTYPE
  5
31
330
2
100
AcDbSymbolTableRecord
100
AcDbLinetypeTableRecord
  2
CENTER2
 70
0
  3
Center (.5x) ____ _ ____ _ ____ _ ____ _ ____
 72
65
 73
4
 40
2.54
 49
1.587
 74
0
 49
-0.318
 74
0
 49
0.318
 74
0
 49
-0.318
 74
0
  0
LTYPE
  5
32
330
2
100
AcDbSymbolTableRecord
100
AcDbLinetypeTableRecord
  2
DASHED
 70
0
  3
Dashed __ __ __ __ __ __ __ __ __ __ __ __ __ _
 72
65
 73
2
 40
1.524
 49
1.27
 74
0
 49
-0.254
 74
0
  0
LTYPE
  5
33
330
2
100
AcDbSymbolTableRecord
100
AcDbLinetypeTableRecord
  2
DASHEDX2
 70
0
  3
Dashed (2x) ____  ____  ____  ____  ____  ____
 72
65
 73
2
 40
3.048
 49
2.54
 74
0
 49
-0.508
 74
0
  0
LTYPE
  5
34
330
2
100
AcDbSymbolTableRecord
100
AcDbLinetypeTableRecord
  2
DASHED2
 70
0
  3
Dashed (.5x) _ _ _ _ _ _ _ _ _ _ _ _ _ _
 72
65
 73
2
 40
0.762
 49
0.635
 74
0
 49
-0.127
 74
0
  0
LTYPE
  5
35
330
2
100
AcDbSymbolTableRecord
100
AcDbLinetypeTableRecord
  2
PHANTOM
 70
0
  3
Phantom ______  __  __  ______  __  __  ______
 72
65
 73
6
 40
6.35
 49
3.175
 74
0
 49
-0.635
 74
0
 49
0.635
 74
0
 49
-0.635
 74
0
 49
0.635
 74
0
 49
-0.635
 74
0
  0
LTYPE
  5
36
330
2
100
AcDbSymbolTableRecord
100
AcDbLinetypeTableRecord
  2
PHANTOMX2
 70
0
  3
Phantom (2x)____________    ____    ____    ____________
 72
65
 73
6
 40
10.795
 49
6.35
 74
0
 49
-0.635
 74
0
 49
1.27
 74
0
 49
-0.635
 74
0
 49
1.27
 74
0
 49
-0.635
 74
0
  0
LTYPE
  5
37
330
2
100
AcDbSymbolTableRecord
100
AcDbLinetypeTableRecord
  2
PHANTOM2
 70
0
  3
Phantom (.5x) ___ _ _ ___ _ _ ___ _ _ ___ _ _ ___
 72
65
 73
6
 40
3.175
 49
1.587
 74
0
 49
-0.318
 74
0
 49
0.318
 74
0
 49
-0.318
 74
0
 49
0.318
 74
0
 49
-0.318
 74
0
  0
LTYPE
  5
38
330
2
100
AcDbSymbolTableRecord
100
AcDbLinetypeTableRecord
  2
DASHDOT
 70
0
  3
Dash dot __ . __ . __ . __ . __ . __ . __ . __
 72
65
 73
4
 40
3.556
 49
2.54
 74
0
 49
-0.508
 74
0
 49
0.0
 74
0
 49
-0.508
 74
0
  0
LTYPE
  5
39
330
2
100
AcDbSymbolTableRecord
100
AcDbLinetypeTableRecord
  2
DASHDOTX2
 70
0
  3
Dash dot (2x) ____  .  ____  .  ____  .  ____
 72
65
 73
4
 40
6.096
 49
5.08
 74
0
 49
-0.508
 74
0
 49
0.0
 74
0
 49
-0.508
 74
0
  0
LTYPE
  5
3A
330
2
100
AcDbSymbolTableRecord
100
AcDbLinetypeTableRecord
  2
DASHDOT2
 70
0
  3
Dash dot (.5x) _ . _ . _ . _ . _ . _ . _ . _
 72
65
 73
4
 40
1.778
 49
1.27
 74
0
 49
-0.254
 74
0
 49
0.0
 74
0
 49
-0.254
 74
0
  0
LTYPE
  5
3B
330
2
100
AcDbSymbolTableRecord
100
AcDbLinetypeTableRecord
  2
DOT
 70
0
  3
Dot .  .  .  .  .  .  .  .  .  .  .  .  .  .  .  .
 72
65
 73
2
 40
0.508
 49
0.0
 74
0
 49
-0.508
 74
0
  0
LTYPE
  5
3C
330
2
100
AcDbSymbolTableRecord
100
AcDbLinetypeTableRecord
  2
DOTX2
 70
0
  3
Dot (2x) .    .    .    .    .    .    .    . 
 72
65
 73
2
 40
1.016
 49
0.0
 74
0
 49
-1.016
 74
0
  0
LTYPE
  5
3D
330
2
100
AcDbSymbolTableRecord
100
AcDbLinetypeTableRecord
  2
DOT2
 70
0
  3
Dot (.5) . . . . . . . . . . . . . . . . . . . 
 72
65
 73
2
 40
0.254
 49
0.0
 74
0
 49
-0.254
 74
0
  0
LTYPE
  5
3E
330
2
100
AcDbSymbolTableRecord
100
AcDbLinetypeTableRecord
  2
DIVIDE
 70
0
  3
Divide __ . . __ . . __ . . __ . . __ . . __
 72
65
 73
6
 40
4.064
 49
2.54
 74
0
 49
-0.508
 74
0
 49
0.0
 74
0
 49
-0.508
 74
0
 49
0.0
 74
0
 49
-0.508
 74
0
  0
LTYPE
  5
3F
330
2
100
AcDbSymbolTableRecord
100
AcDbLinetypeTableRecord
  2
DIVIDEX2
 70
0
  3
Divide (2x) ____  . .  ____  . .  ____  . .  ____
 72
65
 73
6
 40
6.604
 49
5.08
 74
0
 49
-0.508
 74
0
 49
0.0
 74
0
 49
-0.508
 74
0
 49
0.0
 74
0
 49
-0.508
 74
0
  0
LTYPE
  5
40
330
2
100
AcDbSymbolTableRecord
100
AcDbLinetypeTableRecord
  2
DIVIDE2
 70
0
  3
Divide(.5x) _ . _ . _ . _ . _ . _ . _ . _
 72
65
 73
6
 40
2.032
 49
1.27
 74
0
 49
-0.254
 74
0
 49
0.0
 74
0
 49
-0.254
 74
0
 49
0.0
 74
0
 49
-0.254
 74
0
  0
ENDTAB
  0
TABLE
  2
LAYER
  5
1
330
0
100
AcDbSymbolTable
 70
2
  0
LAYER
  5
27
330
1
100
AcDbSymbolTableRecord
100
AcDbLayerTableRecord
  2
0
 70
0
 62
7
  6
Continuous
370
-3
390
13
347
21
  0
LAYER
  5
28
330
1
100
AcDbSymbolTableRecord
100
AcDbLayerTableRecord
  2
Defpoints
 70
0
 62
7
  6
Continuous
290
0
370
-3
390
13
347
21
  0
ENDTAB
  0
TABLE
  2
STYLE
  5
5
330
0
100
AcDbSymbolTable
 70
26
  0
STYLE
  5
29
330
5
100
AcDbSymbolTableRecord
100
AcDbTextStyleTableRecord
  2
Standard
 70
0
 40
0.0
 41
1.0
 50
0.0
 71
0
 42
2.5
  3
txt
  4

  0
STYLE
  5
41
330
5
100
AcDbSymbolTableRecord
100
AcDbTextStyleTableRecord
  2
OpenSans-Light
 70
0
 40
0.0
 41
1.0
 50
0.0
 71
0
 42
2.5
  3
OpenSans-Light.ttf
  4

  0
STYLE
  5
42
330
5
100
AcDbSymbolTableRecord
100
AcDbTextStyleTableRecord
  2
OpenSans-Light-Italic
 70
0
 40
0.0
 41
1.0
 50
0.0
 71
0
 42
2.5
  3
OpenSans-LightItalic.ttf
  4

  0
STYLE
  5
43
330
5
100
AcDbSymbolTableRecord
100
AcDbTextStyleTableRecord
  2
OpenSans
 70
0
 40
0.0
 41
1.0
 50
0.0
 71
0
 42
2.5
  3
OpenSans-Regular.ttf
  4

  0
STYLE
  5
44
330
5
100
AcDbSymbolTableRecord
100
AcDbTextStyleTableRecord
  2
OpenSans-Italic
 70
0
 40
0.0
 41
1.0
 50
0.0
 71
0
 42
2.5
  3
OpenSans-Italic.ttf
  4

  0
STYLE
  5
45
330
5
100
AcDbSymbolTableRecord
100
AcDbTextStyleTableRecord
  2
OpenSans-SemiBold
 70
0
 40
0.0
 41
1.0
 50
0.0
 71
0
 42
2.5
  3
OpenSans-SemiBold.ttf
  4

  0
STYLE
  5
46
330
5
100
AcDbSymbolTableRecord
100
AcDbTextStyleTableRecord
  2
OpenSans-SemiBoldItalic
 70
0
 40
0.0
 41
1.0
 50
0.0
 71
0
 42
2.5
  3
OpenSans-SemiBoldItalic.ttf
  4

  0
STYLE
  5
47
330
5
100
AcDbSymbolTableRecord
100
AcDbTextStyleTableRecord
  2
OpenSans-Bold
 70
0
 40
0.0
 41
1.0
 50
0.0
 71
0
 42
2.5
  3
OpenSans-Bold.ttf
  4

  0
STYLE
  5
48
330
5
100
AcDbSymbolTableRecord
100
AcDbTextStyleTableRecord
  2
OpenSans-BoldItalic
 70
0
 40
0.0
 41
1.0
 50
0.0
 71
0
 42
2.5
  3
OpenSans-BoldItalic.ttf
  4

  0
STYLE
  5
49
330
5
100
AcDbSymbolTableRecord
100
AcDbTextStyleTableRecord
  2
OpenSans-ExtraBold
 70
0
 40
0.0
 41
1.0
 50
0.0
 71
0
 42
2.5
  3
OpenSans-ExtraBold.ttf
  4

  0
STYLE
  5
4A
330
5
100
AcDbSymbolTableRecord
100
AcDbTextStyleTableRecord
  2
OpenSans-ExtraBoldItalic
 70
0
 40
0.0
 41
1.0
 50
0.0
 71
0
 42
2.5
  3
OpenSans-ExtraBoldItalic.ttf
  4

  0
STYLE
  5
4B
330
5
100
AcDbSymbolTableRecord
100
AcDbTextStyleTableRecord
  2
OpenSansCondensed-Bold
 70
0
 40
0.0
 41
1.0
 50
0.0
 71
0
 42
2.5
  3
OpenSansCondensed-Bold.ttf
  4

  0
STYLE
  5
4C
330
5
100
AcDbSymbolTableRecord
100
AcDbTextStyleTableRecord
  2
OpenSansCondensed-Light
 70
0
 40
0.0
 41
1.0
 50
0.0
 71
0
 42
2.5
  3
OpenSansCondensed-Light.ttf
  4

  0
STYLE
  5
4D
330
5
100
AcDbSymbolTableRecord
100
AcDbTextStyleTableRecord
  2
OpenSansCondensed-Italic
 70
0
 40
0.0
 41
1.0
 50
0.0
 71
0
 42
2.5
  3
OpenSansCondensed-LightItalic.ttf
  4

  0
STYLE
  5
4E
330
5
100
AcDbSymbolTableRecord
100
AcDbTextStyleTableRecord
  2
LiberationSans
 70
0
 40
0.0
 41
1.0
 50
0.0
 71
0
 42
2.5
  3
LiberationSans-Regular.ttf
  4

  0
STYLE
  5
4F
330
5
100
AcDbSymbolTableRecord
100
AcDbTextStyleTableRecord
  2
LiberationSans-Bold
 70
0
 40
0.0
 41
1.0
 50
0.0
 71
0
 42
2.5
  3
LiberationSans-Bold.ttf
  4

  0
STYLE
  5
50
330
5
100
AcDbSymbolTableRecord
100
AcDbTextStyleTableRecord
  2
LiberationSans-BoldItalic
 70
0
 40
0.0
 41
1.0
 50
0.0
 71
0
 42
2.5
  3
LiberationSans-BoldItalic.ttf
  4

  0
STYLE
  5
51
330
5
100
AcDbSymbolTableRecord
100
AcDbTextStyleTableRecord
  2
LiberationSans-Italic
 70
0
 40
0.0
 41
1.0
 50
0.0
 71
0
 42
2.5
  3
LiberationSans-Italic.ttf
  4

  0
STYLE
  5
52
330
5
100
AcDbSymbolTableRecord
100
AcDbTextStyleTableRecord
  2
LiberationSerif
 70
0
 40
0.0
 41
1.0
 50
0.0
 71
0
 42
2.5
  3
LiberationSerif-Regular.ttf
  4

  0
STYLE
  5
53
330
5
100
AcDbSymbolTableRecord
100
AcDbTextStyleTableRecord
  2
LiberationSerif-Bold
 70
0
 40
0.0
 41
1.0
 50
0.0
 71
0
 42
2.5
  3
LiberationSerif-Bold.ttf
  4

  0
STYLE
  5
54
330
5
100
AcDbSymbolTableRecord
100
AcDbTextStyleTableRecord
  2
LiberationSerif-BoldItalic
 70
0
 40
0.0
 41
1.0
 50
0.0
 71
0
 42
2.5
  3
LiberationSerif-BoldItalic.ttf
  4

  0
STYLE
  5
55
330
5
100
AcDbSymbolTableRecord
100
AcDbTextStyleTableRecord
  2
LiberationSerif-Italic
 70
0
 40
0.0
 41
1.0
 50
0.0
 71
0
 42
2.5
  3
LiberationSerif-Italic.ttf
  4

  0
STYLE
  5
56
330
5
100
AcDbSymbolTableRecord
100
AcDbTextStyleTableRecord
  2
LiberationMono
 70
0
 40
0.0
 41
1.0
 50
0.0
 71
0
 42
2.5
  3
LiberationMono-Regular.ttf
  4

  0
STYLE
  5
57
330
5
100
AcDbSymbolTableRecord
100
AcDbTextStyleTableRecord
  2
LiberationMono-Bold
 70
0
 40
0.0
 41
1.0
 50
0.0
 71
0
 42
2.5
  3
LiberationMono-Bold.ttf
  4

  0
STYLE
  5
58
330
5
100
AcDbSymbolTableRecord
100
AcDbTextStyleTableRecord
  2
LiberationMono-BoldItalic
 70
0
 40
0.0
 41
1.0
 50
0.0
 71
0
 42
2.5
  3
LiberationMono-BoldItalic.ttf
  4

  0
STYLE
  5
59
330
5
100
AcDbSymbolTableRecord
100
AcDbTextStyleTableRecord
  2
LiberationMono-Italic
 70
0
 40
0.0
 41
1.0
 50
0.0
 71
0
 42
2.5
  3
LiberationMono-Italic.ttf
  4

  0
ENDTAB
  0
TABLE
  2
VIEW
  5
7
330
0
100
AcDbSymbolTable
 70
0
  0
ENDTAB
  0
TABLE
  2
UCS
  5
6
330
0
100
AcDbSymbolTable
 70
0
  0
ENDTAB
  0
TABLE
  2
APPID
  5
3
330
0
100
AcDbSymbolTable
 70
3
  0
APPID
  5
2A
330
3
100
AcDbSymbolTableRecord
100
AcDbRegAppTableRecord
  2
ACAD
 70
0
  0
APPID
  5
8D
330
3
100
AcDbSymbolTableRecord
100
AcDbRegAppTableRecord
  2
HATCHBACKGROUNDCOLOR
 70
0
  0
APPID
  5
8E
330
3
100
AcDbSymbolTableRecord
100
AcDbRegAppTableRecord
  2
EZDXF
 70
0
  0
ENDTAB
  0
TABLE
  2
DIMSTYLE
  5
4
330
0
100
AcDbSymbolTable
 70
12
100
AcDbDimStyleTable
  0
DIMSTYLE
105
2B
330
4
100
AcDbSymbolTableRecord
100
AcDbDimStyleTableRecord
  2
Standard
 70
0
 40
1.0
 41
2.5
 42
0.625
 43
3.75
 44
1.25
 45
0.0
 46
0.0
 47
0.0
 48
0.0
 49
2.5
140
2.5
141
2.5
142
0.0
143
0.03937007874
144
1.0
145
0.0
146
1.0
147
0.625
148
0.0
 69
0
 70
0
 71
0
 72
0
 73
0
 74
0
 75
0
 76
0
 77
1
 78
8
 79
3
170
0
171
3
172
1
173
0
174
0
175
0
176
0
177
0
178
0
179
2
271
2
272
2
273
2
274
3
275
0
276
0
277
2
278
44
279
0
280
0
281
0
282
0
283
0
284
8
285
0
286
0
288
0
289
3
290
0
371
-2
372
-2
  0
DIMSTYLE
105
73
330
4
100
AcDbSymbolTableRecord
100
AcDbDimStyleTableRecord
  2
EZDXF
 70
0
 40
1.0
 41
0.175
 42
0.125
 43
3.75
 44
0.375
 45
0.0
 46
0.0
 47
0.0
 48
0.0
 49
2.5
140
0.25
141
2.5
142
0.0
143
0.03937007874
144
100.0
145
0.0
146
0.5
147
0.1
148
0.0
 69
0
 70
0
 71
0
 72
0
 73
0
 74
0
 75
0
 76
0
 77
1
 78
12
 79
3
170
0
171
3
172
1
173
0
174
0
175
0
176
0
177
0
178
0
179
2
271
2
272
2
273
2
274
3
275
0
276
0
277
2
278
46
279
2
280
0
281
0
282
0
283
0
284
8
285
0
286
0
288
1
289
3
290
0
340
4C
342
74
371
-2
372
-2
  0
DIMSTYLE
105
7C
330
4
100
AcDbSymbolTableRecord
100
AcDbDimStyleTableRecord
  2
EZ_M_100_H25_CM
 70
0
 40
1.0
 41
0.25
 42
0.125
 43
3.75
 44
0.375
 45
0.0
 46
0.0
 47
0.0
 48
0.0
 49
2.5
140
0.25
141
2.5
142
0.125
143
0.03937007874
144
100.0
145
0.0
146
0.5
147
0.1
148
0.0
 69
0
 70
0
 71
0
 72
0
 73
0
 74
0
 75
0
 76
0
 77
1
 78
12
 79
3
170
0
171
3
172
1
173
0
174
0
175
0
176
0
177
0
178
0
179
2
271
2
272
2
273
2
274
3
275
0
276
0
277
2
278
46
279
2
280
0
281
0
282
0
283
0
284
8
285
0
286
0
288
1
289
3
290
0
340
4C
371
-2
372
-2
  0
DIMSTYLE
105
7D
330
4
100
AcDbSymbolTableRecord
100
AcDbDimStyleTableRecord
  2
EZ_M_50_H25_CM
 70
0
 40
1.0
 41
0.125
 42
0.0625
 43
3.75
 44
0.1875
 45
0.0
 46
0.0
 47
0.0
 48
0.0
 49
2.5
140
0.125
141
2.5
142
0.0625
143
0.03937007874
144
100.0
145
0.0
146
0.5
147
0.05
148
0.0
 69
0
 70
0
 71
0
 72
0
 73
0
 74
0
 75
0
 76
0
 77
1
 78
12
 79
3
170
0
171
3
172
1
173
0
174
0
175
0
176
0
177
0
178
0
179
2
271
2
272
2
273
2
274
3
275
0
276
0
277
2
278
46
279
2
280
0
281
0
282
0
283
0
284
8
285
0
286
0
288
1
289
3
290
0
340
4C
371
-2
372
-2
  0
DIMSTYLE
105
7E
330
4
100
AcDbSymbolTableRecord
100
AcDbDimStyleTableRecord
  2
EZ_M_25_H25_CM
 70
0
 40
1.0
 41
0.0625
 42
0.03125
 43
3.75
 44
0.09375
 45
0.0
 46
0.0
 47
0.0
 48
0.0
 49
2.5
140
0.0625
141
2.5
142
0.03125
143
0.03937007874
144
100.0
145
0.0
146
0.5
147
0.025
148
0.0
 69
0
 70
0
 71
0
 72
0
 73
0
 74
0
 75
0
 76
0
 77
1
 78
12
 79
3
170
0
171
3
172
1
173
0
174
0
175
0
176
0
177
0
178
0
179
2
271
2
272
2
273
2
274
3
275
0
276
0
277
2
278
46
279
2
280
0
281
0
282
0
283
0
284
8
285
0
286
0
288
1
289
3
290
0
340
4C
371
-2
372
-2
  0
DIMSTYLE
105
7F
330
4
100
AcDbSymbolTableRecord
100
AcDbDimStyleTableRecord
  2
EZ_M_20_H25_CM
 70
0
 40
1.0
 41
0.05
 42
0.025
 43
3.75
 44
0.07500000000000001
 45
0.0
 46
0.0
 47
0.0
 48
0.0
 49
2.5
140
0.05
141
2.5
142
0.025
143
0.03937007874
144
100.0
145
0.0
146
0.5
147
0.020000000000000004
148
0.0
 69
0
 70
0
 71
0
 72
0
 73
0
 74
0
 75
0
 76
0
 77
1
 78
12
 79
3
170
0
171
3
172
1
173
0
174
0
175
0
176
0
177
0
178
0
179
2
271
2
272
2
273
2
274
3
275
0
276
0
277
2
278
46
279
2
280
0
281
0
282
0
283
0
284
8
285
0
286
0
288
1
289
3
290
0
340
4C
371
-2
372
-2
  0
DIMSTYLE
105
80
330
4
100
AcDbSymbolTableRecord
100
AcDbDimStyleTableRecord
  2
EZ_M_10_H25_CM
 70
0
 40
1.0
 41
0.025
 42
0.0125
 43
3.75
 44
0.037500000000000006
 45
0.0
 46
0.0
 47
0.0
 48
0.0
 49
2.5
140
0.025
141
2.5
142
0.0125
143
0.03937007874
144
100.0
145
0.0
146
0.5
147
0.010000000000000002
148
0.0
 69
0
 70
0
 71
0
 72
0
 73
0
 74
0
 75
0
 76
0
 77
1
 78
12
 79
3
170
0
171
3
172
1
173
0
174
0
175
0
176
0
177
0
178
0
179
2
271
2
272
2
273
2
274
3
275
0
276
0
277
2
278
46
279
2
280
0
281
0
282
0
283
0
284
8
285
0
286
0
288
1
289
3
290
0
340
4C
371
-2
372
-2
  0
DIMSTYLE
105
81
330
4
100
AcDbSymbolTableRecord
100
AcDbDimStyleTableRecord
  2
EZ_M_5_H25_CM
 70
0
 40
1.0
 41
0.0125
 42
0.00625
 43
3.75
 44
0.018750000000000003
 45
0.0
 46
0.0
 47
0.0
 48
0.0
 49
2.5
140
0.0125
141
2.5
142
0.00625
143
0.03937007874
144
100.0
145
0.0
146
0.5
147
0.005000000000000001
148
0.0
 69
0
 70
0
 71
0
 72
0
 73
0
 74
0
 75
0
 76
0
 77
1
 78
12
 79
3
170
0
171
3
172
1
173
0
174
0
175
0
176
0
177
0
178
0
179
2
271
2
272
2
273
2
274
3
275
0
276
0
277
2
278
46
279
2
280
0
281
0
282
0
283
0
284
8
285
0
286
0
288
1
289
3
290
0
340
4C
371
-2
372
-2
  0
DIMSTYLE
105
82
330
4
100
AcDbSymbolTableRecord
100
AcDbDimStyleTableRecord
  2
EZ_M_1_H25_CM
 70
0
 40
1.0
 41
0.0025
 42
0.00125
 43
3.75
 44
0.00375
 45
0.0
 46
0.0
 47
0.0
 48
0.0
 49
2.5
140
0.0025
141
2.5
142
0.00125
143
0.03937007874
144
100.0
145
0.0
146
0.5
147
0.001
148
0.0
 69
0
 70
0
 71
0
 72
0
 73
0
 74
0
 75
0
 76
0
 77
1
 78
12
 79
3
170
0
171
3
172
1
173
0
174
0
175
0
176
0
177
0
178
0
179
2
271
2
272
2
273
2
274
3
275
0
276
0
277
2
278
46
279
2
280
0
281
0
282
0
283
0
284
8
285
0
286
0
288
1
289
3
290
0
340
4C
371
-2
372
-2
  0
DIMSTYLE
105
83
330
4
100
AcDbSymbolTableRecord
100
AcDbDimStyleTableRecord
  2
EZ_RADIUS
 70
0
 40
1.0
 41
0.25
 42
0.125
 43
3.75
 44
0.375
 45
0.0
 46
0.0
 47
0.0
 48
0.0
 49
2.5
140
0.25
141
0.0
142
0.0
143
0.03937007874
144
100.0
145
0.0
146
0.5
147
0.1
148
0.0
 69
0
 70
0
 71
0
 72
0
 73
0
 74
0
 75
0
 76
0
 77
1
 78
12
 79
3
170
0
171
3
172
0
173
0
174
0
175
0
176
0
177
0
178
0
179
2
271
2
272
2
273
2
274
3
275
0
276
0
277
2
278
46
279
1
280
0
281
0
282
0
283
0
284
8
285
0
286
0
288
1
289
3
290
0
340
4C
342
84
371
-2
372
-2
  0
DIMSTYLE
105
88
330
4
100
AcDbSymbolTableRecord
100
AcDbDimStyleTableRecord
  2
EZ_RADIUS_INSIDE
 70
0
 40
1.0
 41
0.25
 42
0.125
 43
3.75
 44
0.375
 45
0.0
 46
0.0
 47
0.0
 48
0.0
 49
2.5
140
0.25
141
0.0
142
0.0
143
0.03937007874
144
100.0
145
0.0
146
0.5
147
0.1
148
0.0
 69
0
 70
0
 71
0
 72
0
 73
0
 74
0
 75
0
 76
0
 77
0
 78
12
 79
3
170
0
171
3
172
0
173
0
174
1
175
0
176
0
177
0
178
0
179
2
271
2
272
2
273
2
274
3
275
0
276
0
277
2
278
46
279
0
280
0
281
0
282
0
283
0
284
8
285
0
286
0
288
1
289
0
290
0
340
4C
342
84
371
-2
372
-2
  0
DIMSTYLE
105
89
330
4
100
AcDbSymbolTableRecord
100
AcDbDimStyleTableRecord
  2
EZ_CURVED
 70
0
 40
1.0
 41
0.25
 42
0.125
 43
3.75
 44
0.375
 45
0.0
 46
0.0
 47
0.0
 48
0.0
 49
2.5
140
0.25
141
2.5
142
0.0
143
0.03937007874
144
100.0
145
0.0
146
0.5
147
0.1
148
0.0
 69
0
 70
0
 71
0
 72
0
 73
0
 74
0
 75
0
 76
0
 77
1
 78
12
 79
2
 90
2
170
0
171
3
172
1
173
0
174
0
175
0
176
0
177
0
178
0
179
2
271
2
272
2
273
2
274
3
275
0
276
0
277
2
278
46
279
2
280
0
281
0
282
0
283
0
284
8
285
0
286
0
288
1
289
3
290
0
340
4C
371
-2
372
-2
  0
ENDTAB
  0
TABLE
  2
BLOCK_RECORD
  5
9
330
0
100
AcDbSymbolTable
 70
5
  0
BLOCK_RECORD
  5
17
330
9
100
AcDbSymbolTableRecord
100
AcDbBlockTableRecord
  2
*Model_Space
340
1A
 70
0
280
1
281
0
  0
BLOCK_RECORD
  5
1B
330
9
100
AcDbSymbolTableRecord
100
AcDbBlockTableRecord
  2
*Paper_Space
340
1E
 70
0
280
1
281
0
  0
BLOCK_RECORD
  5
74
330
9
100
AcDbSymbolTableRecord
100
AcDbBlockTableRecord
  2
_ARCHTICK
340
0
 70
0
280
1
281
0
  0
BLOCK_RECORD
  5
78
330
9
100
AcDbSymbolTableRecord
100
AcDbBlockTableRecord
  2
_CLOSEDFILLED
340
0
 70
0
280
1
281
0
  0
BLOCK_RECORD
  5
84
330
9
100
AcDbSymbolTableRecord
100
AcDbBlockTableRecord
  2
_CLOSEDBLANK
340
0
 70
0
280
1
281
0
  0
ENDTAB
  0
ENDSEC
  0
SECTION
  2
BLOCKS
  0
BLOCK
  5
18
330
17
100
AcDbEntity
  8
0
100
AcDbBlockBegin
  2
*Model_Space
 70
0
 10
0.0
 20
0.0
 30
0.0
  3
*Model_Space
  1

  0
ENDBLK
  5
19
330
17
100
AcDbEntity
  8
0
100
AcDbBlockEnd
  0
BLOCK
  5
1C
330
1B
100
AcDbEntity
  8
0
100
AcDbBlockBegin
  2
*Paper_Space
 70
0
 10
0.0
 20
0.0
 30
0.0
  3
*Paper_Space
  1

  0
ENDBLK
  5
1D
330
1B
100
AcDbEntity
  8
0
100
AcDbBlockEnd
  0
BLOCK
  5
75
330
74
100
AcDbEntity
  8
0
100
AcDbBlockBegin
  2
_ARCHTICK
 70
0
 10
0.0
 20
0.0
 30
0.0
  3
_ARCHTICK
  1

  0
LWPOLYLINE
  5
77
330
74
100
AcDbEntity
  8
0
  6
BYBLOCK
 62
0
100
AcDbPolyline
 90
2
 70
0
 43
0.15
 10
-0.5
 20
-0.5
 10
0.5
 20
0.5
  0
ENDBLK
  5
76
330
74
100
AcDbEntity
  8
0
100
AcDbBlockEnd
  0
BLOCK
  5
79
330
78
100
AcDbEntity
  8
0
100
AcDbBlockBegin
  2
_CLOSEDFILLED
 70
0
 10
0.0
 20
0.0
 30
0.0
  3
_CLOSEDFILLED
  1

  0
SOLID
  5
7B
330
78
100
AcDbEntity
  8
0
  6
BYBLOCK
 62
0
100
AcDbTrace
 10
-1.0
 20
0.16439898372402537
 30
0.0
 11
0.0
 21
0.0
 31
0.0
 12
-1.0
 22
-0.16439898372402537
 32
0.0
 13
-1.0
 23
-0.16439898372402537
 33
0.0
  0
ENDBLK
  5
7A
330
78
100
AcDbEntity
  8
0
100
AcDbBlockEnd
  0
BLOCK
  5
85
330
84
100
AcDbEntity
  8
0
100
AcDbBlockBegin
  2
_CLOSEDBLANK
 70
0
 10
0.0
 20
0.0
 30
0.0
  3
_CLOSEDBLANK
  1

  0
LWPOLYLINE
  5
87
330
84
100
AcDbEntity
  8
0
  6
BYBLOCK
 62
0
100
AcDbPolyline
 90
3
 70
1
 10
-1.0
 20
0.16439898372402537
 10
0.0
 20
0.0
 10
-1.0
 20
-0.16439898372402537
  0
ENDBLK
  5
86
330
84
100
AcDbEntity
  8
0
100
AcDbBlockEnd
  0
ENDSEC
  0
SECTION
  2
ENTITIES
  0
LWPOLYLINE
  5
8A
330
17
100
AcDbEntity
  8
0
100
AcDbPolyline
 90
1200
 70
0
 43
500.0
 10
300.0
 20
0.0
 10
306.6048563352448
 20
6.427814269708596
 10
313.06913878799264
 20
13.132441138520674
 10
319.38414731276947
 20
20.110750520695767
 10
325.54125260021095
 20
27.359369302354608
 10
331.531902440837
 20
34.87468295843149
 10
337.34762805155606
 20
42.65283732958083
 10
342.9800503609952
 20
50.68974055817449
 10
348.42088624976384
 20
58.98106518243228
 10
353.66195474178744
 20
67.52225038763598
 10
358.6951831428691
 20
76.30850441328322
 10
363.5126131226634
 20
85.3348071149472
 10
368.1064067362778
 20
94.59591267951564
 10
372.4688523817453
 20
104.08635249239215
 10
376.59237068964705
 20
113.80043815515319
 10
380.46952034119835
 20
123.73226465206476
 10
384.0930038111475
 20
133.87571366377418
 10
387.4556730318796
 20
144.2244570264051
 10
390.5505349751543
 20
154.77196033419722
 10
393.37075714795446
 20
165.51148668374665
 10
395.9096729989661
 20
176.4361005578182
 10
398.1607872322558
 20
187.5386718466167
 10
400.11778102476666
 20
198.81188000432383
 10
401.77451714429816
 20
210.2482183386227
 10
403.1250449646953
 20
221.83999843085556
 10
404.163605375023
 20
233.5793546843791
 10
404.884635579562
 20
245.4582489986037
 10
405.28277378551815
 20
257.46847556613
 10
405.35286377540245
 20
269.6016657903168
 10
405.08995936109636
 20
281.84929332054475
 10
404.4893287166853
 20
294.20267920236574
 10
403.54645858720767
 20
306.6529971396592
 10
402.2570583705339
 20
319.191278865845
 10
400.61706406966056
 20
331.8084196211402
 10
398.62264211277346
 20
344.4951837327734
 10
396.27019303851074
 20
357.242210295015
 10
393.55635504392245
 20
370.0400189458125
 10
390.478007392709
 20
382.87901573676226
 10
387.03227368138914
 20
395.74949909309026
 10
383.21652496113103
 20
408.6416658602569
 10
379.0283827130584
 20
421.5456174337436
 10
374.46572167492457
 20
434.4513659685288
 10
369.52667251712984
 20
447.3488406647082
 10
364.209624366141
 20
460.22789412566186
 10
358.513227173456
 20
473.0783087851264
 10
352.4363939283432
 20
485.8898033994845
 10
345.97830271267264
 20
498.65203960153747
 10
339.138398596241
 20
511.35462851198594
 10
331.9163953710863
 20
523.9871374048088
 10
324.31227712337284
 20
536.5390964226832
 10
316.3262996415225
 20
549.0000053385629
 10
307.9589916593573
 20
561.3593403594923
 10
299.2111559331101
 20
573.6065609687048
 10
290.0838701512578
 20
585.731116802026
 10
280.5784876762204
 20
597.7224545545718
 10
270.69663811706596
 20
609.5700249137091
 10
260.4402277324592
 20
621.2632895142281
 10
249.81143966318282
 20
632.7917279116436
 10
238.81273399365963
 20
644.1448445695413
 10
227.44684764200102
 20
655.3121758568496
 10
215.71679407820287
 20
666.2832970509241
 10
203.62586287020764
 20
677.0478293423035
 10
191.17761905765087
 20
687.5954468369985
 10
178.37590235320678
 20
697.9158835521608
 10
165.2248261715459
 20
707.9989404009831
 10
151.72877648601863
 20
717.8344921626676
 10
137.89241051327346
 20
727.4124944333117
 10
123.7206552261199
 20
736.7229905535571
 10
109.21870569504462
 20
745.7561185088509
 10
94.39202325888455
 20
754.5021177981822
 10
79.24633352526465
 20
762.9513362671553
 10
63.787624201501316
 20
771.0942369012876
 10
48.02214275677249
 20
778.9214045754187
 10
31.95639391645281
 20
786.4235527551448
 10
15.5971369896109
 20
793.5915301462051
 10
-1.048616969241448
 20
800.4163272877735
 10
-17.973608162955344
 20
806.889083085623
 10
-35.17033121782349
 20
813.0010912811659
 10
-52.63103851154977
 20
818.7438068523921
 10
-70.34774366163458
 20
824.1088523427653
 10
-88.3122251726051
 20
829.0880241141622
 10
-106.51603024042986
 20
833.6732985199778
 10
-124.9504787123582
 20
837.8568379945578
 10
-143.6066672003395
 20
841.6309970551532
 10
-162.47547334608154
 20
844.9883282126384
 10
-181.54756023572043
 20
847.9215877872734
 10
-200.81338096198118
 20
850.4237416258381
 10
-220.26318333162683
 20
852.4879707165125
 10
-239.8870147158972
 20
854.1076766979263
 10
-259.6747270415616
 20
855.2764872588562
 10
-279.61598192011934
 20
855.9882614250951
 10
-299.7002559126003
 20
856.2370947300818
 10
-319.9168459273339
 20
856.0173242659308
 10
-340.2548747479775
 20
855.3235336115636
 10
-360.70329668900894
 20
854.1505576347055
 10
-381.2509033758162
 20
852.4934871645731
 10
-401.8863296464365
 20
850.3476735321423
 10
-422.5980595719218
 20
847.7087329749568
 10
-443.37443259223477
 20
844.5725509035035
 10
-464.20364976450924
 20
840.9352860262502
 10
-485.0737801204279
 20
836.7933743305183
 10
-505.9727671294182
 20
832.14353291643
 10
-526.8884352642847
 20
826.9827636812521
 10
-547.8084966658339
 20
821.3083568515328
 10
-568.7205579029937
 20
815.1178943605028
 10
-589.6121268248473
 20
808.4092530683001
 10
-610.4706195009653
 20
801.1806078226538
 10
-631.2833672463416
 20
793.4304343577458
 10
-652.0376237271871
 20
785.1575120290596
 10
-672.7205721437929
 20
776.3609263821019
 10
-693.3193324865981
 20
767.04007155298
 10
-713.820968861575
 20
757.1946524988992
 10
-734.2124968809659
 20
746.8246870567391
 10
-754.4808911153867
 20
735.930507827954
 10
-774.613092603251
 20
724.5127638881418
 10
-794.5960164134241
 20
712.5724223197114
 10
-814.4165592569959
 20
700.1107695661768
 10
-834.0616071439957
 20
687.1294126067053
 10
-853.5180430808607
 20
673.6302799496326
 10
-872.7727548044193
 20
659.6156224437658
 10
-891.8126425481282
 20
645.088013906392
 10
-910.6246268362717
 20
630.0503515669965
 10
-929.1956563017952
 20
614.5058563258158
 10
-947.5127155234425
 20
598.4580728264282
 10
-965.5628328778103
 20
581.9108693417052
 10
-983.3330884019508
 20
564.8684374725327
 10
-1000.8106216621086
 20
547.3352916588243
 10
-1017.9826396241671
 20
529.3162685024467
 10
-1034.8364245213843
 20
510.81652590177777
 10
-1051.359341714959
 20
491.841541997729
 10
-1067.5388475429863
 20
472.39711393115806
 10
-1083.3624971533407
 20
452.4893564117073
 10
-1098.8179523160195
 20
432.12470009821124
 10
-1113.8929892104966
 20
411.3098897909056
 10
-1128.5755061836132
 20
390.0519824357985
 10
-1142.8535314735523
 20
368.3583449416425
 10
-1156.7152308954508
 20
346.2366518100704
 10
-1170.148915484199
 20
323.6948825795584
 10
-1183.1430490899995
 20
300.74131908396913
 10
-1195.6862559222677
 20
277.3845425265591
 10
-1207.7673280374747
 20
253.63343037040673
 10
-1219.3752327665386
 20
229.49715304635234
 10
-1230.4991200774143
 20
204.9851704796164
 10
-1241.1283298685348
 20
180.107228436384
 10
-1251.2523991887865
 20
154.87335469174337
 10
-1260.8610693797402
 20
129.29385502045292
 10
-1269.9442931358742
 20
103.37930901213873
 10
-1278.4922414785713
 20
77.14056571259803
 10
-1286.4953106396965
 20
50.58873909300086
 10
-1293.9441288506048
 20
23.735203348883154
 10
-1300.8295630324735
 20
-3.4084119690973798
 10
-1307.1427253838772
 20
-30.830226990542194
 10
-1312.8749798615922
 20
-58.518116724668
 10
-1318.0179485506435
 20
-86.45971642134472
 10
-1322.5635179196656
 20
-114.64242709145945
 10
-1326.5038449576998
 20
-143.05342118413682
 10
-1329.831363188598
 20
-171.6796484182529
 10
-1332.5387885592665
 20
-200.50784176560958
 10
-1334.6191251980322
 20
-229.52452358301346
 10
-1336.0656710394776
 20
-258.71601189044617
 10
-1336.8720233121571
 20
-288.0684267924059
 10
-1337.03208388566
 20
-317.56769703941166
 10
-1336.5400644735605
 20
-347.19956672660044
 10
-1335.3904916888607
 20
-376.9496021262274
 10
-1333.5782119486005
 20
-406.8031986508338
 10
-1331.0983962243802
 20
-436.74558794374354
 10
-1327.9465446356176
 20
-466.7618450934703
 10
-1324.118490882437
 20
-496.83689596856357
 10
-1319.6104065151596
 20
-526.9555246693089
 10
-1314.418805037449
 20
-557.1023810926636
 10
-1308.5405458402506
 20
-587.2619886067009
 10
-1301.9728379637331
 20
-617.4187518307945
 10
-1294.7132436845357
 20
-647.5569645176904
 10
-1286.7596819257114
 20
-677.6608175335436
 10
-1278.1104314868346
 20
-707.7144069319537
 10
-1268.7641340918394
 20
-737.7017421179397
 10
-1258.7197972522438
 20
-767.606754097764
 10
-1247.9767969435015
 20
-797.4133038104383
 10
-1236.534880092328
 20
-827.1051905366841
 10
-1224.3941668729278
 20
-856.6661603810921
 10
-1211.5551528101605
 20
-886.0799148231335
 10
-1198.0187106877706
 20
-915.3301193326661
 10
-1183.7860922599102
 20
-944.4004120454937
 10
-1168.8589297642823
 20
-973.2744124945224
 10
-1153.239237235329
 20
-1001.9357303919944
 10
-1136.9294116160072
 20
-1030.367974458238
 10
-1119.9322336667685
 20
-1058.5547612923547
 10
-1102.2508686704996
 20
-1086.4797242801947
 10
-1083.8888669322546
 20
-1114.1265225349705
 10
-1064.8501640727338
 20
-1141.4788498658083
 10
-1045.1390811145677
 20
-1168.5204437694983
 10
-1024.7603243605638
 20
-1195.2350944407126
 10
-1003.7189850631985
 20
-1221.6066537958927
 10
-982.0205388847279
 20
-1247.6190445060142
 10
-959.6708451474127
 20
-1273.256269033413
 10
-936.6761458734592
 20
-1298.5024186678247
 10
-913.0430646143875
 20
-1323.3416825567974
 10
-888.77860506965
 20
-1347.7583567256054
 10
-863.8901494944416
 20
-1371.7368530817876
 10
-838.3854568967394
 20
-1395.2617083994405
 10
-812.2726610237355
 20
-1418.3175932783718
 10
-785.5602681379396
 20
-1440.8893210732265
 10
-758.2571545833198
 20
-1462.9618567877058
 10
-730.3725641420053
 20
-1484.5203259289833
 10
-701.916105182128
 20
-1505.550023317452
 10
-672.8977475975495
 20
-1526.0364218469258
 10
-643.3278195402974
 20
-1545.9651811904341
 10
-613.2170039466533
 20
-1565.3221564467765
 10
-582.5763348579709
 20
-1584.093406722984
 10
-551.4171935373671
 20
-1602.2652036479033
 10
-519.7513043835897
 20
-1619.8240398120947
 10
-487.5907306434495
 20
-1636.7566371292858
 10
-454.9478699243104
 20
-1653.0499551146374
 10
-421.8354495082781
 20
-1668.6911990751141
 10
-388.2665214697794
 20
-1683.667828207274
 10
-354.2544575983907
 20
-1697.9675635978406
 10
-319.8129441288391
 20
-1711.5783961224408
 10
-284.9559762802493
 20
-1724.4885942379337
 10
-249.69785260676412
 20
-1736.6867116638184
 10
-214.05316916182218
 20
-1748.1615949482145
 10
-178.03681347845418
 20
-1758.9023909139928
 10
-141.6639583680617
 20
-1768.898553980657
 10
-104.95005554027689
 20
-1778.1398533576414
 10
-67.91082904654965
 20
-1786.616380104737
 10
-30.56226855026435
 20
-1794.3185540554207
 10
7.079377573744061
 20
-1801.2371305989113
 10
44.997609307304735
 20
-1807.3632073168485
 10
83.17568222155863
 20
-1812.6882304705382
 10
121.59661487100065
 20
-1817.204001334795
 10
160.24319634562718
 20
-1820.9026823744546
 10
199.09799397783914
 20
-1823.776803259721
 10
238.14336120065806
 20
-1825.819266716568
 10
277.3614455536922
 20
-1827.023354208505
 10
316.73419683325477
 20
-1827.382731446072
 10
356.2433753828964
 20
-1826.8914537205344
 10
395.8705605205573
 20
-1825.5439710582993
 10
435.59715909846494
 20
-1823.3351331926833
 10
475.40441419178546
 20
-1820.2601943497245
 10
515.2734139120162
 20
-1816.314817844834
 10
555.1851003409722
 20
-1811.4950804871632
 10
595.1202785811724
 20
-1805.7974767886508
 10
635.0596259183635
 20
-1799.218922974808
 10
674.9837010918072
 20
-1791.7567607944006
 10
714.8729536679507
 20
-1783.408761125268
 10
754.7077335129676
 20
-1774.173127373627
 10
794.4683003596425
 20
-1764.0484986643028
 10
834.1348334639548
 20
-1753.0339528194345
 10
873.6874413467257
 20
-1741.1290091232934
 10
913.1061716155638
 20
-1728.3336308709686
 10
952.3710208623303
 20
-1714.6482276987704
 10
991.4619446312863
 20
-1700.0736576943077
 10
1030.3588674529974
 20
-1684.6112292843184
 10
1069.041692939083
 20
-1668.262702898409
 10
1107.4903139327896
 20
-1651.0302924070063
 10
1145.684622710357
 20
-1632.9166663319093
 10
1183.6045212281
 20
-1613.9249488279477
 10
1221.2299314100635
 20
-1594.0587204343813
 10
1258.5408054711177
 20
-1573.322018594762
 10
1295.5171362702772
 20
-1551.7193379441194
 10
1332.1389676890237
 20
-1529.255630362437
 10
1368.3864050293826
 20
-1505.9363047935
 10
1404.2396254264422
 20
-1481.767226828329
 10
1439.6788882700464
 20
-1456.7547180525064
 10
1474.6845456302924
 20
-1430.9055551568463
 10
1509.2370526815048
 20
-1404.2269688109704
 10
1543.3169781193174
 20
-1376.7266422994599
 10
1576.9050145654633
 20
-1348.412709920408
 10
1609.9819889549083
 20
-1319.2937551462683
 10
1642.5288728999105
 20
-1289.3788085470712
 10
1674.526793025601
 20
-1258.677345476159
 10
1705.9570412716862
 20
-1227.1992835187345
 10
1736.8010851548452
 20
-1194.9549797036486
 10
1767.0405779864388
 20
-1161.9552274789382
 10
1796.6573690401078
 20
-1128.2112534517946
 10
1825.6335136638852
 20
-1093.7347138937255
 10
1853.9512833314213
 20
-1058.53769101184
 10
1881.5931756269742
 20
-1022.6326889872516
 10
1908.5419241587995
 20
-986.0326297817693
 10
1934.780508395608
 20
-948.7508487141429
 10
1960.2921634207962
 20
-910.8010898072473
 10
1985.060389599132
 20
-872.19750090774
 10
2009.0689621506747
 20
-832.9546285798004
 10
2032.301940626677
 20
-793.0874127747279
 10
2054.74367828228
 20
-752.6111812782669
 10
2076.37883134085
 20
-711.541643937646
 10
2097.192368144823
 20
-669.8948866704712
 10
2117.1695781879866
 20
-627.6873652576691
 10
2136.2960810241702
 20
-584.935898922858
 10
2154.557835047335
 20
-541.6576637006003
 10
2171.9411461381524
 20
-497.8701855961104
 10
2188.4326761721495
 20
-453.59133353913853
 10
2204.019451384622
 20
-408.8393121348036
 10
2218.6888705875194
 20
-363.63265421432396
 10
2232.428713233589
 20
-317.99021318866545
 10
2245.2271473231312
 20
-271.93115520824205
 10
2257.0727371487687
 20
-225.4749511319459
 10
2267.9544508737163
 20
-178.64136830882623
 10
2277.8616679390952
 20
-131.45046217590877
 10
2286.7841862959144
 20
-83.92256767571361
 10
2294.712229457411
 20
-36.078290497130986
 10
2301.636453367524
 20
12.061501856542518
 10
2307.5479530813564
 20
60.4756891685772
 10
2312.4382692535523
 20
109.14290777479154
 10
2316.2993944306136
 20
158.04155999050076
 10
2319.123779143254
 20
207.1498236942401
 10
2320.9043377949874
 20
256.44566206405136
 10
2321.6344543432283
 20
305.9068334619598
 10
2321.3079877692862
 20
355.5109014622186
 10
2319.9192773337204
 20
405.2352450188139
 10
2317.4631476136233
 20
455.05706876759524
 10
2313.9349133184965
 20
504.95341345838716
 10
2309.330383881493
 20
554.9011665122845
 10
2303.645867822891
 20
604.8770726992958
 10
2296.8781768827694
 20
654.8577449314265
 10
2289.024629919981
 20
704.8196751661723
 10
2280.083056574594
 20
754.739245415401
 10
2270.0518006911134
 20
804.5927388544537
 10
2258.9297234998917
 20
854.3563510262749
 10
2246.716206554248
 20
904.0062011353119
 10
2233.4111544209422
 20
953.5183434258274
 10
2219.014997121747
 20
1002.8687786392742
 10
2203.5286923240087
 20
1052.0334655452587
 10
2186.95372727817
 20
1100.988332540602
 10
2169.2921205003786
 20
1149.7092893109582
 10
2150.5464231984183
 20
1198.172238549357
 10
2130.7197204393074
 20
1246.3530877260678
 10
2109.8156320570597
 20
1294.2277609040614
 10
2087.838313299205
 20
1341.7722105943453
 10
2064.7924552108034
 20
1388.962429645421
 10
2040.6832847548274
 20
1435.7744631610174
 10
2015.5165646678777
 20
1482.1844204403096
 10
1989.2985930503673
 20
1528.1684869347207
 10
1962.0362026904136
 20
1573.7029362154358
 10
1933.7367601208248
 20
1618.7641419456756
 10
1904.4081644086816
 20
1663.3285898518343
 10
1874.058845677159
 20
1707.3728896874852
 10
1842.6977633593624
 20
1750.8737871842989
 10
1810.3344041840846
 20
1793.8081759838922
 10
1776.9787798935317
 20
1836.153109544583
 10
1742.6414246931756
 20
1877.8858130170904
 10
1707.3333924340545
 20
1918.983695083141
 10
1671.066253527963
 20
1959.4243597509874
 10
1633.8520915960971
 20
1999.1856181018475
 10
1595.703499851889
 20
2038.245499981228
 10
1556.633577218849
 20
2076.582265629189
 10
1516.6559241844143
 20
2114.174417243542
 10
1475.7846383909143
 20
2151.000710470016
 10
1434.034309964895
 20
2187.040165813473
 10
1391.4200165862035
 20
2222.272079964196
 10
1347.9573182983222
 20
2256.6760370334055
 10
1303.6622520616263
 20
2290.231919692085
 10
1258.5513260513355
 20
2322.9199202072846
 10
1212.641513702068
 20
2354.7205513700965
 10
1165.9502475010715
 20
2385.6146573094934
 10
1118.4954125322697
 20
2415.583424186332
 10
1070.2953397734611
 20
2444.6083907617867
 10
1021.3687991490992
 20
2472.671458834574
 10
971.734992341206
 20
2499.754903541363
 10
921.4135453611501
 20
2525.8413835148
 10
870.4245008850625
 20
2550.9139508936573
 10
818.7883103558713
 20
2574.9560611796546
 10
766.5258258550061
 20
2597.9515829355555
 10
713.6582917469926
 20
2619.8848073192157
 10
660.2073361002173
 20
2640.7404574483235
 10
606.1949618873318
 20
2660.503697590632
 10
551.64353796884
 20
2679.160142174546
 10
496.57578986353593
 20
2696.695864615039
 10
441.0147903096167
 20
2713.0974059498812
 10
384.9839496203322
 20
2728.3517832813145
 10
328.50700583822754
 20
2742.4464980183334
 10
271.6080146920984
 20
2755.3695439148414
 10
214.3113393608907
 20
2767.1094148990355
 10
156.64164004893135
 20
2777.6551126894474
 10
98.62386337689914
 20
2786.996154193183
 10
40.28323159313457
 20
2795.1225786819705
 10
-18.35476839005941
 20
2802.0249547417434
 10
-77.26439613037276
 20
2807.6943869915663
 10
-136.41966895479877
 20
2812.1225225678286
 10
-195.79437341938905
 20
2815.301557369719
 10
-255.3620769243624
 20
2817.224242062111
 10
-315.09613947943194
 20
2817.883887832081
 10
-374.96972561412946
 20
2817.2743718954157
 10
-434.9558164277611
 20
2815.390142749542
 10
-495.02722177365325
 20
2812.2262251694656
 10
-555.1565925721214
 20
2807.77822494338
 10
-615.3164332466564
 20
2802.042333344764
 10
-675.4791142776397
 20
2795.0153313378705
 10
-735.6168848678798
 20
2786.6945935136587
 10
-795.701885714168
 20
2777.0780917533184
 10
-855.7061618789947
 20
2766.164398616691
 10
-915.6016757564851
 20
2753.952690452987
 10
-975.3603201265626
 20
2740.442750231353
 10
-1034.9539312912766
 20
2725.6349700889455
 10
-1094.3543022872036
 20
2709.5303535943303
 10
-1153.5331961676754
 20
2692.130517724139
 10
-1212.4623593487102
 20
2673.4376945510376
 10
-1271.113535012287
 20
2653.454732641232
 10
-1329.4584765606846
 20
2632.1850981598423
 10
-1387.4689611154924
 20
2609.6328756826174
 10
-1445.1168030549022
 20
2585.8027687126246
 10
-1502.3738675828215
 20
2560.700099900655
 10
-1559.2120843233265
 20
2534.3308109682557
 10
-1615.6034609339677
 20
2506.7014623324108
 10
-1671.5200967313103
 20
2477.8192324310885
 10
-1726.9341963222403
 20
2447.6919167489405
 10
-1781.818083234368
 20
2416.327926542645
 10
-1836.1442135389493
 20
2383.7362872655135
 10
-1889.8851894596849
 20
2349.9266366911033
 10
-1943.0137729607698
 20
2314.909222735765
 10
-1995.502899307524
 20
2278.6949009801556
 10
-2047.3256905929634
 20
2241.2951318899345
 10
-2098.4554692236306
 20
2202.721977735979
 10
-2148.865771358061
 20
2162.988099214609
 10
-2198.5303602911526
 20
2122.106751768491
 10
-2247.423239777879
 20
2080.0917816089636
 10
-2295.518667289632
 20
2036.9576214407598
 10
-2342.791167196595
 20
1992.7192858901951
 10
-2389.215543869523
 20
1947.3923666380497
 10
-2434.7668946943418
 20
1900.993027258532
 10
-2479.4206229929828
 20
1853.537997765842
 10
-2523.1524508439165
 20
1805.0445688700067
 10
-2565.9384317958634
 20
1755.5305859438174
 10
-2607.7549634682036
 20
1705.0144427027935
 10
-2648.5788000316093
 20
1653.5150746003594
 10
-2688.38706456253
 20
1601.0519519403924
 10
-2727.1572612651335
 20
1547.6450727096105
 10
-2764.8672875543807
 20
1493.3149551323006
 10
-2801.495445993974
 20
1438.082629950096
 10
-2837.020456082937
 20
1381.9696324295996
 10
-2871.4214658846763
 20
1324.9979941008412
 10
-2904.678063492387
 20
1267.1902342296535
 10
-2936.770288324804
 20
1208.5693510271988
 10
-2967.67864224623
 20
1149.1588126000806
 10
-2997.3841005050135
 20
1088.9825476444648
 10
-3025.868122484568
 20
1028.0649358879264
 10
-3053.1126622611764
 20
966.4307982827745
 10
-3079.100178962887
 20
904.1053869547706
 10
-3103.813646923871
 20
841.1143749112798
 10
-3127.236565628717
 20
777.4838455130276
 10
-3149.3529694411986
 20
713.2402817137536
 10
-3170.1474371121617
 20
648.4105550721904
 10
-3189.6051010612537
 20
583.021914540877
 10
-3207.7116564273124
 20
517.1019750365555
 10
-3224.453369882338
 20
450.6787057968196
 10
-3239.8170882040654
 20
383.7804185280037
 10
-3253.7902466022424
 20
316.43575534929124
 10
-3266.360876793857
 20
248.67367653817828
 10
-3277.5176148226215
 20
180.5234480825302
 10
-3287.2497086181666
 20
112.01462904458053
 10
-3295.5470252904984
 20
43.17705874232591
 10
-3302.4000581553682
 20
-25.95915624612004
 10
-3307.799933486359
 20
-95.36365524958852
 10
-3311.7384169895686
 20
-165.00583683648708
 10
-3314.207919996935
 20
-234.85487230726352
 10
-3315.2015053743326
 20
-304.87971934066445
 10
-3314.7128931407265
 20
-375.0491357877849
 10
-3312.7364657947714
 20
-445.3316936077725
 10
-3309.267273345407
 20
-515.6957929389739
 10
-3304.301038043091
 20
-586.1096762992227
 10
-3297.83415880849
 20
-656.5414429088883
 10
-3289.8637153555383
 20
-726.9590631302613
 10
-3280.387472005964
 20
-797.3303930166618
 10
-3269.4038811924734
 20
-867.6231889647826
 10
-3256.9120866479493
 20
-937.8051224635101
 10
-3242.9119262781724
 20
-1007.8437949325225
 10
-3227.403934715693
 20
-1077.7067526438625
 10
-3210.389345552649
 20
-1147.3615017196232
 10
-3191.870093250453
 20
-1216.7755231988358
 10
-3171.8488147244534
 20
-1285.9162881665927
 10
-3150.3288506017816
 20
-1354.7512729383802
 10
-3127.3142461507755
 20
-1423.2479742925948
 10
-3102.809751880543
 20
-1491.3739247440494
 10
-3076.8208238093102
 20
-1559.096707851436
 10
-3049.3536234004496
 20
-1626.383973551476
 10
-3020.4150171651577
 20
-1693.2034535125786
 10
-2990.0125759309576
 20
-1759.5229765007468
 10
-2958.1545737753436
 20
-1825.3104837504718
 10
-2924.849986624035
 20
-1890.5340443332982
 10
-2890.1084905134785
 20
-1955.1618705167675
 10
-2853.9404595174055
 20
-2019.1623331063856
 10
-2816.3569633373554
 20
-2082.5039767633043
 10
-2777.369764557357
 20
-2145.1555352902915
 10
-2736.9913155629542
 20
-2207.085946878721
 10
-2695.234755125078
 20
-2268.2643693091572
 10
-2652.1139046493336
 20
-2328.6601950981885
 10
-2607.6432640914722
 20
-2388.243066584164
 10
-2561.83800753996
 20
-2446.982890944472
 10
-2514.713978466737
 20
-2504.8498551370344
 10
-2466.287684647406
 20
-2561.814440758684
 10
-2416.5762927522383
 20
-2617.8474388131644
 10
-2365.5976226096177
 20
-2672.9199643813795
 10
-2313.370141143573
 20
-2727.0034711867625
 10
-2259.9129559873486
 20
-2780.069766048453
 10
-2205.2458087750274
 20
-2832.091023215121
 10
-2149.3890681134267
 20
-2883.0397985722866
 10
-2092.3637222366274
 20
-2932.889043716024
 10
-2034.1913713456559
 20
-2981.612119885967
 10
-1974.8942196360038
 20
-3029.182811750611
 10
-1914.4950670158255
 20
-3075.5753410379275
 10
-1853.017300517769
 20
-3120.7643800043943
 10
-1790.4848854076736
 20
-3164.7250647355386
 10
-1726.922355993311
 20
-3207.433008271247
 10
-1662.3548061367214
 20
-3248.864313549081
 10
-1596.8078794736946
 20
-3288.995586158929
 10
-1530.3077593441612
 20
-3327.803946902413
 10
-1462.88115843739
 20
-3365.267044150517
 10
-1394.5553081560365
 20
-3401.363065993012
 10
-1325.3579477032324
 20
-3436.070752173294
 10
-1255.3173128970514
 20
-3469.369405802376
 10
-1184.462124716796
 20
-3501.238904845847
 10
-1112.8215775858027
 20
-3531.659713377665
 10
-1040.4253273954016
 20
-3560.6128925948356
 10
-967.3034792750077
 20
-3588.0801115870177
 10
-893.4865751133281
 20
-3614.043657855281
 10
-819.0055808358467
 20
-3638.4864475742884
 10
-743.8918734438708
 20
-3661.3920355923283
 10
-668.177227820549
 20
-3682.74462516368
 10
-591.8938033094041
 20
-3702.5290774079613
 10
-515.0741300710055
 20
-3720.7309204911785
 10
-437.75109522365335
 20
-3737.3363585233374
 10
-359.9579287738487
 20
-3752.332280167591
 10
-281.72818934265837
 20
-3765.706266956025
 10
-203.09574969406626
 20
-3777.446601307305
 10
-124.0947820715529
 20
-3787.5422742415267
 10
-44.75974334925279
 20
-3795.9829927877663
 10
34.87463999586158
 20
-3802.759187079933
 10
114.77338708421348
 20
-3807.8620171366947
 10
194.9012779996146
 20
-3811.2833793213417
 10
275.22286931430693
 20
-3813.0159124776405
 10
355.70250976610856
 20
-3813.053003737834
 10
436.3043560808661
 20
-3811.388793999117
 10
516.9923889330888
 20
-3808.0181830650477
 10
597.7304290377016
 20
-3802.936834448502
 10
678.4821533657198
 20
-3796.1411798329427
 10
759.2111114765854
 20
-3787.628423188921
 10
839.8807419598184
 20
-3777.396544542872
 10
920.4543889785788
 20
-3765.4443033954444
 10
1000.8953189076485
 20
-3751.7712417867433
 10
1081.1667370583305
 20
-3736.3776870060274
 10
1161.2318044825586
 20
-3719.264753943589
 10
1241.053654848691
 20
-3700.434347082654
 10
1320.5954113811654
 20
-3679.889162129371
 10
1399.8202038562902
 20
-3657.632687279058
 10
1478.6911856463482
 20
-3633.6692041171023
 10
1557.1715508041518
 20
-3608.003788153023
 10
1635.2245511801536
 20
-3580.6423089864224
 10
1712.8135135641653
 20
-3551.5914301036846
 10
1789.9018568437568
 20
-3520.8586083044675
 10
1866.4531091712404
 20
-3488.452092757226
 10
1942.4309251313468
 20
-3454.380923683133
 10
2017.7991029014497
 20
-3418.6549306679653
 10
2092.5216013963095
 20
-3381.284730601707
 10
2166.5625573892694
 20
-3342.281725245776
 10
2239.886302601791
 20
-3301.658098427955
 10
2312.4573807532597
 20
-3259.4268128652975
 10
2384.2405645629474
 20
-3215.601606615452
 10
2455.200872696038
 20
-3170.1969891570184
 10
2525.303586645657
 20
-3123.2282370997013
 10
2594.514267542742
 20
-3074.711389525304
 10
2662.798772885788
 20
-3024.66324296061
 10
2730.1232731823443
 20
-2973.101345983547
 10
2796.4542684942544
 20
-2920.043993464098
 10
2861.7586048786247
 20
-2865.5102204416416
 10
2926.003490716548
 20
-2809.5197956405673
 10
2989.1565129216315
 20
-2752.093214626196
 10
3051.1856530204086
 20
-2693.251692603187
 10
3112.0593030967666
 20
-2633.0171568588285
 10
3171.7462815925896
 20
-2571.4122388537126
 10
3230.215848956749
 20
-2508.4602659625957
 10
3287.437723134821
 20
-2444.1852528682266
 10
3343.3820948917682
 20
-2378.611892611273
 10
3398.019642960014
 20
-2311.765547299568
 10
3451.3215490053194
 20
-2243.67223848004
 10
3503.2595124030067
 20
-2174.3586371769343
 10
3553.8057648170743
 20
-2103.852053600019
 10
3602.933084574881
 20
-2032.1804265267021
 10
3650.6148108301277
 20
-1959.3723123620675
 10
3696.824857506909
 20
-1885.4568738811502
 10
3741.537727017779
 20
-1810.4638686576968
 10
3784.7285237487936
 20
-1734.4236371840598
 10
3826.372967304579
 20
-1657.367090686862
 10
3866.4474055066257
 20
-1579.3256986433028
 10
3904.9288271380615
 20
-1500.3314760031067
 10
3941.7948744282585
 20
-1420.416970121259
 10
3977.023855270765
 20
-1339.6152474068429
 10
4010.5947551681234
 20
-1257.9598796934195
 10
4042.487248897294
 20
-1175.4849303365238
 10
4072.6817118894432
 20
-1092.2249400440926
 10
4101.159231318067
 20
-1008.2149124455779
 10
4127.901616889476
 20
-923.4902994058565
 10
4152.891411329801
 20
-838.0869860900436
 10
4176.1119005628325
 20
-752.0412757854963
 10
4197.547123573114
 20
-665.389874487419
 10
4217.1818819488335
 20
-578.1698752546048
 10
4235.00174909925
 20
-490.4187423419788
 10
4250.993079141431
 20
-402.1742951167289
 10
4265.143015451336
 20
-313.4746917648821
 10
4277.439498874316
 20
-224.35841279545684
 10
4287.871275590332
 20
-134.86424434916873
 10
4296.427904629292
 20
-45.03126131904203
 10
4303.099765032079
 20
45.101189709773365
 10
4307.878062652985
 20
135.49350769352364
 10
4310.754836599451
 20
226.1058545291634
 10
4311.722965305126
 20
316.8981726118139
 10
4310.776172232469
 20
407.83020254262175
 10
4307.9090312012395
 20
498.861500979237
 10
4303.116971339408
 20
589.9514586208796
 10
4296.396281653214
 20
681.0593183201539
 10
4287.744115213175
 20
772.1441933134178
 10
4277.15849295315
 20
863.1650855616
 10
4264.6383070796355
 20
954.0809041932379
 10
4250.183324088674
 20
1044.8504840414396
 10
4233.794187387968
 20
1135.4326042664154
 10
4215.4724195219005
 20
1225.7860070551617
 10
4195.2204239974235
 20
1315.8694163898133
 10
4173.0414867088775
 20
1405.641556876182
 10
4148.939776960071
 20
1495.0611726237958
 10
4122.920348082031
 20
1584.0870461689558
 10
4094.989137645126
 20
1672.6780174320472
 10
4065.1529672643833
 20
1760.7930027004386
 10
4033.4195419970088
 20
1848.3910136282275
 10
3999.7974493313473
 20
1935.4311762440743
 10
3964.296157766671
 20
2021.872749958324
 10
3926.926014983386
 20
2107.675146560614
 10
3887.6982456034475
 20
2192.7979491991246
 10
3846.6249485409217
 20
2277.200931332675
 10
3803.719093942923
 20
2360.844075646705
 10
3758.994519721197
 20
2443.6875929244356
 10
3712.4659276749476
 20
2525.6919408642298
 10
3664.1488792056352
 20
2606.817842834357
 10
3614.059790624652
 20
2687.026306556293
 10
3562.2159280550254
 20
2766.2786427077335
 10
3508.635401928427
 20
2844.5364834364923
 10
3453.3371610790296
 20
2921.761800776476
 10
3396.3409864358387
 20
2997.916924957008
 10
3337.667484315498
 20
3072.964562596651
 10
3277.338079317506
 20
3146.8678147729306
 10
3215.375006824212
 20
3219.5901949592117
 10
3151.8013051080043
 20
3291.095646820095
 10
3086.64080704834
 20
3361.34856185676
 10
3019.918131461446
 20
3430.3137968936903
 10
2951.6586740457165
 20
3497.956691398304
 10
2881.8885979460015
 20
3564.2430846250422
 10
2810.6348239401855
 20
3629.1393325755444
 10
2737.925020251602
 20
3692.612324766626
 10
2663.787591991106
 20
3754.629500797748
 10
2588.251670232652
 20
3815.1588667099095
 10
2511.347100726552
 20
3874.1690111277985
 10
2433.1044322547014
 20
3931.629121177228
 10
2353.554904632223
 20
3987.508998169912
 10
2272.7304363602016
 20
4041.7790730477736
 10
2190.6636119342993
 20
4094.4104215790207
 10
2107.387668814273
 20
4145.374779298353
 10
2022.9364840595397
 20
4194.644556183751
 10
1937.3445606360751
 20
4242.192851062433
 10
1850.647013400265
 20
4287.993465738582
 10
1762.8795547651946
 20
4332.020918835696
 10
1674.0784800553247
 20
4374.250459346423
 10
1584.2806525554709
 20
4414.658079882871
 10
1493.523488260229
 20
4453.220529620569
 10
1401.8449403301383
 20
4489.915326929308
 10
1309.283483261006
 20
4524.720771684271
 10
1215.8780967729979
 20
4557.615957250954
 10
1121.668249426167
 20
4588.580782137567
 10
1026.6938819694208
 20
4617.5959613086625
 10
930.9953904297737
 20
4644.643037153985
 10
834.6136089491588
 20
4669.704390106586
 10
737.5897923760336
 20
4692.763248904464
 10
639.9655986191983
 20
4713.803700490073
 10
541.7830707713773
 20
4732.810699542308
 10
443.0846190102213
 20
4749.77007763558
 10
343.91300228452496
 20
4764.668552020897
 10
244.31130979357255
 20
4777.493734023957
 10
144.3229422675785
 20
4788.234137055417
 10
43.99159305748591
 20
4796.879184228711
 10
-56.63877095781133
 20
4803.419215580925
 10
-157.52392863835075
 20
4807.845494892457
 10
-258.61942401569706
 20
4810.150216101286
 10
-359.8805858827025
 20
4810.32650930794
 10
-461.26254753180035
 20
4808.368446367378
 10
-562.7202666331099
 20
4804.27104606419
 10
-664.2085452435458
 20
4798.030278867736
 10
-765.682049938039
 20
4789.643071263983
 10
-867.0953320539495
 20
4779.1073096610135
 10
-968.4028480395117
 20
4766.42184386539
 10
-1069.5589798973708
 20
4751.586490126703
 10
-1170.5180557139117
 20
4734.602033747861
 10
-1271.234370265198
 20
4715.470231258861
 10
-1371.6622056902208
 20
4694.193812151976
 10
-1471.7558522221182
 20
4670.776480176509
 10
-1571.469628967964
 20
4645.222914191424
 10
-1670.757904727697
 20
4617.538768574422
 10
-1769.575118842749
 20
4587.730673186152
 10
-1867.8758020647444
 20
4555.806232888571
 10
-1965.6145974348929
 20
4521.7740266165
 10
-2062.746281164381
 20
4485.643606001826
 10
-2159.2257835062164
 20
4447.425493549808
 10
-2255.0082096089122
 20
4407.131180367322
 10
-2350.0488603423823
 20
4364.773123442961
 10
-2444.3032530864125
 20
4320.364742479188
 10
-2537.727142472076
 20
4273.920416276905
 10
-2630.2765410664383
 20
4225.455478673037
 10
-2721.9077399909697
 20
4174.9862140319065
 10
-2812.5773294639143
 20
4122.529852291441
 10
-2902.2422192571667
 20
4068.1045635653663
 10
-2990.8596590579377
 20
4011.7294523028413
 10
-3078.3872587256815
 20
3953.424551007155
 10
-3164.7830084347315
 20
3893.210813515304
 10
-3250.0052986931287
 20
3831.1101078405013
 10
-3334.0129402281505
 20
3767.1452085798487
 10
-3416.765183729119
 20
3701.3397888896425
 10
-3498.221739438064
 20
3633.7184120309444
 10
-3578.342796578942
 20
3564.3065224882753
 10
-3657.0890426160136
 20
3493.1304366645504
 10
-3734.4216823322818
 20
3420.217333155432
 10
-3810.3024567187044
 20
3345.59524260663
 10
-3884.693661665109
 20
3269.2930371577936
 10
-3957.5581664437905
 20
3191.340419476869
 10
-4028.8594319767876
 20
3111.76791138897
 10
-4098.561528877993
 20
3030.6068421040327
 10
-4166.629155261262
 20
2947.889336047712
 10
-4233.027654305861
 20
2863.6483003001204
 10
-4297.723031570533
 20
2777.9174116473487
 10
-4360.681972047788
 20
2690.731103250663
 10
-4421.8718569498915
 20
2602.124550938689
 10
-4481.260780218275
 20
2512.133659127935
 10
-4538.8175647481585
 20
2420.795046377261
 10
-4594.511778320272
 20
2328.146030582038
 10
-4648.313749231705
 20
2234.22461381394
 10
-4700.194581618019
 20
2139.0694668125057
 10
-4750.126170458896
 20
2042.7199131347447
 10
-4798.081216259711
 20
1945.215912969217
 10
-4844.033239401527
 20
1846.5980466213402
 10
-4887.956594152215
 20
1746.907497676551
 10
-4929.826482331489
 20
1646.1860358484148
 10
-4969.618966622763
 20
1544.4759995187464
 10
-5007.310983524961
 20
1441.8202779770386
 10
-5042.880355937507
 20
1338.2622933666225
 10
-5076.305805371879
 20
1233.8459823451553
 10
-5107.566963783282
 20
1128.6157774671583
 10
-5136.644385016162
 20
1022.6165882965007
 10
-5163.51955585743
 20
915.8937822567892
 10
-5188.174906691405
 20
808.4931652279598
 10
-5210.593821750755
 20
700.460961897182
 10
-5230.760648957752
 20
591.8437958726361
 10
-5248.660709350444
 20
482.68866956865946
 10
-5264.280306088462
 20
373.04294387094717
 10
-5277.60673303338
 20
262.9543175906009
 10
-5288.628282898761
 20
152.47080671594
 10
-5297.334254965137
 20
41.640723471106014
 10
-5303.714962355436
 20
-69.48734480946162
 10
-5307.761738866521
 20
-180.86455698130052
 10
-5309.46694535269
 20
-292.44183955580127
 10
-5308.823975657241
 20
-404.1699083221092
 10
-5305.827262088312
 20
-515.9992901155814
 10
-5300.472280435503
 20
-627.8803447231753
 10
-5292.755554523929
 20
-739.7632869160697
 10
-5282.674660302567
 20
-851.5982085997407
 10
-5270.228229463997
 20
-963.3351010716393
 10
-5255.4159525928035
 20
-1074.923877376537
 10
-5238.238581840145
 20
-1186.3143947496033
 10
-5218.69793312221
 20
-1297.4564771370262
 10
-5196.7968878404545
 20
-1408.299937784249
 10
-5172.539394121792
 20
-1518.7946018815214
 10
-5145.930467577068
 20
-1628.8903292566024
 10
-5116.976191576395
 20
-1738.537037104403
 10
-5085.683717040143
 20
-1847.6847227431388
 10
-5052.061261744596
 20
-1956.2834863868466
 10
-5016.11810914149
 20
-2064.2835539237703
 10
-4977.864606690897
 20
-2171.6352996902865
 10
-4937.312163707132
 20
-2278.289269229959
 10
-4894.473248717551
 20
-2384.196202027296
 10
-4849.361386334408
 20
-2489.3070542057953
 10
-4801.99115364005
 20
-2593.573021179823
 10
-4752.378176086067
 20
-2696.945560249897
 10
-4700.539122907173
 20
-2799.376413130948
 10
-4646.491702050808
 20
-2900.8176284031206
 10
-4590.254654623733
 20
-3001.221583874707
 10
-4531.847748857053
 20
-3100.541008846821
 10
-4471.291773591374
 20
-3198.7290062694406
 10
-4408.608531283988
 20
-3295.7390747784684
 10
-4343.820830540215
 20
-3391.525130603509
 10
-4276.952478171279
 20
-3486.0415293360825
 10
-4208.0282707812785
 20
-3579.2430875480222
 10
-4137.073985885993
 20
-3671.0851042499785
 10
-4064.1163725667193
 20
-3761.523382179643
 10
-3989.183141662127
 20
-3850.5142489099435
 10
-3912.3029555017883
 20
-3938.0145777669495
 10
-3833.5054171849515
 20
-4023.981808547634
 10
-3752.821059408492
 20
-4108.373968027601
 10
-3670.2813328481107
 20
-4191.149690248956
 10
-3585.918594097126
 20
-4272.268236578625
 10
-3499.766093167361
 20
-4351.6895155274515
 10
-3411.8579605568834
 20
-4429.374102320539
 10
-3322.2291938895255
 20
-4505.283258209368
 10
-3230.9156441313517
 20
-4579.378949516342
 10
-3137.9540013894166
 20
-4651.623866402496
 10
-3043.3817802983876
 20
-4721.98144134922
 10
-2947.237305000767
 20
-4790.415867344961
 10
-2849.559693726697
 20
-4856.892115767976
 10
-2750.388842979477
 20
-4921.375953956341
 10
-2649.765411333156
 20
-4983.833962456545
 10
-2547.730802848737
 20
-5044.23355194208
 10
-2444.3271501156282
 20
-5102.542979793719
 10
-2339.5972969255004
 20
-5158.731366333
 10
-2233.584780585299
 20
-5212.76871070103
 10
-2126.333813876943
 20
-5264.625906374434
 10
-2017.8892666710544
 20
-5314.2747563106695
 10
-1908.2966472023518
 20
-5361.687987715019
 10
-1797.6020830145114
 20
-5406.839266421721
 10
-1685.8523015824462
 20
-5449.703210881865
 10
-1573.0946106201252
 20
-5490.255405750842
 10
-1459.3768780822243
 20
-5528.472415068319
 10
-1344.747511868044
 20
-5564.331795023853
 10
-1229.2554392362904
 20
-5597.812106301482
 10
-1112.9500859394595
 20
-5628.892925996727
 10
-995.8813550867224
 20
-5657.554859099724
 10
-878.0996057443368
 20
-5683.779549538313
 10
-759.655631282762
 20
-5707.549690775122
 10
-640.6006374797752
 20
-5728.849035952878
 10
-520.9862203890365
 20
-5747.66240758239
 10
-400.86434398365293
 20
-5763.975706767801
 10
-280.28731758445696
 20
-5777.775921963944
 10
-159.30777308267454
 20
-5789.051137260842
 10
-37.97864196720828
 20
-5797.790540190546
 10
83.64686783384622
 20
-5803.984429051798
 10
205.5152952870125
 20
-5807.624219748134
 10
327.57294975246396
 20
-5808.702452135318
 10
449.76593463792295
 20
-5807.212795874147
 10
572.0401711970084
 20
-5803.150055784981
 10
694.3414224615219
 20
-5796.510176700464
 10
816.615317297086
 20
-5787.2902478132
 10
938.8073745714596
 20
-5775.488506515333
 10
1060.8630274247953
 20
-5761.104341727243
 10
1182.7276476310253
 20
-5744.1382967127365
 10
1304.3465700395047
 20
-5724.592071378418
 10
1425.6651170859761
 20
-5702.468524055077
 10
1546.6286233618741
 20
-5677.77167275922
 10
1667.1824602309348
 20
-5650.506695933087
 10
1787.2720604820242
 20
-5620.6799326617165
 10
1906.842943007083
 20
-5588.2988823658825
 10
2025.840737492997
 20
-5553.37220396993
 10
2144.2112091163503
 20
-5515.909714543792
 10
2261.9002832295437
 20
-5475.922387418767
 10
2378.8540700274684
 20
-5433.4223497767325
 10
2495.018889183184
 20
-5388.422879712831
 10
2610.341294441485
 20
-5340.938402771898
 10
2724.7680981590884
 20
-5290.984487959068
 10
2838.2463957801856
 20
-5238.577843225304
 10
2950.7235902361354
 20
-5183.736310428803
 10
3062.1474162580453
 20
-5126.478859773481
 10
3172.4659645910606
 20
-5066.825583725985
 10
3281.6277060991433
 20
-5004.797690412906
 10
3389.5815157492075
 20
-4940.417496500134
 10
3496.276696463458
 20
-4873.708419556489
 10
3601.663002828855
 20
-4804.694969904064
 10
3705.690664652659
 20
-4733.402741957888
 10
3808.3104103530563
 20
-4659.858405057824
 10
3909.4734901738984
 20
-4584.089693795774
 10
4009.131699212704
 20
-4506.125397841589
 10
4107.237400251048
 20
-4425.995351271238
 10
4203.743546376705
 20
-4343.730421401021
 10
4298.603703386597
 20
-4259.362497132035
 10
4391.772071960286
 20
-4172.924476808947
 10
4483.20350959324
 20
-4084.4502555977597
 10
4572.853552279533
 20
-3993.9747123872494
 10
4660.678435933629
 20
-3901.533696219046
 10
4746.635117541011
 20
-3807.164012251544
 10
4830.681296027513
 20
-3710.903407263074
 10
4912.775432837319
 20
-3612.7905546999446
 10
4992.876772209746
 20
-3512.865039275232
 10
5070.945361144952
 20
-3411.167341124365
 10
5146.942069048953
 20
-3307.738819523795
 10
5220.828607048365
 20
-3202.6216961792484
 10
5292.567546965455
 20
-3095.8590380902574
 10
5362.122339944234
 20
-2987.494739997867
 10
5429.457334718429
 20
-2877.573506422648
 10
5494.537795512347
 20
-2766.14083330031
 10
5557.329919565798
 20
-2653.2429892224313
 10
5617.800854274352
 20
-2538.926996289999
 10
5675.918713936403
 20
-2423.2406105876776
 10
5731.652596098732
 20
-2306.232302286771
 10
5784.972597492188
 20
-2187.951235385431
 10
5835.849829549677
 20
-2068.4472470941714
 10
5884.25643349842
 20
-1947.7708268756003
 10
5930.165595018865
 20
-1825.973095147057
 10
5973.551558462755
 20
-1703.1057816551374
 10
6014.389640623005
 20
-1579.2212035312432
 10
6052.656244048283
 20
-1454.3722430374528
 10
6088.328869895343
 20
-1328.6123250121661
 10
6121.386130312397
 20
-1201.9953940251435
 10
6151.807760346956
 20
-1074.5758912516874
 10
6179.574629371821
 20
-946.4087310758849
 10
6204.668752023108
 20
-817.5492774329557
 10
6227.073298644359
 20
-688.0533199008954
 10
6246.772605231054
 20
-557.9770495517353
 10
6263.752182870041
 20
-427.3770345728687
 10
6277.998726668587
 20
-296.3101956690198
 10
6289.500124168021
 20
-164.83378125554862
 10
6298.245463237138
 20
-33.00534245392616
 10
6304.225039440778
 20
99.117292099834
 10
6307.430362879175
 20
231.476041622426
 10
6307.854164493989
 20
364.0125987155024
 10
6305.490401837078
 20
496.66845505136666
 10
6300.334264298382
 20
629.3849272009271
 10
6292.382177789433
 20
762.1031825924863
 10
6281.63180887938
 20
894.7642655898876
 10
6268.082068380521
 20
1027.3091236784549
 10
6251.733114380675
 20
1159.6786337471017
 10
6232.586354719928
 20
1291.8136284549114
 10
6210.644448909551
 20
1423.6549226704306
 10
6185.911309491126
 20
1555.1433399718685
 10
6158.392102834183
 20
1686.219739196341
 10
6128.093249370879
 20
1816.8250410262483
 10
6095.022423266522
 20
1946.9002546008458
 10
6059.188551524995
 20
2076.3865041410268
 10
6020.601812528369
 20
2205.2250555753067
 10
5979.273634010289
 20
2333.357343154982
 10
5935.216690462926
 20
2460.724996046388
 10
5888.444899977553
 20
2587.2698648883243
 10
5838.973420519173
 20
2712.9340483022593
 10
5786.818645635623
 20
2837.65991934367
 10
5731.998199602141
 20
2961.39015188213
 10
5674.53093200242
 20
3084.0677468982167
 10
5614.436911747545
 20
3205.636058685179
 10
5551.737420534414
 20
3326.0388209433368
 10
5486.454945745513
 20
3445.22017275523
 10
5418.613172792193
 20
3563.1246844295338
 10
5348.236976903818
 20
3679.6973832018357
 10
5275.352414365442
 20
3794.8837787803755
 10
5199.986713206908
 20
3908.6298887249213
 10
5122.168263346501
 20
4020.8822636469886
 10
5041.926606192603
 20
4131.588012219694
 10
4959.292423706965
 20
4240.694825985566
 10
4874.297526933525
 20
4348.151003950753
 10
4786.974843996923
 20
4453.905476954065
 10
4697.358407575125
 20
4557.9078317994845
 10
4605.483341850793
 20
4660.108335140727
 10
4511.385848946335
 20
4760.457957106631
 10
4415.103194847654
 20
4858.908394656295
 10
4316.673694822236
 20
4955.412094652656
 10
4216.136698336876
 20
5049.922276643896
 10
4113.532573481114
 20
5142.3929553415755
 10
4008.902690902414
 20
5232.7789627849
 10
3902.2894072594
 20
5321.035970180463
 10
3793.736048199707
 20
5407.120509407035
 10
3683.2868908692317
 20
5490.989994175027
 10
3570.987145959798
 20
5572.602740830448
 10
3456.8829393024403
 20
5651.917988793273
 10
3341.021293013778
 20
5728.895920620343
 10
3223.4501062031313
 20
5803.497681682992
 10
3104.218135248252
 20
5875.685399449851
 10
2983.3749736477635
 20
5945.422202365307
 10
2860.9710314585973
 20
6012.672238314438
 10
2737.05751432692
 20
6077.40069266522
 10
2611.686402121248
 20
6139.573805879139
 10
2484.910427176645
 20
6199.158890681432
 10
2356.783052159097
 20
6256.124348782359
 10
2227.358447559214
 20
6310.439687141214
 10
2096.6914688250395
 20
6362.075533764703
 10
1964.8376331431705
 20
6411.00365303193
 10
1831.8530958783233
 20
6457.196960537995
 10
1697.7946266812044
 20
6500.629537448715
 10
1562.7195852748673
 20
6541.276644359049
 10
1426.685896929861
 20
6579.114734648065
 10
1289.7520276386622
 20
6614.121467323474
 10
1151.976959000013
 20
6646.275719349011
 10
1013.4201628239564
 20
6675.557597448116
 10
874.1415754684908
 20
6701.948449377656
 10
734.2015719189217
 20
6725.43087466558
 10
593.6609396211118
 20
6745.988734806708
 10
452.5808520799714
 20
6763.60716291103
 10
311.02284223465364
 20
6778.272572799172
 10
169.0487756220413
 20
6789.972667539891
 10
26.720823340228186
 20
6798.696447424711
 10
-115.89856517618799
 20
6804.4342173751065
 10
-258.7466895570571
 20
6807.177593777795
 10
-401.76062606199446
 20
6806.919510744051
 10
-544.8772552975827
 20
6803.654225789118
 10
-688.0332900747339
 20
6797.377324928131
 10
-831.1653033935532
 20
6788.085727185149
 10
-974.2097565434763
 20
6775.777688512205
 10
-1117.1030273062067
 20
6760.45280511552
 10
-1259.7814382489378
 20
6742.112016186291
 10
-1402.1812850952767
 20
6720.7576060337315
 10
-1544.2388651612334
 20
6696.393205618322
 10
-1685.8905058435878
 20
6669.023793483463
 10
-1827.0725931478896
 20
6638.65569608402
 10
-1967.721600243327
 20
6605.296587510516
 10
-2107.774116031641
 20
6568.955488607984
 10
-2247.16687371725
 20
6529.642765488775
 10
-2385.8367793657185
 20
6487.370127438886
 10
-2523.72094043769
 20
6442.150624217654
 10
-2660.7566942853837
 20
6393.998642750913
 10
-2796.881636598771
 20
6342.929903218026
 10
-2932.0336497885028
 20
6288.961454533415
 10
-3066.1509312927074
 20
6232.111669223577
 10
-3199.1720217948805
 20
6172.400237700712
 10
-3331.0358333396816
 20
6109.848161934592
 10
-3461.68167733424
 20
6044.477748524258
 10
-3591.049292421812
 20
5976.312601171704
 10
-3719.078872215167
 20
5905.377612559802
 10
-3845.711092876916
 20
5831.698955637065
 10
-3970.8871405341188
 20
5755.304074312102
 10
-4094.548738514505
 20
5676.221673560865
 10
-4216.638174391752
 20
5594.481708950131
 10
-4337.098326827292
 20
5510.115375580829
 10
-4455.872692196207
 20
5423.15509645519
 10
-4572.905410984836
 20
5333.634510271887
 10
-4688.141293947809
 20
5241.58845865366
 10
-4801.525848012317
 20
5147.052972812129
 10
-4913.005301917481
 20
5050.065259654812
 10
-5022.526631576843
 20
4950.663687339568
 10
-5130.037585152045
 20
4848.887770282026
 10
-5235.486707825913
 20
4744.778153621706
 10
-5338.82336626325
 20
4638.376597152929
 10
-5439.997772747861
 20
4529.725958726645
 10
-5538.961008984138
 20
4418.87017712999
 10
-5635.665049552236
 20
4305.854254449972
 10
-5730.062785005404
 20
4190.724237928593
 10
-5822.108044598575
 20
4073.5272013165204
 10
-5911.755618637289
 20
3954.3112257328585
 10
-5998.961280436242
 20
3833.12538003873
 10
-6083.681807876893
 20
3710.019700732636
 10
-6165.875004553717
 20
3585.0451713758
 10
-6245.4997204988595
 20
3458.253701555892
 10
-6322.515872475147
 20
3329.6981053978056
 10
-6396.884463827546
 20
3199.43207963033
 10
-6468.567603883367
 20
3067.510181217802
 10
-6537.528526891714
 20
2933.9878045660244
 10
-6603.731610492813
 20
2798.9211583119586
 10
-6667.14239370813
 20
2662.3672417068806
 10
-6727.727594442305
 20
2524.3838206029072
 10
-6785.455126488226
 20
2385.029403053005
 10
-6840.294116026654
 20
2244.3632145347638
 10
-6892.214917612199
 20
2102.4451728083036
 10
-6941.189129637405
 20
1959.3358624193081
 10
-6987.189609267251
 20
1815.09650885756
 10
-7030.190486836308
 20
1669.7889523823374
 10
-7070.167179701183
 20
1523.475621525723
 10
-7107.096405541062
 20
1376.2195062851797
 10
-7140.9561950994275
 20
1228.0841310169137
 10
-7171.7259043602235
 20
1079.133527041671
 10
-7199.386226152018
 20
929.4322049747866
 10
-7223.919201173965
 20
779.0451267924336
 10
-7245.308228437588
 20
628.0376776461709
 10
-7263.5380751186785
 20
476.4756374380099
 10
-7278.594885813869
 20
324.4251521683623
 10
-7290.466191196663
 20
171.9527050693436
 10
-7299.140916068025
 20
19.125087536032943
 10
-7304.609386796831
 20
-133.99063013160452
 10
-7306.863338145796
 20
-287.3271281633139
 10
-7305.8959194787385
 20
-440.81686691674844
 10
-7301.701700345341
 20
-594.3921166262303
 10
-7294.276675439799
 20
-747.9849872891263
 10
-7283.618268930059
 20
-901.5274586762612
 10
-7269.725338154618
 20
-1054.9514104536238
 10
-7252.59817668414
 20
-1208.1886524016377
 10
-7232.238516745385
 20
-1361.170954718746
 10
-7208.649531005318
 20
-1513.830078395824
 10
-7181.835833713444
 20
-1666.0978056478932
 10
-7151.803481200786
 20
-1817.9059703895732
 10
-7118.559971734165
 20
-1969.186488740661
 10
-7082.114244724745
 20
-2119.8713895481874
 10
-7042.476679290072
 20
-2269.8928449112727
 10
-6999.659092169192
 20
-2419.183200695086
 10
-6953.674734990612
 20
-2567.6750070201774
 10
-6904.53829089328
 20
-2715.3010487134648
 10
-6852.265870500958
 20
-2861.994375707123
 10
-6796.875007250721
 20
-3007.688333371652
 10
-6738.384652076539
 20
-3152.316592769381
 10
-6676.815167449275
 20
-3295.8131808147036
 10
-6612.188320774637
 20
-3438.112510327337
 10
-6544.527277150993
 20
-3579.1494099649058
 10
-6473.856591489121
 20
-3718.859154021363
 10
-6400.202199996544
 20
-3857.1774920772764
 10
-6323.5914110289405
 20
-3994.0406784889046
 10
-6244.05289531185
 20
-4129.385501702183
 10
-6161.616675535907
 20
-4263.149313378332
 10
-6076.314115329253
 20
-4395.270057317641
 10
-5988.177907610993
 20
-4525.686298168139
 10
-5897.242062329889
 20
-4654.337249905879
 10
-5803.541893592753
 20
-4781.162804073679
 10
-5707.114006187278
 20
-4906.103557765242
 10
-5607.996281504357
 20
-5029.100841341666
 10
-5506.22786286515
 20
-5150.096745867447
 10
-5401.849140258518
 20
-5269.034150253206
 10
-5294.901734494675
 20
-5385.856748092467
 10
-5185.428480781164
 20
-5500.509074179909
 10
-5073.473411727573
 20
-5612.936530698692
 10
-4959.081739785656
 20
-5723.085413064521
 10
-4842.299839131779
 20
-5830.902935414308
 10
-4723.175226998905
 20
-5936.337255727343
 10
-4601.756544465478
 20
-6039.337500567258
 10
-4478.09353670916
 20
-6139.853789432707
 10
-4352.237032733027
 20
-6237.837258705602
 10
-4224.238924572737
 20
-6333.240085185203
 10
-4094.152145992973
 20
-6426.015509196908
 10
-3962.030650681917
 20
-6516.117857264667
 10
-3827.929389952687
 20
-6603.502564336119
 10
-3691.9042899609162
 20
-6688.126195549743
 10
-3554.0122284478816
 20
-6769.946467533482
 10
-3414.3110110188345
 20
-6848.922269224537
 10
-3272.8593469663797
 20
-6925.0136822001705
 10
-3129.71682464901
 20
-6998.182000509605
 10
-2984.9438864350814
 20
-7068.3897499973
 10
-2838.6018032227557
 20
-7135.600707108084
 10
-2690.752648546621
 20
-7199.779917164861
 10
-2541.459272281926
 20
-7260.893712109825
 10
-2390.7852739575483
 20
-7318.909727700334
 10
-2238.794975689012
 20
-7373.796920150839
 10
-2085.5533947430913
 20
-7425.525582212471
 10
-1931.126215745534
 20
-7474.067358682219
 10
-1775.5797625441683
 20
-7519.395261333657
 10
-1618.980969738912
 20
-7561.483683261767
 10
-1461.397353891297
 20
-7600.308412634309
 10
-1302.89698442572
 20
-7635.846645842673
 10
-1143.5484542349936
 20
-7668.077000045298
 10
-983.4208500028777
 20
-7696.979525097068
 10
-822.5837222564347
 20
-7722.5357148583
 10
-661.107055161183
 20
-7744.72851787725
 10
-499.06123607216824
 20
-7763.542347440334
 10
-336.51702485419924
 20
-7778.963090984504
 10
-173.54552298461465
 20
-7790.9781188665265
 10
-10.218142452078002
 20
-7799.576292484185
 10
153.39342553499927
 20
-7804.747971744705
 10
317.2172420166941
 20
-7806.485021875987
 10
481.1811519126549
 20
-7804.780819576525
 10
645.2128158021225
 20
-7799.630258500176
 10
809.2397418388937
 20
-7791.029754072244
 10
973.1893177871461
 20
-7778.977247633621
 10
1136.9888431639392
 20
-7763.472209910058
 10
1300.5655614743323
 20
-7744.515643803875
 10
1463.8466925244088
 20
-7722.110086505805
 10
1626.7594647984158
 20
-7696.259610924902
 10
1789.2311478851989
 20
-7666.969826434741
 10
1951.189084939654
 20
-7634.247878934529
 10
2112.5607251646825
 20
-7598.102450223921
 10
2273.2736562991317
 20
-7558.543756690767
 10
2433.2556370971834
 20
-7515.583547311232
 10
2592.4346297846214
 20
-7469.2351009621025
 10
2750.7388324774047
 20
-7419.513223045331
 10
2908.096711547972
 20
-7366.434241425273
 10
3064.4370339246866
 20
-7310.016001679297
 10
3219.688899309858
 20
-7250.277861662783
 10
3373.7817723017733
 20
-7187.240685389867
 10
3526.645514406201
 20
-7120.926836231549
 10
3678.2104159228556
 20
-7051.360169433129
 10
3828.407227692341
 20
-6978.566023953217
 10
3977.167192689132
 20
-6902.571213626892
 10
4124.422077446177
 20
-6823.404017655892
 10
4270.104203296933
 20
-6741.0941704289335
 10
4414.146477420161
 20
-6655.672850675862
 10
4556.482423673807
 20
-6567.172669959134
 10
4697.04621320339
 20
-6475.627660506939
 10
4835.7726948110385
 20
-6381.073262392279
 10
4972.597425071146
 20
-6283.546310062708
 10
5107.456698178753
 20
-6183.085018225731
 10
5240.28757551689
 20
-6079.728967095151
 10
5371.027914929173
 20
-5973.5190870039605
 10
5499.616399684101
 20
-5864.497642389642
 10
5625.992567117574
 20
-5752.708215158068
 10
5750.096836940335
 20
-5638.19568743245
 10
5871.870539197084
 20
-5521.006223694071
 10
5991.255941864254
 20
-5401.187252321868
 10
6108.196278073474
 20
-5278.787446538115
 10
6222.635772947972
 20
-5153.856704767869
 10
6334.5196700392835
 20
-5026.446130419966
 10
6443.7942573518
 20
-4896.60801109776
 10
6550.406892942843
 20
-4764.395797248002
 10
6654.30603008626
 20
-4629.864080256396
 10
6755.44124198728
 20
-4493.0685699991
 10
6853.7632460372815
 20
-4354.066071858921
 10
6949.223927596569
 20
-4212.914463215965
 10
7041.77636329392
 20
-4069.6726694223103
 10
7131.37484383167
 20
-3924.400639270669
 10
7217.974896285374
 20
-3777.1593199672084
 10
7301.5333058872675
 20
-3628.0106316189554
 10
7382.008137282961
 20
-3477.0174412464453
 10
7459.358755251056
 20
-3324.2435363324853
 10
7533.545844875529
 20
-3169.7535979181466
 10
7604.531431161046
 20
-3013.6131732573135
 10
7672.278898081541
 20
-2855.888648041329
 10
7736.753007052634
 20
-2696.647218205495
 10
7797.919914818762
 20
-2535.9568613293854
 10
7855.7471907460695
 20
-2373.886307643123
 10
7910.203833512429
 20
-2210.5050106519934
 10
7961.260287186162
 20
-2045.8831173919268
 10
8008.888456685316
 20
-1880.0914383285744
 10
8053.061722609639
 20
-1713.2014169129354
 10
8093.754955437655
 20
-1545.285098806431
 10
8130.944529081397
 20
-1376.4151007891057
 10
8164.608333791914
 20
-1206.6645793638077
 10
8194.725788408621
 20
-1036.1071990703376
 10
8221.277851946066
 20
-864.8171005231213
 10
8244.247034511904
 20
-692.868868186297
 10
8263.617407550119
 20
-520.3374979002245
 10
8279.374613403934
 20
-347.2983641735535
 10
8291.505874193019
 20
-173.82718725511262
 10
8300.0
 20
-8.131654746338426e-12
  0
TEXT
  5
8B
330
17
100
AcDbEntity
  8
0
100
AcDbText
 10
496.5683309271021
 20
10460.59324769124
 30
0.0
 40
818.3651064766118
  1
Spiral | w=600µm | outer+0.2mm | wall_ratio=0.3 | loops=4 r0=300µm s=2000µm
 11
496.5683309271021
 21
10460.59324769124
 31
0.0
100
AcDbText
  0
TEXT
  5
8C
330
17
100
AcDbEntity
  8
0
100
AcDbText
 10
512.9356330566344
 20
10460.59324769124
 30
0.0
 40
818.3651064766118
  1
Spiral | w=600µm | outer+0.2mm | wall_ratio=0.3 | loops=4 r0=300µm s=2000µm
 11
512.9356330566344
 21
10460.59324769124
 31
0.0
100
AcDbText
  0
ENDSEC
  0
SECTION
  2
OBJECTS
  0
DICTIONARY
  5
A
330
0
100
AcDbDictionary
281
1
  3
ACAD_COLOR
350
B
  3
ACAD_GROUP
350
C
  3
ACAD_LAYOUT
350
D
  3
ACAD_MATERIAL
350
E
  3
ACAD_MLEADERSTYLE
350
F
  3
ACAD_MLINESTYLE
350
10
  3
ACAD_PLOTSETTINGS
350
11
  3
ACAD_PLOTSTYLENAME
350
12
  3
ACAD_SCALELIST
350
14
  3
ACAD_TABLESTYLE
350
15
  3
ACAD_VISUALSTYLE
350
16
  3
EZDXF_META
350
2D
  0
DICTIONARY
  5
B
330
A
100
AcDbDictionary
281
1
  0
DICTIONARY
  5
C
330
A
100
AcDbDictionary
281
1
  0
DICTIONARY
  5
D
330
A
100
AcDbDictionary
281
1
  3
Model
350
1A
  3
Layout1
350
1E
  0
DICTIONARY
  5
E
330
A
100
AcDbDictionary
281
1
  3
ByBlock
350
1F
  3
ByLayer
350
20
  3
Global
350
21
  0
DICTIONARY
  5
F
330
A
100
AcDbDictionary
281
1
  3
Standard
350
2C
  0
DICTIONARY
  5
10
330
A
100
AcDbDictionary
281
1
  3
Standard
350
22
  0
DICTIONARY
  5
11
330
A
100
AcDbDictionary
281
1
  0
ACDBDICTIONARYWDFLT
  5
12
330
A
100
AcDbDictionary
281
1
  3
Normal
350
13
100
AcDbDictionaryWithDefault
340
13
  0
ACDBPLACEHOLDER
  5
13
330
12
  0
DICTIONARY
  5
14
330
A
100
AcDbDictionary
281
1
  0
DICTIONARY
  5
15
330
A
100
AcDbDictionary
281
1
  0
DICTIONARY
  5
16
330
A
100
AcDbDictionary
281
1
  3
2dWireframe
350
5A
  3
Basic
350
5B
  3
Brighten
350
5C
  3
ColorChange
350
5D
  3
Conceptual
350
5E
  3
Dim
350
5F
  3
EdgeColorOff
350
60
  3
Facepattern
350
61
  3
Flat
350
62
  3
FlatWithEdges
350
63
  3
Gouraud
350
64
  3
GouraudWithEdges
350
65
  3
Hidden
350
66
  3
JitterOff
350
67
  3
Linepattern
350
68
  3
Modeling
350
69
  3
OverhangOff
350
6A
  3
Realistic
350
6B
  3
Shaded
350
6C
  3
Shaded with edges
350
6D
  3
Shades of Gray
350
6E
  3
Sketchy
350
6F
  3
Thicken
350
70
  3
Wireframe
350
71
  3
X-Ray
350
72
  0
LAYOUT
  5
1A
330
D
100
AcDbPlotSettings
  1

  4
A3
  6

 40
7.5
 41
20.0
 42
7.5
 43
20.0
 44
420.0
 45
297.0
 46
0.0
 47
0.0
 48
0.0
 49
0.0
140
0.0
141
0.0
142
1.0
143
1.0
 70
1024
 72
1
 73
0
 74
5
  7

 75
16
 76
0
 77
2
 78
300
147
1.0
148
0.0
149
0.0
100
AcDbLayout
  1
Model
 70
1
 71
0
 10
0.0
 20
0.0
 11
420.0
 21
297.0
 12
0.0
 22
0.0
 32
0.0
 14
1e+20
 24
1e+20
 34
1e+20
 15
-1e+20
 25
-1e+20
 35
-1e+20
146
0.0
 13
0.0
 23
0.0
 33
0.0
 16
1.0
 26
0.0
 36
0.0
 17
0.0
 27
1.0
 37
0.0
 76
1
330
17
  0
LAYOUT
  5
1E
330
D
100
AcDbPlotSettings
  1

  4
A3
  6

 40
7.5
 41
20.0
 42
7.5
 43
20.0
 44
420.0
 45
297.0
 46
0.0
 47
0.0
 48
0.0
 49
0.0
140
0.0
141
0.0
142
1.0
143
1.0
 70
0
 72
1
 73
0
 74
5
  7

 75
16
 76
0
 77
2
 78
300
147
1.0
148
0.0
149
0.0
100
AcDbLayout
  1
Layout1
 70
1
 71
1
 10
0.0
 20
0.0
 11
420.0
 21
297.0
 12
0.0
 22
0.0
 32
0.0
 14
1e+20
 24
1e+20
 34
1e+20
 15
-1e+20
 25
-1e+20
 35
-1e+20
146
0.0
 13
0.0
 23
0.0
 33
0.0
 16
1.0
 26
0.0
 36
0.0
 17
0.0
 27
1.0
 37
0.0
 76
1
330
1B
  0
MATERIAL
  5
1F
102
{ACAD_REACTORS
330
E
102
}
330
E
100
AcDbMaterial
  1
ByBlock
  2

 70
0
 40
1.0
 71
1
 41
1.0
 91
-1023410177
 42
1.0
 72
1
  3

 73
1
 74
1
 75
1
 44
0.5
 73
0
 45
1.0
 46
1.0
 77
1
  4

 78
1
 79
1
170
1
 48
1.0
171
1
  6

172
1
173
1
174
1
140
1.0
141
1.0
175
1
  7

176
1
177
1
178
1
143
1.0
179
1
  8

270
1
271
1
272
1
145
1.0
146
1.0
273
1
  9

274
1
275
1
276
1
 42
1.0
 72
1
  3

 73
1
 74
1
 75
1
 94
63
  0
MATERIAL
  5
20
102
{ACAD_REACTORS
330
E
102
}
330
E
100
AcDbMaterial
  1
ByLayer
  2

 70
0
 40
1.0
 71
1
 41
1.0
 91
-1023410177
 42
1.0
 72
1
  3

 73
1
 74
1
 75
1
 44
0.5
 73
0
 45
1.0
 46
1.0
 77
1
  4

 78
1
 79
1
170
1
 48
1.0
171
1
  6

172
1
173
1
174
1
140
1.0
141
1.0
175
1
  7

176
1
177
1
178
1
143
1.0
179
1
  8

270
1
271
1
272
1
145
1.0
146
1.0
273
1
  9

274
1
275
1
276
1
 42
1.0
 72
1
  3

 73
1
 74
1
 75
1
 94
63
  0
MATERIAL
  5
21
102
{ACAD_REACTORS
330
E
102
}
330
E
100
AcDbMaterial
  1
Global
  2

 70
0
 40
1.0
 71
1
 41
1.0
 91
-1023410177
 42
1.0
 72
1
  3

 73
1
 74
1
 75
1
 44
0.5
 73
0
 45
1.0
 46
1.0
 77
1
  4

 78
1
 79
1
170
1
 48
1.0
171
1
  6

172
1
173
1
174
1
140
1.0
141
1.0
175
1
  7

176
1
177
1
178
1
143
1.0
179
1
  8

270
1
271
1
272
1
145
1.0
146
1.0
273
1
  9

274
1
275
1
276
1
 42
1.0
 72
1
  3

 73
1
 74
1
 75
1
 94
63
  0
MLINESTYLE
  5
22
102
{ACAD_REACTORS
330
10
102
}
330
10
100
AcDbMlineStyle
  2
Standard
 70
0
  3

 62
256
 51
90.0
 52
90.0
 71
2
 49
0.5
 62
256
  6
BYLAYER
 49
-0.5
 62
256
  6
BYLAYER
  0
MLEADERSTYLE
  5
2C
102
{ACAD_REACTORS
330
F
102
}
330
F
100
AcDbMLeaderStyle
179
2
170
2
171
1
172
0
 90
2
 40
0.0
 41
0.0
173
1
 91
-1056964608
 92
-2
290
1
 42
2.0
291
1
 43
8.0
  3
Standard
 44
4.0
300

342
29
174
1
175
1
176
0
178
1
 93
-1056964608
 45
4.0
292
0
297
0
 46
4.0
 94
-1056964608
 47
1.0
 49
1.0
140
1.0
294
1
141
0.0
177
0
142
1.0
295
0
296
0
143
3.75
271
0
272
9
273
9
  0
DICTIONARY
  5
2D
330
A
100
AcDbDictionary
280
1
281
1
  3
CREATED_BY_EZDXF
350
2E
  3
WRITTEN_BY_EZDXF
350
8F
  0
DICTIONARYVAR
  5
2E
330
2D
100
DictionaryVariables
280
0
  1
1.4.3 @ 2026-01-22T21:05:36.298053+00:00
  0
VISUALSTYLE
  5
5A
102
{ACAD_REACTORS
330
16
102
}
330
16
100
AcDbVisualStyle
  2
2dWireframe
 70
4
177
3
291
0
 70
58
 90
2
176
1
 90
2
176
1
 90
0
176
1
 90
0
176
1
 40
0.6
176
1
 40
30.0
176
1
 62
7
420
16777215
176
1
 90
1
176
1
 90
4
176
1
 62
7
176
1
 62
257
176
1
 90
1
176
1
 90
1
176
1
 40
1.0
176
1
 90
8
176
1
 62
7
176
1
 40
1.0
176
1
 90
1
176
1
 90
6
176
1
 90
2
176
1
 62
7
176
1
 90
5
176
1
 90
0
176
1
 90
0
176
1
290
0
176
1
 90
1
176
1
 40
0.0
176
1
 90
0
176
1
290
1
176
1
290
1
176
1
290
0
176
1
290
0
176
1
290
0
176
1
290
0
176
1
290
0
176
1
290
0
176
1
290
0
176
1
 90
50
176
1
 40
0.0
176
1
 40
1.0
176
1
 90
0
176
1
 62
18
420
0
176
1
 90
50
176
1
 90
3
176
1
 62
5
420
255
176
1
290
0
176
1
 90
50
176
1
 90
50
176
1
 90
50
176
1
290
0
176
1
 90
50
176
1
 62
256
176
0
 40
1.0
176
0
 90
2
176
1
  1
strokes_ogs.tif
176
1
290
0
176
1
 40
1.0
176
1
 40
1.0
176
1
  0
VISUALSTYLE
  5
5B
102
{ACAD_REACTORS
330
16
102
}
330
16
100
AcDbVisualStyle
  2
Basic
 70
7
177
3
291
1
 70
58
 90
2
176
1
 90
2
176
1
 90
0
176
1
 90
1
176
1
 40
0.6
176
1
 40
30.0
176
1
 62
7
420
16777215
176
1
 90
1
176
1
 90
4
176
1
 62
7
176
1
 62
257
176
1
 90
1
176
1
 90
1
176
1
 40
1.0
176
1
 90
8
176
1
 62
7
176
1
 40
1.0
176
1
 90
1
176
1
 90
6
176
1
 90
2
176
1
 62
7
176
1
 90
5
176
1
 90
0
176
1
 90
0
176
1
290
0
176
1
 90
1
176
1
 40
0.0
176
1
 90
0
176
1
290
0
176
1
290
1
176
1
290
1
176
1
290
0
176
1
290
0
176
1
290
0
176
1
290
0
176
1
290
0
176
1
290
0
176
1
 90
50
176
1
 40
0.0
176
1
 40
1.0
176
1
 90
0
176
1
 62
18
420
0
176
1
 90
50
176
1
 90
3
176
1
 62
5
420
255
176
1
290
0
176
1
 90
50
176
1
 90
50
176
1
 90
50
176
1
290
0
176
1
 90
50
176
1
 62
256
176
0
 40
1.0
176
0
 90
2
176
1
  1
strokes_ogs.tif
176
1
290
0
176
1
 40
1.0
176
1
 40
1.0
176
1
  0
VISUALSTYLE
  5
5C
102
{ACAD_REACTORS
330
16
102
}
330
16
100
AcDbVisualStyle
  2
Brighten
 70
12
177
3
291
1
 70
58
 90
2
176
1
 90
2
176
1
 90
0
176
1
 90
2
176
1
 40
0.6
176
1
 40
30.0
176
1
 62
7
420
16777215
176
1
 90
1
176
1
 90
4
176
1
 62
7
176
1
 62
257
176
1
 90
1
176
1
 90
1
176
1
 40
1.0
176
1
 90
8
176
1
 62
7
176
1
 40
1.0
176
1
 90
1
176
1
 90
6
176
1
 90
2
176
1
 62
7
176
1
 90
5
176
1
 90
0
176
1
 90
0
176
1
290
0
176
1
 90
1
176
1
 40
0.0
176
1
 90
0
176
1
290
0
176
1
290
1
176
1
290
1
176
1
290
0
176
1
290
0
176
1
290
0
176
1
290
0
176
1
290
0
176
1
290
0
176
1
 90
50
176
1
 40
0.0
176
1
 40
1.0
176
1
 90
0
176
1
 62
18
420
0
176
1
 90
50
176
1
 90
3
176
1
 62
5
420
255
176
1
290
0
176
1
 90
50
176
1
 90
50
176
1
 90
50
176
1
290
0
176
1
 90
50
176
1
 62
256
176
0
 40
1.0
176
0
 90
2
176
1
  1
strokes_ogs.tif
176
1
290
0
176
1
 40
1.0
176
1
 40
1.0
176
1
  0
VISUALSTYLE
  5
5D
102
{ACAD_REACTORS
330
16
102
}
330
16
100
AcDbVisualStyle
  2
ColorChange
 70
16
177
3
291
1
 70
58
 90
2
176
1
 90
2
176
1
 90
0
176
1
 90
2
176
1
 40
0.6
176
1
 40
30.0
176
1
 62
7
420
16777215
176
1
 90
1
176
1
 90
4
176
1
 62
7
176
1
 62
257
176
1
 90
1
176
1
 90
1
176
1
 40
1.0
176
1
 90
8
176
1
 62
7
176
1
 40
1.0
176
1
 90
1
176
1
 90
6
176
1
 90
2
176
1
 62
7
176
1
 90
5
176
1
 90
0
176
1
 90
0
176
1
290
0
176
1
 90
1
176
1
 40
0.0
176
1
 90
0
176
1
290
0
176
1
290
1
176
1
290
1
176
1
290
0
176
1
290
0
176
1
290
0
176
1
290
0
176
1
290
0
176
1
290
0
176
1
 90
50
176
1
 40
0.0
176
1
 40
1.0
176
1
 90
0
176
1
 62
18
420
0
176
1
 90
50
176
1
 90
3
176
1
 62
5
420
255
176
1
290
0
176
1
 90
50
176
1
 90
50
176
1
 90
50
176
1
290
0
176
1
 90
50
176
1
 62
256
176
0
 40
1.0
176
0
 90
2
176
1
  1
strokes_ogs.tif
176
1
290
0
176
1
 40
1.0
176
1
 40
1.0
176
1
  0
VISUALSTYLE
  5
5E
102
{ACAD_REACTORS
330
16
102
}
330
16
100
AcDbVisualStyle
  2
Conceptual
 70
9
177
3
291
0
 70
58
 90
2
176
1
 90
2
176
1
 90
0
176
1
 90
3
176
1
 40
0.6
176
1
 40
30.0
176
1
 62
7
420
16777215
176
1
 90
1
176
1
 90
4
176
1
 62
7
176
1
 62
257
176
1
 90
1
176
1
 90
1
176
1
 40
1.0
176
1
 90
8
176
1
 62
7
176
1
 40
1.0
176
1
 90
1
176
1
 90
6
176
1
 90
2
176
1
 62
7
176
1
 90
5
176
1
 90
0
176
1
 90
0
176
1
290
0
176
1
 90
1
176
1
 40
0.0
176
1
 90
0
176
1
290
0
176
1
290
1
176
1
290
1
176
1
290
0
176
1
290
0
176
1
290
0
176
1
290
0
176
1
290
0
176
1
290
0
176
1
 90
50
176
1
 40
0.0
176
1
 40
1.0
176
1
 90
0
176
1
 62
18
420
0
176
1
 90
50
176
1
 90
3
176
1
 62
5
420
255
176
1
290
0
176
1
 90
50
176
1
 90
50
176
1
 90
50
176
1
290
0
176
1
 90
50
176
1
 62
256
176
0
 40
1.0
176
0
 90
2
176
1
  1
strokes_ogs.tif
176
1
290
0
176
1
 40
1.0
176
1
 40
1.0
176
1
  0
VISUALSTYLE
  5
5F
102
{ACAD_REACTORS
330
16
102
}
330
16
100
AcDbVisualStyle
  2
Dim
 70
11
177
3
291
1
 70
58
 90
2
176
1
 90
2
176
1
 90
0
176
1
 90
2
176
1
 40
0.6
176
1
 40
30.0
176
1
 62
7
420
16777215
176
1
 90
1
176
1
 90
4
176
1
 62
7
176
1
 62
257
176
1
 90
1
176
1
 90
1
176
1
 40
1.0
176
1
 90
8
176
1
 62
7
176
1
 40
1.0
176
1
 90
1
176
1
 90
6
176
1
 90
2
176
1
 62
7
176
1
 90
5
176
1
 90
0
176
1
 90
0
176
1
290
0
176
1
 90
1
176
1
 40
0.0
176
1
 90
0
176
1
290
0
176
1
290
1
176
1
290
1
176
1
290
0
176
1
290
0
176
1
290
0
176
1
290
0
176
1
290
0
176
1
290
0
176
1
 90
50
176
1
 40
0.0
176
1
 40
1.0
176
1
 90
0
176
1
 62
18
420
0
176
1
 90
50
176
1
 90
3
176
1
 62
5
420
255
176
1
290
0
176
1
 90
50
176
1
 90
50
176
1
 90
50
176
1
290
0
176
1
 90
50
176
1
 62
256
176
0
 40
1.0
176
0
 90
2
176
1
  1
strokes_ogs.tif
176
1
290
0
176
1
 40
1.0
176
1
 40
1.0
176
1
  0
VISUALSTYLE
  5
60
102
{ACAD_REACTORS
330
16
102
}
330
16
100
AcDbVisualStyle
  2
EdgeColorOff
 70
22
177
3
291
1
 70
58
 90
2
176
1
 90
2
176
1
 90
0
176
1
 90
2
176
1
 40
0.6
176
1
 40
30.0
176
1
 62
7
420
16777215
176
1
 90
1
176
1
 90
4
176
1
 62
7
176
1
 62
257
176
1
 90
1
176
1
 90
1
176
1
 40
1.0
176
1
 90
8
176
1
 62
7
176
1
 40
1.0
176
1
 90
1
176
1
 90
6
176
1
 90
2
176
1
 62
7
176
1
 90
5
176
1
 90
0
176
1
 90
0
176
1
290
0
176
1
 90
1
176
1
 40
0.0
176
1
 90
0
176
1
290
0
176
1
290
1
176
1
290
1
176
1
290
0
176
1
290
0
176
1
290
0
176
1
290
0
176
1
290
0
176
1
290
0
176
1
 90
50
176
1
 40
0.0
176
1
 40
1.0
176
1
 90
0
176
1
 62
18
420
0
176
1
 90
50
176
1
 90
3
176
1
 62
5
420
255
176
1
290
0
176
1
 90
50
176
1
 90
50
176
1
 90
50
176
1
290
0
176
1
 90
50
176
1
 62
256
176
0
 40
1.0
176
0
 90
2
176
1
  1
strokes_ogs.tif
176
1
290
0
176
1
 40
1.0
176
1
 40
1.0
176
1
  0
VISUALSTYLE
  5
61
102
{ACAD_REACTORS
330
16
102
}
330
16
100
AcDbVisualStyle
  2
Facepattern
 70
15
177
3
291
1
 70
58
 90
2
176
1
 90
2
176
1
 90
0
176
1
 90
2
176
1
 40
0.6
176
1
 40
30.0
176
1
 62
7
420
16777215
176
1
 90
1
176
1
 90
4
176
1
 62
7
176
1
 62
257
176
1
 90
1
176
1
 90
1
176
1
 40
1.0
176
1
 90
8
176
1
 62
7
176
1
 40
1.0
176
1
 90
1
176
1
 90
6
176
1
 90
2
176
1
 62
7
176
1
 90
5
176
1
 90
0
176
1
 90
0
176
1
290
0
176
1
 90
1
176
1
 40
0.0
176
1
 90
0
176
1
290
0
176
1
290
1
176
1
290
1
176
1
290
0
176
1
290
0
176
1
290
0
176
1
290
0
176
1
290
0
176
1
290
0
176
1
 90
50
176
1
 40
0.0
176
1
 40
1.0
176
1
 90
0
176
1
 62
18
420
0
176
1
 90
50
176
1
 90
3
176
1
 62
5
420
255
176
1
290
0
176
1
 90
50
176
1
 90
50
176
1
 90
50
176
1
290
0
176
1
 90
50
176
1
 62
256
176
0
 40
1.0
176
0
 90
2
176
1
  1
strokes_ogs.tif
176
1
290
0
176
1
 40
1.0
176
1
 40
1.0
176
1
  0
VISUALSTYLE
  5
62
102
{ACAD_REACTORS
330
16
102
}
330
16
100
AcDbVisualStyle
  2
Flat
 70
0
177
3
291
1
 70
58
 90
2
176
1
 90
2
176
1
 90
0
176
1
 90
2
176
1
 40
0.6
176
1
 40
30.0
176
1
 62
7
420
16777215
176
1
 90
1
176
1
 90
4
176
1
 62
7
176
1
 62
257
176
1
 90
1
176
1
 90
1
176
1
 40
1.0
176
1
 90
8
176
1
 62
7
176
1
 40
1.0
176
1
 90
1
176
1
 90
6
176
1
 90
2
176
1
 62
7
176
1
 90
5
176
1
 90
0
176
1
 90
0
176
1
290
0
176
1
 90
1
176
1
 40
0.0
176
1
 90
0
176
1
290
0
176
1
290
1
176
1
290
1
176
1
290
0
176
1
290
0
176
1
290
0
176
1
290
0
176
1
290
0
176
1
290
0
176
1
 90
50
176
1
 40
0.0
176
1
 40
1.0
176
1
 90
0
176
1
 62
18
420
0
176
1
 90
50
176
1
 90
3
176
1
 62
5
420
255
176
1
290
0
176
1
 90
50
176
1
 90
50
176
1
 90
50
176
1
290
0
176
1
 90
50
176
1
 62
256
176
0
 40
1.0
176
0
 90
2
176
1
  1
strokes_ogs.tif
176
1
290
0
176
1
 40
1.0
176
1
 40
1.0
176
1
  0
VISUALSTYLE
  5
63
102
{ACAD_REACTORS
330
16
102
}
330
16
100
AcDbVisualStyle
  2
FlatWithEdges
 70
1
177
3
291
1
 70
58
 90
2
176
1
 90
2
176
1
 90
0
176
1
 90
2
176
1
 40
0.6
176
1
 40
30.0
176
1
 62
7
420
16777215
176
1
 90
1
176
1
 90
4
176
1
 62
7
176
1
 62
257
176
1
 90
1
176
1
 90
1
176
1
 40
1.0
176
1
 90
8
176
1
 62
7
176
1
 40
1.0
176
1
 90
1
176
1
 90
6
176
1
 90
2
176
1
 62
7
176
1
 90
5
176
1
 90
0
176
1
 90
0
176
1
290
0
176
1
 90
1
176
1
 40
0.0
176
1
 90
0
176
1
290
0
176
1
290
1
176
1
290
1
176
1
290
0
176
1
290
0
176
1
290
0
176
1
290
0
176
1
290
0
176
1
290
0
176
1
 90
50
176
1
 40
0.0
176
1
 40
1.0
176
1
 90
0
176
1
 62
18
420
0
176
1
 90
50
176
1
 90
3
176
1
 62
5
420
255
176
1
290
0
176
1
 90
50
176
1
 90
50
176
1
 90
50
176
1
290
0
176
1
 90
50
176
1
 62
256
176
0
 40
1.0
176
0
 90
2
176
1
  1
strokes_ogs.tif
176
1
290
0
176
1
 40
1.0
176
1
 40
1.0
176
1
  0
VISUALSTYLE
  5
64
102
{ACAD_REACTORS
330
16
102
}
330
16
100
AcDbVisualStyle
  2
Gouraud
 70
2
177
3
291
1
 70
58
 90
2
176
1
 90
2
176
1
 90
0
176
1
 90
2
176
1
 40
0.6
176
1
 40
30.0
176
1
 62
7
420
16777215
176
1
 90
1
176
1
 90
4
176
1
 62
7
176
1
 62
257
176
1
 90
1
176
1
 90
1
176
1
 40
1.0
176
1
 90
8
176
1
 62
7
176
1
 40
1.0
176
1
 90
1
176
1
 90
6
176
1
 90
2
176
1
 62
7
176
1
 90
5
176
1
 90
0
176
1
 90
0
176
1
290
0
176
1
 90
1
176
1
 40
0.0
176
1
 90
0
176
1
290
0
176
1
290
1
176
1
290
1
176
1
290
0
176
1
290
0
176
1
290
0
176
1
290
0
176
1
290
0
176
1
290
0
176
1
 90
50
176
1
 40
0.0
176
1
 40
1.0
176
1
 90
0
176
1
 62
18
420
0
176
1
 90
50
176
1
 90
3
176
1
 62
5
420
255
176
1
290
0
176
1
 90
50
176
1
 90
50
176
1
 90
50
176
1
290
0
176
1
 90
50
176
1
 62
256
176
0
 40
1.0
176
0
 90
2
176
1
  1
strokes_ogs.tif
176
1
290
0
176
1
 40
1.0
176
1
 40
1.0
176
1
  0
VISUALSTYLE
  5
65
102
{ACAD_REACTORS
330
16
102
}
330
16
100
AcDbVisualStyle
  2
GouraudWithEdges
 70
3
177
3
291
1
 70
58
 90
2
176
1
 90
2
176
1
 90
0
176
1
 90
2
176
1
 40
0.6
176
1
 40
30.0
176
1
 62
7
420
16777215
176
1
 90
1
176
1
 90
4
176
1
 62
7
176
1
 62
257
176
1
 90
1
176
1
 90
1
176
1
 40
1.0
176
1
 90
8
176
1
 62
7
176
1
 40
1.0
176
1
 90
1
176
1
 90
6
176
1
 90
2
176
1
 62
7
176
1
 90
5
176
1
 90
0
176
1
 90
0
176
1
290
0
176
1
 90
1
176
1
 40
0.0
176
1
 90
0
176
1
290
0
176
1
290
1
176
1
290
1
176
1
290
0
176
1
290
0
176
1
290
0
176
1
290
0
176
1
290
0
176
1
290
0
176
1
 90
50
176
1
 40
0.0
176
1
 40
1.0
176
1
 90
0
176
1
 62
18
420
0
176
1
 90
50
176
1
 90
3
176
1
 62
5
420
255
176
1
290
0
176
1
 90
50
176
1
 90
50
176
1
 90
50
176
1
290
0
176
1
 90
50
176
1
 62
256
176
0
 40
1.0
176
0
 90
2
176
1
  1
strokes_ogs.tif
176
1
290
0
176
1
 40
1.0
176
1
 40
1.0
176
1
  0
VISUALSTYLE
  5
66
102
{ACAD_REACTORS
330
16
102
}
330
16
100
AcDbVisualStyle
  2
Hidden
 70
6
177
3
291
0
 70
58
 90
2
176
1
 90
2
176
1
 90
0
176
1
 90
1
176
1
 40
0.6
176
1
 40
30.0
176
1
 62
7
420
16777215
176
1
 90
1
176
1
 90
4
176
1
 62
7
176
1
 62
257
176
1
 90
1
176
1
 90
1
176
1
 40
1.0
176
1
 90
8
176
1
 62
7
176
1
 40
1.0
176
1
 90
1
176
1
 90
6
176
1
 90
2
176
1
 62
7
176
1
 90
5
176
1
 90
0
176
1
 90
0
176
1
290
0
176
1
 90
1
176
1
 40
0.0
176
1
 90
0
176
1
290
0
176
1
290
1
176
1
290
1
176
1
290
0
176
1
290
0
176
1
290
0
176
1
290
0
176
1
290
0
176
1
290
0
176
1
 90
50
176
1
 40
0.0
176
1
 40
1.0
176
1
 90
0
176
1
 62
18
420
0
176
1
 90
50
176
1
 90
3
176
1
 62
5
420
255
176
1
290
0
176
1
 90
50
176
1
 90
50
176
1
 90
50
176
1
290
0
176
1
 90
50
176
1
 62
256
176
0
 40
1.0
176
0
 90
2
176
1
  1
strokes_ogs.tif
176
1
290
0
176
1
 40
1.0
176
1
 40
1.0
176
1
  0
VISUALSTYLE
  5
67
102
{ACAD_REACTORS
330
16
102
}
330
16
100
AcDbVisualStyle
  2
JitterOff
 70
20
177
3
291
1
 70
58
 90
2
176
1
 90
2
176
1
 90
0
176
1
 90
2
176
1
 40
0.6
176
1
 40
30.0
176
1
 62
7
420
16777215
176
1
 90
1
176
1
 90
4
176
1
 62
7
176
1
 62
257
176
1
 90
1
176
1
 90
1
176
1
 40
1.0
176
1
 90
8
176
1
 62
7
176
1
 40
1.0
176
1
 90
1
176
1
 90
6
176
1
 90
2
176
1
 62
7
176
1
 90
5
176
1
 90
0
176
1
 90
0
176
1
290
0
176
1
 90
1
176
1
 40
0.0
176
1
 90
0
176
1
290
0
176
1
290
1
176
1
290
1
176
1
290
0
176
1
290
0
176
1
290
0
176
1
290
0
176
1
290
0
176
1
290
0
176
1
 90
50
176
1
 40
0.0
176
1
 40
1.0
176
1
 90
0
176
1
 62
18
420
0
176
1
 90
50
176
1
 90
3
176
1
 62
5
420
255
176
1
290
0
176
1
 90
50
176
1
 90
50
176
1
 90
50
176
1
290
0
176
1
 90
50
176
1
 62
256
176
0
 40
1.0
176
0
 90
2
176
1
  1
strokes_ogs.tif
176
1
290
0
176
1
 40
1.0
176
1
 40
1.0
176
1
  0
VISUALSTYLE
  5
68
102
{ACAD_REACTORS
330
16
102
}
330
16
100
AcDbVisualStyle
  2
Linepattern
 70
14
177
3
291
1
 70
58
 90
2
176
1
 90
2
176
1
 90
0
176
1
 90
2
176
1
 40
0.6
176
1
 40
30.0
176
1
 62
7
420
16777215
176
1
 90
1
176
1
 90
4
176
1
 62
7
176
1
 62
257
176
1
 90
1
176
1
 90
1
176
1
 40
1.0
176
1
 90
8
176
1
 62
7
176
1
 40
1.0
176
1
 90
1
176
1
 90
6
176
1
 90
2
176
1
 62
7
176
1
 90
5
176
1
 90
0
176
1
 90
0
176
1
290
0
176
1
 90
1
176
1
 40
0.0
176
1
 90
0
176
1
290
0
176
1
290
1
176
1
290
1
176
1
290
0
176
1
290
0
176
1
290
0
176
1
290
0
176
1
290
0
176
1
290
0
176
1
 90
50
176
1
 40
0.0
176
1
 40
1.0
176
1
 90
0
176
1
 62
18
420
0
176
1
 90
50
176
1
 90
3
176
1
 62
5
420
255
176
1
290
0
176
1
 90
50
176
1
 90
50
176
1
 90
50
176
1
290
0
176
1
 90
50
176
1
 62
256
176
0
 40
1.0
176
0
 90
2
176
1
  1
strokes_ogs.tif
176
1
290
0
176
1
 40
1.0
176
1
 40
1.0
176
1
  0
VISUALSTYLE
  5
69
102
{ACAD_REACTORS
330
16
102
}
330
16
100
AcDbVisualStyle
  2
Modeling
 70
10
177
3
291
0
 70
58
 90
2
176
1
 90
2
176
1
 90
0
176
1
 90
2
176
1
 40
0.6
176
1
 40
30.0
176
1
 62
7
420
16777215
176
1
 90
1
176
1
 90
4
176
1
 62
7
176
1
 62
257
176
1
 90
1
176
1
 90
1
176
1
 40
1.0
176
1
 90
8
176
1
 62
7
176
1
 40
1.0
176
1
 90
1
176
1
 90
6
176
1
 90
2
176
1
 62
7
176
1
 90
5
176
1
 90
0
176
1
 90
0
176
1
290
0
176
1
 90
1
176
1
 40
0.0
176
1
 90
0
176
1
290
0
176
1
290
1
176
1
290
1
176
1
290
0
176
1
290
0
176
1
290
0
176
1
290
0
176
1
290
0
176
1
290
0
176
1
 90
50
176
1
 40
0.0
176
1
 40
1.0
176
1
 90
0
176
1
 62
18
420
0
176
1
 90
50
176
1
 90
3
176
1
 62
5
420
255
176
1
290
0
176
1
 90
50
176
1
 90
50
176
1
 90
50
176
1
290
0
176
1
 90
50
176
1
 62
256
176
0
 40
1.0
176
0
 90
2
176
1
  1
strokes_ogs.tif
176
1
290
0
176
1
 40
1.0
176
1
 40
1.0
176
1
  0
VISUALSTYLE
  5
6A
102
{ACAD_REACTORS
330
16
102
}
330
16
100
AcDbVisualStyle
  2
OverhangOff
 70
21
177
3
291
1
 70
58
 90
2
176
1
 90
2
176
1
 90
0
176
1
 90
2
176
1
 40
0.6
176
1
 40
30.0
176
1
 62
7
420
16777215
176
1
 90
1
176
1
 90
4
176
1
 62
7
176
1
 62
257
176
1
 90
1
176
1
 90
1
176
1
 40
1.0
176
1
 90
8
176
1
 62
7
176
1
 40
1.0
176
1
 90
1
176
1
 90
6
176
1
 90
2
176
1
 62
7
176
1
 90
5
176
1
 90
0
176
1
 90
0
176
1
290
0
176
1
 90
1
176
1
 40
0.0
176
1
 90
0
176
1
290
0
176
1
290
1
176
1
290
1
176
1
290
0
176
1
290
0
176
1
290
0
176
1
290
0
176
1
290
0
176
1
290
0
176
1
 90
50
176
1
 40
0.0
176
1
 40
1.0
176
1
 90
0
176
1
 62
18
420
0
176
1
 90
50
176
1
 90
3
176
1
 62
5
420
255
176
1
290
0
176
1
 90
50
176
1
 90
50
176
1
 90
50
176
1
290
0
176
1
 90
50
176
1
 62
256
176
0
 40
1.0
176
0
 90
2
176
1
  1
strokes_ogs.tif
176
1
290
0
176
1
 40
1.0
176
1
 40
1.0
176
1
  0
VISUALSTYLE
  5
6B
102
{ACAD_REACTORS
330
16
102
}
330
16
100
AcDbVisualStyle
  2
Realistic
 70
8
177
3
291
0
 70
58
 90
2
176
1
 90
2
176
1
 90
0
176
1
 90
2
176
1
 40
0.6
176
1
 40
30.0
176
1
 62
7
420
16777215
176
1
 90
1
176
1
 90
4
176
1
 62
7
176
1
 62
257
176
1
 90
1
176
1
 90
1
176
1
 40
1.0
176
1
 90
8
176
1
 62
7
176
1
 40
1.0
176
1
 90
1
176
1
 90
6
176
1
 90
2
176
1
 62
7
176
1
 90
5
176
1
 90
0
176
1
 90
0
176
1
290
0
176
1
 90
1
176
1
 40
0.0
176
1
 90
0
176
1
290
0
176
1
290
1
176
1
290
1
176
1
290
0
176
1
290
0
176
1
290
0
176
1
290
0
176
1
290
0
176
1
290
0
176
1
 90
50
176
1
 40
0.0
176
1
 40
1.0
176
1
 90
0
176
1
 62
18
420
0
176
1
 90
50
176
1
 90
3
176
1
 62
5
420
255
176
1
290
0
176
1
 90
50
176
1
 90
50
176
1
 90
50
176
1
290
0
176
1
 90
50
176
1
 62
256
176
0
 40
1.0
176
0
 90
2
176
1
  1
strokes_ogs.tif
176
1
290
0
176
1
 40
1.0
176
1
 40
1.0
176
1
  0
VISUALSTYLE
  5
6C
102
{ACAD_REACTORS
330
16
102
}
330
16
100
AcDbVisualStyle
  2
Shaded
 70
27
177
3
291
0
 70
58
 90
2
176
1
 90
2
176
1
 90
0
176
1
 90
2
176
1
 40
0.6
176
1
 40
30.0
176
1
 62
7
420
16777215
176
1
 90
1
176
1
 90
4
176
1
 62
7
176
1
 62
257
176
1
 90
1
176
1
 90
1
176
1
 40
1.0
176
1
 90
8
176
1
 62
7
176
1
 40
1.0
176
1
 90
1
176
1
 90
6
176
1
 90
2
176
1
 62
7
176
1
 90
5
176
1
 90
0
176
1
 90
0
176
1
290
0
176
1
 90
1
176
1
 40
0.0
176
1
 90
0
176
1
290
0
176
1
290
1
176
1
290
1
176
1
290
0
176
1
290
0
176
1
290
0
176
1
290
0
176
1
290
0
176
1
290
0
176
1
 90
50
176
1
 40
0.0
176
1
 40
1.0
176
1
 90
0
176
1
 62
18
420
0
176
1
 90
50
176
1
 90
3
176
1
 62
5
420
255
176
1
290
0
176
1
 90
50
176
1
 90
50
176
1
 90
50
176
1
290
0
176
1
 90
50
176
1
 62
256
176
0
 40
1.0
176
0
 90
2
176
1
  1
strokes_ogs.tif
176
1
290
0
176
1
 40
1.0
176
1
 40
1.0
176
1
  0
VISUALSTYLE
  5
6D
102
{ACAD_REACTORS
330
16
102
}
330
16
100
AcDbVisualStyle
  2
Shaded with edges
 70
26
177
3
291
0
 70
58
 90
2
176
1
 90
2
176
1
 90
0
176
1
 90
2
176
1
 40
0.6
176
1
 40
30.0
176
1
 62
7
420
16777215
176
1
 90
1
176
1
 90
4
176
1
 62
7
176
1
 62
257
176
1
 90
1
176
1
 90
1
176
1
 40
1.0
176
1
 90
8
176
1
 62
7
176
1
 40
1.0
176
1
 90
1
176
1
 90
6
176
1
 90
2
176
1
 62
7
176
1
 90
5
176
1
 90
0
176
1
 90
0
176
1
290
0
176
1
 90
1
176
1
 40
0.0
176
1
 90
0
176
1
290
0
176
1
290
1
176
1
290
1
176
1
290
0
176
1
290
0
176
1
290
0
176
1
290
0
176
1
290
0
176
1
290
0
176
1
 90
50
176
1
 40
0.0
176
1
 40
1.0
176
1
 90
0
176
1
 62
18
420
0
176
1
 90
50
176
1
 90
3
176
1
 62
5
420
255
176
1
290
0
176
1
 90
50
176
1
 90
50
176
1
 90
50
176
1
290
0
176
1
 90
50
176
1
 62
256
176
0
 40
1.0
176
0
 90
2
176
1
  1
strokes_ogs.tif
176
1
290
0
176
1
 40
1.0
176
1
 40
1.0
176
1
  0
VISUALSTYLE
  5
6E
102
{ACAD_REACTORS
330
16
102
}
330
16
100
AcDbVisualStyle
  2
Shades of Gray
 70
23
177
3
291
0
 70
58
 90
2
176
1
 90
2
176
1
 90
0
176
1
 90
2
176
1
 40
0.6
176
1
 40
30.0
176
1
 62
7
420
16777215
176
1
 90
1
176
1
 90
4
176
1
 62
7
176
1
 62
257
176
1
 90
1
176
1
 90
1
176
1
 40
1.0
176
1
 90
8
176
1
 62
7
176
1
 40
1.0
176
1
 90
1
176
1
 90
6
176
1
 90
2
176
1
 62
7
176
1
 90
5
176
1
 90
0
176
1
 90
0
176
1
290
0
176
1
 90
1
176
1
 40
0.0
176
1
 90
0
176
1
290
0
176
1
290
1
176
1
290
1
176
1
290
0
176
1
290
0
176
1
290
0
176
1
290
0
176
1
290
0
176
1
290
0
176
1
 90
50
176
1
 40
0.0
176
1
 40
1.0
176
1
 90
0
176
1
 62
18
420
0
176
1
 90
50
176
1
 90
3
176
1
 62
5
420
255
176
1
290
0
176
1
 90
50
176
1
 90
50
176
1
 90
50
176
1
290
0
176
1
 90
50
176
1
 62
256
176
0
 40
1.0
176
0
 90
2
176
1
  1
strokes_ogs.tif
176
1
290
0
176
1
 40
1.0
176
1
 40
1.0
176
1
  0
VISUALSTYLE
  5
6F
102
{ACAD_REACTORS
330
16
102
}
330
16
100
AcDbVisualStyle
  2
Sketchy
 70
24
177
3
291
0
 70
58
 90
2
176
1
 90
2
176
1
 90
0
176
1
 90
1
176
1
 40
0.6
176
1
 40
30.0
176
1
 62
7
420
16777215
176
1
 90
1
176
1
 90
4
176
1
 62
7
176
1
 62
257
176
1
 90
1
176
1
 90
1
176
1
 40
1.0
176
1
 90
8
176
1
 62
7
176
1
 40
1.0
176
1
 90
1
176
1
 90
6
176
1
 90
2
176
1
 62
7
176
1
 90
5
176
1
 90
0
176
1
 90
0
176
1
290
0
176
1
 90
1
176
1
 40
0.0
176
1
 90
0
176
1
290
0
176
1
290
1
176
1
290
1
176
1
290
0
176
1
290
0
176
1
290
0
176
1
290
0
176
1
290
0
176
1
290
0
176
1
 90
50
176
1
 40
0.0
176
1
 40
1.0
176
1
 90
0
176
1
 62
18
420
0
176
1
 90
50
176
1
 90
3
176
1
 62
5
420
255
176
1
290
0
176
1
 90
50
176
1
 90
50
176
1
 90
50
176
1
290
0
176
1
 90
50
176
1
 62
256
176
0
 40
1.0
176
0
 90
2
176
1
  1
strokes_ogs.tif
176
1
290
0
176
1
 40
1.0
176
1
 40
1.0
176
1
  0
VISUALSTYLE
  5
70
102
{ACAD_REACTORS
330
16
102
}
330
16
100
AcDbVisualStyle
  2
Thicken
 70
13
177
3
291
1
 70
58
 90
2
176
1
 90
2
176
1
 90
0
176
1
 90
2
176
1
 40
0.6
176
1
 40
30.0
176
1
 62
7
420
16777215
176
1
 90
1
176
1
 90
4
176
1
 62
7
176
1
 62
257
176
1
 90
1
176
1
 90
1
176
1
 40
1.0
176
1
 90
8
176
1
 62
7
176
1
 40
1.0
176
1
 90
1
176
1
 90
6
176
1
 90
2
176
1
 62
7
176
1
 90
5
176
1
 90
0
176
1
 90
0
176
1
290
0
176
1
 90
1
176
1
 40
0.0
176
1
 90
0
176
1
290
0
176
1
290
1
176
1
290
1
176
1
290
0
176
1
290
0
176
1
290
0
176
1
290
0
176
1
290
0
176
1
290
0
176
1
 90
50
176
1
 40
0.0
176
1
 40
1.0
176
1
 90
0
176
1
 62
18
420
0
176
1
 90
50
176
1
 90
3
176
1
 62
5
420
255
176
1
290
0
176
1
 90
50
176
1
 90
50
176
1
 90
50
176
1
290
0
176
1
 90
50
176
1
 62
256
176
0
 40
1.0
176
0
 90
2
176
1
  1
strokes_ogs.tif
176
1
290
0
176
1
 40
1.0
176
1
 40
1.0
176
1
  0
VISUALSTYLE
  5
71
102
{ACAD_REACTORS
330
16
102
}
330
16
100
AcDbVisualStyle
  2
Wireframe
 70
5
177
3
291
0
 70
58
 90
2
176
1
 90
2
176
1
 90
0
176
1
 90
0
176
1
 40
0.6
176
1
 40
30.0
176
1
 62
7
420
16777215
176
1
 90
1
176
1
 90
4
176
1
 62
7
176
1
 62
257
176
1
 90
1
176
1
 90
1
176
1
 40
1.0
176
1
 90
8
176
1
 62
7
176
1
 40
1.0
176
1
 90
1
176
1
 90
6
176
1
 90
2
176
1
 62
7
176
1
 90
5
176
1
 90
0
176
1
 90
0
176
1
290
0
176
1
 90
1
176
1
 40
0.0
176
1
 90
0
176
1
290
0
176
1
290
1
176
1
290
1
176
1
290
0
176
1
290
0
176
1
290
0
176
1
290
0
176
1
290
0
176
1
290
0
176
1
 90
50
176
1
 40
0.0
176
1
 40
1.0
176
1
 90
0
176
1
 62
18
420
0
176
1
 90
50
176
1
 90
3
176
1
 62
5
420
255
176
1
290
0
176
1
 90
50
176
1
 90
50
176
1
 90
50
176
1
290
0
176
1
 90
50
176
1
 62
256
176
0
 40
1.0
176
0
 90
2
176
1
  1
strokes_ogs.tif
176
1
290
0
176
1
 40
1.0
176
1
 40
1.0
176
1
  0
VISUALSTYLE
  5
72
102
{ACAD_REACTORS
330
16
102
}
330
16
100
AcDbVisualStyle
  2
X-Ray
 70
25
177
3
291
0
 70
58
 90
2
176
1
 90
2
176
1
 90
0
176
1
 90
2
176
1
 40
0.5
176
1
 40
30.0
176
1
 62
7
420
16777215
176
1
 90
1
176
1
 90
4
176
1
 62
7
176
1
 62
257
176
1
 90
1
176
1
 90
1
176
1
 40
1.0
176
1
 90
8
176
1
 62
7
176
1
 40
1.0
176
1
 90
1
176
1
 90
6
176
1
 90
2
176
1
 62
7
176
1
 90
5
176
1
 90
0
176
1
 90
0
176
1
290
0
176
1
 90
1
176
1
 40
0.0
176
1
 90
0
176
1
290
0
176
1
290
1
176
1
290
1
176
1
290
0
176
1
290
0
176
1
290
0
176
1
290
0
176
1
290
0
176
1
290
0
176
1
 90
50
176
1
 40
0.0
176
1
 40
1.0
176
1
 90
0
176
1
 62
18
420
0
176
1
 90
50
176
1
 90
3
176
1
 62
5
420
255
176
1
290
0
176
1
 90
50
176
1
 90
50
176
1
 90
50
176
1
290
0
176
1
 90
50
176
1
 62
256
176
0
 40
1.0
176
0
 90
2
176
1
  1
strokes_ogs.tif
176
1
290
0
176
1
 40
1.0
176
1
 40
1.0
176
1
  0
DICTIONARYVAR
  5
8F
330
2D
100
DictionaryVariables
280
0
  1
1.4.3 @ 2026-01-22T21:05:36.324294+00:00
  0
ENDSEC
  0
EOF
