  0
SECTION
  2
HEADER
  9
$ACADVER
  1
AC1027
  9
$ACADMAINTVER
 70
105
  9
$DWGCODEPAGE
  3
ANSI_1252
  9
$LASTSAVEDBY
  1
ezdxf
  9
$REQUIREDVERSIONS
160
0
  9
$INSBASE
 10
0.0
 20
0.0
 30
0.0
  9
$EXTMIN
 10
1e+20
 20
1e+20
 30
1e+20
  9
$EXTMAX
 10
-1e+20
 20
-1e+20
 30
-1e+20
  9
$LIMMIN
 10
0.0
 20
0.0
  9
$LIMMAX
 10
420.0
 20
297.0
  9
$ORTHOMODE
 70
0
  9
$REGENMODE
 70
1
  9
$FILLMODE
 70
1
  9
$QTEXTMODE
 70
0
  9
$MIRRTEXT
 70
1
  9
$LTSCALE
 40
1.0
  9
$ATTMODE
 70
1
  9
$TEXTSIZE
 40
2.5
  9
$TRACEWID
 40
1.0
  9
$TEXTSTYLE
  7
OpenSans
  9
$CLAYER
  8
0
  9
$CELTYPE
  6
ByLayer
  9
$CECOLOR
 62
256
  9
$CELTSCALE
 40
1.0
  9
$DISPSILH
 70
0
  9
$DIMSCALE
 40
1.0
  9
$DIMASZ
 40
0.175
  9
$DIMEXO
 40
0.125
  9
$DIMDLI
 40
3.75
  9
$DIMRND
 40
0.0
  9
$DIMDLE
 40
0.0
  9
$DIMEXE
 40
0.375
  9
$DIMTP
 40
0.0
  9
$DIMTM
 40
0.0
  9
$DIMTXT
 40
0.25
  9
$DIMCEN
 40
2.5
  9
$DIMTSZ
 40
0.0
  9
$DIMTOL
 70
0
  9
$DIMLIM
 70
0
  9
$DIMTIH
 70
0
  9
$DIMTOH
 70
0
  9
$DIMSE1
 70
0
  9
$DIMSE2
 70
0
  9
$DIMTAD
 70
1
  9
$DIMZIN
 70
12
  9
$DIMBLK
  1
ARCHTICK
  9
$DIMASO
 70
1
  9
$DIMSHO
 70
1
  9
$DIMPOST
  1

  9
$DIMAPOST
  1

  9
$DIMALT
 70
0
  9
$DIMALTD
 70
3
  9
$DIMALTF
 40
0.03937007874
  9
$DIMLFAC
 40
100.0
  9
$DIMTOFL
 70
1
  9
$DIMTVP
 40
0.0
  9
$DIMTIX
 70
0
  9
$DIMSOXD
 70
0
  9
$DIMSAH
 70
0
  9
$DIMBLK1
  1

  9
$DIMBLK2
  1

  9
$DIMSTYLE
  2
EZDXF
  9
$DIMCLRD
 70
0
  9
$DIMCLRE
 70
0
  9
$DIMCLRT
 70
0
  9
$DIMTFAC
 40
0.5
  9
$DIMGAP
 40
0.1
  9
$DIMJUST
 70
0
  9
$DIMSD1
 70
0
  9
$DIMSD2
 70
0
  9
$DIMTOLJ
 70
0
  9
$DIMTZIN
 70
8
  9
$DIMALTZ
 70
0
  9
$DIMALTTZ
 70
0
  9
$DIMUPT
 70
1
  9
$DIMDEC
 70
2
  9
$DIMTDEC
 70
2
  9
$DIMALTU
 70
2
  9
$DIMALTTD
 70
3
  9
$DIMTXSTY
  7
OpenSansCondensed-Light
  9
$DIMAUNIT
 70
0
  9
$DIMADEC
 70
2
  9
$DIMALTRND
 40
0.0
  9
$DIMAZIN
 70
3
  9
$DIMDSEP
 70
46
  9
$DIMATFIT
 70
3
  9
$DIMFRAC
 70
0
  9
$DIMLDRBLK
  1

  9
$DIMLUNIT
 70
2
  9
$DIMLWD
 70
-2
  9
$DIMLWE
 70
-2
  9
$DIMTMOVE
 70
2
  9
$DIMFXL
 40
1.0
  9
$DIMFXLON
 70
0
  9
$DIMJOGANG
 40
0.785398163397
  9
$DIMTFILL
 70
0
  9
$DIMTFILLCLR
 70
0
  9
$DIMARCSYM
 70
0
  9
$DIMLTYPE
  6

  9
$DIMLTEX1
  6

  9
$DIMLTEX2
  6

  9
$DIMTXTDIRECTION
 70
0
  9
$LUNITS
 70
2
  9
$LUPREC
 70
4
  9
$SKETCHINC
 40
1.0
  9
$FILLETRAD
 40
10.0
  9
$AUNITS
 70
0
  9
$AUPREC
 70
2
  9
$MENU
  1
.
  9
$ELEVATION
 40
0.0
  9
$PELEVATION
 40
0.0
  9
$THICKNESS
 40
0.0
  9
$LIMCHECK
 70
0
  9
$CHAMFERA
 40
0.0
  9
$CHAMFERB
 40
0.0
  9
$CHAMFERC
 40
0.0
  9
$CHAMFERD
 40
0.0
  9
$SKPOLY
 70
0
  9
$TDCREATE
 40
2461080.147280093
  9
$TDUCREATE
 40
2458532.153996898
  9
$TDUPDATE
 40
2461080.147280093
  9
$TDUUPDATE
 40
2458532.1544311
  9
$TDINDWG
 40
0.0
  9
$TDUSRTIMER
 40
0.0
  9
$USRTIMER
 70
1
  9
$ANGBASE
 50
0.0
  9
$ANGDIR
 70
0
  9
$PDMODE
 70
0
  9
$PDSIZE
 40
0.0
  9
$PLINEWID
 40
0.0
  9
$SPLFRAME
 70
0
  9
$SPLINETYPE
 70
6
  9
$SPLINESEGS
 70
8
  9
$HANDSEED
  5
90
  9
$SURFTAB1
 70
6
  9
$SURFTAB2
 70
6
  9
$SURFTYPE
 70
6
  9
$SURFU
 70
6
  9
$SURFV
 70
6
  9
$UCSBASE
  2

  9
$UCSNAME
  2

  9
$UCSORG
 10
0.0
 20
0.0
 30
0.0
  9
$UCSXDIR
 10
1.0
 20
0.0
 30
0.0
  9
$UCSYDIR
 10
0.0
 20
1.0
 30
0.0
  9
$UCSORTHOREF
  2

  9
$UCSORTHOVIEW
 70
0
  9
$UCSORGTOP
 10
0.0
 20
0.0
 30
0.0
  9
$UCSORGBOTTOM
 10
0.0
 20
0.0
 30
0.0
  9
$UCSORGLEFT
 10
0.0
 20
0.0
 30
0.0
  9
$UCSORGRIGHT
 10
0.0
 20
0.0
 30
0.0
  9
$UCSORGFRONT
 10
0.0
 20
0.0
 30
0.0
  9
$UCSORGBACK
 10
0.0
 20
0.0
 30
0.0
  9
$PUCSBASE
  2

  9
$PUCSNAME
  2

  9
$PUCSORG
 10
0.0
 20
0.0
 30
0.0
  9
$PUCSXDIR
 10
1.0
 20
0.0
 30
0.0
  9
$PUCSYDIR
 10
0.0
 20
1.0
 30
0.0
  9
$PUCSORTHOREF
  2

  9
$PUCSORTHOVIEW
 70
0
  9
$PUCSORGTOP
 10
0.0
 20
0.0
 30
0.0
  9
$PUCSORGBOTTOM
 10
0.0
 20
0.0
 30
0.0
  9
$PUCSORGLEFT
 10
0.0
 20
0.0
 30
0.0
  9
$PUCSORGRIGHT
 10
0.0
 20
0.0
 30
0.0
  9
$PUCSORGFRONT
 10
0.0
 20
0.0
 30
0.0
  9
$PUCSORGBACK
 10
0.0
 20
0.0
 30
0.0
  9
$USERI1
 70
0
  9
$USERI2
 70
0
  9
$USERI3
 70
0
  9
$USERI4
 70
0
  9
$USERI5
 70
0
  9
$USERR1
 40
0.0
  9
$USERR2
 40
0.0
  9
$USERR3
 40
0.0
  9
$USERR4
 40
0.0
  9
$USERR5
 40
0.0
  9
$WORLDVIEW
 70
1
  9
$SHADEDGE
 70
3
  9
$SHADEDIF
 70
70
  9
$TILEMODE
 70
1
  9
$MAXACTVP
 70
64
  9
$PINSBASE
 10
0.0
 20
0.0
 30
0.0
  9
$PLIMCHECK
 70
0
  9
$PEXTMIN
 10
1e+20
 20
1e+20
 30
1e+20
  9
$PEXTMAX
 10
-1e+20
 20
-1e+20
 30
-1e+20
  9
$PLIMMIN
 10
0.0
 20
0.0
  9
$PLIMMAX
 10
420.0
 20
297.0
  9
$UNITMODE
 70
0
  9
$VISRETAIN
 70
1
  9
$PLINEGEN
 70
0
  9
$PSLTSCALE
 70
1
  9
$TREEDEPTH
 70
3020
  9
$CMLSTYLE
  2
Standard
  9
$CMLJUST
 70
0
  9
$CMLSCALE
 40
20.0
  9
$PROXYGRAPHICS
 70
1
  9
$MEASUREMENT
 70
1
  9
$CELWEIGHT
370
-1
  9
$ENDCAPS
280
0
  9
$JOINSTYLE
280
0
  9
$LWDISPLAY
290
0
  9
$INSUNITS
 70
6
  9
$HYPERLINKBASE
  1

  9
$STYLESHEET
  1

  9
$XEDIT
290
1
  9
$CEPSNTYPE
380
0
  9
$PSTYLEMODE
290
1
  9
$FINGERPRINTGUID
  2
{3E6FB7A9-DADE-4A9B-9E8E-FD4B3AE1F96C}
  9
$VERSIONGUID
  2
{9E6C0A82-E7F5-4BA7-9D6B-5769628F36B0}
  9
$EXTNAMES
290
1
  9
$PSVPSCALE
 40
0.0
  9
$OLESTARTUP
290
0
  9
$SORTENTS
280
127
  9
$INDEXCTL
280
0
  9
$HIDETEXT
280
1
  9
$XCLIPFRAME
280
1
  9
$HALOGAP
280
0
  9
$OBSCOLOR
 70
257
  9
$OBSLTYPE
280
0
  9
$INTERSECTIONDISPLAY
280
0
  9
$INTERSECTIONCOLOR
 70
257
  9
$DIMASSOC
280
2
  9
$PROJECTNAME
  1

  9
$CAMERADISPLAY
290
0
  9
$LENSLENGTH
 40
50.0
  9
$CAMERAHEIGHT
 40
0.0
  9
$STEPSPERSEC
 40
24.0
  9
$STEPSIZE
 40
100.0
  9
$3DDWFPREC
 40
2.0
  9
$PSOLWIDTH
 40
0.005
  9
$PSOLHEIGHT
 40
0.08
  9
$LOFTANG1
 40
1.570796326795
  9
$LOFTANG2
 40
1.570796326795
  9
$LOFTMAG1
 40
0.0
  9
$LOFTMAG2
 40
0.0
  9
$LOFTPARAM
 70
7
  9
$LOFTNORMALS
280
1
  9
$LATITUDE
 40
37.795
  9
$LONGITUDE
 40
-122.394
  9
$NORTHDIRECTION
 40
0.0
  9
$TIMEZONE
 70
-8000
  9
$LIGHTGLYPHDISPLAY
280
1
  9
$TILEMODELIGHTSYNCH
280
1
  9
$CMATERIAL
347
20
  9
$SOLIDHIST
280
0
  9
$SHOWHIST
280
1
  9
$DWFFRAME
280
2
  9
$DGNFRAME
280
2
  9
$REALWORLDSCALE
290
1
  9
$INTERFERECOLOR
 62
256
  9
$CSHADOW
280
0
  9
$SHADOWPLANELOCATION
 40
0.0
  0
ENDSEC
  0
SECTION
  2
CLASSES
  0
CLASS
  1
ACDBDICTIONARYWDFLT
  2
AcDbDictionaryWithDefault
  3
ObjectDBX Classes
 90
0
 91
0
280
0
281
0
  0
CLASS
  1
SUN
  2
AcDbSun
  3
SCENEOE
 90
1153
 91
0
280
0
281
0
  0
CLASS
  1
VISUALSTYLE
  2
AcDbVisualStyle
  3
ObjectDBX Classes
 90
4095
 91
0
280
0
281
0
  0
CLASS
  1
MATERIAL
  2
AcDbMaterial
  3
ObjectDBX Classes
 90
1153
 91
0
280
0
281
0
  0
CLASS
  1
SCALE
  2
AcDbScale
  3
ObjectDBX Classes
 90
1153
 91
0
280
0
281
0
  0
CLASS
  1
TABLESTYLE
  2
AcDbTableStyle
  3
ObjectDBX Classes
 90
4095
 91
0
280
0
281
0
  0
CLASS
  1
MLEADERSTYLE
  2
AcDbMLeaderStyle
  3
ACDB_MLEADERSTYLE_CLASS
 90
4095
 91
0
280
0
281
0
  0
CLASS
  1
DICTIONARYVAR
  2
AcDbDictionaryVar
  3
ObjectDBX Classes
 90
0
 91
0
280
0
281
0
  0
CLASS
  1
CELLSTYLEMAP
  2
AcDbCellStyleMap
  3
ObjectDBX Classes
 90
1152
 91
0
280
0
281
0
  0
CLASS
  1
MENTALRAYRENDERSETTINGS
  2
AcDbMentalRayRenderSettings
  3
SCENEOE
 90
1024
 91
0
280
0
281
0
  0
CLASS
  1
ACDBDETAILVIEWSTYLE
  2
AcDbDetailViewStyle
  3
ObjectDBX Classes
 90
1025
 91
0
280
0
281
0
  0
CLASS
  1
ACDBSECTIONVIEWSTYLE
  2
AcDbSectionViewStyle
  3
ObjectDBX Classes
 90
1025
 91
0
280
0
281
0
  0
CLASS
  1
RASTERVARIABLES
  2
AcDbRasterVariables
  3
ISM
 90
0
 91
0
280
0
281
0
  0
CLASS
  1
LAYOUT
  2
AcDbLayout
  3
ObjectDBX Classes
 90
0
 91
0
280
0
281
0
  0
CLASS
  1
ACDBPLACEHOLDER
  2
AcDbPlaceHolder
  3
ObjectDBX Classes
 90
0
 91
0
280
0
281
0
  0
ENDSEC
  0
SECTION
  2
TABLES
  0
TABLE
  2
VPORT
  5
8
330
0
100
AcDbSymbolTable
 70
1
  0
VPORT
  5
23
330
8
100
AcDbSymbolTableRecord
100
AcDbViewportTableRecord
  2
*Active
 70
0
 10
0.0
 20
0.0
 11
1.0
 21
1.0
 12
0.0
 22
0.0
 13
0.0
 23
0.0
 14
0.5
 24
0.5
 15
0.5
 25
0.5
 16
0.0
 26
0.0
 36
1.0
 17
0.0
 27
0.0
 37
0.0
 40
1000.0
 41
1.34
 42
50.0
 43
0.0
 44
0.0
 50
0.0
 51
0.0
 71
0
 72
1000
 73
1
 74
3
 75
0
 76
0
 77
0
 78
0
281
0
 65
0
146
0.0
  0
ENDTAB
  0
TABLE
  2
LTYPE
  5
2
330
0
100
AcDbSymbolTable
 70
21
  0
LTYPE
  5
24
330
2
100
AcDbSymbolTableRecord
100
AcDbLinetypeTableRecord
  2
ByBlock
 70
0
  3

 72
65
 73
0
 40
0.0
  0
LTYPE
  5
25
330
2
100
AcDbSymbolTableRecord
100
AcDbLinetypeTableRecord
  2
ByLayer
 70
0
  3

 72
65
 73
0
 40
0.0
  0
LTYPE
  5
26
330
2
100
AcDbSymbolTableRecord
100
AcDbLinetypeTableRecord
  2
Continuous
 70
0
  3

 72
65
 73
0
 40
0.0
  0
LTYPE
  5
2F
330
2
100
AcDbSymbolTableRecord
100
AcDbLinetypeTableRecord
  2
CENTER
 70
0
  3
Center ____ _ ____ _ ____ _ ____ _ ____ _ ____
 72
65
 73
4
 40
5.08
 49
3.175
 74
0
 49
-0.635
 74
0
 49
0.635
 74
0
 49
-0.635
 74
0
  0
LTYPE
  5
30
330
2
100
AcDbSymbolTableRecord
100
AcDbLinetypeTableRecord
  2
CENTERX2
 70
0
  3
Center (2x) ________  __  ________  __  ________
 72
65
 73
4
 40
8.89
 49
6.35
 74
0
 49
-0.635
 74
0
 49
1.27
 74
0
 49
-0.635
 74
0
  0
LTYPE
  5
31
330
2
100
AcDbSymbolTableRecord
100
AcDbLinetypeTableRecord
  2
CENTER2
 70
0
  3
Center (.5x) ____ _ ____ _ ____ _ ____ _ ____
 72
65
 73
4
 40
2.54
 49
1.587
 74
0
 49
-0.318
 74
0
 49
0.318
 74
0
 49
-0.318
 74
0
  0
LTYPE
  5
32
330
2
100
AcDbSymbolTableRecord
100
AcDbLinetypeTableRecord
  2
DASHED
 70
0
  3
Dashed __ __ __ __ __ __ __ __ __ __ __ __ __ _
 72
65
 73
2
 40
1.524
 49
1.27
 74
0
 49
-0.254
 74
0
  0
LTYPE
  5
33
330
2
100
AcDbSymbolTableRecord
100
AcDbLinetypeTableRecord
  2
DASHEDX2
 70
0
  3
Dashed (2x) ____  ____  ____  ____  ____  ____
 72
65
 73
2
 40
3.048
 49
2.54
 74
0
 49
-0.508
 74
0
  0
LTYPE
  5
34
330
2
100
AcDbSymbolTableRecord
100
AcDbLinetypeTableRecord
  2
DASHED2
 70
0
  3
Dashed (.5x) _ _ _ _ _ _ _ _ _ _ _ _ _ _
 72
65
 73
2
 40
0.762
 49
0.635
 74
0
 49
-0.127
 74
0
  0
LTYPE
  5
35
330
2
100
AcDbSymbolTableRecord
100
AcDbLinetypeTableRecord
  2
PHANTOM
 70
0
  3
Phantom ______  __  __  ______  __  __  ______
 72
65
 73
6
 40
6.35
 49
3.175
 74
0
 49
-0.635
 74
0
 49
0.635
 74
0
 49
-0.635
 74
0
 49
0.635
 74
0
 49
-0.635
 74
0
  0
LTYPE
  5
36
330
2
100
AcDbSymbolTableRecord
100
AcDbLinetypeTableRecord
  2
PHANTOMX2
 70
0
  3
Phantom (2x)____________    ____    ____    ____________
 72
65
 73
6
 40
10.795
 49
6.35
 74
0
 49
-0.635
 74
0
 49
1.27
 74
0
 49
-0.635
 74
0
 49
1.27
 74
0
 49
-0.635
 74
0
  0
LTYPE
  5
37
330
2
100
AcDbSymbolTableRecord
100
AcDbLinetypeTableRecord
  2
PHANTOM2
 70
0
  3
Phantom (.5x) ___ _ _ ___ _ _ ___ _ _ ___ _ _ ___
 72
65
 73
6
 40
3.175
 49
1.587
 74
0
 49
-0.318
 74
0
 49
0.318
 74
0
 49
-0.318
 74
0
 49
0.318
 74
0
 49
-0.318
 74
0
  0
LTYPE
  5
38
330
2
100
AcDbSymbolTableRecord
100
AcDbLinetypeTableRecord
  2
DASHDOT
 70
0
  3
Dash dot __ . __ . __ . __ . __ . __ . __ . __
 72
65
 73
4
 40
3.556
 49
2.54
 74
0
 49
-0.508
 74
0
 49
0.0
 74
0
 49
-0.508
 74
0
  0
LTYPE
  5
39
330
2
100
AcDbSymbolTableRecord
100
AcDbLinetypeTableRecord
  2
DASHDOTX2
 70
0
  3
Dash dot (2x) ____  .  ____  .  ____  .  ____
 72
65
 73
4
 40
6.096
 49
5.08
 74
0
 49
-0.508
 74
0
 49
0.0
 74
0
 49
-0.508
 74
0
  0
LTYPE
  5
3A
330
2
100
AcDbSymbolTableRecord
100
AcDbLinetypeTableRecord
  2
DASHDOT2
 70
0
  3
Dash dot (.5x) _ . _ . _ . _ . _ . _ . _ . _
 72
65
 73
4
 40
1.778
 49
1.27
 74
0
 49
-0.254
 74
0
 49
0.0
 74
0
 49
-0.254
 74
0
  0
LTYPE
  5
3B
330
2
100
AcDbSymbolTableRecord
100
AcDbLinetypeTableRecord
  2
DOT
 70
0
  3
Dot .  .  .  .  .  .  .  .  .  .  .  .  .  .  .  .
 72
65
 73
2
 40
0.508
 49
0.0
 74
0
 49
-0.508
 74
0
  0
LTYPE
  5
3C
330
2
100
AcDbSymbolTableRecord
100
AcDbLinetypeTableRecord
  2
DOTX2
 70
0
  3
Dot (2x) .    .    .    .    .    .    .    . 
 72
65
 73
2
 40
1.016
 49
0.0
 74
0
 49
-1.016
 74
0
  0
LTYPE
  5
3D
330
2
100
AcDbSymbolTableRecord
100
AcDbLinetypeTableRecord
  2
DOT2
 70
0
  3
Dot (.5) . . . . . . . . . . . . . . . . . . . 
 72
65
 73
2
 40
0.254
 49
0.0
 74
0
 49
-0.254
 74
0
  0
LTYPE
  5
3E
330
2
100
AcDbSymbolTableRecord
100
AcDbLinetypeTableRecord
  2
DIVIDE
 70
0
  3
Divide __ . . __ . . __ . . __ . . __ . . __
 72
65
 73
6
 40
4.064
 49
2.54
 74
0
 49
-0.508
 74
0
 49
0.0
 74
0
 49
-0.508
 74
0
 49
0.0
 74
0
 49
-0.508
 74
0
  0
LTYPE
  5
3F
330
2
100
AcDbSymbolTableRecord
100
AcDbLinetypeTableRecord
  2
DIVIDEX2
 70
0
  3
Divide (2x) ____  . .  ____  . .  ____  . .  ____
 72
65
 73
6
 40
6.604
 49
5.08
 74
0
 49
-0.508
 74
0
 49
0.0
 74
0
 49
-0.508
 74
0
 49
0.0
 74
0
 49
-0.508
 74
0
  0
LTYPE
  5
40
330
2
100
AcDbSymbolTableRecord
100
AcDbLinetypeTableRecord
  2
DIVIDE2
 70
0
  3
Divide(.5x) _ . _ . _ . _ . _ . _ . _ . _
 72
65
 73
6
 40
2.032
 49
1.27
 74
0
 49
-0.254
 74
0
 49
0.0
 74
0
 49
-0.254
 74
0
 49
0.0
 74
0
 49
-0.254
 74
0
  0
ENDTAB
  0
TABLE
  2
LAYER
  5
1
330
0
100
AcDbSymbolTable
 70
2
  0
LAYER
  5
27
330
1
100
AcDbSymbolTableRecord
100
AcDbLayerTableRecord
  2
0
 70
0
 62
7
  6
Continuous
370
-3
390
13
347
21
  0
LAYER
  5
28
330
1
100
AcDbSymbolTableRecord
100
AcDbLayerTableRecord
  2
Defpoints
 70
0
 62
7
  6
Continuous
290
0
370
-3
390
13
347
21
  0
ENDTAB
  0
TABLE
  2
STYLE
  5
5
330
0
100
AcDbSymbolTable
 70
26
  0
STYLE
  5
29
330
5
100
AcDbSymbolTableRecord
100
AcDbTextStyleTableRecord
  2
Standard
 70
0
 40
0.0
 41
1.0
 50
0.0
 71
0
 42
2.5
  3
txt
  4

  0
STYLE
  5
41
330
5
100
AcDbSymbolTableRecord
100
AcDbTextStyleTableRecord
  2
OpenSans-Light
 70
0
 40
0.0
 41
1.0
 50
0.0
 71
0
 42
2.5
  3
OpenSans-Light.ttf
  4

  0
STYLE
  5
42
330
5
100
AcDbSymbolTableRecord
100
AcDbTextStyleTableRecord
  2
OpenSans-Light-Italic
 70
0
 40
0.0
 41
1.0
 50
0.0
 71
0
 42
2.5
  3
OpenSans-LightItalic.ttf
  4

  0
STYLE
  5
43
330
5
100
AcDbSymbolTableRecord
100
AcDbTextStyleTableRecord
  2
OpenSans
 70
0
 40
0.0
 41
1.0
 50
0.0
 71
0
 42
2.5
  3
OpenSans-Regular.ttf
  4

  0
STYLE
  5
44
330
5
100
AcDbSymbolTableRecord
100
AcDbTextStyleTableRecord
  2
OpenSans-Italic
 70
0
 40
0.0
 41
1.0
 50
0.0
 71
0
 42
2.5
  3
OpenSans-Italic.ttf
  4

  0
STYLE
  5
45
330
5
100
AcDbSymbolTableRecord
100
AcDbTextStyleTableRecord
  2
OpenSans-SemiBold
 70
0
 40
0.0
 41
1.0
 50
0.0
 71
0
 42
2.5
  3
OpenSans-SemiBold.ttf
  4

  0
STYLE
  5
46
330
5
100
AcDbSymbolTableRecord
100
AcDbTextStyleTableRecord
  2
OpenSans-SemiBoldItalic
 70
0
 40
0.0
 41
1.0
 50
0.0
 71
0
 42
2.5
  3
OpenSans-SemiBoldItalic.ttf
  4

  0
STYLE
  5
47
330
5
100
AcDbSymbolTableRecord
100
AcDbTextStyleTableRecord
  2
OpenSans-Bold
 70
0
 40
0.0
 41
1.0
 50
0.0
 71
0
 42
2.5
  3
OpenSans-Bold.ttf
  4

  0
STYLE
  5
48
330
5
100
AcDbSymbolTableRecord
100
AcDbTextStyleTableRecord
  2
OpenSans-BoldItalic
 70
0
 40
0.0
 41
1.0
 50
0.0
 71
0
 42
2.5
  3
OpenSans-BoldItalic.ttf
  4

  0
STYLE
  5
49
330
5
100
AcDbSymbolTableRecord
100
AcDbTextStyleTableRecord
  2
OpenSans-ExtraBold
 70
0
 40
0.0
 41
1.0
 50
0.0
 71
0
 42
2.5
  3
OpenSans-ExtraBold.ttf
  4

  0
STYLE
  5
4A
330
5
100
AcDbSymbolTableRecord
100
AcDbTextStyleTableRecord
  2
OpenSans-ExtraBoldItalic
 70
0
 40
0.0
 41
1.0
 50
0.0
 71
0
 42
2.5
  3
OpenSans-ExtraBoldItalic.ttf
  4

  0
STYLE
  5
4B
330
5
100
AcDbSymbolTableRecord
100
AcDbTextStyleTableRecord
  2
OpenSansCondensed-Bold
 70
0
 40
0.0
 41
1.0
 50
0.0
 71
0
 42
2.5
  3
OpenSansCondensed-Bold.ttf
  4

  0
STYLE
  5
4C
330
5
100
AcDbSymbolTableRecord
100
AcDbTextStyleTableRecord
  2
OpenSansCondensed-Light
 70
0
 40
0.0
 41
1.0
 50
0.0
 71
0
 42
2.5
  3
OpenSansCondensed-Light.ttf
  4

  0
STYLE
  5
4D
330
5
100
AcDbSymbolTableRecord
100
AcDbTextStyleTableRecord
  2
OpenSansCondensed-Italic
 70
0
 40
0.0
 41
1.0
 50
0.0
 71
0
 42
2.5
  3
OpenSansCondensed-LightItalic.ttf
  4

  0
STYLE
  5
4E
330
5
100
AcDbSymbolTableRecord
100
AcDbTextStyleTableRecord
  2
LiberationSans
 70
0
 40
0.0
 41
1.0
 50
0.0
 71
0
 42
2.5
  3
LiberationSans-Regular.ttf
  4

  0
STYLE
  5
4F
330
5
100
AcDbSymbolTableRecord
100
AcDbTextStyleTableRecord
  2
LiberationSans-Bold
 70
0
 40
0.0
 41
1.0
 50
0.0
 71
0
 42
2.5
  3
LiberationSans-Bold.ttf
  4

  0
STYLE
  5
50
330
5
100
AcDbSymbolTableRecord
100
AcDbTextStyleTableRecord
  2
LiberationSans-BoldItalic
 70
0
 40
0.0
 41
1.0
 50
0.0
 71
0
 42
2.5
  3
LiberationSans-BoldItalic.ttf
  4

  0
STYLE
  5
51
330
5
100
AcDbSymbolTableRecord
100
AcDbTextStyleTableRecord
  2
LiberationSans-Italic
 70
0
 40
0.0
 41
1.0
 50
0.0
 71
0
 42
2.5
  3
LiberationSans-Italic.ttf
  4

  0
STYLE
  5
52
330
5
100
AcDbSymbolTableRecord
100
AcDbTextStyleTableRecord
  2
LiberationSerif
 70
0
 40
0.0
 41
1.0
 50
0.0
 71
0
 42
2.5
  3
LiberationSerif-Regular.ttf
  4

  0
STYLE
  5
53
330
5
100
AcDbSymbolTableRecord
100
AcDbTextStyleTableRecord
  2
LiberationSerif-Bold
 70
0
 40
0.0
 41
1.0
 50
0.0
 71
0
 42
2.5
  3
LiberationSerif-Bold.ttf
  4

  0
STYLE
  5
54
330
5
100
AcDbSymbolTableRecord
100
AcDbTextStyleTableRecord
  2
LiberationSerif-BoldItalic
 70
0
 40
0.0
 41
1.0
 50
0.0
 71
0
 42
2.5
  3
LiberationSerif-BoldItalic.ttf
  4

  0
STYLE
  5
55
330
5
100
AcDbSymbolTableRecord
100
AcDbTextStyleTableRecord
  2
LiberationSerif-Italic
 70
0
 40
0.0
 41
1.0
 50
0.0
 71
0
 42
2.5
  3
LiberationSerif-Italic.ttf
  4

  0
STYLE
  5
56
330
5
100
AcDbSymbolTableRecord
100
AcDbTextStyleTableRecord
  2
LiberationMono
 70
0
 40
0.0
 41
1.0
 50
0.0
 71
0
 42
2.5
  3
LiberationMono-Regular.ttf
  4

  0
STYLE
  5
57
330
5
100
AcDbSymbolTableRecord
100
AcDbTextStyleTableRecord
  2
LiberationMono-Bold
 70
0
 40
0.0
 41
1.0
 50
0.0
 71
0
 42
2.5
  3
LiberationMono-Bold.ttf
  4

  0
STYLE
  5
58
330
5
100
AcDbSymbolTableRecord
100
AcDbTextStyleTableRecord
  2
LiberationMono-BoldItalic
 70
0
 40
0.0
 41
1.0
 50
0.0
 71
0
 42
2.5
  3
LiberationMono-BoldItalic.ttf
  4

  0
STYLE
  5
59
330
5
100
AcDbSymbolTableRecord
100
AcDbTextStyleTableRecord
  2
LiberationMono-Italic
 70
0
 40
0.0
 41
1.0
 50
0.0
 71
0
 42
2.5
  3
LiberationMono-Italic.ttf
  4

  0
ENDTAB
  0
TABLE
  2
VIEW
  5
7
330
0
100
AcDbSymbolTable
 70
0
  0
ENDTAB
  0
TABLE
  2
UCS
  5
6
330
0
100
AcDbSymbolTable
 70
0
  0
ENDTAB
  0
TABLE
  2
APPID
  5
3
330
0
100
AcDbSymbolTable
 70
3
  0
APPID
  5
2A
330
3
100
AcDbSymbolTableRecord
100
AcDbRegAppTableRecord
  2
ACAD
 70
0
  0
APPID
  5
8D
330
3
100
AcDbSymbolTableRecord
100
AcDbRegAppTableRecord
  2
HATCHBACKGROUNDCOLOR
 70
0
  0
APPID
  5
8E
330
3
100
AcDbSymbolTableRecord
100
AcDbRegAppTableRecord
  2
EZDXF
 70
0
  0
ENDTAB
  0
TABLE
  2
DIMSTYLE
  5
4
330
0
100
AcDbSymbolTable
 70
12
100
AcDbDimStyleTable
  0
DIMSTYLE
105
2B
330
4
100
AcDbSymbolTableRecord
100
AcDbDimStyleTableRecord
  2
Standard
 70
0
 40
1.0
 41
2.5
 42
0.625
 43
3.75
 44
1.25
 45
0.0
 46
0.0
 47
0.0
 48
0.0
 49
2.5
140
2.5
141
2.5
142
0.0
143
0.03937007874
144
1.0
145
0.0
146
1.0
147
0.625
148
0.0
 69
0
 70
0
 71
0
 72
0
 73
0
 74
0
 75
0
 76
0
 77
1
 78
8
 79
3
170
0
171
3
172
1
173
0
174
0
175
0
176
0
177
0
178
0
179
2
271
2
272
2
273
2
274
3
275
0
276
0
277
2
278
44
279
0
280
0
281
0
282
0
283
0
284
8
285
0
286
0
288
0
289
3
290
0
371
-2
372
-2
  0
DIMSTYLE
105
73
330
4
100
AcDbSymbolTableRecord
100
AcDbDimStyleTableRecord
  2
EZDXF
 70
0
 40
1.0
 41
0.175
 42
0.125
 43
3.75
 44
0.375
 45
0.0
 46
0.0
 47
0.0
 48
0.0
 49
2.5
140
0.25
141
2.5
142
0.0
143
0.03937007874
144
100.0
145
0.0
146
0.5
147
0.1
148
0.0
 69
0
 70
0
 71
0
 72
0
 73
0
 74
0
 75
0
 76
0
 77
1
 78
12
 79
3
170
0
171
3
172
1
173
0
174
0
175
0
176
0
177
0
178
0
179
2
271
2
272
2
273
2
274
3
275
0
276
0
277
2
278
46
279
2
280
0
281
0
282
0
283
0
284
8
285
0
286
0
288
1
289
3
290
0
340
4C
342
74
371
-2
372
-2
  0
DIMSTYLE
105
7C
330
4
100
AcDbSymbolTableRecord
100
AcDbDimStyleTableRecord
  2
EZ_M_100_H25_CM
 70
0
 40
1.0
 41
0.25
 42
0.125
 43
3.75
 44
0.375
 45
0.0
 46
0.0
 47
0.0
 48
0.0
 49
2.5
140
0.25
141
2.5
142
0.125
143
0.03937007874
144
100.0
145
0.0
146
0.5
147
0.1
148
0.0
 69
0
 70
0
 71
0
 72
0
 73
0
 74
0
 75
0
 76
0
 77
1
 78
12
 79
3
170
0
171
3
172
1
173
0
174
0
175
0
176
0
177
0
178
0
179
2
271
2
272
2
273
2
274
3
275
0
276
0
277
2
278
46
279
2
280
0
281
0
282
0
283
0
284
8
285
0
286
0
288
1
289
3
290
0
340
4C
371
-2
372
-2
  0
DIMSTYLE
105
7D
330
4
100
AcDbSymbolTableRecord
100
AcDbDimStyleTableRecord
  2
EZ_M_50_H25_CM
 70
0
 40
1.0
 41
0.125
 42
0.0625
 43
3.75
 44
0.1875
 45
0.0
 46
0.0
 47
0.0
 48
0.0
 49
2.5
140
0.125
141
2.5
142
0.0625
143
0.03937007874
144
100.0
145
0.0
146
0.5
147
0.05
148
0.0
 69
0
 70
0
 71
0
 72
0
 73
0
 74
0
 75
0
 76
0
 77
1
 78
12
 79
3
170
0
171
3
172
1
173
0
174
0
175
0
176
0
177
0
178
0
179
2
271
2
272
2
273
2
274
3
275
0
276
0
277
2
278
46
279
2
280
0
281
0
282
0
283
0
284
8
285
0
286
0
288
1
289
3
290
0
340
4C
371
-2
372
-2
  0
DIMSTYLE
105
7E
330
4
100
AcDbSymbolTableRecord
100
AcDbDimStyleTableRecord
  2
EZ_M_25_H25_CM
 70
0
 40
1.0
 41
0.0625
 42
0.03125
 43
3.75
 44
0.09375
 45
0.0
 46
0.0
 47
0.0
 48
0.0
 49
2.5
140
0.0625
141
2.5
142
0.03125
143
0.03937007874
144
100.0
145
0.0
146
0.5
147
0.025
148
0.0
 69
0
 70
0
 71
0
 72
0
 73
0
 74
0
 75
0
 76
0
 77
1
 78
12
 79
3
170
0
171
3
172
1
173
0
174
0
175
0
176
0
177
0
178
0
179
2
271
2
272
2
273
2
274
3
275
0
276
0
277
2
278
46
279
2
280
0
281
0
282
0
283
0
284
8
285
0
286
0
288
1
289
3
290
0
340
4C
371
-2
372
-2
  0
DIMSTYLE
105
7F
330
4
100
AcDbSymbolTableRecord
100
AcDbDimStyleTableRecord
  2
EZ_M_20_H25_CM
 70
0
 40
1.0
 41
0.05
 42
0.025
 43
3.75
 44
0.07500000000000001
 45
0.0
 46
0.0
 47
0.0
 48
0.0
 49
2.5
140
0.05
141
2.5
142
0.025
143
0.03937007874
144
100.0
145
0.0
146
0.5
147
0.020000000000000004
148
0.0
 69
0
 70
0
 71
0
 72
0
 73
0
 74
0
 75
0
 76
0
 77
1
 78
12
 79
3
170
0
171
3
172
1
173
0
174
0
175
0
176
0
177
0
178
0
179
2
271
2
272
2
273
2
274
3
275
0
276
0
277
2
278
46
279
2
280
0
281
0
282
0
283
0
284
8
285
0
286
0
288
1
289
3
290
0
340
4C
371
-2
372
-2
  0
DIMSTYLE
105
80
330
4
100
AcDbSymbolTableRecord
100
AcDbDimStyleTableRecord
  2
EZ_M_10_H25_CM
 70
0
 40
1.0
 41
0.025
 42
0.0125
 43
3.75
 44
0.037500000000000006
 45
0.0
 46
0.0
 47
0.0
 48
0.0
 49
2.5
140
0.025
141
2.5
142
0.0125
143
0.03937007874
144
100.0
145
0.0
146
0.5
147
0.010000000000000002
148
0.0
 69
0
 70
0
 71
0
 72
0
 73
0
 74
0
 75
0
 76
0
 77
1
 78
12
 79
3
170
0
171
3
172
1
173
0
174
0
175
0
176
0
177
0
178
0
179
2
271
2
272
2
273
2
274
3
275
0
276
0
277
2
278
46
279
2
280
0
281
0
282
0
283
0
284
8
285
0
286
0
288
1
289
3
290
0
340
4C
371
-2
372
-2
  0
DIMSTYLE
105
81
330
4
100
AcDbSymbolTableRecord
100
AcDbDimStyleTableRecord
  2
EZ_M_5_H25_CM
 70
0
 40
1.0
 41
0.0125
 42
0.00625
 43
3.75
 44
0.018750000000000003
 45
0.0
 46
0.0
 47
0.0
 48
0.0
 49
2.5
140
0.0125
141
2.5
142
0.00625
143
0.03937007874
144
100.0
145
0.0
146
0.5
147
0.005000000000000001
148
0.0
 69
0
 70
0
 71
0
 72
0
 73
0
 74
0
 75
0
 76
0
 77
1
 78
12
 79
3
170
0
171
3
172
1
173
0
174
0
175
0
176
0
177
0
178
0
179
2
271
2
272
2
273
2
274
3
275
0
276
0
277
2
278
46
279
2
280
0
281
0
282
0
283
0
284
8
285
0
286
0
288
1
289
3
290
0
340
4C
371
-2
372
-2
  0
DIMSTYLE
105
82
330
4
100
AcDbSymbolTableRecord
100
AcDbDimStyleTableRecord
  2
EZ_M_1_H25_CM
 70
0
 40
1.0
 41
0.0025
 42
0.00125
 43
3.75
 44
0.00375
 45
0.0
 46
0.0
 47
0.0
 48
0.0
 49
2.5
140
0.0025
141
2.5
142
0.00125
143
0.03937007874
144
100.0
145
0.0
146
0.5
147
0.001
148
0.0
 69
0
 70
0
 71
0
 72
0
 73
0
 74
0
 75
0
 76
0
 77
1
 78
12
 79
3
170
0
171
3
172
1
173
0
174
0
175
0
176
0
177
0
178
0
179
2
271
2
272
2
273
2
274
3
275
0
276
0
277
2
278
46
279
2
280
0
281
0
282
0
283
0
284
8
285
0
286
0
288
1
289
3
290
0
340
4C
371
-2
372
-2
  0
DIMSTYLE
105
83
330
4
100
AcDbSymbolTableRecord
100
AcDbDimStyleTableRecord
  2
EZ_RADIUS
 70
0
 40
1.0
 41
0.25
 42
0.125
 43
3.75
 44
0.375
 45
0.0
 46
0.0
 47
0.0
 48
0.0
 49
2.5
140
0.25
141
0.0
142
0.0
143
0.03937007874
144
100.0
145
0.0
146
0.5
147
0.1
148
0.0
 69
0
 70
0
 71
0
 72
0
 73
0
 74
0
 75
0
 76
0
 77
1
 78
12
 79
3
170
0
171
3
172
0
173
0
174
0
175
0
176
0
177
0
178
0
179
2
271
2
272
2
273
2
274
3
275
0
276
0
277
2
278
46
279
1
280
0
281
0
282
0
283
0
284
8
285
0
286
0
288
1
289
3
290
0
340
4C
342
84
371
-2
372
-2
  0
DIMSTYLE
105
88
330
4
100
AcDbSymbolTableRecord
100
AcDbDimStyleTableRecord
  2
EZ_RADIUS_INSIDE
 70
0
 40
1.0
 41
0.25
 42
0.125
 43
3.75
 44
0.375
 45
0.0
 46
0.0
 47
0.0
 48
0.0
 49
2.5
140
0.25
141
0.0
142
0.0
143
0.03937007874
144
100.0
145
0.0
146
0.5
147
0.1
148
0.0
 69
0
 70
0
 71
0
 72
0
 73
0
 74
0
 75
0
 76
0
 77
0
 78
12
 79
3
170
0
171
3
172
0
173
0
174
1
175
0
176
0
177
0
178
0
179
2
271
2
272
2
273
2
274
3
275
0
276
0
277
2
278
46
279
0
280
0
281
0
282
0
283
0
284
8
285
0
286
0
288
1
289
0
290
0
340
4C
342
84
371
-2
372
-2
  0
DIMSTYLE
105
89
330
4
100
AcDbSymbolTableRecord
100
AcDbDimStyleTableRecord
  2
EZ_CURVED
 70
0
 40
1.0
 41
0.25
 42
0.125
 43
3.75
 44
0.375
 45
0.0
 46
0.0
 47
0.0
 48
0.0
 49
2.5
140
0.25
141
2.5
142
0.0
143
0.03937007874
144
100.0
145
0.0
146
0.5
147
0.1
148
0.0
 69
0
 70
0
 71
0
 72
0
 73
0
 74
0
 75
0
 76
0
 77
1
 78
12
 79
2
 90
2
170
0
171
3
172
1
173
0
174
0
175
0
176
0
177
0
178
0
179
2
271
2
272
2
273
2
274
3
275
0
276
0
277
2
278
46
279
2
280
0
281
0
282
0
283
0
284
8
285
0
286
0
288
1
289
3
290
0
340
4C
371
-2
372
-2
  0
ENDTAB
  0
TABLE
  2
BLOCK_RECORD
  5
9
330
0
100
AcDbSymbolTable
 70
5
  0
BLOCK_RECORD
  5
17
330
9
100
AcDbSymbolTableRecord
100
AcDbBlockTableRecord
  2
*Model_Space
340
1A
 70
0
280
1
281
0
  0
BLOCK_RECORD
  5
1B
330
9
100
AcDbSymbolTableRecord
100
AcDbBlockTableRecord
  2
*Paper_Space
340
1E
 70
0
280
1
281
0
  0
BLOCK_RECORD
  5
74
330
9
100
AcDbSymbolTableRecord
100
AcDbBlockTableRecord
  2
_ARCHTICK
340
0
 70
0
280
1
281
0
  0
BLOCK_RECORD
  5
78
330
9
100
AcDbSymbolTableRecord
100
AcDbBlockTableRecord
  2
_CLOSEDFILLED
340
0
 70
0
280
1
281
0
  0
BLOCK_RECORD
  5
84
330
9
100
AcDbSymbolTableRecord
100
AcDbBlockTableRecord
  2
_CLOSEDBLANK
340
0
 70
0
280
1
281
0
  0
ENDTAB
  0
ENDSEC
  0
SECTION
  2
BLOCKS
  0
BLOCK
  5
18
330
17
100
AcDbEntity
  8
0
100
AcDbBlockBegin
  2
*Model_Space
 70
0
 10
0.0
 20
0.0
 30
0.0
  3
*Model_Space
  1

  0
ENDBLK
  5
19
330
17
100
AcDbEntity
  8
0
100
AcDbBlockEnd
  0
BLOCK
  5
1C
330
1B
100
AcDbEntity
  8
0
100
AcDbBlockBegin
  2
*Paper_Space
 70
0
 10
0.0
 20
0.0
 30
0.0
  3
*Paper_Space
  1

  0
ENDBLK
  5
1D
330
1B
100
AcDbEntity
  8
0
100
AcDbBlockEnd
  0
BLOCK
  5
75
330
74
100
AcDbEntity
  8
0
100
AcDbBlockBegin
  2
_ARCHTICK
 70
0
 10
0.0
 20
0.0
 30
0.0
  3
_ARCHTICK
  1

  0
LWPOLYLINE
  5
77
330
74
100
AcDbEntity
  8
0
  6
BYBLOCK
 62
0
100
AcDbPolyline
 90
2
 70
0
 43
0.15
 10
-0.5
 20
-0.5
 10
0.5
 20
0.5
  0
ENDBLK
  5
76
330
74
100
AcDbEntity
  8
0
100
AcDbBlockEnd
  0
BLOCK
  5
79
330
78
100
AcDbEntity
  8
0
100
AcDbBlockBegin
  2
_CLOSEDFILLED
 70
0
 10
0.0
 20
0.0
 30
0.0
  3
_CLOSEDFILLED
  1

  0
SOLID
  5
7B
330
78
100
AcDbEntity
  8
0
  6
BYBLOCK
 62
0
100
AcDbTrace
 10
-1.0
 20
0.16439898372402537
 30
0.0
 11
0.0
 21
0.0
 31
0.0
 12
-1.0
 22
-0.16439898372402537
 32
0.0
 13
-1.0
 23
-0.16439898372402537
 33
0.0
  0
ENDBLK
  5
7A
330
78
100
AcDbEntity
  8
0
100
AcDbBlockEnd
  0
BLOCK
  5
85
330
84
100
AcDbEntity
  8
0
100
AcDbBlockBegin
  2
_CLOSEDBLANK
 70
0
 10
0.0
 20
0.0
 30
0.0
  3
_CLOSEDBLANK
  1

  0
LWPOLYLINE
  5
87
330
84
100
AcDbEntity
  8
0
  6
BYBLOCK
 62
0
100
AcDbPolyline
 90
3
 70
1
 10
-1.0
 20
0.16439898372402537
 10
0.0
 20
0.0
 10
-1.0
 20
-0.16439898372402537
  0
ENDBLK
  5
86
330
84
100
AcDbEntity
  8
0
100
AcDbBlockEnd
  0
ENDSEC
  0
SECTION
  2
ENTITIES
  0
LWPOLYLINE
  5
8A
330
17
100
AcDbEntity
  8
0
100
AcDbPolyline
 90
1200
 70
0
 43
550.0
 10
200.0
 20
0.0
 10
206.96036263912902
 20
4.338818334897126
 10
213.82363857598858
 20
8.969348938366796
 10
220.58065946803205
 20
13.889363794590507
 10
227.22230906535023
 20
19.096378777798698
 10
233.7395299170074
 20
24.587654885379017
 10
240.1233300479803
 20
30.36019963954956
 10
246.3647896025816
 20
36.410768656894156
 10
252.45506745026552
 20
42.73586738495802
 10
258.3854077497331
 20
49.33175300500437
 10
264.14714646727543
 20
56.194436499934284
 10
269.7317178453178
 20
63.31968488627531
 10
275.1306608171521
 20
70.70302360904768
 10
280.3356253638756
 20
78.33973909822053
 10
285.3383788095821
 20
86.22488148537576
 10
290.1308120508867
 20
94.35326747910212
 10
294.7049457168985
 20
102.71948339754832
 10
299.0529362557941
 20
111.31788835647086
 10
303.1670819441837
 20
120.14261761102067
 10
307.03982881550326
 20
129.1875860494204
 10
310.6637765037105
 20
138.44649183659467
 10
314.03168399860687
 20
147.9128202057265
 10
317.136475309158
 20
157.57984739562423
 10
319.97124503123246
 20
167.44064473169692
 10
322.52926381623433
 20
177.4880828482502
 10
324.8039837371545
 20
187.71483604972974
 10
326.7890435486266
 20
198.11338680845554
 10
328.4782738376286
 20
208.676030396311
 10
329.86570206153186
 20
219.39487964776507
 10
330.9455574702619
 20
230.2618698515317
 10
331.7122759093977
 20
241.26876376808983
 10
332.1605045011047
 20
252.40715677021151
 10
332.2851061998597
 20
263.66848210357125
 10
332.0811642200008
 20
275.0440162644372
 10
331.54398633220075
 20
286.52488449137115
 10
330.6691090260388
 20
298.1020663677959
 10
329.452301535919
 20
309.766401532221
 10
327.88956972765834
 20
321.5085954928493
 10
325.9771598431468
 20
333.3192255432235
 10
323.7115621005594
 20
345.18874677550957
 10
321.08951414768137
 20
357.1074981879499
 10
318.10800436598936
 20
369.06570888296426
 10
314.7642750232157
 20
381.05350435231577
 10
311.05582527220514
 20
393.0609128457053
 10
306.98041399396385
 20
405.0778718191036
 10
302.5360624828824
 20
417.0942344590824
 10
297.72105697220775
 20
429.0997762793496
 10
292.5339509979265
 20
441.08420178565484
 10
286.9735675993122
 20
453.0371512051796
 10
281.0390013544832
 20
464.9482072764877
 10
274.7296202494097
 20
476.8069020960693
 10
268.04506737890125
 20
488.6027240174712
 10
260.9852624782033
 20
500.325124598976
 10
253.55040328392448
 20
511.96352559574814
 10
245.74096672311637
 20
523.5073259923457
 10
237.55770992941962
 20
534.945909071453
 10
229.0016710852947
 20
546.268649514677
 10
220.07417008944853
 20
557.4649205312088
 10
210.77680904867128
 20
568.524101010145
 10
201.1114725933961
 20
579.4355826922294
 10
191.08032801639547
 20
590.1887773567671
 10
180.6858252341279
 20
600.7731240194419
 10
169.9306965703509
 20
611.1780961367548
 10
158.81795636171822
 20
621.3932088127957
 10
147.3509003851782
 20
631.4080260040431
 10
135.53310510709724
 20
641.2121677178859
 10
123.36842675413065
 20
650.7953172005589
 10
110.8610002059661
 20
660.1472281101763
 10
98.01523771017064
 20
669.2577316705524
 10
84.83582741946911
 20
678.1167438015032
 10
71.32773175189091
 20
686.7142722213234
 10
57.49618557431864
 20
695.0404235171463
 10
43.34669421007806
 20
703.0854101789021
 10
28.885031271308943
 20
710.839557592602
 10
14.117236316959994
 20
718.2933109886949
 10
-0.9503876626510486
 20
725.4372423412581
 10
-16.311276933664754
 20
732.2620572138
 10
-31.95860987775167
 20
738.7586015474856
 10
-47.885310021182306
 20
744.9178683876089
 10
-64.08404923255085
 20
750.7310045441708
 10
-80.54725108770764
 20
756.1893171824478
 10
-97.26709440036076
 20
761.2842803394697
 10
-114.23551691670359
 20
766.0075413623574
 10
-131.4442191723338
 20
770.3509272645097
 10
-148.88466850963022
 20
774.3064509956657
 10
-166.54810325365983
 20
777.8663176219115
 10
-184.42553704459132
 20
781.0229304117415
 10
-202.50776332450224
 20
783.7688968243317
 10
-220.78535997636868
 20
786.09703439623
 10
-239.24869411294011
 20
788.0003765227158
 10
-257.88792701310996
 20
789.4721781301378
 10
-276.6930192033035
 20
790.505921235587
 10
-295.65373568131633
 20
791.0953203903272
 10
-314.7596512799538
 20
791.2343280034487
 10
-334.0001561677303
 20
790.9171395422918
 10
-353.36446148381003
 20
790.1381986062285
 10
-372.84160510428467
 20
788.8922018704683
 10
-392.4204575368044
 20
787.1741038966182
 10
-412.08972794049623
 20
784.9791218067886
 10
-431.8379702680344
 20
782.3027398181163
 10
-451.65358952663456
 20
779.1407136346414
 10
-471.52484815469114
 20
775.4890746935506
 10
-491.4398725106868
 20
771.344134262874
 10
-511.3866594709356
 20
766.7024873878042
 10
-531.3530831326619
 20
761.5610166828764
 10
-551.3269016188328
 20
755.9168959673411
 10
-571.2957639811137
 20
749.7675937411304
 10
-591.2472171972399
 20
743.1108764989137
 10
-611.168713259037
 20
735.9448118798164
 10
-631.0476163472746
 20
728.267771650467
 10
-650.8712100894594
 20
720.078434519124
 10
-670.6267048966404
 20
711.3757887787206
 10
-690.3012453752235
 20
702.1591347767667
 10
-709.8819178097609
 20
692.4280872101268
 10
-729.3557577126152
 20
682.1825772427939
 10
-748.7097574363573
 20
671.4228544448761
 10
-767.9308738447187
 20
660.1494885511003
 10
-787.0060360378554
 20
648.3633710372446
 10
-805.9221531276669
 20
636.0657165129995
 10
-824.6661220588528
 20
623.2580639298645
 10
-843.2248354713604
 20
609.9422776027855
 10
-861.5851895998528
 20
596.1205480443331
 10
-879.7340922057726
 20
581.7953926103369
 10
-897.658470537577
 20
566.9696559559746
 10
-915.3452793146604
 20
551.6465103014434
 10
-932.781508730482
 20
535.8294555064152
 10
-949.9541924703877
 20
519.5223189526107
 10
-966.8504157395774
 20
502.729255233915
 10
-983.4573232966833
 20
485.45474565356506
 10
-999.7621274883788
 20
467.7035975280553
 10
-1015.7521162804525
 20
449.4809432975039
 10
-1031.4146612807467
 20
430.79223944233155
 10
-1046.7372257493703
 20
411.6432652062214
 10
-1061.7073725915882
 20
392.0401211254189
 10
-1076.312772328774
 20
371.9892273645591
 10
-1090.5412110428326
 20
351.497321859296
 10
-1104.3805982894885
 20
330.571458266132
 10
-1117.8189749758378
 20
309.21900371995184
 10
-1130.8445211975877
 20
287.4476363998584
 10
-1143.4455640313922
 20
265.2653429040424
 10
-1155.6105852777298
 20
242.68041543449473
 10
-1167.3282291497642
 20
219.70144879250853
 10
-1178.5873099036596
 20
196.33733718599882
 10
-1189.3768194058382
 20
172.5972708497901
 10
-1199.6859346326833
 20
148.49073248013025
 10
-1209.5040250982331
 20
124.02749348477741
 10
-1218.8206602054192
 20
99.2176100501393
 10
-1227.625616516443
 20
74.0714190270216
 10
-1235.9088849379216
 20
48.59953363666533
 10
-1243.660677816454
 20
22.812838998855664
 10
-1250.8714359403114
 20
-3.277512516030166
 10
-1257.5318354429824
 20
-29.660106109035997
 10
-1263.6327946043605
 20
-56.32326954663419
 10
-1269.1654805453884
 20
-83.25507832452529
 10
-1274.1213158120345
 20
-110.44336099895956
 10
-1278.4919848445218
 20
-137.87570468319194
 10
-1282.2694403277753
 20
-165.53946070658432
 10
-1285.4459094191207
 20
-193.42175043379285
 10
-1288.013899849305
 20
-221.50947124135132
 10
-1289.9662058929907
 20
-249.78930264889925
 10
-1291.2959142049122
 20
-278.2477126021909
 10
-1291.996409517963
 20
-306.87096390492883
 10
-1292.0613801995414
 20
-335.64512079639826
 10
-1291.4848236625455
 20
-364.5560556717557
 10
-1290.261051627485
 20
-393.58945594177106
 10
-1288.3846952322422
 20
-422.7308310287184
 10
-1285.8507099860913
 20
-451.9655194950223
 10
-1282.6543805646584
 20
-481.27869630121046
 10
-1278.7913254425828
 20
-510.65538018960433
 10
-1274.257501360719
 20
-540.080441190142
 10
-1269.049207624801
 20
-569.5386082446099
 10
-1263.163090232569
 20
-599.0144769455216
 10
-1256.5961458264499
 20
-628.4925173857818
 10
-1249.3457254689624
 20
-657.9570821152087
 10
-1241.4095382381117
 20
-687.392414199935
 10
-1232.7856546401244
 20
-716.7826553806066
 10
-1223.4725098369663
 20
-746.1118543252691
 10
-1213.46890668618
 20
-775.3639749727447
 10
-1202.7740185906762
 20
-804.5229049622396
 10
-1191.3873921561994
 20
-833.5724641448882
 10
-1179.3089496542975
 20
-862.496413172843
 10
-1166.5389912887172
 20
-891.2784621615085
 10
-1153.0781972632467
 20
-919.9022794204219
 10
-1138.9276296491362
 20
-948.3515002482679
 10
-1124.088734050312
 20
-976.6097357874471
 10
-1108.5633410647356
 20
-1004.6605819335693
 10
-1092.3536675403204
 20
-1032.487628295222
 10
-1075.462317623973
 20
-1060.0744671992888
 10
-1057.8922836023885
 20
-1087.4047027370882
 10
-1039.6469465333728
 20
-1114.461959846545
 10
-1020.730076666555
 20
-1141.2298934255705
 10
-1001.1458336524615
 20
-1167.692197471824
 10
-980.8987665390523
 20
-1193.8326142439578
 10
-959.9938135549081
 20
-1219.6349434394563
 10
-938.4363016783874
 20
-1245.0830513841408
 10
-916.2319459921766
 20
-1270.1608802283906
 10
-893.3868488227721
 20
-1294.8524571451114
 10
-869.9074986645446
 20
-1319.141903524478
 10
-845.8007688881631
 20
-1343.0134441604373
 10
-821.0739162332467
 20
-1366.4514164239847
 10
-795.7345790852515
 20
-1389.4402794181854
 10
-769.7907755367053
 20
-1411.9646231099227
 10
-743.2509012330096
 20
-1434.0091774333507
 10
-716.123727003176
 20
-1455.5588213600204
 10
-688.4183962759295
 20
-1476.5985919306677
 10
-660.1444222817786
 20
-1497.113693243636
 10
-631.3116850417362
 20
-1517.0895053949262
 10
-601.9304281434977
 20
-1536.5115933648815
 10
-572.0112553060177
 20
-1555.3657158465032
 10
-541.565126733505
 20
-1573.6378340104472
 10
-510.6033552600075
 20
-1591.3141202017334
 10
-479.1376022858569
 20
-1608.3809665632411
 10
-447.17987350735103
 20
-1624.824993581085
 10
-414.742514441196
 20
-1640.6330585469818
 10
-381.83820574529545
 20
-1655.7922639327605
 10
-348.4799583376389
 20
-1670.289965672194
 10
-314.68110831511285
 20
-1684.1137813453643
 10
-280.4553116742101
 20
-1697.2515982608015
 10
-245.8165388356745
 20
-1709.691581430702
 10
-210.77906897527728
 20
-1721.4221814345397
 10
-175.3574841630026
 20
-1732.4321421664545
 10
-139.5666633130286
 20
-1742.7105084618381
 10
-103.42177594702754
 20
-1752.246633598582
 10
-66.93827577336354
 20
-1761.0301866685213
 10
-30.131894084923914
 20
-1769.0511598146438
 10
6.9813670216049
 20
-1776.2998753297038
 10
44.38524160210314
 20
-1782.7669926119322
 10
82.06320699397793
 20
-1788.4435149735982
 10
119.9984911146249
 20
-1793.3207962982474
 10
158.17407992614403
 20
-1797.390547542499
 10
196.5727250629954
 20
-1800.6448430783569
 10
235.176951619185
 20
-1803.0761268720669
 10
273.96906609144315
 20
-1804.6772184956146
 10
312.9311644748215
 20
-1805.4413189670458
 10
352.04514050698555
 20
-1805.362016415856
 10
391.29269405742275
 20
-1804.433291569792
 10
430.65533965769845
 20
-1802.6495230594744
 10
470.1144151687709
 20
-1800.0054925373474
 10
509.65109058135096
 20
-1796.4963896075376
 10
549.2463769451516
 20
-1792.117816563301
 10
588.8811354228226
 20
-1786.865792928823
 10
628.536086464291
 20
-1780.7367598022292
 10
668.1918190971126
 20
-1773.7275839967572
 10
707.8288003284263
 20
-1765.8355619771398
 10
747.4273846539725
 20
-1757.058423588347
 10
786.9678236696066
 20
-1747.3943355739254
 10
826.43027578063
 20
-1736.8419048812905
 10
865.794816004252
 20
-1725.400181751413
 10
905.0414458603724
 20
-1713.0686625904596
 10
944.1501033458507
 20
-1699.8472926210457
 10
983.1006729873644
 20
-1685.7364683108622
 10
1021.8729959678712
 20
-1670.7370395765665
 10
1060.4468803216919
 20
-1654.8503117609087
 10
1098.8021111931232
 20
-1638.0780473812015
 10
1136.9184611534731
 20
-1620.4224676473445
 10
1174.7757005713586
 20
-1601.886253747721
 10
1212.3536080310398
 20
-1582.4725479014242
 10
1249.6319807935683
 20
-1562.1849541753515
 10
1286.5906452954398
 20
-1541.0275390648578
 10
1323.2094676794293
 20
-1519.0048318367524
 10
1359.4683643522635
 20
-1496.1218246335554
 10
1395.34731256371
 20
-1472.383972338057
 10
1430.8263610017
 20
-1447.797192197315
 10
1465.8856403980135
 20
-1422.3678632053889
 10
1500.5053741390661
 20
-1396.1028252441956
 10
1534.6658888763209
 20
-1369.0093779820172
 10
1568.3476251307914
 20
-1341.0952795293135
 10
1601.5311478861468
 20
-1312.3687448515952
 10
1634.1971571648671
 20
-1282.8384439392717
 10
1666.3264985819117
 20
-1252.5134997344876
 10
1697.9001738703555
 20
-1221.40348581509
 10
1728.899351373431
 20
-1189.5184238360252
 10
1759.3053764974425
 20
-1156.868780728528
 10
1789.0997821199799
 20
-1123.4654656576622
 10
1818.2642989479161
 20
-1089.3198267388461
 10
1846.780865819611
 20
-1054.4436475141579
 10
1874.631639945837
 20
-1018.8491431893083
 10
1901.7990070838891
 20
-982.5489566323284
 10
1928.2655916393896
 20
-945.5561541351233
 10
1954.0142666903132
 20
-907.8842209391684
 10
1979.0281639277725
 20
-869.5470565267841
 10
2003.2906835081428
 20
-830.5589696794865
 10
2026.7855038111206
 20
-790.9346733051019
 10
2049.4965910983447
 20
-750.6892790354175
 10
2071.4082090672446
 20
-709.8382915962669
 10
2092.5049282948194
 20
-668.3976029521109
 10
2112.771635566076
 20
-626.3834862272212
 10
2132.193543081924
 20
-583.812589405779
 10
2150.756197541339
 20
-540.7019288132659
 10
2168.4454890926777
 20
-497.06888238165396
 10
2185.24766014906
 20
-452.9311827010585
 10
2201.149314062805
 20
-408.3069098605647
 10
2216.137423653951
 20
-363.214484081125
 10
2230.1993395879435
 20
-317.6726581435016
 10
2243.3227985976664
 20
-271.70050961434197
 10
2255.495931544995
 20
-225.3174328736267
 10
2266.7072713171992
 20
-178.5431309467764
 10
2276.9457605535144
 20
-131.39760714487704
 10
2286.200759197322
 20
-83.90115651655881
 10
2294.4620518694337
 20
-36.07435711516742
 10
2301.719855058047
 20
12.061938914985701
 10
2307.964824121043
 20
60.48661442947407
 10
2313.1880600963405
 20
109.1782965477127
 10
2317.3811163161477
 20
158.11536608598078
 10
2320.536004820993
 20
207.27596715531408
 10
2322.64520256956
 20
256.6380169200483
 10
2323.7016574403747
 20
306.17921551262583
 10
2323.6987940215613
 20
355.87705610022704
 10
2322.630519184909
 20
405.7088350986956
 10
2320.491227440643
 20
455.65166252909546
 10
2317.2758060693523
 20
505.68247251222357
 10
2312.979640027669
 20
555.7780338962452
 10
2307.5986166243515
 20
605.9149610125733
 10
2301.129129963567
 20
656.0697245550381
 10
2293.568085152263
 20
706.2186625772692
 10
2284.9129022686266
 20
756.3379916032101
 10
2275.161520088728
 20
806.403817845538
 10
2264.312399568597
 20
856.3921485267347
 10
2252.3645270790425
 20
906.2789032974802
 10
2239.3174173906987
 20
956.0399257469384
 10
2225.17111640684
 20
1005.6509949995091
 10
2209.9262036416826
 20
1055.0878373924884
 10
2193.5837944419723
 20
1104.3261382290616
 10
2176.1455419497966
 20
1153.3415536009984
 10
2157.6136388046875
 20
1202.109722275321
 10
2137.990818583186
 20
1250.606277639246
 10
2117.280356974201
 20
1298.806859697569
 10
2095.486072688579
 20
1346.687127116669
 10
2072.61232810147
 20
1394.222769309259
 10
2048.6640296261817
 20
1441.3895185539322
 10
2023.6466278183532
 20
1488.1631621435893
 10
1997.5661172094021
 20
1534.5195545567187
 10
1970.429035868351
 20
1580.4346296455446
 10
1942.242464691254
 20
1625.884412834943
 10
1913.0140264175875
 20
1670.845033326113
 10
1882.7518843730984
 20
1715.292736298859
 10
1851.4647409387535
 20
1759.2038951063948
 10
1819.1618357455409
 20
1802.5550234565364
 10
1785.85294359506
 20
1845.322787573121
 10
1751.5483721059059
 20
1887.4840183315316
 10
1716.2589590860625
 20
1929.0157233621417
 10
1679.9960696316039
 20
1969.895099115528
 10
1642.7715929521632
 20
2010.0995428832932
 10
1604.5979389237832
 20
2049.606664768313
 10
1565.4880343698514
 20
2088.3942995982857
 10
1525.455319071018
 20
2126.4405187764164
 10
1484.513741505098
 20
2163.723642063103
 10
1442.6777543180974
 20
2200.222249282515
 10
1399.9623095276781
 20
2235.915191947944
 10
1356.3828534604497
 20
2270.781604799867
 10
1311.9553214246796
 20
2304.800917250654
 10
1266.6961321201086
 20
2337.9528647298876
 10
1220.6221817867024
 20
2370.217499924316
 10
1173.750838094335
 20
2401.5752039064378
 10
1126.0999337754788
 20
2432.0066971458346
 10
1077.6877600031683
 20
2461.493050397326
 10
1028.533059516607
 20
2490.0156954601243
 10
978.6550194969151
 20
2517.5564358021766
 10
928.0732641956928
 20
2544.097457043942
 10
876.80784731913
 20
2569.6213372959164
 10
824.8792441706
 20
2594.111057344247
 10
772.3083435547468
 20
2617.5500106788572
 10
719.1164394462586
 20
2639.9220133585463
 10
665.3252224265756
 20
2661.2113137076135
 10
610.956770891979
 20
2681.4026018386003
 10
556.033542036586
 20
2700.481018995827
 10
500.5783626139036
 20
2718.43216671447
 10
444.61441948075753
 20
2735.2421157899917
 10
388.16524992745303
 20
2750.8974150528375
 10
331.2547317982236
 20
2765.3850999433594
 10
273.90707340609305
 20
2778.69270088204
 10
216.14680324639284
 20
2790.80825143016
 10
157.99875951333584
 20
2801.7202962361466
 10
99.48807942407535
 20
2811.4178987629284
 10
40.64018835487223
 20
2819.8906487917225
 10
-18.51921120594797
 20
2827.1286696977595
 10
-77.96415088346133
 20
2833.1226254935837
 10
-137.66840781509538
 20
2837.863727635621
 10
-197.60551621810848
 20
2841.3437415898547
 10
-257.74877912045946
 20
2843.5549931525284
 10
-318.0712802498793
 20
2844.49037452191
 10
-378.5458960758658
 20
2844.143350117266
 10
-439.14530799917344
 20
2842.5079621413092
 10
-499.84201468338915
 20
2839.578835882479
 10
-560.6083445229564
 20
2835.3511847535588
 10
-621.4164682420662
 20
2829.820815063244
 10
-682.2384116186436
 20
2822.984130517369
 10
-743.0460683276387
 20
2814.838136446676
 10
-803.8112128977319
 20
2805.3804437580798
 10
-864.505513775495
 20
2794.6092726065563
 10
-925.1005464909763
 20
2782.5234557848703
 10
-985.5678069186087
 20
2769.122441828521
 10
-1045.8787246272746
 20
2754.4062978333977
 10
-1106.0046763133225
 20
2738.375711983767
 10
-1165.9169993101766
 20
2721.031995788381
 10
-1225.5870051682928
 20
2702.3770860225814
 10
-1284.985993298982
 20
2682.413546374454
 10
-1344.0852646756862
 20
2661.1445687932155
 10
-1402.856135586198
 20
2638.5739745381434
 10
-1461.2699514292806
 20
2614.70621492652
 10
-1519.2981005491026
 20
2589.5463717791886
 10
-1576.912028100857
 20
2563.1001575624805
 10
-1634.083249940931
 20
2535.373915225381
 10
-1690.783366534866
 20
2506.374617731031
 10
-1746.984076876473
 20
2476.109867281677
 10
-1802.6571924112905
 20
2444.5878942364657
 10
-1857.7746509576384
 20
2411.8175557215336
 10
-1912.3085306184703
 20
2377.8083339320383
 10
-1966.23106367722
 20
2342.5703341259073
 10
-2019.514650470819
 20
2306.114282309239
 10
-2072.131873233057
 20
2268.4515226134404
 10
-2124.0555099014414
 20
2229.5940143643343
 10
-2175.258547880745
 20
2189.5543288436093
 10
-2225.714197756335
 20
2148.3456457431926
 10
-2275.3959069505377
 20
2105.9817493131686
 10
-2324.2773733151375
 20
2062.4770242041427
 10
-2372.3325586532324
 20
2017.8464510050076
 10
-2419.5357021636164
 20
1972.1056014772748
 10
-2465.8613338009222
 20
1925.2706334872569
 10
-2511.284287544742
 20
1877.358285637553
 10
-2555.779714570989
 20
1828.3858715994331
 10
-2599.3230963187857
 20
1778.3712741478773
 10
-2641.8902574461986
 20
1727.332938901141
 10
-2683.457378668134
 20
1675.2898677669584
 10
-2724.001009469841
 20
1622.2616120975047
 10
-2763.4980806893914
 20
1568.268265555516
 10
-2801.9259169626393
 20
1513.3304566940442
 10
-2839.262249024165
 20
1457.4693412524928
 10
-2875.4852258577753
 20
1400.7065941717142
 10
-2910.573426690182
 20
1343.0644013311105
 10
-2944.505872821532
 20
1284.565451010811
 10
-2977.2620392865533
 20
1225.232925082121
 10
-3008.821866340059
 20
1165.0904899296777
 10
-3039.165770760765
 20
1104.162287108714
 10
-3068.274656967283
 20
1042.472923741146
 10
-3096.1299279403515
 20
980.0474626542352
 10
-3122.7134959453642
 20
916.9114122657445
 10
-3148.007793049379
 20
853.090716219636
 10
-3171.9957814268555
 20
788.611742776498
 10
-3194.6609634484503
 20
723.5012739630125
 10
-3215.987391547296
 20
657.7864944849155
 10
-3235.9596778572927
 20
591.4949804079861
 10
-3254.5630036179873
 20
524.6546876118513
 10
-3271.7831283407895
 20
457.2939400213137
 10
-3287.6063987312973
 20
389.44141762023105
 10
-3302.019757362655
 20
321.12614425298125
 10
-3315.0107510949597
 20
252.37747521869957
 10
-3326.567539235826
 20
183.22508466358587
 10
-3336.6789014373603
 20
113.69895277669595
 10
-3345.3342453248742
 20
43.829352794738
 10
-3352.5236138528044
 20
-26.353162178486585
 10
-3358.2376923834336
 20
-96.81777253229639
 10
-3362.4678154840885
 20
-167.53340568306555
 10
-3365.2059734386626
 20
-238.46874977605762
 10
-3366.4448184694043
 20
-309.5922675490266
 10
-3366.1776706650503
 20
-380.8722103514825
 10
-3364.3985236115172
 20
-452.2766323133856
 10
-3361.102049721487
 20
-523.7734046569462
 10
-3356.2836052593666
 20
-595.3302301451209
 10
-3349.939235058235
 20
-666.9146576603072
 10
-3342.065676925528
 20
-738.4940969066926
 10
-3332.660365734349
 20
-810.0358332295172
 10
-3321.7214371974515
 20
-881.5070425446368
 10
-3309.2477313210575
 20
-952.8748063714922
 10
-3295.238795535847
 20
-1024.106126962649
 10
-3279.6948875025914
 20
-1095.1679425229613
 10
-3262.616977590041
 20
-1166.027142511353
 10
-3244.006751022862
 20
-1236.650583018159
 10
-3223.8666096975157
 20
-1307.005102210897
 10
-3202.1996736641986
 20
-1377.0575358412982
 10
-3179.0097822730336
 20
-1446.7747328064004
 10
-3154.3014949829526
 20
-1516.1235707563487
 10
-3128.0800918317636
 20
-1585.0709717416996
 10
-3100.3515735661595
 20
-1653.5839178927936
 10
-3071.122661430497
 20
-1721.6294671238281
 10
-3040.400796613401
 20
-1789.1747688542102
 10
-3008.1941393513594
 20
-1856.1870797397244
 10
-2974.5115676886803
 20
-1922.6337794060355
 10
-2939.3626758933124
 20
-1988.4823861770312
 10
-2902.7577725282117
 20
-2053.700572790458
 10
-2864.7078781780874
 20
-2118.2561820933597
 10
-2825.2247228315705
 20
-2182.1172427096762
 10
-2784.3207429189188
 20
-2245.251984672553
 10
-2742.0090780056494
 20
-2307.62885501372
 10
-2698.303567142577
 20
-2369.2165333023945
 10
-2653.218744872938
 20
-2429.983947126157
 10
-2606.7698368974307
 20
-2489.900287506226
 10
-2558.972755398184
 20
-2548.935024239594
 10
-2509.8440940228193
 20
-2607.0579211604786
 10
-2459.4011225299255
 20
-2664.239051313611
 10
-2407.6617810975004
 20
-2720.4488120317806
 10
-2354.6446742959592
 20
-2775.657939910271
 10
-2300.3690647275835
 20
-2829.8375256706627
 10
-2244.8548663344086
 20
-2882.9590289066255
 10
-2188.1226373766904
 20
-2934.9942927043153
 10
-2130.193573084298
 20
-2985.9155581300392
 10
-2071.0894979835084
 20
-3035.695478577893
 10
-2010.8328579018619
 20
-3084.3071339701196
 10
-1949.4467116538885
 20
-3131.724044802991
 10
-1886.954722410654
 20
-3177.9201860310854
 10
-1823.381148756334
 20
-3222.8700007828165
 10
-1758.750835434999
 20
-3266.548413900259
 10
-1693.0892037911449
 20
-3308.9308452962578
 10
-1626.4222419075318
 20
-3349.9932231219336
 10
-1558.776494444104
 20
-3389.7119967377675
 10
-1490.1790521818975
 20
-3428.0641494815072
 10
-1420.6575412760023
 20
-3465.027211226223
 10
-1350.240112221791
 20
-3500.57927072192
 10
-1278.9554285387821
 20
-3534.698987714201
 10
-1206.8326551766186
 20
-3567.365604833571
 10
-1133.9014466478939
 20
-3598.558959249022
 10
-1060.191934892515
 20
-3628.259494079707
 10
-985.7347168786276
 20
-3656.448269558546
 10
-910.5608419451418
 20
-3683.106973941724
 10
-834.7017988910902
 20
-3708.217934158164
 10
-758.1895028171588
 20
-3731.7641261931503
 10
-681.0562817248824
 20
-3753.7291852003714
 10
-603.3348628791234
 20
-3774.0974153368156
 10
-525.0583589395357
 20
-3792.8537993150085
 10
-446.26025386698393
 20
-3809.9840076672294
 10
-366.9743886107795
 20
-3825.474407716491
 10
-287.2349465829405
 20
-3839.3120722491335
 10
-207.07643892567384
 20
-3851.484787884067
 10
-126.5336895784283
 20
-3861.981063133789
 10
-45.64182015098136
 20
-3870.790136152457
 10
35.56376539087159
 20
-3877.901982166431
 10
117.04739622034793
 20
-3883.307320582821
 10
198.7731503186401
 20
-3886.9976217717453
 10
280.70487031096815
 20
-3888.9651135181116
 10
362.80617946263754
 20
-3889.2027871389187
 10
445.04049782816435
 20
-3887.704403262182
 10
527.3710585461954
 20
-3884.464497263785
 10
609.7609242730077
 20
-3879.4783843586492
 10
692.1730037472372
 20
-3872.74216434284
 10
774.5700684784111
 20
-3864.2527259833164
 10
856.9147695517787
 20
-3854.0077510522333
 10
939.169654541863
 20
-3842.0057180028566
 10
1021.297184527069
 20
-3828.2459052842974
 10
1103.2597511976744
 20
-3812.728394292447
 10
1185.0196940493076
 20
-3795.454071954677
 10
1266.539317654204
 20
-3776.424632945988
 10
1347.7809090022338
 20
-3755.642581534513
 10
1428.7067549037752
 20
-3733.1112330544147
 10
1509.2791594464181
 20
-3708.8347150044024
 10
1589.46046149744
 20
-3682.8179677702633
 10
1669.2130522439445
 20
-3655.066744969974
 10
1748.4993927625221
 20
-3625.5876134201417
 10
1827.282031610285
 20
-3594.3879527226763
 10
1905.5236224289727
 20
-3561.475954470824
 10
1983.1869415540157
 20
-3526.8606210737953
 10
2060.2349056201997
 20
-3490.5517641994616
 10
2136.6305891556754
 20
-3452.5600028347485
 10
2212.337242156021
 20
-3412.8967609635347
 10
2287.3183076300247
 20
-3371.574264862044
 10
2361.537439108876
 20
-3328.6055400119053
 10
2434.9585181104353
 20
-3284.004407631232
 10
2507.545671550239
 20
-3237.785480824259
 10
2579.263289090959
 20
-3189.9641603502278
 10
2650.0760404218936
 20
-3140.556630012474
 10
2719.948892460318
 20
-3089.5798516687287
 10
2788.847126466284
 20
-3037.05155986393
 10
2856.736355062658
 20
-2982.990256086991
 10
2923.5825391521107
 20
-2927.4152026531306
 10
2989.352004722851
 20
-2870.3464162135783
 10
3054.011459534891
 20
-2811.8046608946424
 10
3117.5280096787005
 20
-2751.811441068298
 10
3179.8691759980916
 20
-2690.388993756647
 10
3241.0029103693214
 20
-2627.56028067275
 10
3300.897611828266
 20
-2563.348979900599
 10
3359.5221425378018
 20
-2497.7794772170078
 10
3416.8458435873804
 20
-2430.8768570585526
 10
3472.838550616966
 20
-2362.666893136775
 10
3527.4706092574993
 20
-2293.1760387050294
 10
3580.712890380159
 20
-2222.431416480581
 10
3632.536805146746
 20
-2150.4608082256877
 10
3682.9143198535653
 20
-2077.292643991587
 10
3731.8179705613375
 20
-2002.9559910294608
 10
3779.2208775035956
 20
-1927.4805423727025
 10
3825.0967592663255
 20
-1850.8966050948022
 10
3869.4199467314934
 20
-1773.235088247517
 10
3912.165396777315
 20
-1694.5274904840485
 10
3953.308705728183
 20
-1614.8058873721345
 10
3992.826122547254
 20
-1534.1029184021238
 10
4030.6945617648275
 20
-1452.4517736952662
 10
4066.891616135739
 20
-1369.8861804175863
 10
4101.395569019082
 20
-1286.440388904884
 10
4134.185406473763
 20
-1202.1491585045076
 10
4165.240829063345
 20
-1117.0477431398194
 10
4194.542263363996
 20
-1031.1718766032047
 10
4222.070873169246
 20
-944.5577575838356
 10
4247.80857038553
 20
-857.2420344364132
 10
4271.738025612574
 20
-769.2617896972857
 10
4293.8426784028115
 20
-680.6545243544792
 10
4314.106747194165
 20
-591.4581418783023
 10
4332.515238910661
 20
-501.71093201931734
 10
4349.0539582254805
 20
-411.4515543806088
 10
4363.709516481229
 20
-320.7190217713447
 10
4376.469340262278
 20
-229.55268334891204
 10
4387.32167961427
 20
-137.9922075567539
 10
4396.255615905983
 20
-46.07756486542271
 10
4403.261069328908
 20
46.15098967569072
 10
4408.328806030055
 20
138.65293406832666
 10
4411.45044487367
 20
231.38749716930403
 10
4412.618463827708
 20
324.3136766606232
 10
4411.82620597107
 20
417.3902571777965
 10
4409.067885117748
 20
510.5758285884384
 10
4404.338591054269
 20
603.828804412891
 10
4397.6342943869195
 20
697.1074403788513
 10
4388.951850995434
 20
790.3698531016032
 10
4378.289006090047
 20
883.5740388815477
 10
4365.644397868914
 20
976.6778926105865
 10
4351.017560773134
 20
1069.6392267788597
 10
4334.408928336797
 20
1162.4157905732586
 10
4315.8198356296
 20
1254.9652890590776
 10
4295.252521289848
 20
1347.245402436098
 10
4272.7101291457575
 20
1439.2138053603928
 10
4248.1967094232305
 20
1530.8281863229295
 10
4221.717219538422
 20
1622.0462670762656
 10
4193.277524473609
 20
1712.8258221003166
 10
4162.88439673511
 20
1803.1246980983046
 10
4130.545515892119
 20
1892.900833513893
 10
4096.269467695572
 20
1982.1122780604985
 10
4060.065742776346
 20
2070.7172122537354
 10
4021.9447349222587
 20
2158.6739669379344
 10
3981.9177389335605
 20
2245.941042797631
 10
3939.996948056785
 20
2332.477129844976
 10
3896.1954509970715
 20
2418.24112687384
 10
3850.5272285091687
 20
2503.1921608716434
 10
3803.007149567646
 20
2587.2896063796697
 10
3753.6509671169397
 20
2670.4931047927903
 10
3702.475313402124
 20
2752.7625835894773
 10
3649.4976948814565
 20
2834.058275482994
 10
3594.7364867219517
 20
2914.340737484669
 10
3538.210926879467
 20
2993.570869870176
 10
3479.941109764902
 20
3071.7099350398103
 10
3419.947979498451
 20
3148.7195762636197
 10
3358.253322753856
 20
3224.5618363025596
 10
3294.8797611949776
 20
3299.1991758965796
 10
3229.850743507095
 20
3372.594492110788
 10
3163.190537025579
 20
3444.711136530803
 10
3094.924218964759
 20
3515.5129332984625
 10
3025.0776672500165
 20
3584.9641969791237
 10
2953.6775509563195
 20
3653.029750251835
 10
2880.7513203565936
 20
3719.674941413711
 10
2806.327196583522
 20
3784.865661689964
 10
2730.4341609086146
 20
3848.568362340978
 10
2653.101943642428
 20
3910.750071558096
 10
2574.3610126601684
 20
3971.3784111396585
 10
2494.2425615569864
 20
4030.4216129390456
 10
2412.7784974375118
 20
4087.8485350765054
 10
2330.001428344313
 20
4143.628677906668
 10
2245.9446503301842
 20
4197.732199733708
 10
2160.6421341793275
 20
4250.129932266256
 10
2074.1285117826646
 20
4300.793395804211
 10
1986.4390621726616
 20
4349.694814149785
 10
1897.6096972233584
 20
4396.807129235099
 10
1807.6769470212068
 20
4442.104015458926
 10
1716.677944912761
 20
4485.559893725147
 10
1624.6504122352542
 20
4527.149945175688
 10
1531.6326427363188
 20
4566.850124610799
 10
1437.663486689266
 20
4604.637173589683
 10
1342.7823347104836
 20
4640.488633204603
 10
1247.0291012856853
 20
4674.382856521718
 10
1150.4442080118306
 20
4706.299020682085
 10
1053.0685665618612
 20
4736.217138656313
 10
954.9435613792585
 20
4764.118070646632
 10
856.111032109848
 20
4789.983535130166
 10
756.6132557782562
 20
4813.796119537408
 10
656.4929287166103
 20
4835.539290560061
 10
555.793148253201
 20
4855.197404082533
 10
454.55739416895574
 20
4872.75571473155
 10
352.829509929697
 20
4888.200385038531
 10
250.65368370229558
 20
4901.51849420949
 10
148.07442916288107
 20
4912.6980464974795
 10
45.136566105577
 20
4921.727979172646
 10
-58.11479913996795
 20
4928.5981700852735
 10
-161.63429347356615
 20
4933.299444817266
 10
-265.3762969633863
 20
4935.823583417748
 10
-369.294962949987
 20
4936.163326718645
 10
-473.3442383066288
 20
4934.312382226267
 10
-577.4778838469133
 20
4930.265429585124
 10
-681.6494948707032
 20
4924.018125610394
 10
-785.8125218391905
 20
4915.56710888564
 10
-889.9202911699532
 20
4904.9100039225705
 10
-993.9260261425817
 20
4892.045424879864
 10
-1097.7828679056906
 20
4876.972978838199
 10
-1201.443896575755
 20
4859.693268628934
 10
-1304.8621524183272
 20
4840.207895213981
 10
-1407.9906571020756
 20
4818.519459614705
 10
-1510.7824350160254
 20
4794.631564387808
 10
-1613.190534640345
 20
4768.548814646428
 10
-1715.1680499609602
 20
4740.276818624849
 10
-1816.6681419182835
 20
4709.822187785421
 10
-1917.6440598801455
 20
4677.192536466559
 10
-2018.0491631292757
 20
4642.396481070789
 10
-2117.8369423553345
 20
4605.443638792151
 10
-2216.9610411416797
 20
4566.344625882356
 10
-2315.375277436946
 20
4525.111055455411
 10
-2413.0336650015242
 20
4481.755534830559
 10
-2509.89043481901
 20
4436.291662413649
 10
-2605.9000564626763
 20
4388.7340241172205
 10
-2701.0172594070327
 20
4339.098189319856
 10
-2795.197054274576
 20
4287.400706365479
 10
-2888.39475400768
 20
4233.6590976036405
 10
-2980.565994955864
 20
4177.891853971849
 10
-3071.666757868427
 20
4120.118429121398
 10
-3161.6533887825954
 20
4060.359233088261
 10
-3250.482619797336
 20
3998.6356255108567
 10
-3338.111589722992
 20
3934.969908396697
 10
-3424.49786459696
 20
3869.3853184401737
 10
-3509.5994580556503
 20
3801.906018893913
 10
-3593.374851553011
 20
3732.5570909963517
 10
-3675.7830144159993
 20
3661.364524958397
 10
-3756.783423727287
 20
3588.3552105123085
 10
-3836.336084025788
 20
3513.556927025988
 10
-3914.4015468154157
 20
3436.9983331862572
 10
-3990.940929872683
 20
3358.7089562547885
 10
-4065.9159363437966
 20
3278.719180900609
 10
-4139.288873621973
 20
3197.060237613289
 10
-4211.022671995757
 20
3113.764190701125
 10
-4281.080903059262
 20
3028.863925878851
 10
-4349.427797875314
 20
2942.393137449552
 10
-4416.028264882504
 20
2854.386315085789
 10
-4480.847907537426
 20
2764.878730214926
 10
-4543.853041683282
 20
2673.9064220140494
 10
-4605.01071263627
 20
2581.5061830199525
 10
-4664.288711981254
 20
2487.715544359868
 10
-4721.655594068275
 20
2392.5727606088312
 10
-4777.080692201672
 20
2296.1167942797333
 10
-4830.534134513639
 20
2198.387299952307
 10
-4881.986859514169
 20
2099.4246080474804
 10
-4931.410631309537
 20
1999.2697082536527
 10
-4978.77805448149
 20
1897.9642326117885
 10
-5024.062588619587
 20
1795.5504382661275
 10
-5067.2385624991775
 20
1692.0711898877412
 10
-5108.281187897668
 20
1587.5699417781843
 10
-5147.16657304192
 20
1482.090719660697
 10
-5183.871735679738
 20
1375.6781021665686
 10
-5218.37461576856
 20
1268.3772020244353
 10
-5250.654087774659
 20
1160.2336469604343
 10
-5280.689972576292
 20
1051.2935603173003
 10
-5308.463048964422
 20
941.6035414005656
 10
-5333.955064734786
 20
831.2106455603814
 10
-5357.148747365301
 20
720.1623640172654
 10
-5378.027814272927
 20
608.5066034405761
 10
-5396.576982644321
 20
496.2916652884211
 10
-5412.781978834765
 20
383.5662249179253
 10
-5426.629547330091
 20
270.3793104748849
 10
-5438.107459266456
 20
156.78028157196536
 10
-5447.204520503062
 20
42.81880776472154
 10
-5453.91057924306
 20
-71.45515316523063
 10
-5458.216533198133
 20
-185.99137711025207
 10
-5460.114336292399
 20
-300.7393957105206
 10
-5459.597004901513
 20
-415.64851859182716
 10
-5456.658623623029
 20
-530.6678557575862
 10
-5451.294350574308
 20
-645.7463401251613
 10
-5443.50042221446
 20
-760.8327501965264
 10
-5433.274157687006
 20
-875.8757328531959
 10
-5420.613962680173
 20
-990.8238262652866
 10
-5405.5193328019695
 20
-1105.6254829044797
 10
-5387.990856467344
 20
-1220.2290926506548
 10
-5368.030217295022
 20
-1334.5830059816965
 10
-5345.640196011791
 20
-1448.6355572362538
 10
-5320.824671862213
 20
-1562.335087938833
 10
-5293.588623522038
 20
-1675.6299701767548
 10
-5263.938129513701
 20
-1788.4686300184467
 10
-5231.880368122651
 20
-1900.7995709623222
 10
-5197.423616813344
 20
-2012.5713974057826
 10
-5160.577251144073
 20
-2123.732838123521
 10
-5121.351743179968
 20
-2234.232769744476
 10
-5079.75865940376
 20
-2344.020240216684
 10
-5035.81065812412
 20
-2453.044492249295
 10
-4989.521486381621
 20
-2561.2549867209777
 10
-4940.905976352591
 20
-2668.601426043943
 10
-4889.980041251372
 20
-2775.0337774728173
 10
-4836.760670731716
 20
-2880.502296347588
 10
-4781.265925788293
 20
-2984.957549259858
 10
-4723.514933159504
 20
-3088.3504371316503
 10
-4663.5278792330355
 20
-3190.6322181960313
 10
-4601.32600345582
 20
-3291.754530868838
 10
-4536.931591250298
 20
-3391.6694165008107
 10
-4470.367966439088
 20
-3490.329341999482
 10
-4401.65948318046
 20
-3587.6872223102087
 10
-4330.83151741715
 20
-3683.6964427457265
 10
-4257.910457841316
 20
-3778.3108811538223
 10
-4182.923696378819
 20
-3871.484929912382
 10
-4105.899618195858
 20
-3963.173517741717
 10
-4026.8675912316585
 20
-4053.3321313235665
 10
-3945.8579552608285
 20
-4141.916836716573
 10
-3862.902010489362
 20
-4228.884300557991
 10
-3778.0320056884343
 20
-4314.191811041479
 10
-3691.2811258703937
 20
-4397.79729866091
 10
-3602.6834795115305
 20
-4479.6593567102045
 10
-3512.2740853264695
 20
-4559.737261529311
 10
-3420.0888585992057
 20
-4637.990992486524
 10
-3326.164597076039
 20
-4714.381251687449
 10
-3230.538966425878
 20
-4788.869483401008
 10
-3133.2504852735715
 20
-4861.417893193032
 10
-3034.338509812169
 20
-4931.989466758021
 10
-2933.843218000172
 20
-5000.547988439876
 10
-2831.805593350084
 20
-5067.058059432422
 10
-2728.2674083147444
 20
-5131.4851156507675
 10
-2623.271207278141
 20
-5193.795445264566
 10
-2516.8602891574897
 20
-5253.956205884565
 10
-2409.0786896239224
 20
-5311.935441393642
 10
-2299.971162948681
 20
-5367.702098414116
 10
-2189.5831634825486
 20
-5421.2260424028755
 10
-2077.960826776041
 20
-5472.478073366207
 10
-1965.1509503481873
 20
-5521.42994118637
 10
-1851.200974111904
 20
-5568.0543605520415
 10
-1736.158960464119
 20
-5612.325025484989
 10
-1620.0735740489865
 20
-5654.21662345548
 10
-1502.9940612027003
 20
-5693.7048490790685
 10
-1384.9702290885677
 20
-5730.766417387651
 10
-1266.0524245311817
 20
-5765.3790766677985
 10
-1146.2915125586612
 20
-5797.521620859574
 10
-1025.7388546621114
 20
-5827.17390150925
 10
-904.4462867815779
 20
-5854.31683926952
 10
-782.46609702793
 20
-5878.932434940958
 10
-659.8510031502398
 20
-5901.003780048745
 10
-536.6541297583673
 20
-5920.51506694882
 10
-412.9289853105856
 20
-5937.45159845784
 10
-288.72943887623615
 20
-5951.799797001541
 10
-164.10969668337788
 20
-5963.5472132763225
 10
-39.12427846195397
 20
-5972.682534419002
 10
86.17200640761965
 20
-5979.19559168004
 10
211.72408292969462
 20
-5983.077367595629
 10
337.4766347020453
 20
-5984.32000265431
 10
463.3741282872769
 20
-5982.916801454026
 10
589.3608377362486
 20
-5978.862238345685
 10
715.3808692526828
 20
-5972.151962559597
 10
841.3781859880447
 20
-5962.782802811317
 10
967.2966329556926
 20
-5950.752771383716
 10
1093.079962053226
 20
-5936.061067682283
 10
1218.6718571818808
 20
-5918.7080812609265
 10
1344.0159594517604
 20
-5898.695394315776
 10
1469.0558924616223
 20
-5876.025783644704
 10
1593.735287641884
 20
-5850.70322207055
 10
1717.9978096494717
 20
-5822.732879326265
 10
1841.7871818030608
 20
-5792.121122400412
 10
1965.0472115472517
 20
-5758.875515341752
 10
2087.7218159341323
 20
-5723.0048185218275
 10
2209.7550471108166
 20
-5684.518987354725
 10
2331.091117801074
 20
-5643.429170473528
 10
2451.674426769876
 20
-5599.74770736302
 10
2571.4495842589386
 20
-5553.488125448657
 10
2690.361437381769
 20
-5504.665136641962
 10
2808.355095466574
 20
-5453.294633342736
 10
2925.3759553354016
 20
-5399.3936838988075
 10
3041.369726507914
 20
-5342.980527524208
 10
3156.282456318159
 20
-5284.074568676947
 10
3270.0605549327774
 20
-5222.696370897822
 10
3382.650820259058
 20
-5158.86765011192
 10
3494.000462731306
 20
-5092.611267394726
 10
3604.057129964014
 20
-5023.951221205011
 10
3712.7689312603566
 20
-4952.912639086903
 10
3820.0844619645923
 20
-4879.521768843806
 10
3925.9528276469705
 20
-4803.805969187068
 10
4030.3236681098356
 20
-4725.793699862554
 10
4133.147181203643
 20
-4645.514511258511
 10
4234.374146441672
 20
-4562.999033498386
 10
4333.955948402392
 20
-4478.27896502238
 10
4431.84459990818
 20
-4391.387060662087
 10
4527.992764969724
 20
-4302.357119212275
 10
4622.353781484983
 20
-4211.223970504646
 10
4714.881683681981
 20
-4118.023461988299
 10
4805.531224294698
 20
-4022.7924448219815
 10
4894.257896461479
 20
-3925.5687594834576
 10
4981.017955335405
 20
-3826.3912209014893
 10
5065.768439396267
 20
-3725.299603116206
 10
5148.467191453847
 20
-3622.334623473858
 10
5229.072879332325
 20
-3517.53792636215
 10
5307.545016225815
 20
-3410.9520664925903
 10
5383.843980715071
 20
-3302.6204917365158
 10
5457.931036435641
 20
-3192.5875255216447
 10
5529.768351387795
 20
-3080.8983487962564
 10
5599.31901687875
 20
-2967.598981568273
 10
5666.547066087858
 20
-2852.736264026755
 10
5731.417492245562
 20
-2736.3578372535203
 10
5793.896266417075
 20
-2618.51212353277
 10
5853.950354881932
 20
-2499.2483062668807
 10
5911.54773610075
 20
-2378.6163095065112
 10
5966.657417260508
 20
-2256.6667771038487
 10
6019.249450390221
 20
-2133.451051497241
 10
6069.294948038643
 20
-2009.021152136419
 10
6116.766098506091
 20
-1883.429753557198
 10
6161.636180622551
 20
-1756.7301631149344
 10
6203.879578064472
 20
-1628.9762983861178
 10
6243.471793202798
 20
-1500.2226642476717
 10
6280.389460475041
 20
-1370.5243296436915
 10
6314.610359274355
 20
-1239.9369040495208
 10
6346.113426348806
 20
-1108.5165136432129
 10
6374.878767704223
 20
-976.3197771945765
 10
6400.887670004248
 20
-843.4037816821715
 10
6424.122611461398
 20
-709.8260576487344
 10
6444.567272213182
 20
-575.6445543056839
 10
6462.206544177546
 20
-440.917614397467
 10
6477.026540382127
 20
-305.70394883665233
 10
6489.014603762041
 20
-170.06261112079414
 10
6498.159315421141
 20
-34.05297154223821
 10
6504.45050235197
 20
102.2653087980059
 10
6507.879244609746
 20
238.83230416060715
 10
6508.437881936151
 20
375.5878505114505
 10
6506.12001982873
 20
512.4715720264442
 10
6500.920535052089
 20
649.4229077460571
 10
6492.835580587282
 20
786.3811383677985
 10
6481.862590016023
 20
923.2854131647849
 10
6468.000281336602
 20
1060.0747770184623
 10
6451.248660208662
 20
1196.688197553478
 10
6431.609022624228
 20
1333.0645923626203
 10
6409.0839570026465
 20
1469.14285630969
 10
6383.677345707319
 20
1604.8618888980973
 10
6355.394365982436
 20
1740.1606216929358
 10
6324.241490308112
 20
1874.9780457842292
 10
6290.2264861726035
 20
2009.2532392790042
 10
6253.358415260596
 20
2142.9253948098167
 10
6213.647632056739
 20
2275.933847047309
 10
6171.105781863914
 20
2408.2181002043685
 10
6125.745798236005
 20
2539.717855519403
 10
6077.581899825113
 20
2670.3730387063974
 10
6026.629586643608
 20
2800.123827358931
 10
5972.905635741405
 20
2928.9106782961267
 10
5916.428096299398
 20
3056.6743548377076
 10
5857.216284140054
 20
3183.355953995822
 10
5795.290775656541
 20
3308.8969335711636
 10
5730.673401161971
 20
3433.2391391409383
 10
5663.387237660655
 20
3556.3248309262694
 10
5593.456601043484
 20
3678.0967105266527
 10
5520.9070377098515
 20
3798.497947509121
 10
5445.7653156188
 20
3917.472205839813
 10
5368.059414772284
 20
4034.963670145688
 10
5287.8185171337855
 20
4150.917071794184
 10
5205.072995985724
 20
4265.277714778691
 10
5119.854404729367
 20
4377.99150139773
 10
5032.195465131238
 20
4489.004957715874
 10
4942.130055020255
 20
4598.265258794445
 10
4849.693195440088
 20
4705.720253680159
 10
4754.921037261484
 20
4811.318490139946
 10
4657.850847259597
 20
4915.009239130273
 10
4558.520993661448
 20
5016.74251898949
 10
4456.970931169302
 20
5116.469119341482
 10
4353.241185465368
 20
5214.140624699622
 10
4247.373337204064
 20
5309.709437759506
 10
4139.410005498007
 20
5403.128802369468
 10
4029.3948309042225
 20
5494.352826167861
 10
3917.37245791729
 20
5583.3365028762255
 10
3803.3885169763876
 20
5670.035734237625
 10
3687.489605993442
 20
5754.40735158955
 10
3569.723271409786
 20
5836.4091370609685
 10
3450.1379887889802
 20
5915.999844383197
 10
3328.783142953691
 20
5993.1392193044785
 10
3205.7090076746945
 20
6067.788019598285
 10
3080.9667249203417
 20
6139.908034655527
 10
2954.6082836750047
 20
6209.462104651044
 10
2826.6864983352475
 20
6276.414139274887
 10
2697.254986692667
 20
6340.729136019135
 10
2566.368147512555
 20
6402.3731980111115
 10
2434.081137717766
 20
6461.3135513841125
 10
2300.449849187183
 20
6517.518562176954
 10
2165.5308851788827
 20
6570.9577527536785
 10
2029.3815363874594
 20
6621.601817735306
 10
1892.059756645973
 20
6669.422639435357
 10
1753.6241382826606
 20
6714.393302791288
 10
1614.1338871429207
 20
6756.488109784158
 10
1473.6487972871914
 20
6795.682593339045
 10
1332.2292253755395
 20
6831.953530698943
 10
1189.9360647499177
 20
6865.2789562651315
 10
1046.8307192252205
 20
6895.638173897207
 10
902.9750766004094
 20
6923.011768666211
 10
758.4314819011321
 20
6947.38161805451
 10
613.2627103654029
 20
6968.730902596365
 10
467.5319401840442
 20
6987.044115953294
 10
321.3027250077277
 20
7002.307074418664
 10
174.63896623257654
 20
7014.506925846127
 10
27.60488507641322
 20
7023.6321579967935
 10
-119.73500554214365
 20
7029.672606300314
 10
-267.3159293093967
 20
7032.619461025232
 10
-415.07287499483135
 20
7032.465273854313
 10
-562.9406250890261
 20
7029.203963860723
 10
-710.8537845890968
 20
7022.8308228813
 10
-858.7468099185951
 20
7013.3425202833205
 10
-1006.5540379692226
 20
7000.737107121508
 10
-1154.2097152514657
 20
6985.014019682268
 10
-1301.648027141217
 20
6966.174082412407
 10
-1448.8031272093694
 20
6944.21951022988
 10
-1595.6091666213226
 20
6919.153910214362
 10
-1742.0003235932713
 20
6890.982282675748
 10
-1887.9108328921093
 20
6859.711021598936
 10
-2033.2750153657284
 20
6825.347914463533
 10
-2178.0273074904617
 20
6787.902141437418
 10
-2322.102290922382
 20
6747.384273943363
 10
-2465.4347220391533
 20
6703.806272598201
 10
-2607.9595614590858
 20
6657.181484524303
 10
-2749.6120035240774
 20
6607.52464003343
 10
-2890.327505733061
 20
6554.851848683292
 10
-3030.0418181126233
 20
6499.180594707429
 10
-3168.691012511413
 20
6440.529731819343
 10
-3306.211511805149
 20
6378.919477392007
 10
-3442.5401189985355
 20
6314.3714060143575
 10
-3577.614046211281
 20
6246.9084424263665
 10
-3711.370943534573
 20
6176.554853834861
 10
-3843.7489277449245
 20
6103.336241612353
 10
-3974.6866108621743
 20
6027.279532381511
 10
-4104.12312853849
 20
5948.412968488181
 10
-4231.998168265276
 20
5866.766097866083
 10
-4358.251997384944
 20
5782.369763296696
 10
-4482.825490894601
 20
5695.256091068012
 10
-4605.660159028712
 20
5605.4584790362205
 10
-4726.698174607947
 20
5513.011584094557
 10
-4845.882400141458
 20
5417.95130905394
 10
-4963.156414669935
 20
5320.314788940183
 10
-5078.464540336877
 20
5220.140376712922
 10
-5191.751868675634
 20
5117.467628411632
 10
-5302.96428659986
 20
5012.337287734377
 10
-5412.048502085137
 20
4904.7912700552115
 10
-5518.9520695296305
 20
4794.8726458864285
 10
-5623.623414781894
 20
4682.625623791998
 10
-5726.011859823687
 20
4568.095532759143
 10
-5826.067647096405
 20
4451.32880403468
 10
-5923.741963459304
 20
4332.372952433575
 10
-6018.98696376813
 20
4211.276557127088
 10
-6111.755794062886
 20
4088.089241918223
 10
-6202.002614353558
 20
3962.8616550124507
 10
-6289.6826209928495
 20
3835.6454482918853
 10
-6374.752068625097
 20
3706.4932561013607
 10
-6457.168291700738
 20
3575.45867355507
 10
-6536.8897255458705
 20
3442.5962343726837
 10
-6613.875926976611
 20
3307.9613882540534
 10
-6688.087594448185
 20
3171.6104778018794
 10
-6759.4865877288385
 20
3033.6007150019
 10
-6828.0359470888525
 20
2893.990157270402
 10
-6893.699911995201
 20
2752.837683079054
 10
-6956.44393930252
 20
2610.2029671672713
 10
-7016.23472093133
 20
2466.146455352534
 10
-7073.04020102463
 20
2320.7293389492893
 10
-7126.829592574264
 20
2174.013528807114
 10
-7177.573393508518
 20
2026.0616289794905
 10
-7225.243402232917
 20
1876.9369100339056
 10
-7269.812732616145
 20
1726.7032820150007
 10
-7311.255828413389
 20
1575.4252670721735
 10
-7349.548477119654
 20
1423.1679717633692
 10
-7384.66782324577
 20
1269.9970590469463
 10
-7416.592381010126
 20
1115.978719973657
 10
-7445.302046439367
 20
961.1796450909446
 10
-7470.778108871601
 20
805.6669955719035
 10
-7493.003261855853
 20
649.5083740814066
 10
-7511.961613441827
 20
492.77179539202376
 10
-7527.638695854251
 20
335.5256567625131
 10
-7540.021474546407
 20
177.83870809177742
 10
-7549.098356627641
 20
19.7800218613125
 10
-7554.859198659993
 20
-138.58103712071312
 10
-7557.295313819327
 20
-297.17484216049394
 10
-7556.399478416619
 20
-455.93153529137953
 10
-7552.16593777536
 20
-614.7810580449358
 10
-7544.590411461296
 20
-773.6531823668848
 10
-7533.670097861019
 20
-932.4775416638743
 10
-7519.403678106224
 20
-1091.1836619678922
 10
-7501.79131934072
 20
-1249.7009932041215
 10
-7480.834677327553
 20
-1407.9589405485222
 10
-7456.536898393966
 20
-1565.8868958611836
 10
-7428.902620712128
 20
-1723.4142691814436
 10
-7397.937974913914
 20
-1880.470520270743
 10
-7363.650584038303
 20
-2036.9851901891102
 10
-7326.049562810246
 20
-2192.887932891155
 10
-7285.145516250178
 20
-2348.108546827408
 10
-7240.950537613632
 20
-2502.577006536811
 10
-7193.478205660709
 20
-2656.2234942161544
 10
-7142.743581255494
 20
-2808.978431252238
 10
-7088.763203295746
 20
-2960.772509702518
 10
-7031.555083973573
 20
-3111.5367237100227
 10
-6971.138703368038
 20
-3261.202400838289
 10
-6907.535003370968
 20
-3409.7012333121374
 10
-6840.766380947572
 20
-3556.96530915005
 10
-6770.8566807337165
 20
-3702.9271431739962
 10
-6697.83118697201
 20
-3847.5197078826873
 10
-6621.716614789331
 20
-3990.676464173794
 10
-6542.54110081835
 20
-4132.331391901575
 10
-6460.33419316633
 20
-4272.419020255523
 10
-6375.12684073447
 20
-4410.874457946235
 10
-6286.951381891541
 20
-4547.633423184597
 10
-6195.841532505756
 20
-4682.632273440457
 10
-6101.832373339148
 20
-4815.808034967058
 10
-6004.96033680905
 20
-4947.098432077566
 10
-5905.2631931215155
 20
-5076.441916160119
 10
-5802.780035781838
 20
-5203.777694417929
 10
-5697.55126648761
 20
-5329.045758321064
 10
-5589.618579410048
 20
-5452.186911756641
 10
-5479.024944869619
 20
-5573.142798864281
 10
-5365.814592412209
 20
-5691.855931543781
 10
-5250.032993292483
 20
-5808.269716622121
 10
-5131.726842371232
 20
-5922.328482667008
 10
-5010.944039433858
 20
-6033.977506434327
 10
-4887.733669937431
 20
-6143.163038936991
 10
-4762.1459851938525
 20
-6249.832331122966
 10
-4634.232381997361
 20
-6353.933659149969
 10
-4504.045381704197
 20
-6455.41634924523
 10
-4371.638608773184
 20
-6554.230802138159
 10
-4237.0667687758105
 20
-6650.328517054314
 10
-4100.3856258848145
 20
-6743.6621152592
 10
-3961.6519798505065
 20
-6834.185363140522
 10
-3820.923642474261
 20
-6921.853194817783
 10
-3678.2594135889253
 20
-7006.621734268266
 10
-3533.7190565560627
 20
-7088.448316958677
 10
-3387.363273290225
 20
-7167.291510971898
 10
-3239.2536788206635
 20
-7243.111137618512
 10
-3089.4527754011065
 20
-7315.8682915230165
 10
-2938.023926178471
 20
-7385.525360174796
 10
-2785.0313284315675
 20
-7452.046042934204
 10
-2630.539986391095
 20
-7515.395369484317
 10
-2474.6156836524106
 20
-7575.539717719139
 10
-2317.324955192763
 20
-7632.446831059298
 10
-2158.735059004922
 20
-7686.085835186502
 10
-1998.9139473591044
 20
-7736.427254188324
 10
-1837.9302377058875
 20
-7783.443026104951
 10
-1675.853183232011
 20
-7827.106517870129
 10
-1512.752643082106
 20
-7867.39253963842
 10
-1348.699052258983
 20
-7904.277358491405
 10
-1183.7633912154704
 20
-7937.738711515633
 10
-1018.0171551509309
 20
-7967.755818245415
 10
-851.5323230257286
 20
-7994.309392463793
 10
-684.3813263070765
 20
-8017.38165335538
 10
-516.6370174598316
 20
-8036.956336004949
 10
-348.37263819594614
 20
-8053.018701235991
 10
-179.66178749640693
 20
-8065.555544783749
 10
-10.578389419629367
 20
-8074.555205797489
 10
158.8033392896178
 20
-8080.007574667119
 10
328.40892177656235
 20
-8081.904100169487
 10
498.1636538237546
 20
-8080.237795930063
 10
667.9926367549708
 20
-8075.003246195979
 10
837.8208104812013
 20
-8066.196610916666
 10
1007.5729866741437
 20
-8053.8156301287145
 10
1177.1738820525104
 20
-8037.85962764182
 10
1346.5481517665894
 20
-8018.329514023009
 10
1515.6204228658228
 20
-7995.227788876677
 10
1684.3153278351144
 20
-7968.558542418231
 10
1852.557538184514
 20
-7938.327456339489
 10
2020.2717980774883
 20
-7904.541803964282
 10
2187.3829579827343
 20
-7867.210449693023
 10
2353.8160083344983
 20
-7826.3438477353275
 10
2519.4961131863256
 20
-7781.954040130091
 10
2684.348643843148
 20
-7734.054654052745
 10
2848.299212456604
 20
-7682.660898409725
 10
3011.273705568477
 20
-7627.789559720521
 10
3173.1983175871337
 20
-7569.458997288
 10
3333.999584181852
 20
-7507.689137657982
 10
3493.604415579947
 20
-7442.501468369406
 10
3651.940129751614
 20
-7373.919030996746
 10
3808.934485467436
 20
-7301.966413486622
 10
3964.5157152135343
 20
-7226.669741790884
 10
4118.612557949399
 20
-7148.0566707988155
 10
4271.154291693429
 20
-7066.1563745713565
 10
4422.07076592145
 20
-6980.99953588051
 10
4571.292433763044
 20
-6892.618335057726
 10
4718.750383981399
 20
-6801.046438154825
 10
4864.376372721681
 20
-6706.318984421909
 10
5008.102855013426
 20
-6608.472573106614
 10
5149.86301601246
 20
-6507.5452495796035
 10
5289.590801967919
 20
-6403.576490791389
 10
5427.220950900053
 20
-6296.607190065918
 10
5562.689022974601
 20
-6186.6796412366775
 10
5695.931430559677
 20
-6073.837522131363
 10
5826.885467951142
 20
-5958.125877411451
 10
5955.489340752666
 20
-5839.59110077332
 10
6081.682194896738
 20
-5718.2809165178915
 10
6205.404145293069
 20
-5594.244360495991
 10
6326.596304090937
 20
-5467.531760436981
 10
6445.200808542228
 20
-5338.194715668501
 10
6561.1608484520475
 20
-5206.286076235398
 10
6674.420693203928
 20
-5071.859921426218
 10
6784.925718346864
 20
-4934.971537716008
 10
6892.622431731683
 20
-4795.677396134174
 10
6997.458499184004
 20
-4654.035129066987
 10
7099.38276970198
 20
-4510.103506503741
 10
7198.345300166484
 20
-4363.942411736684
 10
7294.297379551997
 20
-4215.612816524557
 10
7387.1915526265575
 20
-4065.1767557300545
 10
7476.981643129362
 20
-3912.697301441712
 10
7563.622776414783
 20
-3758.238536590987
 10
7647.071401551848
 20
-3601.865528075546
 10
7727.2853128684055
 20
-3443.6442993999954
 10
7804.223670929456
 20
-3283.6418028455405
 10
7877.847022939371
 20
-3121.9258911802926
 10
7948.11732255794
 20
-2958.565288922141
 10
8014.997949120459
 20
-2793.629563166355
 10
8078.453726252326
 20
-2627.1890939902883
 10
8138.450939868824
 20
-2459.3150444477437
 10
8194.957355551092
 20
-2290.0793301658023
 10
8247.942235289529
 20
-2119.554588557079
 10
8297.376353586104
 20
-1947.814147660584
 10
8343.232012907383
 20
-1774.9319946245687
 10
8385.483058480395
 20
-1600.9827438447392
 10
8424.10489242348
 20
-1426.041604771965
 10
8459.074487205045
 20
-1250.1843494028087
 10
8490.3703984229
 20
-1073.487279467344
 10
8517.972776897499
 20
-896.0271933283032
 10
8541.863380072627
 20
-717.8813526059381
 10
8562.02558271725
 20
-539.1274485430956
 10
8578.444386922727
 20
-359.84356812515114
 10
8591.106431389793
 20
-180.10815996957123
 10
8600.0
 20
-8.42556997813379e-12
  0
TEXT
  5
8B
330
17
100
AcDbEntity
  8
0
100
AcDbText
 10
521.3523430903365
 20
10811.250351323912
 30
0.0
 40
846.4133194269043
  1
Spiral | w=700µm | internal_d=466.66662µm | outer+0.2mm | loops=4 r0=200µm s=2100µm
 11
521.3523430903365
 21
10811.250351323912
 31
0.0
100
AcDbText
  0
TEXT
  5
8C
330
17
100
AcDbEntity
  8
0
100
AcDbText
 10
538.2806094788746
 20
10811.250351323912
 30
0.0
 40
846.4133194269043
  1
Spiral | w=700µm | internal_d=466.66662µm | outer+0.2mm | loops=4 r0=200µm s=2100µm
 11
538.2806094788746
 21
10811.250351323912
 31
0.0
100
AcDbText
  0
ENDSEC
  0
SECTION
  2
OBJECTS
  0
DICTIONARY
  5
A
330
0
100
AcDbDictionary
281
1
  3
ACAD_COLOR
350
B
  3
ACAD_GROUP
350
C
  3
ACAD_LAYOUT
350
D
  3
ACAD_MATERIAL
350
E
  3
ACAD_MLEADERSTYLE
350
F
  3
ACAD_MLINESTYLE
350
10
  3
ACAD_PLOTSETTINGS
350
11
  3
ACAD_PLOTSTYLENAME
350
12
  3
ACAD_SCALELIST
350
14
  3
ACAD_TABLESTYLE
350
15
  3
ACAD_VISUALSTYLE
350
16
  3
EZDXF_META
350
2D
  0
DICTIONARY
  5
B
330
A
100
AcDbDictionary
281
1
  0
DICTIONARY
  5
C
330
A
100
AcDbDictionary
281
1
  0
DICTIONARY
  5
D
330
A
100
AcDbDictionary
281
1
  3
Model
350
1A
  3
Layout1
350
1E
  0
DICTIONARY
  5
E
330
A
100
AcDbDictionary
281
1
  3
ByBlock
350
1F
  3
ByLayer
350
20
  3
Global
350
21
  0
DICTIONARY
  5
F
330
A
100
AcDbDictionary
281
1
  3
Standard
350
2C
  0
DICTIONARY
  5
10
330
A
100
AcDbDictionary
281
1
  3
Standard
350
22
  0
DICTIONARY
  5
11
330
A
100
AcDbDictionary
281
1
  0
ACDBDICTIONARYWDFLT
  5
12
330
A
100
AcDbDictionary
281
1
  3
Normal
350
13
100
AcDbDictionaryWithDefault
340
13
  0
ACDBPLACEHOLDER
  5
13
330
12
  0
DICTIONARY
  5
14
330
A
100
AcDbDictionary
281
1
  0
DICTIONARY
  5
15
330
A
100
AcDbDictionary
281
1
  0
DICTIONARY
  5
16
330
A
100
AcDbDictionary
281
1
  3
2dWireframe
350
5A
  3
Basic
350
5B
  3
Brighten
350
5C
  3
ColorChange
350
5D
  3
Conceptual
350
5E
  3
Dim
350
5F
  3
EdgeColorOff
350
60
  3
Facepattern
350
61
  3
Flat
350
62
  3
FlatWithEdges
350
63
  3
Gouraud
350
64
  3
GouraudWithEdges
350
65
  3
Hidden
350
66
  3
JitterOff
350
67
  3
Linepattern
350
68
  3
Modeling
350
69
  3
OverhangOff
350
6A
  3
Realistic
350
6B
  3
Shaded
350
6C
  3
Shaded with edges
350
6D
  3
Shades of Gray
350
6E
  3
Sketchy
350
6F
  3
Thicken
350
70
  3
Wireframe
350
71
  3
X-Ray
350
72
  0
LAYOUT
  5
1A
330
D
100
AcDbPlotSettings
  1

  4
A3
  6

 40
7.5
 41
20.0
 42
7.5
 43
20.0
 44
420.0
 45
297.0
 46
0.0
 47
0.0
 48
0.0
 49
0.0
140
0.0
141
0.0
142
1.0
143
1.0
 70
1024
 72
1
 73
0
 74
5
  7

 75
16
 76
0
 77
2
 78
300
147
1.0
148
0.0
149
0.0
100
AcDbLayout
  1
Model
 70
1
 71
0
 10
0.0
 20
0.0
 11
420.0
 21
297.0
 12
0.0
 22
0.0
 32
0.0
 14
1e+20
 24
1e+20
 34
1e+20
 15
-1e+20
 25
-1e+20
 35
-1e+20
146
0.0
 13
0.0
 23
0.0
 33
0.0
 16
1.0
 26
0.0
 36
0.0
 17
0.0
 27
1.0
 37
0.0
 76
1
330
17
  0
LAYOUT
  5
1E
330
D
100
AcDbPlotSettings
  1

  4
A3
  6

 40
7.5
 41
20.0
 42
7.5
 43
20.0
 44
420.0
 45
297.0
 46
0.0
 47
0.0
 48
0.0
 49
0.0
140
0.0
141
0.0
142
1.0
143
1.0
 70
0
 72
1
 73
0
 74
5
  7

 75
16
 76
0
 77
2
 78
300
147
1.0
148
0.0
149
0.0
100
AcDbLayout
  1
Layout1
 70
1
 71
1
 10
0.0
 20
0.0
 11
420.0
 21
297.0
 12
0.0
 22
0.0
 32
0.0
 14
1e+20
 24
1e+20
 34
1e+20
 15
-1e+20
 25
-1e+20
 35
-1e+20
146
0.0
 13
0.0
 23
0.0
 33
0.0
 16
1.0
 26
0.0
 36
0.0
 17
0.0
 27
1.0
 37
0.0
 76
1
330
1B
  0
MATERIAL
  5
1F
102
{ACAD_REACTORS
330
E
102
}
330
E
100
AcDbMaterial
  1
ByBlock
  2

 70
0
 40
1.0
 71
1
 41
1.0
 91
-1023410177
 42
1.0
 72
1
  3

 73
1
 74
1
 75
1
 44
0.5
 73
0
 45
1.0
 46
1.0
 77
1
  4

 78
1
 79
1
170
1
 48
1.0
171
1
  6

172
1
173
1
174
1
140
1.0
141
1.0
175
1
  7

176
1
177
1
178
1
143
1.0
179
1
  8

270
1
271
1
272
1
145
1.0
146
1.0
273
1
  9

274
1
275
1
276
1
 42
1.0
 72
1
  3

 73
1
 74
1
 75
1
 94
63
  0
MATERIAL
  5
20
102
{ACAD_REACTORS
330
E
102
}
330
E
100
AcDbMaterial
  1
ByLayer
  2

 70
0
 40
1.0
 71
1
 41
1.0
 91
-1023410177
 42
1.0
 72
1
  3

 73
1
 74
1
 75
1
 44
0.5
 73
0
 45
1.0
 46
1.0
 77
1
  4

 78
1
 79
1
170
1
 48
1.0
171
1
  6

172
1
173
1
174
1
140
1.0
141
1.0
175
1
  7

176
1
177
1
178
1
143
1.0
179
1
  8

270
1
271
1
272
1
145
1.0
146
1.0
273
1
  9

274
1
275
1
276
1
 42
1.0
 72
1
  3

 73
1
 74
1
 75
1
 94
63
  0
MATERIAL
  5
21
102
{ACAD_REACTORS
330
E
102
}
330
E
100
AcDbMaterial
  1
Global
  2

 70
0
 40
1.0
 71
1
 41
1.0
 91
-1023410177
 42
1.0
 72
1
  3

 73
1
 74
1
 75
1
 44
0.5
 73
0
 45
1.0
 46
1.0
 77
1
  4

 78
1
 79
1
170
1
 48
1.0
171
1
  6

172
1
173
1
174
1
140
1.0
141
1.0
175
1
  7

176
1
177
1
178
1
143
1.0
179
1
  8

270
1
271
1
272
1
145
1.0
146
1.0
273
1
  9

274
1
275
1
276
1
 42
1.0
 72
1
  3

 73
1
 74
1
 75
1
 94
63
  0
MLINESTYLE
  5
22
102
{ACAD_REACTORS
330
10
102
}
330
10
100
AcDbMlineStyle
  2
Standard
 70
0
  3

 62
256
 51
90.0
 52
90.0
 71
2
 49
0.5
 62
256
  6
BYLAYER
 49
-0.5
 62
256
  6
BYLAYER
  0
MLEADERSTYLE
  5
2C
102
{ACAD_REACTORS
330
F
102
}
330
F
100
AcDbMLeaderStyle
179
2
170
2
171
1
172
0
 90
2
 40
0.0
 41
0.0
173
1
 91
-1056964608
 92
-2
290
1
 42
2.0
291
1
 43
8.0
  3
Standard
 44
4.0
300

342
29
174
1
175
1
176
0
178
1
 93
-1056964608
 45
4.0
292
0
297
0
 46
4.0
 94
-1056964608
 47
1.0
 49
1.0
140
1.0
294
1
141
0.0
177
0
142
1.0
295
0
296
0
143
3.75
271
0
272
9
273
9
  0
DICTIONARY
  5
2D
330
A
100
AcDbDictionary
280
1
281
1
  3
CREATED_BY_EZDXF
350
2E
  3
WRITTEN_BY_EZDXF
350
8F
  0
DICTIONARYVAR
  5
2E
330
2D
100
DictionaryVariables
280
0
  1
1.4.3 @ 2026-02-07T18:32:05.095879+00:00
  0
VISUALSTYLE
  5
5A
102
{ACAD_REACTORS
330
16
102
}
330
16
100
AcDbVisualStyle
  2
2dWireframe
 70
4
177
3
291
0
 70
58
 90
2
176
1
 90
2
176
1
 90
0
176
1
 90
0
176
1
 40
0.6
176
1
 40
30.0
176
1
 62
7
420
16777215
176
1
 90
1
176
1
 90
4
176
1
 62
7
176
1
 62
257
176
1
 90
1
176
1
 90
1
176
1
 40
1.0
176
1
 90
8
176
1
 62
7
176
1
 40
1.0
176
1
 90
1
176
1
 90
6
176
1
 90
2
176
1
 62
7
176
1
 90
5
176
1
 90
0
176
1
 90
0
176
1
290
0
176
1
 90
1
176
1
 40
0.0
176
1
 90
0
176
1
290
1
176
1
290
1
176
1
290
0
176
1
290
0
176
1
290
0
176
1
290
0
176
1
290
0
176
1
290
0
176
1
290
0
176
1
 90
50
176
1
 40
0.0
176
1
 40
1.0
176
1
 90
0
176
1
 62
18
420
0
176
1
 90
50
176
1
 90
3
176
1
 62
5
420
255
176
1
290
0
176
1
 90
50
176
1
 90
50
176
1
 90
50
176
1
290
0
176
1
 90
50
176
1
 62
256
176
0
 40
1.0
176
0
 90
2
176
1
  1
strokes_ogs.tif
176
1
290
0
176
1
 40
1.0
176
1
 40
1.0
176
1
  0
VISUALSTYLE
  5
5B
102
{ACAD_REACTORS
330
16
102
}
330
16
100
AcDbVisualStyle
  2
Basic
 70
7
177
3
291
1
 70
58
 90
2
176
1
 90
2
176
1
 90
0
176
1
 90
1
176
1
 40
0.6
176
1
 40
30.0
176
1
 62
7
420
16777215
176
1
 90
1
176
1
 90
4
176
1
 62
7
176
1
 62
257
176
1
 90
1
176
1
 90
1
176
1
 40
1.0
176
1
 90
8
176
1
 62
7
176
1
 40
1.0
176
1
 90
1
176
1
 90
6
176
1
 90
2
176
1
 62
7
176
1
 90
5
176
1
 90
0
176
1
 90
0
176
1
290
0
176
1
 90
1
176
1
 40
0.0
176
1
 90
0
176
1
290
0
176
1
290
1
176
1
290
1
176
1
290
0
176
1
290
0
176
1
290
0
176
1
290
0
176
1
290
0
176
1
290
0
176
1
 90
50
176
1
 40
0.0
176
1
 40
1.0
176
1
 90
0
176
1
 62
18
420
0
176
1
 90
50
176
1
 90
3
176
1
 62
5
420
255
176
1
290
0
176
1
 90
50
176
1
 90
50
176
1
 90
50
176
1
290
0
176
1
 90
50
176
1
 62
256
176
0
 40
1.0
176
0
 90
2
176
1
  1
strokes_ogs.tif
176
1
290
0
176
1
 40
1.0
176
1
 40
1.0
176
1
  0
VISUALSTYLE
  5
5C
102
{ACAD_REACTORS
330
16
102
}
330
16
100
AcDbVisualStyle
  2
Brighten
 70
12
177
3
291
1
 70
58
 90
2
176
1
 90
2
176
1
 90
0
176
1
 90
2
176
1
 40
0.6
176
1
 40
30.0
176
1
 62
7
420
16777215
176
1
 90
1
176
1
 90
4
176
1
 62
7
176
1
 62
257
176
1
 90
1
176
1
 90
1
176
1
 40
1.0
176
1
 90
8
176
1
 62
7
176
1
 40
1.0
176
1
 90
1
176
1
 90
6
176
1
 90
2
176
1
 62
7
176
1
 90
5
176
1
 90
0
176
1
 90
0
176
1
290
0
176
1
 90
1
176
1
 40
0.0
176
1
 90
0
176
1
290
0
176
1
290
1
176
1
290
1
176
1
290
0
176
1
290
0
176
1
290
0
176
1
290
0
176
1
290
0
176
1
290
0
176
1
 90
50
176
1
 40
0.0
176
1
 40
1.0
176
1
 90
0
176
1
 62
18
420
0
176
1
 90
50
176
1
 90
3
176
1
 62
5
420
255
176
1
290
0
176
1
 90
50
176
1
 90
50
176
1
 90
50
176
1
290
0
176
1
 90
50
176
1
 62
256
176
0
 40
1.0
176
0
 90
2
176
1
  1
strokes_ogs.tif
176
1
290
0
176
1
 40
1.0
176
1
 40
1.0
176
1
  0
VISUALSTYLE
  5
5D
102
{ACAD_REACTORS
330
16
102
}
330
16
100
AcDbVisualStyle
  2
ColorChange
 70
16
177
3
291
1
 70
58
 90
2
176
1
 90
2
176
1
 90
0
176
1
 90
2
176
1
 40
0.6
176
1
 40
30.0
176
1
 62
7
420
16777215
176
1
 90
1
176
1
 90
4
176
1
 62
7
176
1
 62
257
176
1
 90
1
176
1
 90
1
176
1
 40
1.0
176
1
 90
8
176
1
 62
7
176
1
 40
1.0
176
1
 90
1
176
1
 90
6
176
1
 90
2
176
1
 62
7
176
1
 90
5
176
1
 90
0
176
1
 90
0
176
1
290
0
176
1
 90
1
176
1
 40
0.0
176
1
 90
0
176
1
290
0
176
1
290
1
176
1
290
1
176
1
290
0
176
1
290
0
176
1
290
0
176
1
290
0
176
1
290
0
176
1
290
0
176
1
 90
50
176
1
 40
0.0
176
1
 40
1.0
176
1
 90
0
176
1
 62
18
420
0
176
1
 90
50
176
1
 90
3
176
1
 62
5
420
255
176
1
290
0
176
1
 90
50
176
1
 90
50
176
1
 90
50
176
1
290
0
176
1
 90
50
176
1
 62
256
176
0
 40
1.0
176
0
 90
2
176
1
  1
strokes_ogs.tif
176
1
290
0
176
1
 40
1.0
176
1
 40
1.0
176
1
  0
VISUALSTYLE
  5
5E
102
{ACAD_REACTORS
330
16
102
}
330
16
100
AcDbVisualStyle
  2
Conceptual
 70
9
177
3
291
0
 70
58
 90
2
176
1
 90
2
176
1
 90
0
176
1
 90
3
176
1
 40
0.6
176
1
 40
30.0
176
1
 62
7
420
16777215
176
1
 90
1
176
1
 90
4
176
1
 62
7
176
1
 62
257
176
1
 90
1
176
1
 90
1
176
1
 40
1.0
176
1
 90
8
176
1
 62
7
176
1
 40
1.0
176
1
 90
1
176
1
 90
6
176
1
 90
2
176
1
 62
7
176
1
 90
5
176
1
 90
0
176
1
 90
0
176
1
290
0
176
1
 90
1
176
1
 40
0.0
176
1
 90
0
176
1
290
0
176
1
290
1
176
1
290
1
176
1
290
0
176
1
290
0
176
1
290
0
176
1
290
0
176
1
290
0
176
1
290
0
176
1
 90
50
176
1
 40
0.0
176
1
 40
1.0
176
1
 90
0
176
1
 62
18
420
0
176
1
 90
50
176
1
 90
3
176
1
 62
5
420
255
176
1
290
0
176
1
 90
50
176
1
 90
50
176
1
 90
50
176
1
290
0
176
1
 90
50
176
1
 62
256
176
0
 40
1.0
176
0
 90
2
176
1
  1
strokes_ogs.tif
176
1
290
0
176
1
 40
1.0
176
1
 40
1.0
176
1
  0
VISUALSTYLE
  5
5F
102
{ACAD_REACTORS
330
16
102
}
330
16
100
AcDbVisualStyle
  2
Dim
 70
11
177
3
291
1
 70
58
 90
2
176
1
 90
2
176
1
 90
0
176
1
 90
2
176
1
 40
0.6
176
1
 40
30.0
176
1
 62
7
420
16777215
176
1
 90
1
176
1
 90
4
176
1
 62
7
176
1
 62
257
176
1
 90
1
176
1
 90
1
176
1
 40
1.0
176
1
 90
8
176
1
 62
7
176
1
 40
1.0
176
1
 90
1
176
1
 90
6
176
1
 90
2
176
1
 62
7
176
1
 90
5
176
1
 90
0
176
1
 90
0
176
1
290
0
176
1
 90
1
176
1
 40
0.0
176
1
 90
0
176
1
290
0
176
1
290
1
176
1
290
1
176
1
290
0
176
1
290
0
176
1
290
0
176
1
290
0
176
1
290
0
176
1
290
0
176
1
 90
50
176
1
 40
0.0
176
1
 40
1.0
176
1
 90
0
176
1
 62
18
420
0
176
1
 90
50
176
1
 90
3
176
1
 62
5
420
255
176
1
290
0
176
1
 90
50
176
1
 90
50
176
1
 90
50
176
1
290
0
176
1
 90
50
176
1
 62
256
176
0
 40
1.0
176
0
 90
2
176
1
  1
strokes_ogs.tif
176
1
290
0
176
1
 40
1.0
176
1
 40
1.0
176
1
  0
VISUALSTYLE
  5
60
102
{ACAD_REACTORS
330
16
102
}
330
16
100
AcDbVisualStyle
  2
EdgeColorOff
 70
22
177
3
291
1
 70
58
 90
2
176
1
 90
2
176
1
 90
0
176
1
 90
2
176
1
 40
0.6
176
1
 40
30.0
176
1
 62
7
420
16777215
176
1
 90
1
176
1
 90
4
176
1
 62
7
176
1
 62
257
176
1
 90
1
176
1
 90
1
176
1
 40
1.0
176
1
 90
8
176
1
 62
7
176
1
 40
1.0
176
1
 90
1
176
1
 90
6
176
1
 90
2
176
1
 62
7
176
1
 90
5
176
1
 90
0
176
1
 90
0
176
1
290
0
176
1
 90
1
176
1
 40
0.0
176
1
 90
0
176
1
290
0
176
1
290
1
176
1
290
1
176
1
290
0
176
1
290
0
176
1
290
0
176
1
290
0
176
1
290
0
176
1
290
0
176
1
 90
50
176
1
 40
0.0
176
1
 40
1.0
176
1
 90
0
176
1
 62
18
420
0
176
1
 90
50
176
1
 90
3
176
1
 62
5
420
255
176
1
290
0
176
1
 90
50
176
1
 90
50
176
1
 90
50
176
1
290
0
176
1
 90
50
176
1
 62
256
176
0
 40
1.0
176
0
 90
2
176
1
  1
strokes_ogs.tif
176
1
290
0
176
1
 40
1.0
176
1
 40
1.0
176
1
  0
VISUALSTYLE
  5
61
102
{ACAD_REACTORS
330
16
102
}
330
16
100
AcDbVisualStyle
  2
Facepattern
 70
15
177
3
291
1
 70
58
 90
2
176
1
 90
2
176
1
 90
0
176
1
 90
2
176
1
 40
0.6
176
1
 40
30.0
176
1
 62
7
420
16777215
176
1
 90
1
176
1
 90
4
176
1
 62
7
176
1
 62
257
176
1
 90
1
176
1
 90
1
176
1
 40
1.0
176
1
 90
8
176
1
 62
7
176
1
 40
1.0
176
1
 90
1
176
1
 90
6
176
1
 90
2
176
1
 62
7
176
1
 90
5
176
1
 90
0
176
1
 90
0
176
1
290
0
176
1
 90
1
176
1
 40
0.0
176
1
 90
0
176
1
290
0
176
1
290
1
176
1
290
1
176
1
290
0
176
1
290
0
176
1
290
0
176
1
290
0
176
1
290
0
176
1
290
0
176
1
 90
50
176
1
 40
0.0
176
1
 40
1.0
176
1
 90
0
176
1
 62
18
420
0
176
1
 90
50
176
1
 90
3
176
1
 62
5
420
255
176
1
290
0
176
1
 90
50
176
1
 90
50
176
1
 90
50
176
1
290
0
176
1
 90
50
176
1
 62
256
176
0
 40
1.0
176
0
 90
2
176
1
  1
strokes_ogs.tif
176
1
290
0
176
1
 40
1.0
176
1
 40
1.0
176
1
  0
VISUALSTYLE
  5
62
102
{ACAD_REACTORS
330
16
102
}
330
16
100
AcDbVisualStyle
  2
Flat
 70
0
177
3
291
1
 70
58
 90
2
176
1
 90
2
176
1
 90
0
176
1
 90
2
176
1
 40
0.6
176
1
 40
30.0
176
1
 62
7
420
16777215
176
1
 90
1
176
1
 90
4
176
1
 62
7
176
1
 62
257
176
1
 90
1
176
1
 90
1
176
1
 40
1.0
176
1
 90
8
176
1
 62
7
176
1
 40
1.0
176
1
 90
1
176
1
 90
6
176
1
 90
2
176
1
 62
7
176
1
 90
5
176
1
 90
0
176
1
 90
0
176
1
290
0
176
1
 90
1
176
1
 40
0.0
176
1
 90
0
176
1
290
0
176
1
290
1
176
1
290
1
176
1
290
0
176
1
290
0
176
1
290
0
176
1
290
0
176
1
290
0
176
1
290
0
176
1
 90
50
176
1
 40
0.0
176
1
 40
1.0
176
1
 90
0
176
1
 62
18
420
0
176
1
 90
50
176
1
 90
3
176
1
 62
5
420
255
176
1
290
0
176
1
 90
50
176
1
 90
50
176
1
 90
50
176
1
290
0
176
1
 90
50
176
1
 62
256
176
0
 40
1.0
176
0
 90
2
176
1
  1
strokes_ogs.tif
176
1
290
0
176
1
 40
1.0
176
1
 40
1.0
176
1
  0
VISUALSTYLE
  5
63
102
{ACAD_REACTORS
330
16
102
}
330
16
100
AcDbVisualStyle
  2
FlatWithEdges
 70
1
177
3
291
1
 70
58
 90
2
176
1
 90
2
176
1
 90
0
176
1
 90
2
176
1
 40
0.6
176
1
 40
30.0
176
1
 62
7
420
16777215
176
1
 90
1
176
1
 90
4
176
1
 62
7
176
1
 62
257
176
1
 90
1
176
1
 90
1
176
1
 40
1.0
176
1
 90
8
176
1
 62
7
176
1
 40
1.0
176
1
 90
1
176
1
 90
6
176
1
 90
2
176
1
 62
7
176
1
 90
5
176
1
 90
0
176
1
 90
0
176
1
290
0
176
1
 90
1
176
1
 40
0.0
176
1
 90
0
176
1
290
0
176
1
290
1
176
1
290
1
176
1
290
0
176
1
290
0
176
1
290
0
176
1
290
0
176
1
290
0
176
1
290
0
176
1
 90
50
176
1
 40
0.0
176
1
 40
1.0
176
1
 90
0
176
1
 62
18
420
0
176
1
 90
50
176
1
 90
3
176
1
 62
5
420
255
176
1
290
0
176
1
 90
50
176
1
 90
50
176
1
 90
50
176
1
290
0
176
1
 90
50
176
1
 62
256
176
0
 40
1.0
176
0
 90
2
176
1
  1
strokes_ogs.tif
176
1
290
0
176
1
 40
1.0
176
1
 40
1.0
176
1
  0
VISUALSTYLE
  5
64
102
{ACAD_REACTORS
330
16
102
}
330
16
100
AcDbVisualStyle
  2
Gouraud
 70
2
177
3
291
1
 70
58
 90
2
176
1
 90
2
176
1
 90
0
176
1
 90
2
176
1
 40
0.6
176
1
 40
30.0
176
1
 62
7
420
16777215
176
1
 90
1
176
1
 90
4
176
1
 62
7
176
1
 62
257
176
1
 90
1
176
1
 90
1
176
1
 40
1.0
176
1
 90
8
176
1
 62
7
176
1
 40
1.0
176
1
 90
1
176
1
 90
6
176
1
 90
2
176
1
 62
7
176
1
 90
5
176
1
 90
0
176
1
 90
0
176
1
290
0
176
1
 90
1
176
1
 40
0.0
176
1
 90
0
176
1
290
0
176
1
290
1
176
1
290
1
176
1
290
0
176
1
290
0
176
1
290
0
176
1
290
0
176
1
290
0
176
1
290
0
176
1
 90
50
176
1
 40
0.0
176
1
 40
1.0
176
1
 90
0
176
1
 62
18
420
0
176
1
 90
50
176
1
 90
3
176
1
 62
5
420
255
176
1
290
0
176
1
 90
50
176
1
 90
50
176
1
 90
50
176
1
290
0
176
1
 90
50
176
1
 62
256
176
0
 40
1.0
176
0
 90
2
176
1
  1
strokes_ogs.tif
176
1
290
0
176
1
 40
1.0
176
1
 40
1.0
176
1
  0
VISUALSTYLE
  5
65
102
{ACAD_REACTORS
330
16
102
}
330
16
100
AcDbVisualStyle
  2
GouraudWithEdges
 70
3
177
3
291
1
 70
58
 90
2
176
1
 90
2
176
1
 90
0
176
1
 90
2
176
1
 40
0.6
176
1
 40
30.0
176
1
 62
7
420
16777215
176
1
 90
1
176
1
 90
4
176
1
 62
7
176
1
 62
257
176
1
 90
1
176
1
 90
1
176
1
 40
1.0
176
1
 90
8
176
1
 62
7
176
1
 40
1.0
176
1
 90
1
176
1
 90
6
176
1
 90
2
176
1
 62
7
176
1
 90
5
176
1
 90
0
176
1
 90
0
176
1
290
0
176
1
 90
1
176
1
 40
0.0
176
1
 90
0
176
1
290
0
176
1
290
1
176
1
290
1
176
1
290
0
176
1
290
0
176
1
290
0
176
1
290
0
176
1
290
0
176
1
290
0
176
1
 90
50
176
1
 40
0.0
176
1
 40
1.0
176
1
 90
0
176
1
 62
18
420
0
176
1
 90
50
176
1
 90
3
176
1
 62
5
420
255
176
1
290
0
176
1
 90
50
176
1
 90
50
176
1
 90
50
176
1
290
0
176
1
 90
50
176
1
 62
256
176
0
 40
1.0
176
0
 90
2
176
1
  1
strokes_ogs.tif
176
1
290
0
176
1
 40
1.0
176
1
 40
1.0
176
1
  0
VISUALSTYLE
  5
66
102
{ACAD_REACTORS
330
16
102
}
330
16
100
AcDbVisualStyle
  2
Hidden
 70
6
177
3
291
0
 70
58
 90
2
176
1
 90
2
176
1
 90
0
176
1
 90
1
176
1
 40
0.6
176
1
 40
30.0
176
1
 62
7
420
16777215
176
1
 90
1
176
1
 90
4
176
1
 62
7
176
1
 62
257
176
1
 90
1
176
1
 90
1
176
1
 40
1.0
176
1
 90
8
176
1
 62
7
176
1
 40
1.0
176
1
 90
1
176
1
 90
6
176
1
 90
2
176
1
 62
7
176
1
 90
5
176
1
 90
0
176
1
 90
0
176
1
290
0
176
1
 90
1
176
1
 40
0.0
176
1
 90
0
176
1
290
0
176
1
290
1
176
1
290
1
176
1
290
0
176
1
290
0
176
1
290
0
176
1
290
0
176
1
290
0
176
1
290
0
176
1
 90
50
176
1
 40
0.0
176
1
 40
1.0
176
1
 90
0
176
1
 62
18
420
0
176
1
 90
50
176
1
 90
3
176
1
 62
5
420
255
176
1
290
0
176
1
 90
50
176
1
 90
50
176
1
 90
50
176
1
290
0
176
1
 90
50
176
1
 62
256
176
0
 40
1.0
176
0
 90
2
176
1
  1
strokes_ogs.tif
176
1
290
0
176
1
 40
1.0
176
1
 40
1.0
176
1
  0
VISUALSTYLE
  5
67
102
{ACAD_REACTORS
330
16
102
}
330
16
100
AcDbVisualStyle
  2
JitterOff
 70
20
177
3
291
1
 70
58
 90
2
176
1
 90
2
176
1
 90
0
176
1
 90
2
176
1
 40
0.6
176
1
 40
30.0
176
1
 62
7
420
16777215
176
1
 90
1
176
1
 90
4
176
1
 62
7
176
1
 62
257
176
1
 90
1
176
1
 90
1
176
1
 40
1.0
176
1
 90
8
176
1
 62
7
176
1
 40
1.0
176
1
 90
1
176
1
 90
6
176
1
 90
2
176
1
 62
7
176
1
 90
5
176
1
 90
0
176
1
 90
0
176
1
290
0
176
1
 90
1
176
1
 40
0.0
176
1
 90
0
176
1
290
0
176
1
290
1
176
1
290
1
176
1
290
0
176
1
290
0
176
1
290
0
176
1
290
0
176
1
290
0
176
1
290
0
176
1
 90
50
176
1
 40
0.0
176
1
 40
1.0
176
1
 90
0
176
1
 62
18
420
0
176
1
 90
50
176
1
 90
3
176
1
 62
5
420
255
176
1
290
0
176
1
 90
50
176
1
 90
50
176
1
 90
50
176
1
290
0
176
1
 90
50
176
1
 62
256
176
0
 40
1.0
176
0
 90
2
176
1
  1
strokes_ogs.tif
176
1
290
0
176
1
 40
1.0
176
1
 40
1.0
176
1
  0
VISUALSTYLE
  5
68
102
{ACAD_REACTORS
330
16
102
}
330
16
100
AcDbVisualStyle
  2
Linepattern
 70
14
177
3
291
1
 70
58
 90
2
176
1
 90
2
176
1
 90
0
176
1
 90
2
176
1
 40
0.6
176
1
 40
30.0
176
1
 62
7
420
16777215
176
1
 90
1
176
1
 90
4
176
1
 62
7
176
1
 62
257
176
1
 90
1
176
1
 90
1
176
1
 40
1.0
176
1
 90
8
176
1
 62
7
176
1
 40
1.0
176
1
 90
1
176
1
 90
6
176
1
 90
2
176
1
 62
7
176
1
 90
5
176
1
 90
0
176
1
 90
0
176
1
290
0
176
1
 90
1
176
1
 40
0.0
176
1
 90
0
176
1
290
0
176
1
290
1
176
1
290
1
176
1
290
0
176
1
290
0
176
1
290
0
176
1
290
0
176
1
290
0
176
1
290
0
176
1
 90
50
176
1
 40
0.0
176
1
 40
1.0
176
1
 90
0
176
1
 62
18
420
0
176
1
 90
50
176
1
 90
3
176
1
 62
5
420
255
176
1
290
0
176
1
 90
50
176
1
 90
50
176
1
 90
50
176
1
290
0
176
1
 90
50
176
1
 62
256
176
0
 40
1.0
176
0
 90
2
176
1
  1
strokes_ogs.tif
176
1
290
0
176
1
 40
1.0
176
1
 40
1.0
176
1
  0
VISUALSTYLE
  5
69
102
{ACAD_REACTORS
330
16
102
}
330
16
100
AcDbVisualStyle
  2
Modeling
 70
10
177
3
291
0
 70
58
 90
2
176
1
 90
2
176
1
 90
0
176
1
 90
2
176
1
 40
0.6
176
1
 40
30.0
176
1
 62
7
420
16777215
176
1
 90
1
176
1
 90
4
176
1
 62
7
176
1
 62
257
176
1
 90
1
176
1
 90
1
176
1
 40
1.0
176
1
 90
8
176
1
 62
7
176
1
 40
1.0
176
1
 90
1
176
1
 90
6
176
1
 90
2
176
1
 62
7
176
1
 90
5
176
1
 90
0
176
1
 90
0
176
1
290
0
176
1
 90
1
176
1
 40
0.0
176
1
 90
0
176
1
290
0
176
1
290
1
176
1
290
1
176
1
290
0
176
1
290
0
176
1
290
0
176
1
290
0
176
1
290
0
176
1
290
0
176
1
 90
50
176
1
 40
0.0
176
1
 40
1.0
176
1
 90
0
176
1
 62
18
420
0
176
1
 90
50
176
1
 90
3
176
1
 62
5
420
255
176
1
290
0
176
1
 90
50
176
1
 90
50
176
1
 90
50
176
1
290
0
176
1
 90
50
176
1
 62
256
176
0
 40
1.0
176
0
 90
2
176
1
  1
strokes_ogs.tif
176
1
290
0
176
1
 40
1.0
176
1
 40
1.0
176
1
  0
VISUALSTYLE
  5
6A
102
{ACAD_REACTORS
330
16
102
}
330
16
100
AcDbVisualStyle
  2
OverhangOff
 70
21
177
3
291
1
 70
58
 90
2
176
1
 90
2
176
1
 90
0
176
1
 90
2
176
1
 40
0.6
176
1
 40
30.0
176
1
 62
7
420
16777215
176
1
 90
1
176
1
 90
4
176
1
 62
7
176
1
 62
257
176
1
 90
1
176
1
 90
1
176
1
 40
1.0
176
1
 90
8
176
1
 62
7
176
1
 40
1.0
176
1
 90
1
176
1
 90
6
176
1
 90
2
176
1
 62
7
176
1
 90
5
176
1
 90
0
176
1
 90
0
176
1
290
0
176
1
 90
1
176
1
 40
0.0
176
1
 90
0
176
1
290
0
176
1
290
1
176
1
290
1
176
1
290
0
176
1
290
0
176
1
290
0
176
1
290
0
176
1
290
0
176
1
290
0
176
1
 90
50
176
1
 40
0.0
176
1
 40
1.0
176
1
 90
0
176
1
 62
18
420
0
176
1
 90
50
176
1
 90
3
176
1
 62
5
420
255
176
1
290
0
176
1
 90
50
176
1
 90
50
176
1
 90
50
176
1
290
0
176
1
 90
50
176
1
 62
256
176
0
 40
1.0
176
0
 90
2
176
1
  1
strokes_ogs.tif
176
1
290
0
176
1
 40
1.0
176
1
 40
1.0
176
1
  0
VISUALSTYLE
  5
6B
102
{ACAD_REACTORS
330
16
102
}
330
16
100
AcDbVisualStyle
  2
Realistic
 70
8
177
3
291
0
 70
58
 90
2
176
1
 90
2
176
1
 90
0
176
1
 90
2
176
1
 40
0.6
176
1
 40
30.0
176
1
 62
7
420
16777215
176
1
 90
1
176
1
 90
4
176
1
 62
7
176
1
 62
257
176
1
 90
1
176
1
 90
1
176
1
 40
1.0
176
1
 90
8
176
1
 62
7
176
1
 40
1.0
176
1
 90
1
176
1
 90
6
176
1
 90
2
176
1
 62
7
176
1
 90
5
176
1
 90
0
176
1
 90
0
176
1
290
0
176
1
 90
1
176
1
 40
0.0
176
1
 90
0
176
1
290
0
176
1
290
1
176
1
290
1
176
1
290
0
176
1
290
0
176
1
290
0
176
1
290
0
176
1
290
0
176
1
290
0
176
1
 90
50
176
1
 40
0.0
176
1
 40
1.0
176
1
 90
0
176
1
 62
18
420
0
176
1
 90
50
176
1
 90
3
176
1
 62
5
420
255
176
1
290
0
176
1
 90
50
176
1
 90
50
176
1
 90
50
176
1
290
0
176
1
 90
50
176
1
 62
256
176
0
 40
1.0
176
0
 90
2
176
1
  1
strokes_ogs.tif
176
1
290
0
176
1
 40
1.0
176
1
 40
1.0
176
1
  0
VISUALSTYLE
  5
6C
102
{ACAD_REACTORS
330
16
102
}
330
16
100
AcDbVisualStyle
  2
Shaded
 70
27
177
3
291
0
 70
58
 90
2
176
1
 90
2
176
1
 90
0
176
1
 90
2
176
1
 40
0.6
176
1
 40
30.0
176
1
 62
7
420
16777215
176
1
 90
1
176
1
 90
4
176
1
 62
7
176
1
 62
257
176
1
 90
1
176
1
 90
1
176
1
 40
1.0
176
1
 90
8
176
1
 62
7
176
1
 40
1.0
176
1
 90
1
176
1
 90
6
176
1
 90
2
176
1
 62
7
176
1
 90
5
176
1
 90
0
176
1
 90
0
176
1
290
0
176
1
 90
1
176
1
 40
0.0
176
1
 90
0
176
1
290
0
176
1
290
1
176
1
290
1
176
1
290
0
176
1
290
0
176
1
290
0
176
1
290
0
176
1
290
0
176
1
290
0
176
1
 90
50
176
1
 40
0.0
176
1
 40
1.0
176
1
 90
0
176
1
 62
18
420
0
176
1
 90
50
176
1
 90
3
176
1
 62
5
420
255
176
1
290
0
176
1
 90
50
176
1
 90
50
176
1
 90
50
176
1
290
0
176
1
 90
50
176
1
 62
256
176
0
 40
1.0
176
0
 90
2
176
1
  1
strokes_ogs.tif
176
1
290
0
176
1
 40
1.0
176
1
 40
1.0
176
1
  0
VISUALSTYLE
  5
6D
102
{ACAD_REACTORS
330
16
102
}
330
16
100
AcDbVisualStyle
  2
Shaded with edges
 70
26
177
3
291
0
 70
58
 90
2
176
1
 90
2
176
1
 90
0
176
1
 90
2
176
1
 40
0.6
176
1
 40
30.0
176
1
 62
7
420
16777215
176
1
 90
1
176
1
 90
4
176
1
 62
7
176
1
 62
257
176
1
 90
1
176
1
 90
1
176
1
 40
1.0
176
1
 90
8
176
1
 62
7
176
1
 40
1.0
176
1
 90
1
176
1
 90
6
176
1
 90
2
176
1
 62
7
176
1
 90
5
176
1
 90
0
176
1
 90
0
176
1
290
0
176
1
 90
1
176
1
 40
0.0
176
1
 90
0
176
1
290
0
176
1
290
1
176
1
290
1
176
1
290
0
176
1
290
0
176
1
290
0
176
1
290
0
176
1
290
0
176
1
290
0
176
1
 90
50
176
1
 40
0.0
176
1
 40
1.0
176
1
 90
0
176
1
 62
18
420
0
176
1
 90
50
176
1
 90
3
176
1
 62
5
420
255
176
1
290
0
176
1
 90
50
176
1
 90
50
176
1
 90
50
176
1
290
0
176
1
 90
50
176
1
 62
256
176
0
 40
1.0
176
0
 90
2
176
1
  1
strokes_ogs.tif
176
1
290
0
176
1
 40
1.0
176
1
 40
1.0
176
1
  0
VISUALSTYLE
  5
6E
102
{ACAD_REACTORS
330
16
102
}
330
16
100
AcDbVisualStyle
  2
Shades of Gray
 70
23
177
3
291
0
 70
58
 90
2
176
1
 90
2
176
1
 90
0
176
1
 90
2
176
1
 40
0.6
176
1
 40
30.0
176
1
 62
7
420
16777215
176
1
 90
1
176
1
 90
4
176
1
 62
7
176
1
 62
257
176
1
 90
1
176
1
 90
1
176
1
 40
1.0
176
1
 90
8
176
1
 62
7
176
1
 40
1.0
176
1
 90
1
176
1
 90
6
176
1
 90
2
176
1
 62
7
176
1
 90
5
176
1
 90
0
176
1
 90
0
176
1
290
0
176
1
 90
1
176
1
 40
0.0
176
1
 90
0
176
1
290
0
176
1
290
1
176
1
290
1
176
1
290
0
176
1
290
0
176
1
290
0
176
1
290
0
176
1
290
0
176
1
290
0
176
1
 90
50
176
1
 40
0.0
176
1
 40
1.0
176
1
 90
0
176
1
 62
18
420
0
176
1
 90
50
176
1
 90
3
176
1
 62
5
420
255
176
1
290
0
176
1
 90
50
176
1
 90
50
176
1
 90
50
176
1
290
0
176
1
 90
50
176
1
 62
256
176
0
 40
1.0
176
0
 90
2
176
1
  1
strokes_ogs.tif
176
1
290
0
176
1
 40
1.0
176
1
 40
1.0
176
1
  0
VISUALSTYLE
  5
6F
102
{ACAD_REACTORS
330
16
102
}
330
16
100
AcDbVisualStyle
  2
Sketchy
 70
24
177
3
291
0
 70
58
 90
2
176
1
 90
2
176
1
 90
0
176
1
 90
1
176
1
 40
0.6
176
1
 40
30.0
176
1
 62
7
420
16777215
176
1
 90
1
176
1
 90
4
176
1
 62
7
176
1
 62
257
176
1
 90
1
176
1
 90
1
176
1
 40
1.0
176
1
 90
8
176
1
 62
7
176
1
 40
1.0
176
1
 90
1
176
1
 90
6
176
1
 90
2
176
1
 62
7
176
1
 90
5
176
1
 90
0
176
1
 90
0
176
1
290
0
176
1
 90
1
176
1
 40
0.0
176
1
 90
0
176
1
290
0
176
1
290
1
176
1
290
1
176
1
290
0
176
1
290
0
176
1
290
0
176
1
290
0
176
1
290
0
176
1
290
0
176
1
 90
50
176
1
 40
0.0
176
1
 40
1.0
176
1
 90
0
176
1
 62
18
420
0
176
1
 90
50
176
1
 90
3
176
1
 62
5
420
255
176
1
290
0
176
1
 90
50
176
1
 90
50
176
1
 90
50
176
1
290
0
176
1
 90
50
176
1
 62
256
176
0
 40
1.0
176
0
 90
2
176
1
  1
strokes_ogs.tif
176
1
290
0
176
1
 40
1.0
176
1
 40
1.0
176
1
  0
VISUALSTYLE
  5
70
102
{ACAD_REACTORS
330
16
102
}
330
16
100
AcDbVisualStyle
  2
Thicken
 70
13
177
3
291
1
 70
58
 90
2
176
1
 90
2
176
1
 90
0
176
1
 90
2
176
1
 40
0.6
176
1
 40
30.0
176
1
 62
7
420
16777215
176
1
 90
1
176
1
 90
4
176
1
 62
7
176
1
 62
257
176
1
 90
1
176
1
 90
1
176
1
 40
1.0
176
1
 90
8
176
1
 62
7
176
1
 40
1.0
176
1
 90
1
176
1
 90
6
176
1
 90
2
176
1
 62
7
176
1
 90
5
176
1
 90
0
176
1
 90
0
176
1
290
0
176
1
 90
1
176
1
 40
0.0
176
1
 90
0
176
1
290
0
176
1
290
1
176
1
290
1
176
1
290
0
176
1
290
0
176
1
290
0
176
1
290
0
176
1
290
0
176
1
290
0
176
1
 90
50
176
1
 40
0.0
176
1
 40
1.0
176
1
 90
0
176
1
 62
18
420
0
176
1
 90
50
176
1
 90
3
176
1
 62
5
420
255
176
1
290
0
176
1
 90
50
176
1
 90
50
176
1
 90
50
176
1
290
0
176
1
 90
50
176
1
 62
256
176
0
 40
1.0
176
0
 90
2
176
1
  1
strokes_ogs.tif
176
1
290
0
176
1
 40
1.0
176
1
 40
1.0
176
1
  0
VISUALSTYLE
  5
71
102
{ACAD_REACTORS
330
16
102
}
330
16
100
AcDbVisualStyle
  2
Wireframe
 70
5
177
3
291
0
 70
58
 90
2
176
1
 90
2
176
1
 90
0
176
1
 90
0
176
1
 40
0.6
176
1
 40
30.0
176
1
 62
7
420
16777215
176
1
 90
1
176
1
 90
4
176
1
 62
7
176
1
 62
257
176
1
 90
1
176
1
 90
1
176
1
 40
1.0
176
1
 90
8
176
1
 62
7
176
1
 40
1.0
176
1
 90
1
176
1
 90
6
176
1
 90
2
176
1
 62
7
176
1
 90
5
176
1
 90
0
176
1
 90
0
176
1
290
0
176
1
 90
1
176
1
 40
0.0
176
1
 90
0
176
1
290
0
176
1
290
1
176
1
290
1
176
1
290
0
176
1
290
0
176
1
290
0
176
1
290
0
176
1
290
0
176
1
290
0
176
1
 90
50
176
1
 40
0.0
176
1
 40
1.0
176
1
 90
0
176
1
 62
18
420
0
176
1
 90
50
176
1
 90
3
176
1
 62
5
420
255
176
1
290
0
176
1
 90
50
176
1
 90
50
176
1
 90
50
176
1
290
0
176
1
 90
50
176
1
 62
256
176
0
 40
1.0
176
0
 90
2
176
1
  1
strokes_ogs.tif
176
1
290
0
176
1
 40
1.0
176
1
 40
1.0
176
1
  0
VISUALSTYLE
  5
72
102
{ACAD_REACTORS
330
16
102
}
330
16
100
AcDbVisualStyle
  2
X-Ray
 70
25
177
3
291
0
 70
58
 90
2
176
1
 90
2
176
1
 90
0
176
1
 90
2
176
1
 40
0.5
176
1
 40
30.0
176
1
 62
7
420
16777215
176
1
 90
1
176
1
 90
4
176
1
 62
7
176
1
 62
257
176
1
 90
1
176
1
 90
1
176
1
 40
1.0
176
1
 90
8
176
1
 62
7
176
1
 40
1.0
176
1
 90
1
176
1
 90
6
176
1
 90
2
176
1
 62
7
176
1
 90
5
176
1
 90
0
176
1
 90
0
176
1
290
0
176
1
 90
1
176
1
 40
0.0
176
1
 90
0
176
1
290
0
176
1
290
1
176
1
290
1
176
1
290
0
176
1
290
0
176
1
290
0
176
1
290
0
176
1
290
0
176
1
290
0
176
1
 90
50
176
1
 40
0.0
176
1
 40
1.0
176
1
 90
0
176
1
 62
18
420
0
176
1
 90
50
176
1
 90
3
176
1
 62
5
420
255
176
1
290
0
176
1
 90
50
176
1
 90
50
176
1
 90
50
176
1
290
0
176
1
 90
50
176
1
 62
256
176
0
 40
1.0
176
0
 90
2
176
1
  1
strokes_ogs.tif
176
1
290
0
176
1
 40
1.0
176
1
 40
1.0
176
1
  0
DICTIONARYVAR
  5
8F
330
2D
100
DictionaryVariables
280
0
  1
1.4.3 @ 2026-02-07T18:32:05.103091+00:00
  0
ENDSEC
  0
EOF
