  0
SECTION
  2
HEADER
  9
$ACADVER
  1
AC1027
  9
$ACADMAINTVER
 70
105
  9
$DWGCODEPAGE
  3
ANSI_1252
  9
$LASTSAVEDBY
  1
ezdxf
  9
$REQUIREDVERSIONS
160
0
  9
$INSBASE
 10
0.0
 20
0.0
 30
0.0
  9
$EXTMIN
 10
1e+20
 20
1e+20
 30
1e+20
  9
$EXTMAX
 10
-1e+20
 20
-1e+20
 30
-1e+20
  9
$LIMMIN
 10
0.0
 20
0.0
  9
$LIMMAX
 10
420.0
 20
297.0
  9
$ORTHOMODE
 70
0
  9
$REGENMODE
 70
1
  9
$FILLMODE
 70
1
  9
$QTEXTMODE
 70
0
  9
$MIRRTEXT
 70
1
  9
$LTSCALE
 40
1.0
  9
$ATTMODE
 70
1
  9
$TEXTSIZE
 40
2.5
  9
$TRACEWID
 40
1.0
  9
$TEXTSTYLE
  7
OpenSans
  9
$CLAYER
  8
0
  9
$CELTYPE
  6
ByLayer
  9
$CECOLOR
 62
256
  9
$CELTSCALE
 40
1.0
  9
$DISPSILH
 70
0
  9
$DIMSCALE
 40
1.0
  9
$DIMASZ
 40
0.175
  9
$DIMEXO
 40
0.125
  9
$DIMDLI
 40
3.75
  9
$DIMRND
 40
0.0
  9
$DIMDLE
 40
0.0
  9
$DIMEXE
 40
0.375
  9
$DIMTP
 40
0.0
  9
$DIMTM
 40
0.0
  9
$DIMTXT
 40
0.25
  9
$DIMCEN
 40
2.5
  9
$DIMTSZ
 40
0.0
  9
$DIMTOL
 70
0
  9
$DIMLIM
 70
0
  9
$DIMTIH
 70
0
  9
$DIMTOH
 70
0
  9
$DIMSE1
 70
0
  9
$DIMSE2
 70
0
  9
$DIMTAD
 70
1
  9
$DIMZIN
 70
12
  9
$DIMBLK
  1
ARCHTICK
  9
$DIMASO
 70
1
  9
$DIMSHO
 70
1
  9
$DIMPOST
  1

  9
$DIMAPOST
  1

  9
$DIMALT
 70
0
  9
$DIMALTD
 70
3
  9
$DIMALTF
 40
0.03937007874
  9
$DIMLFAC
 40
100.0
  9
$DIMTOFL
 70
1
  9
$DIMTVP
 40
0.0
  9
$DIMTIX
 70
0
  9
$DIMSOXD
 70
0
  9
$DIMSAH
 70
0
  9
$DIMBLK1
  1

  9
$DIMBLK2
  1

  9
$DIMSTYLE
  2
EZDXF
  9
$DIMCLRD
 70
0
  9
$DIMCLRE
 70
0
  9
$DIMCLRT
 70
0
  9
$DIMTFAC
 40
0.5
  9
$DIMGAP
 40
0.1
  9
$DIMJUST
 70
0
  9
$DIMSD1
 70
0
  9
$DIMSD2
 70
0
  9
$DIMTOLJ
 70
0
  9
$DIMTZIN
 70
8
  9
$DIMALTZ
 70
0
  9
$DIMALTTZ
 70
0
  9
$DIMUPT
 70
1
  9
$DIMDEC
 70
2
  9
$DIMTDEC
 70
2
  9
$DIMALTU
 70
2
  9
$DIMALTTD
 70
3
  9
$DIMTXSTY
  7
OpenSansCondensed-Light
  9
$DIMAUNIT
 70
0
  9
$DIMADEC
 70
2
  9
$DIMALTRND
 40
0.0
  9
$DIMAZIN
 70
3
  9
$DIMDSEP
 70
46
  9
$DIMATFIT
 70
3
  9
$DIMFRAC
 70
0
  9
$DIMLDRBLK
  1

  9
$DIMLUNIT
 70
2
  9
$DIMLWD
 70
-2
  9
$DIMLWE
 70
-2
  9
$DIMTMOVE
 70
2
  9
$DIMFXL
 40
1.0
  9
$DIMFXLON
 70
0
  9
$DIMJOGANG
 40
0.785398163397
  9
$DIMTFILL
 70
0
  9
$DIMTFILLCLR
 70
0
  9
$DIMARCSYM
 70
0
  9
$DIMLTYPE
  6

  9
$DIMLTEX1
  6

  9
$DIMLTEX2
  6

  9
$DIMTXTDIRECTION
 70
0
  9
$LUNITS
 70
2
  9
$LUPREC
 70
4
  9
$SKETCHINC
 40
1.0
  9
$FILLETRAD
 40
10.0
  9
$AUNITS
 70
0
  9
$AUPREC
 70
2
  9
$MENU
  1
.
  9
$ELEVATION
 40
0.0
  9
$PELEVATION
 40
0.0
  9
$THICKNESS
 40
0.0
  9
$LIMCHECK
 70
0
  9
$CHAMFERA
 40
0.0
  9
$CHAMFERB
 40
0.0
  9
$CHAMFERC
 40
0.0
  9
$CHAMFERD
 40
0.0
  9
$SKPOLY
 70
0
  9
$TDCREATE
 40
2461010.9638194446
  9
$TDUCREATE
 40
2458532.153996898
  9
$TDUPDATE
 40
2461010.9638194446
  9
$TDUUPDATE
 40
2458532.1544311
  9
$TDINDWG
 40
0.0
  9
$TDUSRTIMER
 40
0.0
  9
$USRTIMER
 70
1
  9
$ANGBASE
 50
0.0
  9
$ANGDIR
 70
0
  9
$PDMODE
 70
0
  9
$PDSIZE
 40
0.0
  9
$PLINEWID
 40
0.0
  9
$SPLFRAME
 70
0
  9
$SPLINETYPE
 70
6
  9
$SPLINESEGS
 70
8
  9
$HANDSEED
  5
90
  9
$SURFTAB1
 70
6
  9
$SURFTAB2
 70
6
  9
$SURFTYPE
 70
6
  9
$SURFU
 70
6
  9
$SURFV
 70
6
  9
$UCSBASE
  2

  9
$UCSNAME
  2

  9
$UCSORG
 10
0.0
 20
0.0
 30
0.0
  9
$UCSXDIR
 10
1.0
 20
0.0
 30
0.0
  9
$UCSYDIR
 10
0.0
 20
1.0
 30
0.0
  9
$UCSORTHOREF
  2

  9
$UCSORTHOVIEW
 70
0
  9
$UCSORGTOP
 10
0.0
 20
0.0
 30
0.0
  9
$UCSORGBOTTOM
 10
0.0
 20
0.0
 30
0.0
  9
$UCSORGLEFT
 10
0.0
 20
0.0
 30
0.0
  9
$UCSORGRIGHT
 10
0.0
 20
0.0
 30
0.0
  9
$UCSORGFRONT
 10
0.0
 20
0.0
 30
0.0
  9
$UCSORGBACK
 10
0.0
 20
0.0
 30
0.0
  9
$PUCSBASE
  2

  9
$PUCSNAME
  2

  9
$PUCSORG
 10
0.0
 20
0.0
 30
0.0
  9
$PUCSXDIR
 10
1.0
 20
0.0
 30
0.0
  9
$PUCSYDIR
 10
0.0
 20
1.0
 30
0.0
  9
$PUCSORTHOREF
  2

  9
$PUCSORTHOVIEW
 70
0
  9
$PUCSORGTOP
 10
0.0
 20
0.0
 30
0.0
  9
$PUCSORGBOTTOM
 10
0.0
 20
0.0
 30
0.0
  9
$PUCSORGLEFT
 10
0.0
 20
0.0
 30
0.0
  9
$PUCSORGRIGHT
 10
0.0
 20
0.0
 30
0.0
  9
$PUCSORGFRONT
 10
0.0
 20
0.0
 30
0.0
  9
$PUCSORGBACK
 10
0.0
 20
0.0
 30
0.0
  9
$USERI1
 70
0
  9
$USERI2
 70
0
  9
$USERI3
 70
0
  9
$USERI4
 70
0
  9
$USERI5
 70
0
  9
$USERR1
 40
0.0
  9
$USERR2
 40
0.0
  9
$USERR3
 40
0.0
  9
$USERR4
 40
0.0
  9
$USERR5
 40
0.0
  9
$WORLDVIEW
 70
1
  9
$SHADEDGE
 70
3
  9
$SHADEDIF
 70
70
  9
$TILEMODE
 70
1
  9
$MAXACTVP
 70
64
  9
$PINSBASE
 10
0.0
 20
0.0
 30
0.0
  9
$PLIMCHECK
 70
0
  9
$PEXTMIN
 10
1e+20
 20
1e+20
 30
1e+20
  9
$PEXTMAX
 10
-1e+20
 20
-1e+20
 30
-1e+20
  9
$PLIMMIN
 10
0.0
 20
0.0
  9
$PLIMMAX
 10
420.0
 20
297.0
  9
$UNITMODE
 70
0
  9
$VISRETAIN
 70
1
  9
$PLINEGEN
 70
0
  9
$PSLTSCALE
 70
1
  9
$TREEDEPTH
 70
3020
  9
$CMLSTYLE
  2
Standard
  9
$CMLJUST
 70
0
  9
$CMLSCALE
 40
20.0
  9
$PROXYGRAPHICS
 70
1
  9
$MEASUREMENT
 70
1
  9
$CELWEIGHT
370
-1
  9
$ENDCAPS
280
0
  9
$JOINSTYLE
280
0
  9
$LWDISPLAY
290
0
  9
$INSUNITS
 70
6
  9
$HYPERLINKBASE
  1

  9
$STYLESHEET
  1

  9
$XEDIT
290
1
  9
$CEPSNTYPE
380
0
  9
$PSTYLEMODE
290
1
  9
$FINGERPRINTGUID
  2
{4E2E668E-CA22-4A59-97EF-03298293C208}
  9
$VERSIONGUID
  2
{4A7F36AC-39CE-4B93-99F0-BF4FF00D1C28}
  9
$EXTNAMES
290
1
  9
$PSVPSCALE
 40
0.0
  9
$OLESTARTUP
290
0
  9
$SORTENTS
280
127
  9
$INDEXCTL
280
0
  9
$HIDETEXT
280
1
  9
$XCLIPFRAME
280
1
  9
$HALOGAP
280
0
  9
$OBSCOLOR
 70
257
  9
$OBSLTYPE
280
0
  9
$INTERSECTIONDISPLAY
280
0
  9
$INTERSECTIONCOLOR
 70
257
  9
$DIMASSOC
280
2
  9
$PROJECTNAME
  1

  9
$CAMERADISPLAY
290
0
  9
$LENSLENGTH
 40
50.0
  9
$CAMERAHEIGHT
 40
0.0
  9
$STEPSPERSEC
 40
24.0
  9
$STEPSIZE
 40
100.0
  9
$3DDWFPREC
 40
2.0
  9
$PSOLWIDTH
 40
0.005
  9
$PSOLHEIGHT
 40
0.08
  9
$LOFTANG1
 40
1.570796326795
  9
$LOFTANG2
 40
1.570796326795
  9
$LOFTMAG1
 40
0.0
  9
$LOFTMAG2
 40
0.0
  9
$LOFTPARAM
 70
7
  9
$LOFTNORMALS
280
1
  9
$LATITUDE
 40
37.795
  9
$LONGITUDE
 40
-122.394
  9
$NORTHDIRECTION
 40
0.0
  9
$TIMEZONE
 70
-8000
  9
$LIGHTGLYPHDISPLAY
280
1
  9
$TILEMODELIGHTSYNCH
280
1
  9
$CMATERIAL
347
20
  9
$SOLIDHIST
280
0
  9
$SHOWHIST
280
1
  9
$DWFFRAME
280
2
  9
$DGNFRAME
280
2
  9
$REALWORLDSCALE
290
1
  9
$INTERFERECOLOR
 62
256
  9
$CSHADOW
280
0
  9
$SHADOWPLANELOCATION
 40
0.0
  0
ENDSEC
  0
SECTION
  2
CLASSES
  0
CLASS
  1
ACDBDICTIONARYWDFLT
  2
AcDbDictionaryWithDefault
  3
ObjectDBX Classes
 90
0
 91
0
280
0
281
0
  0
CLASS
  1
SUN
  2
AcDbSun
  3
SCENEOE
 90
1153
 91
0
280
0
281
0
  0
CLASS
  1
VISUALSTYLE
  2
AcDbVisualStyle
  3
ObjectDBX Classes
 90
4095
 91
0
280
0
281
0
  0
CLASS
  1
MATERIAL
  2
AcDbMaterial
  3
ObjectDBX Classes
 90
1153
 91
0
280
0
281
0
  0
CLASS
  1
SCALE
  2
AcDbScale
  3
ObjectDBX Classes
 90
1153
 91
0
280
0
281
0
  0
CLASS
  1
TABLESTYLE
  2
AcDbTableStyle
  3
ObjectDBX Classes
 90
4095
 91
0
280
0
281
0
  0
CLASS
  1
MLEADERSTYLE
  2
AcDbMLeaderStyle
  3
ACDB_MLEADERSTYLE_CLASS
 90
4095
 91
0
280
0
281
0
  0
CLASS
  1
DICTIONARYVAR
  2
AcDbDictionaryVar
  3
ObjectDBX Classes
 90
0
 91
0
280
0
281
0
  0
CLASS
  1
CELLSTYLEMAP
  2
AcDbCellStyleMap
  3
ObjectDBX Classes
 90
1152
 91
0
280
0
281
0
  0
CLASS
  1
MENTALRAYRENDERSETTINGS
  2
AcDbMentalRayRenderSettings
  3
SCENEOE
 90
1024
 91
0
280
0
281
0
  0
CLASS
  1
ACDBDETAILVIEWSTYLE
  2
AcDbDetailViewStyle
  3
ObjectDBX Classes
 90
1025
 91
0
280
0
281
0
  0
CLASS
  1
ACDBSECTIONVIEWSTYLE
  2
AcDbSectionViewStyle
  3
ObjectDBX Classes
 90
1025
 91
0
280
0
281
0
  0
CLASS
  1
RASTERVARIABLES
  2
AcDbRasterVariables
  3
ISM
 90
0
 91
0
280
0
281
0
  0
CLASS
  1
ACDBPLACEHOLDER
  2
AcDbPlaceHolder
  3
ObjectDBX Classes
 90
0
 91
0
280
0
281
0
  0
CLASS
  1
LAYOUT
  2
AcDbLayout
  3
ObjectDBX Classes
 90
0
 91
0
280
0
281
0
  0
ENDSEC
  0
SECTION
  2
TABLES
  0
TABLE
  2
VPORT
  5
8
330
0
100
AcDbSymbolTable
 70
1
  0
VPORT
  5
23
330
8
100
AcDbSymbolTableRecord
100
AcDbViewportTableRecord
  2
*Active
 70
0
 10
0.0
 20
0.0
 11
1.0
 21
1.0
 12
0.0
 22
0.0
 13
0.0
 23
0.0
 14
0.5
 24
0.5
 15
0.5
 25
0.5
 16
0.0
 26
0.0
 36
1.0
 17
0.0
 27
0.0
 37
0.0
 40
1000.0
 41
1.34
 42
50.0
 43
0.0
 44
0.0
 50
0.0
 51
0.0
 71
0
 72
1000
 73
1
 74
3
 75
0
 76
0
 77
0
 78
0
281
0
 65
0
146
0.0
  0
ENDTAB
  0
TABLE
  2
LTYPE
  5
2
330
0
100
AcDbSymbolTable
 70
21
  0
LTYPE
  5
24
330
2
100
AcDbSymbolTableRecord
100
AcDbLinetypeTableRecord
  2
ByBlock
 70
0
  3

 72
65
 73
0
 40
0.0
  0
LTYPE
  5
25
330
2
100
AcDbSymbolTableRecord
100
AcDbLinetypeTableRecord
  2
ByLayer
 70
0
  3

 72
65
 73
0
 40
0.0
  0
LTYPE
  5
26
330
2
100
AcDbSymbolTableRecord
100
AcDbLinetypeTableRecord
  2
Continuous
 70
0
  3

 72
65
 73
0
 40
0.0
  0
LTYPE
  5
2F
330
2
100
AcDbSymbolTableRecord
100
AcDbLinetypeTableRecord
  2
CENTER
 70
0
  3
Center ____ _ ____ _ ____ _ ____ _ ____ _ ____
 72
65
 73
4
 40
5.08
 49
3.175
 74
0
 49
-0.635
 74
0
 49
0.635
 74
0
 49
-0.635
 74
0
  0
LTYPE
  5
30
330
2
100
AcDbSymbolTableRecord
100
AcDbLinetypeTableRecord
  2
CENTERX2
 70
0
  3
Center (2x) ________  __  ________  __  ________
 72
65
 73
4
 40
8.89
 49
6.35
 74
0
 49
-0.635
 74
0
 49
1.27
 74
0
 49
-0.635
 74
0
  0
LTYPE
  5
31
330
2
100
AcDbSymbolTableRecord
100
AcDbLinetypeTableRecord
  2
CENTER2
 70
0
  3
Center (.5x) ____ _ ____ _ ____ _ ____ _ ____
 72
65
 73
4
 40
2.54
 49
1.587
 74
0
 49
-0.318
 74
0
 49
0.318
 74
0
 49
-0.318
 74
0
  0
LTYPE
  5
32
330
2
100
AcDbSymbolTableRecord
100
AcDbLinetypeTableRecord
  2
DASHED
 70
0
  3
Dashed __ __ __ __ __ __ __ __ __ __ __ __ __ _
 72
65
 73
2
 40
1.524
 49
1.27
 74
0
 49
-0.254
 74
0
  0
LTYPE
  5
33
330
2
100
AcDbSymbolTableRecord
100
AcDbLinetypeTableRecord
  2
DASHEDX2
 70
0
  3
Dashed (2x) ____  ____  ____  ____  ____  ____
 72
65
 73
2
 40
3.048
 49
2.54
 74
0
 49
-0.508
 74
0
  0
LTYPE
  5
34
330
2
100
AcDbSymbolTableRecord
100
AcDbLinetypeTableRecord
  2
DASHED2
 70
0
  3
Dashed (.5x) _ _ _ _ _ _ _ _ _ _ _ _ _ _
 72
65
 73
2
 40
0.762
 49
0.635
 74
0
 49
-0.127
 74
0
  0
LTYPE
  5
35
330
2
100
AcDbSymbolTableRecord
100
AcDbLinetypeTableRecord
  2
PHANTOM
 70
0
  3
Phantom ______  __  __  ______  __  __  ______
 72
65
 73
6
 40
6.35
 49
3.175
 74
0
 49
-0.635
 74
0
 49
0.635
 74
0
 49
-0.635
 74
0
 49
0.635
 74
0
 49
-0.635
 74
0
  0
LTYPE
  5
36
330
2
100
AcDbSymbolTableRecord
100
AcDbLinetypeTableRecord
  2
PHANTOMX2
 70
0
  3
Phantom (2x)____________    ____    ____    ____________
 72
65
 73
6
 40
10.795
 49
6.35
 74
0
 49
-0.635
 74
0
 49
1.27
 74
0
 49
-0.635
 74
0
 49
1.27
 74
0
 49
-0.635
 74
0
  0
LTYPE
  5
37
330
2
100
AcDbSymbolTableRecord
100
AcDbLinetypeTableRecord
  2
PHANTOM2
 70
0
  3
Phantom (.5x) ___ _ _ ___ _ _ ___ _ _ ___ _ _ ___
 72
65
 73
6
 40
3.175
 49
1.587
 74
0
 49
-0.318
 74
0
 49
0.318
 74
0
 49
-0.318
 74
0
 49
0.318
 74
0
 49
-0.318
 74
0
  0
LTYPE
  5
38
330
2
100
AcDbSymbolTableRecord
100
AcDbLinetypeTableRecord
  2
DASHDOT
 70
0
  3
Dash dot __ . __ . __ . __ . __ . __ . __ . __
 72
65
 73
4
 40
3.556
 49
2.54
 74
0
 49
-0.508
 74
0
 49
0.0
 74
0
 49
-0.508
 74
0
  0
LTYPE
  5
39
330
2
100
AcDbSymbolTableRecord
100
AcDbLinetypeTableRecord
  2
DASHDOTX2
 70
0
  3
Dash dot (2x) ____  .  ____  .  ____  .  ____
 72
65
 73
4
 40
6.096
 49
5.08
 74
0
 49
-0.508
 74
0
 49
0.0
 74
0
 49
-0.508
 74
0
  0
LTYPE
  5
3A
330
2
100
AcDbSymbolTableRecord
100
AcDbLinetypeTableRecord
  2
DASHDOT2
 70
0
  3
Dash dot (.5x) _ . _ . _ . _ . _ . _ . _ . _
 72
65
 73
4
 40
1.778
 49
1.27
 74
0
 49
-0.254
 74
0
 49
0.0
 74
0
 49
-0.254
 74
0
  0
LTYPE
  5
3B
330
2
100
AcDbSymbolTableRecord
100
AcDbLinetypeTableRecord
  2
DOT
 70
0
  3
Dot .  .  .  .  .  .  .  .  .  .  .  .  .  .  .  .
 72
65
 73
2
 40
0.508
 49
0.0
 74
0
 49
-0.508
 74
0
  0
LTYPE
  5
3C
330
2
100
AcDbSymbolTableRecord
100
AcDbLinetypeTableRecord
  2
DOTX2
 70
0
  3
Dot (2x) .    .    .    .    .    .    .    . 
 72
65
 73
2
 40
1.016
 49
0.0
 74
0
 49
-1.016
 74
0
  0
LTYPE
  5
3D
330
2
100
AcDbSymbolTableRecord
100
AcDbLinetypeTableRecord
  2
DOT2
 70
0
  3
Dot (.5) . . . . . . . . . . . . . . . . . . . 
 72
65
 73
2
 40
0.254
 49
0.0
 74
0
 49
-0.254
 74
0
  0
LTYPE
  5
3E
330
2
100
AcDbSymbolTableRecord
100
AcDbLinetypeTableRecord
  2
DIVIDE
 70
0
  3
Divide __ . . __ . . __ . . __ . . __ . . __
 72
65
 73
6
 40
4.064
 49
2.54
 74
0
 49
-0.508
 74
0
 49
0.0
 74
0
 49
-0.508
 74
0
 49
0.0
 74
0
 49
-0.508
 74
0
  0
LTYPE
  5
3F
330
2
100
AcDbSymbolTableRecord
100
AcDbLinetypeTableRecord
  2
DIVIDEX2
 70
0
  3
Divide (2x) ____  . .  ____  . .  ____  . .  ____
 72
65
 73
6
 40
6.604
 49
5.08
 74
0
 49
-0.508
 74
0
 49
0.0
 74
0
 49
-0.508
 74
0
 49
0.0
 74
0
 49
-0.508
 74
0
  0
LTYPE
  5
40
330
2
100
AcDbSymbolTableRecord
100
AcDbLinetypeTableRecord
  2
DIVIDE2
 70
0
  3
Divide(.5x) _ . _ . _ . _ . _ . _ . _ . _
 72
65
 73
6
 40
2.032
 49
1.27
 74
0
 49
-0.254
 74
0
 49
0.0
 74
0
 49
-0.254
 74
0
 49
0.0
 74
0
 49
-0.254
 74
0
  0
ENDTAB
  0
TABLE
  2
LAYER
  5
1
330
0
100
AcDbSymbolTable
 70
2
  0
LAYER
  5
27
330
1
100
AcDbSymbolTableRecord
100
AcDbLayerTableRecord
  2
0
 70
0
 62
7
  6
Continuous
370
-3
390
13
347
21
  0
LAYER
  5
28
330
1
100
AcDbSymbolTableRecord
100
AcDbLayerTableRecord
  2
Defpoints
 70
0
 62
7
  6
Continuous
290
0
370
-3
390
13
347
21
  0
ENDTAB
  0
TABLE
  2
STYLE
  5
5
330
0
100
AcDbSymbolTable
 70
26
  0
STYLE
  5
29
330
5
100
AcDbSymbolTableRecord
100
AcDbTextStyleTableRecord
  2
Standard
 70
0
 40
0.0
 41
1.0
 50
0.0
 71
0
 42
2.5
  3
txt
  4

  0
STYLE
  5
41
330
5
100
AcDbSymbolTableRecord
100
AcDbTextStyleTableRecord
  2
OpenSans-Light
 70
0
 40
0.0
 41
1.0
 50
0.0
 71
0
 42
2.5
  3
OpenSans-Light.ttf
  4

  0
STYLE
  5
42
330
5
100
AcDbSymbolTableRecord
100
AcDbTextStyleTableRecord
  2
OpenSans-Light-Italic
 70
0
 40
0.0
 41
1.0
 50
0.0
 71
0
 42
2.5
  3
OpenSans-LightItalic.ttf
  4

  0
STYLE
  5
43
330
5
100
AcDbSymbolTableRecord
100
AcDbTextStyleTableRecord
  2
OpenSans
 70
0
 40
0.0
 41
1.0
 50
0.0
 71
0
 42
2.5
  3
OpenSans-Regular.ttf
  4

  0
STYLE
  5
44
330
5
100
AcDbSymbolTableRecord
100
AcDbTextStyleTableRecord
  2
OpenSans-Italic
 70
0
 40
0.0
 41
1.0
 50
0.0
 71
0
 42
2.5
  3
OpenSans-Italic.ttf
  4

  0
STYLE
  5
45
330
5
100
AcDbSymbolTableRecord
100
AcDbTextStyleTableRecord
  2
OpenSans-SemiBold
 70
0
 40
0.0
 41
1.0
 50
0.0
 71
0
 42
2.5
  3
OpenSans-SemiBold.ttf
  4

  0
STYLE
  5
46
330
5
100
AcDbSymbolTableRecord
100
AcDbTextStyleTableRecord
  2
OpenSans-SemiBoldItalic
 70
0
 40
0.0
 41
1.0
 50
0.0
 71
0
 42
2.5
  3
OpenSans-SemiBoldItalic.ttf
  4

  0
STYLE
  5
47
330
5
100
AcDbSymbolTableRecord
100
AcDbTextStyleTableRecord
  2
OpenSans-Bold
 70
0
 40
0.0
 41
1.0
 50
0.0
 71
0
 42
2.5
  3
OpenSans-Bold.ttf
  4

  0
STYLE
  5
48
330
5
100
AcDbSymbolTableRecord
100
AcDbTextStyleTableRecord
  2
OpenSans-BoldItalic
 70
0
 40
0.0
 41
1.0
 50
0.0
 71
0
 42
2.5
  3
OpenSans-BoldItalic.ttf
  4

  0
STYLE
  5
49
330
5
100
AcDbSymbolTableRecord
100
AcDbTextStyleTableRecord
  2
OpenSans-ExtraBold
 70
0
 40
0.0
 41
1.0
 50
0.0
 71
0
 42
2.5
  3
OpenSans-ExtraBold.ttf
  4

  0
STYLE
  5
4A
330
5
100
AcDbSymbolTableRecord
100
AcDbTextStyleTableRecord
  2
OpenSans-ExtraBoldItalic
 70
0
 40
0.0
 41
1.0
 50
0.0
 71
0
 42
2.5
  3
OpenSans-ExtraBoldItalic.ttf
  4

  0
STYLE
  5
4B
330
5
100
AcDbSymbolTableRecord
100
AcDbTextStyleTableRecord
  2
OpenSansCondensed-Bold
 70
0
 40
0.0
 41
1.0
 50
0.0
 71
0
 42
2.5
  3
OpenSansCondensed-Bold.ttf
  4

  0
STYLE
  5
4C
330
5
100
AcDbSymbolTableRecord
100
AcDbTextStyleTableRecord
  2
OpenSansCondensed-Light
 70
0
 40
0.0
 41
1.0
 50
0.0
 71
0
 42
2.5
  3
OpenSansCondensed-Light.ttf
  4

  0
STYLE
  5
4D
330
5
100
AcDbSymbolTableRecord
100
AcDbTextStyleTableRecord
  2
OpenSansCondensed-Italic
 70
0
 40
0.0
 41
1.0
 50
0.0
 71
0
 42
2.5
  3
OpenSansCondensed-LightItalic.ttf
  4

  0
STYLE
  5
4E
330
5
100
AcDbSymbolTableRecord
100
AcDbTextStyleTableRecord
  2
LiberationSans
 70
0
 40
0.0
 41
1.0
 50
0.0
 71
0
 42
2.5
  3
LiberationSans-Regular.ttf
  4

  0
STYLE
  5
4F
330
5
100
AcDbSymbolTableRecord
100
AcDbTextStyleTableRecord
  2
LiberationSans-Bold
 70
0
 40
0.0
 41
1.0
 50
0.0
 71
0
 42
2.5
  3
LiberationSans-Bold.ttf
  4

  0
STYLE
  5
50
330
5
100
AcDbSymbolTableRecord
100
AcDbTextStyleTableRecord
  2
LiberationSans-BoldItalic
 70
0
 40
0.0
 41
1.0
 50
0.0
 71
0
 42
2.5
  3
LiberationSans-BoldItalic.ttf
  4

  0
STYLE
  5
51
330
5
100
AcDbSymbolTableRecord
100
AcDbTextStyleTableRecord
  2
LiberationSans-Italic
 70
0
 40
0.0
 41
1.0
 50
0.0
 71
0
 42
2.5
  3
LiberationSans-Italic.ttf
  4

  0
STYLE
  5
52
330
5
100
AcDbSymbolTableRecord
100
AcDbTextStyleTableRecord
  2
LiberationSerif
 70
0
 40
0.0
 41
1.0
 50
0.0
 71
0
 42
2.5
  3
LiberationSerif-Regular.ttf
  4

  0
STYLE
  5
53
330
5
100
AcDbSymbolTableRecord
100
AcDbTextStyleTableRecord
  2
LiberationSerif-Bold
 70
0
 40
0.0
 41
1.0
 50
0.0
 71
0
 42
2.5
  3
LiberationSerif-Bold.ttf
  4

  0
STYLE
  5
54
330
5
100
AcDbSymbolTableRecord
100
AcDbTextStyleTableRecord
  2
LiberationSerif-BoldItalic
 70
0
 40
0.0
 41
1.0
 50
0.0
 71
0
 42
2.5
  3
LiberationSerif-BoldItalic.ttf
  4

  0
STYLE
  5
55
330
5
100
AcDbSymbolTableRecord
100
AcDbTextStyleTableRecord
  2
LiberationSerif-Italic
 70
0
 40
0.0
 41
1.0
 50
0.0
 71
0
 42
2.5
  3
LiberationSerif-Italic.ttf
  4

  0
STYLE
  5
56
330
5
100
AcDbSymbolTableRecord
100
AcDbTextStyleTableRecord
  2
LiberationMono
 70
0
 40
0.0
 41
1.0
 50
0.0
 71
0
 42
2.5
  3
LiberationMono-Regular.ttf
  4

  0
STYLE
  5
57
330
5
100
AcDbSymbolTableRecord
100
AcDbTextStyleTableRecord
  2
LiberationMono-Bold
 70
0
 40
0.0
 41
1.0
 50
0.0
 71
0
 42
2.5
  3
LiberationMono-Bold.ttf
  4

  0
STYLE
  5
58
330
5
100
AcDbSymbolTableRecord
100
AcDbTextStyleTableRecord
  2
LiberationMono-BoldItalic
 70
0
 40
0.0
 41
1.0
 50
0.0
 71
0
 42
2.5
  3
LiberationMono-BoldItalic.ttf
  4

  0
STYLE
  5
59
330
5
100
AcDbSymbolTableRecord
100
AcDbTextStyleTableRecord
  2
LiberationMono-Italic
 70
0
 40
0.0
 41
1.0
 50
0.0
 71
0
 42
2.5
  3
LiberationMono-Italic.ttf
  4

  0
ENDTAB
  0
TABLE
  2
VIEW
  5
7
330
0
100
AcDbSymbolTable
 70
0
  0
ENDTAB
  0
TABLE
  2
UCS
  5
6
330
0
100
AcDbSymbolTable
 70
0
  0
ENDTAB
  0
TABLE
  2
APPID
  5
3
330
0
100
AcDbSymbolTable
 70
3
  0
APPID
  5
2A
330
3
100
AcDbSymbolTableRecord
100
AcDbRegAppTableRecord
  2
ACAD
 70
0
  0
APPID
  5
8D
330
3
100
AcDbSymbolTableRecord
100
AcDbRegAppTableRecord
  2
HATCHBACKGROUNDCOLOR
 70
0
  0
APPID
  5
8E
330
3
100
AcDbSymbolTableRecord
100
AcDbRegAppTableRecord
  2
EZDXF
 70
0
  0
ENDTAB
  0
TABLE
  2
DIMSTYLE
  5
4
330
0
100
AcDbSymbolTable
 70
12
100
AcDbDimStyleTable
  0
DIMSTYLE
105
2B
330
4
100
AcDbSymbolTableRecord
100
AcDbDimStyleTableRecord
  2
Standard
 70
0
 40
1.0
 41
2.5
 42
0.625
 43
3.75
 44
1.25
 45
0.0
 46
0.0
 47
0.0
 48
0.0
 49
2.5
140
2.5
141
2.5
142
0.0
143
0.03937007874
144
1.0
145
0.0
146
1.0
147
0.625
148
0.0
 69
0
 70
0
 71
0
 72
0
 73
0
 74
0
 75
0
 76
0
 77
1
 78
8
 79
3
170
0
171
3
172
1
173
0
174
0
175
0
176
0
177
0
178
0
179
2
271
2
272
2
273
2
274
3
275
0
276
0
277
2
278
44
279
0
280
0
281
0
282
0
283
0
284
8
285
0
286
0
288
0
289
3
290
0
371
-2
372
-2
  0
DIMSTYLE
105
73
330
4
100
AcDbSymbolTableRecord
100
AcDbDimStyleTableRecord
  2
EZDXF
 70
0
 40
1.0
 41
0.175
 42
0.125
 43
3.75
 44
0.375
 45
0.0
 46
0.0
 47
0.0
 48
0.0
 49
2.5
140
0.25
141
2.5
142
0.0
143
0.03937007874
144
100.0
145
0.0
146
0.5
147
0.1
148
0.0
 69
0
 70
0
 71
0
 72
0
 73
0
 74
0
 75
0
 76
0
 77
1
 78
12
 79
3
170
0
171
3
172
1
173
0
174
0
175
0
176
0
177
0
178
0
179
2
271
2
272
2
273
2
274
3
275
0
276
0
277
2
278
46
279
2
280
0
281
0
282
0
283
0
284
8
285
0
286
0
288
1
289
3
290
0
340
4C
342
74
371
-2
372
-2
  0
DIMSTYLE
105
7C
330
4
100
AcDbSymbolTableRecord
100
AcDbDimStyleTableRecord
  2
EZ_M_100_H25_CM
 70
0
 40
1.0
 41
0.25
 42
0.125
 43
3.75
 44
0.375
 45
0.0
 46
0.0
 47
0.0
 48
0.0
 49
2.5
140
0.25
141
2.5
142
0.125
143
0.03937007874
144
100.0
145
0.0
146
0.5
147
0.1
148
0.0
 69
0
 70
0
 71
0
 72
0
 73
0
 74
0
 75
0
 76
0
 77
1
 78
12
 79
3
170
0
171
3
172
1
173
0
174
0
175
0
176
0
177
0
178
0
179
2
271
2
272
2
273
2
274
3
275
0
276
0
277
2
278
46
279
2
280
0
281
0
282
0
283
0
284
8
285
0
286
0
288
1
289
3
290
0
340
4C
371
-2
372
-2
  0
DIMSTYLE
105
7D
330
4
100
AcDbSymbolTableRecord
100
AcDbDimStyleTableRecord
  2
EZ_M_50_H25_CM
 70
0
 40
1.0
 41
0.125
 42
0.0625
 43
3.75
 44
0.1875
 45
0.0
 46
0.0
 47
0.0
 48
0.0
 49
2.5
140
0.125
141
2.5
142
0.0625
143
0.03937007874
144
100.0
145
0.0
146
0.5
147
0.05
148
0.0
 69
0
 70
0
 71
0
 72
0
 73
0
 74
0
 75
0
 76
0
 77
1
 78
12
 79
3
170
0
171
3
172
1
173
0
174
0
175
0
176
0
177
0
178
0
179
2
271
2
272
2
273
2
274
3
275
0
276
0
277
2
278
46
279
2
280
0
281
0
282
0
283
0
284
8
285
0
286
0
288
1
289
3
290
0
340
4C
371
-2
372
-2
  0
DIMSTYLE
105
7E
330
4
100
AcDbSymbolTableRecord
100
AcDbDimStyleTableRecord
  2
EZ_M_25_H25_CM
 70
0
 40
1.0
 41
0.0625
 42
0.03125
 43
3.75
 44
0.09375
 45
0.0
 46
0.0
 47
0.0
 48
0.0
 49
2.5
140
0.0625
141
2.5
142
0.03125
143
0.03937007874
144
100.0
145
0.0
146
0.5
147
0.025
148
0.0
 69
0
 70
0
 71
0
 72
0
 73
0
 74
0
 75
0
 76
0
 77
1
 78
12
 79
3
170
0
171
3
172
1
173
0
174
0
175
0
176
0
177
0
178
0
179
2
271
2
272
2
273
2
274
3
275
0
276
0
277
2
278
46
279
2
280
0
281
0
282
0
283
0
284
8
285
0
286
0
288
1
289
3
290
0
340
4C
371
-2
372
-2
  0
DIMSTYLE
105
7F
330
4
100
AcDbSymbolTableRecord
100
AcDbDimStyleTableRecord
  2
EZ_M_20_H25_CM
 70
0
 40
1.0
 41
0.05
 42
0.025
 43
3.75
 44
0.07500000000000001
 45
0.0
 46
0.0
 47
0.0
 48
0.0
 49
2.5
140
0.05
141
2.5
142
0.025
143
0.03937007874
144
100.0
145
0.0
146
0.5
147
0.020000000000000004
148
0.0
 69
0
 70
0
 71
0
 72
0
 73
0
 74
0
 75
0
 76
0
 77
1
 78
12
 79
3
170
0
171
3
172
1
173
0
174
0
175
0
176
0
177
0
178
0
179
2
271
2
272
2
273
2
274
3
275
0
276
0
277
2
278
46
279
2
280
0
281
0
282
0
283
0
284
8
285
0
286
0
288
1
289
3
290
0
340
4C
371
-2
372
-2
  0
DIMSTYLE
105
80
330
4
100
AcDbSymbolTableRecord
100
AcDbDimStyleTableRecord
  2
EZ_M_10_H25_CM
 70
0
 40
1.0
 41
0.025
 42
0.0125
 43
3.75
 44
0.037500000000000006
 45
0.0
 46
0.0
 47
0.0
 48
0.0
 49
2.5
140
0.025
141
2.5
142
0.0125
143
0.03937007874
144
100.0
145
0.0
146
0.5
147
0.010000000000000002
148
0.0
 69
0
 70
0
 71
0
 72
0
 73
0
 74
0
 75
0
 76
0
 77
1
 78
12
 79
3
170
0
171
3
172
1
173
0
174
0
175
0
176
0
177
0
178
0
179
2
271
2
272
2
273
2
274
3
275
0
276
0
277
2
278
46
279
2
280
0
281
0
282
0
283
0
284
8
285
0
286
0
288
1
289
3
290
0
340
4C
371
-2
372
-2
  0
DIMSTYLE
105
81
330
4
100
AcDbSymbolTableRecord
100
AcDbDimStyleTableRecord
  2
EZ_M_5_H25_CM
 70
0
 40
1.0
 41
0.0125
 42
0.00625
 43
3.75
 44
0.018750000000000003
 45
0.0
 46
0.0
 47
0.0
 48
0.0
 49
2.5
140
0.0125
141
2.5
142
0.00625
143
0.03937007874
144
100.0
145
0.0
146
0.5
147
0.005000000000000001
148
0.0
 69
0
 70
0
 71
0
 72
0
 73
0
 74
0
 75
0
 76
0
 77
1
 78
12
 79
3
170
0
171
3
172
1
173
0
174
0
175
0
176
0
177
0
178
0
179
2
271
2
272
2
273
2
274
3
275
0
276
0
277
2
278
46
279
2
280
0
281
0
282
0
283
0
284
8
285
0
286
0
288
1
289
3
290
0
340
4C
371
-2
372
-2
  0
DIMSTYLE
105
82
330
4
100
AcDbSymbolTableRecord
100
AcDbDimStyleTableRecord
  2
EZ_M_1_H25_CM
 70
0
 40
1.0
 41
0.0025
 42
0.00125
 43
3.75
 44
0.00375
 45
0.0
 46
0.0
 47
0.0
 48
0.0
 49
2.5
140
0.0025
141
2.5
142
0.00125
143
0.03937007874
144
100.0
145
0.0
146
0.5
147
0.001
148
0.0
 69
0
 70
0
 71
0
 72
0
 73
0
 74
0
 75
0
 76
0
 77
1
 78
12
 79
3
170
0
171
3
172
1
173
0
174
0
175
0
176
0
177
0
178
0
179
2
271
2
272
2
273
2
274
3
275
0
276
0
277
2
278
46
279
2
280
0
281
0
282
0
283
0
284
8
285
0
286
0
288
1
289
3
290
0
340
4C
371
-2
372
-2
  0
DIMSTYLE
105
83
330
4
100
AcDbSymbolTableRecord
100
AcDbDimStyleTableRecord
  2
EZ_RADIUS
 70
0
 40
1.0
 41
0.25
 42
0.125
 43
3.75
 44
0.375
 45
0.0
 46
0.0
 47
0.0
 48
0.0
 49
2.5
140
0.25
141
0.0
142
0.0
143
0.03937007874
144
100.0
145
0.0
146
0.5
147
0.1
148
0.0
 69
0
 70
0
 71
0
 72
0
 73
0
 74
0
 75
0
 76
0
 77
1
 78
12
 79
3
170
0
171
3
172
0
173
0
174
0
175
0
176
0
177
0
178
0
179
2
271
2
272
2
273
2
274
3
275
0
276
0
277
2
278
46
279
1
280
0
281
0
282
0
283
0
284
8
285
0
286
0
288
1
289
3
290
0
340
4C
342
84
371
-2
372
-2
  0
DIMSTYLE
105
88
330
4
100
AcDbSymbolTableRecord
100
AcDbDimStyleTableRecord
  2
EZ_RADIUS_INSIDE
 70
0
 40
1.0
 41
0.25
 42
0.125
 43
3.75
 44
0.375
 45
0.0
 46
0.0
 47
0.0
 48
0.0
 49
2.5
140
0.25
141
0.0
142
0.0
143
0.03937007874
144
100.0
145
0.0
146
0.5
147
0.1
148
0.0
 69
0
 70
0
 71
0
 72
0
 73
0
 74
0
 75
0
 76
0
 77
0
 78
12
 79
3
170
0
171
3
172
0
173
0
174
1
175
0
176
0
177
0
178
0
179
2
271
2
272
2
273
2
274
3
275
0
276
0
277
2
278
46
279
0
280
0
281
0
282
0
283
0
284
8
285
0
286
0
288
1
289
0
290
0
340
4C
342
84
371
-2
372
-2
  0
DIMSTYLE
105
89
330
4
100
AcDbSymbolTableRecord
100
AcDbDimStyleTableRecord
  2
EZ_CURVED
 70
0
 40
1.0
 41
0.25
 42
0.125
 43
3.75
 44
0.375
 45
0.0
 46
0.0
 47
0.0
 48
0.0
 49
2.5
140
0.25
141
2.5
142
0.0
143
0.03937007874
144
100.0
145
0.0
146
0.5
147
0.1
148
0.0
 69
0
 70
0
 71
0
 72
0
 73
0
 74
0
 75
0
 76
0
 77
1
 78
12
 79
2
 90
2
170
0
171
3
172
1
173
0
174
0
175
0
176
0
177
0
178
0
179
2
271
2
272
2
273
2
274
3
275
0
276
0
277
2
278
46
279
2
280
0
281
0
282
0
283
0
284
8
285
0
286
0
288
1
289
3
290
0
340
4C
371
-2
372
-2
  0
ENDTAB
  0
TABLE
  2
BLOCK_RECORD
  5
9
330
0
100
AcDbSymbolTable
 70
5
  0
BLOCK_RECORD
  5
17
330
9
100
AcDbSymbolTableRecord
100
AcDbBlockTableRecord
  2
*Model_Space
340
1A
 70
0
280
1
281
0
  0
BLOCK_RECORD
  5
1B
330
9
100
AcDbSymbolTableRecord
100
AcDbBlockTableRecord
  2
*Paper_Space
340
1E
 70
0
280
1
281
0
  0
BLOCK_RECORD
  5
74
330
9
100
AcDbSymbolTableRecord
100
AcDbBlockTableRecord
  2
_ARCHTICK
340
0
 70
0
280
1
281
0
  0
BLOCK_RECORD
  5
78
330
9
100
AcDbSymbolTableRecord
100
AcDbBlockTableRecord
  2
_CLOSEDFILLED
340
0
 70
0
280
1
281
0
  0
BLOCK_RECORD
  5
84
330
9
100
AcDbSymbolTableRecord
100
AcDbBlockTableRecord
  2
_CLOSEDBLANK
340
0
 70
0
280
1
281
0
  0
ENDTAB
  0
ENDSEC
  0
SECTION
  2
BLOCKS
  0
BLOCK
  5
18
330
17
100
AcDbEntity
  8
0
100
AcDbBlockBegin
  2
*Model_Space
 70
0
 10
0.0
 20
0.0
 30
0.0
  3
*Model_Space
  1

  0
ENDBLK
  5
19
330
17
100
AcDbEntity
  8
0
100
AcDbBlockEnd
  0
BLOCK
  5
1C
330
1B
100
AcDbEntity
  8
0
100
AcDbBlockBegin
  2
*Paper_Space
 70
0
 10
0.0
 20
0.0
 30
0.0
  3
*Paper_Space
  1

  0
ENDBLK
  5
1D
330
1B
100
AcDbEntity
  8
0
100
AcDbBlockEnd
  0
BLOCK
  5
75
330
74
100
AcDbEntity
  8
0
100
AcDbBlockBegin
  2
_ARCHTICK
 70
0
 10
0.0
 20
0.0
 30
0.0
  3
_ARCHTICK
  1

  0
LWPOLYLINE
  5
77
330
74
100
AcDbEntity
  8
0
  6
BYBLOCK
 62
0
100
AcDbPolyline
 90
2
 70
0
 43
0.15
 10
-0.5
 20
-0.5
 10
0.5
 20
0.5
  0
ENDBLK
  5
76
330
74
100
AcDbEntity
  8
0
100
AcDbBlockEnd
  0
BLOCK
  5
79
330
78
100
AcDbEntity
  8
0
100
AcDbBlockBegin
  2
_CLOSEDFILLED
 70
0
 10
0.0
 20
0.0
 30
0.0
  3
_CLOSEDFILLED
  1

  0
SOLID
  5
7B
330
78
100
AcDbEntity
  8
0
  6
BYBLOCK
 62
0
100
AcDbTrace
 10
-1.0
 20
0.16439898372402537
 30
0.0
 11
0.0
 21
0.0
 31
0.0
 12
-1.0
 22
-0.16439898372402537
 32
0.0
 13
-1.0
 23
-0.16439898372402537
 33
0.0
  0
ENDBLK
  5
7A
330
78
100
AcDbEntity
  8
0
100
AcDbBlockEnd
  0
BLOCK
  5
85
330
84
100
AcDbEntity
  8
0
100
AcDbBlockBegin
  2
_CLOSEDBLANK
 70
0
 10
0.0
 20
0.0
 30
0.0
  3
_CLOSEDBLANK
  1

  0
LWPOLYLINE
  5
87
330
84
100
AcDbEntity
  8
0
  6
BYBLOCK
 62
0
100
AcDbPolyline
 90
3
 70
1
 10
-1.0
 20
0.16439898372402537
 10
0.0
 20
0.0
 10
-1.0
 20
-0.16439898372402537
  0
ENDBLK
  5
86
330
84
100
AcDbEntity
  8
0
100
AcDbBlockEnd
  0
ENDSEC
  0
SECTION
  2
ENTITIES
  0
LWPOLYLINE
  5
8A
330
17
100
AcDbEntity
  8
0
100
AcDbPolyline
 90
1200
 70
0
 43
350.0
 10
200.0
 20
0.0
 10
208.26877142743896
 20
5.458260344080135
 10
216.38311852474783
 20
11.349634060451084
 10
224.32602956546856
 20
17.669626854024003
 10
232.08062622703576
 20
24.413150592367103
 10
239.63018302121577
 20
31.574527313201536
 10
246.95814660345374
 20
39.1474938421273
 10
254.0481549424994
 20
47.125207016914864
 10
260.8840563317934
 20
55.5002495141414
 10
267.44992822422176
 20
64.26463627339655
 10
273.7300958719926
 20
73.40982151373328
 10
279.7091507535437
 20
82.92670633649303
 10
285.3719687695709
 20
92.80564690809443
 10
290.7037281904539
 20
103.03646321583852
 10
295.6899273375672
 20
113.60844838925367
 10
300.31640198118384
 20
124.51037857897998
 10
304.56934243791926
 20
135.73052338467522
 10
308.43531035091667
 20
147.25665682291455
 10
311.90125513624236
 20
159.07606882555322
 10
314.9545300792435
 20
171.1755772585273
 10
317.5829080649189
 20
183.54154045058053
 10
319.77459692666565
 20
196.15987022092756
 10
321.5182543980887
 20
209.01604539439643
 10
322.80300265290447
 20
222.09512579213285
 10
323.61844241831847
 20
235.38176668550122
 10
323.95466664762756
 20
248.860233700378
 10
323.8022737381739
 20
262.5144181586053
 10
323.15238028117267
 20
276.3278528429568
 10
321.996633330339
 20
290.2837281715629
 10
320.3272221766544
 20
304.3649087673466
 10
318.1368896170443
 20
318.5539504076441
 10
315.41894270517554
 20
332.8331173388141
 10
312.16726297303234
 20
347.184399940282
 10
308.3763161123919
 20
361.5895327221276
 10
304.0411611057903
 20
376.0300126399912
 10
299.15745879704934
 20
390.4871177107605
 10
293.7214798919275
 20
404.9419259122008
 10
287.73011237995297
 20
419.37533434939957
 10
281.1808683690076
 20
433.76807867063087
 10
274.0718903247447
 20
448.10075271498226
 10
266.40195670744515
 20
462.3538283738482
 10
258.1704869994498
 20
476.50767564816573
 10
249.37754611683883
 20
490.54258288305556
 10
240.0238481995778
 20
504.43877716134256
 10
230.1107597748923
 20
518.1764448372384
 10
219.64030228919393
 20
531.7357521913176
 10
208.61515400443653
 20
545.0968661877644
 10
197.03865125534588
 20
558.2399753147347
 10
184.91478906453546
 20
571.1453104885736
 10
172.2482211130901
 20
583.7931660025152
 10
159.04425906477698
 20
596.1639205004257
 10
145.30887124261676
 20
608.2380579560769
 10
131.04868065712964
 20
619.9961886383936
 10
116.2709623861511
 20
631.419070043087
 10
100.98364030669264
 20
642.487627771073
 10
85.19528317990687
 20
653.1829763340787
 10
68.91510009079771
 20
663.48643986786
 10
52.15293524489835
 20
673.3795727334912
 10
34.91926212472155
 20
682.844179987245
 10
17.22517700936577
 20
691.8623376996453
 10
-0.9176081387610378
 20
700.4164131043786
 10
-19.496773415563112
 20
708.4890845578386
 10
-38.49939934011434
 20
716.0633612902135
 10
-57.911975837072596
 20
723.1226029291608
 10
-77.72041183040709
 20
729.650538777273
 10
-97.91004544163323
 20
735.631286824703
 10
-118.46565478519413
 20
741.0493724785205
 10
-139.37146935307615
 20
745.8897469905622
 10
-160.61118198020162
 20
750.137805565773
 10
-182.16796138160245
 20
753.7794051332634
 10
-204.0244652518461
 20
756.8008817625692
 10
-226.16285391666145
 20
759.1890677078653
 10
-248.56480452619317
 20
760.9313080631715
 10
-271.2115257788053
 20
762.0154770118893
 10
-294.08377316385366
 20
762.4299936543227
 10
-317.1618647113541
 20
762.163837397167
 10
-340.42569723599297
 20
761.206562889292
 10
-363.85476306245096
 20
759.5483144885098
 10
-387.42816721855405
 20
757.1798402443846
 10
-411.12464508230374
 20
754.0925053825325
 10
-434.92258046841505
 20
750.278305276255
 10
-458.8000241395385
 20
745.7298778917714
 10
-482.73471272695025
 20
740.440515693728
 10
-506.7040880450645
 20
734.4041769981131
 10
-530.6853167837544
 20
727.6154967601489
 10
-554.655310562061
 20
720.0697967851972
 10
-578.5907463265322
 20
711.763095351186
 10
-602.468087077053
 20
702.6921162315537
 10
-626.2636029027128
 20
692.8542971081929
 10
-649.9533923099106
 20
682.2477973643959
 10
-673.5134038246088
 20
670.8715052483
 10
-696.9194578503276
 20
658.725044397873
 10
-720.1472687632174
 20
645.8087797189974
 10
-743.1724672252561
 20
632.1238226087669
 10
-765.9706226963904
 20
617.6720355166443
 10
-788.5172661261875
 20
602.4560358367022
 10
-810.787912805368
 20
586.4791991247171
 10
-832.7580853573618
 20
569.7456616344735
 10
-854.4033368498687
 20
552.2603221682011
 10
-875.6992740062279
 20
534.0288432366525
 10
-896.6215804962408
 20
515.057651524929
 10
-917.1460402859743
 20
495.35393766073423
 10
-937.248561025937
 20
474.92565528235673
 10
-956.9051974569359
 20
453.7815194042618
 10
-976.092174812827
 20
431.9310040787998
 10
-994.7859121993158
 20
409.3843393531205
 10
-1012.9630459279093
 20
386.1525075210213
 10
-1030.600452784104
 20
362.24723867004076
 10
-1047.675273208859
 20
337.681005524748
 10
-1064.1649343724425
 20
312.46701758776743
 10
-1080.0471731197265
 20
286.6192145807185
 10
-1095.3000587660763
 20
260.1522591878366
 10
-1109.9020157230239
 20
233.08152910568296
 10
-1123.8318459329955
 20
205.42310840293453
 10
-1137.0687510924602
 20
177.19377819488415
 10
-1149.5923546429767
 20
148.41100663786048
 10
-1161.3827235097456
 20
119.09293824941108
 10
-1172.4203895674261
 20
89.25838256066466
 10
-1182.686370813137
 20
58.9268021079178
 10
-1192.162192226745
 20
28.11829977105167
 10
-1200.829906298747
 20
-3.146394532991221
 10
-1208.6721132062717
 20
-34.84593779289232
 10
-1215.671980617949
 20
-66.95838847241338
 10
-1221.8132631086653
 20
-99.46122169669562
 10
-1227.080321165471
 20
-132.33134504487447
 10
-1231.458139766213
 20
-165.54511493795962
 10
-1234.9323465127407
 20
-199.07835361034512
 10
-1237.4892293008807
 20
-232.90636665280843
 10
-1239.1157535096766
 20
-267.00396111428824
 10
-1239.7995786927695
 20
-301.34546414924347
 10
-1239.5290747551358
 20
-335.90474219684836
 10
-1238.2933375987914
 20
-370.65522067779705
 10
-1236.082204221461
 20
-405.5699041939937
 10
-1232.8862672526234
 20
-440.6213972159071
 10
-1228.6968889117584
 20
-475.7819252419224
 10
-1223.5062143740718
 20
-511.023356413534
 10
-1217.307184529414
 20
-546.3172235698087
 10
-1210.0935481205747
 20
-581.6347467240774
 10
-1201.85987324762
 20
-616.9468559454313
 10
-1192.6015582254183
 20
-652.2242146271487
 10
-1182.3148417820073
 20
-687.4372431238265
 10
-1170.9968125859737
 20
-722.5561427385674
 10
-1158.6454180915296
 20
-757.5509200412486
 10
-1145.2594726905224
 20
-792.3914114985091
 10
-1130.838665161142
 20
-827.0473083957886
 10
-1115.3835654036695
 20
-861.4881820314039
 10
-1098.895630454154
 20
-895.6835091623662
 10
-1081.3772097675014
 20
-929.60269768133
 10
-1062.8315497620313
 20
-963.2151125038207
 10
-1043.2627976181518
 20
-996.4901016445951
 10
-1022.6760043244135
 20
-1029.3970224617924
 10
-1001.0771269648027
 20
-1061.905268047266
 10
-978.473030241749
 20
-1093.9842937413225
 10
-954.871487229958
 20
-1125.6036437498747
 10
-930.281179356791
 20
-1156.732977841863
 10
-904.7116956055546
 20
-1187.34209810465
 10
-878.1735309387153
 20
-1217.4009757349331
 10
-850.6780839386663
 20
-1246.8797778426472
 10
-822.2376536643569
 20
-1275.7488942451876
 10
-792.8654357227113
 20
-1303.97896422924
 10
-762.5755175544566
 20
-1331.540903257411
 10
-731.3828729345937
 20
-1358.4059295968482
 10
-699.3033556884249
 20
-1384.5455908469817
 10
-666.3536926247293
 20
-1409.9317903435306
 10
-632.5514756882901
 20
-1434.5368134159378
 10
-597.9151533346829
 20
-1458.333353475416
 10
-562.4640211308678
 20
-1481.2945379108548
 10
-526.2182115858086
 20
-1503.3939537698907
 10
-489.1986832159708
 20
-1524.605673202559
 10
-451.42720885123646
 20
-1544.9042786450332
 10
-412.92636318740506
 20
-1564.264887721097
 10
-373.7195095921266
 20
-1582.663177839133
 10
-333.8307861717186
 20
-1600.0754104625903
 10
-293.28509110700844
 20
-1616.478455032069
 10
-252.10806726694062
 20
-1631.849812517359
 10
-210.32608610936524
 20
-1646.1676385780013
 10
-167.96623087899687
 20
-1659.410766311178
 10
-125.05627911320826
 20
-1671.558728565987
 10
-81.62468446689732
 20
-1682.5917798034482
 10
-37.70055786831332
 20
-1692.4909174818622
 10
6.686351981722647
 20
-1701.2379029474741
 10
51.50567875412477
 20
-1708.8152818107137
 10
96.7264592657571
 20
-1715.2064037886273
 10
142.31715486931918
 20
-1720.3954419944869
 10
188.24567344415746
 20
-1724.3674116559382
 10
234.4793919726482
 20
-1727.1081882434482
 10
280.9851796862974
 20
-1728.6045249912193
 10
327.7294217651282
 20
-1728.8440697931749
 10
374.6780435734612
 20
-1727.8153814570626
 10
421.7965354146291
 20
-1725.507945300174
 10
469.04997778671617
 20
-1721.9121880706632
 10
516.403067120883
 20
-1717.0194921789366
 10
563.820141983426
 20
-1710.8222092240767
 10
611.2652097222209
 20
-1703.3136728007996
 10
658.701973537755
 20
-1694.4882105729594
 10
706.093859958573
 20
-1684.3411556001688
 10
753.4040467004965
 20
-1672.8688569046572
 10
800.5954908886142
 20
-1660.0686892660528
 10
847.6309576206343
 20
-1645.9390622323713
 10
894.4730488498569
 20
-1630.4794283360632
 10
941.0842325656461
 20
-1613.6902905046024
 10
987.4268722489709
 20
-1595.573208655687
 10
1033.4632565802428
 20
-1576.1308054677706
 10
1079.155629376425
 20
-1555.366771317259
 10
1124.4662197340595
 20
-1533.2858683743614
 10
1169.3572723546386
 20
-1509.8939338502266
 10
1213.7910780284592
 20
-1485.1978823886782
 10
1257.7300042529314
 20
-1459.2057075964924
 10
1301.136525961045
 20
-1431.9264827068744
 10
1343.9732563355642
 20
-1403.3703603714448
 10
1386.2029776843012
 20
-1373.5485715767625
 10
1427.7886723517202
 20
-1342.4734236820598
 10
1468.693553641959
 20
-1310.1582975756203
 10
1508.8810967282616
 20
-1276.617643947878
 10
1548.3150695237075
 20
-1241.8669786800733
 10
1586.9595634880848
 20
-1205.9228773479629
 10
1624.779024345673
 20
-1168.8029688408378
 10
1661.7382826886871
 20
-1130.525928096779
 10
1697.8025844411113
 20
-1091.111467955842
 10
1732.937621157689
 20
-1050.5803301335334
 10
1767.1095601328288
 20
-1008.9542753176885
 10
1800.2850742942717
 20
-966.2560723925726
 10
1832.4313718564026
 20
-922.5094867947596
 10
1863.516225708216
 20
-877.7392680060143
 10
1893.508002511031
 20
-831.9711361891809
 10
1922.3756914811986
 20
-785.231767973739
 10
1950.0889328331764
 20
-737.5487813984478
 10
1976.618045858556
 20
-688.9507200191531
 10
2001.934056616784
 20
-639.4670361905721
 10
2026.0087252135386
 20
-589.128073531574
 10
2048.8145726429866
 20
-537.9650485841211
 10
2070.3249071703535
 20
-486.0100316767766
 10
2090.513850231544
 20
-433.2959270043239
 10
2109.356361826831
 20
-379.85645193575994
 10
2126.8282653859446
 20
-325.7261155635311
 10
2142.906272082217
 20
-270.94019650760083
 10
2157.5680045738018
 20
-215.53471998854027
 10
2170.7920201503402
 20
-159.5464341845227
 10
2182.557833263846
 20
-103.01278588766867
 10
2192.8459374229715
 20
-45.971895475877105
 10
2201.6378264302607
 20
11.537468783165178
 10
2208.916014942408
 20
69.47591707844917
 10
2214.66405833403
 20
127.80346503472042
 10
2218.866571845911
 20
186.47956130565737
 10
2221.509248999181
 20
245.4631157621334
 10
2222.5788792573962
 20
304.71252825593933
 10
2222.063364919013
 20
364.1857179388783
 10
2219.951737223293
 20
423.8401531165523
 10
2216.234171653219
 20
483.63288161570637
 10
2210.902002419587
 20
543.5205616434486
 10
2203.9477361110144
 20
603.459493116259
 10
2195.3650644952118
 20
663.4056494361668
 10
2185.148876457466
 20
723.3147096910872
 10
2173.29526906292
 20
783.1420912558206
 10
2159.8015577298756
 20
842.842982769886
 10
2144.6662855019804
 20
902.3723774678838
 10
2127.889231407839
 20
961.685106837771
 10
2109.471417897257
 20
1020.7358745820151
 10
2089.4151173440164
 20
1079.4792908563225
 10
2067.723857605755
 20
1137.8699067602588
 10
2044.4024266322754
 20
1195.862249053785
 10
2019.456876114264
 20
1253.4108550734934
 10
1992.8945241651695
 20
1310.4703078220082
 10
1964.7239570297015
 20
1366.9952712038178
 10
1934.955029813166
 20
1422.9405253805392
 10
1903.598866226568
 20
1478.2610022184685
 10
1870.6678573432084
 20
1532.9118208010366
 10
1836.175659363224
 20
1586.848322978667
 10
1800.1371903833171
 20
1640.0261089283545
 10
1762.5686261696533
 20
1692.4010726952188
 10
1723.4873949327211
 20
1743.929437688136
 10
1682.912171103684
 20
1794.5677921015122
 10
1640.8628681125808
 20
1844.2731242351788
 10
1597.3606301694638
 20
1893.0028576844009
 10
1552.4278230503949
 20
1940.7148863719299
 10
1506.0880238909638
 20
1987.3676093940853
 10
1458.3660099908343
 20
2032.9199656528438
 10
1409.2877466335406
 20
2077.3314682460145
 10
1358.8803739266089
 20
2120.562238587622
 10
1307.1721926678129
 20
2162.5730402307377
 10
1254.1926492442105
 20
2203.325312365098
 10
1199.972319571317
 20
2242.781202962031
 10
1144.5428920806241
 20
2280.9036015393467
 10
1087.9371497643822
 20
2317.6561715190405
 10
1030.1889512874038
 20
2353.0033821508737
 10
971.333211176326
 20
2386.910539975131
 10
911.4058790976118
 20
2419.3438197980936
 10
850.4439182362569
 20
2450.270295154059
 10
788.4852827879868
 20
2479.6579682280117
 10
725.568894578378
 20
2507.475799213384
 10
661.7346188231461
 20
2533.6937350796934
 10
597.0232390445514
 20
2558.282737725154
 10
531.476431159537
 20
2581.2148114898114
 10
465.1367367559893
 20
2602.4630300050735
 10
398.047535574145
 20
2622.001562356006
 10
330.25301721091364
 20
2639.8056985331154
 10
261.7981520654784
 20
2655.8518741508906
 10
192.72866154527614
 20
2670.1176944107883
 10
123.09098755204182
 20
2682.5819572868686
 10
52.932261268304444
 20
2693.224675912801
 10
-17.69972873474493
 20
2702.027100149508
 10
-88.75656904639911
 20
2708.971737313228
 10
-160.189254600455
 20
2714.0423720444064
 10
-231.94822247132473
 20
2717.2240852983505
 10
-303.9833862589785
 20
2718.503272439233
 10
-376.244171038829
 20
2717.8676604196294
 10
-448.6795488522064
 20
2715.3063240284077
 10
-521.2380747124733
 20
2710.8097011904533
 10
-593.867923101506
 20
2704.3696073023657
 10
-666.5169249305176
 20
2695.9792485889548
 10
-739.1326049390522
 20
2685.6332344660545
 10
-811.6622195052942
 20
2673.3275888958815
 10
-884.0527948405434
 20
2659.059760721886
 10
-956.2511655402662
 20
2642.8286329707826
 10
-1028.20401346376
 20
2624.6345311101923
 10
-1099.857906914096
 20
2604.47923025108
 10
-1171.1593400897077
 20
2582.3659612849438
 10
-1242.0547727785652
 20
2558.2994159465115
 10
-1312.4906702657465
 20
2532.2857507934395
 10
-1382.4135434247762
 20
2504.332590095366
 10
-1451.7699889629432
 20
2474.4490276254382
 10
-1520.5067297905441
 20
2442.645627348262
 10
-1588.570655483788
 20
2408.9344229990465
 10
-1655.9088628109469
 20
2373.328916549529
 10
-1722.468696291067
 20
2335.8440755571564
 10
-1788.1977887545793
 20
2296.496329394738
 10
-1853.044101874864
 20
2255.3035643587423
 10
-1916.955966639835
 20
2212.285117655192
 10
-1979.8821237324814
 20
2167.461770262986
 10
-2041.7717637892931
 20
2120.8557386753323
 10
-2102.5745675054322
 20
2072.4906655208474
 10
-2162.24074555557
 20
2022.391609066704
 10
-2220.721078299218
 20
1970.5850316071464
 10
-2277.9669552395994
 20
1917.0987867414437
 10
-2333.9304142050046
 20
1861.9621055463226
 10
-2388.564180221777
 20
1805.2055816487227
 10
-2441.8217040481572
 20
1746.8611552055945
 10
-2493.6572003383517
 20
1686.9620957983166
 10
-2544.025685406366
 20
1625.5429842501708
 10
-2592.8830145593506
 20
1562.6396933761364
 10
-2640.1859189703523
 20
1498.2893676751976
 10
-2685.8920420607087
 20
1432.5304019760567
 10
-2729.959975362485
 20
1365.402419048133
 10
-2772.349293831686
 20
1296.9462461904614
 10
-2813.0205905832822
 20
1227.2038908119746
 10
-2851.935511019395
 20
1156.2185150174432
 10
-2889.0567863223678
 20
1084.0344092141866
 10
-2924.348266284813
 20
1010.6969647554151
 10
-2957.774951449104
 20
936.2526456369676
 10
-2989.303024529251
 20
860.74895926481
 10
-3018.899881088495
 20
784.2344263116148
 10
-3046.534159446437
 20
706.758549681381
 10
-3072.1757697900125
 20
628.3717826018508
 10
-3095.7959224631168
 20
549.1254958652034
 10
-3117.367155410234
 20
469.07194423819755
 10
-3136.8633607499264
 20
388.2642320637496
 10
-3154.259810454678
 20
306.75627807644383
 10
-3169.5331811141205
 20
224.60277945533593
 10
-3182.6615777592883
 20
141.8591751379622
 10
-3193.624556726201
 20
58.58160842015178
 10
-3202.4031475376883
 20
-25.173111133134903
 10
-3208.9798737830506
 20
-109.34754644009857
 10
-3213.338772975835
 20
-193.8836722911254
 10
-3215.4654153706874
 20
-278.7229153474452
 10
-3215.3469217209768
 20
-363.80619472196616
 10
-3212.9719799596082
 20
-449.07396311408667
 10
-3208.330860786188
 20
-534.4662484698856
 10
-3201.4154321444807
 20
-619.9226961385488
 10
-3192.219172574853
 20
-705.3826114954132
 10
-3180.7371834272158
 20
-790.7850030015495
 10
-3166.9661999207583
 20
-876.068625669396
 10
-3150.904601037616
 20
-961.1720249034289
 10
-3132.5524182384006
 20
-1046.03358068465
 10
-3111.9113429884155
 20
-1130.5915520671047
 10
-3088.9847330841944
 20
-1214.7841219544118
 10
-3063.7776177708784
 20
-1298.5494421239193
 10
-3036.2967016418343
 20
-1381.8256784657972
 10
-3006.55036731278
 20
-1464.551056404102
 10
-2974.5486768635815
 20
-1546.663906466622
 10
-2940.303372041815
 20
-1628.102709969964
 10
-2903.8278732230406
 20
-1708.806144786335
 10
-2865.1372771237056
 20
-1788.713131158086
 10
-2824.248353263479
 20
-1867.7628775260519
 10
-2781.179539174772
 20
-1945.894926337541
 10
-2735.950934358107
 20
-2023.0491997997308
 10
-2688.5842929829423
 20
-2099.1660455441684
 10
-2639.1030153345337
 20
-2174.186282167916
 10
-2587.5321380082746
 20
-2248.051244617032
 10
-2533.898322853987
 20
-2320.70282937789
 10
-2478.2298446735294
 20
-2392.08353944196
 10
-2420.5565776760545
 20
-2462.136529009707
 10
-2360.909980696174
 20
-2530.805647899308
 10
-2299.3230811812714
 20
-2598.0354856260165
 10
-2235.83045795508
 20
-2663.7714151181353
 10
-2170.468222765699
 20
-2727.959636035621
 10
-2103.2740006269973
 20
-2790.5472176576823
 10
-2034.286908963444
 20
-2851.4821413057753
 10
-1963.5475355692379
 20
-2910.7133422687143
 10
-1891.0979153935757
 20
-2968.19075119686
 10
-1816.981506164792
 20
-3023.865334932601
 10
-1741.2431628670445
 20
-3077.6891367446697
 10
-1663.9291110840727
 20
-3129.6153159341884
 10
-1585.0869192255652
 20
-3179.5981867805936
 10
-1504.7654696523834
 20
-3227.593256796132
 10
-1423.0149287179447
 20
-3273.5572642578773
 10
-1339.8867157438292
 20
-3317.448214986716
 10
-1255.4334709485709
 20
-3359.2254183432046
 10
-1169.7090223494315
 20
-3398.849522410658
 10
-1082.7683516578036
 20
-3436.2825483363376
 10
-994.6675591896567
 20
-3471.4879238021526
 10
-905.4638278133903
 20
-3504.4305155967795
 10
-815.2153859580288
 20
-3535.076661261766
 10
-723.981469705692
 20
-3563.3941997846805
 10
-631.8222839929081
 20
-3589.3525013130616
 10
-538.7989629461308
 20
-3612.9224958635077
 10
-444.97352937754516
 20
-3634.076701000935
 10
-350.40885346796904
 20
-3652.789248463696
 10
-255.16861066431153
 20
-3669.035909710963
 10
-159.31723881986062
 20
-3682.7941203694754
 10
-62.91989460610817
 20
-3694.0430035575137
 10
33.95759077431108
 20
-3702.7633920647163
 10
131.248756543508
 20
-3708.9378493671156
 10
228.88655794234836
 20
-3712.550689457575
 10
326.8034124312977
 20
-3713.5879954726183
 10
424.9312464663052
 20
-3712.0376370974727
 10
523.201542817253
 20
-3707.8892867319814
 10
621.5453883962192
 20
-3701.1344344009112
 10
719.8935225620756
 20
-3691.7664013930485
 10
818.1763858676179
 20
-3679.780352614366
 10
916.3241692149296
 20
-3665.1733076414553
 10
1014.2668633842765
 20
-3647.9441504623173
 10
1111.9343089014153
 20
-3628.093637892546
 10
1209.2562462078897
 20
-3605.6244066558725
 10
1306.1623660983887
 20
-3580.5409791190045
 10
1402.5823603891677
 20
-3552.8497676716265
 10
1498.4459727809942
 20
-3522.5590777434236
 10
1593.683049879965
 20
-3489.6791094509704
 10
1688.2235923392411
 20
-3454.2219578682984
 10
1781.997806084548
 20
-3416.201611915975
 10
1874.936153586093
 20
-3375.63395186451
 10
1966.9694051394301
 20
-3332.53674544892
 10
2058.028690117543
 20
-3286.9296425923344
 10
2148.0455481565355
 20
-3238.8341687374646
 10
2236.951980236999
 20
-3188.2737167858627
 10
2324.680499623243
 20
-3135.273537645893
 10
2411.16418262248
 20
-3079.860729391359
 10
2496.3367191260722
 20
-3022.064225033772
 10
2580.132462894996
 20
-2961.9147789122867
 10
2662.486481551755
 20
-2899.4449517063345
 10
2743.3346062409573
 20
-2834.6890940770886
 10
2822.613480921095
 20
-2767.683328944801
 10
2900.2606112499966
 20
-2698.465532410221
 10
2976.2144130267316
 20
-2627.0753133292314
 10
3050.4142601528956
 20
-2553.553991550909
 10
3122.8005320764605
 20
-2477.9445748302223
 10
3193.314660681619
 20
-2400.291734427562
 10
3261.8991765883106
 20
-2320.6417794084173
 10
3328.497754825524
 20
-2239.042629657323
 10
3393.055259842696
 20
-2155.5437876213887
 10
3455.5177898239745
 20
-2070.196308799588
 10
3515.8327202704854
 20
-1983.0527709950002
 10
3573.9487468161624
 20
-1894.1672423481618
 10
3629.815927243159
 20
-1803.5952481706456
 10
3683.385722663346
 20
-1711.393736598887
 10
3734.6110378328467
 20
-1617.621043089335
 10
3783.4462605671933
 20
-1522.336853776718
 10
3829.8473002251435
 20
-1425.6021677183376
 10
3873.7716252298173
 20
-1327.4792580480485
 10
3915.178299596433
 20
-1228.0316320645377
 10
3954.028018436525
 20
-1127.3239902793396
 10
3990.2831424091833
 20
-1025.4221844508954
 10
4023.907731090552
 20
-922.3931746317439
 10
4054.8675752334875
 20
-818.304985256885
 10
4083.130227890047
 20
-713.2266603019124
 10
4108.665034370181
 20
-607.2282175405276
 10
4131.443161010791
 20
-500.3806019316589
 10
4151.437622730109
 20
-392.7556381671942
 10
4168.6233093431365
 20
-284.42598241204473
 10
4182.97701061476
 20
-175.46507326895775
 10
4194.477440027941
 20
-65.94708200111648
 10
4203.105257245319
 20
44.0531379536244
 10
4208.843089243397
 20
154.46010214265777
 10
4211.675550099429
 20
265.19774689761937
 10
4211.589259411998
 20
376.1894817369582
 10
4208.57285933728
 20
487.35824233597464
 10
4202.617030223887
 20
598.6265440276846
 10
4193.714504830177
 20
709.9165357974199
 10
4181.860081108908
 20
821.1500547334306
 10
4167.050633545111
 20
932.248680895574
 10
4149.285123034059
 20
1043.1337925634762
 10
4128.564605287243
 20
1153.7266218253126
 10
4104.892237755308
 20
1263.9483104679325
 10
4078.27328505795
 20
1373.7199661287125
 10
4048.7151229118176
 20
1482.962718669195
 10
4016.2272405485496
 20
1591.597776730342
 10
3980.8212416161714
 20
1699.5464844288067
 10
3942.510843558104
 20
1806.7303781536662
 10
3901.311875465203
 20
1913.0712434225857
 10
3857.2422743972916
 20
2018.491171756379
 10
3810.3220801717944
 20
2122.912617530723
 10
3760.5734286181514
 20
2226.2584547636966
 10
3708.02054329786
 20
2328.4520337977024
 10
3652.689725691044
 20
2429.417237834344
 10
3594.6093438516527
 20
2529.0785392806515
 10
3533.8098195344255
 20
2627.3610558653104
 10
3470.3236137979575
 20
2724.190606483324
 10
3404.1852110892837
 20
2819.4937667277845
 10
3335.431101816543
 20
2913.1979240674464
 10
3264.0997634173877
 20
3005.2313326289495
 10
3190.231639931946
 20
3095.5231675427003
 10
3113.8691200902263
 20
3184.0035788116347
 10
3035.0565139250425
 20
3270.603744662183
 10
2953.8400279225248
 20
3355.2559243372452
 10
2870.2677387234935
 20
3437.893510291015
 10
2784.3895653900304
 20
3518.4510797459657
 10
2696.2572402526416
 20
3596.864445572584
 10
2605.9242783545437
 20
3673.0707064528287
 10
2513.4459455105975
 20
3747.008296288718
 10
2418.8792249996172
 20
3818.617032817779
 10
2322.282782909615
 20
3887.838165397717
 10
2223.7169321568113
 20
3954.6144219229955
 10
2123.2435952001097
 20
4018.8900548366278
 10
2020.926265473825
 20
4080.6108862009733
 10
1916.8299675624278
 20
4139.724351791961
 10
1811.021216142074
 20
4196.179544181702
 10
1703.5679737145992
 20
4249.927254775142
 10
1594.5396071607756
 20
4300.920014766981
 10
1484.006843140304
 20
4349.112134985881
 10
1372.0417223671998
 20
4394.459744593577
 10
1258.717552789975
 20
4436.920828607308
 10
1144.1088617069508
 20
4476.455264214729
 10
1028.2913468479094
 20
4513.024855851237
 10
911.3418264541183
 20
4546.593369010462
 10
793.3381883895623
 20
4577.126562759514
 10
674.3593383171541
 20
4604.5922209313785
 10
554.4851469742212
 20
4628.9601819678355
 10
433.7963965825895
 20
4650.202367387052
 10
312.3747264291514
 20
4668.2928088510025
 10
190.30257765357607
 20
4683.207673808797
 10
67.66313728049018
 20
4694.92528969292
 10
-55.45971846586877
 20
4703.426166646405
 10
-178.9814815259546
 20
4708.693018759967
 10
-302.8170700088118
 20
4710.710783799094
 10
-426.8808867959271
 20
4709.466641402175
 10
-551.0868787045429
 20
4704.950029731777
 10
-675.3485961695908
 20
4697.152660562245
 10
-799.5792534028507
 20
4686.068532787889
 10
-923.6917889874684
 20
4671.693944337125
 10
-1047.5989268655892
 20
4654.027502479017
 10
-1171.2132376762731
 20
4633.070132509855
 10
-1294.4472004007762
 20
4608.825084808458
 10
-1417.2132642716363
 20
4581.297940250092
 10
-1539.423910901862
 20
4550.496613970061
 10
-1660.9917165901675
 20
4516.431357469127
 10
-1781.8294147579631
 20
4479.114759054194
 10
-1901.849958473561
 20
4438.561742608771
 10
-2020.9665830189326
 20
4394.7895646889865
 10
-2139.092868454008
 20
4347.817809942133
 10
-2256.1428021336783
 20
4297.66838484586
 10
-2372.030841132265
 20
4244.365509767396
 10
-2486.6719745303335
 20
4187.935709343401
 10
-2599.981785518643
 20
4128.407801182198
 10
-2711.87651327402
 20
4065.8128828914505
 10
-2822.273114561985
 20
4000.1843174354576
 10
-2931.089325021061
 20
3931.557716827549
 10
-3038.2437200836607
 20
3859.970924164274
 10
-3143.6557754888113
 20
3785.4639940091897
 10
-3247.2459273419067
 20
3708.079171135426
 10
-3348.9356316770104
 20
3627.860867637284
 10
-3448.6474234774296
 20
3544.855638422422
 10
-3546.3049751105314
 20
3459.1121550973153
 10
-3641.8331541330786
 20
3370.681178259939
 10
-3735.1580804237274
 20
3279.6155282147133
 10
-3826.2071825995545
 20
3185.9700541261195
 10
-3914.909253674105
 20
3089.801601628298
 10
-4001.1945059146387
 20
2991.1689789093525
 10
-4084.9946248568644
 20
2890.132921290099
 10
-4166.242822435877
 20
2786.7560543181944
 10
-4244.87388919254
 20
2681.102855399671
 10
-4320.8242455151385
 20
2573.2396139910397
 10
-4394.031991876607
 20
2463.234390376301
 10
-4464.4369580284265
 20
2351.1569730541028
 10
-4531.98075111273
 20
2237.078834761577
 10
-4596.606802654958
 20
2121.073087162299
 10
-4658.260414400055
 20
2003.2144342269098
 10
-4716.888802955931
 20
1883.579124335949
 10
-4772.441143208672
 20
1762.2449011354727
 10
-4824.8686104747785
 20
1639.2909531769337
 10
-4874.124421356473
 20
1514.7978623739643
 10
-4920.163873267042
 20
1388.8475513093413
 10
-4962.94438259396
 20
1261.5232294266268
 10
-5002.425521468473
 20
1132.909338141707
 10
-5038.569053111228
 20
1003.0914949103826
 10
-5071.338965724469
 20
872.1564362890139
 10
-5100.701504902288
 20
740.191960026051
 10
-5126.625204531411
 20
607.2868662230339
 10
-5149.080916155971
 20
473.5308976045975
 10
-5168.0418367808215
 20
339.0146789374685
 10
-5183.483535088931
 20
203.82965563946823
 10
-5195.383976049484
 20
68.06803162004883
 10
-5203.723543894438
 20
-68.17729360538037
 10
-5208.485063442361
 20
-204.81278848444748
 10
-5209.653819749523
 20
-341.74435363662684
 10
-5207.217576069342
 20
-478.87738665783826
 10
-5201.166590102485
 20
-616.1168474760686
 10
-5191.493628521056
 20
-753.3673242130518
 10
-5178.193979751532
 20
-890.5330995062313
 10
-5161.265465002309
 20
-1027.5182172449674
 10
-5140.708447522919
 20
-1164.2265496744571
 10
-5116.525840083269
 20
-1300.561864820454
 10
-5088.723110662403
 20
-1436.427894187563
 10
-5057.308286337682
 20
-1571.728400683382
 10
-5022.291955366378
 20
-1706.3672467207896
 10
-4983.6872674531305
 20
-1840.2484624500305
 10
-4941.509932197816
 20
-1973.2763140724571
 10
-4895.778215719836
 20
-2105.3553721870985
 10
-4846.512935456064
 20
-2236.390580121461
 10
-4793.737453130858
 20
-2366.2873221978894
 10
-4737.477665898197
 20
-2494.9514918861273
 10
-4677.761995656843
 20
-2622.2895597936285
 10
-4614.621376541247
 20
-2748.2086414440723
 10
-4548.08924059173
 20
-2872.6165647956277
 10
-4478.20150160925
 20
-2995.4219374496133
 10
-4404.9965372010665
 20
-3116.5342135008914
 10
-4328.515169024953
 20
-3235.8637599814415
 10
-4248.800641241217
 20
-3353.321922848139
 10
-4165.8985971825805
 20
-3468.8210924669115
 10
-4079.857054253902
 20
-3582.2747685446
 10
-3990.7263770743275
 20
-3693.597624461185
 10
-3898.559248876517
 20
-3802.705570954319
 10
-3803.4106411780704
 20
-3909.5158191094015
 10
-3705.3377817423006
 20
-4013.946942607976
 10
-3604.400120846301
 20
-4115.918939188153
 10
-3500.6592958755177
 20
-4215.353291271161
 10
-3394.179094265765
 20
-4312.1730257081845
 10
-3285.0254148140716
 20
-4406.302772602843
 10
-3173.266227381891
 20
-4497.66882316442
 10
-3058.9715310144807
 20
-4586.199186548326
 10
-2942.2133105022904
 20
-4671.823645640181
 10
-2823.0654914108763
 20
-4754.473811740959
 10
-2701.603893606984
 20
-4834.083178111353
 10
-2577.9061833101773
 20
-4910.587172333754
 10
-2452.051823699609
 20
-4983.923207451656
 10
-2324.1220241076785
 20
-5054.030731846371
 10
-2194.199687832357
 20
-5120.851277812365
 10
-2062.369358601994
 20
-5184.3285087928225
 10
-1928.7171657268607
 20
-5244.408265238247
 10
-1793.3307679727247
 20
-5301.038609051759
 10
-1656.2992961933596
 20
-5354.16986658537
 10
-1517.7132947588989
 20
-5403.754670152963
 10
-1377.6646618190134
 20
-5449.747998026095
 10
-1236.2465884396897
 20
-5492.1072128803235
 10
-1093.553496654441
 20
-5530.792098660214
 10
-949.6809764705174
 20
-5565.764895832738
 10
-804.7257218725744
 20
-5596.9903349994565
 10
-658.785465866429
 20
-5624.435668839186
 10
-511.9589146063226
 20
-5648.070702353965
 10
-364.3456806505611
 20
-5667.86782139211
 10
-216.04621539004702
 20
-5683.802019423561
 10
-67.16174069616471
 20
-5695.850922543639
 10
82.20582016609067
 20
-5703.9948126828
 10
231.95391231208993
 20
-5708.216649000943
 10
381.9794196510844
 20
-5708.502087446273
 10
532.1787358911193
 20
-5704.839498459866
 10
682.4478360859435
 20
-5697.219982808386
 10
832.6823486751399
 20
-5685.637385528695
 10
982.7776279669403
 20
-5670.088307969424
 10
1132.6288270140446
 20
-5650.572117915841
 10
1282.1309708310532
 20
-5627.090957785755
 10
1431.1790299030272
 20
-5599.649750885454
 10
1579.6679939332134
 20
-5568.2562057161185
 10
1727.4929457783849
 20
-5532.920818322486
 10
1874.549135519965
 20
-5493.656872676818
 10
2020.732054618193
 20
-5450.480439092861
 10
2165.9375100974858
 20
-5403.410370665512
 10
2310.0616987097765
 20
-5352.468297733727
 10
2453.0012810237017
 20
-5297.678620365166
 10
2594.6534553863576
 20
-5239.068498862884
 10
2734.916031704961
 20
-5176.667842295529
 10
2873.6875049957657
 20
-5110.509295053912
 10
3010.867128646925
 20
-5040.628221438518
 10
3146.3549873431334
 20
-4967.062688283473
 10
3280.0520695988184
 20
-4889.853445624444
 10
3411.860339847934
 20
-4809.043905418767
 10
3541.682810037603
 20
-4724.680118328097
 10
3669.4236106736703
 20
-4636.810748574849
 10
3794.988061266542
 20
-4545.487046885199
 10
3918.2827401252907
 20
-4450.762821533074
 10
4039.2155534493877
 20
-4352.694407500429
 10
4157.6958036666665
 20
-4251.340633771157
 10
4273.63425696764
 20
-4146.76278877657
 10
4386.943209985648
 20
-4039.0245840126418
 10
4497.536555573855
 20
-3928.1921158495857
 10
4605.329847629714
 20
-3814.3338255565986
 10
4710.240364918626
 20
-3697.5204575653142
 10
4812.187173849129
 20
-3577.825015996894
 10
4911.0911901520185
 20
-3455.3227194794617
 10
5006.875239417337
 20
-3330.0909542830614
 10
5099.464116442888
 20
-3202.2092258014945
 10
5188.784643349648
 20
-3071.759108410742
 10
5274.76572641932
 20
-2938.8241937356897
 10
5357.338411610686
 20
-2803.4900373576434
 10
5436.435938712098
 20
-2665.844103996175
 10
5511.993794087982
 20
-2525.97571120073
 10
5583.949761978769
 20
-2383.975971587501
 10
5652.243974313836
 20
-2239.9377336593852
 10
5716.818958998733
 20
-2093.9555212467562
 10
5777.619686638359
 20
-1946.1254716089084
 10
5834.593615659111
 20
-1796.545272236438
 10
5887.6907357940845
 20
-1645.314096395805
 10
5936.8636098961715
 20
-1492.5325374590511
 10
5982.067414045444
 20
-1338.302542061462
 10
6023.259975917908
 20
-1182.7273421322045
 10
6060.4018113842585
 20
-1025.9113858425444
 10
6093.456159308074
 20
-867.9602675184773
 10
6122.389014514473
 20
-708.9806565641213
 10
6147.16915890112
 20
-549.0802254442239
 10
6167.768190664996
 20
-388.3675767741844
 10
6184.160551619502
 20
-226.95216956673036
 10
6196.323552577735
 20
-64.94424468587579
 10
6204.237396779172
 20
97.54525044175189
 10
6207.885201338269
 20
260.40473780609653
 10
6207.2530166948645
 20
423.52208543201994
 10
6202.329844047635
 20
586.7846845836481
 10
6193.10765075324
 20
750.0795275017803
 10
6179.581383675202
 20
913.2932856209205
 10
6161.748980467983
 20
1076.3123882112448
 10
6139.611378783104
 20
1239.023101391623
 10
6113.1725233857405
 20
1401.311607458029
 10
6082.4393711714365
 20
1563.0640844727259
 10
6047.421894074347
 20
1724.166786057889
 10
6008.133079859579
 20
1884.50612133843
 10
5964.588930793997
 20
2043.9687349773212
 10
5916.8084601910905
 20
2202.4415872472828
 10
5864.813686827112
 20
2359.8120340825367
 10
5808.629627227295
 20
2515.9679070534444
 10
5748.2842858221875
 20
2670.7975932079835
 10
5683.80864297605
 20
2824.1901147226113
 10
5615.236640890306
 20
2976.035208306422
 10
5542.605167387029
 20
3126.223404301349
 10
5465.954037578619
 20
3274.646105421976
 10
5385.325973431398
 20
3421.195665078658
 10
5300.766581232602
 20
3565.7654652270635
 10
5212.324326971337
 20
3708.249993688632
 10
5120.050509646065
 20
3848.5449208853743
 10
5023.99923251216
 20
3986.5471759340085
 10
4924.227372285055
 20
4122.155022043629
 10
4820.794546315709
 20
4255.268131162166
 10
4713.763077756476
 20
4385.787657817263
 10
4603.197958737479
 20
4513.616312097028
 10
4489.16681157422
 20
4638.658431717591
 10
4371.739848029539
 20
4760.8200531238035
 10
4250.989826653485
 20
4880.008981571102
 10
4126.992008227103
 20
4996.13486013605
 10
3999.824109336517
 20
5109.1092376047745
 10
3869.5662541059714
 20
5218.845635188253
 10
3736.3009241193577
 20
5325.259612014722
 10
3600.11290656099
 20
5428.268829350157
 10
3461.0892406084563
 20
5527.793113498113
 10
3319.3191621105852
 20
5623.754517331774
 10
3174.894046586091
 20
5716.077380411111
 10
3027.907350578492
 20
5804.688387639724
 10
2878.4545514052566
 20
5889.51662641617
 10
2726.633085339663
 20
5970.493642236017
 10
2572.5422842650364
 20
6047.553492701782
 10
2416.283310842938
 20
6120.632799898594
 10
2257.9590922368675
 20
6189.670801095085
 10
2097.6742524354577
 20
6254.60939772942
 10
1935.5350432189362
 20
6315.3932026421735
 10
1771.6492738148422
 20
6371.9695855183245
 10
1606.126239289314
 20
6424.288716502189
 10
1439.0766477212205
 20
6472.303607950284
 10
1270.6125462081789
 20
6515.970154288078
 10
1100.8472457531825
 20
6555.247169938305
 10
929.8952450828883
 20
6590.096425289293
 10
757.8721534480266
 20
6620.4826806735555
 10
584.8946124587079
 20
6646.373718327857
 10
411.0802170067397
 20
6667.740372307564
 10
236.54743532914037
 20
6684.556556329362
 10
61.41552826694885
 20
6696.799289517829
 10
-114.19553222588038
 20
6704.448720032891
 10
-290.16514526722426
 20
6707.488146556452
 10
-466.37216386961654
 20
6705.904037618129
 10
-642.6949783435111
 20
6699.686048741382
 10
-819.0116002243047
 20
6688.827037392901
 10
-995.1997466646025
 20
6673.323075719577
 10
-1171.136925233585
 20
6653.173461058981
 10
-1346.7005190649197
 20
6628.380724210699
 10
-1521.767872293431
 20
6598.950635457559
 10
-1696.2163757217654
 20
6564.892208327273
 10
-1869.9235526564582
 20
6526.217701086602
 10
-2042.7671448541098
 20
6482.942615961731
 10
-2214.6251985166145
 20
6435.085696080208
 10
-2385.376150275734
 20
6382.668920131246
 10
-2554.89891310583
 20
6325.717494742957
 10
-2723.072962104349
 20
6264.259844576657
 10
-2889.778420079542
 20
6198.327600139801
 10
-3054.896142884176
 20
6127.955583321125
 10
-3218.3078044352387
 20
6053.1817906526985
 10
-3379.8959813583588
 20
5974.047374305698
 10
-3539.5442371971776
 20
5890.596620827853
 10
-3697.137206126815
 20
5802.876927632553
 10
-3852.5606761116346
 20
5710.9387772509735
 10
-4005.7016714476645
 20
5614.835709360086
 10
-4156.448534629669
 20
5514.624290601485
 10
-4304.6910074843545
 20
5410.364082206824
 10
-4450.320311510276
 20
5302.117605448108
 10
-4593.229227366715
 20
5189.950304931758
 10
-4733.312173453188
 20
5073.930509757735
 10
-4870.465283522385
 20
4954.129392566086
 10
-5004.586483269968
 20
4830.620926494757
 10
-5135.575565844505
 20
4703.481840074646
 10
-5263.334266222586
 20
4572.791570088435
 10
-5387.766334393619
 20
4438.632212422325
 10
-5508.777607300717
 20
4301.088470940147
 10
-5626.276079483708
 20
4160.247604411935
 10
-5740.171972372163
 20
4016.199371529339
 10
-5850.377802176269
 20
3869.035974042706
 10
-5956.808446324795
 20
3718.851998055431
 10
-6059.381208400317
 20
3565.7443535125094
 10
-6158.015881522282
 20
3409.812211922312
 10
-6252.634810130329
 20
3251.156942350776
 10
-6343.162950120366
 20
3089.882045729825
 10
-6429.5279272878615
 20
2926.093087521785
 10
-6511.660094033159
 20
2759.8976287839982
 10
-6589.492584285184
 20
2591.4051556783243
 10
-6662.961366601074
 20
2420.7270074713992
 10
-6732.005295400052
 20
2247.9763030734553
 10
-6796.5661602917335
 20
2073.267866163406
 10
-6856.588733459586
 20
1896.7181489504158
 10
-6912.02081506228
 20
1718.4451546217667
 10
-6962.813276616277
 20
1538.5683585293814
 10
-7008.920102325009
 20
1357.2086281668585
 10
-7050.298428320806
 20
1174.488141991182
 10
-7086.908579787504
 20
990.5303071433681
 10
-7118.714105933
 20
805.4596761231841
 10
-7145.681812782271
 20
619.4018624748031
 10
-7167.781793763238
 20
432.4834555396954
 10
-7184.987458058896
 20
244.83193433539293
 10
-7197.275556701063
 20
56.575580617938805
 10
-7204.626206382326
 20
-132.15660881206398
 10
-7207.022910964526
 20
-321.2350105001078
 10
-7204.4525806635675
 20
-510.52946336483114
 10
-7196.90554889204
 20
-699.9093582996787
 10
-7184.375586742627
 20
-889.2437282882868
 10
-7166.859915097057
 20
-1078.4013389705951
 10
-7144.3592143468195
 20
-1267.2507795978606
 10
-7116.877631713665
 20
-1455.6605543128926
 10
-7084.422786159541
 20
-1643.4991736923764
 10
-7047.005770877143
 20
-1830.63524648782
 10
-7004.6411533542705
 20
-2016.9375715004974
 10
-6957.346973006443
 20
-2202.275229526951
 10
-6905.144736374393
 20
-2386.517675309843
 10
-6848.059409884291
 20
-2569.5348294303985
 10
-6786.119410170764
 20
-2751.1971700770127
 10
-6719.35659196395
 20
-2931.375824626084
 10
-6647.80623354408
 20
-3109.942660969763
 10
-6571.507019768411
 20
-3286.770378526206
 10
-6490.501022677141
 20
-3461.7325988680027
 10
-6404.833679686914
 20
-3634.7039559037394
 10
-6314.553769381712
 20
-3805.5601855491723
 10
-6219.713384913331
 20
-3974.178214823232
 10
-6120.367905024584
 20
-4140.4362503058055
 10
-6016.5759627108
 20
-4304.213865893271
 10
-5908.399411536396
 20
-4465.39208978893
 10
-5795.903289625018
 20
-4623.853490665879
 10
-5679.155781343887
 20
-4779.482262939514
 10
-5558.228176703851
 20
-4932.164311088648
 10
-5433.194828499239
 20
-5081.787332963311
 10
-5304.13310721229
 20
-5228.240902019324
 10
-5171.1233537094195
 20
-5371.416548419101
 10
-5034.248829757651
 20
-5511.207838939612
 10
-4893.595666391128
 20
-5647.510455629095
 10
-4749.252810159775
 20
-5780.222273154187
 10
-4601.311967292785
 20
-5909.243434781041
 10
-4449.867545812249
 20
-6034.476426933648
 10
-4295.016595632587
 20
-6155.826152274617
 10
-4136.858746684161
 20
-6273.20000125348
 10
-3975.496145099651
 20
-6386.507922069638
 10
-3811.0333875043825
 20
-6495.662488997091
 10
-3643.5774534524808
 20
-6600.57896901979
 10
-3473.2376360520902
 20
-6701.175386727433
 10
-3300.1254708250544
 20
-6797.372587422191
 10
-3124.354662846526
 20
-6889.094298388784
 10
-2946.041012212708
 20
-6976.267188280649
 10
-2765.3023378847606
 20
-7058.82092457702
 10
-2582.258399959434
 20
-7136.688229066274
 10
-2397.030820417409
 20
-7209.804931312645
 10
-2209.743002401447
 20
-7278.11002006468
 10
-2020.5200480785043
 20
-7341.545692564877
 10
-1829.4886751396273
 20
-7400.057401721824
 10
-1636.7771319941533
 20
-7453.5939011070495
 10
-1442.5151117140915
 20
-7502.107287740747
 10
-1246.8336647872438
 20
-7545.553042631581
 10
-1049.8651107369124
 20
-7583.890069037663
 10
-851.7429486684391
 20
-7617.080728416995
 10
-652.6017668027781
 20
-7645.0908740374825
 10
-452.5771510581191
 20
-7667.889882218105
 10
-251.8055927423291
 20
-7685.45068117438
 10
-50.424395418208796
 20
-7697.74977744303
 10
151.42841899401543
 20
-7704.7672798622525
 10
353.6142048135983
 20
-7706.486921085805
 10
555.9937878300641
 20
-7702.896076610699
 10
758.4275611027382
 20
-7693.985781300059
 10
960.7755812633551
 20
-7679.750743384415
 10
1162.8976652546269
 20
-7660.18935592642
 10
1364.6534874387542
 20
-7635.303705735751
 10
1565.9026770077373
 20
-7605.099579722717
 10
1766.504915628725
 20
-7569.586468680836
 10
1966.3200352558065
 20
-7528.777568490517
 10
2165.208116040349
 20
-7482.6897787376765
 10
2363.0295842717906
 20
-7431.343698742951
 10
2559.645310279661
 20
-7374.7636209990915
 10
2754.9167062290517
 20
-7312.97752201567
 10
2948.705823739949
 20
-7246.017050572444
 10
3140.8754512625815
 20
-7173.917513384072
 10
3331.2892111392384
 20
-7096.717858181211
 10
3519.811656284793
 20
-7014.460654214315
 10
3706.308366416783
 20
-6927.1920701887775
 10
3890.646043767034
 20
-6834.961849641559
 10
4072.6926082070217
 20
-6737.823283771244
 10
4252.317291718539
 20
-6635.833181735654
 10
4429.390732142999
 20
-6529.05183843233
 10
4603.785066141474
 20
-6417.542999779754
 10
4775.374021299591
 20
-6301.373825518123
 10
4944.033007310434
 20
-6180.614849551092
 10
5109.639206170063
 20
-6055.339937851131
 10
5272.071661320707
 20
-5925.626243952866
 10
5431.2113656766
 20
-5791.554162061155
 10
5586.941348469236
 20
-5653.207277801345
 10
5739.146760848266
 20
-5510.6723166420425
 10
5887.714960176233
 20
-5364.039090021246
 10
6032.535592955029
 20
-5213.400439209384
 10
6173.5006763235415
 20
-5058.852176943858
 10
6310.504678066745
 20
-4900.493026871228
 10
6443.4445950768395
 20
-4738.424560835585
 10
6572.220030208983
 20
-4572.7511340519895
 10
6696.7332674741
 20
-4403.579818206853
 10
6816.889345513376
 20
-4231.020332527182
 10
6932.596129299065
 20
-4055.184972863634
 10
7043.764380008456
 20
-3876.1885388322794
 10
7150.307823018045
 20
-3694.1482590628225
 10
7252.1432139667995
 20
-3509.183714601528
 10
7349.190402838604
 20
-3321.4167605185603
 10
7441.37239601479
 20
-3130.971445771613
 10
7528.615416249716
 20
-2937.973931377657
 10
7610.848960522964
 20
-2742.5524069475114
 10
7688.005855723853
 20
-2544.837005637569
 10
7760.022312124723
 20
-2344.959717575701
 10
7826.837974601408
 20
-2143.054301818601
 10
7888.3959715606625
 20
-1939.2561968989846
 10
7944.642961535609
 20
-1733.7024300231046
 10
7995.52917741232
 20
-1526.5315249785654
 10
8041.008468251638
 20
-1317.883408815194
 10
8081.038338672573
 20
-1107.8993173609206
 10
8115.579985764678
 20
-896.721699637339
 10
8144.598333498971
 20
-684.4941212387546
 10
8168.062064608303
 20
-471.3611667409535
 10
8185.943649909976
 20
-257.4683412057444
 10
8198.219375045148
 20
-42.96197084807377
 10
8204.86936461121
 20
172.0108970657499
 10
8205.877603665254
 20
387.3025950211428
 10
8201.231956578407
 20
602.7649366896119
 10
8190.924183222751
 20
818.2493189256285
 10
8174.94995247428
 20
1033.6068242550728
 10
8153.308853017256
 20
1248.6883237848608
 10
8126.004401437179
 20
1463.3445804629343
 10
8093.044047591435
 20
1677.4263526163852
 10
8054.439177248595
 20
1890.7844976967995
 10
8010.205111989263
 20
2103.2700761597753
 10
7960.361106363169
 20
2314.734455407185
 10
7904.9303422992625
 20
2525.0294137189258
 10
7843.939920767418
 20
2734.007244101809
 10
7777.420850692135
 20
2941.5208579831406
 10
7705.408035120923
 20
3147.4238886755147
 10
7627.940254651462
 20
3351.5707945409677
 10
7545.0601481241465
 20
3553.816961780927
 10
7456.814190587937
 20
3754.0188067803124
 10
7363.252668549982
 20
3952.0338779325225
 10
7264.4296525208065
 20
4147.720956874053
 10
7160.402966869272
 20
4340.94015905616
 10
7051.2341570031795
 20
4531.553033582363
 10
6936.988453893123
 20
4719.422662240843
 10
6817.734735959695
 20
4904.41375766041
 10
6693.545488345126
 20
5086.392760520555
 10
6564.496759593372
 20
5265.227935745103
 10
6430.6681157634075
 20
5440.789467611084
 10
6292.142592003341
 20
5612.9495537037055
 10
6149.00664161416
 20
5781.582497649881
 10
6001.35008263374
 20
5946.564800563421
 10
5849.266041974149
 20
6107.775251135016
 10
5692.85089714605
 20
6265.095014302198
 10
5532.204215606952
 20
6418.407718433993
 10
5367.428691770526
 20
6567.599540967193
 10
5198.630081717073
 20
6712.559292431013
 10
5025.917135646176
 20
6853.1784987985975
 10
4849.401528114218
 20
6989.3514821049375
 10
4669.19778610186
 20
7120.975439271099
 10
4485.423214956896
 20
7247.950519076984
 10
4298.197822260945
 20
7370.179897224739
 10
4107.644239668464
 20
7487.569849437454
 10
3913.887642769611
 20
7600.0298225377755
 10
3717.0556690284366
 20
7707.4725034536295
 10
3517.278333850697
 20
7809.8138860984845
 10
3314.6879448361306
 20
7906.973336075715
 10
3109.419014271392
 20
7998.8736531579225
 10
2901.60816992209
 20
8085.441131493071
 10
2691.3940641822
 20
8166.605617491617
 10
2478.9172816420564
 20
8242.300565349422
 10
2264.3202451356474
 20
8312.46309016372
 10
2047.7471203306359
 20
8377.034018600214
 10
1829.3437189247238
 20
8435.957937071564
 10
1609.257400513018
 20
8489.18323738901
 10
1387.636973193156
 20
8536.662159850433
 10
1164.6325929742961
 20
8578.350833730188
 10
940.395662058906
 20
8614.209315137447
 10
715.0787260652817
 20
8644.201622211936
 10
488.8353702615226
 20
8668.295767627365
 10
261.82011488060635
 20
8686.463788375097
 10
34.18830958866608
 20
8698.681772802021
 10
-193.90397282175374
 20
8704.929884878877
 10
-422.3000434410304
 20
8705.192385676835
 10
-650.842704880244
 20
8699.457652032297
 10
-879.3743594644195
 20
8687.71819238162
 10
-1107.7371179057795
 20
8669.970659749592
 10
-1335.7729083830275
 20
8646.21586187726
 10
-1563.3235859505337
 20
8616.45876847686
 10
-1790.2310422020141
 20
8580.708515603497
 10
-2016.3373151129663
 20
8538.978407135144
 10
-2241.484698984801
 20
8491.285913354784
 10
-2465.5158544151054
 20
8437.652666630178
 10
-2688.273918216399
 20
8378.104454189164
 10
-2909.6026132075554
 20
8312.67120799
 10
-3129.346357800316
 20
8241.386991688682
 10
-3347.3503753043956
 20
8164.289984706965
 10
-3563.4608028747007
 20
8081.422463406795
 10
-3777.524800023312
 20
7992.830779379273
 10
-3989.390656620636
 20
7898.565334857675
 10
-4198.907900308564
 20
7798.68055526685
 10
-4405.927403250561
 20
7693.2348589225
 10
-4610.301488142144
 20
7582.290623896746
 10
-4811.884033407319
 20
7465.914152067488
 10
-5010.530577505471
 20
7344.1756303718885
 10
-5206.098422274635
 20
7217.149089285809
 10
-5398.446735237574
 20
7084.9123585529305
 10
-5587.436650796837
 20
6947.547020189887
 10
-5772.931370246989
 20
6805.13835879472
 10
-5954.796260531356
 20
6657.77530918901
 10
-6132.898951672916
 20
6505.5504014247945
 10
-6307.109432808423
 20
6348.559703190333
 10
-6477.300146756508
 20
6186.902759650041
 10
-6643.346083051454
 20
6020.682530755649
 10
-6805.124869374401
 20
5850.005326068306
 10
-6962.516861316128
 20
5674.980737131921
 10
-7115.405230405058
 20
5495.721567441198
 10
-7263.676050336768
 20
5312.3437600481375
 10
-7407.218381340939
 20
5124.966322853996
 10
-7545.9243526242935
 20
4933.711251633878
 10
-7679.689242828051
 20
4738.703450844194
 10
-7808.411558440526
 20
4540.070652263955
 10
-7931.993110106698
 20
4337.943331522494
 10
-8050.339086777395
 20
4132.454622568683
 10
-8163.358127643078
 20
3923.74023013674
 10
-8270.962391797613
 20
3711.9383402669773
 10
-8373.067625579957
 20
3497.1895289394865
 10
-8469.593227542262
 20
3279.6366688818107
 10
-8560.462310995119
 20
3059.424834612031
 10
-8645.601764082125
 20
2836.701205779988
 10
-8724.942307337255
 20
2611.614968871741
 10
-8798.418548680795
 20
2384.317217341928
 10
-8865.969035810667
 20
2154.9608502417996
 10
-8927.536305948313
 20
1923.700469409963
 10
-8983.066932899585
 20
1690.6922752957005
 10
-9032.51157139316
 20
1456.0939614847225
 10
-9075.824998660937
 20
1220.0646079982557
 10
-9112.96615322631
 20
982.7645734384228
 10
-9143.89817086862
 20
744.3553860520472
 10
-9168.58841773359
 20
504.99963378790744
 10
-9187.008520561782
 20
264.8608534212275
 10
-9199.134394008834
 20
24.103418822052383
 10
-9204.94626503344
 20
-217.10757155716476
 10
-9204.428694330894
 20
-458.60640789693724
 10
-9197.570594792041
 20
-700.2268828517684
 10
-9184.365246969697
 20
-941.8024059389469
 10
-9164.810311536376
 20
-1183.1661183955655
 10
-9138.9078387195
 20
-1424.1510084255976
 10
-9106.664274702192
 20
-1664.5900267563793
 10
-9068.090464979889
 20
-1904.3162024255698
 10
-9023.201654665147
 20
-2143.1627587175185
 10
-8972.017485735136
 20
-2380.9632291688763
 10
-8914.56199121833
 20
-2617.551573563106
 10
-8850.863586319245
 20
-2852.7622938322634
 10
-8780.955056481936
 20
-3086.430549786176
 10
-8704.873542395419
 20
-3318.3922745870864
 10
-8622.660521945974
 20
-3548.4842898898996
 10
-8534.361789123748
 20
-3776.544420566456
 10
-8440.027429893054
 20
-4002.4116089335594
 10
-8339.711795037743
 20
-4225.926028404639
 10
-8233.473469995664
 20
-4446.929196484152
 10
-8121.375241697599
 20
-4665.264087025856
 10
-8003.484062429016
 20
-4880.775241674514
 10
-7879.871010734258
 20
-5093.30888041305
 10
-7750.611249385704
 20
-5302.713011135595
 10
-7615.7839804417
 20
-5508.837538169459
 10
-7475.472397419876
 20
-5711.534369667871
 10
-7329.7636346141
 20
-5910.657523797084
 10
-7178.7487135851825
 20
-6106.063233642118
 10
-7022.522486858289
 20
-6297.610050755224
 10
-6861.183578860786
 20
-6485.158947273482
 10
-6694.834324137616
 20
-6668.573416531134
 10
-6523.580702881873
 20
-6847.719572094848
 10
-6347.532273821404
 20
-7022.46624514964
 10
-6166.802104503441
 20
-7192.685080165067
 10
-5981.506699021096
 20
-7358.25062877243
 10
-5791.765923228255
 20
-7519.040441783977
 10
-5597.702927489903
 20
-7674.935159287598
 10
-5399.444067018259
 20
-7825.818598750313
 10
-5197.118819845201
 20
-7971.577841066527
 10
-4990.859702484954
 20
-8112.103314486999
 10
-4780.802183340935
 20
-8247.288876367118
 10
-4567.0845939139035
 20
-8377.031892673427
 10
-4349.8480378692
 20
-8501.233315189398
 10
-4129.236298022451
 20
-8619.797756363068
 10
-3905.3957413056596
 20
-8732.633561739945
 10
-3678.475221775502
 20
-8839.65287992726
 10
-3448.625981728973
 20
-8940.771730036166
 10
-3216.001550991051
 20
-9035.910066551163
 10
-2980.7576444421516
 20
-9124.99184157688
 10
-2743.0520578534106
 20
-9207.94506441468
 10
-2503.0445620990963
 20
-9284.701858423146
 10
-2260.896795817837
 20
-9355.198515118123
 10
-2016.7721565937425
 20
-9419.375545470284
 10
-1770.835690731693
 20
-9477.17772835953
 10
-1523.2539817001077
 20
-9528.554156148013
 10
-1274.1950373174034
 20
-9573.458277335014
 10
-1023.8281757582021
 20
-9611.847936259192
 10
-772.3239104562795
 20
-9643.685409815684
 10
-519.8538339833328
 20
-9668.937441157384
 10
-266.5905009815885
 20
-9687.575270352052
 10
-12.707310231209188
 20
-9699.574661968687
 10
241.62161406799885
 20
-9704.915929568968
 10
496.2215417181976
 20
-9703.58395708149
 10
750.9172565676106
 20
-9695.56821703873
 10
1005.5331770937636
 20
-9680.862785658856
 10
1259.893477443233
 20
-9659.466354756614
 10
1513.8222088448058
 20
-9631.38224046972
 10
1767.1434213113578
 20
-9596.618388789439
 10
2019.6812855473338
 20
-9555.187377886103
 10
2271.2602149762815
 20
-9507.106417222767
 10
2521.7049878048206
 20
-9452.397343452145
 10
2770.840869037345
 20
-9391.086613094449
 10
3018.4937323568597
 20
-9323.205291995897
 10
3264.4901817872924
 20
-9248.789041569762
 10
3508.657673051459
 20
-9167.878101824452
 10
3750.824634540814
 20
-9080.51727118481
 10
3990.8205878111535
 20
-8986.755883115733
 10
4228.4762675207
 20
-8886.647779558698
 10
4463.623740725436
 20
-8780.251281194773
 10
4696.096525447963
 20
-8667.62915454939
 10
4925.7297084366
 20
-8548.84857595647
 10
5152.360062030653
 20
-8423.981092402115
 10
5375.82616005013
 20
-8293.102579269505
 10
5595.968492626701
 20
-8156.293195009858
 10
5812.6295798953115
 20
-8013.637332765316
 10
6025.654084464541
 20
-7865.223568973032
 10
6234.888922586437
 20
-7711.144608980637
 10
6440.18337394567
 20
-7551.497229706519
 10
6641.389189989665
 20
-7386.382219379735
 10
6838.360700722361
 20
-7215.904314396497
 10
7030.954919884051
 20
-7040.1721333329315
 10
7219.031648442472
 20
-6859.298108154702
 10
7402.4535763195145
 20
-6673.3984126674595
 10
7581.08638228082
 20
-6482.592888252655
 10
7754.798831915153
 20
-6287.004966936523
 10
7923.462873632592
 20
-6086.761591841149
 10
8086.953732611832
 20
-5881.993135068407
 10
8245.15000262733
 20
-5672.833313070327
 10
8397.933735689796
 20
-5459.419099559849
 10
8545.19052943338
 20
-5241.890636019359
 10
8686.809612185914
 20
-5020.391139864459
 10
8822.68392565862
 20
-4795.066810323913
 10
8952.710205194593
 20
-4566.066732096612
 10
9076.789057515825
 20
-4333.542776849644
 10
9194.825035910942
 20
-4097.649502622206
 10
9306.72671280735
 20
-3858.5440512015393
 10
9412.406749672771
 20
-3616.3860435397633
 10
9511.78196419377
 20
-3371.3374732801494
 10
9604.773394679682
 20
-3123.5625984648236
 10
9691.306361643217
 20
-2873.2278314952396
 10
9771.310526509995
 20
-2620.5016274198993
 10
9844.719947411784
 20
-2365.5543706239673
 10
9911.473132020086
 20
-2108.558259996603
 10
9971.513087378324
 20
-1849.6871926542437
 10
10024.787366693503
 20
-1589.116646297258
 10
10071.248113049704
 20
-1327.023560280655
 10
10110.85210000829
 20
-1063.5862154783508
 10
10143.560769061538
 20
-798.9841130234337
 10
10169.340263908643
 20
-533.3978520065439
 10
10188.161461525295
 20
-267.0090062153307
 10
10200.0
 20
-1.2491397351303002e-11
  0
TEXT
  5
8B
330
17
100
AcDbEntity
  8
0
100
AcDbText
 10
497.5268674832796
 20
13307.719464488286
 30
0.0
 40
1030.9660656537649
  1
Spiral | w=300m | outer+0.2mm | wall_ratio=0.3 | loops=5 r0=200m s=2000m
 11
497.5268674832796
 21
13307.719464488286
 31
0.0
100
AcDbText
  0
TEXT
  5
8C
330
17
100
AcDbEntity
  8
0
100
AcDbText
 10
518.1461887963549
 20
13307.719464488286
 30
0.0
 40
1030.9660656537649
  1
Spiral | w=300m | outer+0.2mm | wall_ratio=0.3 | loops=5 r0=200m s=2000m
 11
518.1461887963549
 21
13307.719464488286
 31
0.0
100
AcDbText
  0
ENDSEC
  0
SECTION
  2
OBJECTS
  0
DICTIONARY
  5
A
330
0
100
AcDbDictionary
281
1
  3
ACAD_COLOR
350
B
  3
ACAD_GROUP
350
C
  3
ACAD_LAYOUT
350
D
  3
ACAD_MATERIAL
350
E
  3
ACAD_MLEADERSTYLE
350
F
  3
ACAD_MLINESTYLE
350
10
  3
ACAD_PLOTSETTINGS
350
11
  3
ACAD_PLOTSTYLENAME
350
12
  3
ACAD_SCALELIST
350
14
  3
ACAD_TABLESTYLE
350
15
  3
ACAD_VISUALSTYLE
350
16
  3
EZDXF_META
350
2D
  0
DICTIONARY
  5
B
330
A
100
AcDbDictionary
281
1
  0
DICTIONARY
  5
C
330
A
100
AcDbDictionary
281
1
  0
DICTIONARY
  5
D
330
A
100
AcDbDictionary
281
1
  3
Model
350
1A
  3
Layout1
350
1E
  0
DICTIONARY
  5
E
330
A
100
AcDbDictionary
281
1
  3
ByBlock
350
1F
  3
ByLayer
350
20
  3
Global
350
21
  0
DICTIONARY
  5
F
330
A
100
AcDbDictionary
281
1
  3
Standard
350
2C
  0
DICTIONARY
  5
10
330
A
100
AcDbDictionary
281
1
  3
Standard
350
22
  0
DICTIONARY
  5
11
330
A
100
AcDbDictionary
281
1
  0
ACDBDICTIONARYWDFLT
  5
12
330
A
100
AcDbDictionary
281
1
  3
Normal
350
13
100
AcDbDictionaryWithDefault
340
13
  0
ACDBPLACEHOLDER
  5
13
330
12
  0
DICTIONARY
  5
14
330
A
100
AcDbDictionary
281
1
  0
DICTIONARY
  5
15
330
A
100
AcDbDictionary
281
1
  0
DICTIONARY
  5
16
330
A
100
AcDbDictionary
281
1
  3
2dWireframe
350
5A
  3
Basic
350
5B
  3
Brighten
350
5C
  3
ColorChange
350
5D
  3
Conceptual
350
5E
  3
Dim
350
5F
  3
EdgeColorOff
350
60
  3
Facepattern
350
61
  3
Flat
350
62
  3
FlatWithEdges
350
63
  3
Gouraud
350
64
  3
GouraudWithEdges
350
65
  3
Hidden
350
66
  3
JitterOff
350
67
  3
Linepattern
350
68
  3
Modeling
350
69
  3
OverhangOff
350
6A
  3
Realistic
350
6B
  3
Shaded
350
6C
  3
Shaded with edges
350
6D
  3
Shades of Gray
350
6E
  3
Sketchy
350
6F
  3
Thicken
350
70
  3
Wireframe
350
71
  3
X-Ray
350
72
  0
LAYOUT
  5
1A
330
D
100
AcDbPlotSettings
  1

  4
A3
  6

 40
7.5
 41
20.0
 42
7.5
 43
20.0
 44
420.0
 45
297.0
 46
0.0
 47
0.0
 48
0.0
 49
0.0
140
0.0
141
0.0
142
1.0
143
1.0
 70
1024
 72
1
 73
0
 74
5
  7

 75
16
 76
0
 77
2
 78
300
147
1.0
148
0.0
149
0.0
100
AcDbLayout
  1
Model
 70
1
 71
0
 10
0.0
 20
0.0
 11
420.0
 21
297.0
 12
0.0
 22
0.0
 32
0.0
 14
1e+20
 24
1e+20
 34
1e+20
 15
-1e+20
 25
-1e+20
 35
-1e+20
146
0.0
 13
0.0
 23
0.0
 33
0.0
 16
1.0
 26
0.0
 36
0.0
 17
0.0
 27
1.0
 37
0.0
 76
1
330
17
  0
LAYOUT
  5
1E
330
D
100
AcDbPlotSettings
  1

  4
A3
  6

 40
7.5
 41
20.0
 42
7.5
 43
20.0
 44
420.0
 45
297.0
 46
0.0
 47
0.0
 48
0.0
 49
0.0
140
0.0
141
0.0
142
1.0
143
1.0
 70
0
 72
1
 73
0
 74
5
  7

 75
16
 76
0
 77
2
 78
300
147
1.0
148
0.0
149
0.0
100
AcDbLayout
  1
Layout1
 70
1
 71
1
 10
0.0
 20
0.0
 11
420.0
 21
297.0
 12
0.0
 22
0.0
 32
0.0
 14
1e+20
 24
1e+20
 34
1e+20
 15
-1e+20
 25
-1e+20
 35
-1e+20
146
0.0
 13
0.0
 23
0.0
 33
0.0
 16
1.0
 26
0.0
 36
0.0
 17
0.0
 27
1.0
 37
0.0
 76
1
330
1B
  0
MATERIAL
  5
1F
102
{ACAD_REACTORS
330
E
102
}
330
E
100
AcDbMaterial
  1
ByBlock
  2

 70
0
 40
1.0
 71
1
 41
1.0
 91
-1023410177
 42
1.0
 72
1
  3

 73
1
 74
1
 75
1
 44
0.5
 73
0
 45
1.0
 46
1.0
 77
1
  4

 78
1
 79
1
170
1
 48
1.0
171
1
  6

172
1
173
1
174
1
140
1.0
141
1.0
175
1
  7

176
1
177
1
178
1
143
1.0
179
1
  8

270
1
271
1
272
1
145
1.0
146
1.0
273
1
  9

274
1
275
1
276
1
 42
1.0
 72
1
  3

 73
1
 74
1
 75
1
 94
63
  0
MATERIAL
  5
20
102
{ACAD_REACTORS
330
E
102
}
330
E
100
AcDbMaterial
  1
ByLayer
  2

 70
0
 40
1.0
 71
1
 41
1.0
 91
-1023410177
 42
1.0
 72
1
  3

 73
1
 74
1
 75
1
 44
0.5
 73
0
 45
1.0
 46
1.0
 77
1
  4

 78
1
 79
1
170
1
 48
1.0
171
1
  6

172
1
173
1
174
1
140
1.0
141
1.0
175
1
  7

176
1
177
1
178
1
143
1.0
179
1
  8

270
1
271
1
272
1
145
1.0
146
1.0
273
1
  9

274
1
275
1
276
1
 42
1.0
 72
1
  3

 73
1
 74
1
 75
1
 94
63
  0
MATERIAL
  5
21
102
{ACAD_REACTORS
330
E
102
}
330
E
100
AcDbMaterial
  1
Global
  2

 70
0
 40
1.0
 71
1
 41
1.0
 91
-1023410177
 42
1.0
 72
1
  3

 73
1
 74
1
 75
1
 44
0.5
 73
0
 45
1.0
 46
1.0
 77
1
  4

 78
1
 79
1
170
1
 48
1.0
171
1
  6

172
1
173
1
174
1
140
1.0
141
1.0
175
1
  7

176
1
177
1
178
1
143
1.0
179
1
  8

270
1
271
1
272
1
145
1.0
146
1.0
273
1
  9

274
1
275
1
276
1
 42
1.0
 72
1
  3

 73
1
 74
1
 75
1
 94
63
  0
MLINESTYLE
  5
22
102
{ACAD_REACTORS
330
10
102
}
330
10
100
AcDbMlineStyle
  2
Standard
 70
0
  3

 62
256
 51
90.0
 52
90.0
 71
2
 49
0.5
 62
256
  6
BYLAYER
 49
-0.5
 62
256
  6
BYLAYER
  0
MLEADERSTYLE
  5
2C
102
{ACAD_REACTORS
330
F
102
}
330
F
100
AcDbMLeaderStyle
179
2
170
2
171
1
172
0
 90
2
 40
0.0
 41
0.0
173
1
 91
-1056964608
 92
-2
290
1
 42
2.0
291
1
 43
8.0
  3
Standard
 44
4.0
300

342
29
174
1
175
1
176
0
178
1
 93
-1056964608
 45
4.0
292
0
297
0
 46
4.0
 94
-1056964608
 47
1.0
 49
1.0
140
1.0
294
1
141
0.0
177
0
142
1.0
295
0
296
0
143
3.75
271
0
272
9
273
9
  0
DICTIONARY
  5
2D
330
A
100
AcDbDictionary
280
1
281
1
  3
CREATED_BY_EZDXF
350
2E
  3
WRITTEN_BY_EZDXF
350
8F
  0
DICTIONARYVAR
  5
2E
330
2D
100
DictionaryVariables
280
0
  1
1.4.3 @ 2025-11-30T14:07:54.389543+00:00
  0
VISUALSTYLE
  5
5A
102
{ACAD_REACTORS
330
16
102
}
330
16
100
AcDbVisualStyle
  2
2dWireframe
 70
4
177
3
291
0
 70
58
 90
2
176
1
 90
2
176
1
 90
0
176
1
 90
0
176
1
 40
0.6
176
1
 40
30.0
176
1
 62
7
420
16777215
176
1
 90
1
176
1
 90
4
176
1
 62
7
176
1
 62
257
176
1
 90
1
176
1
 90
1
176
1
 40
1.0
176
1
 90
8
176
1
 62
7
176
1
 40
1.0
176
1
 90
1
176
1
 90
6
176
1
 90
2
176
1
 62
7
176
1
 90
5
176
1
 90
0
176
1
 90
0
176
1
290
0
176
1
 90
1
176
1
 40
0.0
176
1
 90
0
176
1
290
1
176
1
290
1
176
1
290
0
176
1
290
0
176
1
290
0
176
1
290
0
176
1
290
0
176
1
290
0
176
1
290
0
176
1
 90
50
176
1
 40
0.0
176
1
 40
1.0
176
1
 90
0
176
1
 62
18
420
0
176
1
 90
50
176
1
 90
3
176
1
 62
5
420
255
176
1
290
0
176
1
 90
50
176
1
 90
50
176
1
 90
50
176
1
290
0
176
1
 90
50
176
1
 62
256
176
0
 40
1.0
176
0
 90
2
176
1
  1
strokes_ogs.tif
176
1
290
0
176
1
 40
1.0
176
1
 40
1.0
176
1
  0
VISUALSTYLE
  5
5B
102
{ACAD_REACTORS
330
16
102
}
330
16
100
AcDbVisualStyle
  2
Basic
 70
7
177
3
291
1
 70
58
 90
2
176
1
 90
2
176
1
 90
0
176
1
 90
1
176
1
 40
0.6
176
1
 40
30.0
176
1
 62
7
420
16777215
176
1
 90
1
176
1
 90
4
176
1
 62
7
176
1
 62
257
176
1
 90
1
176
1
 90
1
176
1
 40
1.0
176
1
 90
8
176
1
 62
7
176
1
 40
1.0
176
1
 90
1
176
1
 90
6
176
1
 90
2
176
1
 62
7
176
1
 90
5
176
1
 90
0
176
1
 90
0
176
1
290
0
176
1
 90
1
176
1
 40
0.0
176
1
 90
0
176
1
290
0
176
1
290
1
176
1
290
1
176
1
290
0
176
1
290
0
176
1
290
0
176
1
290
0
176
1
290
0
176
1
290
0
176
1
 90
50
176
1
 40
0.0
176
1
 40
1.0
176
1
 90
0
176
1
 62
18
420
0
176
1
 90
50
176
1
 90
3
176
1
 62
5
420
255
176
1
290
0
176
1
 90
50
176
1
 90
50
176
1
 90
50
176
1
290
0
176
1
 90
50
176
1
 62
256
176
0
 40
1.0
176
0
 90
2
176
1
  1
strokes_ogs.tif
176
1
290
0
176
1
 40
1.0
176
1
 40
1.0
176
1
  0
VISUALSTYLE
  5
5C
102
{ACAD_REACTORS
330
16
102
}
330
16
100
AcDbVisualStyle
  2
Brighten
 70
12
177
3
291
1
 70
58
 90
2
176
1
 90
2
176
1
 90
0
176
1
 90
2
176
1
 40
0.6
176
1
 40
30.0
176
1
 62
7
420
16777215
176
1
 90
1
176
1
 90
4
176
1
 62
7
176
1
 62
257
176
1
 90
1
176
1
 90
1
176
1
 40
1.0
176
1
 90
8
176
1
 62
7
176
1
 40
1.0
176
1
 90
1
176
1
 90
6
176
1
 90
2
176
1
 62
7
176
1
 90
5
176
1
 90
0
176
1
 90
0
176
1
290
0
176
1
 90
1
176
1
 40
0.0
176
1
 90
0
176
1
290
0
176
1
290
1
176
1
290
1
176
1
290
0
176
1
290
0
176
1
290
0
176
1
290
0
176
1
290
0
176
1
290
0
176
1
 90
50
176
1
 40
0.0
176
1
 40
1.0
176
1
 90
0
176
1
 62
18
420
0
176
1
 90
50
176
1
 90
3
176
1
 62
5
420
255
176
1
290
0
176
1
 90
50
176
1
 90
50
176
1
 90
50
176
1
290
0
176
1
 90
50
176
1
 62
256
176
0
 40
1.0
176
0
 90
2
176
1
  1
strokes_ogs.tif
176
1
290
0
176
1
 40
1.0
176
1
 40
1.0
176
1
  0
VISUALSTYLE
  5
5D
102
{ACAD_REACTORS
330
16
102
}
330
16
100
AcDbVisualStyle
  2
ColorChange
 70
16
177
3
291
1
 70
58
 90
2
176
1
 90
2
176
1
 90
0
176
1
 90
2
176
1
 40
0.6
176
1
 40
30.0
176
1
 62
7
420
16777215
176
1
 90
1
176
1
 90
4
176
1
 62
7
176
1
 62
257
176
1
 90
1
176
1
 90
1
176
1
 40
1.0
176
1
 90
8
176
1
 62
7
176
1
 40
1.0
176
1
 90
1
176
1
 90
6
176
1
 90
2
176
1
 62
7
176
1
 90
5
176
1
 90
0
176
1
 90
0
176
1
290
0
176
1
 90
1
176
1
 40
0.0
176
1
 90
0
176
1
290
0
176
1
290
1
176
1
290
1
176
1
290
0
176
1
290
0
176
1
290
0
176
1
290
0
176
1
290
0
176
1
290
0
176
1
 90
50
176
1
 40
0.0
176
1
 40
1.0
176
1
 90
0
176
1
 62
18
420
0
176
1
 90
50
176
1
 90
3
176
1
 62
5
420
255
176
1
290
0
176
1
 90
50
176
1
 90
50
176
1
 90
50
176
1
290
0
176
1
 90
50
176
1
 62
256
176
0
 40
1.0
176
0
 90
2
176
1
  1
strokes_ogs.tif
176
1
290
0
176
1
 40
1.0
176
1
 40
1.0
176
1
  0
VISUALSTYLE
  5
5E
102
{ACAD_REACTORS
330
16
102
}
330
16
100
AcDbVisualStyle
  2
Conceptual
 70
9
177
3
291
0
 70
58
 90
2
176
1
 90
2
176
1
 90
0
176
1
 90
3
176
1
 40
0.6
176
1
 40
30.0
176
1
 62
7
420
16777215
176
1
 90
1
176
1
 90
4
176
1
 62
7
176
1
 62
257
176
1
 90
1
176
1
 90
1
176
1
 40
1.0
176
1
 90
8
176
1
 62
7
176
1
 40
1.0
176
1
 90
1
176
1
 90
6
176
1
 90
2
176
1
 62
7
176
1
 90
5
176
1
 90
0
176
1
 90
0
176
1
290
0
176
1
 90
1
176
1
 40
0.0
176
1
 90
0
176
1
290
0
176
1
290
1
176
1
290
1
176
1
290
0
176
1
290
0
176
1
290
0
176
1
290
0
176
1
290
0
176
1
290
0
176
1
 90
50
176
1
 40
0.0
176
1
 40
1.0
176
1
 90
0
176
1
 62
18
420
0
176
1
 90
50
176
1
 90
3
176
1
 62
5
420
255
176
1
290
0
176
1
 90
50
176
1
 90
50
176
1
 90
50
176
1
290
0
176
1
 90
50
176
1
 62
256
176
0
 40
1.0
176
0
 90
2
176
1
  1
strokes_ogs.tif
176
1
290
0
176
1
 40
1.0
176
1
 40
1.0
176
1
  0
VISUALSTYLE
  5
5F
102
{ACAD_REACTORS
330
16
102
}
330
16
100
AcDbVisualStyle
  2
Dim
 70
11
177
3
291
1
 70
58
 90
2
176
1
 90
2
176
1
 90
0
176
1
 90
2
176
1
 40
0.6
176
1
 40
30.0
176
1
 62
7
420
16777215
176
1
 90
1
176
1
 90
4
176
1
 62
7
176
1
 62
257
176
1
 90
1
176
1
 90
1
176
1
 40
1.0
176
1
 90
8
176
1
 62
7
176
1
 40
1.0
176
1
 90
1
176
1
 90
6
176
1
 90
2
176
1
 62
7
176
1
 90
5
176
1
 90
0
176
1
 90
0
176
1
290
0
176
1
 90
1
176
1
 40
0.0
176
1
 90
0
176
1
290
0
176
1
290
1
176
1
290
1
176
1
290
0
176
1
290
0
176
1
290
0
176
1
290
0
176
1
290
0
176
1
290
0
176
1
 90
50
176
1
 40
0.0
176
1
 40
1.0
176
1
 90
0
176
1
 62
18
420
0
176
1
 90
50
176
1
 90
3
176
1
 62
5
420
255
176
1
290
0
176
1
 90
50
176
1
 90
50
176
1
 90
50
176
1
290
0
176
1
 90
50
176
1
 62
256
176
0
 40
1.0
176
0
 90
2
176
1
  1
strokes_ogs.tif
176
1
290
0
176
1
 40
1.0
176
1
 40
1.0
176
1
  0
VISUALSTYLE
  5
60
102
{ACAD_REACTORS
330
16
102
}
330
16
100
AcDbVisualStyle
  2
EdgeColorOff
 70
22
177
3
291
1
 70
58
 90
2
176
1
 90
2
176
1
 90
0
176
1
 90
2
176
1
 40
0.6
176
1
 40
30.0
176
1
 62
7
420
16777215
176
1
 90
1
176
1
 90
4
176
1
 62
7
176
1
 62
257
176
1
 90
1
176
1
 90
1
176
1
 40
1.0
176
1
 90
8
176
1
 62
7
176
1
 40
1.0
176
1
 90
1
176
1
 90
6
176
1
 90
2
176
1
 62
7
176
1
 90
5
176
1
 90
0
176
1
 90
0
176
1
290
0
176
1
 90
1
176
1
 40
0.0
176
1
 90
0
176
1
290
0
176
1
290
1
176
1
290
1
176
1
290
0
176
1
290
0
176
1
290
0
176
1
290
0
176
1
290
0
176
1
290
0
176
1
 90
50
176
1
 40
0.0
176
1
 40
1.0
176
1
 90
0
176
1
 62
18
420
0
176
1
 90
50
176
1
 90
3
176
1
 62
5
420
255
176
1
290
0
176
1
 90
50
176
1
 90
50
176
1
 90
50
176
1
290
0
176
1
 90
50
176
1
 62
256
176
0
 40
1.0
176
0
 90
2
176
1
  1
strokes_ogs.tif
176
1
290
0
176
1
 40
1.0
176
1
 40
1.0
176
1
  0
VISUALSTYLE
  5
61
102
{ACAD_REACTORS
330
16
102
}
330
16
100
AcDbVisualStyle
  2
Facepattern
 70
15
177
3
291
1
 70
58
 90
2
176
1
 90
2
176
1
 90
0
176
1
 90
2
176
1
 40
0.6
176
1
 40
30.0
176
1
 62
7
420
16777215
176
1
 90
1
176
1
 90
4
176
1
 62
7
176
1
 62
257
176
1
 90
1
176
1
 90
1
176
1
 40
1.0
176
1
 90
8
176
1
 62
7
176
1
 40
1.0
176
1
 90
1
176
1
 90
6
176
1
 90
2
176
1
 62
7
176
1
 90
5
176
1
 90
0
176
1
 90
0
176
1
290
0
176
1
 90
1
176
1
 40
0.0
176
1
 90
0
176
1
290
0
176
1
290
1
176
1
290
1
176
1
290
0
176
1
290
0
176
1
290
0
176
1
290
0
176
1
290
0
176
1
290
0
176
1
 90
50
176
1
 40
0.0
176
1
 40
1.0
176
1
 90
0
176
1
 62
18
420
0
176
1
 90
50
176
1
 90
3
176
1
 62
5
420
255
176
1
290
0
176
1
 90
50
176
1
 90
50
176
1
 90
50
176
1
290
0
176
1
 90
50
176
1
 62
256
176
0
 40
1.0
176
0
 90
2
176
1
  1
strokes_ogs.tif
176
1
290
0
176
1
 40
1.0
176
1
 40
1.0
176
1
  0
VISUALSTYLE
  5
62
102
{ACAD_REACTORS
330
16
102
}
330
16
100
AcDbVisualStyle
  2
Flat
 70
0
177
3
291
1
 70
58
 90
2
176
1
 90
2
176
1
 90
0
176
1
 90
2
176
1
 40
0.6
176
1
 40
30.0
176
1
 62
7
420
16777215
176
1
 90
1
176
1
 90
4
176
1
 62
7
176
1
 62
257
176
1
 90
1
176
1
 90
1
176
1
 40
1.0
176
1
 90
8
176
1
 62
7
176
1
 40
1.0
176
1
 90
1
176
1
 90
6
176
1
 90
2
176
1
 62
7
176
1
 90
5
176
1
 90
0
176
1
 90
0
176
1
290
0
176
1
 90
1
176
1
 40
0.0
176
1
 90
0
176
1
290
0
176
1
290
1
176
1
290
1
176
1
290
0
176
1
290
0
176
1
290
0
176
1
290
0
176
1
290
0
176
1
290
0
176
1
 90
50
176
1
 40
0.0
176
1
 40
1.0
176
1
 90
0
176
1
 62
18
420
0
176
1
 90
50
176
1
 90
3
176
1
 62
5
420
255
176
1
290
0
176
1
 90
50
176
1
 90
50
176
1
 90
50
176
1
290
0
176
1
 90
50
176
1
 62
256
176
0
 40
1.0
176
0
 90
2
176
1
  1
strokes_ogs.tif
176
1
290
0
176
1
 40
1.0
176
1
 40
1.0
176
1
  0
VISUALSTYLE
  5
63
102
{ACAD_REACTORS
330
16
102
}
330
16
100
AcDbVisualStyle
  2
FlatWithEdges
 70
1
177
3
291
1
 70
58
 90
2
176
1
 90
2
176
1
 90
0
176
1
 90
2
176
1
 40
0.6
176
1
 40
30.0
176
1
 62
7
420
16777215
176
1
 90
1
176
1
 90
4
176
1
 62
7
176
1
 62
257
176
1
 90
1
176
1
 90
1
176
1
 40
1.0
176
1
 90
8
176
1
 62
7
176
1
 40
1.0
176
1
 90
1
176
1
 90
6
176
1
 90
2
176
1
 62
7
176
1
 90
5
176
1
 90
0
176
1
 90
0
176
1
290
0
176
1
 90
1
176
1
 40
0.0
176
1
 90
0
176
1
290
0
176
1
290
1
176
1
290
1
176
1
290
0
176
1
290
0
176
1
290
0
176
1
290
0
176
1
290
0
176
1
290
0
176
1
 90
50
176
1
 40
0.0
176
1
 40
1.0
176
1
 90
0
176
1
 62
18
420
0
176
1
 90
50
176
1
 90
3
176
1
 62
5
420
255
176
1
290
0
176
1
 90
50
176
1
 90
50
176
1
 90
50
176
1
290
0
176
1
 90
50
176
1
 62
256
176
0
 40
1.0
176
0
 90
2
176
1
  1
strokes_ogs.tif
176
1
290
0
176
1
 40
1.0
176
1
 40
1.0
176
1
  0
VISUALSTYLE
  5
64
102
{ACAD_REACTORS
330
16
102
}
330
16
100
AcDbVisualStyle
  2
Gouraud
 70
2
177
3
291
1
 70
58
 90
2
176
1
 90
2
176
1
 90
0
176
1
 90
2
176
1
 40
0.6
176
1
 40
30.0
176
1
 62
7
420
16777215
176
1
 90
1
176
1
 90
4
176
1
 62
7
176
1
 62
257
176
1
 90
1
176
1
 90
1
176
1
 40
1.0
176
1
 90
8
176
1
 62
7
176
1
 40
1.0
176
1
 90
1
176
1
 90
6
176
1
 90
2
176
1
 62
7
176
1
 90
5
176
1
 90
0
176
1
 90
0
176
1
290
0
176
1
 90
1
176
1
 40
0.0
176
1
 90
0
176
1
290
0
176
1
290
1
176
1
290
1
176
1
290
0
176
1
290
0
176
1
290
0
176
1
290
0
176
1
290
0
176
1
290
0
176
1
 90
50
176
1
 40
0.0
176
1
 40
1.0
176
1
 90
0
176
1
 62
18
420
0
176
1
 90
50
176
1
 90
3
176
1
 62
5
420
255
176
1
290
0
176
1
 90
50
176
1
 90
50
176
1
 90
50
176
1
290
0
176
1
 90
50
176
1
 62
256
176
0
 40
1.0
176
0
 90
2
176
1
  1
strokes_ogs.tif
176
1
290
0
176
1
 40
1.0
176
1
 40
1.0
176
1
  0
VISUALSTYLE
  5
65
102
{ACAD_REACTORS
330
16
102
}
330
16
100
AcDbVisualStyle
  2
GouraudWithEdges
 70
3
177
3
291
1
 70
58
 90
2
176
1
 90
2
176
1
 90
0
176
1
 90
2
176
1
 40
0.6
176
1
 40
30.0
176
1
 62
7
420
16777215
176
1
 90
1
176
1
 90
4
176
1
 62
7
176
1
 62
257
176
1
 90
1
176
1
 90
1
176
1
 40
1.0
176
1
 90
8
176
1
 62
7
176
1
 40
1.0
176
1
 90
1
176
1
 90
6
176
1
 90
2
176
1
 62
7
176
1
 90
5
176
1
 90
0
176
1
 90
0
176
1
290
0
176
1
 90
1
176
1
 40
0.0
176
1
 90
0
176
1
290
0
176
1
290
1
176
1
290
1
176
1
290
0
176
1
290
0
176
1
290
0
176
1
290
0
176
1
290
0
176
1
290
0
176
1
 90
50
176
1
 40
0.0
176
1
 40
1.0
176
1
 90
0
176
1
 62
18
420
0
176
1
 90
50
176
1
 90
3
176
1
 62
5
420
255
176
1
290
0
176
1
 90
50
176
1
 90
50
176
1
 90
50
176
1
290
0
176
1
 90
50
176
1
 62
256
176
0
 40
1.0
176
0
 90
2
176
1
  1
strokes_ogs.tif
176
1
290
0
176
1
 40
1.0
176
1
 40
1.0
176
1
  0
VISUALSTYLE
  5
66
102
{ACAD_REACTORS
330
16
102
}
330
16
100
AcDbVisualStyle
  2
Hidden
 70
6
177
3
291
0
 70
58
 90
2
176
1
 90
2
176
1
 90
0
176
1
 90
1
176
1
 40
0.6
176
1
 40
30.0
176
1
 62
7
420
16777215
176
1
 90
1
176
1
 90
4
176
1
 62
7
176
1
 62
257
176
1
 90
1
176
1
 90
1
176
1
 40
1.0
176
1
 90
8
176
1
 62
7
176
1
 40
1.0
176
1
 90
1
176
1
 90
6
176
1
 90
2
176
1
 62
7
176
1
 90
5
176
1
 90
0
176
1
 90
0
176
1
290
0
176
1
 90
1
176
1
 40
0.0
176
1
 90
0
176
1
290
0
176
1
290
1
176
1
290
1
176
1
290
0
176
1
290
0
176
1
290
0
176
1
290
0
176
1
290
0
176
1
290
0
176
1
 90
50
176
1
 40
0.0
176
1
 40
1.0
176
1
 90
0
176
1
 62
18
420
0
176
1
 90
50
176
1
 90
3
176
1
 62
5
420
255
176
1
290
0
176
1
 90
50
176
1
 90
50
176
1
 90
50
176
1
290
0
176
1
 90
50
176
1
 62
256
176
0
 40
1.0
176
0
 90
2
176
1
  1
strokes_ogs.tif
176
1
290
0
176
1
 40
1.0
176
1
 40
1.0
176
1
  0
VISUALSTYLE
  5
67
102
{ACAD_REACTORS
330
16
102
}
330
16
100
AcDbVisualStyle
  2
JitterOff
 70
20
177
3
291
1
 70
58
 90
2
176
1
 90
2
176
1
 90
0
176
1
 90
2
176
1
 40
0.6
176
1
 40
30.0
176
1
 62
7
420
16777215
176
1
 90
1
176
1
 90
4
176
1
 62
7
176
1
 62
257
176
1
 90
1
176
1
 90
1
176
1
 40
1.0
176
1
 90
8
176
1
 62
7
176
1
 40
1.0
176
1
 90
1
176
1
 90
6
176
1
 90
2
176
1
 62
7
176
1
 90
5
176
1
 90
0
176
1
 90
0
176
1
290
0
176
1
 90
1
176
1
 40
0.0
176
1
 90
0
176
1
290
0
176
1
290
1
176
1
290
1
176
1
290
0
176
1
290
0
176
1
290
0
176
1
290
0
176
1
290
0
176
1
290
0
176
1
 90
50
176
1
 40
0.0
176
1
 40
1.0
176
1
 90
0
176
1
 62
18
420
0
176
1
 90
50
176
1
 90
3
176
1
 62
5
420
255
176
1
290
0
176
1
 90
50
176
1
 90
50
176
1
 90
50
176
1
290
0
176
1
 90
50
176
1
 62
256
176
0
 40
1.0
176
0
 90
2
176
1
  1
strokes_ogs.tif
176
1
290
0
176
1
 40
1.0
176
1
 40
1.0
176
1
  0
VISUALSTYLE
  5
68
102
{ACAD_REACTORS
330
16
102
}
330
16
100
AcDbVisualStyle
  2
Linepattern
 70
14
177
3
291
1
 70
58
 90
2
176
1
 90
2
176
1
 90
0
176
1
 90
2
176
1
 40
0.6
176
1
 40
30.0
176
1
 62
7
420
16777215
176
1
 90
1
176
1
 90
4
176
1
 62
7
176
1
 62
257
176
1
 90
1
176
1
 90
1
176
1
 40
1.0
176
1
 90
8
176
1
 62
7
176
1
 40
1.0
176
1
 90
1
176
1
 90
6
176
1
 90
2
176
1
 62
7
176
1
 90
5
176
1
 90
0
176
1
 90
0
176
1
290
0
176
1
 90
1
176
1
 40
0.0
176
1
 90
0
176
1
290
0
176
1
290
1
176
1
290
1
176
1
290
0
176
1
290
0
176
1
290
0
176
1
290
0
176
1
290
0
176
1
290
0
176
1
 90
50
176
1
 40
0.0
176
1
 40
1.0
176
1
 90
0
176
1
 62
18
420
0
176
1
 90
50
176
1
 90
3
176
1
 62
5
420
255
176
1
290
0
176
1
 90
50
176
1
 90
50
176
1
 90
50
176
1
290
0
176
1
 90
50
176
1
 62
256
176
0
 40
1.0
176
0
 90
2
176
1
  1
strokes_ogs.tif
176
1
290
0
176
1
 40
1.0
176
1
 40
1.0
176
1
  0
VISUALSTYLE
  5
69
102
{ACAD_REACTORS
330
16
102
}
330
16
100
AcDbVisualStyle
  2
Modeling
 70
10
177
3
291
0
 70
58
 90
2
176
1
 90
2
176
1
 90
0
176
1
 90
2
176
1
 40
0.6
176
1
 40
30.0
176
1
 62
7
420
16777215
176
1
 90
1
176
1
 90
4
176
1
 62
7
176
1
 62
257
176
1
 90
1
176
1
 90
1
176
1
 40
1.0
176
1
 90
8
176
1
 62
7
176
1
 40
1.0
176
1
 90
1
176
1
 90
6
176
1
 90
2
176
1
 62
7
176
1
 90
5
176
1
 90
0
176
1
 90
0
176
1
290
0
176
1
 90
1
176
1
 40
0.0
176
1
 90
0
176
1
290
0
176
1
290
1
176
1
290
1
176
1
290
0
176
1
290
0
176
1
290
0
176
1
290
0
176
1
290
0
176
1
290
0
176
1
 90
50
176
1
 40
0.0
176
1
 40
1.0
176
1
 90
0
176
1
 62
18
420
0
176
1
 90
50
176
1
 90
3
176
1
 62
5
420
255
176
1
290
0
176
1
 90
50
176
1
 90
50
176
1
 90
50
176
1
290
0
176
1
 90
50
176
1
 62
256
176
0
 40
1.0
176
0
 90
2
176
1
  1
strokes_ogs.tif
176
1
290
0
176
1
 40
1.0
176
1
 40
1.0
176
1
  0
VISUALSTYLE
  5
6A
102
{ACAD_REACTORS
330
16
102
}
330
16
100
AcDbVisualStyle
  2
OverhangOff
 70
21
177
3
291
1
 70
58
 90
2
176
1
 90
2
176
1
 90
0
176
1
 90
2
176
1
 40
0.6
176
1
 40
30.0
176
1
 62
7
420
16777215
176
1
 90
1
176
1
 90
4
176
1
 62
7
176
1
 62
257
176
1
 90
1
176
1
 90
1
176
1
 40
1.0
176
1
 90
8
176
1
 62
7
176
1
 40
1.0
176
1
 90
1
176
1
 90
6
176
1
 90
2
176
1
 62
7
176
1
 90
5
176
1
 90
0
176
1
 90
0
176
1
290
0
176
1
 90
1
176
1
 40
0.0
176
1
 90
0
176
1
290
0
176
1
290
1
176
1
290
1
176
1
290
0
176
1
290
0
176
1
290
0
176
1
290
0
176
1
290
0
176
1
290
0
176
1
 90
50
176
1
 40
0.0
176
1
 40
1.0
176
1
 90
0
176
1
 62
18
420
0
176
1
 90
50
176
1
 90
3
176
1
 62
5
420
255
176
1
290
0
176
1
 90
50
176
1
 90
50
176
1
 90
50
176
1
290
0
176
1
 90
50
176
1
 62
256
176
0
 40
1.0
176
0
 90
2
176
1
  1
strokes_ogs.tif
176
1
290
0
176
1
 40
1.0
176
1
 40
1.0
176
1
  0
VISUALSTYLE
  5
6B
102
{ACAD_REACTORS
330
16
102
}
330
16
100
AcDbVisualStyle
  2
Realistic
 70
8
177
3
291
0
 70
58
 90
2
176
1
 90
2
176
1
 90
0
176
1
 90
2
176
1
 40
0.6
176
1
 40
30.0
176
1
 62
7
420
16777215
176
1
 90
1
176
1
 90
4
176
1
 62
7
176
1
 62
257
176
1
 90
1
176
1
 90
1
176
1
 40
1.0
176
1
 90
8
176
1
 62
7
176
1
 40
1.0
176
1
 90
1
176
1
 90
6
176
1
 90
2
176
1
 62
7
176
1
 90
5
176
1
 90
0
176
1
 90
0
176
1
290
0
176
1
 90
1
176
1
 40
0.0
176
1
 90
0
176
1
290
0
176
1
290
1
176
1
290
1
176
1
290
0
176
1
290
0
176
1
290
0
176
1
290
0
176
1
290
0
176
1
290
0
176
1
 90
50
176
1
 40
0.0
176
1
 40
1.0
176
1
 90
0
176
1
 62
18
420
0
176
1
 90
50
176
1
 90
3
176
1
 62
5
420
255
176
1
290
0
176
1
 90
50
176
1
 90
50
176
1
 90
50
176
1
290
0
176
1
 90
50
176
1
 62
256
176
0
 40
1.0
176
0
 90
2
176
1
  1
strokes_ogs.tif
176
1
290
0
176
1
 40
1.0
176
1
 40
1.0
176
1
  0
VISUALSTYLE
  5
6C
102
{ACAD_REACTORS
330
16
102
}
330
16
100
AcDbVisualStyle
  2
Shaded
 70
27
177
3
291
0
 70
58
 90
2
176
1
 90
2
176
1
 90
0
176
1
 90
2
176
1
 40
0.6
176
1
 40
30.0
176
1
 62
7
420
16777215
176
1
 90
1
176
1
 90
4
176
1
 62
7
176
1
 62
257
176
1
 90
1
176
1
 90
1
176
1
 40
1.0
176
1
 90
8
176
1
 62
7
176
1
 40
1.0
176
1
 90
1
176
1
 90
6
176
1
 90
2
176
1
 62
7
176
1
 90
5
176
1
 90
0
176
1
 90
0
176
1
290
0
176
1
 90
1
176
1
 40
0.0
176
1
 90
0
176
1
290
0
176
1
290
1
176
1
290
1
176
1
290
0
176
1
290
0
176
1
290
0
176
1
290
0
176
1
290
0
176
1
290
0
176
1
 90
50
176
1
 40
0.0
176
1
 40
1.0
176
1
 90
0
176
1
 62
18
420
0
176
1
 90
50
176
1
 90
3
176
1
 62
5
420
255
176
1
290
0
176
1
 90
50
176
1
 90
50
176
1
 90
50
176
1
290
0
176
1
 90
50
176
1
 62
256
176
0
 40
1.0
176
0
 90
2
176
1
  1
strokes_ogs.tif
176
1
290
0
176
1
 40
1.0
176
1
 40
1.0
176
1
  0
VISUALSTYLE
  5
6D
102
{ACAD_REACTORS
330
16
102
}
330
16
100
AcDbVisualStyle
  2
Shaded with edges
 70
26
177
3
291
0
 70
58
 90
2
176
1
 90
2
176
1
 90
0
176
1
 90
2
176
1
 40
0.6
176
1
 40
30.0
176
1
 62
7
420
16777215
176
1
 90
1
176
1
 90
4
176
1
 62
7
176
1
 62
257
176
1
 90
1
176
1
 90
1
176
1
 40
1.0
176
1
 90
8
176
1
 62
7
176
1
 40
1.0
176
1
 90
1
176
1
 90
6
176
1
 90
2
176
1
 62
7
176
1
 90
5
176
1
 90
0
176
1
 90
0
176
1
290
0
176
1
 90
1
176
1
 40
0.0
176
1
 90
0
176
1
290
0
176
1
290
1
176
1
290
1
176
1
290
0
176
1
290
0
176
1
290
0
176
1
290
0
176
1
290
0
176
1
290
0
176
1
 90
50
176
1
 40
0.0
176
1
 40
1.0
176
1
 90
0
176
1
 62
18
420
0
176
1
 90
50
176
1
 90
3
176
1
 62
5
420
255
176
1
290
0
176
1
 90
50
176
1
 90
50
176
1
 90
50
176
1
290
0
176
1
 90
50
176
1
 62
256
176
0
 40
1.0
176
0
 90
2
176
1
  1
strokes_ogs.tif
176
1
290
0
176
1
 40
1.0
176
1
 40
1.0
176
1
  0
VISUALSTYLE
  5
6E
102
{ACAD_REACTORS
330
16
102
}
330
16
100
AcDbVisualStyle
  2
Shades of Gray
 70
23
177
3
291
0
 70
58
 90
2
176
1
 90
2
176
1
 90
0
176
1
 90
2
176
1
 40
0.6
176
1
 40
30.0
176
1
 62
7
420
16777215
176
1
 90
1
176
1
 90
4
176
1
 62
7
176
1
 62
257
176
1
 90
1
176
1
 90
1
176
1
 40
1.0
176
1
 90
8
176
1
 62
7
176
1
 40
1.0
176
1
 90
1
176
1
 90
6
176
1
 90
2
176
1
 62
7
176
1
 90
5
176
1
 90
0
176
1
 90
0
176
1
290
0
176
1
 90
1
176
1
 40
0.0
176
1
 90
0
176
1
290
0
176
1
290
1
176
1
290
1
176
1
290
0
176
1
290
0
176
1
290
0
176
1
290
0
176
1
290
0
176
1
290
0
176
1
 90
50
176
1
 40
0.0
176
1
 40
1.0
176
1
 90
0
176
1
 62
18
420
0
176
1
 90
50
176
1
 90
3
176
1
 62
5
420
255
176
1
290
0
176
1
 90
50
176
1
 90
50
176
1
 90
50
176
1
290
0
176
1
 90
50
176
1
 62
256
176
0
 40
1.0
176
0
 90
2
176
1
  1
strokes_ogs.tif
176
1
290
0
176
1
 40
1.0
176
1
 40
1.0
176
1
  0
VISUALSTYLE
  5
6F
102
{ACAD_REACTORS
330
16
102
}
330
16
100
AcDbVisualStyle
  2
Sketchy
 70
24
177
3
291
0
 70
58
 90
2
176
1
 90
2
176
1
 90
0
176
1
 90
1
176
1
 40
0.6
176
1
 40
30.0
176
1
 62
7
420
16777215
176
1
 90
1
176
1
 90
4
176
1
 62
7
176
1
 62
257
176
1
 90
1
176
1
 90
1
176
1
 40
1.0
176
1
 90
8
176
1
 62
7
176
1
 40
1.0
176
1
 90
1
176
1
 90
6
176
1
 90
2
176
1
 62
7
176
1
 90
5
176
1
 90
0
176
1
 90
0
176
1
290
0
176
1
 90
1
176
1
 40
0.0
176
1
 90
0
176
1
290
0
176
1
290
1
176
1
290
1
176
1
290
0
176
1
290
0
176
1
290
0
176
1
290
0
176
1
290
0
176
1
290
0
176
1
 90
50
176
1
 40
0.0
176
1
 40
1.0
176
1
 90
0
176
1
 62
18
420
0
176
1
 90
50
176
1
 90
3
176
1
 62
5
420
255
176
1
290
0
176
1
 90
50
176
1
 90
50
176
1
 90
50
176
1
290
0
176
1
 90
50
176
1
 62
256
176
0
 40
1.0
176
0
 90
2
176
1
  1
strokes_ogs.tif
176
1
290
0
176
1
 40
1.0
176
1
 40
1.0
176
1
  0
VISUALSTYLE
  5
70
102
{ACAD_REACTORS
330
16
102
}
330
16
100
AcDbVisualStyle
  2
Thicken
 70
13
177
3
291
1
 70
58
 90
2
176
1
 90
2
176
1
 90
0
176
1
 90
2
176
1
 40
0.6
176
1
 40
30.0
176
1
 62
7
420
16777215
176
1
 90
1
176
1
 90
4
176
1
 62
7
176
1
 62
257
176
1
 90
1
176
1
 90
1
176
1
 40
1.0
176
1
 90
8
176
1
 62
7
176
1
 40
1.0
176
1
 90
1
176
1
 90
6
176
1
 90
2
176
1
 62
7
176
1
 90
5
176
1
 90
0
176
1
 90
0
176
1
290
0
176
1
 90
1
176
1
 40
0.0
176
1
 90
0
176
1
290
0
176
1
290
1
176
1
290
1
176
1
290
0
176
1
290
0
176
1
290
0
176
1
290
0
176
1
290
0
176
1
290
0
176
1
 90
50
176
1
 40
0.0
176
1
 40
1.0
176
1
 90
0
176
1
 62
18
420
0
176
1
 90
50
176
1
 90
3
176
1
 62
5
420
255
176
1
290
0
176
1
 90
50
176
1
 90
50
176
1
 90
50
176
1
290
0
176
1
 90
50
176
1
 62
256
176
0
 40
1.0
176
0
 90
2
176
1
  1
strokes_ogs.tif
176
1
290
0
176
1
 40
1.0
176
1
 40
1.0
176
1
  0
VISUALSTYLE
  5
71
102
{ACAD_REACTORS
330
16
102
}
330
16
100
AcDbVisualStyle
  2
Wireframe
 70
5
177
3
291
0
 70
58
 90
2
176
1
 90
2
176
1
 90
0
176
1
 90
0
176
1
 40
0.6
176
1
 40
30.0
176
1
 62
7
420
16777215
176
1
 90
1
176
1
 90
4
176
1
 62
7
176
1
 62
257
176
1
 90
1
176
1
 90
1
176
1
 40
1.0
176
1
 90
8
176
1
 62
7
176
1
 40
1.0
176
1
 90
1
176
1
 90
6
176
1
 90
2
176
1
 62
7
176
1
 90
5
176
1
 90
0
176
1
 90
0
176
1
290
0
176
1
 90
1
176
1
 40
0.0
176
1
 90
0
176
1
290
0
176
1
290
1
176
1
290
1
176
1
290
0
176
1
290
0
176
1
290
0
176
1
290
0
176
1
290
0
176
1
290
0
176
1
 90
50
176
1
 40
0.0
176
1
 40
1.0
176
1
 90
0
176
1
 62
18
420
0
176
1
 90
50
176
1
 90
3
176
1
 62
5
420
255
176
1
290
0
176
1
 90
50
176
1
 90
50
176
1
 90
50
176
1
290
0
176
1
 90
50
176
1
 62
256
176
0
 40
1.0
176
0
 90
2
176
1
  1
strokes_ogs.tif
176
1
290
0
176
1
 40
1.0
176
1
 40
1.0
176
1
  0
VISUALSTYLE
  5
72
102
{ACAD_REACTORS
330
16
102
}
330
16
100
AcDbVisualStyle
  2
X-Ray
 70
25
177
3
291
0
 70
58
 90
2
176
1
 90
2
176
1
 90
0
176
1
 90
2
176
1
 40
0.5
176
1
 40
30.0
176
1
 62
7
420
16777215
176
1
 90
1
176
1
 90
4
176
1
 62
7
176
1
 62
257
176
1
 90
1
176
1
 90
1
176
1
 40
1.0
176
1
 90
8
176
1
 62
7
176
1
 40
1.0
176
1
 90
1
176
1
 90
6
176
1
 90
2
176
1
 62
7
176
1
 90
5
176
1
 90
0
176
1
 90
0
176
1
290
0
176
1
 90
1
176
1
 40
0.0
176
1
 90
0
176
1
290
0
176
1
290
1
176
1
290
1
176
1
290
0
176
1
290
0
176
1
290
0
176
1
290
0
176
1
290
0
176
1
290
0
176
1
 90
50
176
1
 40
0.0
176
1
 40
1.0
176
1
 90
0
176
1
 62
18
420
0
176
1
 90
50
176
1
 90
3
176
1
 62
5
420
255
176
1
290
0
176
1
 90
50
176
1
 90
50
176
1
 90
50
176
1
290
0
176
1
 90
50
176
1
 62
256
176
0
 40
1.0
176
0
 90
2
176
1
  1
strokes_ogs.tif
176
1
290
0
176
1
 40
1.0
176
1
 40
1.0
176
1
  0
DICTIONARYVAR
  5
8F
330
2D
100
DictionaryVariables
280
0
  1
1.4.3 @ 2025-11-30T14:07:54.404349+00:00
  0
ENDSEC
  0
EOF
