<?xml version="1.0" encoding="utf-8" ?>
<svg baseProfile="full" height="120mm" version="1.1" viewBox="-17937.172084298487,-18437.141748834016,36869.397903563535,35874.5599537759" width="120mm" xmlns="http://www.w3.org/2000/svg" xmlns:ev="http://www.w3.org/2001/xml-events" xmlns:xlink="http://www.w3.org/1999/xlink"><defs /><polyline fill="none" points="200.0,0.0 208.26877142743896,5.458260344080135 216.38311852474783,11.349634060451084 224.32602956546856,17.669626854024003 232.08062622703576,24.413150592367103 239.63018302121577,31.574527313201536 246.95814660345374,39.1474938421273 254.0481549424994,47.125207016914864 260.8840563317934,55.5002495141414 267.44992822422176,64.26463627339655 273.7300958719926,73.40982151373328 279.7091507535437,82.92670633649303 285.3719687695709,92.80564690809443 290.7037281904539,103.03646321583852 295.6899273375672,113.60844838925367 300.31640198118384,124.51037857897998 304.56934243791926,135.73052338467522 308.43531035091667,147.25665682291455 311.90125513624236,159.07606882555322 314.9545300792435,171.1755772585273 317.5829080649189,183.54154045058053 319.77459692666565,196.15987022092756 321.5182543980887,209.01604539439643 322.80300265290447,222.09512579213285 323.61844241831847,235.38176668550122 323.95466664762756,248.860233700378 323.8022737381739,262.5144181586053 323.15238028117267,276.3278528429568 321.996633330339,290.2837281715629 320.3272221766544,304.3649087673466 318.1368896170443,318.5539504076441 315.41894270517554,332.8331173388141 312.16726297303234,347.184399940282 308.3763161123919,361.5895327221276 304.0411611057903,376.0300126399912 299.15745879704934,390.4871177107605 293.7214798919275,404.9419259122008 287.73011237995297,419.37533434939957 281.1808683690076,433.76807867063087 274.0718903247447,448.10075271498226 266.40195670744515,462.3538283738482 258.1704869994498,476.50767564816573 249.37754611683883,490.54258288305556 240.0238481995778,504.43877716134256 230.1107597748923,518.1764448372384 219.64030228919393,531.7357521913176 208.61515400443653,545.0968661877644 197.03865125534588,558.2399753147347 184.91478906453546,571.1453104885736 172.2482211130901,583.7931660025152 159.04425906477698,596.1639205004257 145.30887124261676,608.2380579560769 131.04868065712964,619.9961886383936 116.2709623861511,631.419070043087 100.98364030669264,642.487627771073 85.19528317990687,653.1829763340787 68.91510009079771,663.48643986786 52.15293524489835,673.3795727334912 34.91926212472155,682.844179987245 17.22517700936577,691.8623376996453 -0.9176081387610378,700.4164131043786 -19.496773415563112,708.4890845578386 -38.49939934011434,716.0633612902135 -57.911975837072596,723.1226029291608 -77.72041183040709,729.650538777273 -97.91004544163323,735.631286824703 -118.46565478519413,741.0493724785205 -139.37146935307615,745.8897469905622 -160.61118198020162,750.137805565773 -182.16796138160245,753.7794051332634 -204.0244652518461,756.8008817625692 -226.16285391666145,759.1890677078653 -248.56480452619317,760.9313080631715 -271.2115257788053,762.0154770118893 -294.08377316385366,762.4299936543227 -317.1618647113541,762.163837397167 -340.42569723599297,761.206562889292 -363.85476306245096,759.5483144885098 -387.42816721855405,757.1798402443846 -411.12464508230374,754.0925053825325 -434.92258046841505,750.278305276255 -458.8000241395385,745.7298778917714 -482.73471272695025,740.440515693728 -506.7040880450645,734.4041769981131 -530.6853167837544,727.6154967601489 -554.655310562061,720.0697967851972 -578.5907463265322,711.763095351186 -602.468087077053,702.6921162315537 -626.2636029027128,692.8542971081929 -649.9533923099106,682.2477973643959 -673.5134038246088,670.8715052483 -696.9194578503276,658.725044397873 -720.1472687632174,645.8087797189974 -743.1724672252561,632.1238226087669 -765.9706226963904,617.6720355166443 -788.5172661261875,602.4560358367022 -810.787912805368,586.4791991247171 -832.7580853573618,569.7456616344735 -854.4033368498687,552.2603221682011 -875.6992740062279,534.0288432366525 -896.6215804962408,515.057651524929 -917.1460402859743,495.35393766073423 -937.248561025937,474.92565528235673 -956.9051974569359,453.7815194042618 -976.092174812827,431.9310040787998 -994.7859121993158,409.3843393531205 -1012.9630459279093,386.1525075210213 -1030.600452784104,362.24723867004076 -1047.675273208859,337.681005524748 -1064.1649343724425,312.46701758776743 -1080.0471731197265,286.6192145807185 -1095.3000587660763,260.1522591878366 -1109.9020157230239,233.08152910568296 -1123.8318459329955,205.42310840293453 -1137.0687510924602,177.19377819488415 -1149.5923546429767,148.41100663786048 -1161.3827235097456,119.09293824941108 -1172.4203895674261,89.25838256066466 -1182.686370813137,58.9268021079178 -1192.162192226745,28.11829977105167 -1200.829906298747,-3.146394532991221 -1208.6721132062717,-34.84593779289232 -1215.671980617949,-66.95838847241338 -1221.8132631086653,-99.46122169669562 -1227.080321165471,-132.33134504487447 -1231.458139766213,-165.54511493795962 -1234.9323465127407,-199.07835361034512 -1237.4892293008807,-232.90636665280843 -1239.1157535096766,-267.00396111428824 -1239.7995786927695,-301.34546414924347 -1239.5290747551358,-335.90474219684836 -1238.2933375987914,-370.65522067779705 -1236.082204221461,-405.5699041939937 -1232.8862672526234,-440.6213972159071 -1228.6968889117584,-475.7819252419224 -1223.5062143740718,-511.023356413534 -1217.307184529414,-546.3172235698087 -1210.0935481205747,-581.6347467240774 -1201.85987324762,-616.9468559454313 -1192.6015582254183,-652.2242146271487 -1182.3148417820073,-687.4372431238265 -1170.9968125859737,-722.5561427385674 -1158.6454180915296,-757.5509200412486 -1145.2594726905224,-792.3914114985091 -1130.838665161142,-827.0473083957886 -1115.3835654036695,-861.4881820314039 -1098.895630454154,-895.6835091623662 -1081.3772097675014,-929.60269768133 -1062.8315497620313,-963.2151125038207 -1043.2627976181518,-996.4901016445951 -1022.6760043244135,-1029.3970224617924 -1001.0771269648027,-1061.905268047266 -978.473030241749,-1093.9842937413225 -954.871487229958,-1125.6036437498747 -930.281179356791,-1156.732977841863 -904.7116956055546,-1187.34209810465 -878.1735309387153,-1217.4009757349331 -850.6780839386663,-1246.8797778426472 -822.2376536643569,-1275.7488942451876 -792.8654357227113,-1303.97896422924 -762.5755175544566,-1331.540903257411 -731.3828729345937,-1358.4059295968482 -699.3033556884249,-1384.5455908469817 -666.3536926247293,-1409.9317903435306 -632.5514756882901,-1434.5368134159378 -597.9151533346829,-1458.333353475416 -562.4640211308678,-1481.2945379108548 -526.2182115858086,-1503.3939537698907 -489.1986832159708,-1524.605673202559 -451.42720885123646,-1544.9042786450332 -412.92636318740506,-1564.264887721097 -373.7195095921266,-1582.663177839133 -333.8307861717186,-1600.0754104625903 -293.28509110700844,-1616.478455032069 -252.10806726694062,-1631.849812517359 -210.32608610936524,-1646.1676385780013 -167.96623087899687,-1659.410766311178 -125.05627911320826,-1671.558728565987 -81.62468446689732,-1682.5917798034482 -37.70055786831332,-1692.4909174818622 6.686351981722647,-1701.2379029474741 51.50567875412477,-1708.8152818107137 96.7264592657571,-1715.2064037886273 142.31715486931918,-1720.3954419944869 188.24567344415746,-1724.3674116559382 234.4793919726482,-1727.1081882434482 280.9851796862974,-1728.6045249912193 327.7294217651282,-1728.8440697931749 374.6780435734612,-1727.8153814570626 421.7965354146291,-1725.507945300174 469.04997778671617,-1721.9121880706632 516.403067120883,-1717.0194921789366 563.820141983426,-1710.8222092240767 611.2652097222209,-1703.3136728007996 658.701973537755,-1694.4882105729594 706.093859958573,-1684.3411556001688 753.4040467004965,-1672.8688569046572 800.5954908886142,-1660.0686892660528 847.6309576206343,-1645.9390622323713 894.4730488498569,-1630.4794283360632 941.0842325656461,-1613.6902905046024 987.4268722489709,-1595.573208655687 1033.4632565802428,-1576.1308054677706 1079.155629376425,-1555.366771317259 1124.4662197340595,-1533.2858683743614 1169.3572723546386,-1509.8939338502266 1213.7910780284592,-1485.1978823886782 1257.7300042529314,-1459.2057075964924 1301.136525961045,-1431.9264827068744 1343.9732563355642,-1403.3703603714448 1386.2029776843012,-1373.5485715767625 1427.7886723517202,-1342.4734236820598 1468.693553641959,-1310.1582975756203 1508.8810967282616,-1276.617643947878 1548.3150695237075,-1241.8669786800733 1586.9595634880848,-1205.9228773479629 1624.779024345673,-1168.8029688408378 1661.7382826886871,-1130.525928096779 1697.8025844411113,-1091.111467955842 1732.937621157689,-1050.5803301335334 1767.1095601328288,-1008.9542753176885 1800.2850742942717,-966.2560723925726 1832.4313718564026,-922.5094867947596 1863.516225708216,-877.7392680060143 1893.508002511031,-831.9711361891809 1922.3756914811986,-785.231767973739 1950.0889328331764,-737.5487813984478 1976.618045858556,-688.9507200191531 2001.934056616784,-639.4670361905721 2026.0087252135386,-589.128073531574 2048.8145726429866,-537.9650485841211 2070.3249071703535,-486.0100316767766 2090.513850231544,-433.2959270043239 2109.356361826831,-379.85645193575994 2126.8282653859446,-325.7261155635311 2142.906272082217,-270.94019650760083 2157.5680045738018,-215.53471998854027 2170.7920201503402,-159.5464341845227 2182.557833263846,-103.01278588766867 2192.8459374229715,-45.971895475877105 2201.6378264302607,11.537468783165178 2208.916014942408,69.47591707844917 2214.66405833403,127.80346503472042 2218.866571845911,186.47956130565737 2221.509248999181,245.4631157621334 2222.5788792573962,304.71252825593933 2222.063364919013,364.1857179388783 2219.951737223293,423.8401531165523 2216.234171653219,483.63288161570637 2210.902002419587,543.5205616434486 2203.9477361110144,603.459493116259 2195.3650644952118,663.4056494361668 2185.148876457466,723.3147096910872 2173.29526906292,783.1420912558206 2159.8015577298756,842.842982769886 2144.6662855019804,902.3723774678838 2127.889231407839,961.685106837771 2109.471417897257,1020.7358745820151 2089.4151173440164,1079.4792908563225 2067.723857605755,1137.8699067602588 2044.4024266322754,1195.862249053785 2019.456876114264,1253.4108550734934 1992.8945241651695,1310.4703078220082 1964.7239570297015,1366.9952712038178 1934.955029813166,1422.9405253805392 1903.598866226568,1478.2610022184685 1870.6678573432084,1532.9118208010366 1836.175659363224,1586.848322978667 1800.1371903833171,1640.0261089283545 1762.5686261696533,1692.4010726952188 1723.4873949327211,1743.929437688136 1682.912171103684,1794.5677921015122 1640.8628681125808,1844.2731242351788 1597.3606301694638,1893.0028576844009 1552.4278230503949,1940.7148863719299 1506.0880238909638,1987.3676093940853 1458.3660099908343,2032.9199656528438 1409.2877466335406,2077.3314682460145 1358.8803739266089,2120.562238587622 1307.1721926678129,2162.5730402307377 1254.1926492442105,2203.325312365098 1199.972319571317,2242.781202962031 1144.5428920806241,2280.9036015393467 1087.9371497643822,2317.6561715190405 1030.1889512874038,2353.0033821508737 971.333211176326,2386.910539975131 911.4058790976118,2419.3438197980936 850.4439182362569,2450.270295154059 788.4852827879868,2479.6579682280117 725.568894578378,2507.475799213384 661.7346188231461,2533.6937350796934 597.0232390445514,2558.282737725154 531.476431159537,2581.2148114898114 465.1367367559893,2602.4630300050735 398.047535574145,2622.001562356006 330.25301721091364,2639.8056985331154 261.7981520654784,2655.8518741508906 192.72866154527614,2670.1176944107883 123.09098755204182,2682.5819572868686 52.932261268304444,2693.224675912801 -17.69972873474493,2702.027100149508 -88.75656904639911,2708.971737313228 -160.189254600455,2714.0423720444064 -231.94822247132473,2717.2240852983505 -303.9833862589785,2718.503272439233 -376.244171038829,2717.8676604196294 -448.6795488522064,2715.3063240284077 -521.2380747124733,2710.8097011904533 -593.867923101506,2704.3696073023657 -666.5169249305176,2695.9792485889548 -739.1326049390522,2685.6332344660545 -811.6622195052942,2673.3275888958815 -884.0527948405434,2659.059760721886 -956.2511655402662,2642.8286329707826 -1028.20401346376,2624.6345311101923 -1099.857906914096,2604.47923025108 -1171.1593400897077,2582.3659612849438 -1242.0547727785652,2558.2994159465115 -1312.4906702657465,2532.2857507934395 -1382.4135434247762,2504.332590095366 -1451.7699889629432,2474.4490276254382 -1520.5067297905441,2442.645627348262 -1588.570655483788,2408.9344229990465 -1655.9088628109469,2373.328916549529 -1722.468696291067,2335.8440755571564 -1788.1977887545793,2296.496329394738 -1853.044101874864,2255.3035643587423 -1916.955966639835,2212.285117655192 -1979.8821237324814,2167.461770262986 -2041.7717637892931,2120.8557386753323 -2102.5745675054322,2072.4906655208474 -2162.24074555557,2022.391609066704 -2220.721078299218,1970.5850316071464 -2277.9669552395994,1917.0987867414437 -2333.9304142050046,1861.9621055463226 -2388.564180221777,1805.2055816487227 -2441.8217040481572,1746.8611552055945 -2493.6572003383517,1686.9620957983166 -2544.025685406366,1625.5429842501708 -2592.8830145593506,1562.6396933761364 -2640.1859189703523,1498.2893676751976 -2685.8920420607087,1432.5304019760567 -2729.959975362485,1365.402419048133 -2772.349293831686,1296.9462461904614 -2813.0205905832822,1227.2038908119746 -2851.935511019395,1156.2185150174432 -2889.0567863223678,1084.0344092141866 -2924.348266284813,1010.6969647554151 -2957.774951449104,936.2526456369676 -2989.303024529251,860.74895926481 -3018.899881088495,784.2344263116148 -3046.534159446437,706.758549681381 -3072.1757697900125,628.3717826018508 -3095.7959224631168,549.1254958652034 -3117.367155410234,469.07194423819755 -3136.8633607499264,388.2642320637496 -3154.259810454678,306.75627807644383 -3169.5331811141205,224.60277945533593 -3182.6615777592883,141.8591751379622 -3193.624556726201,58.58160842015178 -3202.4031475376883,-25.173111133134903 -3208.9798737830506,-109.34754644009857 -3213.338772975835,-193.8836722911254 -3215.4654153706874,-278.7229153474452 -3215.3469217209768,-363.80619472196616 -3212.9719799596082,-449.07396311408667 -3208.330860786188,-534.4662484698856 -3201.4154321444807,-619.9226961385488 -3192.219172574853,-705.3826114954132 -3180.7371834272158,-790.7850030015495 -3166.9661999207583,-876.068625669396 -3150.904601037616,-961.1720249034289 -3132.5524182384006,-1046.03358068465 -3111.9113429884155,-1130.5915520671047 -3088.9847330841944,-1214.7841219544118 -3063.7776177708784,-1298.5494421239193 -3036.2967016418343,-1381.8256784657972 -3006.55036731278,-1464.551056404102 -2974.5486768635815,-1546.663906466622 -2940.303372041815,-1628.102709969964 -2903.8278732230406,-1708.806144786335 -2865.1372771237056,-1788.713131158086 -2824.248353263479,-1867.7628775260519 -2781.179539174772,-1945.894926337541 -2735.950934358107,-2023.0491997997308 -2688.5842929829423,-2099.1660455441684 -2639.1030153345337,-2174.186282167916 -2587.5321380082746,-2248.051244617032 -2533.898322853987,-2320.70282937789 -2478.2298446735294,-2392.08353944196 -2420.5565776760545,-2462.136529009707 -2360.909980696174,-2530.805647899308 -2299.3230811812714,-2598.0354856260165 -2235.83045795508,-2663.7714151181353 -2170.468222765699,-2727.959636035621 -2103.2740006269973,-2790.5472176576823 -2034.286908963444,-2851.4821413057753 -1963.5475355692379,-2910.7133422687143 -1891.0979153935757,-2968.19075119686 -1816.981506164792,-3023.865334932601 -1741.2431628670445,-3077.6891367446697 -1663.9291110840727,-3129.6153159341884 -1585.0869192255652,-3179.5981867805936 -1504.7654696523834,-3227.593256796132 -1423.0149287179447,-3273.5572642578773 -1339.8867157438292,-3317.448214986716 -1255.4334709485709,-3359.2254183432046 -1169.7090223494315,-3398.849522410658 -1082.7683516578036,-3436.2825483363376 -994.6675591896567,-3471.4879238021526 -905.4638278133903,-3504.4305155967795 -815.2153859580288,-3535.076661261766 -723.981469705692,-3563.3941997846805 -631.8222839929081,-3589.3525013130616 -538.7989629461308,-3612.9224958635077 -444.97352937754516,-3634.076701000935 -350.40885346796904,-3652.789248463696 -255.16861066431153,-3669.035909710963 -159.31723881986062,-3682.7941203694754 -62.91989460610817,-3694.0430035575137 33.95759077431108,-3702.7633920647163 131.248756543508,-3708.9378493671156 228.88655794234836,-3712.550689457575 326.8034124312977,-3713.5879954726183 424.9312464663052,-3712.0376370974727 523.201542817253,-3707.8892867319814 621.5453883962192,-3701.1344344009112 719.8935225620756,-3691.7664013930485 818.1763858676179,-3679.780352614366 916.3241692149296,-3665.1733076414553 1014.2668633842765,-3647.9441504623173 1111.9343089014153,-3628.093637892546 1209.2562462078897,-3605.6244066558725 1306.1623660983887,-3580.5409791190045 1402.5823603891677,-3552.8497676716265 1498.4459727809942,-3522.5590777434236 1593.683049879965,-3489.6791094509704 1688.2235923392411,-3454.2219578682984 1781.997806084548,-3416.201611915975 1874.936153586093,-3375.63395186451 1966.9694051394301,-3332.53674544892 2058.028690117543,-3286.9296425923344 2148.0455481565355,-3238.8341687374646 2236.951980236999,-3188.2737167858627 2324.680499623243,-3135.273537645893 2411.16418262248,-3079.860729391359 2496.3367191260722,-3022.064225033772 2580.132462894996,-2961.9147789122867 2662.486481551755,-2899.4449517063345 2743.3346062409573,-2834.6890940770886 2822.613480921095,-2767.683328944801 2900.2606112499966,-2698.465532410221 2976.2144130267316,-2627.0753133292314 3050.4142601528956,-2553.553991550909 3122.8005320764605,-2477.9445748302223 3193.314660681619,-2400.291734427562 3261.8991765883106,-2320.6417794084173 3328.497754825524,-2239.042629657323 3393.055259842696,-2155.5437876213887 3455.5177898239745,-2070.196308799588 3515.8327202704854,-1983.0527709950002 3573.9487468161624,-1894.1672423481618 3629.815927243159,-1803.5952481706456 3683.385722663346,-1711.393736598887 3734.6110378328467,-1617.621043089335 3783.4462605671933,-1522.336853776718 3829.8473002251435,-1425.6021677183376 3873.7716252298173,-1327.4792580480485 3915.178299596433,-1228.0316320645377 3954.028018436525,-1127.3239902793396 3990.2831424091833,-1025.4221844508954 4023.907731090552,-922.3931746317439 4054.8675752334875,-818.304985256885 4083.130227890047,-713.2266603019124 4108.665034370181,-607.2282175405276 4131.443161010791,-500.3806019316589 4151.437622730109,-392.7556381671942 4168.6233093431365,-284.42598241204473 4182.97701061476,-175.46507326895775 4194.477440027941,-65.94708200111648 4203.105257245319,44.0531379536244 4208.843089243397,154.46010214265777 4211.675550099429,265.19774689761937 4211.589259411998,376.1894817369582 4208.57285933728,487.35824233597464 4202.617030223887,598.6265440276846 4193.714504830177,709.9165357974199 4181.860081108908,821.1500547334306 4167.050633545111,932.248680895574 4149.285123034059,1043.1337925634762 4128.564605287243,1153.7266218253126 4104.892237755308,1263.9483104679325 4078.27328505795,1373.7199661287125 4048.7151229118176,1482.962718669195 4016.2272405485496,1591.597776730342 3980.8212416161714,1699.5464844288067 3942.510843558104,1806.7303781536662 3901.311875465203,1913.0712434225857 3857.2422743972916,2018.491171756379 3810.3220801717944,2122.912617530723 3760.5734286181514,2226.2584547636966 3708.02054329786,2328.4520337977024 3652.689725691044,2429.417237834344 3594.6093438516527,2529.0785392806515 3533.8098195344255,2627.3610558653104 3470.3236137979575,2724.190606483324 3404.1852110892837,2819.4937667277845 3335.431101816543,2913.1979240674464 3264.0997634173877,3005.2313326289495 3190.231639931946,3095.5231675427003 3113.8691200902263,3184.0035788116347 3035.0565139250425,3270.603744662183 2953.8400279225248,3355.2559243372452 2870.2677387234935,3437.893510291015 2784.3895653900304,3518.4510797459657 2696.2572402526416,3596.864445572584 2605.9242783545437,3673.0707064528287 2513.4459455105975,3747.008296288718 2418.8792249996172,3818.617032817779 2322.282782909615,3887.838165397717 2223.7169321568113,3954.6144219229955 2123.2435952001097,4018.8900548366278 2020.926265473825,4080.6108862009733 1916.8299675624278,4139.724351791961 1811.021216142074,4196.179544181702 1703.5679737145992,4249.927254775142 1594.5396071607756,4300.920014766981 1484.006843140304,4349.112134985881 1372.0417223671998,4394.459744593577 1258.717552789975,4436.920828607308 1144.1088617069508,4476.455264214729 1028.2913468479094,4513.024855851237 911.3418264541183,4546.593369010462 793.3381883895623,4577.126562759514 674.3593383171541,4604.5922209313785 554.4851469742212,4628.9601819678355 433.7963965825895,4650.202367387052 312.3747264291514,4668.2928088510025 190.30257765357607,4683.207673808797 67.66313728049018,4694.92528969292 -55.45971846586877,4703.426166646405 -178.9814815259546,4708.693018759967 -302.8170700088118,4710.710783799094 -426.8808867959271,4709.466641402175 -551.0868787045429,4704.950029731777 -675.3485961695908,4697.152660562245 -799.5792534028507,4686.068532787889 -923.6917889874684,4671.693944337125 -1047.5989268655892,4654.027502479017 -1171.2132376762731,4633.070132509855 -1294.4472004007762,4608.825084808458 -1417.2132642716363,4581.297940250092 -1539.423910901862,4550.496613970061 -1660.9917165901675,4516.431357469127 -1781.8294147579631,4479.114759054194 -1901.849958473561,4438.561742608771 -2020.9665830189326,4394.7895646889865 -2139.092868454008,4347.817809942133 -2256.1428021336783,4297.66838484586 -2372.030841132265,4244.365509767396 -2486.6719745303335,4187.935709343401 -2599.981785518643,4128.407801182198 -2711.87651327402,4065.8128828914505 -2822.273114561985,4000.1843174354576 -2931.089325021061,3931.557716827549 -3038.2437200836607,3859.970924164274 -3143.6557754888113,3785.4639940091897 -3247.2459273419067,3708.079171135426 -3348.9356316770104,3627.860867637284 -3448.6474234774296,3544.855638422422 -3546.3049751105314,3459.1121550973153 -3641.8331541330786,3370.681178259939 -3735.1580804237274,3279.6155282147133 -3826.2071825995545,3185.9700541261195 -3914.909253674105,3089.801601628298 -4001.1945059146387,2991.1689789093525 -4084.9946248568644,2890.132921290099 -4166.242822435877,2786.7560543181944 -4244.87388919254,2681.102855399671 -4320.8242455151385,2573.2396139910397 -4394.031991876607,2463.234390376301 -4464.4369580284265,2351.1569730541028 -4531.98075111273,2237.078834761577 -4596.606802654958,2121.073087162299 -4658.260414400055,2003.2144342269098 -4716.888802955931,1883.579124335949 -4772.441143208672,1762.2449011354727 -4824.8686104747785,1639.2909531769337 -4874.124421356473,1514.7978623739643 -4920.163873267042,1388.8475513093413 -4962.94438259396,1261.5232294266268 -5002.425521468473,1132.909338141707 -5038.569053111228,1003.0914949103826 -5071.338965724469,872.1564362890139 -5100.701504902288,740.191960026051 -5126.625204531411,607.2868662230339 -5149.080916155971,473.5308976045975 -5168.0418367808215,339.0146789374685 -5183.483535088931,203.82965563946823 -5195.383976049484,68.06803162004883 -5203.723543894438,-68.17729360538037 -5208.485063442361,-204.81278848444748 -5209.653819749523,-341.74435363662684 -5207.217576069342,-478.87738665783826 -5201.166590102485,-616.1168474760686 -5191.493628521056,-753.3673242130518 -5178.193979751532,-890.5330995062313 -5161.265465002309,-1027.5182172449674 -5140.708447522919,-1164.2265496744571 -5116.525840083269,-1300.561864820454 -5088.723110662403,-1436.427894187563 -5057.308286337682,-1571.728400683382 -5022.291955366378,-1706.3672467207896 -4983.6872674531305,-1840.2484624500305 -4941.509932197816,-1973.2763140724571 -4895.778215719836,-2105.3553721870985 -4846.512935456064,-2236.390580121461 -4793.737453130858,-2366.2873221978894 -4737.477665898197,-2494.9514918861273 -4677.761995656843,-2622.2895597936285 -4614.621376541247,-2748.2086414440723 -4548.08924059173,-2872.6165647956277 -4478.20150160925,-2995.4219374496133 -4404.9965372010665,-3116.5342135008914 -4328.515169024953,-3235.8637599814415 -4248.800641241217,-3353.321922848139 -4165.8985971825805,-3468.8210924669115 -4079.857054253902,-3582.2747685446 -3990.7263770743275,-3693.597624461185 -3898.559248876517,-3802.705570954319 -3803.4106411780704,-3909.5158191094015 -3705.3377817423006,-4013.946942607976 -3604.400120846301,-4115.918939188153 -3500.6592958755177,-4215.353291271161 -3394.179094265765,-4312.1730257081845 -3285.0254148140716,-4406.302772602843 -3173.266227381891,-4497.66882316442 -3058.9715310144807,-4586.199186548326 -2942.2133105022904,-4671.823645640181 -2823.0654914108763,-4754.473811740959 -2701.603893606984,-4834.083178111353 -2577.9061833101773,-4910.587172333754 -2452.051823699609,-4983.923207451656 -2324.1220241076785,-5054.030731846371 -2194.199687832357,-5120.851277812365 -2062.369358601994,-5184.3285087928225 -1928.7171657268607,-5244.408265238247 -1793.3307679727247,-5301.038609051759 -1656.2992961933596,-5354.16986658537 -1517.7132947588989,-5403.754670152963 -1377.6646618190134,-5449.747998026095 -1236.2465884396897,-5492.1072128803235 -1093.553496654441,-5530.792098660214 -949.6809764705174,-5565.764895832738 -804.7257218725744,-5596.9903349994565 -658.785465866429,-5624.435668839186 -511.9589146063226,-5648.070702353965 -364.3456806505611,-5667.86782139211 -216.04621539004702,-5683.802019423561 -67.16174069616471,-5695.850922543639 82.20582016609067,-5703.9948126828 231.95391231208993,-5708.216649000943 381.9794196510844,-5708.502087446273 532.1787358911193,-5704.839498459866 682.4478360859435,-5697.219982808386 832.6823486751399,-5685.637385528695 982.7776279669403,-5670.088307969424 1132.6288270140446,-5650.572117915841 1282.1309708310532,-5627.090957785755 1431.1790299030272,-5599.649750885454 1579.6679939332134,-5568.2562057161185 1727.4929457783849,-5532.920818322486 1874.549135519965,-5493.656872676818 2020.732054618193,-5450.480439092861 2165.9375100974858,-5403.410370665512 2310.0616987097765,-5352.468297733727 2453.0012810237017,-5297.678620365166 2594.6534553863576,-5239.068498862884 2734.916031704961,-5176.667842295529 2873.6875049957657,-5110.509295053912 3010.867128646925,-5040.628221438518 3146.3549873431334,-4967.062688283473 3280.0520695988184,-4889.853445624444 3411.860339847934,-4809.043905418767 3541.682810037603,-4724.680118328097 3669.4236106736703,-4636.810748574849 3794.988061266542,-4545.487046885199 3918.2827401252907,-4450.762821533074 4039.2155534493877,-4352.694407500429 4157.6958036666665,-4251.340633771157 4273.63425696764,-4146.76278877657 4386.943209985648,-4039.0245840126418 4497.536555573855,-3928.1921158495857 4605.329847629714,-3814.3338255565986 4710.240364918626,-3697.5204575653142 4812.187173849129,-3577.825015996894 4911.0911901520185,-3455.3227194794617 5006.875239417337,-3330.0909542830614 5099.464116442888,-3202.2092258014945 5188.784643349648,-3071.759108410742 5274.76572641932,-2938.8241937356897 5357.338411610686,-2803.4900373576434 5436.435938712098,-2665.844103996175 5511.993794087982,-2525.97571120073 5583.949761978769,-2383.975971587501 5652.243974313836,-2239.9377336593852 5716.818958998733,-2093.9555212467562 5777.619686638359,-1946.1254716089084 5834.593615659111,-1796.545272236438 5887.6907357940845,-1645.314096395805 5936.8636098961715,-1492.5325374590511 5982.067414045444,-1338.302542061462 6023.259975917908,-1182.7273421322045 6060.4018113842585,-1025.9113858425444 6093.456159308074,-867.9602675184773 6122.389014514473,-708.9806565641213 6147.16915890112,-549.0802254442239 6167.768190664996,-388.3675767741844 6184.160551619502,-226.95216956673036 6196.323552577735,-64.94424468587579 6204.237396779172,97.54525044175189 6207.885201338269,260.40473780609653 6207.2530166948645,423.52208543201994 6202.329844047635,586.7846845836481 6193.10765075324,750.0795275017803 6179.581383675202,913.2932856209205 6161.748980467983,1076.3123882112448 6139.611378783104,1239.023101391623 6113.1725233857405,1401.311607458029 6082.4393711714365,1563.0640844727259 6047.421894074347,1724.166786057889 6008.133079859579,1884.50612133843 5964.588930793997,2043.9687349773212 5916.8084601910905,2202.4415872472828 5864.813686827112,2359.8120340825367 5808.629627227295,2515.9679070534444 5748.2842858221875,2670.7975932079835 5683.80864297605,2824.1901147226113 5615.236640890306,2976.035208306422 5542.605167387029,3126.223404301349 5465.954037578619,3274.646105421976 5385.325973431398,3421.195665078658 5300.766581232602,3565.7654652270635 5212.324326971337,3708.249993688632 5120.050509646065,3848.5449208853743 5023.99923251216,3986.5471759340085 4924.227372285055,4122.155022043629 4820.794546315709,4255.268131162166 4713.763077756476,4385.787657817263 4603.197958737479,4513.616312097028 4489.16681157422,4638.658431717591 4371.739848029539,4760.8200531238035 4250.989826653485,4880.008981571102 4126.992008227103,4996.13486013605 3999.824109336517,5109.1092376047745 3869.5662541059714,5218.845635188253 3736.3009241193577,5325.259612014722 3600.11290656099,5428.268829350157 3461.0892406084563,5527.793113498113 3319.3191621105852,5623.754517331774 3174.894046586091,5716.077380411111 3027.907350578492,5804.688387639724 2878.4545514052566,5889.51662641617 2726.633085339663,5970.493642236017 2572.5422842650364,6047.553492701782 2416.283310842938,6120.632799898594 2257.9590922368675,6189.670801095085 2097.6742524354577,6254.60939772942 1935.5350432189362,6315.3932026421735 1771.6492738148422,6371.9695855183245 1606.126239289314,6424.288716502189 1439.0766477212205,6472.303607950284 1270.6125462081789,6515.970154288078 1100.8472457531825,6555.247169938305 929.8952450828883,6590.096425289293 757.8721534480266,6620.4826806735555 584.8946124587079,6646.373718327857 411.0802170067397,6667.740372307564 236.54743532914037,6684.556556329362 61.41552826694885,6696.799289517829 -114.19553222588038,6704.448720032891 -290.16514526722426,6707.488146556452 -466.37216386961654,6705.904037618129 -642.6949783435111,6699.686048741382 -819.0116002243047,6688.827037392901 -995.1997466646025,6673.323075719577 -1171.136925233585,6653.173461058981 -1346.7005190649197,6628.380724210699 -1521.767872293431,6598.950635457559 -1696.2163757217654,6564.892208327273 -1869.9235526564582,6526.217701086602 -2042.7671448541098,6482.942615961731 -2214.6251985166145,6435.085696080208 -2385.376150275734,6382.668920131246 -2554.89891310583,6325.717494742957 -2723.072962104349,6264.259844576657 -2889.778420079542,6198.327600139801 -3054.896142884176,6127.955583321125 -3218.3078044352387,6053.1817906526985 -3379.8959813583588,5974.047374305698 -3539.5442371971776,5890.596620827853 -3697.137206126815,5802.876927632553 -3852.5606761116346,5710.9387772509735 -4005.7016714476645,5614.835709360086 -4156.448534629669,5514.624290601485 -4304.6910074843545,5410.364082206824 -4450.320311510276,5302.117605448108 -4593.229227366715,5189.950304931758 -4733.312173453188,5073.930509757735 -4870.465283522385,4954.129392566086 -5004.586483269968,4830.620926494757 -5135.575565844505,4703.481840074646 -5263.334266222586,4572.791570088435 -5387.766334393619,4438.632212422325 -5508.777607300717,4301.088470940147 -5626.276079483708,4160.247604411935 -5740.171972372163,4016.199371529339 -5850.377802176269,3869.035974042706 -5956.808446324795,3718.851998055431 -6059.381208400317,3565.7443535125094 -6158.015881522282,3409.812211922312 -6252.634810130329,3251.156942350776 -6343.162950120366,3089.882045729825 -6429.5279272878615,2926.093087521785 -6511.660094033159,2759.8976287839982 -6589.492584285184,2591.4051556783243 -6662.961366601074,2420.7270074713992 -6732.005295400052,2247.9763030734553 -6796.5661602917335,2073.267866163406 -6856.588733459586,1896.7181489504158 -6912.02081506228,1718.4451546217667 -6962.813276616277,1538.5683585293814 -7008.920102325009,1357.2086281668585 -7050.298428320806,1174.488141991182 -7086.908579787504,990.5303071433681 -7118.714105933,805.4596761231841 -7145.681812782271,619.4018624748031 -7167.781793763238,432.4834555396954 -7184.987458058896,244.83193433539293 -7197.275556701063,56.575580617938805 -7204.626206382326,-132.15660881206398 -7207.022910964526,-321.2350105001078 -7204.4525806635675,-510.52946336483114 -7196.90554889204,-699.9093582996787 -7184.375586742627,-889.2437282882868 -7166.859915097057,-1078.4013389705951 -7144.3592143468195,-1267.2507795978606 -7116.877631713665,-1455.6605543128926 -7084.422786159541,-1643.4991736923764 -7047.005770877143,-1830.63524648782 -7004.6411533542705,-2016.9375715004974 -6957.346973006443,-2202.275229526951 -6905.144736374393,-2386.517675309843 -6848.059409884291,-2569.5348294303985 -6786.119410170764,-2751.1971700770127 -6719.35659196395,-2931.375824626084 -6647.80623354408,-3109.942660969763 -6571.507019768411,-3286.770378526206 -6490.501022677141,-3461.7325988680027 -6404.833679686914,-3634.7039559037394 -6314.553769381712,-3805.5601855491723 -6219.713384913331,-3974.178214823232 -6120.367905024584,-4140.4362503058055 -6016.5759627108,-4304.213865893271 -5908.399411536396,-4465.39208978893 -5795.903289625018,-4623.853490665879 -5679.155781343887,-4779.482262939514 -5558.228176703851,-4932.164311088648 -5433.194828499239,-5081.787332963311 -5304.13310721229,-5228.240902019324 -5171.1233537094195,-5371.416548419101 -5034.248829757651,-5511.207838939612 -4893.595666391128,-5647.510455629095 -4749.252810159775,-5780.222273154187 -4601.311967292785,-5909.243434781041 -4449.867545812249,-6034.476426933648 -4295.016595632587,-6155.826152274617 -4136.858746684161,-6273.20000125348 -3975.496145099651,-6386.507922069638 -3811.0333875043825,-6495.662488997091 -3643.5774534524808,-6600.57896901979 -3473.2376360520902,-6701.175386727433 -3300.1254708250544,-6797.372587422191 -3124.354662846526,-6889.094298388784 -2946.041012212708,-6976.267188280649 -2765.3023378847606,-7058.82092457702 -2582.258399959434,-7136.688229066274 -2397.030820417409,-7209.804931312645 -2209.743002401447,-7278.11002006468 -2020.5200480785043,-7341.545692564877 -1829.4886751396273,-7400.057401721824 -1636.7771319941533,-7453.5939011070495 -1442.5151117140915,-7502.107287740747 -1246.8336647872438,-7545.553042631581 -1049.8651107369124,-7583.890069037663 -851.7429486684391,-7617.080728416995 -652.6017668027781,-7645.0908740374825 -452.5771510581191,-7667.889882218105 -251.8055927423291,-7685.45068117438 -50.424395418208796,-7697.74977744303 151.42841899401543,-7704.7672798622525 353.6142048135983,-7706.486921085805 555.9937878300641,-7702.896076610699 758.4275611027382,-7693.985781300059 960.7755812633551,-7679.750743384415 1162.8976652546269,-7660.18935592642 1364.6534874387542,-7635.303705735751 1565.9026770077373,-7605.099579722717 1766.504915628725,-7569.586468680836 1966.3200352558065,-7528.777568490517 2165.208116040349,-7482.6897787376765 2363.0295842717906,-7431.343698742951 2559.645310279661,-7374.7636209990915 2754.9167062290517,-7312.97752201567 2948.705823739949,-7246.017050572444 3140.8754512625815,-7173.917513384072 3331.2892111392384,-7096.717858181211 3519.811656284793,-7014.460654214315 3706.308366416783,-6927.1920701887775 3890.646043767034,-6834.961849641559 4072.6926082070217,-6737.823283771244 4252.317291718539,-6635.833181735654 4429.390732142999,-6529.05183843233 4603.785066141474,-6417.542999779754 4775.374021299591,-6301.373825518123 4944.033007310434,-6180.614849551092 5109.639206170063,-6055.339937851131 5272.071661320707,-5925.626243952866 5431.2113656766,-5791.554162061155 5586.941348469236,-5653.207277801345 5739.146760848266,-5510.6723166420425 5887.714960176233,-5364.039090021246 6032.535592955029,-5213.400439209384 6173.5006763235415,-5058.852176943858 6310.504678066745,-4900.493026871228 6443.4445950768395,-4738.424560835585 6572.220030208983,-4572.7511340519895 6696.7332674741,-4403.579818206853 6816.889345513376,-4231.020332527182 6932.596129299065,-4055.184972863634 7043.764380008456,-3876.1885388322794 7150.307823018045,-3694.1482590628225 7252.1432139667995,-3509.183714601528 7349.190402838604,-3321.4167605185603 7441.37239601479,-3130.971445771613 7528.615416249716,-2937.973931377657 7610.848960522964,-2742.5524069475114 7688.005855723853,-2544.837005637569 7760.022312124723,-2344.959717575701 7826.837974601408,-2143.054301818601 7888.3959715606625,-1939.2561968989846 7944.642961535609,-1733.7024300231046 7995.52917741232,-1526.5315249785654 8041.008468251638,-1317.883408815194 8081.038338672573,-1107.8993173609206 8115.579985764678,-896.721699637339 8144.598333498971,-684.4941212387546 8168.062064608303,-471.3611667409535 8185.943649909976,-257.4683412057444 8198.219375045148,-42.96197084807377 8204.86936461121,172.0108970657499 8205.877603665254,387.3025950211428 8201.231956578407,602.7649366896119 8190.924183222751,818.2493189256285 8174.94995247428,1033.6068242550728 8153.308853017256,1248.6883237848608 8126.004401437179,1463.3445804629343 8093.044047591435,1677.4263526163852 8054.439177248595,1890.7844976967995 8010.205111989263,2103.2700761597753 7960.361106363169,2314.734455407185 7904.9303422992625,2525.0294137189258 7843.939920767418,2734.007244101809 7777.420850692135,2941.5208579831406 7705.408035120923,3147.4238886755147 7627.940254651462,3351.5707945409677 7545.0601481241465,3553.816961780927 7456.814190587937,3754.0188067803124 7363.252668549982,3952.0338779325225 7264.4296525208065,4147.720956874053 7160.402966869272,4340.94015905616 7051.2341570031795,4531.553033582363 6936.988453893123,4719.422662240843 6817.734735959695,4904.41375766041 6693.545488345126,5086.392760520555 6564.496759593372,5265.227935745103 6430.6681157634075,5440.789467611084 6292.142592003341,5612.9495537037055 6149.00664161416,5781.582497649881 6001.35008263374,5946.564800563421 5849.266041974149,6107.775251135016 5692.85089714605,6265.095014302198 5532.204215606952,6418.407718433993 5367.428691770526,6567.599540967193 5198.630081717073,6712.559292431013 5025.917135646176,6853.1784987985975 4849.401528114218,6989.3514821049375 4669.19778610186,7120.975439271099 4485.423214956896,7247.950519076984 4298.197822260945,7370.179897224739 4107.644239668464,7487.569849437454 3913.887642769611,7600.0298225377755 3717.0556690284366,7707.4725034536295 3517.278333850697,7809.8138860984845 3314.6879448361306,7906.973336075715 3109.419014271392,7998.8736531579225 2901.60816992209,8085.441131493071 2691.3940641822,8166.605617491617 2478.9172816420564,8242.300565349422 2264.3202451356474,8312.46309016372 2047.7471203306359,8377.034018600214 1829.3437189247238,8435.957937071564 1609.257400513018,8489.18323738901 1387.636973193156,8536.662159850433 1164.6325929742961,8578.350833730188 940.395662058906,8614.209315137447 715.0787260652817,8644.201622211936 488.8353702615226,8668.295767627365 261.82011488060635,8686.463788375097 34.18830958866608,8698.681772802021 -193.90397282175374,8704.929884878877 -422.3000434410304,8705.192385676835 -650.842704880244,8699.457652032297 -879.3743594644195,8687.71819238162 -1107.7371179057795,8669.970659749592 -1335.7729083830275,8646.21586187726 -1563.3235859505337,8616.45876847686 -1790.2310422020141,8580.708515603497 -2016.3373151129663,8538.978407135144 -2241.484698984801,8491.285913354784 -2465.5158544151054,8437.652666630178 -2688.273918216399,8378.104454189164 -2909.6026132075554,8312.67120799 -3129.346357800316,8241.386991688682 -3347.3503753043956,8164.289984706965 -3563.4608028747007,8081.422463406795 -3777.524800023312,7992.830779379273 -3989.390656620636,7898.565334857675 -4198.907900308564,7798.68055526685 -4405.927403250561,7693.2348589225 -4610.301488142144,7582.290623896746 -4811.884033407319,7465.914152067488 -5010.530577505471,7344.1756303718885 -5206.098422274635,7217.149089285809 -5398.446735237574,7084.9123585529305 -5587.436650796837,6947.547020189887 -5772.931370246989,6805.13835879472 -5954.796260531356,6657.77530918901 -6132.898951672916,6505.5504014247945 -6307.109432808423,6348.559703190333 -6477.300146756508,6186.902759650041 -6643.346083051454,6020.682530755649 -6805.124869374401,5850.005326068306 -6962.516861316128,5674.980737131921 -7115.405230405058,5495.721567441198 -7263.676050336768,5312.3437600481375 -7407.218381340939,5124.966322853996 -7545.9243526242935,4933.711251633878 -7679.689242828051,4738.703450844194 -7808.411558440526,4540.070652263955 -7931.993110106698,4337.943331522494 -8050.339086777395,4132.454622568683 -8163.358127643078,3923.74023013674 -8270.962391797613,3711.9383402669773 -8373.067625579957,3497.1895289394865 -8469.593227542262,3279.6366688818107 -8560.462310995119,3059.424834612031 -8645.601764082125,2836.701205779988 -8724.942307337255,2611.614968871741 -8798.418548680795,2384.317217341928 -8865.969035810667,2154.9608502417996 -8927.536305948313,1923.700469409963 -8983.066932899585,1690.6922752957005 -9032.51157139316,1456.0939614847225 -9075.824998660937,1220.0646079982557 -9112.96615322631,982.7645734384228 -9143.89817086862,744.3553860520472 -9168.58841773359,504.99963378790744 -9187.008520561782,264.8608534212275 -9199.134394008834,24.103418822052383 -9204.94626503344,-217.10757155716476 -9204.428694330894,-458.60640789693724 -9197.570594792041,-700.2268828517684 -9184.365246969697,-941.8024059389469 -9164.810311536376,-1183.1661183955655 -9138.9078387195,-1424.1510084255976 -9106.664274702192,-1664.5900267563793 -9068.090464979889,-1904.3162024255698 -9023.201654665147,-2143.1627587175185 -8972.017485735136,-2380.9632291688763 -8914.56199121833,-2617.551573563106 -8850.863586319245,-2852.7622938322634 -8780.955056481936,-3086.430549786176 -8704.873542395419,-3318.3922745870864 -8622.660521945974,-3548.4842898898996 -8534.361789123748,-3776.544420566456 -8440.027429893054,-4002.4116089335594 -8339.711795037743,-4225.926028404639 -8233.473469995664,-4446.929196484152 -8121.375241697599,-4665.264087025856 -8003.484062429016,-4880.775241674514 -7879.871010734258,-5093.30888041305 -7750.611249385704,-5302.713011135595 -7615.7839804417,-5508.837538169459 -7475.472397419876,-5711.534369667871 -7329.7636346141,-5910.657523797084 -7178.7487135851825,-6106.063233642118 -7022.522486858289,-6297.610050755224 -6861.183578860786,-6485.158947273482 -6694.834324137616,-6668.573416531134 -6523.580702881873,-6847.719572094848 -6347.532273821404,-7022.46624514964 -6166.802104503441,-7192.685080165067 -5981.506699021096,-7358.25062877243 -5791.765923228255,-7519.040441783977 -5597.702927489903,-7674.935159287598 -5399.444067018259,-7825.818598750313 -5197.118819845201,-7971.577841066527 -4990.859702484954,-8112.103314486999 -4780.802183340935,-8247.288876367118 -4567.0845939139035,-8377.031892673427 -4349.8480378692,-8501.233315189398 -4129.236298022451,-8619.797756363068 -3905.3957413056596,-8732.633561739945 -3678.475221775502,-8839.65287992726 -3448.625981728973,-8940.771730036166 -3216.001550991051,-9035.910066551163 -2980.7576444421516,-9124.99184157688 -2743.0520578534106,-9207.94506441468 -2503.0445620990963,-9284.701858423146 -2260.896795817837,-9355.198515118123 -2016.7721565937425,-9419.375545470284 -1770.835690731693,-9477.17772835953 -1523.2539817001077,-9528.554156148013 -1274.1950373174034,-9573.458277335014 -1023.8281757582021,-9611.847936259192 -772.3239104562795,-9643.685409815684 -519.8538339833328,-9668.937441157384 -266.5905009815885,-9687.575270352052 -12.707310231209188,-9699.574661968687 241.62161406799885,-9704.915929568968 496.2215417181976,-9703.58395708149 750.9172565676106,-9695.56821703873 1005.5331770937636,-9680.862785658856 1259.893477443233,-9659.466354756614 1513.8222088448058,-9631.38224046972 1767.1434213113578,-9596.618388789439 2019.6812855473338,-9555.187377886103 2271.2602149762815,-9507.106417222767 2521.7049878048206,-9452.397343452145 2770.840869037345,-9391.086613094449 3018.4937323568597,-9323.205291995897 3264.4901817872924,-9248.789041569762 3508.657673051459,-9167.878101824452 3750.824634540814,-9080.51727118481 3990.8205878111535,-8986.755883115733 4228.4762675207,-8886.647779558698 4463.623740725436,-8780.251281194773 4696.096525447963,-8667.62915454939 4925.7297084366,-8548.84857595647 5152.360062030653,-8423.981092402115 5375.82616005013,-8293.102579269505 5595.968492626701,-8156.293195009858 5812.6295798953115,-8013.637332765316 6025.654084464541,-7865.223568973032 6234.888922586437,-7711.144608980637 6440.18337394567,-7551.497229706519 6641.389189989665,-7386.382219379735 6838.360700722361,-7215.904314396497 7030.954919884051,-7040.1721333329315 7219.031648442472,-6859.298108154702 7402.4535763195145,-6673.3984126674595 7581.08638228082,-6482.592888252655 7754.798831915153,-6287.004966936523 7923.462873632592,-6086.761591841149 8086.953732611832,-5881.993135068407 8245.15000262733,-5672.833313070327 8397.933735689796,-5459.419099559849 8545.19052943338,-5241.890636019359 8686.809612185914,-5020.391139864459 8822.68392565862,-4795.066810323913 8952.710205194593,-4566.066732096612 9076.789057515825,-4333.542776849644 9194.825035910942,-4097.649502622206 9306.72671280735,-3858.5440512015393 9412.406749672771,-3616.3860435397633 9511.78196419377,-3371.3374732801494 9604.773394679682,-3123.5625984648236 9691.306361643217,-2873.2278314952396 9771.310526509995,-2620.5016274198993 9844.719947411784,-2365.5543706239673 9911.473132020086,-2108.558259996603 9971.513087378324,-1849.6871926542437 10024.787366693503,-1589.116646297258 10071.248113049704,-1327.023560280655 10110.85210000829,-1063.5862154783508 10143.560769061538,-798.9841130234337 10169.340263908643,-533.3978520065439 10188.161461525295,-267.0090062153307 10200.0,-1.2491397351303002e-11" stroke="black" stroke-width="233.33333333333334" /><text fill="black" font-family="Arial" font-size="815.0077431314045" font-weight="bold" text-anchor="middle" x="497.5268674832796" y="13307.719464488286">Spiral | w=300µm | outer+0.2mm | wall_ratio=0.3 | loops=5 r0=200µm s=2000µm</text></svg>