<?xml version="1.0" encoding="utf-8" ?>
<svg baseProfile="full" height="120mm" version="1.1" viewBox="-10344.076763463356,-10843.129159757802,21678.445414193364,20688.103008443843" width="120mm" xmlns="http://www.w3.org/2000/svg" xmlns:ev="http://www.w3.org/2001/xml-events" xmlns:xlink="http://www.w3.org/1999/xlink"><defs /><polyline fill="none" points="200.0,0.0 204.97883708276035,3.2227509554800955 209.90454093233384,6.602021254567696 214.77342141209994,10.136917398977442 219.58180365157304,13.826468562313115 224.32602956546856,17.669626854024003 229.00245936816748,21.66526761200701 233.60747308305443,25.8121897237739 238.13747204620512,30.109115976093605 242.58888040390153,34.554693433010144 246.95814660345374,39.1474938421273 251.24174487681123,43.88601406904191 255.43617671644506,48.76867655979824 259.5379723429895,53.79382983122663 263.5436921641288,58.959748989020525 267.44992822422176,64.26463627339655 271.2533056441564,69.70662163217325 274.95048405093246,75.28376332109535 278.5381589964696,80.99404853122041 282.01306336514585,86.83539404317719 285.3719687695709,92.80564690809443 288.6116869341047,98.90258515499133 291.72907106563423,105.12391852441115 294.7210172111265,111.46728922807169 297.5844656014775,117.930272734296 300.31640198118384,124.51037857897998 302.9138589233659,131.2050512018439 305.37391712967695,138.0116708077064 307.6937067146369,144.92755425251144 309.8704084739338,151.94995595383045 311.9012551362423,159.07606882555316 313.78353259811155,166.30302523647322 315.51458114148164,173.62789799246588 317.0917966333931,181.04770134194757 318.51263170745756,188.55939200429933 319.77459692666565,196.1598702209275 320.8752619271134,203.84598082862956 321.812256542232,211.61451435492123 322.5832719071159,219.46220813497922 323.1860615425467,227.38574744984126 323.61844241831847,235.38176668550122 323.8782959954761,243.4468505125284 323.96356924708493,251.57753508583386 323.87227565715665,259.7703092641988 323.6024961973625,268.02161584917496 323.15238028117267,276.3278528429568 322.5201466950686,284.68537472482404 321.70408450647807,293.0904937457412 320.7025539480967,301.53948124069757 319.5139872782603,310.02856895836527 318.1368896170443,318.5539504076441 316.5698397577731,327.1117822206592 314.81149095362827,335.6981855317698 312.8605716790548,344.3092473721416 310.7158863656702,352.9410220794318 308.376316112392,361.58953272212756 305.8408193695032,370.25077253807535 303.1084325963888,378.9207063867337 300.17827089267917,387.5952722146751 297.0495286025493,396.2703825338601 293.7214798919276,404.9419259122007 290.1934792983798,413.6057684759252 286.464962253439,422.25775542325437 282.53544557716356,430.8937125488931 278.4045279447138,439.50944777883524 274.07189032474474,448.1007527149822 269.5372963894243,456.6634041890647 264.80059289589263,465.19316582535674 259.86171003898875,473.68578961167003 254.72066177508023,482.1370174781068 249.37754611683886,490.5425828830554 243.83254539881676,498.898212405899 238.0859265136856,507.19962734591553 232.1380411190095,515.442545326837 225.9893258144362,523.6226819065383 219.640302289194,531.7357521913175 213.0915774397974,539.7774724542376 206.34384345786933,547.743561756985 199.39787788800282,555.62974357471 192.25454365558608,563.4317474233044 184.91478906453546,571.1453104885736 177.37964776487982,578.7661792567604 169.6502386901579,586.2901111458734 161.72776596459462,593.7128761372724 153.61351878003381,601.0302584069668 145.30887124261676,608.2380579560769 136.81528218919988,615.3320922399082 128.13429497352226,622.3081977950939 119.26753722213739,629.1622318642522 110.21672056013531,635.890074017615 100.98364030669264,642.487627771073 91.5701751404961,648.9508222000959 81.97828673509368,655.2756135489751 72.21001936424105,661.4579868348435 62.26749947731812,667.4939574459286 52.15293524489835,673.3795727334912 41.868616074569836,679.1109135969077 31.41691209710786,684.6840960613541 20.800273623116965,690.0952728475504 10.021230570264663,695.3406349330271 -0.9176081387610378,700.4164131043786 -12.013555207423687,705.3188794999649 -23.263845625491822,710.0443491425342 -34.66563735800781,714.5891814612328 -46.21601206290199,718.9497818024767 -57.91197583707243,723.1226029291608 -69.7504599907369,727.1041465076833 -81.72832184985859,730.8909645822657 -93.84234558643787,734.4796610360586 -106.08924307644881,737.8668930385135 -118.46565478519395,741.0493724785205 -130.9681506798427,744.0238673828026 -143.59323116890295,746.7872033190692 -156.33732806837597,749.3362647834294 -169.1968055943275,751.6679965715787 -182.16796138160228,753.7794051332635 -195.2470275284043,755.6675599095504 -208.43017166644688,757.3295946524133 -221.71349805637936,758.76270872617 -235.09304870817888,759.9641683902985 -248.56480452619294,760.9313080631714 -262.12468647850994,761.6615315662474 -275.7685567903226,762.1523133482721 -289.49222016094416,762.4011996890379 -303.29142500413167,762.4058098822652 -317.1618647113539,762.163837397167 -331.09917893764384,761.6730510182705 -345.0989549096625,760.9312959630732 -359.1567287555898,759.9364949771153 -373.2679868564624,758.6866494060611 -387.4281672185536,757.1798402443846 -401.63266086640283,755.4142291602644 -415.8768132560742,753.3880594962967 -430.15592570823713,751.0996572456469 -444.46525686063916,748.5474320032608 -458.8000241395385,745.7298778917714 -473.1554052496655,742.6455744617385 -487.5265396822613,739.2931875658668 -501.90853024074937,735.6714702068617 -516.2964445835743,731.7792633585798 -530.685316783754,727.615496760149 -545.0701489046713,723.1791896827326 -559.4459125916242,718.4694516686269 -573.807550678663,713.4854832423856 -588.1499788102225,708.2265765936717 -602.468087077053,702.6921162315537 -616.7567416659596,696.8815796099602 -631.010786522841,690.7945377240237 -645.22504502852,684.4306556770526 -659.3943216868539,677.7896932178733 -673.5134038246083,670.8715052483002 -687.5770633025643,663.6760423004982 -701.580058237339,656.2033509840072 -715.5171347333873,648.4535744022118 -729.3830286246409,640.4269525380516 -743.1724672252561,632.1238226087669 -756.8801710889171,623.5446193894917 -770.5008557761533,614.6898755055155 -784.0292336291149,605.5602216930417 -797.4600155532562,596.1563870282791 -810.787912805368,586.4791991247171 -824.0076387873952,576.5295842984435 -837.1139108454794,566.3085677013693 -850.101452073662,555.8172734222393 -862.9649931216708,545.0569245553196 -875.6992740062277,534.028843236653 -888.2990459253015,522.7344506477932 -900.7590730747249,511.17526698693865 -913.0741344666075,499.35291140738536 -925.2390257489571,487.2691019232426 -937.248561025937,474.92565528235673 -949.0975746781676,462.3244868064034 -960.7809231824994,449.46761019811186 -972.2934869306692,436.3571373156031 -983.6301720462498,422.9952779138308 -994.7859121993154,409.3843393531209 -1005.7556704182368,395.5267262748196 -1016.5344408980105,381.4249402440741 -1027.1172508045486,367.08157935976834 -1037.499162074334,352.49933783165613 -1047.675273208859,337.681005524748 -1057.6407210632613,322.6294674710036 -1067.3906826285743,307.34770334840334 -1076.9203768070013,291.8387869274868 -1086.2250661796413,276.1058854854399 -1095.3000587660758,260.152259187837 -1104.1407097752399,243.98126043815486 -1112.7424233469965,227.59633319517076 -1121.1006542838415,211.00101225838634 -1129.2109097721602,194.19892252161384 -1137.0687510924602,177.19377819488415 -1144.6697953180173,159.9893819948335 -1152.009717001358,142.5896243037431 -1159.084249848017,124.99848229742257 -1165.889188377004,107.22001904211967 -1172.4203895674261,89.25838256066518 -1178.6737744906957,71.11780486807078 -1184.6453299277855,52.802600976793954 -1190.3311099709713,34.3171678719079 -1195.7272376095138,15.665983456423799 -1200.829906298747,-3.146394532991221 -1205.635381512022,-22.115329639630065 -1210.1400022749838,-41.23610782942966 -1214.340182681639,-60.50393866243282 -1218.2324133916982,-79.91395649274708 -1221.813263108665,-99.46122169669505 -1225.0793800381634,-119.14072192884191 -1228.0274933259814,-138.94737340559007 -1230.654414475335,-158.87602221600838 -1232.9570387428462,-178.9214456595531 -1234.9323465127407,-199.07835361034455 -1236.577404648778,-219.34138990763884 -1237.8893678234247,-239.7051337721251 -1238.8654798238015,-260.16410124768674 -1239.5030748339227,-280.7127466682381 -1239.7995786927695,-301.34546414924347 -1239.752510127737,-322.05658910352844 -1239.3594819629993,-342.84039978097263 -1238.6182023023512,-363.69111883166335 -1237.5264756860827,-384.6029148920978 -1236.082204221461,-405.56990419399307 -1234.283388686388,-426.5861521952733 -1232.1281296058219,-447.6456752327759 -1229.6146283005507,-468.742442196235 -1226.741187907912,-489.8703762230741 -1223.5062143740718,-511.023356413534 -1219.9082174174684,-532.1952195656689 -1215.945811463046,-553.3797619297235 -1211.6177165469064,-574.5707409813922 -1206.9227591910171,-595.7618772134767 -1201.8598732476203,-616.9468559454308 -1196.4281007129982,-638.1193291502742 -1190.6265925102566,-659.2729172983742 -1184.4546092407998,-680.4012112175575 -1177.911521904174,-701.497773969031 -1170.9968125859737,-722.5561427385674 -1163.7100751135047,-743.5698307424242 -1156.051015678913,-764.532329147443 -1148.0194534294992,-785.4371090047731 -1139.6153210249377,-806.2776231966676 -1130.8386651611422,-827.047308395788 -1121.6896470605247,-847.7395870364412 -1112.1685429283928,-868.3478692971844 -1102.2757443752598,-888.8655550942178 -1092.0117588048386,-909.2860360849741 -1081.3772097675019,-929.6026976813295 -1070.3728372790047,-949.8089210718407 -1058.9994981042755,-969.8980852524029 -1047.258166006085,-989.863569064745 -1035.1499319584225,-1009.6987532421506 -1022.6760043244138,-1029.3970224617917 -1009.8377089986246,-1048.951767403081 -996.6364895136057,-1068.3563868114131 -983.0739071105453,-1087.6042895666915 -969.1516407739106,-1106.6888967560092 -954.8714872299588,-1125.6036437498738 -940.2353609090193,-1144.3419822813453 -925.2452938714583,-1162.8973825274584 -909.9034356972408,-1181.2633351923062 -894.2120533390225,-1199.433353591152 -878.173530938716,-1217.400975734932 -861.7903696074742,-1235.15976641453 -845.0651871690694,-1252.7033192841593 -828.0007178666261,-1270.025258943252 -810.599812032702,-1287.1192430161877 -792.8654357227113,-1303.97896422924 -774.8006703116964,-1320.5981524840915 -756.408712054465,-1336.970576927292 -737.6928716091298,-1353.0900480149962 -718.6565735240762,-1368.9504195723653 -699.3033556884249,-1384.5455908469817 -679.6368687460406,-1399.8695085556335 -659.6608754731673,-1414.9161689238374 -639.3792501197723,-1429.6796197174551 -618.7959777146892,-1444.1539622657772 -597.9151533346829,-1458.333353475416 -576.7409813375331,-1472.2120078343994 -555.2777745592808,-1485.7841994058108 -533.529953475773,-1499.044263810355 -511.5020453286555,-1511.9866001972114 -489.19868321597204,-1524.6056732025581 -466.6246051475603,-1536.8960148951242 -443.78465306540187,-1548.8522267081617 -420.6837718291421,-1560.4689813572109 -397.32700816697724,-1571.7410247430375 -373.7195095921279,-1582.6631778391322 -349.86652328511735,-1593.2303385631558 -325.7733949421145,-1603.4374836317227 -301.4455675895625,-1613.2796703979207 -276.8885803653716,-1622.7520386709596 -252.10806726694062,-1631.849812517359 -227.10975586628646,-1640.5683020430724 -201.8994659925749,-1648.9029051559658 -176.4831083823463,-1656.8491093080652 -150.8666832977681,-1664.4024932169875 -125.05627911320826,-1671.558728565987 -99.05807087048282,-1678.3135816820402 -72.87831880311154,-1684.6629151914126 -46.52336682993667,-1690.602689652136 -19.999641018457996,-1696.1289651628529 6.686351981721136,-1701.237902947474 33.52802653498499,-1705.9257669151054 60.51871964491995,-1710.1889251947161 87.65169260826012,-1714.0238516440015 114.9201326971506,-1717.4271273319364 142.31715486931765,-1720.3954419944866 169.8358035056933,-1722.9255954629723 197.46905417508728,-1725.0144990645829 225.20981542543547,-1726.6591769945423 253.05093060117744,-1727.8567676594362 280.9851796862974,-1728.6045249912193 309.00528117255175,-1728.8998197314293 337.1038939524117,-1728.7401406851388 365.2736192362046,-1728.1230959441828 393.50700249298905,-1727.0464140792199 421.7965354146291,-1725.507945300174 450.1346579025648,-1723.5056625846262 478.5137600767504,-1721.037662773733 506.92618430623963,-1718.1021676352457 535.364227260855,-1714.6975248932295 563.820141983426,-1710.8222092240767 592.2861399820188,-1706.4748232184263 620.7543933416085,-1701.654098308603 649.2170368546182,-1696.3588956612075 677.6661701697559,-1690.5882070344928 706.0938599585714,-1684.341155600169 734.4921420991228,-1677.616996729297 762.8530238761907,-1670.415118741934 791.1684861974135,-1662.7350436202034 819.4304858247473,-1654.5764276844784 847.6309576206327,-1645.9390622323717 875.7618168082611,-1636.822874140235 903.8149612452902,-1627.2279264268893 931.78227371041,-1617.154418779303 959.6556242021045,-1606.6026880399645 987.4268722489709,-1595.573208655687 1015.0878692309566,-1584.0665930876082 1042.6304607108561,-1572.0835921821538 1070.046488775429,-1559.6250955027363 1097.3277943854491,-1546.6921316219955 1124.4662197340595,-1533.2858683743614 1151.4536106127373,-1519.407613068768 1178.2818187842115,-1505.0588126613334 1204.9427043616488,-1490.2410538878444 1231.4281381934481,-1474.9560633558874 1257.73000425293,-1459.2057075964933 1283.8402020322696,-1442.9919930751496 1309.750648939969,-1426.317066162076 1335.4532827011776,-1409.1832130616433 1360.94006376017,-1391.592859700851 1386.2029776842996,-1373.5485715767636 1411.2340375686974,-1355.0530535628527 1436.025286441058,-1336.1091496741676 1460.568799665781,-1316.7198427912879 1484.856687346782,-1296.8882543430313 1508.8810967282616,-1276.617643947878 1532.6342145927267,-1255.9114090141074 1556.108269655574,-1234.7730842986361 1579.2955349555018,-1213.206341424588 1602.1883302400665,-1191.2149883575867 1624.779024345673,-1168.8029688408378 1647.0600375712781,-1145.974361789026 1669.023844045115,-1122.7333806410945 1690.6629740837284,-1099.0843726719709 1711.9700165426004,-1075.0318182633405 1732.9376211576878,-1050.580330133535 1753.5585008771375,-1025.734652526661 1773.8254341825007,-1000.4996603610887 1793.7312673987242,-974.8803583374219 1813.268916992235,-948.8818800060936 1832.4313718564013,-922.5094867947611 1851.211695583691,-895.7685669956351 1869.60302872382,-868.6646347129505 1887.5985910272038,-841.2033287707567 1905.1916836730209,-813.3904115812319 1922.3756914811977,-785.2317679737407 1939.1440851076416,-756.7334039848492 1955.490423222021,-727.901445609564 1971.4083546674422,-698.7421375140084 1986.8916206013164,-669.261841709825 2001.934056616784,-639.4670361905721 2016.5295948439905,-609.3643135303942 2030.6722660305877,-578.9603794452609 2044.3562016007731,-548.2620513171066 2057.5756356922366,-517.276256681153 2070.3249071703535,-486.0100316767766 2082.598461618978,-454.47051946224906 2094.390853307219,-422.6649685937104 2105.696747131536,-390.60073136873666 2116.510920532551,-358.2852621348713 2126.8282653859446,-325.72611556353297 2136.643789866821,-292.93094488966125 2145.952620286939,-259.9075001175358 2154.750002904194,-226.6636261931788 2163.031305703766,-193.20726114377283 2170.79202015034,-159.54643418452454 2178.027762910803,-125.68926379345227 2184.73427754687,-91.64395575452224 2190.9074361770377,-57.41880116963186 2196.54324110733,-23.022174439911122 2201.6378264302607,11.537468783165178 2206.1874595914896,46.25159367635092 2210.188542923609,81.11158835238874 2213.6376151465543,116.10876599640686 2216.5313528340944,151.23436703046158 2218.866571845911,186.47956130565737 2220.6402287247397,221.83545032130667 2221.849422058096,257.2930694705696 2222.491393804085,292.843390312017 2222.563530580825,328.4773228665137 2222.063364919013,364.1857179388763 2220.9885764771734,399.9593694636846 2219.336993219135,435.78901687465645 2217.1065925533085,471.66534749697524 2214.29550243332,507.5789989619633 2210.902002419587,543.5205616434465 2206.924524701427,579.4805811152199 2202.3616550792954,615.4495606289416 2197.2121339067685,651.4179636118217 2191.474856991881,687.3762161834476 2185.1488764574665,723.3147096910851 2178.2334015601236,759.2238032627963 2170.7277994674796,795.09382637767 2162.6315959934027,830.9150814525233 2153.9444762908415,866.6778464443577 2144.6662855019804,902.3723774678838 2134.79702936541,937.9889114274152 2124.33687478001,973.5176686624359 2113.2861503252907,1008.9488556060975 2101.645346737892,1044.2726674559747 2089.4151173440164,1079.4792908563225 2076.596278447528,1114.5589065911215 2063.1898096735044,1149.5016922871778 2049.196854267002,1184.2978251265497 2034.618719346851,1218.9374845675309 2019.456876114265,1253.4108550734918 2003.7129600160868,1287.7081288487857 1987.3887708625098,1321.8195085809973 1970.486272899105,1355.7352101887575 1953.0075948330132,1389.4454655743766 1934.955029813167,1422.940525380537 1916.3310353644308,1456.2106617502507 1897.1382332755375,1489.2461710893547 1877.3794094407376,1522.037376830744 1857.0575136550751,1554.5746321995744 1836.1756593632251,1586.848322978665 1814.7371233618226,1618.848870273323 1792.7453454552676,1650.5667332747937 1770.2039280649476,1681.992412021587 1747.1166357918714,1713.116450157865 1723.4873949327211,1743.929437688136 1699.320292949312,1774.4220137274447 1674.6195778914998,1804.5848692462944 1649.3896577735545,1834.4087498095123 1623.635099904073,1863.8844583082557 1597.3606301694654,1893.002857684399 1570.571132271107,1921.7548736465026 1543.2716469162426,1950.1314973765784 1515.467370962742,1978.123788226872 1487.163656517815,2005.7228764058868 1458.366009990836,2032.9199656528424 1429.080091100388,2059.706335899822 1399.3117118357084,2086.0733459208036 1369.0668353726876,2112.0124359668107 1338.3515749446074,2137.515130386403 1307.172192667815,2162.5730402307368 1275.5350983225264,2187.177865842427 1243.4468480890098,2211.3213994274356 1210.914143239341,2234.9955276092314 1177.9438287850103,2258.192233964458 1144.5428920806241,2280.9036015393467 1110.7184613839806,2303.1218153461227 1076.4778043727895,2324.839164838666 1041.8283266183655,2346.048046366654 1006.7775700165665,2366.7409656074697 971.3332111763282,2386.91053997513 935.503059766118,2406.549501005489 899.2950568186665,2425.6506967170108 862.7172729943164,2444.207093946368 825.7779068034004,2462.2117806581537 788.4852827879888,2479.6579682280108 750.8478496634376,2496.5389936984457 712.874178420133,2512.8483220066487 674.5729603858579,2528.579548183611 635.9530052492172,2543.726399523865 597.0232390445535,2558.2827377251533 557.7927020988448,2572.2425609973566 518.2705469410099,2585.600006140019 478.4660361741367,2598.349350587803 438.38854031110907,2610.485014423221 398.0475355741473,2622.0015623560057 357.4526016587569,2632.893705668474 316.61341946265134,2643.156304126254 275.539768780138,2652.784367853766 234.24152596255112,2661.7730591738273 192.72866154527614,2670.1176944107883 151.01123784194058,2677.8137456566005 109.0994065063373,2684.856842499232 67.00340606270528,2691.2427737128396 24.733559404922733,2696.967488909158 -17.69972873474253,2702.0271001495075 -60.28597434671824,2706.4178835169123 -103.01461673441588,2710.136280647751 -145.87502113307957,2713.1789002224436 -188.85648135656052,2715.5425194146314 -231.94822247132225,2717.2240852983505 -275.13940349705723,2718.220716212699 -318.4191201332016,2718.5297030835145 -361.77640751067725,2718.1485107015724 -405.2002429681622,2717.074778956852 -448.6795488522015,2715.306324028408 -492.2031953404108,2712.8411395294015 -535.7600032871031,2709.6773976068666 -579.3387470905755,2705.8134499957837 -622.9281575813341,2701.2478290270487 -666.5169249305176,2695.9792485889548 -710.0937015777623,2690.0066050417754 -753.6471051777619,2683.3289780851087 -797.1657215647497,2675.9456315775865 -840.638107734134,2667.8560143086297 -884.0527948405382,2659.0597607218865 -927.3982912113875,2649.556691590062 -970.6630853753514,2639.3468146407863 -1013.8356491047784,2628.4303251332644 -1056.9044404713416,2616.8076063853914 -1099.857906914096,2604.47923025108 -1142.6844883191259,2591.4459575475275 -1185.3726201099707,2577.708738432186 -1227.910736348009,2563.268712729198 -1270.2872728419704,2548.1272102050784 -1312.4906702657465,2532.2857507934395 -1354.5093772836678,2515.7460447685608 -1396.3318536824047,2498.509992867639 -1437.9465735086678,2480.5796863615224 -1479.3420282118068,2461.9574070738313 -1520.5067297905393,2442.6456273482645 -1561.429213942894,2422.6470099640196 -1602.0980432185368,2401.964407999187 -1642.501810172624,2380.6008646420432 -1682.6291405203112,2358.559612950142 -1722.468696291067,2335.8440755571564 -1762.0091789819196,2312.4578643274053 -1801.2393327087725,2288.4047799580308 -1840.1479473549227,2263.6888115288048 -1878.7238617159105,2238.314135999551 -1916.9559666398309,2212.2851176551953 -1954.833208162254,2185.606307498435 -1992.344590634831,2158.2824425901217 -2029.4791798467868,2130.3184453373324 -2066.226106138372,2101.71942272924 -2102.5745675054322,2072.4906655208474 -2138.513832694207,2042.6376473646712 -2174.0332442855006,2012.1660238904915 -2209.1222217673508,1981.0816317332728 -2243.7702645953286,1949.3904875094129 -2277.9669552395994,1917.0987867414437 -2311.701962217886,1884.2129027313738 -2344.9650431134637,1850.739385382832 -2377.7460475773505,1816.6849599722007 -2410.034920313777,1782.056525868988 -2441.8217040481536,1746.8611552055986 -2473.0965424766327,1711.1060914967834 -2503.8496831964267,1674.7987482090043 -2534.0714806160463,1637.9467072799803 -2563.752398844604,1600.5577175886908 -2592.8830145593506,1562.6396933761364 -2621.4540198506043,1524.200712617155 -2649.456225043251,1485.249015343622 -2676.88056149398,1445.7930019193689 -2703.7180843634383,1405.8412312671653 -2729.9599753624816,1365.4024190481373 -2755.597545471735,1324.485435793969 -2780.622237633606,1283.0993049923482 -2805.0256294160126,1241.253201125968 -2828.799435646989,1198.9564476655723 -2851.935511019393,1156.2185150174482 -2874.4258526649414,1113.049018425814 -2896.262602696787,1069.4577158305663 -2917.4380507198803,1025.454505680852 -2937.944636308341,981.0494247049502 -2957.774951449104,936.2526456369676 -2976.9217429510745,891.0744749008505 -2995.377914819072,845.5253502522424 -3013.136530591813,799.615838378725 -3030.1908156432396,753.3566324589625 -3046.5341594464353,706.7585496813863 -3062.1601177994744,659.8325287228913 -3077.062415012469,612.589627188205 -3091.234946055146,565.0410190104989 -3104.671778664269,517.1979918138528 -3117.367155410234,469.07194423819755 -3129.315495722196,420.674383227366 -3140.5113978710474,372.0169212808969 -3150.9496409096378,323.11127367024886 -3160.6251865695954,273.9692556200892 -3169.5331811141205,224.60277945533593 -3177.668957146163,175.02385171464815 -3185.0280353713742,125.2445702310283 -3191.606126315242,75.27712118033203 -3197.3991319938505,25.133776098291992 -3202.403147537688,-25.173111133129208 -3206.6144627679496,-75.6311073293511 -3210.0295637248046,-126.22770307599666 -3212.645134147091,-176.95031583016376 -3214.4580569029185,-227.7862930493774 -3215.4654153706874,-278.7229153474452 -3215.6644947700183,-329.74739967642887 -3215.05278344212,-380.84690253393546 -3213.6279740791265,-432.00852319491855 -3211.3879649019455,-483.2193069672107 -3208.330860786188,-534.4662484698798 -3204.4549743357384,-585.736294933695 -3199.7588269035523,-637.0163495227793 -3194.241149559291,-688.293274676637 -3187.900884003395,-739.5538954717034 -3180.7371834272158,-790.7850030015495 -3172.749413318869,-841.9733577748826 -3163.937152214433,-893.1056931304679 -3154.300192394185,-944.1687186680898 -3143.8385405235417,-995.1491236946702 -3132.5524182384006,-1046.03358068465 -3120.4422626746073,-1096.8087487537334 -3107.5087269412466,-1147.4612771451223 -3093.752680537533,-1197.9778087272507 -3079.1752097130116,-1248.3449835022175 -3063.7776177708806,-1298.5494421239139 -3047.5614253141866,-1348.5778294249592 -3030.5283704347125,-1398.416797951509 -3012.680408844354,-1448.0530115050033 -2994.0197139488346,-1497.473148689925 -2974.5486768635815,-1546.663906466622 -2954.269906371641,-1595.6120037082592 -2933.1862288234897,-1644.3041847609447 -2911.3006879786494,-1692.7272230060894 -2888.616544789001,-1740.8679244240436 -2865.137277123708,-1788.7131311580808 -2840.866579435728,-1836.249725077704 -2815.8083623698053,-1883.4646313404144 -2789.9667523119597,-1930.3448219509098 -2763.346090880434,-1976.8773193167797 -2735.950934358107,-2023.0491997997308 -2707.78605306638,-2068.8475972613837 -2678.856430680577,-2114.259706602671 -2649.1672634869005,-2159.272787295882 -2618.723959581006,-2203.874166908379 -2587.5321380082746,-2248.051244617032 -2555.5976278458793,-2291.7914947124063 -2522.9264672267573,-2335.082470091729 -2489.5249023055917,-2377.911805739711 -2455.3993861670087,-2420.267222196185 -2420.556577676058,-2462.1365290097024 -2385.003340271226,-2503.5076281760566 -2348.7467407001295,-2544.3685175608066 -2311.794047698118,-2584.707294304845 -2274.1527306099924,-2624.5121582120582 -2235.83045795508,-2663.7714151181353 -2196.8350959359286,-2702.473480239572 -2157.1747068908735,-2740.6068815019435 -2116.8575476907718,-2778.1602628464925 -2075.892068080201,-2815.1223875141095 -2034.2869089634482,-2851.482141305771 -1992.0509006355749,-2887.228535818527 -1949.1930609589976,-2922.3507116560627 -1905.722593485839,-2956.8379416130056 -1861.6488855264965,-2990.679633831986 -1816.981506164797,-3023.8653349325964 -1771.7302042201532,-3056.384733111328 -1725.9049061571338,-3088.2276612115907 -1679.5157139428957,-3119.3840997629422 -1632.5729028529267,-3149.8441799886327 -1585.0869192255652,-3179.5981867805936 -1537.0683781657804,-3208.6365616410026 -1488.528061198713,-3236.9499055895726 -1439.476913873486,-3264.528982035691 -1389.9260433177865,-3291.3647196145976 -1339.8867157438349,-3317.4482149867126 -1289.370353906192,-3342.7707355993443 -1238.3885345120457,-3367.323722409907 -1186.9529855845399,-3391.0987925698673 -1135.075583779732,-3414.087742068595 -1082.7683516578036,-3436.2825483363376 -1030.0434549091349,-3457.67537280552 -976.9131995358899,-3478.2585634296097 -923.3900289897555,-3498.024657158766 -869.4865212664997,-3516.966382371523 -815.2153859580349,-3535.0766612617635 -760.5894612626311,-3552.348612180248 -705.6217109540781,-3568.7755519299553 -650.3252213103865,-3584.350998014554 -594.7131980028453,-3599.068670839277 -538.7989629461372,-3612.9224958635064 -482.59595111027056,-3625.9066057044083 -426.1177072950863,-3638.0153421909245 -369.37788286811707,-3649.2432583674845 -312.39023246658155,-3659.585120446778 -255.16861066431153,-3669.035909710963 -197.7269686044178,-3677.5908243606937 -140.07935059851437,-3685.2452813113428 -82.23989069333571,-3691.9949179358496 -24.222809205547104,-3697.8355937535916 33.9575907743045,-3702.763392064716 92.28692690796984,-3706.7746215293832 150.75074116484026,-3709.8658176913773 209.33450340561382,-3712.0337444455495 268.0236149933903,-3713.275395448588 326.8034124312977,-3713.5879954726183 385.65917102574343,-3712.9690017011344 444.57610857437544,-3711.416104966805 503.53938907782975,-3708.9272309306857 562.5341264743331,-3705.50054120241 621.5453883962192,-3701.1344344009112 680.5581999474068,-3695.8275471552897 739.5575475009234,-3689.5787550453992 798.5283825154103,-3682.3871734818 857.4556253697764,-3674.2521585246855 916.324169214923,-3665.173307641456 975.1188838415947,-3655.150460402584 1033.8246195633635,-3644.1836991154614 1092.4262111137512,-3632.2733493959295 1150.908481556486,-3619.4199806771976 1209.2562462078897,-3605.6244066558725 1267.4543165703817,-3590.887685674861 1325.4875042760852,-3575.21112104289 1383.340625039514,-3558.5962612904364 1440.9985026183006,-3541.044900361839 1498.4459727809876,-3522.559077743426 1555.6678872807386,-3503.1410785274807 1612.6491178340634,-3482.7934334118713 1669.3745601034248,-3461.518918635226 1725.8291376827135,-3439.3205558475206 1781.9978060845417,-3416.201611915978 1837.865556728305,-3392.165598666183 1893.4174209279568,-3367.2162725583553 1948.6384738784498,-3341.357634298708 2003.5138386397728,-3314.593928385869 2058.028690117543,-3286.9296425923344 2112.168259039079,-3258.369507380971 2165.9178359239263,-3228.9184952565306 2219.2627750476963,-3198.5818200523004 2272.188498398275,-3167.3649361518337 2324.680499623237,-3135.273537645897 2376.7243479674653,-3102.3135574246917 2428.3056921998827,-3068.49116620546 2479.4102645282583,-3033.8127714955817 2530.023884501016,-2998.285016491309 2580.132462894996,-2961.9147789122867 2629.722005588111,-2924.7091697720302 2678.7786174158387,-2886.6755320845473 2727.2885060105073,-2847.821439507305 2775.2379856223197,-2808.154694920783 2822.61348092109,-2767.6833289448055 2869.401530777583,-2726.415598391989 2915.5887920235205,-2684.359984658494 2961.1620431891283,-2641.525192052417 3006.1081882172357,-2597.9201460601366 3050.414260152891,-2553.553991550914 3094.0674248074615,-2508.4360909201055 3137.054984396208,-2462.576022171344 3179.364381148316,-2415.9835769380643 3220.9832008883777,-2368.668758444765 3261.8991765883106,-2320.6417794084173 3302.1001918887346,-2271.9130598804436 3341.5742845887935,-2222.4932250297243 3380.309650103469,-2172.393102867044 3418.2946448873518,-2121.623721911549 3455.5177898239704,-2070.196308799594 3491.9677735796577,-2018.1222858365609 3527.6334559210254,-1965.4132684921544 3562.503870995087,-1912.0810628397107 3596.568230571096,-1858.1376629400788 3629.815927243159,-1803.5952481706456 3662.236537592703,-1748.4661805000947 3693.819825309889,-1692.7630017094982 3724.5557442730487,-1636.4984305603634 3754.434441585264,-1579.6853599102653 3783.4462605671906,-1522.3368537767246 3811.581743705267,-1464.4661443499497 3838.8316355543984,-1406.086628955224 3865.1868855943176,-1347.2118669654994 3890.638651038731,-1287.855576665005 3915.178299596431,-1228.0316320645445 3938.7974121835487,-1167.7540596692368 3961.487785586135,-1107.037035199443 3983.2414350722643,-1045.8948802656446 4004.050596952872,-984.3420589980543 4023.907731090552,-922.3931746317439 4042.805523355539,-860.062966048101 4060.736888028137,-797.3663042734269 4077.69497014683,-734.318188935516 4093.6731478013867,-670.9337446790172 4108.6650343701795,-607.2282175405348 4122.664480701094,-543.2169712842034 4135.66557723529,-478.91548369871606 4147.662656073137,-414.3393428566576 4158.650292981709,-349.5042433370538 4168.623309343136,-284.4259824120522 4177.576774043226,-219.12045619865887 4185.506005299713,-153.60365577647025 4192.406572429544,-87.8916632723468 4198.274297554605,-22.00064791298773 4203.105257245319,44.0531379536244 4206.895784101567,110.25336286692314 4209.642468270379,176.58362029165755 4211.3421588998635,243.02743268388082 4211.991965528889,309.5682555841704 4211.589259411997,376.18948173695065 4210.131674779086,442.87444523493684 4207.617110029387,509.6064256876593 4204.043728859313,576.3686524130252 4199.409961323718,643.1443086508671 4193.714504830177,709.9165357974199 4186.956325065893,776.6684376596612 4179.134656856837,843.3830847284414 4170.249004958765,910.0435184693134 4160.299144779771,976.6327556300262 4149.285123034061,1043.133792563469 4137.2072583266045,1109.529609565123 4124.066141668411,1175.8031752237998 4109.862636922125,1241.9374507845978 4094.5978811777068,1307.9153945229596 4078.273285057952,1373.719966128705 4060.8905329536155,1439.3341310989103 4042.4515831879685,1504.7408651385117 4022.9586681105666,1569.923158567488 4002.4142941201058,1634.8640207334968 3980.8212416161714,1699.5464844288067 3958.182564879795,1763.9536103103853 3934.501591882667,1828.068491322033 3909.7819240249646,1891.8742571173022 3884.0274358016577,1955.3540784821942 3857.2422743972948,2018.4911717563714 3829.4308592091943,2081.268803251767 3800.5978812990484,2143.670293667429 3770.7483027729204,2205.6790224994375 3739.887356089675,2267.278432444735 3708.02054329786,2328.4520337977024 3675.153635201121,2389.183408838337 3641.292670452193,2449.4562162108373 3606.4439545756027,2509.254195291473 3570.6140589191705,2568.5611705445413 3533.8098195344305,2627.361055865304 3496.0383359861817,2685.6378589086457 3457.3069700912692,2743.3756854024286 3417.6233445868193,2800.558743444279 3376.995341728148,2857.1713477807166 3335.4311018165477,2913.19792406744 3292.93902165721,2968.6230131096427 3249.527752947544,3023.4312750812023 3205.2062005961798,3077.607493721611 3159.9835209729595,3131.1365805095 3113.8691200902263,3184.0035788116347 3066.872651715766,3236.193668006241 3019.0040154177555,3287.692167579541 2970.273354542064,3338.4845411944116 2920.691054122385,3388.556400729956 2870.2677387235,3437.8935102910095 2819.0142702181965,3486.481790186377 2766.9417454982463,3534.30732087475 2714.0614941199233,3581.356346877197 2660.385075884544,3627.615280655154 2605.9242783545437,3673.0707064528287 2550.691114305595,3717.709384102956 2494.6978191153175,3761.518252794841 2437.9568480891403,3804.4844348036354 2380.4808737238823,3846.595239179794 2322.2827829096213,3887.8381653977117 2263.375674070546,3928.2009069624282 2203.7728542452915,3967.6713549734895 2143.487836107497,4006.237601644874 2082.534334927214,4043.887943780024 2020.9262654738322,4080.6108862009696 1958.6777388612363,4116.395145130583 1895.8030593358862,4151.229651526981 1832.316721008557,4185.1035543691305 1768.2334045304726,4218.006223892685 1703.5679737145992,4249.927254775142 1638.335472102864,4280.856469269383 1572.551119480102,4310.783920284678 1506.230308335482,4339.699894414276 1439.3886002723573,4367.594914908652 1372.0417223672075,4394.459744593574 1304.2055634786493,4420.2853887321135 1235.8961705073264,4445.063097829737 1167.1297446075655,4468.784370381655 1097.9226373516933,4491.440955561602 1028.291346847917,4513.024855851234 958.252513812693,4533.528329609353 887.8229175985126,4552.94389358017 817.0194721780556,4571.264325339847 745.8592220856708,4588.482665680568 674.3593383171622,4604.592220931377 602.5371141888214,4619.586565215112 530.4099611568245,4633.459542640663 457.99540459783896,4646.205269429918 385.3110795519887,4657.818135978694 312.37472642915964,4668.292808851001 239.20418667969815,4677.624232705988 165.81739843056175,4685.807632156962 92.23239208798714,4692.838513561849 18.467285907753745,4698.712666744523 -55.45971846586877,4703.426166646405 -129.53034049139018,4706.975374907796 -203.7262252504792,4709.356941378389 -278.02894799632594,4710.5678055564285 -352.4200187289108,4710.605197956033 -426.8808867959187,4709.466641402175 -501.39294551831887,4707.1499522528375 -575.9375368393356,4703.653241547931 -650.4959559956939,4698.974916084494 -725.0494562099665,4693.11367941779 -799.579253402842,4686.06853278789 -874.0665309241338,4677.838775971368 -948.4924443013329,4668.424008057742 -1022.8381260045145,4657.824128150331 -1097.0846902263859,4646.039335991193 -1171.2132376762731,4633.070132509855 -1245.2048603868152,4618.917320295539 -1319.040646532199,4603.582003992612 -1392.7016852565819,4587.065590619068 -1466.1690715116358,4569.369789807734 -1539.423910901854,4550.496613970063 -1612.4473245364281,4530.448378382297 -1685.2204538864464,4509.22770119385 -1757.7244656461573,4486.837503357737 -1829.940556597061,4463.281008482971 -1901.849958473561,4438.561742608771 -1973.4339428289295,4412.68353390054 -2044.6738259003182,4385.650512267508 -2115.550973471566,4357.467108902032 -2186.046805732522,4328.1380557405055 -2256.142802133671,4297.668384845863 -2325.8205062346833,4266.0634277117515 -2395.0615305457754,4233.328814488323 -2463.847561360498,4199.470473129775 -2532.1603635787333,4164.494628463678 -2599.9817855186357,4128.407801182203 -2667.2937637162377,4091.2168067553653 -2734.078327711469,4052.928754266417 -2800.3176048193186,4013.5510451695577 -2865.993824884887,3973.0913719701375 -2931.089325021061,3931.557716827549 -2995.5865543275545,3888.958350081043 -3059.4680785901,3845.301828698671 -3122.716584958439,3800.596994649697 -3185.314886601997,3754.8529732006546 -3247.2459273419,3708.0791711354314 -3308.4927862581353,3660.285274899673 -3369.0386822706114,3611.4812486698465 -3428.866978692884,3561.677332347344 -3487.9611877573275,3510.884039477981 -3546.3049751105254,3459.112155097322 -3603.8821642776775,3406.372733502241 -3660.6767410947964,3352.6770959491573 -3716.6728581075,3298.0368282794147 -3771.854838935203,3242.4637784722954 -3826.2071825995486,3185.9700541261263 -3879.7145678157995,3128.5680198680907 -3932.3618572461564,3070.2702946931754 -3984.134101713725,3011.089749232896 -4035.016544376023,2951.039502954333 -4084.994624856859,2890.132921290106 -4134.053983335459,2828.3836126998904 -4182.180464591697,2765.8054256641053 -4229.360122006306,2702.4124456104432 -4275.57922151496,2638.218991773906 -4320.8242455151385,2573.2396139910397 -4365.0818967246405,2507.489089429077 -4408.339101990721,2440.9824192507263 -4450.583016048752,2373.7348252153065 -4491.801025229309,2305.761746217105 -4531.980751112726,2237.078834761585 -4571.110054130002,2167.7019533803605 -4609.177037109075,2097.64717098571 -4646.170048765438,2026.9307591654585 -4682.0776871361,1955.5691884190903 -4716.8888029559275,1883.5791243359572 -4750.592502975342,1810.9774237164545 -4783.178153218477,1737.7811306370793 -4814.6353821808125,1664.0074724602753 -4844.954083965358,1589.6738557900014 -4874.12442135647,1514.7978623739725 -4902.136828830428,1439.397244953497 -4928.982015501826,1363.4899230619974 -4954.650968004961,1287.0939787730538 -4979.134953309343,1210.2276523990963 -5002.42552146847,1132.9093381417156 -5024.514508301064,1055.1575796946408 -5045.394038003953,976.9910658004319 -5065.056525695795,898.4286257619518 -5083.49467989089,819.4892249096931 -5100.701504902288,740.191960026051 -5116.670303173496,660.5560547276473 -5131.394677538,580.6008548068262 -5144.868533405968,500.3458235334025 -5157.086080877354,419.81053691793153 -5168.041836780821,339.0146789374776 -5177.730626637764,257.97803672517875 -5186.147586550829,176.72049572472864 -5193.288165016303,95.26203481097224 -5199.148124659764,13.622721377811377 -5203.723543894437,-68.1772936053711 -5207.010818501675,-150.11778056755165 -5209.006663133023,-232.17843633894253 -5209.7081127333495,-314.33888918166735 -5209.112523884554,-396.57870384698964 -5207.217576069343,-478.877386657829 -5204.0212728546185,-561.2143906153572 -5199.52194299406,-643.569120528262 -5193.718241449438,-725.9209381635848 -5186.609150330286,-808.2491674177035 -5178.193979751533,-890.533099506222 -5168.472368608752,-972.7519981714564 -5157.4442852706525,-1054.885104906203 -5145.110028188534,-1136.9116441924793 -5131.47022642237,-1218.8108287539137 -5116.525840083269,-1300.561864820454 -5100.278160692032,-1382.1439574040685 -5082.728811453592,-1463.536315584094 -5063.8797474471085,-1544.7181578008874 -5043.733255731512,-1625.668717156493 -5022.291955366383,-1706.3672467207714 -4999.55879734791,-1786.7930248420314 -4975.537064459939,-1866.925360460269 -4950.230371039846,-1946.7435984222434 -4923.642662659324,-2026.2271247964334 -4895.7782157198435,-2105.355372187081 -4866.641636962889,-2184.107825045488 -4836.2378628949,-2262.464024977395 -4804.5721591268475,-2340.403576045239 -4771.650119628642,-2417.9061500634716 -4737.477665898197,-2494.9514918861273 -4702.061046045467,-2571.5194246846945 -4665.406833791285,-2647.589855215484 -4627.521927381383,-2723.142779074565 -4588.413548415459,-2798.1582859394534 -4548.08924059173,-2872.6165647956277 -4506.55686836685,-2946.4979091470614 -4463.82461553171,-3019.7827222088604 -4419.900983703041,-3092.451522081153 -4374.794790731286,-3164.484946902471 -4328.515169024963,-3235.8637599814247 -4281.071563791646,-3306.5688549054757 -4232.473731196179,-3376.581260625056 -4182.731736436102,-3445.88214651219 -4131.855951735024,-3514.452827391764 -4079.857054253902,-3582.2747685446 -4026.7460239210704,-3649.329590680532 -3972.5341411810045,-3715.599074880618 -3917.2329846626703,-3781.0651675067056 -3860.8544287675277,-3845.709985077508 -3803.4106411780704,-3909.5158191094015 -3744.9140802870193,-3972.465140921117 -3685.3774925480097,-4034.540606400653 -3624.813909748203,-4095.72506073327 -3563.2366462032487,-4156.0015430894455 -3500.659295875532,-4215.353291271146 -3437.095729415884,-4273.763746315608 -3372.5600911298434,-4331.216557054917 -3307.0667958686663,-4387.695584630597 -3240.6305258462025,-4443.184906961532 -3173.266227381891,-4497.66882316442 -3104.9891075710357,-4551.131857925155 -3035.8146308826313,-4603.558765820304 -2965.758515685967,-4654.9345355871255 -2894.836730706317,-4705.244394341308 -2823.0654914108763,-4754.473811740959 -2750.461256325628,-4802.608504095831 -2677.0407232837756,-4849.634438420721 -2602.8208256070257,-4895.53783643166 -2527.818728220061,-4940.305178484099 -2452.0518236996263,-4983.923207451646 -2375.5377282585973,-5026.378932544605 -2298.294277666498,-5067.659633066906 -2220.3395231068503,-5107.752862110671 -2141.691726972881,-5146.646450187089 -2062.369358601994,-5184.3285087928225 -1982.391089950562,-5220.787433910674 -1901.775791209509,-5256.011909443756 -1820.5425263621428,-5289.990910581975 -1738.7105486851117,-5322.713707099932 -1656.2992961933596,-5354.16986658537 -1573.328387030609,-5384.349257597034 -1489.8176148058951,-5413.242052751236 -1405.786943877853,-5440.838731736016 -1321.2565045872802,-5467.130084252206 -1236.2465884397093,-5492.107212880319 -1150.777643238546,-5515.761535872623 -1064.87026817054,-5538.084789869357 -978.5452088441598,-5559.069032538455 -891.8233522826808,-5578.70664513781 -804.7257218725941,-5596.990334999453 -717.2734722690451,-5613.913137934766 -629.4878842593391,-5629.468420560025 -541.3903595855642,-5643.649882541595 -453.0024157280845,-5656.451558759971 -364.3456806505611,-5667.86782139211 -275.441887508419,-5677.893381911249 -186.3128693214178,-5686.5232930036855 -96.9805536122706,-5693.75295040182 -7.466957011986868,-5699.578094632892 82.20582016609067,-5703.9948126828 172.01559938284245,-5706.999539574487 261.94012935867005,-5708.589059860291 351.95709158638044,-5708.760509027795 442.044105870495,-5707.511374818644 532.178735891099,-5704.839498459867 622.3384947914807,-5700.743075807241 712.500850787515,-5695.220658400275 802.6432327980463,-5688.27115442838 892.7430360942118,-5679.893829607879 982.7776279669403,-5670.088307969424 1072.7243534105578,-5658.854572555554 1162.5605408217248,-5646.192966028001 1252.2635077116145,-5632.104191184492 1341.8105664305342,-5616.589311384753 1431.1790299030272,-5599.649750885454 1520.3462173722164,-5581.287295083894 1609.289460152135,-5561.504090670163 1697.9861073860839,-5540.302645687689 1786.413531810172,-5517.685829501868 1874.5491355199454,-5493.656872676824 1962.370355739257,-5468.219366759984 2049.85467058929,-5441.377263974567 2136.9796048568774,-5413.134876819747 2223.7227357600245,-5383.496877578613 2310.0616987097765,-5352.468297733727 2395.9741930663313,-5320.054527290485 2481.4379878885243,-5286.261314008094 2566.4309276747113,-5251.094762538393 2650.930938093775,-5214.561333472537 2734.916031704961,-5176.667842295529 2818.3643136645833,-5137.421458248959 2901.2539874187196,-5096.829703101816 2983.5633603798074,-5054.900449829827 3065.270849586272,-5011.641921203229 3146.3549873431148,-4967.062688283483 3226.794426842585,-4921.171668828879 3306.567947762878,-4873.978125609582 3385.654461843988,-4825.491664632131 3464.0330184386657,-4775.722233273974 3541.6828100375847,-4724.680118328108 3618.583177766828,-4672.375943958401 3694.713616856413,-4618.820669565907 3770.0537820785967,-4564.025587566437 3844.583493154093,-4508.002321080127 3918.2827401252907,-4450.762821533074 3991.1316886945338,-4392.31936617191 4063.1106855265452,-4332.68455549141 4134.200263513098,-4271.871310576072 4204.381146999016,-4209.892870355784 4273.634256967624,-4146.762788776585 4341.940716184747,-4082.4949318866566 4409.281854299398,-4017.1034748386287 4475.639212900261,-3950.602898808364 4540.994550526209,-3883.007987831263 4605.3298476296995,-3814.3338255566136 4668.6273114918085,-3744.5957919205325 4730.869381087249,-3673.8095597386096 4792.038731898479,-3601.991091218514 4852.118280677147,-3529.156634393841 4911.0911901520185,-3455.3227194794617 4968.940873681684,-3380.5061551497197 5025.650999851164,-3304.724024739762 5081.205497010784,-3227.9936823714065 5135.58855775644,-3150.332749003861 5188.784643349648,-3071.759108410742 5240.778488076521,-2992.2909030837645 5291.555103544187,-2911.946530064482 5341.099782913549,-2830.7446367048337 5389.398105067349,-2748.704116357315 5436.435938712088,-2665.844103996194 5482.1994464129675,-2582.183971770231 5526.675088560433,-2497.743324488515 5569.849627267487,-2412.541995039872 5611.710130196368,-2326.6000397475104 5652.243974313836,-2239.9377336593852 5691.438849573676,-2152.575565775993 5729.282762525679,-2064.5342342160993 5765.764039849778,-1975.8346413221689 5800.871331814578,-1886.4978887060265 5834.593615659111,-1796.545272236438 5866.92019889688,-1705.9982769695832 5897.8407225413275,-1614.8785720234332 5927.345164251606,-1523.2080053977568 5955.4238413979365,-1431.0085987403627 5982.067414045438,-1338.302542061483 6007.266887855764,-1245.1121883969108 6031.013616905466,-1151.4600484218317 6053.299306420436,-1057.368785015984 6074.1160154254385,-962.8612077821283 6093.456159308074,-867.9602675184773 6111.312512296252,-772.6890506471 6127.678209848548,-677.070773598999 6142.546750956596,-581.1287771577524 6155.912000358841,-484.88652076289185 6167.768190664996,-388.3675767741844 6178.109924390421,-291.5956246987649 6186.932175899902,-194.59444538185903 6194.230293260078,-97.38791516321841 6200.0,-4.5556860928281536e-12" stroke="black" stroke-width="266.6666666666667" /><text fill="black" font-family="Arial" font-size="479.2077407348007" font-weight="bold" text-anchor="middle" x="495.14594363332526" y="7315.44662470199">Spiral | w=400µm | outer+0.2mm | wall_ratio=0.3 | loops=3 r0=200µm s=2000µm</text></svg>